M48
METRIC,LZ,000.000
;FILE_FORMAT=3:3
;TYPE=PLATED
;Layer: Drill PTH
;EasyEDA v6.4.19.5, 2021-05-27T00:11:37--3:00
;bf34132eec9142e49db4406177482e83,59636247558045d2802cba280e4ac9d9,10
;Gerber Generator version 0.2
;Holesize 1 = 0.800 mm
T01C0.800
;Holesize 2 = 3.200 mm
T02C3.200
%
G05
G90
T01
X054501Y044872
X054501Y042332
X054501Y039792
X054501Y037252
X054501Y034712
X054501Y032172
X054501Y017539
X054501Y014999
X002380Y047780
X002380Y045240
X002380Y042700
X002380Y040160
X002380Y037620
X002380Y035080
X002380Y032540
X002380Y030000
X002380Y027460
X002380Y024920
X002380Y022380
X002380Y019840
X002380Y017300
X002380Y014760
X002380Y012220
X017620Y047780
X017620Y045240
X017620Y042700
X017620Y040160
X017620Y037620
X017620Y035080
X017620Y032540
X017620Y030000
X017620Y027460
X017620Y024920
X017620Y022380
X017620Y019840
X017620Y017300
X017620Y014760
X017620Y012220
X048500Y046040
X048500Y043500
X048499Y013460
X048499Y018540
X048540Y031326G85X048500Y031326
X048540Y039581G85X048500Y039581
X048500Y028750
X048500Y021130
X048500Y010540
X048500Y008000
X048500Y005460
X025450Y030750
X025450Y025550
X038900Y030060
X038900Y027460
X025450Y028150
X038900Y032660
X038900Y024860
T02
X005000Y055000G85X005000Y055000
X055000Y055000G85X055000Y055000
X005000Y005000G85X005000Y005000
X055000Y005000G85X055000Y005000
M30
