G04 Layer: TopSilkLayer*
G04 EasyEDA v6.4.19.5, 2021-05-27T00:11:37--3:00*
G04 bf34132eec9142e49db4406177482e83,59636247558045d2802cba280e4ac9d9,10*
G04 Gerber Generator version 0.2*
G04 Scale: 100 percent, Rotated: No, Reflected: No *
G04 Dimensions in millimeters *
G04 leading zeros omitted , absolute positions ,4 integer and 5 decimal *
%FSLAX45Y45*%
%MOMM*%

%ADD10C,0.2540*%
%ADD19C,0.2007*%
%ADD20C,0.1501*%
%ADD21C,0.2286*%
%ADD22C,0.2032*%
%ADD23C,0.2030*%
%ADD24C,0.1016*%

%LPD*%
D22*
X2091690Y5303786D02*
G01*
X2070861Y5296928D01*
X2056891Y5276100D01*
X2050034Y5241556D01*
X2050034Y5220728D01*
X2056891Y5185930D01*
X2070861Y5165356D01*
X2091690Y5158244D01*
X2105406Y5158244D01*
X2126234Y5165356D01*
X2139950Y5185930D01*
X2147061Y5220728D01*
X2147061Y5241556D01*
X2139950Y5276100D01*
X2126234Y5296928D01*
X2105406Y5303786D01*
X2091690Y5303786D01*
X2275840Y5303786D02*
G01*
X2206497Y5303786D01*
X2199640Y5241556D01*
X2206497Y5248414D01*
X2227325Y5255272D01*
X2248154Y5255272D01*
X2268981Y5248414D01*
X2282697Y5234444D01*
X2289809Y5213616D01*
X2289809Y5199900D01*
X2282697Y5179072D01*
X2268981Y5165356D01*
X2248154Y5158244D01*
X2227325Y5158244D01*
X2206497Y5165356D01*
X2199640Y5172214D01*
X2192781Y5185930D01*
X2459990Y5331472D02*
G01*
X2335529Y5109730D01*
X2512822Y5269242D02*
G01*
X2512822Y5276100D01*
X2519679Y5289816D01*
X2526538Y5296928D01*
X2540508Y5303786D01*
X2568193Y5303786D01*
X2581909Y5296928D01*
X2589022Y5289816D01*
X2595879Y5276100D01*
X2595879Y5262130D01*
X2589022Y5248414D01*
X2575052Y5227586D01*
X2505709Y5158244D01*
X2602738Y5158244D01*
X2690113Y5303786D02*
G01*
X2669286Y5296928D01*
X2655570Y5276100D01*
X2648458Y5241556D01*
X2648458Y5220728D01*
X2655570Y5185930D01*
X2669286Y5165356D01*
X2690113Y5158244D01*
X2703829Y5158244D01*
X2724658Y5165356D01*
X2738627Y5185930D01*
X2745486Y5220728D01*
X2745486Y5241556D01*
X2738627Y5276100D01*
X2724658Y5296928D01*
X2703829Y5303786D01*
X2690113Y5303786D01*
X2798063Y5269242D02*
G01*
X2798063Y5276100D01*
X2805175Y5289816D01*
X2812034Y5296928D01*
X2825750Y5303786D01*
X2853690Y5303786D01*
X2867406Y5296928D01*
X2874263Y5289816D01*
X2881375Y5276100D01*
X2881375Y5262130D01*
X2874263Y5248414D01*
X2860547Y5227586D01*
X2791206Y5158244D01*
X2888234Y5158244D01*
X2933954Y5276100D02*
G01*
X2947670Y5282958D01*
X2968497Y5303786D01*
X2968497Y5158244D01*
X2153886Y5497725D02*
G01*
X2147028Y5511695D01*
X2133058Y5525411D01*
X2119342Y5532269D01*
X2091656Y5532269D01*
X2077686Y5525411D01*
X2063970Y5511695D01*
X2056858Y5497725D01*
X2050000Y5476897D01*
X2050000Y5442353D01*
X2056858Y5421525D01*
X2063970Y5407809D01*
X2077686Y5393839D01*
X2091656Y5386981D01*
X2119342Y5386981D01*
X2133058Y5393839D01*
X2147028Y5407809D01*
X2153886Y5421525D01*
X2153886Y5442353D01*
X2119342Y5442353D02*
G01*
X2153886Y5442353D01*
X2282664Y5484009D02*
G01*
X2282664Y5386981D01*
X2282664Y5463181D02*
G01*
X2268948Y5476897D01*
X2254978Y5484009D01*
X2234150Y5484009D01*
X2220434Y5476897D01*
X2206464Y5463181D01*
X2199606Y5442353D01*
X2199606Y5428383D01*
X2206464Y5407809D01*
X2220434Y5393839D01*
X2234150Y5386981D01*
X2254978Y5386981D01*
X2268948Y5393839D01*
X2282664Y5407809D01*
X2328384Y5532269D02*
G01*
X2328384Y5386981D01*
X2328384Y5463181D02*
G01*
X2342354Y5476897D01*
X2356070Y5484009D01*
X2376898Y5484009D01*
X2390868Y5476897D01*
X2404584Y5463181D01*
X2411696Y5442353D01*
X2411696Y5428383D01*
X2404584Y5407809D01*
X2390868Y5393839D01*
X2376898Y5386981D01*
X2356070Y5386981D01*
X2342354Y5393839D01*
X2328384Y5407809D01*
X2457416Y5484009D02*
G01*
X2457416Y5386981D01*
X2457416Y5442353D02*
G01*
X2464274Y5463181D01*
X2477990Y5476897D01*
X2491960Y5484009D01*
X2512788Y5484009D01*
X2558508Y5532269D02*
G01*
X2565366Y5525411D01*
X2572224Y5532269D01*
X2565366Y5539381D01*
X2558508Y5532269D01*
X2565366Y5484009D02*
G01*
X2565366Y5386981D01*
X2617944Y5442353D02*
G01*
X2701256Y5442353D01*
X2701256Y5456069D01*
X2694144Y5470039D01*
X2687286Y5476897D01*
X2673570Y5484009D01*
X2652742Y5484009D01*
X2638772Y5476897D01*
X2625056Y5463181D01*
X2617944Y5442353D01*
X2617944Y5428383D01*
X2625056Y5407809D01*
X2638772Y5393839D01*
X2652742Y5386981D01*
X2673570Y5386981D01*
X2687286Y5393839D01*
X2701256Y5407809D01*
X2746976Y5532269D02*
G01*
X2746976Y5386981D01*
X2899376Y5532269D02*
G01*
X2899376Y5386981D01*
X2899376Y5532269D02*
G01*
X2961606Y5532269D01*
X2982434Y5525411D01*
X2989292Y5518553D01*
X2996150Y5504583D01*
X2996150Y5490867D01*
X2989292Y5476897D01*
X2982434Y5470039D01*
X2961606Y5463181D01*
X2899376Y5463181D02*
G01*
X2961606Y5463181D01*
X2982434Y5456069D01*
X2989292Y5449211D01*
X2996150Y5435495D01*
X2996150Y5414667D01*
X2989292Y5400697D01*
X2982434Y5393839D01*
X2961606Y5386981D01*
X2899376Y5386981D01*
X3041870Y5442353D02*
G01*
X3125182Y5442353D01*
X3125182Y5456069D01*
X3118070Y5470039D01*
X3111212Y5476897D01*
X3097496Y5484009D01*
X3076668Y5484009D01*
X3062698Y5476897D01*
X3048982Y5463181D01*
X3041870Y5442353D01*
X3041870Y5428383D01*
X3048982Y5407809D01*
X3062698Y5393839D01*
X3076668Y5386981D01*
X3097496Y5386981D01*
X3111212Y5393839D01*
X3125182Y5407809D01*
X3191730Y5532269D02*
G01*
X3191730Y5414667D01*
X3198588Y5393839D01*
X3212304Y5386981D01*
X3226274Y5386981D01*
X3170902Y5484009D02*
G01*
X3219416Y5484009D01*
X3292822Y5532269D02*
G01*
X3292822Y5414667D01*
X3299680Y5393839D01*
X3313650Y5386981D01*
X3327366Y5386981D01*
X3271994Y5484009D02*
G01*
X3320508Y5484009D01*
X3456144Y5484009D02*
G01*
X3456144Y5386981D01*
X3456144Y5463181D02*
G01*
X3442428Y5476897D01*
X3428458Y5484009D01*
X3407630Y5484009D01*
X3393914Y5476897D01*
X3379944Y5463181D01*
X3373086Y5442353D01*
X3373086Y5428383D01*
X3379944Y5407809D01*
X3393914Y5393839D01*
X3407630Y5386981D01*
X3428458Y5386981D01*
X3442428Y5393839D01*
X3456144Y5407809D01*
X3501864Y5484009D02*
G01*
X3501864Y5386981D01*
X3501864Y5456069D02*
G01*
X3522692Y5476897D01*
X3536662Y5484009D01*
X3557490Y5484009D01*
X3571206Y5476897D01*
X3578064Y5456069D01*
X3578064Y5386981D01*
X3623784Y5532269D02*
G01*
X3630896Y5525411D01*
X3637754Y5532269D01*
X3630896Y5539381D01*
X3623784Y5532269D01*
X3630896Y5484009D02*
G01*
X3630896Y5386981D01*
X3683474Y5484009D02*
G01*
X3683474Y5386981D01*
X3683474Y5456069D02*
G01*
X3704302Y5476897D01*
X3718018Y5484009D01*
X3738846Y5484009D01*
X3752816Y5476897D01*
X3759674Y5456069D01*
X3759674Y5386981D01*
X2075434Y5760986D02*
G01*
X2075434Y5615444D01*
X2075434Y5615444D02*
G01*
X2158491Y5615444D01*
X2204211Y5760986D02*
G01*
X2204211Y5615444D01*
X2249931Y5760986D02*
G01*
X2249931Y5615444D01*
X2249931Y5760986D02*
G01*
X2298445Y5760986D01*
X2319274Y5754128D01*
X2332990Y5740158D01*
X2340102Y5726442D01*
X2346959Y5705614D01*
X2346959Y5670816D01*
X2340102Y5650242D01*
X2332990Y5636272D01*
X2319274Y5622556D01*
X2298445Y5615444D01*
X2249931Y5615444D01*
X2448052Y5760986D02*
G01*
X2392679Y5615444D01*
X2448052Y5760986D02*
G01*
X2503424Y5615444D01*
X2413508Y5663958D02*
G01*
X2482850Y5663958D01*
X2549143Y5760986D02*
G01*
X2549143Y5615444D01*
X2549143Y5760986D02*
G01*
X2611627Y5760986D01*
X2632456Y5754128D01*
X2639313Y5747016D01*
X2646172Y5733300D01*
X2646172Y5719330D01*
X2639313Y5705614D01*
X2632456Y5698756D01*
X2611627Y5691644D01*
X2549143Y5691644D01*
X2597658Y5691644D02*
G01*
X2646172Y5615444D01*
X2691891Y5566930D02*
G01*
X2816606Y5566930D01*
X2862325Y5760986D02*
G01*
X2862325Y5615444D01*
X2862325Y5760986D02*
G01*
X2924809Y5760986D01*
X2945384Y5754128D01*
X2952495Y5747016D01*
X2959354Y5733300D01*
X2959354Y5719330D01*
X2952495Y5705614D01*
X2945384Y5698756D01*
X2924809Y5691644D01*
X2862325Y5691644D02*
G01*
X2924809Y5691644D01*
X2945384Y5684786D01*
X2952495Y5677928D01*
X2959354Y5663958D01*
X2959354Y5643130D01*
X2952495Y5629414D01*
X2945384Y5622556D01*
X2924809Y5615444D01*
X2862325Y5615444D01*
X3005074Y5670816D02*
G01*
X3088131Y5670816D01*
X3088131Y5684786D01*
X3081274Y5698756D01*
X3074415Y5705614D01*
X3060445Y5712472D01*
X3039618Y5712472D01*
X3025902Y5705614D01*
X3011931Y5691644D01*
X3005074Y5670816D01*
X3005074Y5657100D01*
X3011931Y5636272D01*
X3025902Y5622556D01*
X3039618Y5615444D01*
X3060445Y5615444D01*
X3074415Y5622556D01*
X3088131Y5636272D01*
X3154679Y5760986D02*
G01*
X3154679Y5643130D01*
X3161538Y5622556D01*
X3175508Y5615444D01*
X3189224Y5615444D01*
X3133852Y5712472D02*
G01*
X3182365Y5712472D01*
X3318256Y5712472D02*
G01*
X3318256Y5615444D01*
X3318256Y5691644D02*
G01*
X3304286Y5705614D01*
X3290570Y5712472D01*
X3269741Y5712472D01*
X3255772Y5705614D01*
X3242056Y5691644D01*
X3234943Y5670816D01*
X3234943Y5657100D01*
X3242056Y5636272D01*
X3255772Y5622556D01*
X3269741Y5615444D01*
X3290570Y5615444D01*
X3304286Y5622556D01*
X3318256Y5636272D01*
X3470656Y5712472D02*
G01*
X3512058Y5615444D01*
X3553713Y5712472D02*
G01*
X3512058Y5615444D01*
X3599434Y5733300D02*
G01*
X3613150Y5740158D01*
X3633977Y5760986D01*
X3633977Y5615444D01*
X3686809Y5650242D02*
G01*
X3679697Y5643130D01*
X3686809Y5636272D01*
X3693668Y5643130D01*
X3686809Y5650242D01*
X3780790Y5760986D02*
G01*
X3760215Y5754128D01*
X3746245Y5733300D01*
X3739388Y5698756D01*
X3739388Y5677928D01*
X3746245Y5643130D01*
X3760215Y5622556D01*
X3780790Y5615444D01*
X3794759Y5615444D01*
X3815588Y5622556D01*
X3829304Y5643130D01*
X3836415Y5677928D01*
X3836415Y5698756D01*
X3829304Y5733300D01*
X3815588Y5754128D01*
X3794759Y5760986D01*
X3780790Y5760986D01*
X5252874Y1699889D02*
G01*
X5252874Y1783201D01*
X5691543Y3144641D02*
G01*
X5682145Y3140069D01*
X5673001Y3130671D01*
X5668429Y3121527D01*
X5668429Y3102985D01*
X5673001Y3093841D01*
X5682145Y3084443D01*
X5691543Y3079871D01*
X5705259Y3075299D01*
X5728373Y3075299D01*
X5742343Y3079871D01*
X5751487Y3084443D01*
X5760631Y3093841D01*
X5765457Y3102985D01*
X5765457Y3121527D01*
X5760631Y3130671D01*
X5751487Y3140069D01*
X5742343Y3144641D01*
X5728373Y3144641D01*
X5728373Y3121527D02*
G01*
X5728373Y3144641D01*
X5668429Y3175121D02*
G01*
X5765457Y3175121D01*
X5668429Y3175121D02*
G01*
X5765457Y3239637D01*
X5668429Y3239637D02*
G01*
X5765457Y3239637D01*
X5668429Y3270117D02*
G01*
X5765457Y3270117D01*
X5668429Y3270117D02*
G01*
X5668429Y3302629D01*
X5673001Y3316345D01*
X5682145Y3325489D01*
X5691543Y3330315D01*
X5705259Y3334887D01*
X5728373Y3334887D01*
X5742343Y3330315D01*
X5751487Y3325489D01*
X5760631Y3316345D01*
X5765457Y3302629D01*
X5765457Y3270117D01*
X5185069Y1466883D02*
G01*
X5268381Y1466883D01*
X5226725Y1425227D02*
G01*
X5226725Y1508539D01*
X5682145Y4366955D02*
G01*
X5765457Y4366955D01*
X5723801Y4325299D02*
G01*
X5723801Y4408357D01*
X5668429Y4494209D02*
G01*
X5668429Y4448235D01*
X5709831Y4443409D01*
X5705259Y4448235D01*
X5700687Y4461951D01*
X5700687Y4475921D01*
X5705259Y4489637D01*
X5714657Y4499035D01*
X5728373Y4503607D01*
X5737771Y4503607D01*
X5751487Y4499035D01*
X5760631Y4489637D01*
X5765457Y4475921D01*
X5765457Y4461951D01*
X5760631Y4448235D01*
X5756059Y4443409D01*
X5746915Y4438837D01*
X5668429Y4534087D02*
G01*
X5765457Y4570917D01*
X5668429Y4608001D02*
G01*
X5765457Y4570917D01*
D23*
X5658462Y3625225D02*
G01*
X5767428Y3625225D01*
X5767428Y3625225D02*
G01*
X5767428Y3687709D01*
X5658462Y3721999D02*
G01*
X5767428Y3721999D01*
X5658462Y3756289D02*
G01*
X5767428Y3756289D01*
X5658462Y3756289D02*
G01*
X5658462Y3792611D01*
X5663542Y3808105D01*
X5673956Y3818519D01*
X5684370Y3823853D01*
X5699864Y3828933D01*
X5726026Y3828933D01*
X5741520Y3823853D01*
X5751934Y3818519D01*
X5762348Y3808105D01*
X5767428Y3792611D01*
X5767428Y3756289D01*
X5658462Y3904879D02*
G01*
X5767428Y3863223D01*
X5658462Y3904879D02*
G01*
X5767428Y3946535D01*
X5731106Y3878971D02*
G01*
X5731106Y3930787D01*
X5658462Y3980825D02*
G01*
X5767428Y3980825D01*
X5658462Y3980825D02*
G01*
X5658462Y4027561D01*
X5663542Y4043055D01*
X5668876Y4048135D01*
X5679290Y4053469D01*
X5689450Y4053469D01*
X5699864Y4048135D01*
X5705198Y4043055D01*
X5710278Y4027561D01*
X5710278Y3980825D01*
X5710278Y4017147D02*
G01*
X5767428Y4053469D01*
X5634525Y1399854D02*
G01*
X5743745Y1399854D01*
X5634525Y1399854D02*
G01*
X5743745Y1441510D01*
X5634525Y1483166D02*
G01*
X5743745Y1441510D01*
X5634525Y1483166D02*
G01*
X5743745Y1483166D01*
X5634525Y1548444D02*
G01*
X5639859Y1538284D01*
X5650273Y1527870D01*
X5660687Y1522536D01*
X5676181Y1517456D01*
X5702089Y1517456D01*
X5717837Y1522536D01*
X5727997Y1527870D01*
X5738411Y1538284D01*
X5743745Y1548444D01*
X5743745Y1569272D01*
X5738411Y1579686D01*
X5727997Y1590100D01*
X5717837Y1595434D01*
X5702089Y1600514D01*
X5676181Y1600514D01*
X5660687Y1595434D01*
X5650273Y1590100D01*
X5639859Y1579686D01*
X5634525Y1569272D01*
X5634525Y1548444D01*
X5634525Y1671126D02*
G01*
X5743745Y1671126D01*
X5634525Y1634804D02*
G01*
X5634525Y1707448D01*
X5634525Y1772980D02*
G01*
X5639859Y1762566D01*
X5650273Y1752152D01*
X5660687Y1747072D01*
X5676181Y1741738D01*
X5702089Y1741738D01*
X5717837Y1747072D01*
X5727997Y1752152D01*
X5738411Y1762566D01*
X5743745Y1772980D01*
X5743745Y1793808D01*
X5738411Y1804222D01*
X5727997Y1814636D01*
X5717837Y1819716D01*
X5702089Y1825050D01*
X5676181Y1825050D01*
X5660687Y1819716D01*
X5650273Y1814636D01*
X5639859Y1804222D01*
X5634525Y1793808D01*
X5634525Y1772980D01*
X5634525Y1859340D02*
G01*
X5743745Y1859340D01*
X5634525Y1859340D02*
G01*
X5634525Y1906076D01*
X5639859Y1921570D01*
X5644939Y1926904D01*
X5655353Y1931984D01*
X5665767Y1931984D01*
X5676181Y1926904D01*
X5681261Y1921570D01*
X5686595Y1906076D01*
X5686595Y1859340D01*
X5686595Y1895662D02*
G01*
X5743745Y1931984D01*
X800102Y5315211D02*
G01*
X800102Y5206245D01*
X800102Y5315211D02*
G01*
X872746Y5206245D01*
X872746Y5315211D02*
G01*
X872746Y5206245D01*
X948692Y5315211D02*
G01*
X907036Y5206245D01*
X948692Y5315211D02*
G01*
X990094Y5206245D01*
X922530Y5242567D02*
G01*
X974600Y5242567D01*
X1024384Y5315211D02*
G01*
X1024384Y5206245D01*
X1024384Y5315211D02*
G01*
X1097282Y5206245D01*
X1097282Y5315211D02*
G01*
X1097282Y5206245D01*
X1162560Y5315211D02*
G01*
X1152146Y5310131D01*
X1141986Y5299717D01*
X1136652Y5289303D01*
X1131572Y5273555D01*
X1131572Y5247647D01*
X1136652Y5232153D01*
X1141986Y5221739D01*
X1152146Y5211325D01*
X1162560Y5206245D01*
X1183388Y5206245D01*
X1193802Y5211325D01*
X1204216Y5221739D01*
X1209296Y5232153D01*
X1214630Y5247647D01*
X1214630Y5273555D01*
X1209296Y5289303D01*
X1204216Y5299717D01*
X1193802Y5310131D01*
X1183388Y5315211D01*
X1162560Y5315211D01*
D22*
X390400Y4833373D02*
G01*
X390400Y4736345D01*
X390400Y4833373D02*
G01*
X422658Y4833373D01*
X436628Y4828801D01*
X445772Y4819657D01*
X450344Y4810259D01*
X455170Y4796543D01*
X455170Y4773429D01*
X450344Y4759459D01*
X445772Y4750315D01*
X436628Y4741171D01*
X422658Y4736345D01*
X390400Y4736345D01*
X485650Y4814831D02*
G01*
X494794Y4819657D01*
X508510Y4833373D01*
X508510Y4736345D01*
X622302Y4851915D02*
G01*
X538990Y4704087D01*
X685040Y4833373D02*
G01*
X685040Y4736345D01*
X652782Y4833373D02*
G01*
X717298Y4833373D01*
X747778Y4833373D02*
G01*
X812548Y4736345D01*
X812548Y4833373D02*
G01*
X747778Y4736345D01*
X1424942Y4556259D02*
G01*
X1420370Y4565657D01*
X1410972Y4574801D01*
X1401828Y4579373D01*
X1383286Y4579373D01*
X1374142Y4574801D01*
X1364744Y4565657D01*
X1360172Y4556259D01*
X1355600Y4542543D01*
X1355600Y4519429D01*
X1360172Y4505459D01*
X1364744Y4496315D01*
X1374142Y4487171D01*
X1383286Y4482345D01*
X1401828Y4482345D01*
X1410972Y4487171D01*
X1420370Y4496315D01*
X1424942Y4505459D01*
X1424942Y4519429D01*
X1401828Y4519429D02*
G01*
X1424942Y4519429D01*
X1455422Y4579373D02*
G01*
X1455422Y4482345D01*
X1455422Y4579373D02*
G01*
X1519938Y4482345D01*
X1519938Y4579373D02*
G01*
X1519938Y4482345D01*
X1550418Y4579373D02*
G01*
X1550418Y4482345D01*
X1550418Y4579373D02*
G01*
X1582930Y4579373D01*
X1596646Y4574801D01*
X1605790Y4565657D01*
X1610616Y4556259D01*
X1615188Y4542543D01*
X1615188Y4519429D01*
X1610616Y4505459D01*
X1605790Y4496315D01*
X1596646Y4487171D01*
X1582930Y4482345D01*
X1550418Y4482345D01*
X1397256Y4032257D02*
G01*
X1397256Y3948945D01*
X1355600Y3990601D02*
G01*
X1438658Y3990601D01*
X1524510Y4045973D02*
G01*
X1478536Y4045973D01*
X1473710Y4004571D01*
X1478536Y4009143D01*
X1492252Y4013715D01*
X1506222Y4013715D01*
X1519938Y4009143D01*
X1529336Y3999745D01*
X1533908Y3986029D01*
X1533908Y3976631D01*
X1529336Y3962915D01*
X1519938Y3953771D01*
X1506222Y3948945D01*
X1492252Y3948945D01*
X1478536Y3953771D01*
X1473710Y3958343D01*
X1469138Y3967487D01*
X1564388Y4045973D02*
G01*
X1601218Y3948945D01*
X1638302Y4045973D02*
G01*
X1601218Y3948945D01*
X415800Y1273817D02*
G01*
X415800Y1176789D01*
X415800Y1273817D02*
G01*
X448058Y1273817D01*
X462028Y1268991D01*
X471172Y1259847D01*
X475744Y1250703D01*
X480570Y1236733D01*
X480570Y1213619D01*
X475744Y1199903D01*
X471172Y1190505D01*
X462028Y1181361D01*
X448058Y1176789D01*
X415800Y1176789D01*
X511050Y1255275D02*
G01*
X520194Y1259847D01*
X533910Y1273817D01*
X533910Y1176789D01*
X569216Y1250703D02*
G01*
X569216Y1255275D01*
X573788Y1264419D01*
X578360Y1268991D01*
X587504Y1273817D01*
X606046Y1273817D01*
X615190Y1268991D01*
X620016Y1264419D01*
X624588Y1255275D01*
X624588Y1246131D01*
X620016Y1236733D01*
X610618Y1223017D01*
X564390Y1176789D01*
X629160Y1176789D01*
X1406400Y4833373D02*
G01*
X1443230Y4736345D01*
X1480314Y4833373D02*
G01*
X1443230Y4736345D01*
X1510794Y4833373D02*
G01*
X1510794Y4736345D01*
X1541274Y4833373D02*
G01*
X1541274Y4736345D01*
X1541274Y4833373D02*
G01*
X1605790Y4736345D01*
X1605790Y4833373D02*
G01*
X1605790Y4736345D01*
X1406400Y1273817D02*
G01*
X1406400Y1176789D01*
X1406400Y1273817D02*
G01*
X1438658Y1273817D01*
X1452628Y1268991D01*
X1461772Y1259847D01*
X1466344Y1250703D01*
X1471170Y1236733D01*
X1471170Y1213619D01*
X1466344Y1199903D01*
X1461772Y1190505D01*
X1452628Y1181361D01*
X1438658Y1176789D01*
X1406400Y1176789D01*
X1501650Y1255275D02*
G01*
X1510794Y1259847D01*
X1524510Y1273817D01*
X1524510Y1176789D01*
X1564388Y1273817D02*
G01*
X1615188Y1273817D01*
X1587502Y1236733D01*
X1601218Y1236733D01*
X1610616Y1232161D01*
X1615188Y1227589D01*
X1619760Y1213619D01*
X1619760Y1204475D01*
X1615188Y1190505D01*
X1605790Y1181361D01*
X1592074Y1176789D01*
X1578104Y1176789D01*
X1564388Y1181361D01*
X1559816Y1185933D01*
X1554990Y1195331D01*
X459742Y4048259D02*
G01*
X455170Y4057657D01*
X445772Y4066801D01*
X436628Y4071373D01*
X418086Y4071373D01*
X408942Y4066801D01*
X399544Y4057657D01*
X394972Y4048259D01*
X390400Y4034543D01*
X390400Y4011429D01*
X394972Y3997459D01*
X399544Y3988315D01*
X408942Y3979171D01*
X418086Y3974345D01*
X436628Y3974345D01*
X445772Y3979171D01*
X455170Y3988315D01*
X459742Y3997459D01*
X459742Y4011429D01*
X436628Y4011429D02*
G01*
X459742Y4011429D01*
X490222Y4071373D02*
G01*
X490222Y3974345D01*
X490222Y4071373D02*
G01*
X554738Y3974345D01*
X554738Y4071373D02*
G01*
X554738Y3974345D01*
X585218Y4071373D02*
G01*
X585218Y3974345D01*
X585218Y4071373D02*
G01*
X617730Y4071373D01*
X631446Y4066801D01*
X640590Y4057657D01*
X645416Y4048259D01*
X649988Y4034543D01*
X649988Y4011429D01*
X645416Y3997459D01*
X640590Y3988315D01*
X631446Y3979171D01*
X617730Y3974345D01*
X585218Y3974345D01*
X390400Y4553973D02*
G01*
X390400Y4456945D01*
X390400Y4553973D02*
G01*
X422658Y4553973D01*
X436628Y4549401D01*
X445772Y4540257D01*
X450344Y4530859D01*
X455170Y4517143D01*
X455170Y4494029D01*
X450344Y4480059D01*
X445772Y4470915D01*
X436628Y4461771D01*
X422658Y4456945D01*
X390400Y4456945D01*
X513336Y4553973D02*
G01*
X499366Y4549401D01*
X490222Y4535431D01*
X485650Y4512571D01*
X485650Y4498601D01*
X490222Y4475487D01*
X499366Y4461771D01*
X513336Y4456945D01*
X522480Y4456945D01*
X536450Y4461771D01*
X545594Y4475487D01*
X550166Y4498601D01*
X550166Y4512571D01*
X545594Y4535431D01*
X536450Y4549401D01*
X522480Y4553973D01*
X513336Y4553973D01*
X663704Y4572515D02*
G01*
X580646Y4424687D01*
X694184Y4553973D02*
G01*
X694184Y4456945D01*
X694184Y4553973D02*
G01*
X735840Y4553973D01*
X749810Y4549401D01*
X754382Y4544829D01*
X758954Y4535431D01*
X758954Y4526287D01*
X754382Y4517143D01*
X749810Y4512571D01*
X735840Y4507745D01*
X694184Y4507745D01*
X726696Y4507745D02*
G01*
X758954Y4456945D01*
X789434Y4553973D02*
G01*
X853950Y4456945D01*
X853950Y4553973D02*
G01*
X789434Y4456945D01*
X390400Y4325373D02*
G01*
X390400Y4228345D01*
X390400Y4325373D02*
G01*
X432056Y4325373D01*
X445772Y4320801D01*
X450344Y4316229D01*
X455170Y4306831D01*
X455170Y4297687D01*
X450344Y4288543D01*
X445772Y4283971D01*
X432056Y4279145D01*
X390400Y4279145D01*
X422658Y4279145D02*
G01*
X455170Y4228345D01*
X485650Y4325373D02*
G01*
X485650Y4228345D01*
X485650Y4325373D02*
G01*
X545594Y4325373D01*
X485650Y4279145D02*
G01*
X522480Y4279145D01*
X485650Y4228345D02*
G01*
X545594Y4228345D01*
X640590Y4311657D02*
G01*
X631446Y4320801D01*
X617730Y4325373D01*
X599188Y4325373D01*
X585218Y4320801D01*
X576074Y4311657D01*
X576074Y4302259D01*
X580646Y4293115D01*
X585218Y4288543D01*
X594616Y4283971D01*
X622302Y4274573D01*
X631446Y4270001D01*
X636018Y4265429D01*
X640590Y4256031D01*
X640590Y4242315D01*
X631446Y4233171D01*
X617730Y4228345D01*
X599188Y4228345D01*
X585218Y4233171D01*
X576074Y4242315D01*
X671070Y4325373D02*
G01*
X671070Y4228345D01*
X671070Y4325373D02*
G01*
X731268Y4325373D01*
X671070Y4279145D02*
G01*
X708154Y4279145D01*
X671070Y4228345D02*
G01*
X731268Y4228345D01*
X794006Y4325373D02*
G01*
X794006Y4228345D01*
X761748Y4325373D02*
G01*
X826264Y4325373D01*
X409450Y3817373D02*
G01*
X409450Y3720345D01*
X409450Y3817373D02*
G01*
X441708Y3817373D01*
X455678Y3812801D01*
X464822Y3803657D01*
X469394Y3794259D01*
X474220Y3780543D01*
X474220Y3757429D01*
X469394Y3743459D01*
X464822Y3734315D01*
X455678Y3725171D01*
X441708Y3720345D01*
X409450Y3720345D01*
X509272Y3794259D02*
G01*
X509272Y3798831D01*
X513844Y3808229D01*
X518416Y3812801D01*
X527560Y3817373D01*
X546102Y3817373D01*
X555500Y3812801D01*
X560072Y3808229D01*
X564644Y3798831D01*
X564644Y3789687D01*
X560072Y3780543D01*
X550674Y3766573D01*
X504700Y3720345D01*
X569216Y3720345D01*
X409450Y3563373D02*
G01*
X409450Y3466345D01*
X409450Y3563373D02*
G01*
X441708Y3563373D01*
X455678Y3558801D01*
X464822Y3549657D01*
X469394Y3540259D01*
X474220Y3526543D01*
X474220Y3503429D01*
X469394Y3489459D01*
X464822Y3480315D01*
X455678Y3471171D01*
X441708Y3466345D01*
X409450Y3466345D01*
X513844Y3563373D02*
G01*
X564644Y3563373D01*
X536958Y3526543D01*
X550674Y3526543D01*
X560072Y3521971D01*
X564644Y3517145D01*
X569216Y3503429D01*
X569216Y3494031D01*
X564644Y3480315D01*
X555500Y3471171D01*
X541530Y3466345D01*
X527560Y3466345D01*
X513844Y3471171D01*
X509272Y3475743D01*
X504700Y3484887D01*
X404878Y3309373D02*
G01*
X404878Y3212345D01*
X404878Y3309373D02*
G01*
X437136Y3309373D01*
X451106Y3304801D01*
X460250Y3295657D01*
X464822Y3286259D01*
X469648Y3272543D01*
X469648Y3249429D01*
X464822Y3235459D01*
X460250Y3226315D01*
X451106Y3217171D01*
X437136Y3212345D01*
X404878Y3212345D01*
X546102Y3309373D02*
G01*
X500128Y3244857D01*
X569216Y3244857D01*
X546102Y3309373D02*
G01*
X546102Y3212345D01*
X409450Y3080773D02*
G01*
X409450Y2983745D01*
X409450Y3080773D02*
G01*
X441708Y3080773D01*
X455678Y3076201D01*
X464822Y3067057D01*
X469394Y3057659D01*
X474220Y3043943D01*
X474220Y3020829D01*
X469394Y3006859D01*
X464822Y2997715D01*
X455678Y2988571D01*
X441708Y2983745D01*
X409450Y2983745D01*
X560072Y3080773D02*
G01*
X513844Y3080773D01*
X509272Y3039371D01*
X513844Y3043943D01*
X527560Y3048515D01*
X541530Y3048515D01*
X555500Y3043943D01*
X564644Y3034545D01*
X569216Y3020829D01*
X569216Y3011431D01*
X564644Y2997715D01*
X555500Y2988571D01*
X541530Y2983745D01*
X527560Y2983745D01*
X513844Y2988571D01*
X509272Y2993143D01*
X504700Y3002287D01*
X414022Y2826773D02*
G01*
X414022Y2729745D01*
X414022Y2826773D02*
G01*
X446280Y2826773D01*
X460250Y2822201D01*
X469394Y2813057D01*
X473966Y2803659D01*
X478792Y2789943D01*
X478792Y2766829D01*
X473966Y2752859D01*
X469394Y2743715D01*
X460250Y2734571D01*
X446280Y2729745D01*
X414022Y2729745D01*
X564644Y2813057D02*
G01*
X560072Y2822201D01*
X546102Y2826773D01*
X536958Y2826773D01*
X522988Y2822201D01*
X513844Y2808231D01*
X509272Y2785371D01*
X509272Y2762257D01*
X513844Y2743715D01*
X522988Y2734571D01*
X536958Y2729745D01*
X541530Y2729745D01*
X555246Y2734571D01*
X564644Y2743715D01*
X569216Y2757431D01*
X569216Y2762257D01*
X564644Y2775973D01*
X555246Y2785371D01*
X541530Y2789943D01*
X536958Y2789943D01*
X522988Y2785371D01*
X513844Y2775973D01*
X509272Y2762257D01*
X409450Y2547373D02*
G01*
X409450Y2450345D01*
X409450Y2547373D02*
G01*
X441708Y2547373D01*
X455678Y2542801D01*
X464822Y2533657D01*
X469394Y2524259D01*
X474220Y2510543D01*
X474220Y2487429D01*
X469394Y2473459D01*
X464822Y2464315D01*
X455678Y2455171D01*
X441708Y2450345D01*
X409450Y2450345D01*
X569216Y2547373D02*
G01*
X522988Y2450345D01*
X504700Y2547373D02*
G01*
X569216Y2547373D01*
X409450Y2318773D02*
G01*
X409450Y2221745D01*
X409450Y2318773D02*
G01*
X441708Y2318773D01*
X455678Y2314201D01*
X464822Y2305057D01*
X469394Y2295659D01*
X474220Y2281943D01*
X474220Y2258829D01*
X469394Y2244859D01*
X464822Y2235715D01*
X455678Y2226571D01*
X441708Y2221745D01*
X409450Y2221745D01*
X527560Y2318773D02*
G01*
X513844Y2314201D01*
X509272Y2305057D01*
X509272Y2295659D01*
X513844Y2286515D01*
X522988Y2281943D01*
X541530Y2277371D01*
X555500Y2272545D01*
X564644Y2263401D01*
X569216Y2254257D01*
X569216Y2240287D01*
X564644Y2231143D01*
X560072Y2226571D01*
X546102Y2221745D01*
X527560Y2221745D01*
X513844Y2226571D01*
X509272Y2231143D01*
X504700Y2240287D01*
X504700Y2254257D01*
X509272Y2263401D01*
X518416Y2272545D01*
X532386Y2277371D01*
X550674Y2281943D01*
X560072Y2286515D01*
X564644Y2295659D01*
X564644Y2305057D01*
X560072Y2314201D01*
X546102Y2318773D01*
X527560Y2318773D01*
X414022Y2064773D02*
G01*
X414022Y1967745D01*
X414022Y2064773D02*
G01*
X446280Y2064773D01*
X460250Y2060201D01*
X469394Y2051057D01*
X473966Y2041659D01*
X478792Y2027943D01*
X478792Y2004829D01*
X473966Y1990859D01*
X469394Y1981715D01*
X460250Y1972571D01*
X446280Y1967745D01*
X414022Y1967745D01*
X569216Y2032515D02*
G01*
X564644Y2018545D01*
X555246Y2009401D01*
X541530Y2004829D01*
X536958Y2004829D01*
X522988Y2009401D01*
X513844Y2018545D01*
X509272Y2032515D01*
X509272Y2037087D01*
X513844Y2051057D01*
X522988Y2060201D01*
X536958Y2064773D01*
X541530Y2064773D01*
X555246Y2060201D01*
X564644Y2051057D01*
X569216Y2032515D01*
X569216Y2009401D01*
X564644Y1986287D01*
X555246Y1972571D01*
X541530Y1967745D01*
X532132Y1967745D01*
X518416Y1972571D01*
X513844Y1981715D01*
X415800Y1785373D02*
G01*
X415800Y1688345D01*
X415800Y1785373D02*
G01*
X448058Y1785373D01*
X462028Y1780801D01*
X471172Y1771657D01*
X475744Y1762259D01*
X480570Y1748543D01*
X480570Y1725429D01*
X475744Y1711459D01*
X471172Y1702315D01*
X462028Y1693171D01*
X448058Y1688345D01*
X415800Y1688345D01*
X511050Y1766831D02*
G01*
X520194Y1771657D01*
X533910Y1785373D01*
X533910Y1688345D01*
X592330Y1785373D02*
G01*
X578360Y1780801D01*
X569216Y1766831D01*
X564390Y1743971D01*
X564390Y1730001D01*
X569216Y1706887D01*
X578360Y1693171D01*
X592330Y1688345D01*
X601474Y1688345D01*
X615190Y1693171D01*
X624588Y1706887D01*
X629160Y1730001D01*
X629160Y1743971D01*
X624588Y1766831D01*
X615190Y1780801D01*
X601474Y1785373D01*
X592330Y1785373D01*
X415800Y1527817D02*
G01*
X415800Y1430789D01*
X415800Y1527817D02*
G01*
X448058Y1527817D01*
X462028Y1522991D01*
X471172Y1513847D01*
X475744Y1504703D01*
X480570Y1490733D01*
X480570Y1467619D01*
X475744Y1453903D01*
X471172Y1444505D01*
X462028Y1435361D01*
X448058Y1430789D01*
X415800Y1430789D01*
X511050Y1509275D02*
G01*
X520194Y1513847D01*
X533910Y1527817D01*
X533910Y1430789D01*
X564390Y1509275D02*
G01*
X573788Y1513847D01*
X587504Y1527817D01*
X587504Y1430789D01*
X1364744Y1505973D02*
G01*
X1415544Y1505973D01*
X1387858Y1469143D01*
X1401828Y1469143D01*
X1410972Y1464571D01*
X1415544Y1459745D01*
X1420370Y1446029D01*
X1420370Y1436631D01*
X1415544Y1422915D01*
X1406400Y1413771D01*
X1392430Y1408945D01*
X1378714Y1408945D01*
X1364744Y1413771D01*
X1360172Y1418343D01*
X1355600Y1427487D01*
X1450850Y1505973D02*
G01*
X1487680Y1408945D01*
X1524510Y1505973D02*
G01*
X1487680Y1408945D01*
X1564388Y1505973D02*
G01*
X1615188Y1505973D01*
X1587502Y1469143D01*
X1601218Y1469143D01*
X1610616Y1464571D01*
X1615188Y1459745D01*
X1619760Y1446029D01*
X1619760Y1436631D01*
X1615188Y1422915D01*
X1605790Y1413771D01*
X1592074Y1408945D01*
X1578104Y1408945D01*
X1564388Y1413771D01*
X1559816Y1418343D01*
X1554990Y1427487D01*
X1316230Y1759973D02*
G01*
X1279400Y1662945D01*
X1316230Y1759973D02*
G01*
X1353314Y1662945D01*
X1293370Y1695457D02*
G01*
X1339344Y1695457D01*
X1383794Y1759973D02*
G01*
X1383794Y1662945D01*
X1383794Y1759973D02*
G01*
X1425450Y1759973D01*
X1439166Y1755401D01*
X1443738Y1750829D01*
X1448310Y1741431D01*
X1448310Y1732287D01*
X1443738Y1723143D01*
X1439166Y1718571D01*
X1425450Y1713745D01*
X1383794Y1713745D01*
X1416052Y1713745D02*
G01*
X1448310Y1662945D01*
X1478790Y1759973D02*
G01*
X1478790Y1662945D01*
X1478790Y1759973D02*
G01*
X1538988Y1759973D01*
X1478790Y1713745D02*
G01*
X1515874Y1713745D01*
X1478790Y1662945D02*
G01*
X1538988Y1662945D01*
X1569468Y1759973D02*
G01*
X1569468Y1662945D01*
X1569468Y1759973D02*
G01*
X1629412Y1759973D01*
X1569468Y1713745D02*
G01*
X1606298Y1713745D01*
X1494030Y2013973D02*
G01*
X1457200Y1916945D01*
X1494030Y2013973D02*
G01*
X1531114Y1916945D01*
X1471170Y1949457D02*
G01*
X1517144Y1949457D01*
X1589280Y2013973D02*
G01*
X1575310Y2009401D01*
X1566166Y1995431D01*
X1561594Y1972571D01*
X1561594Y1958601D01*
X1566166Y1935487D01*
X1575310Y1921771D01*
X1589280Y1916945D01*
X1598424Y1916945D01*
X1612394Y1921771D01*
X1621538Y1935487D01*
X1626110Y1958601D01*
X1626110Y1972571D01*
X1621538Y1995431D01*
X1612394Y2009401D01*
X1598424Y2013973D01*
X1589280Y2013973D01*
X1494030Y2293373D02*
G01*
X1457200Y2196345D01*
X1494030Y2293373D02*
G01*
X1531114Y2196345D01*
X1471170Y2228857D02*
G01*
X1517144Y2228857D01*
X1561594Y2274831D02*
G01*
X1570738Y2279657D01*
X1584708Y2293373D01*
X1584708Y2196345D01*
X1494030Y2521973D02*
G01*
X1457200Y2424945D01*
X1494030Y2521973D02*
G01*
X1531114Y2424945D01*
X1471170Y2457457D02*
G01*
X1517144Y2457457D01*
X1566166Y2498859D02*
G01*
X1566166Y2503431D01*
X1570738Y2512829D01*
X1575310Y2517401D01*
X1584708Y2521973D01*
X1603250Y2521973D01*
X1612394Y2517401D01*
X1616966Y2512829D01*
X1621538Y2503431D01*
X1621538Y2494287D01*
X1616966Y2485143D01*
X1607822Y2471173D01*
X1561594Y2424945D01*
X1626110Y2424945D01*
X1494030Y2801373D02*
G01*
X1457200Y2704345D01*
X1494030Y2801373D02*
G01*
X1531114Y2704345D01*
X1471170Y2736857D02*
G01*
X1517144Y2736857D01*
X1570738Y2801373D02*
G01*
X1621538Y2801373D01*
X1593852Y2764543D01*
X1607822Y2764543D01*
X1616966Y2759971D01*
X1621538Y2755145D01*
X1626110Y2741429D01*
X1626110Y2732031D01*
X1621538Y2718315D01*
X1612394Y2709171D01*
X1598424Y2704345D01*
X1584708Y2704345D01*
X1570738Y2709171D01*
X1566166Y2713743D01*
X1561594Y2722887D01*
X1494030Y3055373D02*
G01*
X1457200Y2958345D01*
X1494030Y3055373D02*
G01*
X1531114Y2958345D01*
X1471170Y2990857D02*
G01*
X1517144Y2990857D01*
X1607822Y3055373D02*
G01*
X1561594Y2990857D01*
X1630936Y2990857D01*
X1607822Y3055373D02*
G01*
X1607822Y2958345D01*
X1494030Y3309373D02*
G01*
X1457200Y3212345D01*
X1494030Y3309373D02*
G01*
X1531114Y3212345D01*
X1471170Y3244857D02*
G01*
X1517144Y3244857D01*
X1616966Y3309373D02*
G01*
X1570738Y3309373D01*
X1566166Y3267971D01*
X1570738Y3272543D01*
X1584708Y3277115D01*
X1598424Y3277115D01*
X1612394Y3272543D01*
X1621538Y3263145D01*
X1626110Y3249429D01*
X1626110Y3240031D01*
X1621538Y3226315D01*
X1612394Y3217171D01*
X1598424Y3212345D01*
X1584708Y3212345D01*
X1570738Y3217171D01*
X1566166Y3221743D01*
X1561594Y3230887D01*
X1494030Y3537973D02*
G01*
X1457200Y3440945D01*
X1494030Y3537973D02*
G01*
X1531114Y3440945D01*
X1471170Y3473457D02*
G01*
X1517144Y3473457D01*
X1616966Y3524257D02*
G01*
X1612394Y3533401D01*
X1598424Y3537973D01*
X1589280Y3537973D01*
X1575310Y3533401D01*
X1566166Y3519431D01*
X1561594Y3496571D01*
X1561594Y3473457D01*
X1566166Y3454915D01*
X1575310Y3445771D01*
X1589280Y3440945D01*
X1593852Y3440945D01*
X1607822Y3445771D01*
X1616966Y3454915D01*
X1621538Y3468631D01*
X1621538Y3473457D01*
X1616966Y3487173D01*
X1607822Y3496571D01*
X1593852Y3501143D01*
X1589280Y3501143D01*
X1575310Y3496571D01*
X1566166Y3487173D01*
X1561594Y3473457D01*
X1494030Y3817373D02*
G01*
X1457200Y3720345D01*
X1494030Y3817373D02*
G01*
X1531114Y3720345D01*
X1471170Y3752857D02*
G01*
X1517144Y3752857D01*
X1626110Y3817373D02*
G01*
X1580136Y3720345D01*
X1561594Y3817373D02*
G01*
X1626110Y3817373D01*
X1203200Y4325373D02*
G01*
X1203200Y4228345D01*
X1203200Y4325373D02*
G01*
X1244856Y4325373D01*
X1258572Y4320801D01*
X1263144Y4316229D01*
X1267970Y4306831D01*
X1267970Y4297687D01*
X1263144Y4288543D01*
X1258572Y4283971D01*
X1244856Y4279145D01*
X1203200Y4279145D01*
X1235458Y4279145D02*
G01*
X1267970Y4228345D01*
X1298450Y4325373D02*
G01*
X1298450Y4228345D01*
X1298450Y4325373D02*
G01*
X1358394Y4325373D01*
X1298450Y4279145D02*
G01*
X1335280Y4279145D01*
X1298450Y4228345D02*
G01*
X1358394Y4228345D01*
X1453390Y4311657D02*
G01*
X1444246Y4320801D01*
X1430530Y4325373D01*
X1411988Y4325373D01*
X1398018Y4320801D01*
X1388874Y4311657D01*
X1388874Y4302259D01*
X1393446Y4293115D01*
X1398018Y4288543D01*
X1407416Y4283971D01*
X1435102Y4274573D01*
X1444246Y4270001D01*
X1448818Y4265429D01*
X1453390Y4256031D01*
X1453390Y4242315D01*
X1444246Y4233171D01*
X1430530Y4228345D01*
X1411988Y4228345D01*
X1398018Y4233171D01*
X1388874Y4242315D01*
X1483870Y4325373D02*
G01*
X1483870Y4228345D01*
X1483870Y4325373D02*
G01*
X1544068Y4325373D01*
X1483870Y4279145D02*
G01*
X1520954Y4279145D01*
X1483870Y4228345D02*
G01*
X1544068Y4228345D01*
X1606806Y4325373D02*
G01*
X1606806Y4228345D01*
X1574548Y4325373D02*
G01*
X1639064Y4325373D01*
D23*
X4310540Y4477880D02*
G01*
X4300126Y4472800D01*
X4289966Y4462386D01*
X4284632Y4451972D01*
X4284632Y4431144D01*
X4289966Y4420730D01*
X4300126Y4410316D01*
X4310540Y4405236D01*
X4326288Y4399902D01*
X4352196Y4399902D01*
X4367690Y4405236D01*
X4378104Y4410316D01*
X4388518Y4420730D01*
X4393852Y4431144D01*
X4393852Y4451972D01*
X4388518Y4462386D01*
X4378104Y4472800D01*
X4367690Y4477880D01*
X4305460Y4512170D02*
G01*
X4300126Y4522584D01*
X4284632Y4538078D01*
X4393852Y4538078D01*
X4284632Y4582782D02*
G01*
X4284632Y4639932D01*
X4326288Y4608944D01*
X4326288Y4624438D01*
X4331368Y4634852D01*
X4336702Y4639932D01*
X4352196Y4645266D01*
X4362610Y4645266D01*
X4378104Y4639932D01*
X4388518Y4629518D01*
X4393852Y4614024D01*
X4393852Y4598530D01*
X4388518Y4582782D01*
X4383438Y4577702D01*
X4373024Y4572368D01*
D24*
X4697600Y4248401D02*
G01*
X4780658Y4248401D01*
D23*
X4560709Y1577954D02*
G01*
X4550295Y1572620D01*
X4539881Y1562460D01*
X4534547Y1552046D01*
X4534547Y1531218D01*
X4539881Y1520804D01*
X4550295Y1510390D01*
X4560709Y1505310D01*
X4576203Y1499976D01*
X4602111Y1499976D01*
X4617859Y1505310D01*
X4628273Y1510390D01*
X4638687Y1520804D01*
X4643767Y1531218D01*
X4643767Y1552046D01*
X4638687Y1562460D01*
X4628273Y1572620D01*
X4617859Y1577954D01*
X4555375Y1612244D02*
G01*
X4550295Y1622658D01*
X4534547Y1638152D01*
X4643767Y1638152D01*
X4534547Y1724512D02*
G01*
X4607445Y1672442D01*
X4607445Y1750420D01*
X4534547Y1724512D02*
G01*
X4643767Y1724512D01*
X4584283Y3538999D02*
G01*
X4693249Y3538999D01*
X4584283Y3538999D02*
G01*
X4584283Y3585735D01*
X4589363Y3601229D01*
X4594697Y3606563D01*
X4605111Y3611643D01*
X4615525Y3611643D01*
X4625939Y3606563D01*
X4631019Y3601229D01*
X4636099Y3585735D01*
X4636099Y3538999D01*
X4636099Y3575321D02*
G01*
X4693249Y3611643D01*
X4584283Y3656347D02*
G01*
X4584283Y3713497D01*
X4625939Y3682509D01*
X4625939Y3698003D01*
X4631019Y3708417D01*
X4636099Y3713497D01*
X4651847Y3718831D01*
X4662261Y3718831D01*
X4677755Y3713497D01*
X4688169Y3703083D01*
X4693249Y3687589D01*
X4693249Y3672095D01*
X4688169Y3656347D01*
X4683089Y3651267D01*
X4672675Y3645933D01*
X4534684Y2400000D02*
G01*
X4643650Y2400000D01*
X4534684Y2400000D02*
G01*
X4534684Y2436322D01*
X4539764Y2452070D01*
X4550178Y2462230D01*
X4560592Y2467564D01*
X4576340Y2472644D01*
X4602248Y2472644D01*
X4617742Y2467564D01*
X4628156Y2462230D01*
X4638570Y2452070D01*
X4643650Y2436322D01*
X4643650Y2400000D01*
X4555512Y2506934D02*
G01*
X4550178Y2517348D01*
X4534684Y2533096D01*
X4643650Y2533096D01*
X4534573Y781118D02*
G01*
X4539907Y770704D01*
X4550321Y760290D01*
X4560735Y755210D01*
X4576229Y749876D01*
X4602137Y749876D01*
X4617885Y755210D01*
X4628299Y760290D01*
X4638459Y770704D01*
X4643793Y781118D01*
X4643793Y801946D01*
X4638459Y812360D01*
X4628299Y822774D01*
X4617885Y827854D01*
X4602137Y833188D01*
X4576229Y833188D01*
X4560735Y827854D01*
X4550321Y822774D01*
X4539907Y812360D01*
X4534573Y801946D01*
X4534573Y781118D01*
X4622965Y796866D02*
G01*
X4654207Y827854D01*
X4555401Y867478D02*
G01*
X4550321Y877892D01*
X4534573Y893386D01*
X4643793Y893386D01*
X2849879Y4115320D02*
G01*
X2849879Y4006354D01*
X2849879Y4115320D02*
G01*
X2917443Y4115320D01*
X2849879Y4063504D02*
G01*
X2891536Y4063504D01*
X2849879Y4006354D02*
G01*
X2917443Y4006354D01*
X2951734Y4115320D02*
G01*
X2951734Y4006354D01*
X2951734Y4115320D02*
G01*
X3024631Y4006354D01*
X3024631Y4115320D02*
G01*
X3024631Y4006354D01*
X3136900Y4089412D02*
G01*
X3131565Y4099826D01*
X3121152Y4110240D01*
X3110738Y4115320D01*
X3089909Y4115320D01*
X3079750Y4110240D01*
X3069336Y4099826D01*
X3064002Y4089412D01*
X3058922Y4073664D01*
X3058922Y4047756D01*
X3064002Y4032262D01*
X3069336Y4021848D01*
X3079750Y4011434D01*
X3089909Y4006354D01*
X3110738Y4006354D01*
X3121152Y4011434D01*
X3131565Y4021848D01*
X3136900Y4032262D01*
X3202177Y4115320D02*
G01*
X3191763Y4110240D01*
X3181350Y4099826D01*
X3176270Y4089412D01*
X3171190Y4073664D01*
X3171190Y4047756D01*
X3176270Y4032262D01*
X3181350Y4021848D01*
X3191763Y4011434D01*
X3202177Y4006354D01*
X3223006Y4006354D01*
X3233420Y4011434D01*
X3243834Y4021848D01*
X3248913Y4032262D01*
X3254247Y4047756D01*
X3254247Y4073664D01*
X3248913Y4089412D01*
X3243834Y4099826D01*
X3233420Y4110240D01*
X3223006Y4115320D01*
X3202177Y4115320D01*
X3288538Y4115320D02*
G01*
X3288538Y4006354D01*
X3288538Y4115320D02*
G01*
X3324859Y4115320D01*
X3340354Y4110240D01*
X3350768Y4099826D01*
X3356102Y4089412D01*
X3361181Y4073664D01*
X3361181Y4047756D01*
X3356102Y4032262D01*
X3350768Y4021848D01*
X3340354Y4011434D01*
X3324859Y4006354D01*
X3288538Y4006354D01*
X3395472Y4115320D02*
G01*
X3395472Y4006354D01*
X3395472Y4115320D02*
G01*
X3463036Y4115320D01*
X3395472Y4063504D02*
G01*
X3437127Y4063504D01*
X3395472Y4006354D02*
G01*
X3463036Y4006354D01*
X3497325Y4115320D02*
G01*
X3497325Y4006354D01*
X3497325Y4115320D02*
G01*
X3544061Y4115320D01*
X3559809Y4110240D01*
X3564890Y4104906D01*
X3569970Y4094492D01*
X3569970Y4084078D01*
X3564890Y4073664D01*
X3559809Y4068584D01*
X3544061Y4063504D01*
X3497325Y4063504D01*
X3533647Y4063504D02*
G01*
X3569970Y4006354D01*
D22*
X2138934Y3136404D02*
G01*
X2175256Y3040900D01*
X2211577Y3136404D02*
G01*
X2175256Y3040900D01*
X2309875Y3113798D02*
G01*
X2305304Y3122942D01*
X2296159Y3131832D01*
X2287015Y3136404D01*
X2268981Y3136404D01*
X2259838Y3131832D01*
X2250693Y3122942D01*
X2246122Y3113798D01*
X2241550Y3100082D01*
X2241550Y3077476D01*
X2246122Y3063760D01*
X2250693Y3054616D01*
X2259838Y3045472D01*
X2268981Y3040900D01*
X2287015Y3040900D01*
X2296159Y3045472D01*
X2305304Y3054616D01*
X2309875Y3063760D01*
X2407920Y3113798D02*
G01*
X2403602Y3122942D01*
X2394458Y3131832D01*
X2385313Y3136404D01*
X2367025Y3136404D01*
X2358136Y3131832D01*
X2348991Y3122942D01*
X2344420Y3113798D01*
X2339847Y3100082D01*
X2339847Y3077476D01*
X2344420Y3063760D01*
X2348991Y3054616D01*
X2358136Y3045472D01*
X2367025Y3040900D01*
X2385313Y3040900D01*
X2394458Y3045472D01*
X2403602Y3054616D01*
X2407920Y3063760D01*
X2232406Y2593098D02*
G01*
X2228088Y2602242D01*
X2218943Y2611132D01*
X2209800Y2615704D01*
X2191511Y2615704D01*
X2182622Y2611132D01*
X2173477Y2602242D01*
X2168906Y2593098D01*
X2164334Y2579382D01*
X2164334Y2556776D01*
X2168906Y2543060D01*
X2173477Y2533916D01*
X2182622Y2524772D01*
X2191511Y2520200D01*
X2209800Y2520200D01*
X2218943Y2524772D01*
X2228088Y2533916D01*
X2232406Y2543060D01*
X2232406Y2556776D01*
X2209800Y2556776D02*
G01*
X2232406Y2556776D01*
X2262631Y2615704D02*
G01*
X2262631Y2520200D01*
X2262631Y2615704D02*
G01*
X2326131Y2520200D01*
X2326131Y2615704D02*
G01*
X2326131Y2520200D01*
X2356104Y2615704D02*
G01*
X2356104Y2520200D01*
X2356104Y2615704D02*
G01*
X2387854Y2615704D01*
X2401570Y2611132D01*
X2410713Y2602242D01*
X2415286Y2593098D01*
X2419858Y2579382D01*
X2419858Y2556776D01*
X2415286Y2543060D01*
X2410713Y2533916D01*
X2401570Y2524772D01*
X2387854Y2520200D01*
X2356104Y2520200D01*
X4120388Y2767342D02*
G01*
X4111243Y2776232D01*
X4097527Y2780804D01*
X4079240Y2780804D01*
X4065777Y2776232D01*
X4056634Y2767342D01*
X4056634Y2758198D01*
X4061206Y2749054D01*
X4065777Y2744482D01*
X4074922Y2739910D01*
X4102100Y2730766D01*
X4111243Y2726448D01*
X4115815Y2721876D01*
X4120388Y2712732D01*
X4120388Y2699016D01*
X4111243Y2689872D01*
X4097527Y2685300D01*
X4079240Y2685300D01*
X4065777Y2689872D01*
X4056634Y2699016D01*
X4150359Y2780804D02*
G01*
X4150359Y2685300D01*
X4150359Y2780804D02*
G01*
X4182109Y2780804D01*
X4195825Y2776232D01*
X4204715Y2767342D01*
X4209288Y2758198D01*
X4213859Y2744482D01*
X4213859Y2721876D01*
X4209288Y2708160D01*
X4204715Y2699016D01*
X4195825Y2689872D01*
X4182109Y2685300D01*
X4150359Y2685300D01*
X4280154Y2780804D02*
G01*
X4243831Y2685300D01*
X4280154Y2780804D02*
G01*
X4316729Y2685300D01*
X4257547Y2717304D02*
G01*
X4303013Y2717304D01*
X4120388Y3034042D02*
G01*
X4111243Y3042932D01*
X4097527Y3047504D01*
X4079240Y3047504D01*
X4065777Y3042932D01*
X4056634Y3034042D01*
X4056634Y3024898D01*
X4061206Y3015754D01*
X4065777Y3011182D01*
X4074922Y3006610D01*
X4102100Y2997466D01*
X4111243Y2993148D01*
X4115815Y2988576D01*
X4120388Y2979432D01*
X4120388Y2965716D01*
X4111243Y2956572D01*
X4097527Y2952000D01*
X4079240Y2952000D01*
X4065777Y2956572D01*
X4056634Y2965716D01*
X4218431Y3024898D02*
G01*
X4213859Y3034042D01*
X4204715Y3042932D01*
X4195825Y3047504D01*
X4177538Y3047504D01*
X4168393Y3042932D01*
X4159250Y3034042D01*
X4154931Y3024898D01*
X4150359Y3011182D01*
X4150359Y2988576D01*
X4154931Y2974860D01*
X4159250Y2965716D01*
X4168393Y2956572D01*
X4177538Y2952000D01*
X4195825Y2952000D01*
X4204715Y2956572D01*
X4213859Y2965716D01*
X4218431Y2974860D01*
X4248404Y3047504D02*
G01*
X4248404Y2952000D01*
X4248404Y2952000D02*
G01*
X4303013Y2952000D01*
X2178811Y2869704D02*
G01*
X2169922Y2865132D01*
X2160777Y2856242D01*
X2156206Y2847098D01*
X2151634Y2833382D01*
X2151634Y2810776D01*
X2156206Y2797060D01*
X2160777Y2787916D01*
X2169922Y2778772D01*
X2178811Y2774200D01*
X2197100Y2774200D01*
X2206243Y2778772D01*
X2215388Y2787916D01*
X2219706Y2797060D01*
X2224277Y2810776D01*
X2224277Y2833382D01*
X2219706Y2847098D01*
X2215388Y2856242D01*
X2206243Y2865132D01*
X2197100Y2869704D01*
X2178811Y2869704D01*
X2254250Y2869704D02*
G01*
X2254250Y2801632D01*
X2258822Y2787916D01*
X2267965Y2778772D01*
X2281681Y2774200D01*
X2290825Y2774200D01*
X2304288Y2778772D01*
X2313431Y2787916D01*
X2318004Y2801632D01*
X2318004Y2869704D01*
X2379725Y2869704D02*
G01*
X2379725Y2774200D01*
X2347975Y2869704D02*
G01*
X2411729Y2869704D01*
X4124706Y2504198D02*
G01*
X4120388Y2513342D01*
X4111243Y2522232D01*
X4102100Y2526804D01*
X4083811Y2526804D01*
X4074922Y2522232D01*
X4065777Y2513342D01*
X4061206Y2504198D01*
X4056634Y2490482D01*
X4056634Y2467876D01*
X4061206Y2454160D01*
X4065777Y2445016D01*
X4074922Y2435872D01*
X4083811Y2431300D01*
X4102100Y2431300D01*
X4111243Y2435872D01*
X4120388Y2445016D01*
X4124706Y2454160D01*
X4124706Y2467876D01*
X4102100Y2467876D02*
G01*
X4124706Y2467876D01*
X4154931Y2526804D02*
G01*
X4154931Y2431300D01*
X4154931Y2526804D02*
G01*
X4195825Y2526804D01*
X4209288Y2522232D01*
X4213859Y2517660D01*
X4218431Y2508770D01*
X4218431Y2495054D01*
X4213859Y2485910D01*
X4209288Y2481338D01*
X4195825Y2476766D01*
X4154931Y2476766D01*
X4275836Y2526804D02*
G01*
X4262120Y2522232D01*
X4252975Y2508770D01*
X4248404Y2485910D01*
X4248404Y2472448D01*
X4252975Y2449588D01*
X4262120Y2435872D01*
X4275836Y2431300D01*
X4284725Y2431300D01*
X4298441Y2435872D01*
X4307586Y2449588D01*
X4312158Y2472448D01*
X4312158Y2485910D01*
X4307586Y2508770D01*
X4298441Y2522232D01*
X4284725Y2526804D01*
X4275836Y2526804D01*
X4056634Y3314204D02*
G01*
X4056634Y3218700D01*
X4056634Y3314204D02*
G01*
X4088384Y3314204D01*
X4102100Y3309632D01*
X4111243Y3300742D01*
X4115815Y3291598D01*
X4120388Y3277882D01*
X4120388Y3255276D01*
X4115815Y3241560D01*
X4111243Y3232416D01*
X4102100Y3223272D01*
X4088384Y3218700D01*
X4056634Y3218700D01*
X4150359Y3314204D02*
G01*
X4150359Y3218700D01*
X4180331Y3314204D02*
G01*
X4180331Y3218700D01*
X4180331Y3314204D02*
G01*
X4221225Y3314204D01*
X4234941Y3309632D01*
X4239259Y3305060D01*
X4243831Y3296170D01*
X4243831Y3287026D01*
X4239259Y3277882D01*
X4234941Y3273310D01*
X4221225Y3268738D01*
X4180331Y3268738D01*
X4212081Y3268738D02*
G01*
X4243831Y3218700D01*
G36*
X4621377Y4172204D02*
G01*
X4773777Y4096004D01*
X4926177Y4096004D01*
X5078577Y4172204D01*
G37*
D19*
X5323077Y3090176D02*
G01*
X5577077Y3090176D01*
X5323077Y4614176D02*
G01*
X5577077Y4614176D01*
X5577077Y4614176D02*
G01*
X5577077Y3090176D01*
X5323077Y4614176D02*
G01*
X5323077Y3090176D01*
X5323077Y1372882D02*
G01*
X5323077Y1880882D01*
X5577077Y1372882D02*
G01*
X5323077Y1372882D01*
X5577077Y1372882D02*
G01*
X5577077Y1880882D01*
X5577077Y1880882D02*
G01*
X5323077Y1880882D01*
D10*
X619000Y993401D02*
G01*
X619000Y460001D01*
X1381000Y460001D01*
X1381000Y993401D01*
X619000Y993401D01*
X111000Y841001D02*
G01*
X1889000Y841001D01*
X1889000Y841001D02*
G01*
X1889000Y5159001D01*
X1889000Y5159001D02*
G01*
X111000Y5159001D01*
X111000Y5159001D02*
G01*
X111000Y841001D01*
X4786375Y1282458D02*
G01*
X4735575Y1282458D01*
X4735575Y1917458D01*
X4786375Y1917458D01*
X4926075Y1917458D02*
G01*
X4964175Y1917458D01*
X4964175Y1282458D01*
X4926075Y1282458D01*
D20*
X4737674Y3259574D02*
G01*
X4737674Y3831074D01*
X4966274Y3831074D01*
X4966274Y3259574D01*
X4737674Y3259574D01*
X4851974Y3259574D02*
G01*
X4851974Y3221474D01*
X4851974Y3869174D02*
G01*
X4851974Y3831074D01*
D21*
X4964998Y2699999D02*
G01*
X4964300Y2295999D01*
X4735700Y2295999D01*
X4735700Y2702399D01*
X4964300Y2702399D01*
X4964998Y2699999D01*
X4964300Y2359499D02*
G01*
X4735700Y2359499D01*
D10*
X4849972Y2295999D02*
G01*
X4849972Y2231362D01*
X4849784Y2702399D02*
G01*
X4849784Y2756634D01*
X4944996Y2344996D02*
G01*
X4944996Y2309995D01*
X4760008Y2309995D01*
X4760008Y2344996D01*
X4944996Y2344996D01*
X4930010Y2339992D02*
G01*
X4930010Y2329985D01*
X4750000Y2329985D01*
X4750000Y2339992D01*
X4930010Y2339992D01*
X4755004Y2314999D02*
G01*
X4755004Y2309995D01*
X4744996Y2309995D01*
X4744996Y2314999D01*
X4755004Y2314999D01*
X4715126Y992532D02*
G01*
X4715126Y608484D01*
X2050034Y3949966D02*
G01*
X4350029Y3949966D01*
X4350029Y1649971D01*
X2050034Y1649971D01*
X2050034Y3949966D01*
G75*
G01*
X4716142Y607469D02*
G03*
X4716142Y993549I167804J193040D01*
G75*
G01
X5231000Y4477001D02*
G03X5231000Y4477001I-381000J0D01*
G75*
G01
X3285236Y2799956D02*
G03X3285236Y2799956I-85192J0D01*
M02*
