G04 Layer: TopSilkLayer*
G04 EasyEDA v6.4.17, 2021-03-17T11:39:49--3:00*
G04 0ec266cd3479489882c0241a24e145c1,59636247558045d2802cba280e4ac9d9,10*
G04 Gerber Generator version 0.2*
G04 Scale: 100 percent, Rotated: No, Reflected: No *
G04 Dimensions in inches *
G04 leading zeros omitted , absolute positions ,3 integer and 6 decimal *
%FSLAX36Y36*%
%MOIN*%

%ADD27C,0.0100*%
%ADD28C,0.0120*%
%ADD29C,0.0080*%
%ADD30C,0.0080*%
%ADD31C,0.0047*%
%ADD32C,0.0060*%

%LPD*%
D29*
X6505000Y304200D02*
G01*
X6453400Y304200D01*
X6479200Y330000D02*
G01*
X6479200Y278499D01*
X5905000Y304200D02*
G01*
X5853400Y304200D01*
X5879200Y330000D02*
G01*
X5879200Y278499D01*
X5905000Y-2292694D02*
G01*
X5853400Y-2292694D01*
X5879200Y-2266894D02*
G01*
X5879200Y-2318395D01*
X6505000Y-2315799D02*
G01*
X6453400Y-2315799D01*
X6479200Y-2290000D02*
G01*
X6479200Y-2341500D01*
X6505000Y-1558234D02*
G01*
X6453400Y-1558234D01*
X6479200Y-1532433D02*
G01*
X6479200Y-1583933D01*
X6505000Y-1300338D02*
G01*
X6453400Y-1300338D01*
X6479200Y-1274538D02*
G01*
X6479200Y-1326039D01*
X6505000Y-1045075D02*
G01*
X6453400Y-1045075D01*
X6479200Y-1019275D02*
G01*
X6479200Y-1070776D01*
X5495000Y-1045799D02*
G01*
X5443400Y-1045799D01*
X5469200Y-1020000D02*
G01*
X5469200Y-1071500D01*
X5495000Y-1306511D02*
G01*
X5443400Y-1306511D01*
X5469200Y-1280711D02*
G01*
X5469200Y-1332211D01*
X5495000Y-1573843D02*
G01*
X5443400Y-1573843D01*
X5469200Y-1548043D02*
G01*
X5469200Y-1599544D01*
X4285000Y-1555799D02*
G01*
X4233400Y-1555799D01*
X4259200Y-1530000D02*
G01*
X4259200Y-1581500D01*
X2155000Y-967065D02*
G01*
X2103400Y-967065D01*
X2129200Y-941266D02*
G01*
X2129200Y-992766D01*
X2155000Y-757732D02*
G01*
X2103400Y-757732D01*
X2129200Y-731932D02*
G01*
X2129200Y-783433D01*
X2958599Y-1140700D02*
G01*
X2954499Y-1136599D01*
X2948400Y-1134600D01*
X2940200Y-1134600D01*
X2934099Y-1136599D01*
X2930000Y-1140700D01*
X2930000Y-1144800D01*
X2931999Y-1148899D01*
X2934099Y-1150999D01*
X2938199Y-1153000D01*
X2950500Y-1157100D01*
X2954499Y-1159099D01*
X2956599Y-1161199D01*
X2958599Y-1165300D01*
X2958599Y-1171399D01*
X2954499Y-1175500D01*
X2948400Y-1177500D01*
X2940200Y-1177500D01*
X2934099Y-1175500D01*
X2930000Y-1171399D01*
X2972100Y-1134600D02*
G01*
X2972100Y-1177500D01*
X2972100Y-1134600D02*
G01*
X2986499Y-1134600D01*
X2992600Y-1136599D01*
X2996700Y-1140700D01*
X2998699Y-1144800D01*
X3000799Y-1150999D01*
X3000799Y-1161199D01*
X2998699Y-1167300D01*
X2996700Y-1171399D01*
X2992600Y-1175500D01*
X2986499Y-1177500D01*
X2972100Y-1177500D01*
X3030600Y-1134600D02*
G01*
X3014300Y-1177500D01*
X3030600Y-1134600D02*
G01*
X3046999Y-1177500D01*
X3020399Y-1163200D02*
G01*
X3040900Y-1163200D01*
X2958599Y-1240700D02*
G01*
X2954499Y-1236599D01*
X2948400Y-1234600D01*
X2940200Y-1234600D01*
X2934099Y-1236599D01*
X2930000Y-1240700D01*
X2930000Y-1244800D01*
X2931999Y-1248899D01*
X2934099Y-1250999D01*
X2938199Y-1253000D01*
X2950500Y-1257100D01*
X2954499Y-1259099D01*
X2956599Y-1261199D01*
X2958599Y-1265300D01*
X2958599Y-1271399D01*
X2954499Y-1275500D01*
X2948400Y-1277500D01*
X2940200Y-1277500D01*
X2934099Y-1275500D01*
X2930000Y-1271399D01*
X3002799Y-1244800D02*
G01*
X3000799Y-1240700D01*
X2996700Y-1236599D01*
X2992600Y-1234600D01*
X2984399Y-1234600D01*
X2980299Y-1236599D01*
X2976199Y-1240700D01*
X2974200Y-1244800D01*
X2972100Y-1250999D01*
X2972100Y-1261199D01*
X2974200Y-1267300D01*
X2976199Y-1271399D01*
X2980299Y-1275500D01*
X2984399Y-1277500D01*
X2992600Y-1277500D01*
X2996700Y-1275500D01*
X3000799Y-1271399D01*
X3002799Y-1267300D01*
X3016300Y-1234600D02*
G01*
X3016300Y-1277500D01*
X3016300Y-1277500D02*
G01*
X3040900Y-1277500D01*
X2920000Y-1434600D02*
G01*
X2936400Y-1477500D01*
X2952700Y-1434600D02*
G01*
X2936400Y-1477500D01*
X2996899Y-1444800D02*
G01*
X2994899Y-1440700D01*
X2990799Y-1436599D01*
X2986700Y-1434600D01*
X2978500Y-1434600D01*
X2974399Y-1436599D01*
X2970299Y-1440700D01*
X2968299Y-1444800D01*
X2966199Y-1450999D01*
X2966199Y-1461199D01*
X2968299Y-1467300D01*
X2970299Y-1471399D01*
X2974399Y-1475500D01*
X2978500Y-1477500D01*
X2986700Y-1477500D01*
X2990799Y-1475500D01*
X2994899Y-1471399D01*
X2996899Y-1467300D01*
X3041099Y-1444800D02*
G01*
X3038999Y-1440700D01*
X3035000Y-1436599D01*
X3030900Y-1434600D01*
X3022700Y-1434600D01*
X3018599Y-1436599D01*
X3014499Y-1440700D01*
X3012500Y-1444800D01*
X3010399Y-1450999D01*
X3010399Y-1461199D01*
X3012500Y-1467300D01*
X3014499Y-1471399D01*
X3018599Y-1475500D01*
X3022700Y-1477500D01*
X3030900Y-1477500D01*
X3035000Y-1475500D01*
X3038999Y-1471399D01*
X3041099Y-1467300D01*
X70900Y-1913099D02*
G01*
X68200Y-1907600D01*
X62699Y-1902199D01*
X57300Y-1899499D01*
X46399Y-1899499D01*
X40900Y-1902199D01*
X35500Y-1907600D01*
X32699Y-1913099D01*
X30000Y-1921300D01*
X30000Y-1934899D01*
X32699Y-1943099D01*
X35500Y-1948499D01*
X40900Y-1954000D01*
X46399Y-1956700D01*
X57300Y-1956700D01*
X62699Y-1954000D01*
X68200Y-1948499D01*
X70900Y-1943099D01*
X70900Y-1934899D01*
X57300Y-1934899D02*
G01*
X70900Y-1934899D01*
X121599Y-1918499D02*
G01*
X121599Y-1956700D01*
X121599Y-1926700D02*
G01*
X116199Y-1921300D01*
X110700Y-1918499D01*
X102500Y-1918499D01*
X97100Y-1921300D01*
X91599Y-1926700D01*
X88899Y-1934899D01*
X88899Y-1940399D01*
X91599Y-1948499D01*
X97100Y-1954000D01*
X102500Y-1956700D01*
X110700Y-1956700D01*
X116199Y-1954000D01*
X121599Y-1948499D01*
X139600Y-1899499D02*
G01*
X139600Y-1956700D01*
X139600Y-1926700D02*
G01*
X145100Y-1921300D01*
X150500Y-1918499D01*
X158699Y-1918499D01*
X164200Y-1921300D01*
X169600Y-1926700D01*
X172399Y-1934899D01*
X172399Y-1940399D01*
X169600Y-1948499D01*
X164200Y-1954000D01*
X158699Y-1956700D01*
X150500Y-1956700D01*
X145100Y-1954000D01*
X139600Y-1948499D01*
X190399Y-1918499D02*
G01*
X190399Y-1956700D01*
X190399Y-1934899D02*
G01*
X193099Y-1926700D01*
X198499Y-1921300D01*
X204000Y-1918499D01*
X212199Y-1918499D01*
X230199Y-1899499D02*
G01*
X232899Y-1902199D01*
X235599Y-1899499D01*
X232899Y-1896700D01*
X230199Y-1899499D01*
X232899Y-1918499D02*
G01*
X232899Y-1956700D01*
X253600Y-1934899D02*
G01*
X286399Y-1934899D01*
X286399Y-1929499D01*
X283600Y-1924000D01*
X280900Y-1921300D01*
X275500Y-1918499D01*
X267300Y-1918499D01*
X261799Y-1921300D01*
X256399Y-1926700D01*
X253600Y-1934899D01*
X253600Y-1940399D01*
X256399Y-1948499D01*
X261799Y-1954000D01*
X267300Y-1956700D01*
X275500Y-1956700D01*
X280900Y-1954000D01*
X286399Y-1948499D01*
X304400Y-1899499D02*
G01*
X304400Y-1956700D01*
X364400Y-1899499D02*
G01*
X364400Y-1956700D01*
X364400Y-1899499D02*
G01*
X388899Y-1899499D01*
X397100Y-1902199D01*
X399800Y-1904899D01*
X402500Y-1910399D01*
X402500Y-1915799D01*
X399800Y-1921300D01*
X397100Y-1924000D01*
X388899Y-1926700D01*
X364400Y-1926700D02*
G01*
X388899Y-1926700D01*
X397100Y-1929499D01*
X399800Y-1932199D01*
X402500Y-1937600D01*
X402500Y-1945799D01*
X399800Y-1951300D01*
X397100Y-1954000D01*
X388899Y-1956700D01*
X364400Y-1956700D01*
X420500Y-1934899D02*
G01*
X453299Y-1934899D01*
X453299Y-1929499D01*
X450500Y-1924000D01*
X447800Y-1921300D01*
X442399Y-1918499D01*
X434200Y-1918499D01*
X428699Y-1921300D01*
X423299Y-1926700D01*
X420500Y-1934899D01*
X420500Y-1940399D01*
X423299Y-1948499D01*
X428699Y-1954000D01*
X434200Y-1956700D01*
X442399Y-1956700D01*
X447800Y-1954000D01*
X453299Y-1948499D01*
X479499Y-1899499D02*
G01*
X479499Y-1945799D01*
X482199Y-1954000D01*
X487600Y-1956700D01*
X493099Y-1956700D01*
X471300Y-1918499D02*
G01*
X490399Y-1918499D01*
X519299Y-1899499D02*
G01*
X519299Y-1945799D01*
X521999Y-1954000D01*
X527500Y-1956700D01*
X532899Y-1956700D01*
X511100Y-1918499D02*
G01*
X530199Y-1918499D01*
X583600Y-1918499D02*
G01*
X583600Y-1956700D01*
X583600Y-1926700D02*
G01*
X578200Y-1921300D01*
X572699Y-1918499D01*
X564499Y-1918499D01*
X559099Y-1921300D01*
X553600Y-1926700D01*
X550900Y-1934899D01*
X550900Y-1940399D01*
X553600Y-1948499D01*
X559099Y-1954000D01*
X564499Y-1956700D01*
X572699Y-1956700D01*
X578200Y-1954000D01*
X583600Y-1948499D01*
X601599Y-1918499D02*
G01*
X601599Y-1956700D01*
X601599Y-1929499D02*
G01*
X609800Y-1921300D01*
X615300Y-1918499D01*
X623499Y-1918499D01*
X628899Y-1921300D01*
X631599Y-1929499D01*
X631599Y-1956700D01*
X649600Y-1899499D02*
G01*
X652399Y-1902199D01*
X655100Y-1899499D01*
X652399Y-1896700D01*
X649600Y-1899499D01*
X652399Y-1918499D02*
G01*
X652399Y-1956700D01*
X673099Y-1918499D02*
G01*
X673099Y-1956700D01*
X673099Y-1929499D02*
G01*
X681300Y-1921300D01*
X686700Y-1918499D01*
X694899Y-1918499D01*
X700399Y-1921300D01*
X703099Y-1929499D01*
X703099Y-1956700D01*
X46399Y-1989499D02*
G01*
X38200Y-1992199D01*
X32699Y-2000399D01*
X30000Y-2014000D01*
X30000Y-2022199D01*
X32699Y-2035799D01*
X38200Y-2044000D01*
X46399Y-2046700D01*
X51799Y-2046700D01*
X60000Y-2044000D01*
X65500Y-2035799D01*
X68200Y-2022199D01*
X68200Y-2014000D01*
X65500Y-2000399D01*
X60000Y-1992199D01*
X51799Y-1989499D01*
X46399Y-1989499D01*
X91599Y-1989499D02*
G01*
X121599Y-1989499D01*
X105300Y-2011300D01*
X113499Y-2011300D01*
X118899Y-2014000D01*
X121599Y-2016700D01*
X124400Y-2024899D01*
X124400Y-2030399D01*
X121599Y-2038499D01*
X116199Y-2044000D01*
X108000Y-2046700D01*
X99800Y-2046700D01*
X91599Y-2044000D01*
X88899Y-2041300D01*
X86199Y-2035799D01*
X191500Y-1978499D02*
G01*
X142399Y-2065799D01*
X212199Y-2003099D02*
G01*
X212199Y-2000399D01*
X214899Y-1994899D01*
X217600Y-1992199D01*
X223099Y-1989499D01*
X234000Y-1989499D01*
X239499Y-1992199D01*
X242199Y-1994899D01*
X244899Y-2000399D01*
X244899Y-2005799D01*
X242199Y-2011300D01*
X236700Y-2019499D01*
X209499Y-2046700D01*
X247600Y-2046700D01*
X281999Y-1989499D02*
G01*
X273800Y-1992199D01*
X268400Y-2000399D01*
X265599Y-2014000D01*
X265599Y-2022199D01*
X268400Y-2035799D01*
X273800Y-2044000D01*
X281999Y-2046700D01*
X287500Y-2046700D01*
X295599Y-2044000D01*
X301100Y-2035799D01*
X303800Y-2022199D01*
X303800Y-2014000D01*
X301100Y-2000399D01*
X295599Y-1992199D01*
X287500Y-1989499D01*
X281999Y-1989499D01*
X324499Y-2003099D02*
G01*
X324499Y-2000399D01*
X327300Y-1994899D01*
X330000Y-1992199D01*
X335500Y-1989499D01*
X346399Y-1989499D01*
X351799Y-1992199D01*
X354499Y-1994899D01*
X357300Y-2000399D01*
X357300Y-2005799D01*
X354499Y-2011300D01*
X349099Y-2019499D01*
X321799Y-2046700D01*
X360000Y-2046700D01*
X378000Y-2000399D02*
G01*
X383499Y-1997600D01*
X391599Y-1989499D01*
X391599Y-2046700D01*
X40000Y-1809499D02*
G01*
X40000Y-1866700D01*
X40000Y-1866700D02*
G01*
X72699Y-1866700D01*
X112500Y-1809499D02*
G01*
X90700Y-1866700D01*
X112500Y-1809499D02*
G01*
X134400Y-1866700D01*
X98899Y-1847600D02*
G01*
X126199Y-1847600D01*
X152399Y-1809499D02*
G01*
X152399Y-1866700D01*
X152399Y-1809499D02*
G01*
X176900Y-1809499D01*
X185100Y-1812199D01*
X187800Y-1814899D01*
X190500Y-1820399D01*
X190500Y-1828499D01*
X187800Y-1834000D01*
X185100Y-1836700D01*
X176900Y-1839499D01*
X152399Y-1839499D01*
X208499Y-1809499D02*
G01*
X208499Y-1866700D01*
X226500Y-1809499D02*
G01*
X264699Y-1866700D01*
X264699Y-1809499D02*
G01*
X226500Y-1866700D01*
X365599Y-1823099D02*
G01*
X362899Y-1817600D01*
X357500Y-1812199D01*
X351999Y-1809499D01*
X341100Y-1809499D01*
X335599Y-1812199D01*
X330199Y-1817600D01*
X327500Y-1823099D01*
X324699Y-1831300D01*
X324699Y-1844899D01*
X327500Y-1853099D01*
X330199Y-1858499D01*
X335599Y-1864000D01*
X341100Y-1866700D01*
X351999Y-1866700D01*
X357500Y-1864000D01*
X362899Y-1858499D01*
X365599Y-1853099D01*
X383600Y-1828499D02*
G01*
X383600Y-1866700D01*
X383600Y-1844899D02*
G01*
X386399Y-1836700D01*
X391799Y-1831300D01*
X397300Y-1828499D01*
X405500Y-1828499D01*
X456199Y-1828499D02*
G01*
X456199Y-1866700D01*
X456199Y-1836700D02*
G01*
X450700Y-1831300D01*
X445300Y-1828499D01*
X437100Y-1828499D01*
X431599Y-1831300D01*
X426199Y-1836700D01*
X423499Y-1844899D01*
X423499Y-1850399D01*
X426199Y-1858499D01*
X431599Y-1864000D01*
X437100Y-1866700D01*
X445300Y-1866700D01*
X450700Y-1864000D01*
X456199Y-1858499D01*
X474200Y-1828499D02*
G01*
X485100Y-1866700D01*
X495999Y-1828499D02*
G01*
X485100Y-1866700D01*
X495999Y-1828499D02*
G01*
X506900Y-1866700D01*
X517800Y-1828499D02*
G01*
X506900Y-1866700D01*
X535799Y-1809499D02*
G01*
X535799Y-1866700D01*
X553800Y-1844899D02*
G01*
X586500Y-1844899D01*
X586500Y-1839499D01*
X583800Y-1834000D01*
X581100Y-1831300D01*
X575599Y-1828499D01*
X567500Y-1828499D01*
X561999Y-1831300D01*
X556500Y-1836700D01*
X553800Y-1844899D01*
X553800Y-1850399D01*
X556500Y-1858499D01*
X561999Y-1864000D01*
X567500Y-1866700D01*
X575599Y-1866700D01*
X581100Y-1864000D01*
X586500Y-1858499D01*
X604499Y-1828499D02*
G01*
X604499Y-1866700D01*
X604499Y-1844899D02*
G01*
X607300Y-1836700D01*
X612699Y-1831300D01*
X618200Y-1828499D01*
X626399Y-1828499D01*
X686399Y-1828499D02*
G01*
X702699Y-1866700D01*
X719099Y-1828499D02*
G01*
X702699Y-1866700D01*
X737100Y-1820399D02*
G01*
X742500Y-1817600D01*
X750700Y-1809499D01*
X750700Y-1866700D01*
X771499Y-1853099D02*
G01*
X768699Y-1855799D01*
X771499Y-1858499D01*
X774200Y-1855799D01*
X771499Y-1853099D01*
X808500Y-1809499D02*
G01*
X800399Y-1812199D01*
X794899Y-1820399D01*
X792200Y-1834000D01*
X792200Y-1842199D01*
X794899Y-1855799D01*
X800399Y-1864000D01*
X808500Y-1866700D01*
X813999Y-1866700D01*
X822200Y-1864000D01*
X827600Y-1855799D01*
X830399Y-1842199D01*
X830399Y-1834000D01*
X827600Y-1820399D01*
X822200Y-1812199D01*
X813999Y-1809499D01*
X808500Y-1809499D01*
D32*
X5160000Y-2194600D02*
G01*
X5160000Y-2225300D01*
X5161999Y-2231399D01*
X5166099Y-2235500D01*
X5172299Y-2237500D01*
X5176400Y-2237500D01*
X5182500Y-2235500D01*
X5186599Y-2231399D01*
X5188599Y-2225300D01*
X5188599Y-2194600D01*
X5202100Y-2202800D02*
G01*
X5206199Y-2200700D01*
X5212399Y-2194600D01*
X5212399Y-2237500D01*
D29*
X4070190Y-2363089D02*
G01*
X4070190Y-2419488D01*
X4070190Y-2363089D02*
G01*
X4094290Y-2363089D01*
X4102389Y-2365788D01*
X4105090Y-2368488D01*
X4107690Y-2373789D01*
X4107690Y-2381889D01*
X4105090Y-2387289D01*
X4102389Y-2389888D01*
X4094290Y-2392588D01*
X4070190Y-2392588D01*
X4125490Y-2363089D02*
G01*
X4138890Y-2419488D01*
X4152290Y-2363089D02*
G01*
X4138890Y-2419488D01*
X4152290Y-2363089D02*
G01*
X4165690Y-2419488D01*
X4179189Y-2363089D02*
G01*
X4165690Y-2419488D01*
X4196890Y-2363089D02*
G01*
X4196890Y-2419488D01*
X4196890Y-2363089D02*
G01*
X4218289Y-2419488D01*
X4239790Y-2363089D02*
G01*
X4218289Y-2419488D01*
X4239790Y-2363089D02*
G01*
X4239790Y-2419488D01*
X4110452Y-2604848D02*
G01*
X4107753Y-2599448D01*
X4102353Y-2594149D01*
X4096953Y-2591448D01*
X4086252Y-2591448D01*
X4080852Y-2594149D01*
X4075553Y-2599448D01*
X4072852Y-2604848D01*
X4070153Y-2612948D01*
X4070153Y-2626349D01*
X4072852Y-2634349D01*
X4075553Y-2639749D01*
X4080852Y-2645149D01*
X4086252Y-2647849D01*
X4096953Y-2647849D01*
X4102353Y-2645149D01*
X4107753Y-2639749D01*
X4110452Y-2634349D01*
X4110452Y-2626349D01*
X4096953Y-2626349D02*
G01*
X4110452Y-2626349D01*
X4128153Y-2591448D02*
G01*
X4128153Y-2647849D01*
X4128153Y-2591448D02*
G01*
X4165753Y-2647849D01*
X4165753Y-2591448D02*
G01*
X4165753Y-2647849D01*
X4183452Y-2591448D02*
G01*
X4183452Y-2647849D01*
X4183452Y-2591448D02*
G01*
X4202253Y-2591448D01*
X4210253Y-2594149D01*
X4215653Y-2599448D01*
X4218352Y-2604848D01*
X4221053Y-2612948D01*
X4221053Y-2626349D01*
X4218352Y-2634349D01*
X4215653Y-2639749D01*
X4210253Y-2645149D01*
X4202253Y-2647849D01*
X4183452Y-2647849D01*
X4976851Y-2407934D02*
G01*
X4976853Y-2468033D01*
X4995752Y-2407934D02*
G01*
X4995752Y-2468033D01*
X4995752Y-2407934D02*
G01*
X5035852Y-2468033D01*
X5035852Y-2407934D02*
G01*
X5035852Y-2468033D01*
X5054751Y-2442233D02*
G01*
X5106252Y-2442233D01*
X4778815Y-2409025D02*
G01*
X4778815Y-2465426D01*
X4796516Y-2409025D02*
G01*
X4796516Y-2465426D01*
X4796516Y-2409025D02*
G01*
X4834116Y-2465426D01*
X4834116Y-2409025D02*
G01*
X4834116Y-2465426D01*
X4876016Y-2417125D02*
G01*
X4876016Y-2465426D01*
X4851815Y-2441226D02*
G01*
X4900115Y-2441226D01*
X4780045Y-2541392D02*
G01*
X4780045Y-2597793D01*
X4780045Y-2541392D02*
G01*
X4801544Y-2597793D01*
X4822945Y-2541392D02*
G01*
X4801544Y-2597793D01*
X4822945Y-2541392D02*
G01*
X4822945Y-2597793D01*
X4864844Y-2549493D02*
G01*
X4864844Y-2597793D01*
X4840645Y-2573593D02*
G01*
X4889044Y-2573593D01*
X4975703Y-2542730D02*
G01*
X4975703Y-2599130D01*
X4975703Y-2542730D02*
G01*
X4997202Y-2599130D01*
X5018603Y-2542730D02*
G01*
X4997202Y-2599130D01*
X5018603Y-2542730D02*
G01*
X5018603Y-2599130D01*
X5036403Y-2574929D02*
G01*
X5084702Y-2574929D01*
D32*
X5170000Y215399D02*
G01*
X5170000Y184699D01*
X5171999Y178600D01*
X5176099Y174499D01*
X5182299Y172500D01*
X5186400Y172500D01*
X5192500Y174499D01*
X5196599Y178600D01*
X5198599Y184699D01*
X5198599Y215399D01*
X5214200Y205199D02*
G01*
X5214200Y207199D01*
X5216199Y211300D01*
X5218299Y213400D01*
X5222399Y215399D01*
X5230500Y215399D01*
X5234600Y213400D01*
X5236700Y211300D01*
X5238699Y207199D01*
X5238699Y203099D01*
X5236700Y199000D01*
X5232600Y192899D01*
X5212100Y172500D01*
X5240799Y172500D01*
D29*
X4889809Y353088D02*
G01*
X4889809Y409488D01*
X4889809Y353088D02*
G01*
X4865709Y353088D01*
X4857610Y355788D01*
X4854910Y358488D01*
X4852309Y363789D01*
X4852309Y371889D01*
X4854910Y377289D01*
X4857610Y379888D01*
X4865709Y382588D01*
X4889809Y382588D01*
X4834510Y353088D02*
G01*
X4821109Y409488D01*
X4807709Y353088D02*
G01*
X4821109Y409488D01*
X4807709Y353088D02*
G01*
X4794309Y409488D01*
X4780810Y353088D02*
G01*
X4794309Y409488D01*
X4763109Y353088D02*
G01*
X4763109Y409488D01*
X4763109Y353088D02*
G01*
X4741710Y409488D01*
X4720209Y353088D02*
G01*
X4741710Y409488D01*
X4720209Y353088D02*
G01*
X4720209Y409488D01*
X4849547Y594848D02*
G01*
X4852246Y589448D01*
X4857646Y584149D01*
X4863046Y581448D01*
X4873747Y581448D01*
X4879147Y584149D01*
X4884447Y589448D01*
X4887147Y594848D01*
X4889847Y602948D01*
X4889847Y616349D01*
X4887147Y624349D01*
X4884447Y629749D01*
X4879147Y635149D01*
X4873747Y637849D01*
X4863046Y637849D01*
X4857646Y635149D01*
X4852246Y629749D01*
X4849547Y624349D01*
X4849547Y616349D01*
X4863046Y616349D02*
G01*
X4849547Y616349D01*
X4831846Y581448D02*
G01*
X4831846Y637849D01*
X4831846Y581448D02*
G01*
X4794246Y637849D01*
X4794246Y581448D02*
G01*
X4794246Y637849D01*
X4776547Y581448D02*
G01*
X4776547Y637849D01*
X4776547Y581448D02*
G01*
X4757746Y581448D01*
X4749746Y584149D01*
X4744346Y589448D01*
X4741647Y594848D01*
X4738946Y602948D01*
X4738946Y616349D01*
X4741647Y624349D01*
X4744346Y629749D01*
X4749746Y635149D01*
X4757746Y637849D01*
X4776547Y637849D01*
X3983148Y397934D02*
G01*
X3983146Y458033D01*
X3964247Y397934D02*
G01*
X3964247Y458033D01*
X3964247Y397934D02*
G01*
X3924147Y458033D01*
X3924147Y397934D02*
G01*
X3924147Y458033D01*
X3905248Y432233D02*
G01*
X3853747Y432233D01*
X4181184Y399025D02*
G01*
X4181184Y455426D01*
X4163483Y399025D02*
G01*
X4163483Y455426D01*
X4163483Y399025D02*
G01*
X4125883Y455426D01*
X4125883Y399025D02*
G01*
X4125883Y455426D01*
X4083984Y407125D02*
G01*
X4083984Y455426D01*
X4108184Y431226D02*
G01*
X4059884Y431226D01*
X4179955Y531392D02*
G01*
X4179955Y587793D01*
X4179955Y531392D02*
G01*
X4158455Y587793D01*
X4137055Y531392D02*
G01*
X4158455Y587793D01*
X4137055Y531392D02*
G01*
X4137055Y587793D01*
X4095155Y539493D02*
G01*
X4095155Y587793D01*
X4119354Y563593D02*
G01*
X4070955Y563593D01*
X3984296Y532730D02*
G01*
X3984296Y589130D01*
X3984296Y532730D02*
G01*
X3962797Y589130D01*
X3941396Y532730D02*
G01*
X3962797Y589130D01*
X3941396Y532730D02*
G01*
X3941396Y589130D01*
X3923596Y564929D02*
G01*
X3875297Y564929D01*
D32*
X3453140Y52600D02*
G01*
X3435240Y52600D01*
X3433440Y36500D01*
X3435240Y38299D01*
X3440540Y40100D01*
X3445940Y40100D01*
X3451340Y38299D01*
X3454939Y34699D01*
X3456740Y29400D01*
X3456740Y25799D01*
X3454939Y20399D01*
X3451340Y16799D01*
X3445940Y15000D01*
X3440540Y15000D01*
X3435240Y16799D01*
X3433440Y18600D01*
X3431639Y22199D01*
X3468540Y52600D02*
G01*
X3482839Y15000D01*
X3497139Y52600D02*
G01*
X3482839Y15000D01*
X674540Y-128200D02*
G01*
X660039Y-166399D01*
X674540Y-128200D02*
G01*
X689140Y-166399D01*
X665540Y-153600D02*
G01*
X683640Y-153600D01*
X701140Y-128200D02*
G01*
X701140Y-166399D01*
X701140Y-128200D02*
G01*
X717539Y-128200D01*
X722939Y-130000D01*
X724740Y-131799D01*
X726540Y-135500D01*
X726540Y-139099D01*
X724740Y-142699D01*
X722939Y-144499D01*
X717539Y-146399D01*
X701140Y-146399D01*
X713840Y-146399D02*
G01*
X726540Y-166399D01*
X738539Y-128200D02*
G01*
X738539Y-166399D01*
X738539Y-128200D02*
G01*
X762240Y-128200D01*
X738539Y-146399D02*
G01*
X753139Y-146399D01*
X738539Y-166399D02*
G01*
X762240Y-166399D01*
X774239Y-128200D02*
G01*
X774239Y-166399D01*
X774239Y-128200D02*
G01*
X797839Y-128200D01*
X774239Y-146399D02*
G01*
X788739Y-146399D01*
X847340Y-137300D02*
G01*
X845540Y-133600D01*
X841840Y-130000D01*
X838239Y-128200D01*
X830940Y-128200D01*
X827340Y-130000D01*
X823639Y-133600D01*
X821840Y-137300D01*
X820039Y-142699D01*
X820039Y-151799D01*
X821840Y-157300D01*
X823639Y-160900D01*
X827340Y-164499D01*
X830940Y-166399D01*
X838239Y-166399D01*
X841840Y-164499D01*
X845540Y-160900D01*
X847340Y-157300D01*
X847340Y-151799D01*
X838239Y-151799D02*
G01*
X847340Y-151799D01*
X859340Y-128200D02*
G01*
X859340Y-166399D01*
X859340Y-128200D02*
G01*
X884740Y-166399D01*
X884740Y-128200D02*
G01*
X884740Y-166399D01*
X896739Y-128200D02*
G01*
X896739Y-166399D01*
X896739Y-128200D02*
G01*
X909539Y-128200D01*
X914939Y-130000D01*
X918540Y-133600D01*
X920439Y-137300D01*
X922240Y-142699D01*
X922240Y-151799D01*
X920439Y-157300D01*
X918540Y-160900D01*
X914939Y-164499D01*
X909539Y-166399D01*
X896739Y-166399D01*
X1630039Y-1842199D02*
G01*
X1640039Y-1868499D01*
X1650039Y-1842199D02*
G01*
X1640039Y-1868499D01*
X1658339Y-1842199D02*
G01*
X1659639Y-1843400D01*
X1660839Y-1842199D01*
X1659639Y-1840900D01*
X1658339Y-1842199D01*
X1659639Y-1850999D02*
G01*
X1659639Y-1868499D01*
X1669139Y-1850999D02*
G01*
X1669139Y-1868499D01*
X1669139Y-1855999D02*
G01*
X1672839Y-1852199D01*
X1675339Y-1850999D01*
X1679139Y-1850999D01*
X1681639Y-1852199D01*
X1682939Y-1855999D01*
X1682939Y-1868499D01*
X1528840Y-1848499D02*
G01*
X1527539Y-1845900D01*
X1525039Y-1843400D01*
X1522539Y-1842199D01*
X1517539Y-1842199D01*
X1515039Y-1843400D01*
X1512539Y-1845900D01*
X1511340Y-1848499D01*
X1510039Y-1852199D01*
X1510039Y-1858499D01*
X1511340Y-1862199D01*
X1512539Y-1864699D01*
X1515039Y-1867199D01*
X1517539Y-1868499D01*
X1522539Y-1868499D01*
X1525039Y-1867199D01*
X1527539Y-1864699D01*
X1528840Y-1862199D01*
X1528840Y-1858499D01*
X1522539Y-1858499D02*
G01*
X1528840Y-1858499D01*
X1537139Y-1842199D02*
G01*
X1537139Y-1868499D01*
X1537139Y-1842199D02*
G01*
X1554639Y-1868499D01*
X1554639Y-1842199D02*
G01*
X1554639Y-1868499D01*
X1562939Y-1842199D02*
G01*
X1562939Y-1868499D01*
X1562939Y-1842199D02*
G01*
X1571639Y-1842199D01*
X1575439Y-1843400D01*
X1577939Y-1845900D01*
X1579139Y-1848499D01*
X1580439Y-1852199D01*
X1580439Y-1858499D01*
X1579139Y-1862199D01*
X1577939Y-1864699D01*
X1575439Y-1867199D01*
X1571639Y-1868499D01*
X1562939Y-1868499D01*
X1418840Y-1848499D02*
G01*
X1417539Y-1845900D01*
X1415039Y-1843400D01*
X1412539Y-1842199D01*
X1407539Y-1842199D01*
X1405039Y-1843400D01*
X1402539Y-1845900D01*
X1401340Y-1848499D01*
X1400039Y-1852199D01*
X1400039Y-1858499D01*
X1401340Y-1862199D01*
X1402539Y-1864699D01*
X1405039Y-1867199D01*
X1407539Y-1868499D01*
X1412539Y-1868499D01*
X1415039Y-1867199D01*
X1417539Y-1864699D01*
X1418840Y-1862199D01*
X1418840Y-1858499D01*
X1412539Y-1858499D02*
G01*
X1418840Y-1858499D01*
X1427139Y-1842199D02*
G01*
X1427139Y-1868499D01*
X1427139Y-1842199D02*
G01*
X1444639Y-1868499D01*
X1444639Y-1842199D02*
G01*
X1444639Y-1868499D01*
X1452939Y-1842199D02*
G01*
X1452939Y-1868499D01*
X1452939Y-1842199D02*
G01*
X1461639Y-1842199D01*
X1465439Y-1843400D01*
X1467939Y-1845900D01*
X1469139Y-1848499D01*
X1470439Y-1852199D01*
X1470439Y-1858499D01*
X1469139Y-1862199D01*
X1467939Y-1864699D01*
X1465439Y-1867199D01*
X1461639Y-1868499D01*
X1452939Y-1868499D01*
X1335039Y-1842199D02*
G01*
X1322539Y-1842199D01*
X1321340Y-1853499D01*
X1322539Y-1852199D01*
X1326340Y-1850999D01*
X1330039Y-1850999D01*
X1333840Y-1852199D01*
X1336340Y-1854699D01*
X1337539Y-1858499D01*
X1337539Y-1860999D01*
X1336340Y-1864699D01*
X1333840Y-1867199D01*
X1330039Y-1868499D01*
X1326340Y-1868499D01*
X1322539Y-1867199D01*
X1321340Y-1865999D01*
X1320039Y-1863499D01*
X1345839Y-1842199D02*
G01*
X1355839Y-1868499D01*
X1365839Y-1842199D02*
G01*
X1355839Y-1868499D01*
X1202539Y-1842199D02*
G01*
X1216340Y-1842199D01*
X1208840Y-1852199D01*
X1212539Y-1852199D01*
X1215039Y-1853499D01*
X1216340Y-1854699D01*
X1217539Y-1858499D01*
X1217539Y-1860999D01*
X1216340Y-1864699D01*
X1213840Y-1867199D01*
X1210039Y-1868499D01*
X1206340Y-1868499D01*
X1202539Y-1867199D01*
X1201340Y-1865999D01*
X1200039Y-1863499D01*
X1227139Y-1862199D02*
G01*
X1225839Y-1863499D01*
X1227139Y-1864699D01*
X1228339Y-1863499D01*
X1227139Y-1862199D01*
X1239139Y-1842199D02*
G01*
X1252939Y-1842199D01*
X1245339Y-1852199D01*
X1249139Y-1852199D01*
X1251639Y-1853499D01*
X1252939Y-1854699D01*
X1254139Y-1858499D01*
X1254139Y-1860999D01*
X1252939Y-1864699D01*
X1250439Y-1867199D01*
X1246639Y-1868499D01*
X1242839Y-1868499D01*
X1239139Y-1867199D01*
X1237839Y-1865999D01*
X1236639Y-1863499D01*
X1262439Y-1842199D02*
G01*
X1272439Y-1868499D01*
X1282439Y-1842199D02*
G01*
X1272439Y-1868499D01*
X1051639Y-1844299D02*
G01*
X1051639Y-1870599D01*
X1051639Y-1844299D02*
G01*
X1062939Y-1844299D01*
X1066639Y-1845500D01*
X1067939Y-1846799D01*
X1069139Y-1849299D01*
X1069139Y-1851799D01*
X1067939Y-1854299D01*
X1066639Y-1855599D01*
X1062939Y-1856799D01*
X1051639Y-1856799D01*
X1060439Y-1856799D02*
G01*
X1069139Y-1870599D01*
X1077439Y-1844299D02*
G01*
X1077439Y-1870599D01*
X1077439Y-1844299D02*
G01*
X1093739Y-1844299D01*
X1077439Y-1856799D02*
G01*
X1087439Y-1856799D01*
X1077439Y-1870599D02*
G01*
X1093739Y-1870599D01*
X1119539Y-1848000D02*
G01*
X1117039Y-1845500D01*
X1113239Y-1844299D01*
X1108239Y-1844299D01*
X1104539Y-1845500D01*
X1102039Y-1848000D01*
X1102039Y-1850599D01*
X1103239Y-1853099D01*
X1104539Y-1854299D01*
X1107039Y-1855599D01*
X1114539Y-1858099D01*
X1117039Y-1859299D01*
X1118239Y-1860599D01*
X1119539Y-1863099D01*
X1119539Y-1866799D01*
X1117039Y-1869299D01*
X1113239Y-1870599D01*
X1108239Y-1870599D01*
X1104539Y-1869299D01*
X1102039Y-1866799D01*
X1127839Y-1844299D02*
G01*
X1127839Y-1870599D01*
X1127839Y-1844299D02*
G01*
X1144040Y-1844299D01*
X1127839Y-1856799D02*
G01*
X1137839Y-1856799D01*
X1127839Y-1870599D02*
G01*
X1144040Y-1870599D01*
X1161139Y-1844299D02*
G01*
X1161139Y-1870599D01*
X1152340Y-1844299D02*
G01*
X1169939Y-1844299D01*
X3708440Y-1800300D02*
G01*
X3706740Y-1796700D01*
X3703140Y-1793200D01*
X3699539Y-1791399D01*
X3692340Y-1791399D01*
X3688840Y-1793200D01*
X3685240Y-1796700D01*
X3683440Y-1800300D01*
X3681639Y-1805700D01*
X3681639Y-1814600D01*
X3683440Y-1820000D01*
X3685240Y-1823600D01*
X3688840Y-1827199D01*
X3692340Y-1829000D01*
X3699539Y-1829000D01*
X3703140Y-1827199D01*
X3706740Y-1823600D01*
X3708440Y-1820000D01*
X3708440Y-1814600D01*
X3699539Y-1814600D02*
G01*
X3708440Y-1814600D01*
X3720339Y-1791399D02*
G01*
X3720339Y-1829000D01*
X3720339Y-1791399D02*
G01*
X3745339Y-1829000D01*
X3745339Y-1791399D02*
G01*
X3745339Y-1829000D01*
X3757139Y-1791399D02*
G01*
X3757139Y-1829000D01*
X3757139Y-1791399D02*
G01*
X3769639Y-1791399D01*
X3775039Y-1793200D01*
X3778639Y-1796700D01*
X3780439Y-1800300D01*
X3782240Y-1805700D01*
X3782240Y-1814600D01*
X3780439Y-1820000D01*
X3778639Y-1823600D01*
X3775039Y-1827199D01*
X3769639Y-1829000D01*
X3757139Y-1829000D01*
X3178239Y-1510000D02*
G01*
X3216440Y-1510000D01*
X3178239Y-1510000D02*
G01*
X3178239Y-1497300D01*
X3180039Y-1491799D01*
X3183639Y-1488200D01*
X3187340Y-1486399D01*
X3192740Y-1484499D01*
X3201840Y-1484499D01*
X3207340Y-1486399D01*
X3210940Y-1488200D01*
X3214539Y-1491799D01*
X3216440Y-1497300D01*
X3216440Y-1510000D01*
X3178239Y-1472500D02*
G01*
X3216440Y-1472500D01*
X3187340Y-1433299D02*
G01*
X3183639Y-1435100D01*
X3180039Y-1438699D01*
X3178239Y-1442399D01*
X3178239Y-1449600D01*
X3180039Y-1453299D01*
X3183639Y-1456900D01*
X3187340Y-1458699D01*
X3192740Y-1460500D01*
X3201840Y-1460500D01*
X3207340Y-1458699D01*
X3210940Y-1456900D01*
X3214539Y-1453299D01*
X3216440Y-1449600D01*
X3216440Y-1442399D01*
X3214539Y-1438699D01*
X3210940Y-1435100D01*
X3207340Y-1433299D01*
X3201840Y-1433299D01*
X3201840Y-1442399D02*
G01*
X3201840Y-1433299D01*
X3178239Y-1421300D02*
G01*
X3216440Y-1421300D01*
X3178239Y-1396500D02*
G01*
X3216440Y-1396500D01*
X3178239Y-1409299D02*
G01*
X3178239Y-1383800D01*
X3178239Y-1357300D02*
G01*
X3216440Y-1371799D01*
X3178239Y-1357300D02*
G01*
X3216440Y-1342699D01*
X3203639Y-1366399D02*
G01*
X3203639Y-1348200D01*
X3178239Y-1330700D02*
G01*
X3216440Y-1330700D01*
X3216440Y-1330700D02*
G01*
X3216440Y-1308899D01*
X3424539Y-1838200D02*
G01*
X3410039Y-1876399D01*
X3424539Y-1838200D02*
G01*
X3439139Y-1876399D01*
X3415540Y-1863600D02*
G01*
X3433639Y-1863600D01*
X3451139Y-1845500D02*
G01*
X3454740Y-1843600D01*
X3460240Y-1838200D01*
X3460240Y-1876399D01*
X3494040Y-1838200D02*
G01*
X3475839Y-1838200D01*
X3474040Y-1854499D01*
X3475839Y-1852699D01*
X3481340Y-1850900D01*
X3486740Y-1850900D01*
X3492240Y-1852699D01*
X3495839Y-1856399D01*
X3497640Y-1861799D01*
X3497640Y-1865500D01*
X3495839Y-1870900D01*
X3492240Y-1874499D01*
X3486740Y-1876399D01*
X3481340Y-1876399D01*
X3475839Y-1874499D01*
X3474040Y-1872699D01*
X3472240Y-1869099D01*
X3324539Y-1838200D02*
G01*
X3310039Y-1876399D01*
X3324539Y-1838200D02*
G01*
X3339139Y-1876399D01*
X3315540Y-1863600D02*
G01*
X3333639Y-1863600D01*
X3351139Y-1845500D02*
G01*
X3354740Y-1843600D01*
X3360240Y-1838200D01*
X3360240Y-1876399D01*
X3390439Y-1838200D02*
G01*
X3372240Y-1863600D01*
X3399539Y-1863600D01*
X3390439Y-1838200D02*
G01*
X3390439Y-1876399D01*
X3214539Y-1838200D02*
G01*
X3200039Y-1876399D01*
X3214539Y-1838200D02*
G01*
X3229139Y-1876399D01*
X3205540Y-1863600D02*
G01*
X3223639Y-1863600D01*
X3241139Y-1845500D02*
G01*
X3244740Y-1843600D01*
X3250240Y-1838200D01*
X3250240Y-1876399D01*
X3265839Y-1838200D02*
G01*
X3285839Y-1838200D01*
X3274939Y-1852699D01*
X3280439Y-1852699D01*
X3284040Y-1854499D01*
X3285839Y-1856399D01*
X3287640Y-1861799D01*
X3287640Y-1865500D01*
X3285839Y-1870900D01*
X3282240Y-1874499D01*
X3276740Y-1876399D01*
X3271340Y-1876399D01*
X3265839Y-1874499D01*
X3264040Y-1872699D01*
X3262240Y-1869099D01*
X3104539Y-1838200D02*
G01*
X3090039Y-1876399D01*
X3104539Y-1838200D02*
G01*
X3119139Y-1876399D01*
X3095540Y-1863600D02*
G01*
X3113639Y-1863600D01*
X3131139Y-1845500D02*
G01*
X3134740Y-1843600D01*
X3140240Y-1838200D01*
X3140240Y-1876399D01*
X3154040Y-1847300D02*
G01*
X3154040Y-1845500D01*
X3155839Y-1841799D01*
X3157640Y-1840000D01*
X3161340Y-1838200D01*
X3168540Y-1838200D01*
X3172240Y-1840000D01*
X3174040Y-1841799D01*
X3175839Y-1845500D01*
X3175839Y-1849099D01*
X3174040Y-1852699D01*
X3170439Y-1858200D01*
X3152240Y-1876399D01*
X3177640Y-1876399D01*
X3004539Y-1838200D02*
G01*
X2990039Y-1876399D01*
X3004539Y-1838200D02*
G01*
X3019139Y-1876399D01*
X2995540Y-1863600D02*
G01*
X3013639Y-1863600D01*
X3031139Y-1845500D02*
G01*
X3034740Y-1843600D01*
X3040240Y-1838200D01*
X3040240Y-1876399D01*
X3052240Y-1845500D02*
G01*
X3055839Y-1843600D01*
X3061340Y-1838200D01*
X3061340Y-1876399D01*
X2894539Y-1838200D02*
G01*
X2880039Y-1876399D01*
X2894539Y-1838200D02*
G01*
X2909139Y-1876399D01*
X2885540Y-1863600D02*
G01*
X2903639Y-1863600D01*
X2921139Y-1845500D02*
G01*
X2924740Y-1843600D01*
X2930240Y-1838200D01*
X2930240Y-1876399D01*
X2953140Y-1838200D02*
G01*
X2947640Y-1840000D01*
X2944040Y-1845500D01*
X2942240Y-1854499D01*
X2942240Y-1860000D01*
X2944040Y-1869099D01*
X2947640Y-1874499D01*
X2953140Y-1876399D01*
X2956740Y-1876399D01*
X2962240Y-1874499D01*
X2965839Y-1869099D01*
X2967640Y-1860000D01*
X2967640Y-1854499D01*
X2965839Y-1845500D01*
X2962240Y-1840000D01*
X2956740Y-1838200D01*
X2953140Y-1838200D01*
X2794539Y-1838200D02*
G01*
X2780039Y-1876399D01*
X2794539Y-1838200D02*
G01*
X2809139Y-1876399D01*
X2785540Y-1863600D02*
G01*
X2803639Y-1863600D01*
X2844740Y-1850900D02*
G01*
X2842939Y-1856399D01*
X2839340Y-1860000D01*
X2833840Y-1861799D01*
X2832039Y-1861799D01*
X2826540Y-1860000D01*
X2822939Y-1856399D01*
X2821139Y-1850900D01*
X2821139Y-1849099D01*
X2822939Y-1843600D01*
X2826540Y-1840000D01*
X2832039Y-1838200D01*
X2833840Y-1838200D01*
X2839340Y-1840000D01*
X2842939Y-1843600D01*
X2844740Y-1850900D01*
X2844740Y-1860000D01*
X2842939Y-1869099D01*
X2839340Y-1874499D01*
X2833840Y-1876399D01*
X2830240Y-1876399D01*
X2824740Y-1874499D01*
X2822939Y-1870900D01*
X2694539Y-1838200D02*
G01*
X2680039Y-1876399D01*
X2694539Y-1838200D02*
G01*
X2709139Y-1876399D01*
X2685540Y-1863600D02*
G01*
X2703639Y-1863600D01*
X2730240Y-1838200D02*
G01*
X2724740Y-1840000D01*
X2722939Y-1843600D01*
X2722939Y-1847300D01*
X2724740Y-1850900D01*
X2728440Y-1852699D01*
X2735640Y-1854499D01*
X2741139Y-1856399D01*
X2744740Y-1860000D01*
X2746540Y-1863600D01*
X2746540Y-1869099D01*
X2744740Y-1872699D01*
X2742939Y-1874499D01*
X2737539Y-1876399D01*
X2730240Y-1876399D01*
X2724740Y-1874499D01*
X2722939Y-1872699D01*
X2721139Y-1869099D01*
X2721139Y-1863600D01*
X2722939Y-1860000D01*
X2726540Y-1856399D01*
X2732039Y-1854499D01*
X2739340Y-1852699D01*
X2742939Y-1850900D01*
X2744740Y-1847300D01*
X2744740Y-1843600D01*
X2742939Y-1840000D01*
X2737539Y-1838200D01*
X2730240Y-1838200D01*
X2514539Y-1838200D02*
G01*
X2500039Y-1876399D01*
X2514539Y-1838200D02*
G01*
X2529139Y-1876399D01*
X2505540Y-1863600D02*
G01*
X2523639Y-1863600D01*
X2566540Y-1838200D02*
G01*
X2548440Y-1876399D01*
X2541139Y-1838200D02*
G01*
X2566540Y-1838200D01*
X2414600Y-1839600D02*
G01*
X2400000Y-1877800D01*
X2414600Y-1839600D02*
G01*
X2429099Y-1877800D01*
X2405500Y-1865100D02*
G01*
X2423699Y-1865100D01*
X2462899Y-1845100D02*
G01*
X2461099Y-1841500D01*
X2455699Y-1839600D01*
X2451999Y-1839600D01*
X2446599Y-1841500D01*
X2442899Y-1846900D01*
X2441099Y-1855999D01*
X2441099Y-1865100D01*
X2442899Y-1872399D01*
X2446599Y-1875999D01*
X2451999Y-1877800D01*
X2453900Y-1877800D01*
X2459300Y-1875999D01*
X2462899Y-1872399D01*
X2464799Y-1866900D01*
X2464799Y-1865100D01*
X2462899Y-1859600D01*
X2459300Y-1855999D01*
X2453900Y-1854200D01*
X2451999Y-1854200D01*
X2446599Y-1855999D01*
X2442899Y-1859600D01*
X2441099Y-1865100D01*
X2314539Y-1838200D02*
G01*
X2300039Y-1876399D01*
X2314539Y-1838200D02*
G01*
X2329139Y-1876399D01*
X2305540Y-1863600D02*
G01*
X2323639Y-1863600D01*
X2362939Y-1838200D02*
G01*
X2344740Y-1838200D01*
X2342939Y-1854499D01*
X2344740Y-1852699D01*
X2350240Y-1850900D01*
X2355640Y-1850900D01*
X2361139Y-1852699D01*
X2364740Y-1856399D01*
X2366540Y-1861799D01*
X2366540Y-1865500D01*
X2364740Y-1870900D01*
X2361139Y-1874499D01*
X2355640Y-1876399D01*
X2350240Y-1876399D01*
X2344740Y-1874499D01*
X2342939Y-1872699D01*
X2341139Y-1869099D01*
X2214539Y-1838200D02*
G01*
X2200039Y-1876399D01*
X2214539Y-1838200D02*
G01*
X2229139Y-1876399D01*
X2205540Y-1863600D02*
G01*
X2223639Y-1863600D01*
X2259340Y-1838200D02*
G01*
X2241139Y-1863600D01*
X2268440Y-1863600D01*
X2259340Y-1838200D02*
G01*
X2259340Y-1876399D01*
X2114539Y-1838200D02*
G01*
X2100039Y-1876399D01*
X2114539Y-1838200D02*
G01*
X2129139Y-1876399D01*
X2105540Y-1863600D02*
G01*
X2123639Y-1863600D01*
X2144740Y-1838200D02*
G01*
X2164740Y-1838200D01*
X2153840Y-1852699D01*
X2159340Y-1852699D01*
X2162939Y-1854499D01*
X2164740Y-1856399D01*
X2166540Y-1861799D01*
X2166540Y-1865500D01*
X2164740Y-1870900D01*
X2161139Y-1874499D01*
X2155640Y-1876399D01*
X2150240Y-1876399D01*
X2144740Y-1874499D01*
X2142939Y-1872699D01*
X2141139Y-1869099D01*
X2014539Y-1838200D02*
G01*
X2000039Y-1876399D01*
X2014539Y-1838200D02*
G01*
X2029139Y-1876399D01*
X2005540Y-1863600D02*
G01*
X2023639Y-1863600D01*
X2042939Y-1847300D02*
G01*
X2042939Y-1845500D01*
X2044740Y-1841799D01*
X2046540Y-1840000D01*
X2050240Y-1838200D01*
X2057539Y-1838200D01*
X2061139Y-1840000D01*
X2062939Y-1841799D01*
X2064740Y-1845500D01*
X2064740Y-1849099D01*
X2062939Y-1852699D01*
X2059340Y-1858200D01*
X2041139Y-1876399D01*
X2066540Y-1876399D01*
X1914539Y-1838200D02*
G01*
X1900039Y-1876399D01*
X1914539Y-1838200D02*
G01*
X1929139Y-1876399D01*
X1905540Y-1863600D02*
G01*
X1923639Y-1863600D01*
X1941139Y-1845500D02*
G01*
X1944740Y-1843600D01*
X1950240Y-1838200D01*
X1950240Y-1876399D01*
X1804539Y-1838200D02*
G01*
X1790039Y-1876399D01*
X1804539Y-1838200D02*
G01*
X1819139Y-1876399D01*
X1795540Y-1863600D02*
G01*
X1813639Y-1863600D01*
X1842039Y-1838200D02*
G01*
X1836540Y-1840000D01*
X1832939Y-1845500D01*
X1831139Y-1854499D01*
X1831139Y-1860000D01*
X1832939Y-1869099D01*
X1836540Y-1874499D01*
X1842039Y-1876399D01*
X1845640Y-1876399D01*
X1851139Y-1874499D01*
X1854740Y-1869099D01*
X1856540Y-1860000D01*
X1856540Y-1854499D01*
X1854740Y-1845500D01*
X1851139Y-1840000D01*
X1845640Y-1838200D01*
X1842039Y-1838200D01*
X3723440Y-1644299D02*
G01*
X3705240Y-1644299D01*
X3703440Y-1660599D01*
X3705240Y-1658800D01*
X3710739Y-1656999D01*
X3716139Y-1656999D01*
X3721639Y-1658800D01*
X3725240Y-1662500D01*
X3727139Y-1667899D01*
X3727139Y-1671599D01*
X3725240Y-1676999D01*
X3721639Y-1680599D01*
X3716139Y-1682500D01*
X3710739Y-1682500D01*
X3705240Y-1680599D01*
X3703440Y-1678800D01*
X3701639Y-1675199D01*
X3742740Y-1644299D02*
G01*
X3762740Y-1644299D01*
X3751840Y-1658800D01*
X3757240Y-1658800D01*
X3760940Y-1660599D01*
X3762740Y-1662500D01*
X3764539Y-1667899D01*
X3764539Y-1671599D01*
X3762740Y-1676999D01*
X3759139Y-1680599D01*
X3753639Y-1682500D01*
X3748140Y-1682500D01*
X3742740Y-1680599D01*
X3740940Y-1678800D01*
X3739139Y-1675199D01*
X3726840Y-1557199D02*
G01*
X3708639Y-1557199D01*
X3706840Y-1573499D01*
X3708639Y-1571700D01*
X3714139Y-1569899D01*
X3719539Y-1569899D01*
X3725039Y-1571700D01*
X3728639Y-1575399D01*
X3730540Y-1580799D01*
X3730540Y-1584499D01*
X3728639Y-1589899D01*
X3725039Y-1593499D01*
X3719539Y-1595399D01*
X3714139Y-1595399D01*
X3708639Y-1593499D01*
X3706840Y-1591700D01*
X3705039Y-1588099D01*
X3742539Y-1564499D02*
G01*
X3746139Y-1562600D01*
X3751540Y-1557199D01*
X3751540Y-1595399D01*
X3723239Y-1457199D02*
G01*
X3705039Y-1482600D01*
X3732340Y-1482600D01*
X3723239Y-1457199D02*
G01*
X3723239Y-1495399D01*
X3767939Y-1469899D02*
G01*
X3766139Y-1475399D01*
X3762539Y-1479000D01*
X3757039Y-1480799D01*
X3755240Y-1480799D01*
X3749740Y-1479000D01*
X3746139Y-1475399D01*
X3744340Y-1469899D01*
X3744340Y-1468099D01*
X3746139Y-1462600D01*
X3749740Y-1459000D01*
X3755240Y-1457199D01*
X3757039Y-1457199D01*
X3762539Y-1459000D01*
X3766139Y-1462600D01*
X3767939Y-1469899D01*
X3767939Y-1479000D01*
X3766139Y-1488099D01*
X3762539Y-1493499D01*
X3757039Y-1495399D01*
X3753440Y-1495399D01*
X3747939Y-1493499D01*
X3746139Y-1489899D01*
X3723239Y-1357199D02*
G01*
X3705039Y-1382600D01*
X3732340Y-1382600D01*
X3723239Y-1357199D02*
G01*
X3723239Y-1395399D01*
X3769740Y-1357199D02*
G01*
X3751540Y-1395399D01*
X3744340Y-1357199D02*
G01*
X3769740Y-1357199D01*
X3723239Y-1257199D02*
G01*
X3705039Y-1282600D01*
X3732340Y-1282600D01*
X3723239Y-1257199D02*
G01*
X3723239Y-1295399D01*
X3766139Y-1257199D02*
G01*
X3747939Y-1257199D01*
X3746139Y-1273499D01*
X3747939Y-1271700D01*
X3753440Y-1269899D01*
X3758840Y-1269899D01*
X3764340Y-1271700D01*
X3767939Y-1275399D01*
X3769740Y-1280799D01*
X3769740Y-1284499D01*
X3767939Y-1289899D01*
X3764340Y-1293499D01*
X3758840Y-1295399D01*
X3753440Y-1295399D01*
X3747939Y-1293499D01*
X3746139Y-1291700D01*
X3744340Y-1288099D01*
X3723239Y-1157199D02*
G01*
X3705039Y-1182600D01*
X3732340Y-1182600D01*
X3723239Y-1157199D02*
G01*
X3723239Y-1195399D01*
X3747939Y-1157199D02*
G01*
X3767939Y-1157199D01*
X3757039Y-1171700D01*
X3762539Y-1171700D01*
X3766139Y-1173499D01*
X3767939Y-1175399D01*
X3769740Y-1180799D01*
X3769740Y-1184499D01*
X3767939Y-1189899D01*
X3764340Y-1193499D01*
X3758840Y-1195399D01*
X3753440Y-1195399D01*
X3747939Y-1193499D01*
X3746139Y-1191700D01*
X3744340Y-1188099D01*
X3723239Y-1057199D02*
G01*
X3705039Y-1082600D01*
X3732340Y-1082600D01*
X3723239Y-1057199D02*
G01*
X3723239Y-1095399D01*
X3744340Y-1064499D02*
G01*
X3747939Y-1062600D01*
X3753440Y-1057199D01*
X3753440Y-1095399D01*
X3708639Y-957199D02*
G01*
X3728639Y-957199D01*
X3717740Y-971700D01*
X3723239Y-971700D01*
X3726840Y-973499D01*
X3728639Y-975399D01*
X3730540Y-980799D01*
X3730540Y-984499D01*
X3728639Y-989899D01*
X3725039Y-993499D01*
X3719539Y-995399D01*
X3714139Y-995399D01*
X3708639Y-993499D01*
X3706840Y-991700D01*
X3705039Y-988099D01*
X3766139Y-969899D02*
G01*
X3764340Y-975399D01*
X3760640Y-979000D01*
X3755240Y-980799D01*
X3753440Y-980799D01*
X3747939Y-979000D01*
X3744340Y-975399D01*
X3742539Y-969899D01*
X3742539Y-968099D01*
X3744340Y-962600D01*
X3747939Y-959000D01*
X3753440Y-957199D01*
X3755240Y-957199D01*
X3760640Y-959000D01*
X3764340Y-962600D01*
X3766139Y-969899D01*
X3766139Y-979000D01*
X3764340Y-988099D01*
X3760640Y-993499D01*
X3755240Y-995399D01*
X3751540Y-995399D01*
X3746139Y-993499D01*
X3744340Y-989899D01*
X3708639Y-857199D02*
G01*
X3728639Y-857199D01*
X3717740Y-871700D01*
X3723239Y-871700D01*
X3726840Y-873499D01*
X3728639Y-875399D01*
X3730540Y-880799D01*
X3730540Y-884499D01*
X3728639Y-889899D01*
X3725039Y-893499D01*
X3719539Y-895399D01*
X3714139Y-895399D01*
X3708639Y-893499D01*
X3706840Y-891700D01*
X3705039Y-888099D01*
X3767939Y-857199D02*
G01*
X3749740Y-895399D01*
X3742539Y-857199D02*
G01*
X3767939Y-857199D01*
X3708639Y-757199D02*
G01*
X3728639Y-757199D01*
X3717740Y-771700D01*
X3723239Y-771700D01*
X3726840Y-773499D01*
X3728639Y-775399D01*
X3730540Y-780799D01*
X3730540Y-784499D01*
X3728639Y-789899D01*
X3725039Y-793499D01*
X3719539Y-795399D01*
X3714139Y-795399D01*
X3708639Y-793499D01*
X3706840Y-791700D01*
X3705039Y-788099D01*
X3764340Y-757199D02*
G01*
X3746139Y-757199D01*
X3744340Y-773499D01*
X3746139Y-771700D01*
X3751540Y-769899D01*
X3757039Y-769899D01*
X3762539Y-771700D01*
X3766139Y-775399D01*
X3767939Y-780799D01*
X3767939Y-784499D01*
X3766139Y-789899D01*
X3762539Y-793499D01*
X3757039Y-795399D01*
X3751540Y-795399D01*
X3746139Y-793499D01*
X3744340Y-791700D01*
X3742539Y-788099D01*
X3708639Y-657199D02*
G01*
X3728639Y-657199D01*
X3717740Y-671700D01*
X3723239Y-671700D01*
X3726840Y-673499D01*
X3728639Y-675399D01*
X3730540Y-680799D01*
X3730540Y-684499D01*
X3728639Y-689899D01*
X3725039Y-693499D01*
X3719539Y-695399D01*
X3714139Y-695399D01*
X3708639Y-693499D01*
X3706840Y-691700D01*
X3705039Y-688099D01*
X3746139Y-657199D02*
G01*
X3766139Y-657199D01*
X3755240Y-671700D01*
X3760640Y-671700D01*
X3764340Y-673499D01*
X3766139Y-675399D01*
X3767939Y-680799D01*
X3767939Y-684499D01*
X3766139Y-689899D01*
X3762539Y-693499D01*
X3757039Y-695399D01*
X3751540Y-695399D01*
X3746139Y-693499D01*
X3744340Y-691700D01*
X3742539Y-688099D01*
X3708639Y-557199D02*
G01*
X3728639Y-557199D01*
X3717740Y-571700D01*
X3723239Y-571700D01*
X3726840Y-573499D01*
X3728639Y-575399D01*
X3730540Y-580799D01*
X3730540Y-584499D01*
X3728639Y-589899D01*
X3725039Y-593499D01*
X3719539Y-595399D01*
X3714139Y-595399D01*
X3708639Y-593499D01*
X3706840Y-591700D01*
X3705039Y-588099D01*
X3742539Y-564499D02*
G01*
X3746139Y-562600D01*
X3751540Y-557199D01*
X3751540Y-595399D01*
X3384440Y-1645300D02*
G01*
X3366239Y-1645300D01*
X3364440Y-1661599D01*
X3366239Y-1659800D01*
X3371740Y-1658000D01*
X3377139Y-1658000D01*
X3382640Y-1659800D01*
X3386239Y-1663499D01*
X3388140Y-1668899D01*
X3388140Y-1672600D01*
X3386239Y-1678000D01*
X3382640Y-1681599D01*
X3377139Y-1683499D01*
X3371740Y-1683499D01*
X3366239Y-1681599D01*
X3364440Y-1679800D01*
X3362640Y-1676199D01*
X3401940Y-1654400D02*
G01*
X3401940Y-1652600D01*
X3403739Y-1648899D01*
X3405540Y-1647100D01*
X3409139Y-1645300D01*
X3416440Y-1645300D01*
X3420140Y-1647100D01*
X3421940Y-1648899D01*
X3423739Y-1652600D01*
X3423739Y-1656199D01*
X3421940Y-1659800D01*
X3418239Y-1665300D01*
X3400140Y-1683499D01*
X3425540Y-1683499D01*
X3379240Y-1458200D02*
G01*
X3361040Y-1483600D01*
X3388339Y-1483600D01*
X3379240Y-1458200D02*
G01*
X3379240Y-1496399D01*
X3409440Y-1458200D02*
G01*
X3403940Y-1460000D01*
X3402139Y-1463600D01*
X3402139Y-1467300D01*
X3403940Y-1470900D01*
X3407539Y-1472699D01*
X3414840Y-1474499D01*
X3420339Y-1476399D01*
X3423940Y-1480000D01*
X3425739Y-1483600D01*
X3425739Y-1489099D01*
X3423940Y-1492699D01*
X3422139Y-1494499D01*
X3416639Y-1496399D01*
X3409440Y-1496399D01*
X3403940Y-1494499D01*
X3402139Y-1492699D01*
X3400339Y-1489099D01*
X3400339Y-1483600D01*
X3402139Y-1480000D01*
X3405739Y-1476399D01*
X3411239Y-1474499D01*
X3418540Y-1472699D01*
X3422139Y-1470900D01*
X3423940Y-1467300D01*
X3423940Y-1463600D01*
X3422139Y-1460000D01*
X3416639Y-1458200D01*
X3409440Y-1458200D01*
X3382839Y-1558200D02*
G01*
X3364639Y-1558200D01*
X3362839Y-1574499D01*
X3364639Y-1572699D01*
X3370140Y-1570900D01*
X3375540Y-1570900D01*
X3381040Y-1572699D01*
X3384639Y-1576399D01*
X3386540Y-1581799D01*
X3386540Y-1585500D01*
X3384639Y-1590900D01*
X3381040Y-1594499D01*
X3375540Y-1596399D01*
X3370140Y-1596399D01*
X3364639Y-1594499D01*
X3362839Y-1592699D01*
X3361040Y-1589099D01*
X3409440Y-1558200D02*
G01*
X3403940Y-1560000D01*
X3400339Y-1565500D01*
X3398540Y-1574499D01*
X3398540Y-1580000D01*
X3400339Y-1589099D01*
X3403940Y-1594499D01*
X3409440Y-1596399D01*
X3413040Y-1596399D01*
X3418540Y-1594499D01*
X3422139Y-1589099D01*
X3423940Y-1580000D01*
X3423940Y-1574499D01*
X3422139Y-1565500D01*
X3418540Y-1560000D01*
X3413040Y-1558200D01*
X3409440Y-1558200D01*
X3379240Y-1358200D02*
G01*
X3361040Y-1383600D01*
X3388339Y-1383600D01*
X3379240Y-1358200D02*
G01*
X3379240Y-1396399D01*
X3422139Y-1363600D02*
G01*
X3420339Y-1360000D01*
X3414840Y-1358200D01*
X3411239Y-1358200D01*
X3405739Y-1360000D01*
X3402139Y-1365500D01*
X3400339Y-1374499D01*
X3400339Y-1383600D01*
X3402139Y-1390900D01*
X3405739Y-1394499D01*
X3411239Y-1396399D01*
X3413040Y-1396399D01*
X3418540Y-1394499D01*
X3422139Y-1390900D01*
X3423940Y-1385500D01*
X3423940Y-1383600D01*
X3422139Y-1378200D01*
X3418540Y-1374499D01*
X3413040Y-1372699D01*
X3411239Y-1372699D01*
X3405739Y-1374499D01*
X3402139Y-1378200D01*
X3400339Y-1383600D01*
X3379240Y-1258200D02*
G01*
X3361040Y-1283600D01*
X3388339Y-1283600D01*
X3379240Y-1258200D02*
G01*
X3379240Y-1296399D01*
X3418540Y-1258200D02*
G01*
X3400339Y-1283600D01*
X3427539Y-1283600D01*
X3418540Y-1258200D02*
G01*
X3418540Y-1296399D01*
X3379240Y-1158200D02*
G01*
X3361040Y-1183600D01*
X3388339Y-1183600D01*
X3379240Y-1158200D02*
G01*
X3379240Y-1196399D01*
X3402139Y-1167300D02*
G01*
X3402139Y-1165500D01*
X3403940Y-1161799D01*
X3405739Y-1160000D01*
X3409440Y-1158200D01*
X3416639Y-1158200D01*
X3420339Y-1160000D01*
X3422139Y-1161799D01*
X3423940Y-1165500D01*
X3423940Y-1169099D01*
X3422139Y-1172699D01*
X3418540Y-1178200D01*
X3400339Y-1196399D01*
X3425739Y-1196399D01*
X3379240Y-1058200D02*
G01*
X3361040Y-1083600D01*
X3388339Y-1083600D01*
X3379240Y-1058200D02*
G01*
X3379240Y-1096399D01*
X3411239Y-1058200D02*
G01*
X3405739Y-1060000D01*
X3402139Y-1065500D01*
X3400339Y-1074499D01*
X3400339Y-1080000D01*
X3402139Y-1089099D01*
X3405739Y-1094499D01*
X3411239Y-1096399D01*
X3414840Y-1096399D01*
X3420339Y-1094499D01*
X3423940Y-1089099D01*
X3425739Y-1080000D01*
X3425739Y-1074499D01*
X3423940Y-1065500D01*
X3420339Y-1060000D01*
X3414840Y-1058200D01*
X3411239Y-1058200D01*
X3364639Y-958200D02*
G01*
X3384639Y-958200D01*
X3373739Y-972699D01*
X3379240Y-972699D01*
X3382839Y-974499D01*
X3384639Y-976399D01*
X3386540Y-981799D01*
X3386540Y-985500D01*
X3384639Y-990900D01*
X3381040Y-994499D01*
X3375540Y-996399D01*
X3370140Y-996399D01*
X3364639Y-994499D01*
X3362839Y-992699D01*
X3361040Y-989099D01*
X3407539Y-958200D02*
G01*
X3402139Y-960000D01*
X3400339Y-963600D01*
X3400339Y-967300D01*
X3402139Y-970900D01*
X3405739Y-972699D01*
X3413040Y-974499D01*
X3418540Y-976399D01*
X3422139Y-980000D01*
X3423940Y-983600D01*
X3423940Y-989099D01*
X3422139Y-992699D01*
X3420339Y-994499D01*
X3414840Y-996399D01*
X3407539Y-996399D01*
X3402139Y-994499D01*
X3400339Y-992699D01*
X3398540Y-989099D01*
X3398540Y-983600D01*
X3400339Y-980000D01*
X3403940Y-976399D01*
X3409440Y-974499D01*
X3416639Y-972699D01*
X3420339Y-970900D01*
X3422139Y-967300D01*
X3422139Y-963600D01*
X3420339Y-960000D01*
X3414840Y-958200D01*
X3407539Y-958200D01*
X3364639Y-858200D02*
G01*
X3384639Y-858200D01*
X3373739Y-872699D01*
X3379240Y-872699D01*
X3382839Y-874499D01*
X3384639Y-876399D01*
X3386540Y-881799D01*
X3386540Y-885500D01*
X3384639Y-890900D01*
X3381040Y-894499D01*
X3375540Y-896399D01*
X3370140Y-896399D01*
X3364639Y-894499D01*
X3362839Y-892699D01*
X3361040Y-889099D01*
X3420339Y-863600D02*
G01*
X3418540Y-860000D01*
X3413040Y-858200D01*
X3409440Y-858200D01*
X3403940Y-860000D01*
X3400339Y-865500D01*
X3398540Y-874499D01*
X3398540Y-883600D01*
X3400339Y-890900D01*
X3403940Y-894499D01*
X3409440Y-896399D01*
X3411239Y-896399D01*
X3416639Y-894499D01*
X3420339Y-890900D01*
X3422139Y-885500D01*
X3422139Y-883600D01*
X3420339Y-878200D01*
X3416639Y-874499D01*
X3411239Y-872699D01*
X3409440Y-872699D01*
X3403940Y-874499D01*
X3400339Y-878200D01*
X3398540Y-883600D01*
X3364639Y-758200D02*
G01*
X3384639Y-758200D01*
X3373739Y-772699D01*
X3379240Y-772699D01*
X3382839Y-774499D01*
X3384639Y-776399D01*
X3386540Y-781799D01*
X3386540Y-785500D01*
X3384639Y-790900D01*
X3381040Y-794499D01*
X3375540Y-796399D01*
X3370140Y-796399D01*
X3364639Y-794499D01*
X3362839Y-792699D01*
X3361040Y-789099D01*
X3416639Y-758200D02*
G01*
X3398540Y-783600D01*
X3425739Y-783600D01*
X3416639Y-758200D02*
G01*
X3416639Y-796399D01*
X3364639Y-658200D02*
G01*
X3384639Y-658200D01*
X3373739Y-672699D01*
X3379240Y-672699D01*
X3382839Y-674499D01*
X3384639Y-676399D01*
X3386540Y-681799D01*
X3386540Y-685500D01*
X3384639Y-690900D01*
X3381040Y-694499D01*
X3375540Y-696399D01*
X3370140Y-696399D01*
X3364639Y-694499D01*
X3362839Y-692699D01*
X3361040Y-689099D01*
X3400339Y-667300D02*
G01*
X3400339Y-665500D01*
X3402139Y-661799D01*
X3403940Y-660000D01*
X3407539Y-658200D01*
X3414840Y-658200D01*
X3418540Y-660000D01*
X3420339Y-661799D01*
X3422139Y-665500D01*
X3422139Y-669099D01*
X3420339Y-672699D01*
X3416639Y-678200D01*
X3398540Y-696399D01*
X3423940Y-696399D01*
X3364639Y-558200D02*
G01*
X3384639Y-558200D01*
X3373739Y-572699D01*
X3379240Y-572699D01*
X3382839Y-574499D01*
X3384639Y-576399D01*
X3386540Y-581799D01*
X3386540Y-585500D01*
X3384639Y-590900D01*
X3381040Y-594499D01*
X3375540Y-596399D01*
X3370140Y-596399D01*
X3364639Y-594499D01*
X3362839Y-592699D01*
X3361040Y-589099D01*
X3409440Y-558200D02*
G01*
X3403940Y-560000D01*
X3400339Y-565500D01*
X3398540Y-574499D01*
X3398540Y-580000D01*
X3400339Y-589099D01*
X3403940Y-594499D01*
X3409440Y-596399D01*
X3413040Y-596399D01*
X3418540Y-594499D01*
X3422139Y-589099D01*
X3423940Y-580000D01*
X3423940Y-574499D01*
X3422139Y-565500D01*
X3418540Y-560000D01*
X3413040Y-558200D01*
X3409440Y-558200D01*
X3362839Y-467300D02*
G01*
X3362839Y-465500D01*
X3364639Y-461799D01*
X3366540Y-460000D01*
X3370140Y-458200D01*
X3377439Y-458200D01*
X3381040Y-460000D01*
X3382839Y-461799D01*
X3384639Y-465500D01*
X3384639Y-469099D01*
X3382839Y-472699D01*
X3379240Y-478200D01*
X3361040Y-496399D01*
X3386540Y-496399D01*
X3407539Y-458200D02*
G01*
X3402139Y-460000D01*
X3400339Y-463600D01*
X3400339Y-467300D01*
X3402139Y-470900D01*
X3405739Y-472699D01*
X3413040Y-474499D01*
X3418540Y-476399D01*
X3422139Y-480000D01*
X3423940Y-483600D01*
X3423940Y-489099D01*
X3422139Y-492699D01*
X3420339Y-494499D01*
X3414840Y-496399D01*
X3407539Y-496399D01*
X3402139Y-494499D01*
X3400339Y-492699D01*
X3398540Y-489099D01*
X3398540Y-483600D01*
X3400339Y-480000D01*
X3403940Y-476399D01*
X3409440Y-474499D01*
X3416639Y-472699D01*
X3420339Y-470900D01*
X3422139Y-467300D01*
X3422139Y-463600D01*
X3420339Y-460000D01*
X3414840Y-458200D01*
X3407539Y-458200D01*
X3362839Y-367300D02*
G01*
X3362839Y-365500D01*
X3364639Y-361799D01*
X3366540Y-360000D01*
X3370140Y-358200D01*
X3377439Y-358200D01*
X3381040Y-360000D01*
X3382839Y-361799D01*
X3384639Y-365500D01*
X3384639Y-369099D01*
X3382839Y-372699D01*
X3379240Y-378200D01*
X3361040Y-396399D01*
X3386540Y-396399D01*
X3420339Y-363600D02*
G01*
X3418540Y-360000D01*
X3413040Y-358200D01*
X3409440Y-358200D01*
X3403940Y-360000D01*
X3400339Y-365500D01*
X3398540Y-374499D01*
X3398540Y-383600D01*
X3400339Y-390900D01*
X3403940Y-394499D01*
X3409440Y-396399D01*
X3411239Y-396399D01*
X3416639Y-394499D01*
X3420339Y-390900D01*
X3422139Y-385500D01*
X3422139Y-383600D01*
X3420339Y-378200D01*
X3416639Y-374499D01*
X3411239Y-372699D01*
X3409440Y-372699D01*
X3403940Y-374499D01*
X3400339Y-378200D01*
X3398540Y-383600D01*
X3362839Y-267300D02*
G01*
X3362839Y-265500D01*
X3364639Y-261799D01*
X3366540Y-260000D01*
X3370140Y-258200D01*
X3377439Y-258200D01*
X3381040Y-260000D01*
X3382839Y-261799D01*
X3384639Y-265500D01*
X3384639Y-269099D01*
X3382839Y-272699D01*
X3379240Y-278200D01*
X3361040Y-296399D01*
X3386540Y-296399D01*
X3416639Y-258200D02*
G01*
X3398540Y-283600D01*
X3425739Y-283600D01*
X3416639Y-258200D02*
G01*
X3416639Y-296399D01*
X3362839Y-167300D02*
G01*
X3362839Y-165500D01*
X3364639Y-161799D01*
X3366540Y-160000D01*
X3370140Y-158200D01*
X3377439Y-158200D01*
X3381040Y-160000D01*
X3382839Y-161799D01*
X3384639Y-165500D01*
X3384639Y-169099D01*
X3382839Y-172699D01*
X3379240Y-178200D01*
X3361040Y-196399D01*
X3386540Y-196399D01*
X3400339Y-167300D02*
G01*
X3400339Y-165500D01*
X3402139Y-161799D01*
X3403940Y-160000D01*
X3407539Y-158200D01*
X3414840Y-158200D01*
X3418540Y-160000D01*
X3420339Y-161799D01*
X3422139Y-165500D01*
X3422139Y-169099D01*
X3420339Y-172699D01*
X3416639Y-178200D01*
X3398540Y-196399D01*
X3423940Y-196399D01*
X3211840Y-127300D02*
G01*
X3211840Y-125500D01*
X3213639Y-121799D01*
X3215540Y-120000D01*
X3219139Y-118200D01*
X3226440Y-118200D01*
X3230039Y-120000D01*
X3231840Y-121799D01*
X3233639Y-125500D01*
X3233639Y-129099D01*
X3231840Y-132699D01*
X3228239Y-138200D01*
X3210039Y-156399D01*
X3235540Y-156399D01*
X3247539Y-125500D02*
G01*
X3251139Y-123600D01*
X3256540Y-118200D01*
X3256540Y-156399D01*
X3101840Y-127300D02*
G01*
X3101840Y-125500D01*
X3103639Y-121799D01*
X3105540Y-120000D01*
X3109139Y-118200D01*
X3116440Y-118200D01*
X3120039Y-120000D01*
X3121840Y-121799D01*
X3123639Y-125500D01*
X3123639Y-129099D01*
X3121840Y-132699D01*
X3118239Y-138200D01*
X3100039Y-156399D01*
X3125540Y-156399D01*
X3148440Y-118200D02*
G01*
X3142939Y-120000D01*
X3139340Y-125500D01*
X3137539Y-134499D01*
X3137539Y-140000D01*
X3139340Y-149099D01*
X3142939Y-154499D01*
X3148440Y-156399D01*
X3152039Y-156399D01*
X3157539Y-154499D01*
X3161139Y-149099D01*
X3162939Y-140000D01*
X3162939Y-134499D01*
X3161139Y-125500D01*
X3157539Y-120000D01*
X3152039Y-118200D01*
X3148440Y-118200D01*
X3010039Y-125500D02*
G01*
X3013639Y-123600D01*
X3019139Y-118200D01*
X3019139Y-156399D01*
X3054740Y-130900D02*
G01*
X3052939Y-136399D01*
X3049340Y-140000D01*
X3043840Y-141799D01*
X3042039Y-141799D01*
X3036540Y-140000D01*
X3032939Y-136399D01*
X3031139Y-130900D01*
X3031139Y-129099D01*
X3032939Y-123600D01*
X3036540Y-120000D01*
X3042039Y-118200D01*
X3043840Y-118200D01*
X3049340Y-120000D01*
X3052939Y-123600D01*
X3054740Y-130900D01*
X3054740Y-140000D01*
X3052939Y-149099D01*
X3049340Y-154499D01*
X3043840Y-156399D01*
X3040240Y-156399D01*
X3034740Y-154499D01*
X3032939Y-150900D01*
X2910039Y-125500D02*
G01*
X2913639Y-123600D01*
X2919139Y-118200D01*
X2919139Y-156399D01*
X2940240Y-118200D02*
G01*
X2934740Y-120000D01*
X2932939Y-123600D01*
X2932939Y-127300D01*
X2934740Y-130900D01*
X2938440Y-132699D01*
X2945640Y-134499D01*
X2951139Y-136399D01*
X2954740Y-140000D01*
X2956540Y-143600D01*
X2956540Y-149099D01*
X2954740Y-152699D01*
X2952939Y-154499D01*
X2947539Y-156399D01*
X2940240Y-156399D01*
X2934740Y-154499D01*
X2932939Y-152699D01*
X2931139Y-149099D01*
X2931139Y-143600D01*
X2932939Y-140000D01*
X2936540Y-136399D01*
X2942039Y-134499D01*
X2949340Y-132699D01*
X2952939Y-130900D01*
X2954740Y-127300D01*
X2954740Y-123600D01*
X2952939Y-120000D01*
X2947539Y-118200D01*
X2940240Y-118200D01*
X2810039Y-125500D02*
G01*
X2813639Y-123600D01*
X2819139Y-118200D01*
X2819139Y-156399D01*
X2856540Y-118200D02*
G01*
X2838440Y-156399D01*
X2831139Y-118200D02*
G01*
X2856540Y-118200D01*
X2710039Y-125500D02*
G01*
X2713639Y-123600D01*
X2719139Y-118200D01*
X2719139Y-156399D01*
X2752939Y-123600D02*
G01*
X2751139Y-120000D01*
X2745640Y-118200D01*
X2742039Y-118200D01*
X2736540Y-120000D01*
X2732939Y-125500D01*
X2731139Y-134499D01*
X2731139Y-143600D01*
X2732939Y-150900D01*
X2736540Y-154499D01*
X2742039Y-156399D01*
X2743840Y-156399D01*
X2749340Y-154499D01*
X2752939Y-150900D01*
X2754740Y-145500D01*
X2754740Y-143600D01*
X2752939Y-138200D01*
X2749340Y-134499D01*
X2743840Y-132699D01*
X2742039Y-132699D01*
X2736540Y-134499D01*
X2732939Y-138200D01*
X2731139Y-143600D01*
X2610039Y-125500D02*
G01*
X2613639Y-123600D01*
X2619139Y-118200D01*
X2619139Y-156399D01*
X2652939Y-118200D02*
G01*
X2634740Y-118200D01*
X2632939Y-134499D01*
X2634740Y-132699D01*
X2640240Y-130900D01*
X2645640Y-130900D01*
X2651139Y-132699D01*
X2654740Y-136399D01*
X2656540Y-141799D01*
X2656540Y-145500D01*
X2654740Y-150900D01*
X2651139Y-154499D01*
X2645640Y-156399D01*
X2640240Y-156399D01*
X2634740Y-154499D01*
X2632939Y-152699D01*
X2631139Y-149099D01*
X2510039Y-125500D02*
G01*
X2513639Y-123600D01*
X2519139Y-118200D01*
X2519139Y-156399D01*
X2549340Y-118200D02*
G01*
X2531139Y-143600D01*
X2558440Y-143600D01*
X2549340Y-118200D02*
G01*
X2549340Y-156399D01*
X950039Y-135500D02*
G01*
X953639Y-133600D01*
X959139Y-128200D01*
X959139Y-166399D01*
X974740Y-128200D02*
G01*
X994740Y-128200D01*
X983840Y-142699D01*
X989340Y-142699D01*
X992939Y-144499D01*
X994740Y-146399D01*
X996540Y-151799D01*
X996540Y-155500D01*
X994740Y-160900D01*
X991139Y-164499D01*
X985640Y-166399D01*
X980240Y-166399D01*
X974740Y-164499D01*
X972939Y-162699D01*
X971139Y-159099D01*
X1050039Y-135500D02*
G01*
X1053639Y-133600D01*
X1059139Y-128200D01*
X1059139Y-166399D01*
X1072939Y-137300D02*
G01*
X1072939Y-135500D01*
X1074740Y-131799D01*
X1076540Y-130000D01*
X1080240Y-128200D01*
X1087539Y-128200D01*
X1091139Y-130000D01*
X1092939Y-131799D01*
X1094740Y-135500D01*
X1094740Y-139099D01*
X1092939Y-142699D01*
X1089340Y-148200D01*
X1071139Y-166399D01*
X1096540Y-166399D01*
X1160039Y-135500D02*
G01*
X1163639Y-133600D01*
X1169139Y-128200D01*
X1169139Y-166399D01*
X1181139Y-135500D02*
G01*
X1184740Y-133600D01*
X1190240Y-128200D01*
X1190240Y-166399D01*
X1250039Y-135500D02*
G01*
X1253639Y-133600D01*
X1259139Y-128200D01*
X1259139Y-166399D01*
X1282039Y-128200D02*
G01*
X1276540Y-130000D01*
X1272939Y-135500D01*
X1271139Y-144499D01*
X1271139Y-150000D01*
X1272939Y-159099D01*
X1276540Y-164499D01*
X1282039Y-166399D01*
X1285640Y-166399D01*
X1291139Y-164499D01*
X1294740Y-159099D01*
X1296540Y-150000D01*
X1296540Y-144499D01*
X1294740Y-135500D01*
X1291139Y-130000D01*
X1285640Y-128200D01*
X1282039Y-128200D01*
X1383639Y-140900D02*
G01*
X1381840Y-146399D01*
X1378239Y-150000D01*
X1372740Y-151799D01*
X1370940Y-151799D01*
X1365540Y-150000D01*
X1361840Y-146399D01*
X1360039Y-140900D01*
X1360039Y-139099D01*
X1361840Y-133600D01*
X1365540Y-130000D01*
X1370940Y-128200D01*
X1372740Y-128200D01*
X1378239Y-130000D01*
X1381840Y-133600D01*
X1383639Y-140900D01*
X1383639Y-150000D01*
X1381840Y-159099D01*
X1378239Y-164499D01*
X1372740Y-166399D01*
X1369139Y-166399D01*
X1363639Y-164499D01*
X1361840Y-160900D01*
X1469139Y-128200D02*
G01*
X1463639Y-130000D01*
X1461840Y-133600D01*
X1461840Y-137300D01*
X1463639Y-140900D01*
X1467340Y-142699D01*
X1474539Y-144499D01*
X1480039Y-146399D01*
X1483639Y-150000D01*
X1485540Y-153600D01*
X1485540Y-159099D01*
X1483639Y-162699D01*
X1481840Y-164499D01*
X1476440Y-166399D01*
X1469139Y-166399D01*
X1463639Y-164499D01*
X1461840Y-162699D01*
X1460039Y-159099D01*
X1460039Y-153600D01*
X1461840Y-150000D01*
X1465540Y-146399D01*
X1470940Y-144499D01*
X1478239Y-142699D01*
X1481840Y-140900D01*
X1483639Y-137300D01*
X1483639Y-133600D01*
X1481840Y-130000D01*
X1476440Y-128200D01*
X1469139Y-128200D01*
X1645540Y-128200D02*
G01*
X1627340Y-166399D01*
X1620039Y-128200D02*
G01*
X1645540Y-128200D01*
X1741840Y-133600D02*
G01*
X1740039Y-130000D01*
X1734539Y-128200D01*
X1730940Y-128200D01*
X1725540Y-130000D01*
X1721840Y-135500D01*
X1720039Y-144499D01*
X1720039Y-153600D01*
X1721840Y-160900D01*
X1725540Y-164499D01*
X1730940Y-166399D01*
X1732740Y-166399D01*
X1738239Y-164499D01*
X1741840Y-160900D01*
X1743639Y-155500D01*
X1743639Y-153600D01*
X1741840Y-148200D01*
X1738239Y-144499D01*
X1732740Y-142699D01*
X1730940Y-142699D01*
X1725540Y-144499D01*
X1721840Y-148200D01*
X1720039Y-153600D01*
X1841840Y-128200D02*
G01*
X1823639Y-128200D01*
X1821840Y-144499D01*
X1823639Y-142699D01*
X1829139Y-140900D01*
X1834539Y-140900D01*
X1840039Y-142699D01*
X1843639Y-146399D01*
X1845540Y-151799D01*
X1845540Y-155500D01*
X1843639Y-160900D01*
X1840039Y-164499D01*
X1834539Y-166399D01*
X1829139Y-166399D01*
X1823639Y-164499D01*
X1821840Y-162699D01*
X1820039Y-159099D01*
X1938239Y-128200D02*
G01*
X1920039Y-153600D01*
X1947340Y-153600D01*
X1938239Y-128200D02*
G01*
X1938239Y-166399D01*
X2033639Y-128200D02*
G01*
X2053639Y-128200D01*
X2042740Y-142699D01*
X2048239Y-142699D01*
X2051840Y-144499D01*
X2053639Y-146399D01*
X2055540Y-151799D01*
X2055540Y-155500D01*
X2053639Y-160900D01*
X2050039Y-164499D01*
X2044539Y-166399D01*
X2039139Y-166399D01*
X2033639Y-164499D01*
X2031840Y-162699D01*
X2030039Y-159099D01*
X2121840Y-137300D02*
G01*
X2121840Y-135500D01*
X2123639Y-131799D01*
X2125540Y-130000D01*
X2129139Y-128200D01*
X2136440Y-128200D01*
X2140039Y-130000D01*
X2141840Y-131799D01*
X2143639Y-135500D01*
X2143639Y-139099D01*
X2141840Y-142699D01*
X2138239Y-148200D01*
X2120039Y-166399D01*
X2145540Y-166399D01*
X2220039Y-135500D02*
G01*
X2223639Y-133600D01*
X2229139Y-128200D01*
X2229139Y-166399D01*
X2330940Y-128200D02*
G01*
X2325540Y-130000D01*
X2321840Y-135500D01*
X2320039Y-144499D01*
X2320039Y-150000D01*
X2321840Y-159099D01*
X2325540Y-164499D01*
X2330940Y-166399D01*
X2334539Y-166399D01*
X2340039Y-164499D01*
X2343639Y-159099D01*
X2345540Y-150000D01*
X2345540Y-144499D01*
X2343639Y-135500D01*
X2340039Y-130000D01*
X2334539Y-128200D01*
X2330940Y-128200D01*
X935100Y-1932199D02*
G01*
X922500Y-1932199D01*
X921300Y-1943499D01*
X922500Y-1942199D01*
X926300Y-1940999D01*
X930100Y-1940999D01*
X933800Y-1942199D01*
X936300Y-1944699D01*
X937600Y-1948499D01*
X937600Y-1950999D01*
X936300Y-1954699D01*
X933800Y-1957199D01*
X930100Y-1958499D01*
X926300Y-1958499D01*
X922500Y-1957199D01*
X921300Y-1955999D01*
X920000Y-1953499D01*
X945799Y-1932199D02*
G01*
X955900Y-1958499D01*
X965900Y-1932199D02*
G01*
X955900Y-1958499D01*
X1058400Y-440700D02*
G01*
X1058400Y-477500D01*
X1040000Y-459099D02*
G01*
X1076800Y-459099D01*
X1114899Y-434600D02*
G01*
X1094399Y-434600D01*
X1092399Y-453000D01*
X1094399Y-450999D01*
X1100500Y-448899D01*
X1106700Y-448899D01*
X1112799Y-450999D01*
X1116899Y-455000D01*
X1118999Y-461199D01*
X1118999Y-465300D01*
X1116899Y-471399D01*
X1112799Y-475500D01*
X1106700Y-477500D01*
X1100500Y-477500D01*
X1094399Y-475500D01*
X1092399Y-473499D01*
X1090299Y-469400D01*
X1132500Y-434600D02*
G01*
X1148800Y-477500D01*
X1165200Y-434600D02*
G01*
X1148800Y-477500D01*
X618400Y-440700D02*
G01*
X618400Y-477500D01*
X600000Y-459099D02*
G01*
X636799Y-459099D01*
X650300Y-442800D02*
G01*
X654400Y-440700D01*
X660500Y-434600D01*
X660500Y-477500D01*
X676100Y-444800D02*
G01*
X676100Y-442800D01*
X678099Y-438699D01*
X680199Y-436599D01*
X684299Y-434600D01*
X692500Y-434600D01*
X696500Y-436599D01*
X698600Y-438699D01*
X700599Y-442800D01*
X700599Y-446900D01*
X698600Y-450999D01*
X694499Y-457100D01*
X674000Y-477500D01*
X702699Y-477500D01*
X716199Y-434600D02*
G01*
X732500Y-477500D01*
X748899Y-434600D02*
G01*
X732500Y-477500D01*
X30000Y-1464600D02*
G01*
X30000Y-1507500D01*
X30000Y-1464600D02*
G01*
X48400Y-1464600D01*
X54499Y-1466599D01*
X56599Y-1468699D01*
X58600Y-1472800D01*
X58600Y-1478899D01*
X56599Y-1483000D01*
X54499Y-1485000D01*
X48400Y-1487100D01*
X30000Y-1487100D01*
X84400Y-1464600D02*
G01*
X80300Y-1466599D01*
X76199Y-1470700D01*
X74200Y-1474800D01*
X72100Y-1480999D01*
X72100Y-1491199D01*
X74200Y-1497300D01*
X76199Y-1501399D01*
X80300Y-1505500D01*
X84400Y-1507500D01*
X92600Y-1507500D01*
X96700Y-1505500D01*
X100799Y-1501399D01*
X102800Y-1497300D01*
X104899Y-1491199D01*
X104899Y-1480999D01*
X102800Y-1474800D01*
X100799Y-1470700D01*
X96700Y-1466599D01*
X92600Y-1464600D01*
X84400Y-1464600D01*
X118400Y-1464600D02*
G01*
X128600Y-1507500D01*
X138800Y-1464600D02*
G01*
X128600Y-1507500D01*
X138800Y-1464600D02*
G01*
X149000Y-1507500D01*
X159299Y-1464600D02*
G01*
X149000Y-1507500D01*
X172800Y-1464600D02*
G01*
X172800Y-1507500D01*
X172800Y-1464600D02*
G01*
X199400Y-1464600D01*
X172800Y-1485000D02*
G01*
X189099Y-1485000D01*
X172800Y-1507500D02*
G01*
X199400Y-1507500D01*
X212899Y-1464600D02*
G01*
X212899Y-1507500D01*
X212899Y-1464600D02*
G01*
X231300Y-1464600D01*
X237399Y-1466599D01*
X239499Y-1468699D01*
X241500Y-1472800D01*
X241500Y-1476900D01*
X239499Y-1480999D01*
X237399Y-1483000D01*
X231300Y-1485000D01*
X212899Y-1485000D01*
X227199Y-1485000D02*
G01*
X241500Y-1507500D01*
D29*
X239200Y-1120000D02*
G01*
X239200Y-1171500D01*
X255000Y-1345799D02*
G01*
X203400Y-1345799D01*
X229200Y-1320000D02*
G01*
X229200Y-1371500D01*
D32*
X470500Y25399D02*
G01*
X470500Y-7300D01*
X468400Y-13499D01*
X466399Y-15500D01*
X462300Y-17500D01*
X458200Y-17500D01*
X454099Y-15500D01*
X451999Y-13499D01*
X450000Y-7300D01*
X450000Y-3200D01*
X504400Y25399D02*
G01*
X484000Y-3200D01*
X514600Y-3200D01*
X504400Y25399D02*
G01*
X504400Y-17500D01*
X1530500Y45399D02*
G01*
X1530500Y12699D01*
X1528400Y6500D01*
X1526400Y4499D01*
X1522299Y2500D01*
X1518199Y2500D01*
X1514099Y4499D01*
X1511999Y6500D01*
X1510000Y12699D01*
X1510000Y16799D01*
X1568500Y45399D02*
G01*
X1548000Y45399D01*
X1546000Y26999D01*
X1548000Y29000D01*
X1554200Y31100D01*
X1560299Y31100D01*
X1566499Y29000D01*
X1570500Y25000D01*
X1572600Y18800D01*
X1572600Y14699D01*
X1570500Y8600D01*
X1566499Y4499D01*
X1560299Y2500D01*
X1554200Y2500D01*
X1548000Y4499D01*
X1546000Y6500D01*
X1543999Y10599D01*
X2420500Y35399D02*
G01*
X2420500Y2699D01*
X2418400Y-3499D01*
X2416400Y-5500D01*
X2412299Y-7500D01*
X2408199Y-7500D01*
X2404099Y-5500D01*
X2401999Y-3499D01*
X2400000Y2699D01*
X2400000Y6799D01*
X2458500Y29299D02*
G01*
X2456499Y33400D01*
X2450299Y35399D01*
X2446199Y35399D01*
X2440100Y33400D01*
X2436000Y27199D01*
X2433999Y16999D01*
X2433999Y6799D01*
X2436000Y-1399D01*
X2440100Y-5500D01*
X2446199Y-7500D01*
X2448299Y-7500D01*
X2454399Y-5500D01*
X2458500Y-1399D01*
X2460500Y4699D01*
X2460500Y6799D01*
X2458500Y12899D01*
X2454399Y16999D01*
X2448299Y19000D01*
X2446199Y19000D01*
X2440100Y16999D01*
X2436000Y12899D01*
X2433999Y6799D01*
X3920000Y85399D02*
G01*
X3920000Y42500D01*
X3920000Y85399D02*
G01*
X3938400Y85399D01*
X3944499Y83400D01*
X3946599Y81300D01*
X3948599Y77199D01*
X3948599Y73099D01*
X3946599Y69000D01*
X3944499Y66999D01*
X3938400Y65000D01*
X3920000Y65000D01*
X3934300Y65000D02*
G01*
X3948599Y42500D01*
X3986700Y85399D02*
G01*
X3966199Y85399D01*
X3964200Y66999D01*
X3966199Y69000D01*
X3972399Y71100D01*
X3978500Y71100D01*
X3984600Y69000D01*
X3988699Y65000D01*
X3990799Y58800D01*
X3990799Y54699D01*
X3988699Y48600D01*
X3984600Y44499D01*
X3978500Y42500D01*
X3972399Y42500D01*
X3966199Y44499D01*
X3964200Y46500D01*
X3962100Y50599D01*
D29*
X4785455Y-1677730D02*
G01*
X4781854Y-1670430D01*
X4774555Y-1663229D01*
X4767354Y-1659529D01*
X4756355Y-1655929D01*
X4738254Y-1655929D01*
X4727354Y-1659529D01*
X4720055Y-1663229D01*
X4712754Y-1670430D01*
X4709155Y-1677730D01*
X4709155Y-1692330D01*
X4712754Y-1699529D01*
X4720055Y-1706830D01*
X4727354Y-1710430D01*
X4738254Y-1714130D01*
X4756355Y-1714130D01*
X4767354Y-1710430D01*
X4774555Y-1706830D01*
X4781854Y-1699529D01*
X4785455Y-1692330D01*
X4785455Y-1677730D01*
X4785455Y-1738130D02*
G01*
X4730955Y-1738130D01*
X4720055Y-1741729D01*
X4712754Y-1749029D01*
X4709155Y-1759929D01*
X4709155Y-1767229D01*
X4712754Y-1778130D01*
X4720055Y-1785430D01*
X4730955Y-1789029D01*
X4785455Y-1789029D01*
X4785455Y-1838429D02*
G01*
X4709155Y-1838429D01*
X4785455Y-1813029D02*
G01*
X4785455Y-1863930D01*
X4774555Y-1920630D02*
G01*
X4709155Y-1920630D01*
X4741854Y-1887930D02*
G01*
X4741854Y-1953429D01*
X4011755Y-1677694D02*
G01*
X4008154Y-1670394D01*
X4000855Y-1663195D01*
X3993554Y-1659495D01*
X3982655Y-1655895D01*
X3964454Y-1655895D01*
X3953554Y-1659495D01*
X3946255Y-1663195D01*
X3939054Y-1670394D01*
X3935354Y-1677694D01*
X3935354Y-1692294D01*
X3939054Y-1699495D01*
X3946255Y-1706795D01*
X3953554Y-1710394D01*
X3964454Y-1714095D01*
X3982655Y-1714095D01*
X3993554Y-1710394D01*
X4000855Y-1706795D01*
X4008154Y-1699495D01*
X4011755Y-1692294D01*
X4011755Y-1677694D01*
X4011755Y-1738094D02*
G01*
X3957254Y-1738094D01*
X3946255Y-1741694D01*
X3939054Y-1748995D01*
X3935354Y-1759895D01*
X3935354Y-1767195D01*
X3939054Y-1778094D01*
X3946255Y-1785394D01*
X3957254Y-1788995D01*
X4011755Y-1788995D01*
X4011755Y-1838395D02*
G01*
X3935354Y-1838395D01*
X4011755Y-1812995D02*
G01*
X4011755Y-1863895D01*
X3968154Y-1887894D02*
G01*
X3968154Y-1953395D01*
X4022584Y-118350D02*
G01*
X3946184Y-118350D01*
X4022584Y-142350D02*
G01*
X3946184Y-142350D01*
X4022584Y-142350D02*
G01*
X3946184Y-193249D01*
X4022584Y-193249D02*
G01*
X3946184Y-193249D01*
X3978985Y-217249D02*
G01*
X3978985Y-282649D01*
X4781284Y-118384D02*
G01*
X4704984Y-118384D01*
X4781284Y-142384D02*
G01*
X4704984Y-142384D01*
X4781284Y-142384D02*
G01*
X4704984Y-193285D01*
X4781284Y-193285D02*
G01*
X4704984Y-193285D01*
X4770384Y-249985D02*
G01*
X4704984Y-249985D01*
X4737685Y-217285D02*
G01*
X4737685Y-282685D01*
D32*
X4940000Y85399D02*
G01*
X4940000Y42500D01*
X4940000Y85399D02*
G01*
X4958400Y85399D01*
X4964499Y83400D01*
X4966599Y81300D01*
X4968599Y77199D01*
X4968599Y73099D01*
X4966599Y69000D01*
X4964499Y66999D01*
X4958400Y65000D01*
X4940000Y65000D01*
X4954300Y65000D02*
G01*
X4968599Y42500D01*
X5006700Y79299D02*
G01*
X5004600Y83400D01*
X4998500Y85399D01*
X4994399Y85399D01*
X4988299Y83400D01*
X4984200Y77199D01*
X4982100Y66999D01*
X4982100Y56799D01*
X4984200Y48600D01*
X4988299Y44499D01*
X4994399Y42500D01*
X4996499Y42500D01*
X5002600Y44499D01*
X5006700Y48600D01*
X5008699Y54699D01*
X5008699Y56799D01*
X5006700Y62899D01*
X5002600Y66999D01*
X4996499Y69000D01*
X4994399Y69000D01*
X4988299Y66999D01*
X4984200Y62899D01*
X4982100Y56799D01*
X5022200Y60900D02*
G01*
X5058999Y60900D01*
X5072500Y77199D02*
G01*
X5076599Y79299D01*
X5082799Y85399D01*
X5082799Y42500D01*
X5133100Y93600D02*
G01*
X5096300Y28099D01*
X5148599Y75199D02*
G01*
X5148599Y77199D01*
X5150699Y81300D01*
X5152700Y83400D01*
X5156800Y85399D01*
X5165000Y85399D01*
X5169099Y83400D01*
X5171099Y81300D01*
X5173199Y77199D01*
X5173199Y73099D01*
X5171099Y69000D01*
X5166999Y62899D01*
X5146599Y42500D01*
X5175200Y42500D01*
D29*
X5795455Y-1677730D02*
G01*
X5791854Y-1670430D01*
X5784555Y-1663229D01*
X5777354Y-1659529D01*
X5766355Y-1655929D01*
X5748254Y-1655929D01*
X5737354Y-1659529D01*
X5730055Y-1663229D01*
X5722754Y-1670430D01*
X5719155Y-1677730D01*
X5719155Y-1692330D01*
X5722754Y-1699529D01*
X5730055Y-1706830D01*
X5737354Y-1710430D01*
X5748254Y-1714130D01*
X5766355Y-1714130D01*
X5777354Y-1710430D01*
X5784555Y-1706830D01*
X5791854Y-1699529D01*
X5795455Y-1692330D01*
X5795455Y-1677730D01*
X5795455Y-1738130D02*
G01*
X5740955Y-1738130D01*
X5730055Y-1741729D01*
X5722754Y-1749029D01*
X5719155Y-1759929D01*
X5719155Y-1767229D01*
X5722754Y-1778130D01*
X5730055Y-1785430D01*
X5740955Y-1789029D01*
X5795455Y-1789029D01*
X5795455Y-1838429D02*
G01*
X5719155Y-1838429D01*
X5795455Y-1813029D02*
G01*
X5795455Y-1863930D01*
X5784555Y-1920630D02*
G01*
X5719155Y-1920630D01*
X5751854Y-1887930D02*
G01*
X5751854Y-1953429D01*
X5021755Y-1677694D02*
G01*
X5018154Y-1670394D01*
X5010855Y-1663195D01*
X5003554Y-1659495D01*
X4992655Y-1655895D01*
X4974454Y-1655895D01*
X4963554Y-1659495D01*
X4956255Y-1663195D01*
X4949054Y-1670394D01*
X4945355Y-1677694D01*
X4945355Y-1692294D01*
X4949054Y-1699495D01*
X4956255Y-1706795D01*
X4963554Y-1710394D01*
X4974454Y-1714095D01*
X4992655Y-1714095D01*
X5003554Y-1710394D01*
X5010855Y-1706795D01*
X5018154Y-1699495D01*
X5021755Y-1692294D01*
X5021755Y-1677694D01*
X5021755Y-1738094D02*
G01*
X4967254Y-1738094D01*
X4956255Y-1741694D01*
X4949054Y-1748995D01*
X4945355Y-1759895D01*
X4945355Y-1767195D01*
X4949054Y-1778094D01*
X4956255Y-1785394D01*
X4967254Y-1788995D01*
X5021755Y-1788995D01*
X5021755Y-1838395D02*
G01*
X4945355Y-1838395D01*
X5021755Y-1812995D02*
G01*
X5021755Y-1863895D01*
X4978154Y-1887894D02*
G01*
X4978154Y-1953395D01*
X5032584Y-118350D02*
G01*
X4956184Y-118350D01*
X5032584Y-142350D02*
G01*
X4956184Y-142350D01*
X5032584Y-142350D02*
G01*
X4956184Y-193249D01*
X5032584Y-193249D02*
G01*
X4956184Y-193249D01*
X4988985Y-217249D02*
G01*
X4988985Y-282649D01*
X5791284Y-118384D02*
G01*
X5714984Y-118384D01*
X5791284Y-142384D02*
G01*
X5714984Y-142384D01*
X5791284Y-142384D02*
G01*
X5714984Y-193285D01*
X5791284Y-193285D02*
G01*
X5714984Y-193285D01*
X5780384Y-249985D02*
G01*
X5714984Y-249985D01*
X5747685Y-217285D02*
G01*
X5747685Y-282685D01*
D32*
X5950000Y95399D02*
G01*
X5950000Y52500D01*
X5950000Y95399D02*
G01*
X5968400Y95399D01*
X5974499Y93400D01*
X5976599Y91300D01*
X5978599Y87199D01*
X5978599Y83099D01*
X5976599Y79000D01*
X5974499Y76999D01*
X5968400Y75000D01*
X5950000Y75000D01*
X5964300Y75000D02*
G01*
X5978599Y52500D01*
X6016700Y89299D02*
G01*
X6014600Y93400D01*
X6008500Y95399D01*
X6004399Y95399D01*
X5998299Y93400D01*
X5994200Y87199D01*
X5992100Y76999D01*
X5992100Y66799D01*
X5994200Y58600D01*
X5998299Y54499D01*
X6004399Y52500D01*
X6006499Y52500D01*
X6012600Y54499D01*
X6016700Y58600D01*
X6018699Y64699D01*
X6018699Y66799D01*
X6016700Y72899D01*
X6012600Y76999D01*
X6006499Y79000D01*
X6004399Y79000D01*
X5998299Y76999D01*
X5994200Y72899D01*
X5992100Y66799D01*
X6032200Y70900D02*
G01*
X6068999Y70900D01*
X6086599Y95399D02*
G01*
X6109099Y95399D01*
X6096899Y79000D01*
X6103000Y79000D01*
X6107100Y76999D01*
X6109099Y75000D01*
X6111199Y68800D01*
X6111199Y64699D01*
X6109099Y58600D01*
X6105000Y54499D01*
X6098900Y52500D01*
X6092799Y52500D01*
X6086599Y54499D01*
X6084600Y56500D01*
X6082500Y60599D01*
X6161499Y103600D02*
G01*
X6124700Y38099D01*
X6195500Y95399D02*
G01*
X6175000Y66799D01*
X6205699Y66799D01*
X6195500Y95399D02*
G01*
X6195500Y52500D01*
D29*
X5954475Y-372300D02*
G01*
X5958074Y-379600D01*
X5965375Y-386799D01*
X5972574Y-390500D01*
X5983575Y-394099D01*
X6001674Y-394099D01*
X6012574Y-390500D01*
X6019875Y-386799D01*
X6027174Y-379600D01*
X6030775Y-372300D01*
X6030775Y-357699D01*
X6027174Y-350500D01*
X6019875Y-343200D01*
X6012574Y-339600D01*
X6001674Y-335900D01*
X5983575Y-335900D01*
X5972574Y-339600D01*
X5965375Y-343200D01*
X5958074Y-350500D01*
X5954475Y-357699D01*
X5954475Y-372300D01*
X5954475Y-311900D02*
G01*
X6008975Y-311900D01*
X6019875Y-308299D01*
X6027174Y-300999D01*
X6030775Y-290100D01*
X6030775Y-282800D01*
X6027174Y-271900D01*
X6019875Y-264600D01*
X6008975Y-260999D01*
X5954475Y-260999D01*
X5954475Y-211599D02*
G01*
X6030775Y-211599D01*
X5954475Y-236999D02*
G01*
X5954475Y-186100D01*
X5965375Y-129400D02*
G01*
X6030775Y-129400D01*
X5998074Y-162100D02*
G01*
X5998074Y-96599D01*
X6728175Y-372334D02*
G01*
X6731774Y-379634D01*
X6739075Y-386835D01*
X6746374Y-390534D01*
X6757275Y-394135D01*
X6775474Y-394135D01*
X6786374Y-390534D01*
X6793675Y-386835D01*
X6800874Y-379634D01*
X6804575Y-372334D01*
X6804575Y-357734D01*
X6800874Y-350534D01*
X6793675Y-343234D01*
X6786374Y-339634D01*
X6775474Y-335934D01*
X6757275Y-335934D01*
X6746374Y-339634D01*
X6739075Y-343234D01*
X6731774Y-350534D01*
X6728175Y-357734D01*
X6728175Y-372334D01*
X6728175Y-311934D02*
G01*
X6782674Y-311934D01*
X6793675Y-308335D01*
X6800874Y-301035D01*
X6804575Y-290135D01*
X6804575Y-282835D01*
X6800874Y-271934D01*
X6793675Y-264634D01*
X6782674Y-261035D01*
X6728175Y-261035D01*
X6728175Y-211635D02*
G01*
X6804575Y-211635D01*
X6728175Y-237035D02*
G01*
X6728175Y-186134D01*
X6771774Y-162134D02*
G01*
X6771774Y-96635D01*
X6717344Y-1931680D02*
G01*
X6793744Y-1931680D01*
X6717344Y-1907680D02*
G01*
X6793744Y-1907680D01*
X6717344Y-1907680D02*
G01*
X6793744Y-1856779D01*
X6717344Y-1856779D02*
G01*
X6793744Y-1856779D01*
X6760945Y-1832779D02*
G01*
X6760945Y-1767379D01*
X5958644Y-1931644D02*
G01*
X6034944Y-1931644D01*
X5958644Y-1907645D02*
G01*
X6034944Y-1907645D01*
X5958644Y-1907645D02*
G01*
X6034944Y-1856745D01*
X5958644Y-1856745D02*
G01*
X6034944Y-1856745D01*
X5969544Y-1800045D02*
G01*
X6034944Y-1800045D01*
X6002245Y-1832745D02*
G01*
X6002245Y-1767345D01*
D32*
X2010699Y-944800D02*
G01*
X2008599Y-940700D01*
X2004499Y-936599D01*
X2000500Y-934600D01*
X1992299Y-934600D01*
X1988199Y-936599D01*
X1984099Y-940700D01*
X1981999Y-944800D01*
X1980000Y-950999D01*
X1980000Y-961199D01*
X1981999Y-967300D01*
X1984099Y-971399D01*
X1988199Y-975500D01*
X1992299Y-977500D01*
X2000500Y-977500D01*
X2004499Y-975500D01*
X2008599Y-971399D01*
X2010699Y-967300D01*
X2024200Y-942800D02*
G01*
X2028299Y-940700D01*
X2034399Y-934600D01*
X2034399Y-977500D01*
X2051999Y-934600D02*
G01*
X2074499Y-934600D01*
X2062200Y-950999D01*
X2068400Y-950999D01*
X2072500Y-953000D01*
X2074499Y-955000D01*
X2076499Y-961199D01*
X2076499Y-965300D01*
X2074499Y-971399D01*
X2070399Y-975500D01*
X2064300Y-977500D01*
X2058100Y-977500D01*
X2051999Y-975500D01*
X2050000Y-973499D01*
X2047899Y-969400D01*
X2010699Y-754800D02*
G01*
X2008599Y-750700D01*
X2004499Y-746599D01*
X2000500Y-744600D01*
X1992299Y-744600D01*
X1988199Y-746599D01*
X1984099Y-750700D01*
X1981999Y-754800D01*
X1980000Y-760999D01*
X1980000Y-771199D01*
X1981999Y-777300D01*
X1984099Y-781399D01*
X1988199Y-785500D01*
X1992299Y-787500D01*
X2000500Y-787500D01*
X2004499Y-785500D01*
X2008599Y-781399D01*
X2010699Y-777300D01*
X2024200Y-752800D02*
G01*
X2028299Y-750700D01*
X2034399Y-744600D01*
X2034399Y-787500D01*
X2068400Y-744600D02*
G01*
X2047899Y-773200D01*
X2078599Y-773200D01*
X2068400Y-744600D02*
G01*
X2068400Y-787500D01*
X1800000Y-1324600D02*
G01*
X1800000Y-1367500D01*
X1800000Y-1324600D02*
G01*
X1826599Y-1324600D01*
X1800000Y-1345000D02*
G01*
X1816400Y-1345000D01*
X1800000Y-1367500D02*
G01*
X1826599Y-1367500D01*
X1840100Y-1332800D02*
G01*
X1844200Y-1330700D01*
X1850299Y-1324600D01*
X1850299Y-1367500D01*
X1920000Y-1208200D02*
G01*
X1925500Y-1205500D01*
X1933599Y-1197300D01*
X1933599Y-1254499D01*
X2022700Y-1210900D02*
G01*
X2022700Y-1208200D01*
X2025500Y-1202699D01*
X2028199Y-1200000D01*
X2033599Y-1197300D01*
X2044499Y-1197300D01*
X2050000Y-1200000D01*
X2052700Y-1202699D01*
X2055500Y-1208200D01*
X2055500Y-1213600D01*
X2052700Y-1219099D01*
X2047299Y-1227300D01*
X2020000Y-1254499D01*
X2058199Y-1254499D01*
X2125500Y-1197300D02*
G01*
X2155500Y-1197300D01*
X2139099Y-1219099D01*
X2147299Y-1219099D01*
X2152700Y-1221799D01*
X2155500Y-1224499D01*
X2158199Y-1232699D01*
X2158199Y-1238200D01*
X2155500Y-1246399D01*
X2150000Y-1251799D01*
X2141800Y-1254499D01*
X2133599Y-1254499D01*
X2125500Y-1251799D01*
X2122700Y-1249099D01*
X2120000Y-1243600D01*
X1770000Y-504600D02*
G01*
X1770000Y-547500D01*
X1770000Y-504600D02*
G01*
X1796599Y-504600D01*
X1770000Y-525000D02*
G01*
X1786400Y-525000D01*
X1770000Y-547500D02*
G01*
X1796599Y-547500D01*
X1812100Y-514800D02*
G01*
X1812100Y-512800D01*
X1814200Y-508699D01*
X1816199Y-506599D01*
X1820299Y-504600D01*
X1828500Y-504600D01*
X1832600Y-506599D01*
X1834600Y-508699D01*
X1836700Y-512800D01*
X1836700Y-516900D01*
X1834600Y-520999D01*
X1830500Y-527100D01*
X1810100Y-547500D01*
X1838699Y-547500D01*
X1910000Y-618200D02*
G01*
X1915500Y-615500D01*
X1923599Y-607300D01*
X1923599Y-664499D01*
X2012700Y-620900D02*
G01*
X2012700Y-618200D01*
X2015500Y-612699D01*
X2018199Y-610000D01*
X2023599Y-607300D01*
X2034499Y-607300D01*
X2040000Y-610000D01*
X2042700Y-612699D01*
X2045500Y-618200D01*
X2045500Y-623600D01*
X2042700Y-629099D01*
X2037299Y-637300D01*
X2010000Y-664499D01*
X2048199Y-664499D01*
X2115500Y-607300D02*
G01*
X2145500Y-607300D01*
X2129099Y-629099D01*
X2137299Y-629099D01*
X2142700Y-631799D01*
X2145500Y-634499D01*
X2148199Y-642699D01*
X2148199Y-648200D01*
X2145500Y-656399D01*
X2140000Y-661799D01*
X2131800Y-664499D01*
X2123599Y-664499D01*
X2115500Y-661799D01*
X2112700Y-659099D01*
X2110000Y-653600D01*
X3060000Y-424600D02*
G01*
X3060000Y-467500D01*
X3073500Y-424600D02*
G01*
X3073500Y-467500D01*
X3073500Y-424600D02*
G01*
X3089899Y-467500D01*
X3106199Y-424600D02*
G01*
X3089899Y-467500D01*
X3106199Y-424600D02*
G01*
X3106199Y-467500D01*
X3119700Y-424600D02*
G01*
X3119700Y-455300D01*
X3121800Y-461399D01*
X3125900Y-465500D01*
X3131999Y-467500D01*
X3136099Y-467500D01*
X3142200Y-465500D01*
X3146300Y-461399D01*
X3148400Y-455300D01*
X3148400Y-424600D01*
X810699Y-444800D02*
G01*
X808599Y-440700D01*
X804499Y-436599D01*
X800500Y-434600D01*
X792299Y-434600D01*
X788199Y-436599D01*
X784099Y-440700D01*
X781999Y-444800D01*
X780000Y-450999D01*
X780000Y-461199D01*
X781999Y-467300D01*
X784099Y-471399D01*
X788199Y-475500D01*
X792299Y-477500D01*
X800500Y-477500D01*
X804499Y-475500D01*
X808599Y-471399D01*
X810699Y-467300D01*
X810699Y-461199D01*
X800500Y-461199D02*
G01*
X810699Y-461199D01*
X824200Y-434600D02*
G01*
X824200Y-477500D01*
X824200Y-434600D02*
G01*
X852799Y-477500D01*
X852799Y-434600D02*
G01*
X852799Y-477500D01*
X866300Y-434600D02*
G01*
X866300Y-477500D01*
X866300Y-434600D02*
G01*
X880600Y-434600D01*
X886800Y-436599D01*
X890900Y-440700D01*
X892899Y-444800D01*
X895000Y-450999D01*
X895000Y-461199D01*
X892899Y-467300D01*
X890900Y-471399D01*
X886800Y-475500D01*
X880600Y-477500D01*
X866300Y-477500D01*
X908500Y-442800D02*
G01*
X912500Y-440700D01*
X918699Y-434600D01*
X918699Y-477500D01*
X1210699Y-444800D02*
G01*
X1208599Y-440700D01*
X1204499Y-436599D01*
X1200500Y-434600D01*
X1192299Y-434600D01*
X1188199Y-436599D01*
X1184099Y-440700D01*
X1181999Y-444800D01*
X1180000Y-450999D01*
X1180000Y-461199D01*
X1181999Y-467300D01*
X1184099Y-471399D01*
X1188199Y-475500D01*
X1192299Y-477500D01*
X1200500Y-477500D01*
X1204499Y-475500D01*
X1208599Y-471399D01*
X1210699Y-467300D01*
X1210699Y-461199D01*
X1200500Y-461199D02*
G01*
X1210699Y-461199D01*
X1224200Y-434600D02*
G01*
X1224200Y-477500D01*
X1224200Y-434600D02*
G01*
X1252799Y-477500D01*
X1252799Y-434600D02*
G01*
X1252799Y-477500D01*
X1266300Y-434600D02*
G01*
X1266300Y-477500D01*
X1266300Y-434600D02*
G01*
X1280600Y-434600D01*
X1286800Y-436599D01*
X1290900Y-440700D01*
X1292899Y-444800D01*
X1295000Y-450999D01*
X1295000Y-461199D01*
X1292899Y-467300D01*
X1290900Y-471399D01*
X1286800Y-475500D01*
X1280600Y-477500D01*
X1266300Y-477500D01*
X1310500Y-444800D02*
G01*
X1310500Y-442800D01*
X1312500Y-438699D01*
X1314600Y-436599D01*
X1318699Y-434600D01*
X1326899Y-434600D01*
X1331000Y-436599D01*
X1333000Y-438699D01*
X1335000Y-442800D01*
X1335000Y-446900D01*
X1333000Y-450999D01*
X1328900Y-457100D01*
X1308500Y-477500D01*
X1337100Y-477500D01*
X820500Y-2004600D02*
G01*
X820500Y-2037300D01*
X818400Y-2043499D01*
X816400Y-2045500D01*
X812299Y-2047500D01*
X808199Y-2047500D01*
X804099Y-2045500D01*
X801999Y-2043499D01*
X800000Y-2037300D01*
X800000Y-2033200D01*
X833999Y-2012800D02*
G01*
X838000Y-2010700D01*
X844200Y-2004600D01*
X844200Y-2047500D01*
X1720500Y-2004600D02*
G01*
X1720500Y-2037300D01*
X1718400Y-2043499D01*
X1716400Y-2045500D01*
X1712299Y-2047500D01*
X1708199Y-2047500D01*
X1704099Y-2045500D01*
X1701999Y-2043499D01*
X1700000Y-2037300D01*
X1700000Y-2033200D01*
X1736000Y-2014800D02*
G01*
X1736000Y-2012800D01*
X1738000Y-2008699D01*
X1740100Y-2006599D01*
X1744200Y-2004600D01*
X1752399Y-2004600D01*
X1756499Y-2006599D01*
X1758500Y-2008699D01*
X1760500Y-2012800D01*
X1760500Y-2016900D01*
X1758500Y-2020999D01*
X1754399Y-2027100D01*
X1733999Y-2047500D01*
X1762600Y-2047500D01*
X2620500Y-2004589D02*
G01*
X2620500Y-2037289D01*
X2618400Y-2043490D01*
X2616400Y-2045489D01*
X2612299Y-2047590D01*
X2608199Y-2047590D01*
X2604099Y-2045489D01*
X2601999Y-2043490D01*
X2600000Y-2037289D01*
X2600000Y-2033189D01*
X2638000Y-2004589D02*
G01*
X2660500Y-2004589D01*
X2648299Y-2020990D01*
X2654399Y-2020990D01*
X2658500Y-2022989D01*
X2660500Y-2025090D01*
X2662600Y-2031190D01*
X2662600Y-2035290D01*
X2660500Y-2041390D01*
X2656499Y-2045489D01*
X2650299Y-2047590D01*
X2644200Y-2047590D01*
X2638000Y-2045489D01*
X2636000Y-2043490D01*
X2633999Y-2039389D01*
X5768599Y-2610700D02*
G01*
X5764499Y-2606599D01*
X5758400Y-2604600D01*
X5750200Y-2604600D01*
X5744099Y-2606599D01*
X5740000Y-2610700D01*
X5740000Y-2614800D01*
X5741999Y-2618899D01*
X5744099Y-2620999D01*
X5748199Y-2623000D01*
X5760500Y-2627100D01*
X5764499Y-2629099D01*
X5766599Y-2631199D01*
X5768599Y-2635300D01*
X5768599Y-2641399D01*
X5764499Y-2645500D01*
X5758400Y-2647500D01*
X5750200Y-2647500D01*
X5744099Y-2645500D01*
X5740000Y-2641399D01*
X5782100Y-2612800D02*
G01*
X5786199Y-2610700D01*
X5792399Y-2604600D01*
X5792399Y-2647500D01*
X5860000Y-2498200D02*
G01*
X5865500Y-2495500D01*
X5873599Y-2487300D01*
X5873599Y-2544499D01*
X5962700Y-2500900D02*
G01*
X5962700Y-2498200D01*
X5965500Y-2492700D01*
X5968199Y-2490000D01*
X5973599Y-2487300D01*
X5984499Y-2487300D01*
X5990000Y-2490000D01*
X5992700Y-2492700D01*
X5995500Y-2498200D01*
X5995500Y-2503600D01*
X5992700Y-2509099D01*
X5987299Y-2517300D01*
X5960000Y-2544499D01*
X5998199Y-2544499D01*
X6065500Y-2487300D02*
G01*
X6095500Y-2487300D01*
X6079099Y-2509099D01*
X6087299Y-2509099D01*
X6092700Y-2511799D01*
X6095500Y-2514499D01*
X6098199Y-2522700D01*
X6098199Y-2528200D01*
X6095500Y-2536399D01*
X6090000Y-2541799D01*
X6081800Y-2544499D01*
X6073599Y-2544499D01*
X6065500Y-2541799D01*
X6062700Y-2539099D01*
X6060000Y-2533600D01*
X6348599Y-2610700D02*
G01*
X6344499Y-2606599D01*
X6338400Y-2604600D01*
X6330200Y-2604600D01*
X6324099Y-2606599D01*
X6320000Y-2610700D01*
X6320000Y-2614800D01*
X6321999Y-2618899D01*
X6324099Y-2620999D01*
X6328199Y-2623000D01*
X6340500Y-2627100D01*
X6344499Y-2629099D01*
X6346599Y-2631199D01*
X6348599Y-2635300D01*
X6348599Y-2641399D01*
X6344499Y-2645500D01*
X6338400Y-2647500D01*
X6330200Y-2647500D01*
X6324099Y-2645500D01*
X6320000Y-2641399D01*
X6364200Y-2614800D02*
G01*
X6364200Y-2612800D01*
X6366199Y-2608699D01*
X6368299Y-2606599D01*
X6372399Y-2604600D01*
X6380500Y-2604600D01*
X6384600Y-2606599D01*
X6386700Y-2608699D01*
X6388699Y-2612800D01*
X6388699Y-2616900D01*
X6386700Y-2620999D01*
X6382600Y-2627100D01*
X6362100Y-2647500D01*
X6390799Y-2647500D01*
X6460000Y-2498200D02*
G01*
X6465500Y-2495500D01*
X6473599Y-2487300D01*
X6473599Y-2544499D01*
X6562700Y-2500900D02*
G01*
X6562700Y-2498200D01*
X6565500Y-2492700D01*
X6568199Y-2490000D01*
X6573599Y-2487300D01*
X6584499Y-2487300D01*
X6590000Y-2490000D01*
X6592700Y-2492700D01*
X6595500Y-2498200D01*
X6595500Y-2503600D01*
X6592700Y-2509099D01*
X6587299Y-2517300D01*
X6560000Y-2544499D01*
X6598199Y-2544499D01*
X6665500Y-2487300D02*
G01*
X6695500Y-2487300D01*
X6679099Y-2509099D01*
X6687299Y-2509099D01*
X6692700Y-2511799D01*
X6695500Y-2514499D01*
X6698199Y-2522700D01*
X6698199Y-2528200D01*
X6695500Y-2536399D01*
X6690000Y-2541799D01*
X6681800Y-2544499D01*
X6673599Y-2544499D01*
X6665500Y-2541799D01*
X6662700Y-2539099D01*
X6660000Y-2533600D01*
X5758599Y619299D02*
G01*
X5754499Y623400D01*
X5748400Y625399D01*
X5740200Y625399D01*
X5734099Y623400D01*
X5730000Y619299D01*
X5730000Y615199D01*
X5731999Y611100D01*
X5734099Y609000D01*
X5738199Y606999D01*
X5750500Y602899D01*
X5754499Y600900D01*
X5756599Y598800D01*
X5758599Y594699D01*
X5758599Y588600D01*
X5754499Y584499D01*
X5748400Y582500D01*
X5740200Y582500D01*
X5734099Y584499D01*
X5730000Y588600D01*
X5776199Y625399D02*
G01*
X5798699Y625399D01*
X5786499Y609000D01*
X5792600Y609000D01*
X5796700Y606999D01*
X5798699Y605000D01*
X5800799Y598800D01*
X5800799Y594699D01*
X5798699Y588600D01*
X5794600Y584499D01*
X5788500Y582500D01*
X5782399Y582500D01*
X5776199Y584499D01*
X5774200Y586500D01*
X5772100Y590599D01*
X5860000Y731799D02*
G01*
X5865500Y734499D01*
X5873599Y742699D01*
X5873599Y685500D01*
X5962700Y729099D02*
G01*
X5962700Y731799D01*
X5965500Y737300D01*
X5968199Y740000D01*
X5973599Y742699D01*
X5984499Y742699D01*
X5990000Y740000D01*
X5992700Y737300D01*
X5995500Y731799D01*
X5995500Y726399D01*
X5992700Y720900D01*
X5987299Y712699D01*
X5960000Y685500D01*
X5998199Y685500D01*
X6065500Y742699D02*
G01*
X6095500Y742699D01*
X6079099Y720900D01*
X6087299Y720900D01*
X6092700Y718200D01*
X6095500Y715500D01*
X6098199Y707300D01*
X6098199Y701799D01*
X6095500Y693600D01*
X6090000Y688200D01*
X6081800Y685500D01*
X6073599Y685500D01*
X6065500Y688200D01*
X6062700Y690900D01*
X6060000Y696399D01*
X6358599Y609299D02*
G01*
X6354499Y613400D01*
X6348400Y615399D01*
X6340200Y615399D01*
X6334099Y613400D01*
X6330000Y609299D01*
X6330000Y605199D01*
X6331999Y601100D01*
X6334099Y599000D01*
X6338199Y596999D01*
X6350500Y592899D01*
X6354499Y590900D01*
X6356599Y588800D01*
X6358599Y584699D01*
X6358599Y578600D01*
X6354499Y574499D01*
X6348400Y572500D01*
X6340200Y572500D01*
X6334099Y574499D01*
X6330000Y578600D01*
X6392600Y615399D02*
G01*
X6372100Y586799D01*
X6402799Y586799D01*
X6392600Y615399D02*
G01*
X6392600Y572500D01*
X6460000Y731799D02*
G01*
X6465500Y734499D01*
X6473599Y742699D01*
X6473599Y685500D01*
X6562700Y729099D02*
G01*
X6562700Y731799D01*
X6565500Y737300D01*
X6568199Y740000D01*
X6573599Y742699D01*
X6584499Y742699D01*
X6590000Y740000D01*
X6592700Y737300D01*
X6595500Y731799D01*
X6595500Y726399D01*
X6592700Y720900D01*
X6587299Y712699D01*
X6560000Y685500D01*
X6598199Y685500D01*
X6665500Y742699D02*
G01*
X6695500Y742699D01*
X6679099Y720900D01*
X6687299Y720900D01*
X6692700Y718200D01*
X6695500Y715500D01*
X6698199Y707300D01*
X6698199Y701799D01*
X6695500Y693600D01*
X6690000Y688200D01*
X6681800Y685500D01*
X6673599Y685500D01*
X6665500Y688200D01*
X6662700Y690900D01*
X6660000Y696399D01*
X280700Y-394800D02*
G01*
X278600Y-390700D01*
X274499Y-386599D01*
X270500Y-384600D01*
X262300Y-384600D01*
X258200Y-386599D01*
X254099Y-390700D01*
X251999Y-394800D01*
X250000Y-400999D01*
X250000Y-411199D01*
X251999Y-417300D01*
X254099Y-421399D01*
X258200Y-425500D01*
X262300Y-427500D01*
X270500Y-427500D01*
X274499Y-425500D01*
X278600Y-421399D01*
X280700Y-417300D01*
X294200Y-392800D02*
G01*
X298299Y-390700D01*
X304400Y-384600D01*
X304400Y-427500D01*
X5970699Y-2284800D02*
G01*
X5968599Y-2280700D01*
X5964499Y-2276599D01*
X5960500Y-2274600D01*
X5952299Y-2274600D01*
X5948199Y-2276599D01*
X5944099Y-2280700D01*
X5941999Y-2284800D01*
X5940000Y-2290999D01*
X5940000Y-2301199D01*
X5941999Y-2307300D01*
X5944099Y-2311399D01*
X5948199Y-2315500D01*
X5952299Y-2317500D01*
X5960500Y-2317500D01*
X5964499Y-2315500D01*
X5968599Y-2311399D01*
X5970699Y-2307300D01*
X5986199Y-2284800D02*
G01*
X5986199Y-2282800D01*
X5988299Y-2278699D01*
X5990299Y-2276599D01*
X5994399Y-2274600D01*
X6002600Y-2274600D01*
X6006700Y-2276599D01*
X6008699Y-2278699D01*
X6010799Y-2282800D01*
X6010799Y-2286900D01*
X6008699Y-2290999D01*
X6004600Y-2297100D01*
X5984200Y-2317500D01*
X6012799Y-2317500D01*
X6570699Y-2304800D02*
G01*
X6568599Y-2300700D01*
X6564499Y-2296599D01*
X6560500Y-2294600D01*
X6552299Y-2294600D01*
X6548199Y-2296599D01*
X6544099Y-2300700D01*
X6541999Y-2304800D01*
X6540000Y-2310999D01*
X6540000Y-2321199D01*
X6541999Y-2327300D01*
X6544099Y-2331399D01*
X6548199Y-2335500D01*
X6552299Y-2337500D01*
X6560500Y-2337500D01*
X6564499Y-2335500D01*
X6568599Y-2331399D01*
X6570699Y-2327300D01*
X6588299Y-2294600D02*
G01*
X6610799Y-2294600D01*
X6598500Y-2310999D01*
X6604600Y-2310999D01*
X6608699Y-2313000D01*
X6610799Y-2315000D01*
X6612799Y-2321199D01*
X6612799Y-2325300D01*
X6610799Y-2331399D01*
X6606700Y-2335500D01*
X6600500Y-2337500D01*
X6594399Y-2337500D01*
X6588299Y-2335500D01*
X6586199Y-2333499D01*
X6584200Y-2329400D01*
X5970699Y495199D02*
G01*
X5968599Y499299D01*
X5964499Y503400D01*
X5960500Y505399D01*
X5952299Y505399D01*
X5948199Y503400D01*
X5944099Y499299D01*
X5941999Y495199D01*
X5940000Y489000D01*
X5940000Y478800D01*
X5941999Y472699D01*
X5944099Y468600D01*
X5948199Y464499D01*
X5952299Y462500D01*
X5960500Y462500D01*
X5964499Y464499D01*
X5968599Y468600D01*
X5970699Y472699D01*
X6004600Y505399D02*
G01*
X5984200Y476799D01*
X6014899Y476799D01*
X6004600Y505399D02*
G01*
X6004600Y462500D01*
X6570699Y495199D02*
G01*
X6568599Y499299D01*
X6564499Y503400D01*
X6560500Y505399D01*
X6552299Y505399D01*
X6548199Y503400D01*
X6544099Y499299D01*
X6541999Y495199D01*
X6540000Y489000D01*
X6540000Y478800D01*
X6541999Y472699D01*
X6544099Y468600D01*
X6548199Y464499D01*
X6552299Y462500D01*
X6560500Y462500D01*
X6564499Y464499D01*
X6568599Y468600D01*
X6570699Y472699D01*
X6608699Y505399D02*
G01*
X6588299Y505399D01*
X6586199Y486999D01*
X6588299Y489000D01*
X6594399Y491100D01*
X6600500Y491100D01*
X6606700Y489000D01*
X6610799Y485000D01*
X6612799Y478800D01*
X6612799Y474699D01*
X6610799Y468600D01*
X6606700Y464499D01*
X6600500Y462500D01*
X6594399Y462500D01*
X6588299Y464499D01*
X6586199Y466500D01*
X6584200Y470599D01*
X5360699Y-1304800D02*
G01*
X5358599Y-1300700D01*
X5354499Y-1296599D01*
X5350500Y-1294600D01*
X5342299Y-1294600D01*
X5338199Y-1296599D01*
X5334099Y-1300700D01*
X5331999Y-1304800D01*
X5330000Y-1310999D01*
X5330000Y-1321199D01*
X5331999Y-1327300D01*
X5334099Y-1331399D01*
X5338199Y-1335500D01*
X5342299Y-1337500D01*
X5350500Y-1337500D01*
X5354499Y-1335500D01*
X5358599Y-1331399D01*
X5360699Y-1327300D01*
X5398699Y-1300700D02*
G01*
X5396700Y-1296599D01*
X5390500Y-1294600D01*
X5386499Y-1294600D01*
X5380299Y-1296599D01*
X5376199Y-1302800D01*
X5374200Y-1313000D01*
X5374200Y-1323200D01*
X5376199Y-1331399D01*
X5380299Y-1335500D01*
X5386499Y-1337500D01*
X5388500Y-1337500D01*
X5394600Y-1335500D01*
X5398699Y-1331399D01*
X5400799Y-1325300D01*
X5400799Y-1323200D01*
X5398699Y-1317100D01*
X5394600Y-1313000D01*
X5388500Y-1310999D01*
X5386499Y-1310999D01*
X5380299Y-1313000D01*
X5376199Y-1317100D01*
X5374200Y-1323200D01*
X5370699Y-1564800D02*
G01*
X5368599Y-1560700D01*
X5364499Y-1556599D01*
X5360500Y-1554600D01*
X5352299Y-1554600D01*
X5348199Y-1556599D01*
X5344099Y-1560700D01*
X5341999Y-1564800D01*
X5340000Y-1570999D01*
X5340000Y-1581199D01*
X5341999Y-1587300D01*
X5344099Y-1591399D01*
X5348199Y-1595500D01*
X5352299Y-1597500D01*
X5360500Y-1597500D01*
X5364499Y-1595500D01*
X5368599Y-1591399D01*
X5370699Y-1587300D01*
X5412799Y-1554600D02*
G01*
X5392399Y-1597500D01*
X5384200Y-1554600D02*
G01*
X5412799Y-1554600D01*
X6370699Y-1294800D02*
G01*
X6368599Y-1290700D01*
X6364499Y-1286599D01*
X6360500Y-1284600D01*
X6352299Y-1284600D01*
X6348199Y-1286599D01*
X6344099Y-1290700D01*
X6341999Y-1294800D01*
X6340000Y-1300999D01*
X6340000Y-1311199D01*
X6341999Y-1317300D01*
X6344099Y-1321399D01*
X6348199Y-1325500D01*
X6352299Y-1327500D01*
X6360500Y-1327500D01*
X6364499Y-1325500D01*
X6368599Y-1321399D01*
X6370699Y-1317300D01*
X6394399Y-1284600D02*
G01*
X6388299Y-1286599D01*
X6386199Y-1290700D01*
X6386199Y-1294800D01*
X6388299Y-1298899D01*
X6392399Y-1300999D01*
X6400500Y-1303000D01*
X6406700Y-1305000D01*
X6410799Y-1309099D01*
X6412799Y-1313200D01*
X6412799Y-1319400D01*
X6410799Y-1323499D01*
X6408699Y-1325500D01*
X6402600Y-1327500D01*
X6394399Y-1327500D01*
X6388299Y-1325500D01*
X6386199Y-1323499D01*
X6384200Y-1319400D01*
X6384200Y-1313200D01*
X6386199Y-1309099D01*
X6390299Y-1305000D01*
X6396499Y-1303000D01*
X6404600Y-1300999D01*
X6408699Y-1298899D01*
X6410799Y-1294800D01*
X6410799Y-1290700D01*
X6408699Y-1286599D01*
X6402600Y-1284600D01*
X6394399Y-1284600D01*
X6380699Y-1554800D02*
G01*
X6378599Y-1550700D01*
X6374499Y-1546599D01*
X6370500Y-1544600D01*
X6362299Y-1544600D01*
X6358199Y-1546599D01*
X6354099Y-1550700D01*
X6351999Y-1554800D01*
X6350000Y-1560999D01*
X6350000Y-1571199D01*
X6351999Y-1577300D01*
X6354099Y-1581399D01*
X6358199Y-1585500D01*
X6362299Y-1587500D01*
X6370500Y-1587500D01*
X6374499Y-1585500D01*
X6378599Y-1581399D01*
X6380699Y-1577300D01*
X6420799Y-1558899D02*
G01*
X6418699Y-1565000D01*
X6414600Y-1569099D01*
X6408500Y-1571199D01*
X6406499Y-1571199D01*
X6400299Y-1569099D01*
X6396199Y-1565000D01*
X6394200Y-1558899D01*
X6394200Y-1556900D01*
X6396199Y-1550700D01*
X6400299Y-1546599D01*
X6406499Y-1544600D01*
X6408500Y-1544600D01*
X6414600Y-1546599D01*
X6418699Y-1550700D01*
X6420799Y-1558899D01*
X6420799Y-1569099D01*
X6418699Y-1579400D01*
X6414600Y-1585500D01*
X6408500Y-1587500D01*
X6404399Y-1587500D01*
X6398299Y-1585500D01*
X6396199Y-1581399D01*
X5354200Y-1052699D02*
G01*
X5352100Y-1048600D01*
X5348000Y-1044499D01*
X5343999Y-1042500D01*
X5335799Y-1042500D01*
X5331700Y-1044499D01*
X5327600Y-1048600D01*
X5325500Y-1052699D01*
X5323500Y-1058899D01*
X5323500Y-1069099D01*
X5325500Y-1075199D01*
X5327600Y-1079299D01*
X5331700Y-1083400D01*
X5335799Y-1085399D01*
X5343999Y-1085399D01*
X5348000Y-1083400D01*
X5352100Y-1079299D01*
X5354200Y-1075199D01*
X5367700Y-1050700D02*
G01*
X5371800Y-1048600D01*
X5377900Y-1042500D01*
X5377900Y-1085399D01*
X5403699Y-1042500D02*
G01*
X5397500Y-1044499D01*
X5393500Y-1050700D01*
X5391400Y-1060900D01*
X5391400Y-1066999D01*
X5393500Y-1077300D01*
X5397500Y-1083400D01*
X5403699Y-1085399D01*
X5407799Y-1085399D01*
X5413900Y-1083400D01*
X5418000Y-1077300D01*
X5420000Y-1066999D01*
X5420000Y-1060900D01*
X5418000Y-1050700D01*
X5413900Y-1044499D01*
X5407799Y-1042500D01*
X5403699Y-1042500D01*
X4350699Y-1544800D02*
G01*
X4348599Y-1540700D01*
X4344499Y-1536599D01*
X4340500Y-1534600D01*
X4332299Y-1534600D01*
X4328199Y-1536599D01*
X4324099Y-1540700D01*
X4321999Y-1544800D01*
X4320000Y-1550999D01*
X4320000Y-1561199D01*
X4321999Y-1567300D01*
X4324099Y-1571399D01*
X4328199Y-1575500D01*
X4332299Y-1577500D01*
X4340500Y-1577500D01*
X4344499Y-1575500D01*
X4348599Y-1571399D01*
X4350699Y-1567300D01*
X4364200Y-1542800D02*
G01*
X4368299Y-1540700D01*
X4374399Y-1534600D01*
X4374399Y-1577500D01*
X4387900Y-1542800D02*
G01*
X4391999Y-1540700D01*
X4398100Y-1534600D01*
X4398100Y-1577500D01*
X6370699Y-1034800D02*
G01*
X6368599Y-1030700D01*
X6364499Y-1026599D01*
X6360500Y-1024600D01*
X6352299Y-1024600D01*
X6348199Y-1026599D01*
X6344099Y-1030700D01*
X6341999Y-1034800D01*
X6340000Y-1040999D01*
X6340000Y-1051199D01*
X6341999Y-1057300D01*
X6344099Y-1061399D01*
X6348199Y-1065500D01*
X6352299Y-1067500D01*
X6360500Y-1067500D01*
X6364499Y-1065500D01*
X6368599Y-1061399D01*
X6370699Y-1057300D01*
X6384200Y-1032800D02*
G01*
X6388299Y-1030700D01*
X6394399Y-1024600D01*
X6394399Y-1067500D01*
X6410000Y-1034800D02*
G01*
X6410000Y-1032800D01*
X6411999Y-1028699D01*
X6413999Y-1026599D01*
X6418100Y-1024600D01*
X6426300Y-1024600D01*
X6430400Y-1026599D01*
X6432500Y-1028699D01*
X6434499Y-1032800D01*
X6434499Y-1036900D01*
X6432500Y-1040999D01*
X6428400Y-1047100D01*
X6407900Y-1067500D01*
X6436499Y-1067500D01*
D27*
X5124489Y-2391178D02*
G01*
X4735510Y-2391178D01*
X5126849Y-2191577D02*
G01*
X4733152Y-2191577D01*
X5126849Y-2485666D02*
G01*
X4733152Y-2485666D01*
X5126849Y-2170709D02*
G01*
X4733152Y-2170709D01*
X4733152Y-2485666D02*
G01*
X4733152Y-2170709D01*
X5126849Y-2485666D02*
G01*
X5126849Y-2170709D01*
X4736297Y-2619531D02*
G01*
X5125276Y-2619531D01*
X4733939Y-2819130D02*
G01*
X5127640Y-2819130D01*
X4733939Y-2525041D02*
G01*
X5127640Y-2525041D01*
X4733939Y-2840000D02*
G01*
X5127640Y-2840000D01*
X5127640Y-2525041D02*
G01*
X5127640Y-2840000D01*
X4733939Y-2525041D02*
G01*
X4733939Y-2840000D01*
X3830000Y-2800599D02*
G01*
X3830000Y-2800599D01*
X3830000Y-2800599D01*
X3830000Y-2170700D01*
X5129200Y-2170700D01*
X5129200Y-2840000D01*
X3830000Y-2840000D01*
X3830000Y-2800599D01*
X3952049Y-2288820D02*
G01*
X4052049Y-2288820D01*
X4052049Y-2721889D01*
X3952049Y-2721889D01*
X3952049Y-2288820D01*
X3830000Y-2288820D02*
G01*
X3952839Y-2288820D01*
X3952839Y-2721889D01*
X3830000Y-2721889D01*
X3830000Y-2288820D01*
X3952049Y-2503380D02*
G01*
X4046540Y-2503380D01*
X4046540Y-2507319D01*
X3952049Y-2507319D01*
X3952049Y-2503380D01*
X3835510Y381177D02*
G01*
X4224489Y381177D01*
X3833150Y181577D02*
G01*
X4226848Y181577D01*
X3833150Y475666D02*
G01*
X4226848Y475666D01*
X3833150Y160709D02*
G01*
X4226848Y160709D01*
X4226848Y475666D02*
G01*
X4226848Y160709D01*
X3833150Y475666D02*
G01*
X3833150Y160709D01*
X4223702Y609531D02*
G01*
X3834723Y609531D01*
X4226061Y809130D02*
G01*
X3832359Y809130D01*
X4226061Y515041D02*
G01*
X3832359Y515041D01*
X4226061Y830000D02*
G01*
X3832359Y830000D01*
X3832359Y515041D02*
G01*
X3832359Y830000D01*
X4226061Y515041D02*
G01*
X4226061Y830000D01*
X5130000Y790599D02*
G01*
X5130000Y790599D01*
X5130000Y790599D01*
X5130000Y160700D01*
X3830799Y160700D01*
X3830799Y830000D01*
X5130000Y830000D01*
X5130000Y790599D01*
X5007950Y278820D02*
G01*
X4907950Y278820D01*
X4907950Y711889D01*
X5007950Y711889D01*
X5007950Y278820D01*
X5130000Y278820D02*
G01*
X5007160Y278820D01*
X5007160Y711889D01*
X5130000Y711889D01*
X5130000Y278820D01*
X5007950Y493380D02*
G01*
X4913459Y493380D01*
X4913459Y497319D01*
X5007950Y497319D01*
X5007950Y493380D01*
X980039Y-1925000D02*
G01*
X980039Y-1975000D01*
X1005039Y-2000000D02*
G01*
X980039Y-1975000D01*
X1005039Y-1900000D02*
G01*
X980039Y-1925000D01*
X1055039Y-1900000D02*
G01*
X1080039Y-1925000D01*
X1055039Y-1900000D02*
G01*
X1005039Y-1900000D01*
X1055039Y-2000000D02*
G01*
X1005039Y-2000000D01*
X1155039Y-2000000D02*
G01*
X1105039Y-2000000D01*
X1055039Y-2000000D02*
G01*
X1080039Y-1975000D01*
X1105039Y-1900000D02*
G01*
X1155039Y-1900000D01*
X1180039Y-1925000D02*
G01*
X1205039Y-1900000D01*
X1155039Y-1900000D02*
G01*
X1180039Y-1925000D01*
D28*
X3226040Y-493000D02*
G01*
X3330039Y-390000D01*
X3330039Y-390000D02*
G01*
X3330039Y-111999D01*
D27*
X1680039Y-1925000D02*
G01*
X1680039Y-1975000D01*
X1080039Y-1975000D02*
G01*
X1105039Y-2000000D01*
X1105039Y-1900000D02*
G01*
X1080039Y-1925000D01*
X1205039Y-2000000D02*
G01*
X1180039Y-1975000D01*
X1255039Y-2000000D02*
G01*
X1205039Y-2000000D01*
X1280039Y-1975000D02*
G01*
X1255039Y-2000000D01*
X1255039Y-1900000D02*
G01*
X1280039Y-1925000D01*
X1205039Y-1900000D02*
G01*
X1255039Y-1900000D01*
X1180039Y-1975000D02*
G01*
X1155039Y-2000000D01*
X1455039Y-2000000D02*
G01*
X1405039Y-2000000D01*
X1380039Y-1975000D02*
G01*
X1405039Y-2000000D01*
X1405039Y-1900000D02*
G01*
X1380039Y-1925000D01*
X1305039Y-2000000D02*
G01*
X1280039Y-1975000D01*
X1355039Y-2000000D02*
G01*
X1305039Y-2000000D01*
X1380039Y-1975000D02*
G01*
X1355039Y-2000000D01*
X1355039Y-1900000D02*
G01*
X1380039Y-1925000D01*
X1305039Y-1900000D02*
G01*
X1355039Y-1900000D01*
X1280039Y-1925000D02*
G01*
X1305039Y-1900000D01*
X1505039Y-2000000D02*
G01*
X1480039Y-1975000D01*
X1555039Y-2000000D02*
G01*
X1505039Y-2000000D01*
X1580039Y-1975000D02*
G01*
X1555039Y-2000000D01*
X1555039Y-1900000D02*
G01*
X1580039Y-1925000D01*
X1505039Y-1900000D02*
G01*
X1555039Y-1900000D01*
X1480039Y-1925000D02*
G01*
X1505039Y-1900000D01*
X1480039Y-1975000D02*
G01*
X1455039Y-2000000D01*
X1455039Y-1900000D02*
G01*
X1480039Y-1925000D01*
X1405039Y-1900000D02*
G01*
X1455039Y-1900000D01*
X1605039Y-2000000D02*
G01*
X1580039Y-1975000D01*
X1655039Y-2000000D02*
G01*
X1605039Y-2000000D01*
X1680039Y-1975000D02*
G01*
X1655039Y-2000000D01*
X1655039Y-1900000D02*
G01*
X1680039Y-1925000D01*
X1605039Y-1900000D02*
G01*
X1655039Y-1900000D01*
X1580039Y-1925000D02*
G01*
X1605039Y-1900000D01*
X2325039Y-250000D02*
G01*
X2305039Y-230000D01*
X2345039Y-230000D02*
G01*
X2325039Y-250000D01*
X2325039Y-200000D02*
G01*
X2325039Y-250000D01*
X2225039Y-200000D02*
G01*
X2245039Y-220000D01*
X2205039Y-220000D02*
G01*
X2225039Y-200000D01*
X2225039Y-250000D02*
G01*
X2225039Y-200000D01*
D28*
X3292042Y-1701001D02*
G01*
X3799039Y-1701001D01*
X3225039Y-1633998D02*
G01*
X3292042Y-1701001D01*
X3630039Y-1831999D02*
G01*
X3630039Y-1801999D01*
X3530039Y-1831999D02*
G01*
X3630039Y-1831999D01*
X3530039Y-1803000D02*
G01*
X3530039Y-1831999D01*
X3630039Y28000D02*
G01*
X3630039Y1999D01*
X3530039Y28000D02*
G01*
X3630039Y28000D01*
X3530039Y3000D02*
G01*
X3530039Y28000D01*
X3226040Y-493000D02*
G01*
X3226040Y-1600000D01*
D27*
X3655039Y-100000D02*
G01*
X3505039Y-100000D01*
X3505039Y0D02*
G01*
X3655039Y0D01*
X3680039Y-25000D02*
G01*
X3680039Y-75000D01*
X3480039Y-75000D02*
G01*
X3505039Y-100000D01*
X3505039Y0D02*
G01*
X3480039Y-25000D01*
X3480039Y-25000D02*
G01*
X3480039Y-75000D01*
X3680039Y-75000D02*
G01*
X3655039Y-100000D01*
X3655039Y0D02*
G01*
X3680039Y-25000D01*
X3655039Y-1800000D02*
G01*
X3505039Y-1800000D01*
X3505039Y-1700000D02*
G01*
X3655039Y-1700000D01*
X3680039Y-1725000D02*
G01*
X3680039Y-1775000D01*
X3480039Y-1775000D02*
G01*
X3505039Y-1800000D01*
X3505039Y-1700000D02*
G01*
X3480039Y-1725000D01*
X3480039Y-1725000D02*
G01*
X3480039Y-1775000D01*
X3680039Y-1775000D02*
G01*
X3655039Y-1800000D01*
X3655039Y-1700000D02*
G01*
X3680039Y-1725000D01*
X3680039Y-1675000D02*
G01*
X3680039Y-1625000D01*
X3680039Y-1575000D02*
G01*
X3680039Y-1525000D01*
X3680039Y-1475000D02*
G01*
X3680039Y-1425000D01*
X3680039Y-1375000D02*
G01*
X3680039Y-1325000D01*
X3680039Y-1275000D02*
G01*
X3680039Y-1225000D01*
X3680039Y-1175000D02*
G01*
X3680039Y-1125000D01*
X3680039Y-1075000D02*
G01*
X3680039Y-1025000D01*
X3680039Y-975000D02*
G01*
X3680039Y-925000D01*
X3505039Y-900000D02*
G01*
X3655039Y-900000D01*
X3505039Y-1000000D02*
G01*
X3655039Y-1000000D01*
X3505039Y-1100000D02*
G01*
X3655039Y-1100000D01*
X3505039Y-1200000D02*
G01*
X3655039Y-1200000D01*
X3505039Y-1300000D02*
G01*
X3655039Y-1300000D01*
X3505039Y-1400000D02*
G01*
X3655039Y-1400000D01*
X3505039Y-1500000D02*
G01*
X3655039Y-1500000D01*
X3505039Y-1600000D02*
G01*
X3655039Y-1600000D01*
X3655039Y-1100000D02*
G01*
X3680039Y-1075000D01*
X3655039Y-1000000D02*
G01*
X3680039Y-1025000D01*
X3655039Y-1000000D02*
G01*
X3680039Y-975000D01*
X3655039Y-900000D02*
G01*
X3680039Y-925000D01*
X3480039Y-925000D02*
G01*
X3505039Y-900000D01*
X3480039Y-975000D02*
G01*
X3480039Y-925000D01*
X3505039Y-1000000D02*
G01*
X3480039Y-975000D01*
X3480039Y-1025000D02*
G01*
X3505039Y-1000000D01*
X3480039Y-1075000D02*
G01*
X3480039Y-1025000D01*
X3505039Y-1100000D02*
G01*
X3480039Y-1075000D01*
X3480039Y-1125000D02*
G01*
X3505039Y-1100000D01*
X3480039Y-1175000D02*
G01*
X3480039Y-1125000D01*
X3505039Y-1200000D02*
G01*
X3480039Y-1175000D01*
X3480039Y-1225000D02*
G01*
X3505039Y-1200000D01*
X3480039Y-1275000D02*
G01*
X3480039Y-1225000D01*
X3505039Y-1300000D02*
G01*
X3480039Y-1275000D01*
X3480039Y-1325000D02*
G01*
X3505039Y-1300000D01*
X3480039Y-1375000D02*
G01*
X3480039Y-1325000D01*
X3505039Y-1400000D02*
G01*
X3480039Y-1375000D01*
X3480039Y-1425000D02*
G01*
X3505039Y-1400000D01*
X3480039Y-1475000D02*
G01*
X3480039Y-1425000D01*
X3505039Y-1500000D02*
G01*
X3480039Y-1475000D01*
X3480039Y-1525000D02*
G01*
X3505039Y-1500000D01*
X3480039Y-1575000D02*
G01*
X3480039Y-1525000D01*
X3505039Y-1600000D02*
G01*
X3480039Y-1575000D01*
X3480039Y-1625000D02*
G01*
X3505039Y-1600000D01*
X3480039Y-1675000D02*
G01*
X3480039Y-1625000D01*
X3505039Y-1700000D02*
G01*
X3480039Y-1675000D01*
X3680039Y-1125000D02*
G01*
X3655039Y-1100000D01*
X3655039Y-1200000D02*
G01*
X3680039Y-1175000D01*
X3680039Y-1225000D02*
G01*
X3655039Y-1200000D01*
X3655039Y-1300000D02*
G01*
X3680039Y-1275000D01*
X3680039Y-1325000D02*
G01*
X3655039Y-1300000D01*
X3655039Y-1400000D02*
G01*
X3680039Y-1375000D01*
X3680039Y-1425000D02*
G01*
X3655039Y-1400000D01*
X3655039Y-1500000D02*
G01*
X3680039Y-1475000D01*
X3680039Y-1525000D02*
G01*
X3655039Y-1500000D01*
X3655039Y-1600000D02*
G01*
X3680039Y-1575000D01*
X3680039Y-1625000D02*
G01*
X3655039Y-1600000D01*
X3655039Y-1700000D02*
G01*
X3680039Y-1675000D01*
X3680039Y-875000D02*
G01*
X3680039Y-825000D01*
X3680039Y-775000D02*
G01*
X3680039Y-725000D01*
X3680039Y-675000D02*
G01*
X3680039Y-625000D01*
X3680039Y-575000D02*
G01*
X3680039Y-525000D01*
X3680039Y-475000D02*
G01*
X3680039Y-425000D01*
X3680039Y-375000D02*
G01*
X3680039Y-325000D01*
X3680039Y-275000D02*
G01*
X3680039Y-225000D01*
X3680039Y-175000D02*
G01*
X3680039Y-125000D01*
X3505039Y-200000D02*
G01*
X3655039Y-200000D01*
X3505039Y-300000D02*
G01*
X3655039Y-300000D01*
X3505039Y-400000D02*
G01*
X3655039Y-400000D01*
X3505039Y-500000D02*
G01*
X3655039Y-500000D01*
X3505039Y-600000D02*
G01*
X3655039Y-600000D01*
X3505039Y-700000D02*
G01*
X3655039Y-700000D01*
X3505039Y-800000D02*
G01*
X3655039Y-800000D01*
X3655039Y-300000D02*
G01*
X3680039Y-275000D01*
X3655039Y-200000D02*
G01*
X3680039Y-225000D01*
X3655039Y-200000D02*
G01*
X3680039Y-175000D01*
X3655039Y-100000D02*
G01*
X3680039Y-125000D01*
X3480039Y-125000D02*
G01*
X3505039Y-100000D01*
X3480039Y-175000D02*
G01*
X3480039Y-125000D01*
X3505039Y-200000D02*
G01*
X3480039Y-175000D01*
X3480039Y-225000D02*
G01*
X3505039Y-200000D01*
X3480039Y-275000D02*
G01*
X3480039Y-225000D01*
X3505039Y-300000D02*
G01*
X3480039Y-275000D01*
X3480039Y-325000D02*
G01*
X3505039Y-300000D01*
X3480039Y-375000D02*
G01*
X3480039Y-325000D01*
X3505039Y-400000D02*
G01*
X3480039Y-375000D01*
X3480039Y-425000D02*
G01*
X3505039Y-400000D01*
X3480039Y-475000D02*
G01*
X3480039Y-425000D01*
X3505039Y-500000D02*
G01*
X3480039Y-475000D01*
X3480039Y-525000D02*
G01*
X3505039Y-500000D01*
X3480039Y-575000D02*
G01*
X3480039Y-525000D01*
X3505039Y-600000D02*
G01*
X3480039Y-575000D01*
X3480039Y-625000D02*
G01*
X3505039Y-600000D01*
X3480039Y-675000D02*
G01*
X3480039Y-625000D01*
X3505039Y-700000D02*
G01*
X3480039Y-675000D01*
X3480039Y-725000D02*
G01*
X3505039Y-700000D01*
X3480039Y-775000D02*
G01*
X3480039Y-725000D01*
X3505039Y-800000D02*
G01*
X3480039Y-775000D01*
X3480039Y-825000D02*
G01*
X3505039Y-800000D01*
X3480039Y-875000D02*
G01*
X3480039Y-825000D01*
X3505039Y-900000D02*
G01*
X3480039Y-875000D01*
X3680039Y-325000D02*
G01*
X3655039Y-300000D01*
X3655039Y-400000D02*
G01*
X3680039Y-375000D01*
X3680039Y-425000D02*
G01*
X3655039Y-400000D01*
X3655039Y-500000D02*
G01*
X3680039Y-475000D01*
X3680039Y-525000D02*
G01*
X3655039Y-500000D01*
X3655039Y-600000D02*
G01*
X3680039Y-575000D01*
X3680039Y-625000D02*
G01*
X3655039Y-600000D01*
X3655039Y-700000D02*
G01*
X3680039Y-675000D01*
X3680039Y-725000D02*
G01*
X3655039Y-700000D01*
X3655039Y-800000D02*
G01*
X3680039Y-775000D01*
X3680039Y-825000D02*
G01*
X3655039Y-800000D01*
X3655039Y-900000D02*
G01*
X3680039Y-875000D01*
X1495039Y-100000D02*
G01*
X1445039Y-100000D01*
X1420039Y-75000D02*
G01*
X1445039Y-100000D01*
X1445039Y0D02*
G01*
X1420039Y-25000D01*
X1520039Y-75000D02*
G01*
X1495039Y-100000D01*
X1520039Y-25000D02*
G01*
X1520039Y-75000D01*
X1495039Y0D02*
G01*
X1520039Y-25000D01*
X1445039Y0D02*
G01*
X1495039Y0D01*
X795039Y-100000D02*
G01*
X745039Y-100000D01*
X720039Y-75000D02*
G01*
X745039Y-100000D01*
X745039Y0D02*
G01*
X720039Y-25000D01*
X720039Y-25000D02*
G01*
X720039Y-75000D01*
X845039Y-100000D02*
G01*
X820039Y-75000D01*
X895039Y-100000D02*
G01*
X845039Y-100000D01*
X920039Y-75000D02*
G01*
X895039Y-100000D01*
X895039Y0D02*
G01*
X920039Y-25000D01*
X845039Y0D02*
G01*
X895039Y0D01*
X820039Y-25000D02*
G01*
X845039Y0D01*
X820039Y-75000D02*
G01*
X795039Y-100000D01*
X795039Y0D02*
G01*
X820039Y-25000D01*
X745039Y0D02*
G01*
X795039Y0D01*
X1095039Y-100000D02*
G01*
X1045039Y-100000D01*
X1020039Y-75000D02*
G01*
X1045039Y-100000D01*
X1045039Y0D02*
G01*
X1020039Y-25000D01*
X945039Y-100000D02*
G01*
X920039Y-75000D01*
X995039Y-100000D02*
G01*
X945039Y-100000D01*
X1020039Y-75000D02*
G01*
X995039Y-100000D01*
X995039Y0D02*
G01*
X1020039Y-25000D01*
X945039Y0D02*
G01*
X995039Y0D01*
X920039Y-25000D02*
G01*
X945039Y0D01*
X1145039Y-100000D02*
G01*
X1120039Y-75000D01*
X1195039Y-100000D02*
G01*
X1145039Y-100000D01*
X1220039Y-75000D02*
G01*
X1195039Y-100000D01*
X1195039Y0D02*
G01*
X1220039Y-25000D01*
X1145039Y0D02*
G01*
X1195039Y0D01*
X1120039Y-25000D02*
G01*
X1145039Y0D01*
X1120039Y-75000D02*
G01*
X1095039Y-100000D01*
X1095039Y0D02*
G01*
X1120039Y-25000D01*
X1045039Y0D02*
G01*
X1095039Y0D01*
X1395039Y-100000D02*
G01*
X1345039Y-100000D01*
X1320039Y-75000D02*
G01*
X1345039Y-100000D01*
X1345039Y0D02*
G01*
X1320039Y-25000D01*
X1245039Y-100000D02*
G01*
X1220039Y-75000D01*
X1295039Y-100000D02*
G01*
X1245039Y-100000D01*
X1320039Y-75000D02*
G01*
X1295039Y-100000D01*
X1295039Y0D02*
G01*
X1320039Y-25000D01*
X1245039Y0D02*
G01*
X1295039Y0D01*
X1220039Y-25000D02*
G01*
X1245039Y0D01*
X1420039Y-75000D02*
G01*
X1395039Y-100000D01*
X1395039Y0D02*
G01*
X1420039Y-25000D01*
X1345039Y0D02*
G01*
X1395039Y0D01*
X2355039Y-100000D02*
G01*
X2305039Y-100000D01*
X2280039Y-75000D02*
G01*
X2305039Y-100000D01*
X2305039Y0D02*
G01*
X2280039Y-25000D01*
X2380039Y-75000D02*
G01*
X2355039Y-100000D01*
X2380039Y-25000D02*
G01*
X2380039Y-75000D01*
X2355039Y0D02*
G01*
X2380039Y-25000D01*
X2305039Y0D02*
G01*
X2355039Y0D01*
X1655039Y-100000D02*
G01*
X1605039Y-100000D01*
X1580039Y-75000D02*
G01*
X1605039Y-100000D01*
X1605039Y0D02*
G01*
X1580039Y-25000D01*
X1580039Y-25000D02*
G01*
X1580039Y-75000D01*
X1705039Y-100000D02*
G01*
X1680039Y-75000D01*
X1755039Y-100000D02*
G01*
X1705039Y-100000D01*
X1780039Y-75000D02*
G01*
X1755039Y-100000D01*
X1755039Y0D02*
G01*
X1780039Y-25000D01*
X1705039Y0D02*
G01*
X1755039Y0D01*
X1680039Y-25000D02*
G01*
X1705039Y0D01*
X1680039Y-75000D02*
G01*
X1655039Y-100000D01*
X1655039Y0D02*
G01*
X1680039Y-25000D01*
X1605039Y0D02*
G01*
X1655039Y0D01*
X1955039Y-100000D02*
G01*
X1905039Y-100000D01*
X1880039Y-75000D02*
G01*
X1905039Y-100000D01*
X1905039Y0D02*
G01*
X1880039Y-25000D01*
X1805039Y-100000D02*
G01*
X1780039Y-75000D01*
X1855039Y-100000D02*
G01*
X1805039Y-100000D01*
X1880039Y-75000D02*
G01*
X1855039Y-100000D01*
X1855039Y0D02*
G01*
X1880039Y-25000D01*
X1805039Y0D02*
G01*
X1855039Y0D01*
X1780039Y-25000D02*
G01*
X1805039Y0D01*
X2005039Y-100000D02*
G01*
X1980039Y-75000D01*
X2055039Y-100000D02*
G01*
X2005039Y-100000D01*
X2080039Y-75000D02*
G01*
X2055039Y-100000D01*
X2055039Y0D02*
G01*
X2080039Y-25000D01*
X2005039Y0D02*
G01*
X2055039Y0D01*
X1980039Y-25000D02*
G01*
X2005039Y0D01*
X1980039Y-75000D02*
G01*
X1955039Y-100000D01*
X1955039Y0D02*
G01*
X1980039Y-25000D01*
X1905039Y0D02*
G01*
X1955039Y0D01*
X2255039Y-100000D02*
G01*
X2205039Y-100000D01*
X2180039Y-75000D02*
G01*
X2205039Y-100000D01*
X2205039Y0D02*
G01*
X2180039Y-25000D01*
X2105039Y-100000D02*
G01*
X2080039Y-75000D01*
X2155039Y-100000D02*
G01*
X2105039Y-100000D01*
X2180039Y-75000D02*
G01*
X2155039Y-100000D01*
X2155039Y0D02*
G01*
X2180039Y-25000D01*
X2105039Y0D02*
G01*
X2155039Y0D01*
X2080039Y-25000D02*
G01*
X2105039Y0D01*
X2280039Y-75000D02*
G01*
X2255039Y-100000D01*
X2255039Y0D02*
G01*
X2280039Y-25000D01*
X2205039Y0D02*
G01*
X2255039Y0D01*
X2555039Y-2000000D02*
G01*
X2505039Y-2000000D01*
X2480039Y-1975000D02*
G01*
X2505039Y-2000000D01*
X2505039Y-1900000D02*
G01*
X2480039Y-1925000D01*
X2580039Y-1975000D02*
G01*
X2555039Y-2000000D01*
X2580039Y-1925000D02*
G01*
X2580039Y-1975000D01*
X2555039Y-1900000D02*
G01*
X2580039Y-1925000D01*
X2505039Y-1900000D02*
G01*
X2555039Y-1900000D01*
X1855039Y-2000000D02*
G01*
X1805039Y-2000000D01*
X1780039Y-1975000D02*
G01*
X1805039Y-2000000D01*
X1805039Y-1900000D02*
G01*
X1780039Y-1925000D01*
X1780039Y-1925000D02*
G01*
X1780039Y-1975000D01*
X1905039Y-2000000D02*
G01*
X1880039Y-1975000D01*
X1955039Y-2000000D02*
G01*
X1905039Y-2000000D01*
X1980039Y-1975000D02*
G01*
X1955039Y-2000000D01*
X1955039Y-1900000D02*
G01*
X1980039Y-1925000D01*
X1905039Y-1900000D02*
G01*
X1955039Y-1900000D01*
X1880039Y-1925000D02*
G01*
X1905039Y-1900000D01*
X1880039Y-1975000D02*
G01*
X1855039Y-2000000D01*
X1855039Y-1900000D02*
G01*
X1880039Y-1925000D01*
X1805039Y-1900000D02*
G01*
X1855039Y-1900000D01*
X2155039Y-2000000D02*
G01*
X2105039Y-2000000D01*
X2080039Y-1975000D02*
G01*
X2105039Y-2000000D01*
X2105039Y-1900000D02*
G01*
X2080039Y-1925000D01*
X2005039Y-2000000D02*
G01*
X1980039Y-1975000D01*
X2055039Y-2000000D02*
G01*
X2005039Y-2000000D01*
X2080039Y-1975000D02*
G01*
X2055039Y-2000000D01*
X2055039Y-1900000D02*
G01*
X2080039Y-1925000D01*
X2005039Y-1900000D02*
G01*
X2055039Y-1900000D01*
X1980039Y-1925000D02*
G01*
X2005039Y-1900000D01*
X2205039Y-2000000D02*
G01*
X2180039Y-1975000D01*
X2255039Y-2000000D02*
G01*
X2205039Y-2000000D01*
X2280039Y-1975000D02*
G01*
X2255039Y-2000000D01*
X2255039Y-1900000D02*
G01*
X2280039Y-1925000D01*
X2205039Y-1900000D02*
G01*
X2255039Y-1900000D01*
X2180039Y-1925000D02*
G01*
X2205039Y-1900000D01*
X2180039Y-1975000D02*
G01*
X2155039Y-2000000D01*
X2155039Y-1900000D02*
G01*
X2180039Y-1925000D01*
X2105039Y-1900000D02*
G01*
X2155039Y-1900000D01*
X2455039Y-2000000D02*
G01*
X2405039Y-2000000D01*
X2380039Y-1975000D02*
G01*
X2405039Y-2000000D01*
X2405039Y-1900000D02*
G01*
X2380039Y-1925000D01*
X2305039Y-2000000D02*
G01*
X2280039Y-1975000D01*
X2355039Y-2000000D02*
G01*
X2305039Y-2000000D01*
X2380039Y-1975000D02*
G01*
X2355039Y-2000000D01*
X2355039Y-1900000D02*
G01*
X2380039Y-1925000D01*
X2305039Y-1900000D02*
G01*
X2355039Y-1900000D01*
X2280039Y-1925000D02*
G01*
X2305039Y-1900000D01*
X2480039Y-1975000D02*
G01*
X2455039Y-2000000D01*
X2455039Y-1900000D02*
G01*
X2480039Y-1925000D01*
X2405039Y-1900000D02*
G01*
X2455039Y-1900000D01*
X3255039Y-100000D02*
G01*
X3205039Y-100000D01*
X3180039Y-75000D02*
G01*
X3205039Y-100000D01*
X3205039Y0D02*
G01*
X3180039Y-25000D01*
X3280039Y-75000D02*
G01*
X3255039Y-100000D01*
X3280039Y-25000D02*
G01*
X3280039Y-75000D01*
X3255039Y0D02*
G01*
X3280039Y-25000D01*
X3205039Y0D02*
G01*
X3255039Y0D01*
X2555039Y-100000D02*
G01*
X2505039Y-100000D01*
X2480039Y-75000D02*
G01*
X2505039Y-100000D01*
X2505039Y0D02*
G01*
X2480039Y-25000D01*
X2480039Y-25000D02*
G01*
X2480039Y-75000D01*
X2605039Y-100000D02*
G01*
X2580039Y-75000D01*
X2655039Y-100000D02*
G01*
X2605039Y-100000D01*
X2680039Y-75000D02*
G01*
X2655039Y-100000D01*
X2655039Y0D02*
G01*
X2680039Y-25000D01*
X2605039Y0D02*
G01*
X2655039Y0D01*
X2580039Y-25000D02*
G01*
X2605039Y0D01*
X2580039Y-75000D02*
G01*
X2555039Y-100000D01*
X2555039Y0D02*
G01*
X2580039Y-25000D01*
X2505039Y0D02*
G01*
X2555039Y0D01*
X2855039Y-100000D02*
G01*
X2805039Y-100000D01*
X2780039Y-75000D02*
G01*
X2805039Y-100000D01*
X2805039Y0D02*
G01*
X2780039Y-25000D01*
X2705039Y-100000D02*
G01*
X2680039Y-75000D01*
X2755039Y-100000D02*
G01*
X2705039Y-100000D01*
X2780039Y-75000D02*
G01*
X2755039Y-100000D01*
X2755039Y0D02*
G01*
X2780039Y-25000D01*
X2705039Y0D02*
G01*
X2755039Y0D01*
X2680039Y-25000D02*
G01*
X2705039Y0D01*
X2905039Y-100000D02*
G01*
X2880039Y-75000D01*
X2955039Y-100000D02*
G01*
X2905039Y-100000D01*
X2980039Y-75000D02*
G01*
X2955039Y-100000D01*
X2955039Y0D02*
G01*
X2980039Y-25000D01*
X2905039Y0D02*
G01*
X2955039Y0D01*
X2880039Y-25000D02*
G01*
X2905039Y0D01*
X2880039Y-75000D02*
G01*
X2855039Y-100000D01*
X2855039Y0D02*
G01*
X2880039Y-25000D01*
X2805039Y0D02*
G01*
X2855039Y0D01*
X3155039Y-100000D02*
G01*
X3105039Y-100000D01*
X3080039Y-75000D02*
G01*
X3105039Y-100000D01*
X3105039Y0D02*
G01*
X3080039Y-25000D01*
X3005039Y-100000D02*
G01*
X2980039Y-75000D01*
X3055039Y-100000D02*
G01*
X3005039Y-100000D01*
X3080039Y-75000D02*
G01*
X3055039Y-100000D01*
X3055039Y0D02*
G01*
X3080039Y-25000D01*
X3005039Y0D02*
G01*
X3055039Y0D01*
X2980039Y-25000D02*
G01*
X3005039Y0D01*
X3180039Y-75000D02*
G01*
X3155039Y-100000D01*
X3155039Y0D02*
G01*
X3180039Y-25000D01*
X3105039Y0D02*
G01*
X3155039Y0D01*
X3455039Y-2000000D02*
G01*
X3405039Y-2000000D01*
X3380039Y-1975000D02*
G01*
X3405039Y-2000000D01*
X3405039Y-1900000D02*
G01*
X3380039Y-1925000D01*
X3480039Y-1975000D02*
G01*
X3455039Y-2000000D01*
X3480039Y-1925000D02*
G01*
X3480039Y-1975000D01*
X3455039Y-1900000D02*
G01*
X3480039Y-1925000D01*
X3405039Y-1900000D02*
G01*
X3455039Y-1900000D01*
X2755039Y-2000000D02*
G01*
X2705039Y-2000000D01*
X2680039Y-1975000D02*
G01*
X2705039Y-2000000D01*
X2705039Y-1900000D02*
G01*
X2680039Y-1925000D01*
X2680039Y-1925000D02*
G01*
X2680039Y-1975000D01*
X2805039Y-2000000D02*
G01*
X2780039Y-1975000D01*
X2855039Y-2000000D02*
G01*
X2805039Y-2000000D01*
X2880039Y-1975000D02*
G01*
X2855039Y-2000000D01*
X2855039Y-1900000D02*
G01*
X2880039Y-1925000D01*
X2805039Y-1900000D02*
G01*
X2855039Y-1900000D01*
X2780039Y-1925000D02*
G01*
X2805039Y-1900000D01*
X2780039Y-1975000D02*
G01*
X2755039Y-2000000D01*
X2755039Y-1900000D02*
G01*
X2780039Y-1925000D01*
X2705039Y-1900000D02*
G01*
X2755039Y-1900000D01*
X3055039Y-2000000D02*
G01*
X3005039Y-2000000D01*
X2980039Y-1975000D02*
G01*
X3005039Y-2000000D01*
X3005039Y-1900000D02*
G01*
X2980039Y-1925000D01*
X2905039Y-2000000D02*
G01*
X2880039Y-1975000D01*
X2955039Y-2000000D02*
G01*
X2905039Y-2000000D01*
X2980039Y-1975000D02*
G01*
X2955039Y-2000000D01*
X2955039Y-1900000D02*
G01*
X2980039Y-1925000D01*
X2905039Y-1900000D02*
G01*
X2955039Y-1900000D01*
X2880039Y-1925000D02*
G01*
X2905039Y-1900000D01*
X3105039Y-2000000D02*
G01*
X3080039Y-1975000D01*
X3155039Y-2000000D02*
G01*
X3105039Y-2000000D01*
X3180039Y-1975000D02*
G01*
X3155039Y-2000000D01*
X3155039Y-1900000D02*
G01*
X3180039Y-1925000D01*
X3105039Y-1900000D02*
G01*
X3155039Y-1900000D01*
X3080039Y-1925000D02*
G01*
X3105039Y-1900000D01*
X3080039Y-1975000D02*
G01*
X3055039Y-2000000D01*
X3055039Y-1900000D02*
G01*
X3080039Y-1925000D01*
X3005039Y-1900000D02*
G01*
X3055039Y-1900000D01*
X3355039Y-2000000D02*
G01*
X3305039Y-2000000D01*
X3280039Y-1975000D02*
G01*
X3305039Y-2000000D01*
X3305039Y-1900000D02*
G01*
X3280039Y-1925000D01*
X3205039Y-2000000D02*
G01*
X3180039Y-1975000D01*
X3255039Y-2000000D02*
G01*
X3205039Y-2000000D01*
X3280039Y-1975000D02*
G01*
X3255039Y-2000000D01*
X3255039Y-1900000D02*
G01*
X3280039Y-1925000D01*
X3205039Y-1900000D02*
G01*
X3255039Y-1900000D01*
X3180039Y-1925000D02*
G01*
X3205039Y-1900000D01*
X3380039Y-1975000D02*
G01*
X3355039Y-2000000D01*
X3355039Y-1900000D02*
G01*
X3380039Y-1925000D01*
X3305039Y-1900000D02*
G01*
X3355039Y-1900000D01*
D29*
X1060000Y-1425000D02*
G01*
X1060000Y-1500000D01*
X1160000Y-1500000D01*
X1160000Y-500000D01*
X1060000Y-500000D01*
D30*
X1060000Y-500000D02*
G01*
X1060000Y-1425000D01*
D29*
X640000Y-1425000D02*
G01*
X640000Y-1500000D01*
X740000Y-1500000D01*
X740000Y-500000D01*
X640000Y-500000D01*
D30*
X640000Y-500000D02*
G01*
X640000Y-1425000D01*
D27*
X276849Y-1043150D02*
G01*
X-38110Y-1043150D01*
X276849Y-1436849D02*
G01*
X-38110Y-1436849D01*
X-38110Y-1043150D02*
G01*
X-38110Y-1436849D01*
X276849Y-1043150D02*
G01*
X276849Y-1436849D01*
X-17240Y-1043150D02*
G01*
X-17240Y-1436849D01*
X182359Y-1045509D02*
G01*
X182359Y-1434490D01*
D29*
X595000Y150000D02*
G01*
X520000Y150000D01*
X520000Y50000D01*
X1520000Y50000D01*
X1520000Y150000D01*
D30*
X1520000Y150000D02*
G01*
X595000Y150000D01*
D27*
X1570159Y148029D02*
G01*
X2389841Y148029D01*
X2389840Y148029D02*
G01*
X2389841Y51970D01*
X2389841Y51970D02*
G01*
X1570159Y51970D01*
X1570159Y51970D02*
G01*
X1570158Y148029D01*
X2470159Y148029D02*
G01*
X3289841Y148029D01*
X3289840Y148029D02*
G01*
X3289841Y51970D01*
X3289841Y51970D02*
G01*
X2470159Y51970D01*
X2470159Y51970D02*
G01*
X2470158Y148029D01*
D29*
X4734965Y-2070016D02*
G01*
X4809965Y-2070016D01*
X4809965Y-1975016D01*
X3909965Y-1975016D01*
X3909965Y-2070016D01*
D30*
X3909965Y-2070016D02*
G01*
X4734965Y-2070016D01*
X3909965Y-85016D02*
G01*
X4734965Y-85016D01*
D29*
X4734965Y-85016D02*
G01*
X4809965Y-85016D01*
X4809965Y14983D01*
X3909965Y14983D01*
X3909965Y-85016D01*
D27*
X4809809Y14980D02*
G01*
X4809809Y-2071630D01*
X3909960Y-2071630D01*
X3909960Y14980D01*
X4809809Y14980D01*
D29*
X5744965Y-2070016D02*
G01*
X5819965Y-2070016D01*
X5819965Y-1975016D01*
X4919965Y-1975016D01*
X4919965Y-2070016D01*
D30*
X4919965Y-2070016D02*
G01*
X5744965Y-2070016D01*
X4919965Y-85016D02*
G01*
X5744965Y-85016D01*
D29*
X5744965Y-85016D02*
G01*
X5819965Y-85016D01*
X5819965Y14983D01*
X4919965Y14983D01*
X4919965Y-85016D01*
D27*
X5819809Y14980D02*
G01*
X5819809Y-2071630D01*
X4919960Y-2071630D01*
X4919960Y14980D01*
X5819809Y14980D01*
D29*
X6004965Y19985D02*
G01*
X5929965Y19985D01*
X5929965Y-75014D01*
X6829965Y-75014D01*
X6829965Y19985D01*
D30*
X6829965Y19985D02*
G01*
X6004965Y19985D01*
X6829965Y-1965014D02*
G01*
X6004965Y-1965014D01*
D29*
X6004965Y-1965014D02*
G01*
X5929965Y-1965014D01*
X5929965Y-2065014D01*
X6829965Y-2065014D01*
X6829965Y-1965014D01*
D27*
X5930119Y-2065010D02*
G01*
X5930119Y21599D01*
X6829970Y21599D01*
X6829970Y-2065010D01*
X5930119Y-2065010D01*
X1905000Y-1025000D02*
G01*
X1905000Y-1005000D01*
X2155000Y-1005000D01*
X2155000Y-1025000D01*
X2155000Y-1080000D02*
G01*
X2155000Y-1095000D01*
X1905000Y-1095000D01*
X1905000Y-1080000D01*
X1905000Y-825000D02*
G01*
X1905000Y-805000D01*
X2155000Y-805000D01*
X2155000Y-825000D01*
X2155000Y-880000D02*
G01*
X2155000Y-895000D01*
X1905000Y-895000D01*
X1905000Y-880000D01*
X1870000Y-1413000D02*
G01*
X2190000Y-1413000D01*
X1870000Y-1286999D02*
G01*
X2190000Y-1286999D01*
X1870000Y-1286999D02*
G01*
X1870000Y-1413000D01*
X2190000Y-1286999D02*
G01*
X2190000Y-1413000D01*
X1870000Y-593000D02*
G01*
X2190000Y-593000D01*
X1870000Y-466999D02*
G01*
X2190000Y-466999D01*
X1870000Y-466999D02*
G01*
X1870000Y-593000D01*
X2190000Y-466999D02*
G01*
X2190000Y-593000D01*
D29*
X3060000Y-1425000D02*
G01*
X3060000Y-1500000D01*
X3160000Y-1500000D01*
X3160000Y-500000D01*
X3060000Y-500000D01*
D30*
X3060000Y-500000D02*
G01*
X3060000Y-1425000D01*
D29*
X800000Y-1425000D02*
G01*
X800000Y-1500000D01*
X900000Y-1500000D01*
X900000Y-500000D01*
X800000Y-500000D01*
D30*
X800000Y-500000D02*
G01*
X800000Y-1425000D01*
D29*
X1210000Y-1425000D02*
G01*
X1210000Y-1500000D01*
X1310000Y-1500000D01*
X1310000Y-500000D01*
X1210000Y-500000D01*
D30*
X1210000Y-500000D02*
G01*
X1210000Y-1425000D01*
D27*
X1689840Y-2158029D02*
G01*
X870158Y-2158029D01*
X870159Y-2158029D02*
G01*
X870158Y-2061970D01*
X870158Y-2061970D02*
G01*
X1689840Y-2061970D01*
X1689840Y-2061970D02*
G01*
X1689841Y-2158029D01*
X2589840Y-2158029D02*
G01*
X1770158Y-2158029D01*
X1770159Y-2158029D02*
G01*
X1770158Y-2061970D01*
X1770158Y-2061970D02*
G01*
X2589840Y-2061970D01*
X2589840Y-2061970D02*
G01*
X2589841Y-2158029D01*
X3489840Y-2158029D02*
G01*
X2670158Y-2158029D01*
X2670159Y-2158029D02*
G01*
X2670158Y-2061970D01*
X2670158Y-2061970D02*
G01*
X3489840Y-2061970D01*
X3489840Y-2061970D02*
G01*
X3489841Y-2158029D01*
X5820000Y-2683000D02*
G01*
X6140000Y-2683000D01*
X5820000Y-2556999D02*
G01*
X6140000Y-2556999D01*
X5820000Y-2556999D02*
G01*
X5820000Y-2683000D01*
X6140000Y-2556999D02*
G01*
X6140000Y-2683000D01*
X6420000Y-2683000D02*
G01*
X6740000Y-2683000D01*
X6420000Y-2556999D02*
G01*
X6740000Y-2556999D01*
X6420000Y-2556999D02*
G01*
X6420000Y-2683000D01*
X6740000Y-2556999D02*
G01*
X6740000Y-2683000D01*
X5820000Y546999D02*
G01*
X6140000Y546999D01*
X5820000Y673000D02*
G01*
X6140000Y673000D01*
X5820000Y673000D02*
G01*
X5820000Y546999D01*
X6140000Y673000D02*
G01*
X6140000Y546999D01*
X6420000Y546999D02*
G01*
X6740000Y546999D01*
X6420000Y673000D02*
G01*
X6740000Y673000D01*
X6420000Y673000D02*
G01*
X6420000Y546999D01*
X6740000Y673000D02*
G01*
X6740000Y546999D01*
D31*
X22100Y-720025D02*
G01*
X537899Y-720025D01*
X22100Y-718425D02*
G01*
X537899Y-718425D01*
X22100Y-716824D02*
G01*
X537899Y-716824D01*
X22199Y-715324D02*
G01*
X537800Y-715324D01*
X22199Y-713724D02*
G01*
X537800Y-713724D01*
X22199Y-712125D02*
G01*
X537800Y-712125D01*
X22300Y-710524D02*
G01*
X537699Y-710524D01*
X22300Y-709025D02*
G01*
X537699Y-709025D01*
X22399Y-707424D02*
G01*
X537600Y-707424D01*
X22500Y-705824D02*
G01*
X537500Y-705824D01*
X22600Y-704225D02*
G01*
X537399Y-704225D01*
X22699Y-702725D02*
G01*
X537300Y-702725D01*
X22800Y-701125D02*
G01*
X537199Y-701125D01*
X22899Y-699524D02*
G01*
X537100Y-699524D01*
X23000Y-697925D02*
G01*
X536999Y-697925D01*
X23200Y-696424D02*
G01*
X536799Y-696424D01*
X23299Y-694825D02*
G01*
X536700Y-694825D01*
X23499Y-693225D02*
G01*
X536500Y-693225D01*
X23699Y-691624D02*
G01*
X536300Y-691624D01*
X23800Y-690025D02*
G01*
X536199Y-690025D01*
X24000Y-688425D02*
G01*
X535999Y-688425D01*
X24200Y-686925D02*
G01*
X535799Y-686925D01*
X24400Y-685324D02*
G01*
X535599Y-685324D01*
X24600Y-683724D02*
G01*
X535399Y-683724D01*
X24899Y-682125D02*
G01*
X535100Y-682125D01*
X25100Y-680625D02*
G01*
X534899Y-680625D01*
X25399Y-679025D02*
G01*
X534600Y-679025D01*
X25599Y-677424D02*
G01*
X534400Y-677424D01*
X25900Y-675824D02*
G01*
X225700Y-675824D01*
X334299Y-675824D02*
G01*
X534099Y-675824D01*
X26100Y-674324D02*
G01*
X225700Y-674324D01*
X334299Y-674324D02*
G01*
X533899Y-674324D01*
X26500Y-672725D02*
G01*
X225700Y-672725D01*
X334299Y-672725D02*
G01*
X533499Y-672725D01*
X26700Y-671125D02*
G01*
X225700Y-671125D01*
X334299Y-671125D02*
G01*
X533299Y-671125D01*
X26999Y-669524D02*
G01*
X225700Y-669524D01*
X334299Y-669524D02*
G01*
X533000Y-669524D01*
X27399Y-668024D02*
G01*
X225700Y-668024D01*
X334299Y-668024D02*
G01*
X532600Y-668024D01*
X27699Y-666424D02*
G01*
X225700Y-666424D01*
X334299Y-666424D02*
G01*
X532300Y-666424D01*
X28000Y-664825D02*
G01*
X225700Y-664825D01*
X334299Y-664825D02*
G01*
X531999Y-664825D01*
X28400Y-663225D02*
G01*
X225700Y-663225D01*
X334299Y-663225D02*
G01*
X531599Y-663225D01*
X28699Y-661725D02*
G01*
X225700Y-661725D01*
X334299Y-661725D02*
G01*
X531300Y-661725D01*
X29099Y-660124D02*
G01*
X225700Y-660124D01*
X334299Y-660124D02*
G01*
X530900Y-660124D01*
X29499Y-658524D02*
G01*
X225700Y-658524D01*
X334299Y-658524D02*
G01*
X530500Y-658524D01*
X29899Y-656925D02*
G01*
X225700Y-656925D01*
X334299Y-656925D02*
G01*
X530100Y-656925D01*
X30300Y-655425D02*
G01*
X225700Y-655425D01*
X334299Y-655425D02*
G01*
X529699Y-655425D01*
X30700Y-653825D02*
G01*
X225700Y-653825D01*
X334299Y-653825D02*
G01*
X529299Y-653825D01*
X31100Y-652224D02*
G01*
X225700Y-652224D01*
X334299Y-652224D02*
G01*
X528899Y-652224D01*
X31500Y-650625D02*
G01*
X225700Y-650625D01*
X334299Y-650625D02*
G01*
X528499Y-650625D01*
X31999Y-649124D02*
G01*
X225700Y-649124D01*
X334299Y-649124D02*
G01*
X528000Y-649124D01*
X32399Y-647525D02*
G01*
X225700Y-647525D01*
X334299Y-647525D02*
G01*
X527600Y-647525D01*
X32899Y-645925D02*
G01*
X225700Y-645925D01*
X334299Y-645925D02*
G01*
X527100Y-645925D01*
X33299Y-644324D02*
G01*
X225700Y-644324D01*
X334299Y-644324D02*
G01*
X526700Y-644324D01*
X33899Y-642824D02*
G01*
X225700Y-642824D01*
X334299Y-642824D02*
G01*
X526100Y-642824D01*
X34299Y-641224D02*
G01*
X225700Y-641224D01*
X334299Y-641224D02*
G01*
X525700Y-641224D01*
X34800Y-639625D02*
G01*
X225700Y-639625D01*
X334299Y-639625D02*
G01*
X525199Y-639625D01*
X35399Y-638024D02*
G01*
X225700Y-638024D01*
X334299Y-638024D02*
G01*
X524600Y-638024D01*
X35900Y-636525D02*
G01*
X225700Y-636525D01*
X334299Y-636525D02*
G01*
X524099Y-636525D01*
X36500Y-634924D02*
G01*
X225700Y-634924D01*
X334299Y-634924D02*
G01*
X523499Y-634924D01*
X36999Y-633324D02*
G01*
X225700Y-633324D01*
X334299Y-633324D02*
G01*
X523000Y-633324D01*
X37600Y-631725D02*
G01*
X225700Y-631725D01*
X334299Y-631725D02*
G01*
X522399Y-631725D01*
X38099Y-630225D02*
G01*
X225700Y-630225D01*
X334299Y-630225D02*
G01*
X521900Y-630225D01*
X38699Y-628625D02*
G01*
X225700Y-628625D01*
X334299Y-628625D02*
G01*
X521300Y-628625D01*
X39299Y-627024D02*
G01*
X225700Y-627024D01*
X334299Y-627024D02*
G01*
X520700Y-627024D01*
X39899Y-625425D02*
G01*
X225700Y-625425D01*
X334299Y-625425D02*
G01*
X520100Y-625425D01*
X40599Y-623924D02*
G01*
X225700Y-623924D01*
X334299Y-623924D02*
G01*
X519400Y-623924D01*
X41199Y-622325D02*
G01*
X225700Y-622325D01*
X334299Y-622325D02*
G01*
X518800Y-622325D01*
X41799Y-620725D02*
G01*
X225700Y-620725D01*
X334299Y-620725D02*
G01*
X518200Y-620725D01*
X42500Y-619124D02*
G01*
X225700Y-619124D01*
X334299Y-619124D02*
G01*
X517500Y-619124D01*
X43200Y-617624D02*
G01*
X225700Y-617624D01*
X334299Y-617624D02*
G01*
X516900Y-617624D01*
X43800Y-616024D02*
G01*
X225700Y-616024D01*
X334299Y-616024D02*
G01*
X516199Y-616024D01*
X44499Y-614425D02*
G01*
X225700Y-614425D01*
X334299Y-614425D02*
G01*
X515500Y-614425D01*
X45199Y-612824D02*
G01*
X225700Y-612824D01*
X334299Y-612824D02*
G01*
X514800Y-612824D01*
X45900Y-611325D02*
G01*
X225700Y-611325D01*
X334299Y-611325D02*
G01*
X514099Y-611325D01*
X46700Y-609724D02*
G01*
X225700Y-609724D01*
X334299Y-609724D02*
G01*
X513299Y-609724D01*
X47399Y-608125D02*
G01*
X225700Y-608125D01*
X334299Y-608125D02*
G01*
X512600Y-608125D01*
X48200Y-606525D02*
G01*
X225700Y-606525D01*
X334299Y-606525D02*
G01*
X511799Y-606525D01*
X49000Y-605025D02*
G01*
X225700Y-605025D01*
X334299Y-605025D02*
G01*
X510999Y-605025D01*
X49800Y-603425D02*
G01*
X225700Y-603425D01*
X334299Y-603425D02*
G01*
X510199Y-603425D01*
X50599Y-601824D02*
G01*
X225700Y-601824D01*
X334299Y-601824D02*
G01*
X509400Y-601824D01*
X51399Y-600324D02*
G01*
X225700Y-600324D01*
X334299Y-600324D02*
G01*
X508600Y-600324D01*
X52199Y-598724D02*
G01*
X225700Y-598724D01*
X334299Y-598724D02*
G01*
X507800Y-598724D01*
X53000Y-597125D02*
G01*
X225700Y-597125D01*
X334299Y-597125D02*
G01*
X506999Y-597125D01*
X53899Y-595524D02*
G01*
X225700Y-595524D01*
X334299Y-595524D02*
G01*
X506100Y-595524D01*
X54800Y-594025D02*
G01*
X225700Y-594025D01*
X334299Y-594025D02*
G01*
X505199Y-594025D01*
X55599Y-592424D02*
G01*
X225700Y-592424D01*
X334299Y-592424D02*
G01*
X504400Y-592424D01*
X56500Y-590824D02*
G01*
X225700Y-590824D01*
X334299Y-590824D02*
G01*
X503499Y-590824D01*
X57399Y-589225D02*
G01*
X225700Y-589225D01*
X334299Y-589225D02*
G01*
X502600Y-589225D01*
X58299Y-587725D02*
G01*
X225700Y-587725D01*
X334299Y-587725D02*
G01*
X501700Y-587725D01*
X59299Y-586125D02*
G01*
X225700Y-586125D01*
X334299Y-586125D02*
G01*
X500700Y-586125D01*
X60300Y-584524D02*
G01*
X225700Y-584524D01*
X334299Y-584524D02*
G01*
X499699Y-584524D01*
X61199Y-582925D02*
G01*
X225700Y-582925D01*
X334299Y-582925D02*
G01*
X498800Y-582925D01*
X62199Y-581424D02*
G01*
X225700Y-581424D01*
X334299Y-581424D02*
G01*
X497800Y-581424D01*
X63200Y-579825D02*
G01*
X225700Y-579825D01*
X334299Y-579825D02*
G01*
X496799Y-579825D01*
X64299Y-578225D02*
G01*
X225700Y-578225D01*
X334299Y-578225D02*
G01*
X495700Y-578225D01*
X65300Y-576624D02*
G01*
X225700Y-576624D01*
X334299Y-576624D02*
G01*
X494699Y-576624D01*
X66300Y-575124D02*
G01*
X225700Y-575124D01*
X334299Y-575124D02*
G01*
X493699Y-575124D01*
X67399Y-573524D02*
G01*
X225700Y-573524D01*
X334299Y-573524D02*
G01*
X492600Y-573524D01*
X68499Y-571925D02*
G01*
X225700Y-571925D01*
X334299Y-571925D02*
G01*
X491500Y-571925D01*
X69600Y-570324D02*
G01*
X225700Y-570324D01*
X334299Y-570324D02*
G01*
X490399Y-570324D01*
X70700Y-568825D02*
G01*
X225700Y-568825D01*
X334299Y-568825D02*
G01*
X489299Y-568825D01*
X71900Y-567224D02*
G01*
X488099Y-567224D01*
X73000Y-565625D02*
G01*
X486999Y-565625D01*
X74200Y-564025D02*
G01*
X485799Y-564025D01*
X75399Y-562525D02*
G01*
X484600Y-562525D01*
X76599Y-560925D02*
G01*
X483400Y-560925D01*
X77800Y-559324D02*
G01*
X482199Y-559324D01*
X79099Y-557725D02*
G01*
X480900Y-557725D01*
X80300Y-556224D02*
G01*
X479699Y-556224D01*
X81599Y-554625D02*
G01*
X478400Y-554625D01*
X83000Y-553024D02*
G01*
X476999Y-553024D01*
X84299Y-551424D02*
G01*
X475700Y-551424D01*
X85599Y-549924D02*
G01*
X474400Y-549924D01*
X86999Y-548324D02*
G01*
X473000Y-548324D01*
X88400Y-546725D02*
G01*
X471599Y-546725D01*
X89800Y-545124D02*
G01*
X470199Y-545124D01*
X91300Y-543625D02*
G01*
X468699Y-543625D01*
X92800Y-542024D02*
G01*
X467199Y-542024D01*
X94299Y-540425D02*
G01*
X465700Y-540425D01*
X95799Y-538825D02*
G01*
X464200Y-538825D01*
X97300Y-537325D02*
G01*
X462699Y-537325D01*
X98899Y-535725D02*
G01*
X461100Y-535725D01*
X100500Y-534124D02*
G01*
X459499Y-534124D01*
X102100Y-532525D02*
G01*
X457899Y-532525D01*
X103800Y-531024D02*
G01*
X456199Y-531024D01*
X105500Y-529425D02*
G01*
X454499Y-529425D01*
X107199Y-527824D02*
G01*
X452800Y-527824D01*
X108899Y-526224D02*
G01*
X451100Y-526224D01*
X110700Y-524724D02*
G01*
X449299Y-524724D01*
X112600Y-523125D02*
G01*
X447399Y-523125D01*
X114400Y-521525D02*
G01*
X445599Y-521525D01*
X116300Y-519924D02*
G01*
X443699Y-519924D01*
X118200Y-518425D02*
G01*
X441799Y-518425D01*
X120199Y-516824D02*
G01*
X439800Y-516824D01*
X122199Y-515225D02*
G01*
X437800Y-515225D01*
X124200Y-513625D02*
G01*
X435799Y-513625D01*
X126300Y-512125D02*
G01*
X433699Y-512125D01*
X128400Y-510524D02*
G01*
X431599Y-510524D01*
X130599Y-508924D02*
G01*
X429400Y-508924D01*
X132800Y-507325D02*
G01*
X427199Y-507325D01*
X135100Y-505824D02*
G01*
X424899Y-505824D01*
X137399Y-504225D02*
G01*
X422600Y-504225D01*
X139800Y-502624D02*
G01*
X420199Y-502624D01*
X142300Y-501024D02*
G01*
X417699Y-501024D01*
X144800Y-499524D02*
G01*
X415199Y-499524D01*
X147399Y-497925D02*
G01*
X412600Y-497925D01*
X150000Y-496325D02*
G01*
X410000Y-496325D01*
X152699Y-494724D02*
G01*
X407300Y-494724D01*
X155500Y-493225D02*
G01*
X404499Y-493225D01*
X158400Y-491624D02*
G01*
X401599Y-491624D01*
X161300Y-490025D02*
G01*
X398699Y-490025D01*
X164400Y-488425D02*
G01*
X395599Y-488425D01*
X167600Y-486925D02*
G01*
X392399Y-486925D01*
X170900Y-485324D02*
G01*
X389099Y-485324D01*
X174299Y-483724D02*
G01*
X385700Y-483724D01*
X177800Y-482125D02*
G01*
X382199Y-482125D01*
X181500Y-480625D02*
G01*
X378499Y-480625D01*
X185300Y-479025D02*
G01*
X374699Y-479025D01*
X189400Y-477424D02*
G01*
X370599Y-477424D01*
X193600Y-475824D02*
G01*
X366399Y-475824D01*
X198099Y-474324D02*
G01*
X361900Y-474324D01*
X202899Y-472725D02*
G01*
X357100Y-472725D01*
X208000Y-471125D02*
G01*
X351999Y-471125D01*
X213600Y-469524D02*
G01*
X346399Y-469524D01*
X219699Y-468024D02*
G01*
X340300Y-468024D01*
X226500Y-466424D02*
G01*
X333499Y-466424D01*
X234299Y-464825D02*
G01*
X325700Y-464825D01*
X243899Y-463225D02*
G01*
X316100Y-463225D01*
X256799Y-461725D02*
G01*
X303200Y-461725D01*
X280000Y-944425D02*
G01*
X280000Y-873524D01*
X244600Y-909025D02*
G01*
X315399Y-909025D01*
D27*
X6105000Y-2405000D02*
G01*
X6105000Y-2425000D01*
X5855000Y-2425000D01*
X5855000Y-2405000D01*
X5855000Y-2350000D02*
G01*
X5855000Y-2335000D01*
X6105000Y-2335000D01*
X6105000Y-2350000D01*
X6705000Y-2425000D02*
G01*
X6705000Y-2445000D01*
X6455000Y-2445000D01*
X6455000Y-2425000D01*
X6455000Y-2370000D02*
G01*
X6455000Y-2355000D01*
X6705000Y-2355000D01*
X6705000Y-2370000D01*
X6105000Y375000D02*
G01*
X6105000Y355000D01*
X5855000Y355000D01*
X5855000Y375000D01*
X5855000Y430000D02*
G01*
X5855000Y445000D01*
X6105000Y445000D01*
X6105000Y430000D01*
X6705000Y375000D02*
G01*
X6705000Y355000D01*
X6455000Y355000D01*
X6455000Y375000D01*
X6455000Y430000D02*
G01*
X6455000Y445000D01*
X6705000Y445000D01*
X6705000Y430000D01*
X5245000Y-1375000D02*
G01*
X5245000Y-1355000D01*
X5495000Y-1355000D01*
X5495000Y-1375000D01*
X5495000Y-1430000D02*
G01*
X5495000Y-1445000D01*
X5245000Y-1445000D01*
X5245000Y-1430000D01*
X5245000Y-1635000D02*
G01*
X5245000Y-1615000D01*
X5495000Y-1615000D01*
X5495000Y-1635000D01*
X5495000Y-1690000D02*
G01*
X5495000Y-1705000D01*
X5245000Y-1705000D01*
X5245000Y-1690000D01*
X6255000Y-1375000D02*
G01*
X6255000Y-1355000D01*
X6505000Y-1355000D01*
X6505000Y-1375000D01*
X6505000Y-1430000D02*
G01*
X6505000Y-1445000D01*
X6255000Y-1445000D01*
X6255000Y-1430000D01*
X6255000Y-1635000D02*
G01*
X6255000Y-1615000D01*
X6505000Y-1615000D01*
X6505000Y-1635000D01*
X6505000Y-1690000D02*
G01*
X6505000Y-1705000D01*
X6255000Y-1705000D01*
X6255000Y-1690000D01*
X5245000Y-1125000D02*
G01*
X5245000Y-1105000D01*
X5495000Y-1105000D01*
X5495000Y-1125000D01*
X5495000Y-1180000D02*
G01*
X5495000Y-1195000D01*
X5245000Y-1195000D01*
X5245000Y-1180000D01*
X4485000Y-1675000D02*
G01*
X4485000Y-1695000D01*
X4235000Y-1695000D01*
X4235000Y-1675000D01*
X4235000Y-1620000D02*
G01*
X4235000Y-1605000D01*
X4485000Y-1605000D01*
X4485000Y-1620000D01*
X6255000Y-1125000D02*
G01*
X6255000Y-1105000D01*
X6505000Y-1105000D01*
X6505000Y-1125000D01*
X6505000Y-1180000D02*
G01*
X6505000Y-1195000D01*
X6255000Y-1195000D01*
X6255000Y-1180000D01*
D31*
G75*
G01*
X280000Y-460552D02*
G03*
X280634Y-460552I317J-259448D01*
D27*
G75*
G01
X5108700Y-2288820D02*
G03X5108700Y-2288820I-78700J0D01*
G75*
G01
X4908700Y-2288820D02*
G03X4908700Y-2288820I-78700J0D01*
G75*
G01
X4909490Y-2721890D02*
G03X4909490Y-2721890I-78700J0D01*
G75*
G01
X5109490Y-2721890D02*
G03X5109490Y-2721890I-78700J0D01*
G75*
G01
X4008700Y278820D02*
G03X4008700Y278820I-78700J0D01*
G75*
G01
X4208700Y278820D02*
G03X4208700Y278820I-78700J0D01*
G75*
G01
X4207910Y711890D02*
G03X4207910Y711890I-78700J0D01*
G75*
G01
X4007910Y711890D02*
G03X4007910Y711890I-78700J0D01*
G75*
G01
X158700Y-1140000D02*
G03X158700Y-1140000I-78700J0D01*
G75*
G01
X158700Y-1340000D02*
G03X158700Y-1340000I-78700J0D01*
M02*
