G04 Layer: TopSolderMaskLayer*
G04 EasyEDA v6.4.17, 2021-03-17T11:39:49--3:00*
G04 0ec266cd3479489882c0241a24e145c1,59636247558045d2802cba280e4ac9d9,10*
G04 Gerber Generator version 0.2*
G04 Scale: 100 percent, Rotated: No, Reflected: No *
G04 Dimensions in inches *
G04 leading zeros omitted , absolute positions ,3 integer and 6 decimal *
%FSLAX36Y36*%
%MOIN*%

%ADD26C,0.0700*%
%ADD33C,0.0680*%
%ADD34C,0.0867*%
%ADD35C,0.1261*%
%ADD36C,0.0820*%
%ADD38R,0.0700X0.0700*%
%ADD40C,0.0789*%
%ADD41C,0.0637*%
%ADD43C,0.0880*%
%ADD45C,0.1025*%

%LPD*%
D33*
G01*
X4003230Y-2655749D03*
G01*
X4003230Y-2555749D03*
G01*
X4003230Y-2455749D03*
G01*
X4003230Y-2355749D03*
D34*
G01*
X3892990Y-2605749D03*
G01*
X3892990Y-2408899D03*
D35*
G01*
X5030000Y-2288820D03*
G01*
X4830000Y-2288820D03*
G01*
X4830789Y-2721889D03*
G01*
X5030789Y-2721889D03*
D33*
G01*
X4956769Y645749D03*
G01*
X4956769Y545749D03*
G01*
X4956769Y445749D03*
G01*
X4956769Y345749D03*
D34*
G01*
X5067010Y595749D03*
G01*
X5067010Y398899D03*
D35*
G01*
X3930000Y278820D03*
G01*
X4130000Y278820D03*
G01*
X4129210Y711889D03*
G01*
X3929210Y711889D03*
D36*
G01*
X1630039Y-1950000D03*
G01*
X1530039Y-1950000D03*
G01*
X1430039Y-1950000D03*
G01*
X1330039Y-1950000D03*
G01*
X1230039Y-1950000D03*
G01*
X1130039Y-1950000D03*
G01*
X3630039Y-50000D03*
G01*
X3530039Y-50000D03*
G01*
X3630039Y-1750000D03*
G01*
X3530039Y-1750000D03*
G36*
X3488999Y-990999D02*
G01*
X3488999Y-909000D01*
X3571000Y-909000D01*
X3571000Y-990999D01*
G37*
G36*
X3588999Y-990999D02*
G01*
X3588999Y-909000D01*
X3671000Y-909000D01*
X3671000Y-990999D01*
G37*
G36*
X3488999Y-1090999D02*
G01*
X3488999Y-1009000D01*
X3571000Y-1009000D01*
X3571000Y-1090999D01*
G37*
G36*
X3588999Y-1090999D02*
G01*
X3588999Y-1009000D01*
X3671000Y-1009000D01*
X3671000Y-1090999D01*
G37*
G36*
X3488999Y-1190999D02*
G01*
X3488999Y-1109000D01*
X3571000Y-1109000D01*
X3571000Y-1190999D01*
G37*
G36*
X3588999Y-1190999D02*
G01*
X3588999Y-1109000D01*
X3671000Y-1109000D01*
X3671000Y-1190999D01*
G37*
G36*
X3488999Y-1290999D02*
G01*
X3488999Y-1209000D01*
X3571000Y-1209000D01*
X3571000Y-1290999D01*
G37*
G36*
X3588999Y-1290999D02*
G01*
X3588999Y-1209000D01*
X3671000Y-1209000D01*
X3671000Y-1290999D01*
G37*
G36*
X3488999Y-1390999D02*
G01*
X3488999Y-1309000D01*
X3571000Y-1309000D01*
X3571000Y-1390999D01*
G37*
G36*
X3588999Y-1390999D02*
G01*
X3588999Y-1309000D01*
X3671000Y-1309000D01*
X3671000Y-1390999D01*
G37*
G36*
X3488999Y-1490999D02*
G01*
X3488999Y-1409000D01*
X3571000Y-1409000D01*
X3571000Y-1490999D01*
G37*
G36*
X3588999Y-1490999D02*
G01*
X3588999Y-1409000D01*
X3671000Y-1409000D01*
X3671000Y-1490999D01*
G37*
G36*
X3488999Y-1590999D02*
G01*
X3488999Y-1509000D01*
X3571000Y-1509000D01*
X3571000Y-1590999D01*
G37*
G36*
X3588999Y-1590999D02*
G01*
X3588999Y-1509000D01*
X3671000Y-1509000D01*
X3671000Y-1590999D01*
G37*
G36*
X3488999Y-1690999D02*
G01*
X3488999Y-1609000D01*
X3571000Y-1609000D01*
X3571000Y-1690999D01*
G37*
G36*
X3588999Y-1690999D02*
G01*
X3588999Y-1609000D01*
X3671000Y-1609000D01*
X3671000Y-1690999D01*
G37*
G36*
X3488999Y-190999D02*
G01*
X3488999Y-109000D01*
X3571000Y-109000D01*
X3571000Y-190999D01*
G37*
G36*
X3588999Y-190999D02*
G01*
X3588999Y-109000D01*
X3671000Y-109000D01*
X3671000Y-190999D01*
G37*
G36*
X3488999Y-290999D02*
G01*
X3488999Y-209000D01*
X3571000Y-209000D01*
X3571000Y-290999D01*
G37*
G36*
X3588999Y-290999D02*
G01*
X3588999Y-209000D01*
X3671000Y-209000D01*
X3671000Y-290999D01*
G37*
G36*
X3488999Y-390999D02*
G01*
X3488999Y-309000D01*
X3571000Y-309000D01*
X3571000Y-390999D01*
G37*
G36*
X3588999Y-390999D02*
G01*
X3588999Y-309000D01*
X3671000Y-309000D01*
X3671000Y-390999D01*
G37*
G36*
X3488999Y-490999D02*
G01*
X3488999Y-409000D01*
X3571000Y-409000D01*
X3571000Y-490999D01*
G37*
G36*
X3588999Y-490999D02*
G01*
X3588999Y-409000D01*
X3671000Y-409000D01*
X3671000Y-490999D01*
G37*
G36*
X3488999Y-590999D02*
G01*
X3488999Y-509000D01*
X3571000Y-509000D01*
X3571000Y-590999D01*
G37*
G36*
X3588999Y-590999D02*
G01*
X3588999Y-509000D01*
X3671000Y-509000D01*
X3671000Y-590999D01*
G37*
G36*
X3488999Y-690999D02*
G01*
X3488999Y-609000D01*
X3571000Y-609000D01*
X3571000Y-690999D01*
G37*
G36*
X3588999Y-690999D02*
G01*
X3588999Y-609000D01*
X3671000Y-609000D01*
X3671000Y-690999D01*
G37*
G36*
X3488999Y-790999D02*
G01*
X3488999Y-709000D01*
X3571000Y-709000D01*
X3571000Y-790999D01*
G37*
G36*
X3588999Y-790999D02*
G01*
X3588999Y-709000D01*
X3671000Y-709000D01*
X3671000Y-790999D01*
G37*
G36*
X3488999Y-890999D02*
G01*
X3488999Y-809000D01*
X3571000Y-809000D01*
X3571000Y-890999D01*
G37*
G36*
X3588999Y-890999D02*
G01*
X3588999Y-809000D01*
X3671000Y-809000D01*
X3671000Y-890999D01*
G37*
G01*
X770039Y-50000D03*
G01*
X1470039Y-50000D03*
G01*
X1370039Y-50000D03*
G01*
X1270039Y-50000D03*
G01*
X1170039Y-50000D03*
G01*
X1070039Y-50000D03*
G01*
X970039Y-50000D03*
G01*
X870039Y-50000D03*
G01*
X1630039Y-50000D03*
G01*
X2330039Y-50000D03*
G01*
X2230039Y-50000D03*
G01*
X2130039Y-50000D03*
G01*
X2030039Y-50000D03*
G01*
X1930039Y-50000D03*
G01*
X1830039Y-50000D03*
G01*
X1730039Y-50000D03*
G01*
X1830039Y-1950000D03*
G01*
X2530039Y-1950000D03*
G01*
X2430039Y-1950000D03*
G01*
X2330039Y-1950000D03*
G01*
X2230039Y-1950000D03*
G01*
X2130039Y-1950000D03*
G01*
X2030039Y-1950000D03*
G01*
X1930039Y-1950000D03*
G01*
X2530039Y-50000D03*
G01*
X3230039Y-50000D03*
G01*
X3130039Y-50000D03*
G01*
X3030039Y-50000D03*
G01*
X2930039Y-50000D03*
G01*
X2830039Y-50000D03*
G01*
X2730039Y-50000D03*
G01*
X2630039Y-50000D03*
G01*
X2730039Y-1950000D03*
G01*
X3430039Y-1950000D03*
G01*
X3330039Y-1950000D03*
G01*
X3230039Y-1950000D03*
G01*
X3130039Y-1950000D03*
G01*
X3030039Y-1950000D03*
G01*
X2930039Y-1950000D03*
G01*
X2830039Y-1950000D03*
G01*
X1030039Y-1950000D03*
D26*
G01*
X1110000Y-550000D03*
G01*
X1110000Y-650000D03*
G01*
X1110000Y-750000D03*
G01*
X1110000Y-850000D03*
G01*
X1110000Y-950000D03*
G01*
X1110000Y-1050000D03*
G01*
X1110000Y-1150000D03*
G01*
X1110000Y-1250000D03*
G01*
X1110000Y-1350000D03*
D38*
G01*
X1110000Y-1450000D03*
D26*
G01*
X690000Y-550000D03*
G01*
X690000Y-650000D03*
G01*
X690000Y-750000D03*
G01*
X690000Y-850000D03*
G01*
X690000Y-950000D03*
G01*
X690000Y-1050000D03*
G01*
X690000Y-1150000D03*
G01*
X690000Y-1250000D03*
G01*
X690000Y-1350000D03*
D38*
G01*
X690000Y-1450000D03*
D35*
G01*
X80000Y-1140000D03*
G01*
X80000Y-1340000D03*
D26*
G01*
X1470000Y100000D03*
G01*
X1370000Y100000D03*
G01*
X1270000Y100000D03*
G01*
X1170000Y100000D03*
G01*
X1070000Y100000D03*
G01*
X970000Y100000D03*
G01*
X870000Y100000D03*
G01*
X770000Y100000D03*
G01*
X670000Y100000D03*
G36*
X535000Y65000D02*
G01*
X535000Y135000D01*
X605000Y135000D01*
X605000Y65000D01*
G37*
G36*
X1590600Y60599D02*
G01*
X1590600Y139400D01*
X1669399Y139400D01*
X1669399Y60599D01*
G37*
D40*
G01*
X1730000Y100000D03*
G01*
X1830000Y100000D03*
G01*
X1930000Y100000D03*
G01*
X2030000Y100000D03*
G01*
X2130000Y100000D03*
G01*
X2230000Y100000D03*
G01*
X2330000Y100000D03*
G36*
X2490600Y60599D02*
G01*
X2490600Y139400D01*
X2569399Y139400D01*
X2569399Y60599D01*
G37*
G01*
X2630000Y100000D03*
G01*
X2730000Y100000D03*
G01*
X2830000Y100000D03*
G01*
X2930000Y100000D03*
G01*
X3030000Y100000D03*
G01*
X3130000Y100000D03*
G01*
X3230000Y100000D03*
G36*
X4725000Y-70000D02*
G01*
X4725000Y0D01*
X4795000Y0D01*
X4795000Y-70000D01*
G37*
D26*
G01*
X4659960Y-35019D03*
G01*
X4559960Y-35019D03*
G01*
X4459960Y-35019D03*
G01*
X4359960Y-35019D03*
G01*
X4259960Y-35019D03*
G01*
X4159960Y-35019D03*
G01*
X4059960Y-35019D03*
G01*
X3959960Y-35019D03*
G36*
X4725000Y-2055000D02*
G01*
X4725000Y-1985000D01*
X4795000Y-1985000D01*
X4795000Y-2055000D01*
G37*
G01*
X4659960Y-2020019D03*
G01*
X4559960Y-2020019D03*
G01*
X4459960Y-2020019D03*
G01*
X4359960Y-2020019D03*
G01*
X4259960Y-2020019D03*
G01*
X4159960Y-2020019D03*
G01*
X4059960Y-2020019D03*
G01*
X3959960Y-2020019D03*
G36*
X5735000Y-70000D02*
G01*
X5735000Y0D01*
X5805000Y0D01*
X5805000Y-70000D01*
G37*
G01*
X5669960Y-35019D03*
G01*
X5569960Y-35019D03*
G01*
X5469960Y-35019D03*
G01*
X5369960Y-35019D03*
G01*
X5269960Y-35019D03*
G01*
X5169960Y-35019D03*
G01*
X5069960Y-35019D03*
G01*
X4969960Y-35019D03*
G36*
X5735000Y-2055000D02*
G01*
X5735000Y-1985000D01*
X5805000Y-1985000D01*
X5805000Y-2055000D01*
G37*
G01*
X5669960Y-2020019D03*
G01*
X5569960Y-2020019D03*
G01*
X5469960Y-2020019D03*
G01*
X5369960Y-2020019D03*
G01*
X5269960Y-2020019D03*
G01*
X5169960Y-2020019D03*
G01*
X5069960Y-2020019D03*
G01*
X4969960Y-2020019D03*
G36*
X5945000Y-2050000D02*
G01*
X5945000Y-1980000D01*
X6015000Y-1980000D01*
X6015000Y-2050000D01*
G37*
G01*
X6079970Y-2015010D03*
G01*
X6179970Y-2015010D03*
G01*
X6279970Y-2015010D03*
G01*
X6379970Y-2015010D03*
G01*
X6479970Y-2015010D03*
G01*
X6579970Y-2015010D03*
G01*
X6679970Y-2015010D03*
G01*
X6779970Y-2015010D03*
G36*
X5945000Y-65000D02*
G01*
X5945000Y5000D01*
X6015000Y5000D01*
X6015000Y-65000D01*
G37*
G01*
X6079970Y-30010D03*
G01*
X6179970Y-30010D03*
G01*
X6279970Y-30010D03*
G01*
X6379970Y-30010D03*
G01*
X6479970Y-30010D03*
G01*
X6579970Y-30010D03*
G01*
X6679970Y-30010D03*
G01*
X6779970Y-30010D03*
D41*
G01*
X1930000Y-1050000D03*
G01*
X2130000Y-1050000D03*
G01*
X1930000Y-850000D03*
G01*
X2130000Y-850000D03*
G36*
X1886000Y-1394000D02*
G01*
X1886000Y-1305999D01*
X1973999Y-1305999D01*
X1973999Y-1394000D01*
G37*
D43*
G01*
X2030000Y-1350000D03*
G01*
X2130000Y-1350000D03*
G36*
X1886000Y-574000D02*
G01*
X1886000Y-485999D01*
X1973999Y-485999D01*
X1973999Y-574000D01*
G37*
G01*
X2030000Y-530000D03*
G01*
X2130000Y-530000D03*
D26*
G01*
X3110000Y-550000D03*
G01*
X3110000Y-650000D03*
G01*
X3110000Y-750000D03*
G01*
X3110000Y-850000D03*
G01*
X3110000Y-950000D03*
G01*
X3110000Y-1050000D03*
G01*
X3110000Y-1150000D03*
G01*
X3110000Y-1250000D03*
G01*
X3110000Y-1350000D03*
D38*
G01*
X3110000Y-1450000D03*
D26*
G01*
X850000Y-550000D03*
G01*
X850000Y-650000D03*
G01*
X850000Y-750000D03*
G01*
X850000Y-850000D03*
G01*
X850000Y-950000D03*
G01*
X850000Y-1050000D03*
G01*
X850000Y-1150000D03*
G01*
X850000Y-1250000D03*
G01*
X850000Y-1350000D03*
D38*
G01*
X850000Y-1450000D03*
D26*
G01*
X1260000Y-550000D03*
G01*
X1260000Y-650000D03*
G01*
X1260000Y-750000D03*
G01*
X1260000Y-850000D03*
G01*
X1260000Y-950000D03*
G01*
X1260000Y-1050000D03*
G01*
X1260000Y-1150000D03*
G01*
X1260000Y-1250000D03*
G01*
X1260000Y-1350000D03*
D38*
G01*
X1260000Y-1450000D03*
G36*
X1590600Y-2149400D02*
G01*
X1590600Y-2070599D01*
X1669399Y-2070599D01*
X1669399Y-2149400D01*
G37*
D40*
G01*
X1530000Y-2110000D03*
G01*
X1430000Y-2110000D03*
G01*
X1330000Y-2110000D03*
G01*
X1230000Y-2110000D03*
G01*
X1130000Y-2110000D03*
G01*
X1030000Y-2110000D03*
G01*
X930000Y-2110000D03*
G36*
X2490600Y-2149400D02*
G01*
X2490600Y-2070599D01*
X2569399Y-2070599D01*
X2569399Y-2149400D01*
G37*
G01*
X2430000Y-2110000D03*
G01*
X2330000Y-2110000D03*
G01*
X2230000Y-2110000D03*
G01*
X2130000Y-2110000D03*
G01*
X2030000Y-2110000D03*
G01*
X1930000Y-2110000D03*
G01*
X1830000Y-2110000D03*
G36*
X3390600Y-2149400D02*
G01*
X3390600Y-2070599D01*
X3469399Y-2070599D01*
X3469399Y-2149400D01*
G37*
G01*
X3330000Y-2110000D03*
G01*
X3230000Y-2110000D03*
G01*
X3130000Y-2110000D03*
G01*
X3030000Y-2110000D03*
G01*
X2930000Y-2110000D03*
G01*
X2830000Y-2110000D03*
G01*
X2730000Y-2110000D03*
G36*
X5836000Y-2664000D02*
G01*
X5836000Y-2575999D01*
X5923999Y-2575999D01*
X5923999Y-2664000D01*
G37*
D43*
G01*
X5980000Y-2620000D03*
G01*
X6080000Y-2620000D03*
G36*
X6436000Y-2664000D02*
G01*
X6436000Y-2575999D01*
X6523999Y-2575999D01*
X6523999Y-2664000D01*
G37*
G01*
X6580000Y-2620000D03*
G01*
X6680000Y-2620000D03*
G36*
X5836000Y565999D02*
G01*
X5836000Y654000D01*
X5923999Y654000D01*
X5923999Y565999D01*
G37*
G01*
X5980000Y610000D03*
G01*
X6080000Y610000D03*
G36*
X6436000Y565999D02*
G01*
X6436000Y654000D01*
X6523999Y654000D01*
X6523999Y565999D01*
G37*
G01*
X6580000Y610000D03*
G01*
X6680000Y610000D03*
G36*
X228800Y-869699D02*
G01*
X228800Y-767199D01*
X331199Y-767199D01*
X331199Y-869699D01*
G37*
D45*
G01*
X280000Y-621579D03*
D41*
G01*
X6080000Y-2380000D03*
G01*
X5880000Y-2380000D03*
G01*
X6680000Y-2400000D03*
G01*
X6480000Y-2400000D03*
G01*
X6080000Y400000D03*
G01*
X5880000Y400000D03*
G01*
X6680000Y400000D03*
G01*
X6480000Y400000D03*
G01*
X5270000Y-1400000D03*
G01*
X5470000Y-1400000D03*
G01*
X5270000Y-1660000D03*
G01*
X5470000Y-1660000D03*
G01*
X6280000Y-1400000D03*
G01*
X6480000Y-1400000D03*
G01*
X6280000Y-1660000D03*
G01*
X6480000Y-1660000D03*
G01*
X5270000Y-1150000D03*
G01*
X5470000Y-1150000D03*
G01*
X4460000Y-1650000D03*
G01*
X4260000Y-1650000D03*
G01*
X6280000Y-1150000D03*
G01*
X6480000Y-1150000D03*
M02*
