M48
INCH,LZ
;FILE_FORMAT=2:4
;TYPE=PLATED
;Layer: Drill PTH
;EasyEDA v6.4.17, 2021-03-17T11:39:49--3:00
;0ec266cd3479489882c0241a24e145c1,59636247558045d2802cba280e4ac9d9,10
;Gerber Generator version 0.2
;Holesize 1 = 0.0350 inch
T01C0.0350
;Holesize 2 = 0.0360 inch
T02C0.0360
;Holesize 3 = 0.0400 inch
T03C0.0400
;Holesize 4 = 0.0470 inch
T04C0.0470
;Holesize 5 = 0.0590 inch
T05C0.0590
%
G05
G90
T01
X011100Y-005500
X011100Y-006500
X011100Y-007500
X011100Y-008500
X011100Y-009500
X011100Y-010500
X011100Y-011500
X011100Y-012500
X011100Y-013500
X011100Y-014500
X006900Y-005500
X006900Y-006500
X006900Y-007500
X006900Y-008500
X006900Y-009500
X006900Y-010500
X006900Y-011500
X006900Y-012500
X006900Y-013500
X006900Y-014500
X014700Y001000
X013700Y001000
X012700Y001000
X011700Y001000
X010700Y001000
X009700Y001000
X008700Y001000
X007700Y001000
X006700Y001000
X005700Y001000
X047600Y-000350
X046600Y-000350
X045600Y-000350
X044600Y-000350
X043600Y-000350
X042600Y-000350
X041600Y-000350
X040600Y-000350
X039600Y-000350
X047600Y-020200
X046600Y-020200
X045600Y-020200
X044600Y-020200
X043600Y-020200
X042600Y-020200
X041600Y-020200
X040600Y-020200
X039600Y-020200
X057700Y-000350
X056700Y-000350
X055700Y-000350
X054700Y-000350
X053700Y-000350
X052700Y-000350
X051700Y-000350
X050700Y-000350
X049700Y-000350
X057700Y-020200
X056700Y-020200
X055700Y-020200
X054700Y-020200
X053700Y-020200
X052700Y-020200
X051700Y-020200
X050700Y-020200
X049700Y-020200
X059800Y-020150
X060800Y-020150
X061800Y-020150
X062800Y-020150
X063800Y-020150
X064800Y-020150
X065800Y-020150
X066800Y-020150
X067800Y-020150
X059800Y-000300
X060800Y-000300
X061800Y-000300
X062800Y-000300
X063800Y-000300
X064800Y-000300
X065800Y-000300
X066800Y-000300
X067800Y-000300
X031100Y-005500
X031100Y-006500
X031100Y-007500
X031100Y-008500
X031100Y-009500
X031100Y-010500
X031100Y-011500
X031100Y-012500
X031100Y-013500
X031100Y-014500
X008500Y-005500
X008500Y-006500
X008500Y-007500
X008500Y-008500
X008500Y-009500
X008500Y-010500
X008500Y-011500
X008500Y-012500
X008500Y-013500
X008500Y-014500
X012600Y-005500
X012600Y-006500
X012600Y-007500
X012600Y-008500
X012600Y-009500
X012600Y-010500
X012600Y-011500
X012600Y-012500
X012600Y-013500
X012600Y-014500
T02
X040032Y-026557
X040032Y-025557
X040032Y-024557
X040032Y-023557
X038930Y-026057
X038930Y-024089
X049568Y006457
X049568Y005457
X049568Y004457
X049568Y003457
X050670Y005957
X050670Y003989
T03
X016300Y-019500
X015300Y-019500
X014300Y-019500
X013300Y-019500
X012300Y-019500
X011300Y-019500
X036300Y-000500
X035300Y-000500
X036300Y-017500
X035300Y-017500
X035300Y-009500
X036300Y-009500
X035300Y-010500
X036300Y-010500
X035300Y-011500
X036300Y-011500
X035300Y-012500
X036300Y-012500
X035300Y-013500
X036300Y-013500
X035300Y-014500
X036300Y-014500
X035300Y-015500
X036300Y-015500
X035300Y-016500
X036300Y-016500
X035300Y-001500
X036300Y-001500
X035300Y-002500
X036300Y-002500
X035300Y-003500
X036300Y-003500
X035300Y-004500
X036300Y-004500
X035300Y-005500
X036300Y-005500
X035300Y-006500
X036300Y-006500
X035300Y-007500
X036300Y-007500
X035300Y-008500
X036300Y-008500
X007700Y-000500
X014700Y-000500
X013700Y-000500
X012700Y-000500
X011700Y-000500
X010700Y-000500
X009700Y-000500
X008700Y-000500
X016300Y-000500
X023300Y-000500
X022300Y-000500
X021300Y-000500
X020300Y-000500
X019300Y-000500
X018300Y-000500
X017300Y-000500
X018300Y-019500
X025300Y-019500
X024300Y-019500
X023300Y-019500
X022300Y-019500
X021300Y-019500
X020300Y-019500
X019300Y-019500
X025300Y-000500
X032300Y-000500
X031300Y-000500
X030300Y-000500
X029300Y-000500
X028300Y-000500
X027300Y-000500
X026300Y-000500
X027300Y-019500
X034300Y-019500
X033300Y-019500
X032300Y-019500
X031300Y-019500
X030300Y-019500
X029300Y-019500
X028300Y-019500
X010300Y-019500
X019300Y-010500
X021300Y-010500
X019300Y-008500
X021300Y-008500
X019300Y-013500
X020300Y-013500
X021300Y-013500
X019300Y-005300
X020300Y-005300
X021300Y-005300
X058800Y-026200
X059800Y-026200
X060800Y-026200
X064800Y-026200
X065800Y-026200
X066800Y-026200
X058800Y006100
X059800Y006100
X060800Y006100
X064800Y006100
X065800Y006100
X066800Y006100
X060800Y-023800
X058800Y-023800
X066800Y-024000
X064800Y-024000
X060800Y004000
X058800Y004000
X066800Y004000
X064800Y004000
X052700Y-014000
X054700Y-014000
X052700Y-016600
X054700Y-016600
X062800Y-014000
X064800Y-014000
X062800Y-016600
X064800Y-016600
X052700Y-011500
X054700Y-011500
X044600Y-016500
X042600Y-016500
X062800Y-011500
X064800Y-011500
T04
X016300Y001000
X017300Y001000
X018300Y001000
X019300Y001000
X020300Y001000
X021300Y001000
X022300Y001000
X023300Y001000
X025300Y001000
X026300Y001000
X027300Y001000
X028300Y001000
X029300Y001000
X030300Y001000
X031300Y001000
X032300Y001000
X016300Y-021100
X015300Y-021100
X014300Y-021100
X013300Y-021100
X012300Y-021100
X011300Y-021100
X010300Y-021100
X009300Y-021100
X025300Y-021100
X024300Y-021100
X023300Y-021100
X022300Y-021100
X021300Y-021100
X020300Y-021100
X019300Y-021100
X018300Y-021100
X034300Y-021100
X033300Y-021100
X032300Y-021100
X031300Y-021100
X030300Y-021100
X029300Y-021100
X028300Y-021100
X027300Y-021100
X002800Y-008185G85X002800Y-008183
X002800Y-006216G85X002800Y-006214
T05
X050300Y-022888
X048300Y-022888
X048308Y-027219
X050308Y-027219
X039300Y002788
X041300Y002788
X041292Y007119
X039292Y007119
X000800Y-011400
X000800Y-013400
M30
