G04 Layer: TopSilkLayer*
G04 EasyEDA v6.4.19.5, 2021-05-27T13:51:55--3:00*
G04 d4571b5f0cad4c8e9ba745b3e698b6d2,59636247558045d2802cba280e4ac9d9,10*
G04 Gerber Generator version 0.2*
G04 Scale: 100 percent, Rotated: No, Reflected: No *
G04 Dimensions in millimeters *
G04 leading zeros omitted , absolute positions ,4 integer and 5 decimal *
%FSLAX45Y45*%
%MOMM*%

%ADD21C,0.2540*%
%ADD22C,0.1501*%
%ADD23C,0.2032*%
%ADD24C,0.2030*%
%ADD25C,0.1200*%
%ADD26C,0.3048*%
%ADD27C,0.1524*%

%LPD*%
D23*
X7520177Y-3415792D02*
G01*
X7514843Y-3405378D01*
X7504429Y-3394963D01*
X7494270Y-3389884D01*
X7473441Y-3389884D01*
X7463027Y-3394963D01*
X7452613Y-3405378D01*
X7447279Y-3415792D01*
X7442200Y-3431539D01*
X7442200Y-3457447D01*
X7447279Y-3472942D01*
X7452613Y-3483355D01*
X7463027Y-3493770D01*
X7473441Y-3498850D01*
X7494270Y-3498850D01*
X7504429Y-3493770D01*
X7514843Y-3483355D01*
X7520177Y-3472942D01*
X7520177Y-3457447D01*
X7494270Y-3457447D02*
G01*
X7520177Y-3457447D01*
X7554468Y-3389884D02*
G01*
X7554468Y-3498850D01*
X7554468Y-3389884D02*
G01*
X7627111Y-3498850D01*
X7627111Y-3389884D02*
G01*
X7627111Y-3498850D01*
X7661402Y-3389884D02*
G01*
X7661402Y-3498850D01*
X7661402Y-3389884D02*
G01*
X7697724Y-3389884D01*
X7713472Y-3394963D01*
X7723886Y-3405378D01*
X7728965Y-3415792D01*
X7734300Y-3431539D01*
X7734300Y-3457447D01*
X7728965Y-3472942D01*
X7723886Y-3483355D01*
X7713472Y-3493770D01*
X7697724Y-3498850D01*
X7661402Y-3498850D01*
X4318000Y-1764284D02*
G01*
X4318000Y-1873250D01*
X4318000Y-1764284D02*
G01*
X4354322Y-1764284D01*
X4370070Y-1769363D01*
X4380229Y-1779778D01*
X4385563Y-1790192D01*
X4390643Y-1805939D01*
X4390643Y-1831847D01*
X4385563Y-1847342D01*
X4380229Y-1857755D01*
X4370070Y-1868170D01*
X4354322Y-1873250D01*
X4318000Y-1873250D01*
X4424934Y-1764284D02*
G01*
X4424934Y-1873250D01*
X4459224Y-1764284D02*
G01*
X4459224Y-1873250D01*
X4459224Y-1764284D02*
G01*
X4505959Y-1764284D01*
X4521708Y-1769363D01*
X4526788Y-1774697D01*
X4532122Y-1785112D01*
X4532122Y-1795526D01*
X4526788Y-1805939D01*
X4521708Y-1811020D01*
X4505959Y-1816100D01*
X4459224Y-1816100D01*
X4495800Y-1816100D02*
G01*
X4532122Y-1873250D01*
X4318000Y-2780284D02*
G01*
X4359656Y-2889250D01*
X4401058Y-2780284D02*
G01*
X4359656Y-2889250D01*
X4513325Y-2806192D02*
G01*
X4508245Y-2795778D01*
X4497831Y-2785363D01*
X4487418Y-2780284D01*
X4466590Y-2780284D01*
X4456175Y-2785363D01*
X4445761Y-2795778D01*
X4440681Y-2806192D01*
X4435347Y-2821939D01*
X4435347Y-2847847D01*
X4440681Y-2863342D01*
X4445761Y-2873755D01*
X4456175Y-2884170D01*
X4466590Y-2889250D01*
X4487418Y-2889250D01*
X4497831Y-2884170D01*
X4508245Y-2873755D01*
X4513325Y-2863342D01*
X4625593Y-2806192D02*
G01*
X4620259Y-2795778D01*
X4610100Y-2785363D01*
X4599686Y-2780284D01*
X4578858Y-2780284D01*
X4568443Y-2785363D01*
X4558029Y-2795778D01*
X4552950Y-2806192D01*
X4547615Y-2821939D01*
X4547615Y-2847847D01*
X4552950Y-2863342D01*
X4558029Y-2873755D01*
X4568443Y-2884170D01*
X4578858Y-2889250D01*
X4599686Y-2889250D01*
X4610100Y-2884170D01*
X4620259Y-2873755D01*
X4625593Y-2863342D01*
X4390646Y-2262380D02*
G01*
X4380232Y-2251966D01*
X4364738Y-2246886D01*
X4343910Y-2246886D01*
X4328416Y-2251966D01*
X4318002Y-2262380D01*
X4318002Y-2272794D01*
X4323082Y-2283208D01*
X4328416Y-2288542D01*
X4338830Y-2293622D01*
X4370072Y-2304036D01*
X4380232Y-2309116D01*
X4385566Y-2314450D01*
X4390646Y-2324864D01*
X4390646Y-2340358D01*
X4380232Y-2350772D01*
X4364738Y-2355852D01*
X4343910Y-2355852D01*
X4328416Y-2350772D01*
X4318002Y-2340358D01*
X4502914Y-2272794D02*
G01*
X4497834Y-2262380D01*
X4487420Y-2251966D01*
X4477006Y-2246886D01*
X4456178Y-2246886D01*
X4445764Y-2251966D01*
X4435350Y-2262380D01*
X4430270Y-2272794D01*
X4424936Y-2288542D01*
X4424936Y-2314450D01*
X4430270Y-2329944D01*
X4435350Y-2340358D01*
X4445764Y-2350772D01*
X4456178Y-2355852D01*
X4477006Y-2355852D01*
X4487420Y-2350772D01*
X4497834Y-2340358D01*
X4502914Y-2329944D01*
X4537204Y-2246886D02*
G01*
X4537204Y-2355852D01*
X4537204Y-2355852D02*
G01*
X4599688Y-2355852D01*
X4390643Y-2008378D02*
G01*
X4380229Y-1997963D01*
X4364736Y-1992884D01*
X4343908Y-1992884D01*
X4328413Y-1997963D01*
X4318000Y-2008378D01*
X4318000Y-2018792D01*
X4323079Y-2029205D01*
X4328413Y-2034539D01*
X4338827Y-2039620D01*
X4370070Y-2050034D01*
X4380229Y-2055113D01*
X4385563Y-2060447D01*
X4390643Y-2070862D01*
X4390643Y-2086355D01*
X4380229Y-2096770D01*
X4364736Y-2101850D01*
X4343908Y-2101850D01*
X4328413Y-2096770D01*
X4318000Y-2086355D01*
X4424934Y-1992884D02*
G01*
X4424934Y-2101850D01*
X4424934Y-1992884D02*
G01*
X4461509Y-1992884D01*
X4477004Y-1997963D01*
X4487418Y-2008378D01*
X4492497Y-2018792D01*
X4497831Y-2034539D01*
X4497831Y-2060447D01*
X4492497Y-2075942D01*
X4487418Y-2086355D01*
X4477004Y-2096770D01*
X4461509Y-2101850D01*
X4424934Y-2101850D01*
X4573524Y-1992884D02*
G01*
X4532122Y-2101850D01*
X4573524Y-1992884D02*
G01*
X4615179Y-2101850D01*
X4547615Y-2065528D02*
G01*
X4599686Y-2065528D01*
X16522700Y1246654D02*
G01*
X16391636Y1246654D01*
X16457168Y1312186D02*
G01*
X16457168Y1181376D01*
X14998700Y1246654D02*
G01*
X14867636Y1246654D01*
X14933168Y1312186D02*
G01*
X14933168Y1181376D01*
X14998700Y-5823445D02*
G01*
X14867636Y-5823445D01*
X14933168Y-5757913D02*
G01*
X14933168Y-5888723D01*
X16522700Y-5823158D02*
G01*
X16391636Y-5823158D01*
X16457168Y-5757626D02*
G01*
X16457168Y-5888436D01*
X16522700Y-3957914D02*
G01*
X16391636Y-3957914D01*
X16457168Y-3892382D02*
G01*
X16457168Y-4023192D01*
X16522700Y-3302861D02*
G01*
X16391636Y-3302861D01*
X16457168Y-3237329D02*
G01*
X16457168Y-3368139D01*
X16522700Y-2654493D02*
G01*
X16391636Y-2654493D01*
X16457168Y-2588961D02*
G01*
X16457168Y-2719771D01*
X13957300Y-2656331D02*
G01*
X13826236Y-2656331D01*
X13891768Y-2590800D02*
G01*
X13891768Y-2721610D01*
X13957300Y-3318537D02*
G01*
X13826236Y-3318537D01*
X13891768Y-3253005D02*
G01*
X13891768Y-3383815D01*
X13957300Y-3997563D02*
G01*
X13826236Y-3997563D01*
X13891768Y-3932031D02*
G01*
X13891768Y-4062841D01*
X10883900Y-3951731D02*
G01*
X10752836Y-3951731D01*
X10818368Y-3886200D02*
G01*
X10818368Y-4017010D01*
X7514843Y-2897378D02*
G01*
X7504429Y-2886963D01*
X7488936Y-2881884D01*
X7468108Y-2881884D01*
X7452613Y-2886963D01*
X7442200Y-2897378D01*
X7442200Y-2907792D01*
X7447279Y-2918205D01*
X7452613Y-2923539D01*
X7463027Y-2928620D01*
X7494270Y-2939034D01*
X7504429Y-2944113D01*
X7509763Y-2949447D01*
X7514843Y-2959862D01*
X7514843Y-2975355D01*
X7504429Y-2985770D01*
X7488936Y-2990850D01*
X7468108Y-2990850D01*
X7452613Y-2985770D01*
X7442200Y-2975355D01*
X7549134Y-2881884D02*
G01*
X7549134Y-2990850D01*
X7549134Y-2881884D02*
G01*
X7585709Y-2881884D01*
X7601204Y-2886963D01*
X7611618Y-2897378D01*
X7616697Y-2907792D01*
X7622031Y-2923539D01*
X7622031Y-2949447D01*
X7616697Y-2964942D01*
X7611618Y-2975355D01*
X7601204Y-2985770D01*
X7585709Y-2990850D01*
X7549134Y-2990850D01*
X7697724Y-2881884D02*
G01*
X7656322Y-2990850D01*
X7697724Y-2881884D02*
G01*
X7739379Y-2990850D01*
X7671815Y-2954528D02*
G01*
X7723886Y-2954528D01*
X7514843Y-3151378D02*
G01*
X7504429Y-3140963D01*
X7488936Y-3135884D01*
X7468108Y-3135884D01*
X7452613Y-3140963D01*
X7442200Y-3151378D01*
X7442200Y-3161792D01*
X7447279Y-3172205D01*
X7452613Y-3177539D01*
X7463027Y-3182620D01*
X7494270Y-3193034D01*
X7504429Y-3198113D01*
X7509763Y-3203447D01*
X7514843Y-3213862D01*
X7514843Y-3229355D01*
X7504429Y-3239770D01*
X7488936Y-3244850D01*
X7468108Y-3244850D01*
X7452613Y-3239770D01*
X7442200Y-3229355D01*
X7627111Y-3161792D02*
G01*
X7622031Y-3151378D01*
X7611618Y-3140963D01*
X7601204Y-3135884D01*
X7580375Y-3135884D01*
X7569961Y-3140963D01*
X7559547Y-3151378D01*
X7554468Y-3161792D01*
X7549134Y-3177539D01*
X7549134Y-3203447D01*
X7554468Y-3218942D01*
X7559547Y-3229355D01*
X7569961Y-3239770D01*
X7580375Y-3244850D01*
X7601204Y-3244850D01*
X7611618Y-3239770D01*
X7622031Y-3229355D01*
X7627111Y-3218942D01*
X7661402Y-3135884D02*
G01*
X7661402Y-3244850D01*
X7661402Y-3244850D02*
G01*
X7723886Y-3244850D01*
X7416800Y-3643884D02*
G01*
X7458456Y-3752850D01*
X7499858Y-3643884D02*
G01*
X7458456Y-3752850D01*
X7612125Y-3669792D02*
G01*
X7607045Y-3659378D01*
X7596631Y-3648963D01*
X7586218Y-3643884D01*
X7565390Y-3643884D01*
X7554975Y-3648963D01*
X7544561Y-3659378D01*
X7539481Y-3669792D01*
X7534147Y-3685539D01*
X7534147Y-3711447D01*
X7539481Y-3726942D01*
X7544561Y-3737355D01*
X7554975Y-3747770D01*
X7565390Y-3752850D01*
X7586218Y-3752850D01*
X7596631Y-3747770D01*
X7607045Y-3737355D01*
X7612125Y-3726942D01*
X7724393Y-3669792D02*
G01*
X7719059Y-3659378D01*
X7708900Y-3648963D01*
X7698486Y-3643884D01*
X7677658Y-3643884D01*
X7667243Y-3648963D01*
X7656829Y-3659378D01*
X7651750Y-3669792D01*
X7646415Y-3685539D01*
X7646415Y-3711447D01*
X7651750Y-3726942D01*
X7656829Y-3737355D01*
X7667243Y-3747770D01*
X7677658Y-3752850D01*
X7698486Y-3752850D01*
X7708900Y-3747770D01*
X7719059Y-3737355D01*
X7724393Y-3726942D01*
X180086Y-4859273D02*
G01*
X173228Y-4845304D01*
X159257Y-4831587D01*
X145542Y-4824729D01*
X117855Y-4824729D01*
X103886Y-4831587D01*
X90170Y-4845304D01*
X83057Y-4859273D01*
X76200Y-4880102D01*
X76200Y-4914645D01*
X83057Y-4935473D01*
X90170Y-4949189D01*
X103886Y-4963160D01*
X117855Y-4970018D01*
X145542Y-4970018D01*
X159257Y-4963160D01*
X173228Y-4949189D01*
X180086Y-4935473D01*
X180086Y-4914645D01*
X145542Y-4914645D02*
G01*
X180086Y-4914645D01*
X308863Y-4872989D02*
G01*
X308863Y-4970018D01*
X308863Y-4893818D02*
G01*
X295147Y-4880102D01*
X281178Y-4872989D01*
X260350Y-4872989D01*
X246634Y-4880102D01*
X232663Y-4893818D01*
X225805Y-4914645D01*
X225805Y-4928615D01*
X232663Y-4949189D01*
X246634Y-4963160D01*
X260350Y-4970018D01*
X281178Y-4970018D01*
X295147Y-4963160D01*
X308863Y-4949189D01*
X354584Y-4824729D02*
G01*
X354584Y-4970018D01*
X354584Y-4893818D02*
G01*
X368554Y-4880102D01*
X382270Y-4872989D01*
X403097Y-4872989D01*
X417068Y-4880102D01*
X430784Y-4893818D01*
X437895Y-4914645D01*
X437895Y-4928615D01*
X430784Y-4949189D01*
X417068Y-4963160D01*
X403097Y-4970018D01*
X382270Y-4970018D01*
X368554Y-4963160D01*
X354584Y-4949189D01*
X483615Y-4872989D02*
G01*
X483615Y-4970018D01*
X483615Y-4914645D02*
G01*
X490473Y-4893818D01*
X504189Y-4880102D01*
X518160Y-4872989D01*
X538987Y-4872989D01*
X584707Y-4824729D02*
G01*
X591565Y-4831587D01*
X598423Y-4824729D01*
X591565Y-4817618D01*
X584707Y-4824729D01*
X591565Y-4872989D02*
G01*
X591565Y-4970018D01*
X644144Y-4914645D02*
G01*
X727455Y-4914645D01*
X727455Y-4900929D01*
X720344Y-4886960D01*
X713486Y-4880102D01*
X699770Y-4872989D01*
X678942Y-4872989D01*
X664971Y-4880102D01*
X651255Y-4893818D01*
X644144Y-4914645D01*
X644144Y-4928615D01*
X651255Y-4949189D01*
X664971Y-4963160D01*
X678942Y-4970018D01*
X699770Y-4970018D01*
X713486Y-4963160D01*
X727455Y-4949189D01*
X773176Y-4824729D02*
G01*
X773176Y-4970018D01*
X925576Y-4824729D02*
G01*
X925576Y-4970018D01*
X925576Y-4824729D02*
G01*
X987805Y-4824729D01*
X1008634Y-4831587D01*
X1015492Y-4838445D01*
X1022350Y-4852415D01*
X1022350Y-4866131D01*
X1015492Y-4880102D01*
X1008634Y-4886960D01*
X987805Y-4893818D01*
X925576Y-4893818D02*
G01*
X987805Y-4893818D01*
X1008634Y-4900929D01*
X1015492Y-4907787D01*
X1022350Y-4921504D01*
X1022350Y-4942331D01*
X1015492Y-4956302D01*
X1008634Y-4963160D01*
X987805Y-4970018D01*
X925576Y-4970018D01*
X1068070Y-4914645D02*
G01*
X1151381Y-4914645D01*
X1151381Y-4900929D01*
X1144270Y-4886960D01*
X1137412Y-4880102D01*
X1123695Y-4872989D01*
X1102868Y-4872989D01*
X1088897Y-4880102D01*
X1075181Y-4893818D01*
X1068070Y-4914645D01*
X1068070Y-4928615D01*
X1075181Y-4949189D01*
X1088897Y-4963160D01*
X1102868Y-4970018D01*
X1123695Y-4970018D01*
X1137412Y-4963160D01*
X1151381Y-4949189D01*
X1217929Y-4824729D02*
G01*
X1217929Y-4942331D01*
X1224787Y-4963160D01*
X1238504Y-4970018D01*
X1252473Y-4970018D01*
X1197102Y-4872989D02*
G01*
X1245615Y-4872989D01*
X1319021Y-4824729D02*
G01*
X1319021Y-4942331D01*
X1325879Y-4963160D01*
X1339850Y-4970018D01*
X1353565Y-4970018D01*
X1298194Y-4872989D02*
G01*
X1346707Y-4872989D01*
X1482344Y-4872989D02*
G01*
X1482344Y-4970018D01*
X1482344Y-4893818D02*
G01*
X1468628Y-4880102D01*
X1454657Y-4872989D01*
X1433829Y-4872989D01*
X1420113Y-4880102D01*
X1406144Y-4893818D01*
X1399286Y-4914645D01*
X1399286Y-4928615D01*
X1406144Y-4949189D01*
X1420113Y-4963160D01*
X1433829Y-4970018D01*
X1454657Y-4970018D01*
X1468628Y-4963160D01*
X1482344Y-4949189D01*
X1528063Y-4872989D02*
G01*
X1528063Y-4970018D01*
X1528063Y-4900929D02*
G01*
X1548892Y-4880102D01*
X1562862Y-4872989D01*
X1583689Y-4872989D01*
X1597405Y-4880102D01*
X1604263Y-4900929D01*
X1604263Y-4970018D01*
X1649984Y-4824729D02*
G01*
X1657095Y-4831587D01*
X1663954Y-4824729D01*
X1657095Y-4817618D01*
X1649984Y-4824729D01*
X1657095Y-4872989D02*
G01*
X1657095Y-4970018D01*
X1709673Y-4872989D02*
G01*
X1709673Y-4970018D01*
X1709673Y-4900929D02*
G01*
X1730502Y-4880102D01*
X1744218Y-4872989D01*
X1765045Y-4872989D01*
X1779015Y-4880102D01*
X1785873Y-4900929D01*
X1785873Y-4970018D01*
X117855Y-5053329D02*
G01*
X97028Y-5060187D01*
X83057Y-5081015D01*
X76200Y-5115560D01*
X76200Y-5136387D01*
X83057Y-5170931D01*
X97028Y-5191760D01*
X117855Y-5198618D01*
X131571Y-5198618D01*
X152400Y-5191760D01*
X166370Y-5170931D01*
X173228Y-5136387D01*
X173228Y-5115560D01*
X166370Y-5081015D01*
X152400Y-5060187D01*
X131571Y-5053329D01*
X117855Y-5053329D01*
X302005Y-5053329D02*
G01*
X232663Y-5053329D01*
X225805Y-5115560D01*
X232663Y-5108702D01*
X253492Y-5101589D01*
X274320Y-5101589D01*
X295147Y-5108702D01*
X308863Y-5122418D01*
X315976Y-5143245D01*
X315976Y-5157215D01*
X308863Y-5177789D01*
X295147Y-5191760D01*
X274320Y-5198618D01*
X253492Y-5198618D01*
X232663Y-5191760D01*
X225805Y-5184902D01*
X218947Y-5170931D01*
X486410Y-5025389D02*
G01*
X361695Y-5247131D01*
X538987Y-5087873D02*
G01*
X538987Y-5081015D01*
X545845Y-5067045D01*
X552704Y-5060187D01*
X566673Y-5053329D01*
X594360Y-5053329D01*
X608329Y-5060187D01*
X615187Y-5067045D01*
X622045Y-5081015D01*
X622045Y-5094731D01*
X615187Y-5108702D01*
X601218Y-5129529D01*
X532129Y-5198618D01*
X628904Y-5198618D01*
X716279Y-5053329D02*
G01*
X695452Y-5060187D01*
X681736Y-5081015D01*
X674623Y-5115560D01*
X674623Y-5136387D01*
X681736Y-5170931D01*
X695452Y-5191760D01*
X716279Y-5198618D01*
X730250Y-5198618D01*
X750823Y-5191760D01*
X764794Y-5170931D01*
X771652Y-5136387D01*
X771652Y-5115560D01*
X764794Y-5081015D01*
X750823Y-5060187D01*
X730250Y-5053329D01*
X716279Y-5053329D01*
X824229Y-5087873D02*
G01*
X824229Y-5081015D01*
X831342Y-5067045D01*
X838200Y-5060187D01*
X852170Y-5053329D01*
X879855Y-5053329D01*
X893571Y-5060187D01*
X900429Y-5067045D01*
X907542Y-5081015D01*
X907542Y-5094731D01*
X900429Y-5108702D01*
X886713Y-5129529D01*
X817371Y-5198618D01*
X914400Y-5198618D01*
X960120Y-5081015D02*
G01*
X974089Y-5073904D01*
X994663Y-5053329D01*
X994663Y-5198618D01*
X205486Y-4630673D02*
G01*
X198628Y-4616704D01*
X184657Y-4602987D01*
X170942Y-4596129D01*
X143255Y-4596129D01*
X129286Y-4602987D01*
X115570Y-4616704D01*
X108457Y-4630673D01*
X101600Y-4651502D01*
X101600Y-4686045D01*
X108457Y-4706873D01*
X115570Y-4720589D01*
X129286Y-4734560D01*
X143255Y-4741418D01*
X170942Y-4741418D01*
X184657Y-4734560D01*
X198628Y-4720589D01*
X205486Y-4706873D01*
X251205Y-4644389D02*
G01*
X251205Y-4741418D01*
X251205Y-4686045D02*
G01*
X258063Y-4665218D01*
X272034Y-4651502D01*
X285750Y-4644389D01*
X306578Y-4644389D01*
X435610Y-4644389D02*
G01*
X435610Y-4741418D01*
X435610Y-4665218D02*
G01*
X421639Y-4651502D01*
X407670Y-4644389D01*
X387095Y-4644389D01*
X373126Y-4651502D01*
X359410Y-4665218D01*
X352297Y-4686045D01*
X352297Y-4700015D01*
X359410Y-4720589D01*
X373126Y-4734560D01*
X387095Y-4741418D01*
X407670Y-4741418D01*
X421639Y-4734560D01*
X435610Y-4720589D01*
X481329Y-4644389D02*
G01*
X509015Y-4741418D01*
X536702Y-4644389D02*
G01*
X509015Y-4741418D01*
X536702Y-4644389D02*
G01*
X564387Y-4741418D01*
X592073Y-4644389D02*
G01*
X564387Y-4741418D01*
X637794Y-4596129D02*
G01*
X637794Y-4741418D01*
X683513Y-4686045D02*
G01*
X766571Y-4686045D01*
X766571Y-4672329D01*
X759713Y-4658360D01*
X752855Y-4651502D01*
X738886Y-4644389D01*
X718057Y-4644389D01*
X704342Y-4651502D01*
X690371Y-4665218D01*
X683513Y-4686045D01*
X683513Y-4700015D01*
X690371Y-4720589D01*
X704342Y-4734560D01*
X718057Y-4741418D01*
X738886Y-4741418D01*
X752855Y-4734560D01*
X766571Y-4720589D01*
X812292Y-4644389D02*
G01*
X812292Y-4741418D01*
X812292Y-4686045D02*
G01*
X819150Y-4665218D01*
X833120Y-4651502D01*
X847089Y-4644389D01*
X867663Y-4644389D01*
X1020063Y-4644389D02*
G01*
X1061720Y-4741418D01*
X1103376Y-4644389D02*
G01*
X1061720Y-4741418D01*
X1149095Y-4623815D02*
G01*
X1162812Y-4616704D01*
X1183639Y-4596129D01*
X1183639Y-4741418D01*
X1236218Y-4706873D02*
G01*
X1229360Y-4713731D01*
X1236218Y-4720589D01*
X1243329Y-4713731D01*
X1236218Y-4706873D01*
X1358137Y-4596129D02*
G01*
X1289050Y-4692904D01*
X1392936Y-4692904D01*
X1358137Y-4596129D02*
G01*
X1358137Y-4741418D01*
X10883900Y-3318537D02*
G01*
X10752836Y-3318537D01*
X10818368Y-3253005D02*
G01*
X10818368Y-3383815D01*
X10883900Y-2666751D02*
G01*
X10752836Y-2666751D01*
X10818368Y-2601219D02*
G01*
X10818368Y-2732029D01*
X5192522Y-2272284D02*
G01*
X5192522Y-2381250D01*
X5156200Y-2272284D02*
G01*
X5228843Y-2272284D01*
X5263134Y-2272284D02*
G01*
X5336031Y-2381250D01*
X5336031Y-2272284D02*
G01*
X5263134Y-2381250D01*
X5156200Y-2653284D02*
G01*
X5156200Y-2762250D01*
X5156200Y-2653284D02*
G01*
X5202936Y-2653284D01*
X5218429Y-2658363D01*
X5223763Y-2663697D01*
X5228843Y-2674112D01*
X5228843Y-2684526D01*
X5223763Y-2694939D01*
X5218429Y-2700020D01*
X5202936Y-2705100D01*
X5156200Y-2705100D01*
X5192522Y-2705100D02*
G01*
X5228843Y-2762250D01*
X5263134Y-2653284D02*
G01*
X5336031Y-2762250D01*
X5336031Y-2653284D02*
G01*
X5263134Y-2762250D01*
X5234177Y-2044192D02*
G01*
X5228843Y-2033778D01*
X5218429Y-2023363D01*
X5208270Y-2018284D01*
X5187441Y-2018284D01*
X5177027Y-2023363D01*
X5166613Y-2033778D01*
X5161279Y-2044192D01*
X5156200Y-2059939D01*
X5156200Y-2085847D01*
X5161279Y-2101342D01*
X5166613Y-2111755D01*
X5177027Y-2122170D01*
X5187441Y-2127250D01*
X5208270Y-2127250D01*
X5218429Y-2122170D01*
X5228843Y-2111755D01*
X5234177Y-2101342D01*
X5234177Y-2085847D01*
X5208270Y-2085847D02*
G01*
X5234177Y-2085847D01*
X5268468Y-2018284D02*
G01*
X5268468Y-2127250D01*
X5268468Y-2018284D02*
G01*
X5341111Y-2127250D01*
X5341111Y-2018284D02*
G01*
X5341111Y-2127250D01*
X5375402Y-2018284D02*
G01*
X5375402Y-2127250D01*
X5375402Y-2018284D02*
G01*
X5411724Y-2018284D01*
X5427472Y-2023363D01*
X5437886Y-2033778D01*
X5442965Y-2044192D01*
X5448300Y-2059939D01*
X5448300Y-2085847D01*
X5442965Y-2101342D01*
X5437886Y-2111755D01*
X5427472Y-2122170D01*
X5411724Y-2127250D01*
X5375402Y-2127250D01*
X5130800Y-1764284D02*
G01*
X5172456Y-1873250D01*
X5213858Y-1764284D02*
G01*
X5172456Y-1873250D01*
X5326125Y-1790192D02*
G01*
X5321045Y-1779778D01*
X5310631Y-1769363D01*
X5300218Y-1764284D01*
X5279390Y-1764284D01*
X5268975Y-1769363D01*
X5258561Y-1779778D01*
X5253481Y-1790192D01*
X5248147Y-1805939D01*
X5248147Y-1831847D01*
X5253481Y-1847342D01*
X5258561Y-1857755D01*
X5268975Y-1868170D01*
X5279390Y-1873250D01*
X5300218Y-1873250D01*
X5310631Y-1868170D01*
X5321045Y-1857755D01*
X5326125Y-1847342D01*
X5438393Y-1790192D02*
G01*
X5433059Y-1779778D01*
X5422900Y-1769363D01*
X5412486Y-1764284D01*
X5391658Y-1764284D01*
X5381243Y-1769363D01*
X5370829Y-1779778D01*
X5365750Y-1790192D01*
X5360415Y-1805939D01*
X5360415Y-1831847D01*
X5365750Y-1847342D01*
X5370829Y-1857755D01*
X5381243Y-1868170D01*
X5391658Y-1873250D01*
X5412486Y-1873250D01*
X5422900Y-1868170D01*
X5433059Y-1857755D01*
X5438393Y-1847342D01*
X4395977Y-2552192D02*
G01*
X4390643Y-2541778D01*
X4380229Y-2531363D01*
X4370070Y-2526284D01*
X4349241Y-2526284D01*
X4338827Y-2531363D01*
X4328413Y-2541778D01*
X4323079Y-2552192D01*
X4318000Y-2567939D01*
X4318000Y-2593847D01*
X4323079Y-2609342D01*
X4328413Y-2619755D01*
X4338827Y-2630170D01*
X4349241Y-2635250D01*
X4370070Y-2635250D01*
X4380229Y-2630170D01*
X4390643Y-2619755D01*
X4395977Y-2609342D01*
X4395977Y-2593847D01*
X4370070Y-2593847D02*
G01*
X4395977Y-2593847D01*
X4430268Y-2526284D02*
G01*
X4430268Y-2635250D01*
X4430268Y-2526284D02*
G01*
X4502911Y-2635250D01*
X4502911Y-2526284D02*
G01*
X4502911Y-2635250D01*
X4537202Y-2526284D02*
G01*
X4537202Y-2635250D01*
X4537202Y-2526284D02*
G01*
X4573524Y-2526284D01*
X4589272Y-2531363D01*
X4599686Y-2541778D01*
X4604765Y-2552192D01*
X4610100Y-2567939D01*
X4610100Y-2593847D01*
X4604765Y-2609342D01*
X4599686Y-2619755D01*
X4589272Y-2630170D01*
X4573524Y-2635250D01*
X4537202Y-2635250D01*
D27*
X4865877Y-1556257D02*
G01*
X4860543Y-1545844D01*
X4850129Y-1535429D01*
X4839970Y-1530350D01*
X4819141Y-1530350D01*
X4808727Y-1535429D01*
X4798313Y-1545844D01*
X4792979Y-1556257D01*
X4787900Y-1572005D01*
X4787900Y-1597913D01*
X4792979Y-1613407D01*
X4798313Y-1623821D01*
X4808727Y-1634236D01*
X4819141Y-1639315D01*
X4839970Y-1639315D01*
X4850129Y-1634236D01*
X4860543Y-1623821D01*
X4865877Y-1613407D01*
X4865877Y-1597913D01*
X4839970Y-1597913D02*
G01*
X4865877Y-1597913D01*
X4900168Y-1530350D02*
G01*
X4900168Y-1639315D01*
X4900168Y-1530350D02*
G01*
X4946904Y-1530350D01*
X4962397Y-1535429D01*
X4967731Y-1540763D01*
X4972811Y-1551178D01*
X4972811Y-1566671D01*
X4967731Y-1577086D01*
X4962397Y-1582165D01*
X4946904Y-1587500D01*
X4900168Y-1587500D01*
X5080000Y-1545844D02*
G01*
X5069586Y-1535429D01*
X5053838Y-1530350D01*
X5033009Y-1530350D01*
X5017515Y-1535429D01*
X5007102Y-1545844D01*
X5007102Y-1556257D01*
X5012436Y-1566671D01*
X5017515Y-1572005D01*
X5027929Y-1577086D01*
X5059172Y-1587500D01*
X5069586Y-1592579D01*
X5074665Y-1597913D01*
X5080000Y-1608328D01*
X5080000Y-1623821D01*
X5069586Y-1634236D01*
X5053838Y-1639315D01*
X5033009Y-1639315D01*
X5017515Y-1634236D01*
X5007102Y-1623821D01*
X5765800Y-1586484D02*
G01*
X5765800Y-1695450D01*
X5765800Y-1586484D02*
G01*
X5812536Y-1586484D01*
X5828029Y-1591563D01*
X5833363Y-1596897D01*
X5838443Y-1607312D01*
X5838443Y-1617726D01*
X5833363Y-1628139D01*
X5828029Y-1633220D01*
X5812536Y-1638300D01*
X5765800Y-1638300D01*
X5802122Y-1638300D02*
G01*
X5838443Y-1695450D01*
X5872734Y-1607312D02*
G01*
X5883147Y-1601978D01*
X5898895Y-1586484D01*
X5898895Y-1695450D01*
X5765800Y-2958084D02*
G01*
X5765800Y-3067050D01*
X5765800Y-2958084D02*
G01*
X5812536Y-2958084D01*
X5828029Y-2963163D01*
X5833363Y-2968497D01*
X5838443Y-2978912D01*
X5838443Y-2989326D01*
X5833363Y-2999739D01*
X5828029Y-3004820D01*
X5812536Y-3009900D01*
X5765800Y-3009900D01*
X5802122Y-3009900D02*
G01*
X5838443Y-3067050D01*
X5878068Y-2983992D02*
G01*
X5878068Y-2978912D01*
X5883147Y-2968497D01*
X5888481Y-2963163D01*
X5898895Y-2958084D01*
X5919470Y-2958084D01*
X5929884Y-2963163D01*
X5935218Y-2968497D01*
X5940297Y-2978912D01*
X5940297Y-2989326D01*
X5935218Y-2999739D01*
X5924804Y-3015234D01*
X5872734Y-3067050D01*
X5945631Y-3067050D01*
X3708400Y-1535684D02*
G01*
X3708400Y-1644650D01*
X3708400Y-1535684D02*
G01*
X3775963Y-1535684D01*
X3708400Y-1587500D02*
G01*
X3750056Y-1587500D01*
X3708400Y-1644650D02*
G01*
X3775963Y-1644650D01*
X3810254Y-1556512D02*
G01*
X3820668Y-1551178D01*
X3836161Y-1535684D01*
X3836161Y-1644650D01*
X4064000Y-1535684D02*
G01*
X4064000Y-1644650D01*
X4064000Y-1535684D02*
G01*
X4131563Y-1535684D01*
X4064000Y-1587500D02*
G01*
X4105656Y-1587500D01*
X4064000Y-1644650D02*
G01*
X4131563Y-1644650D01*
X4170934Y-1561592D02*
G01*
X4170934Y-1556512D01*
X4176268Y-1546097D01*
X4181347Y-1540763D01*
X4191761Y-1535684D01*
X4212590Y-1535684D01*
X4223004Y-1540763D01*
X4228084Y-1546097D01*
X4233418Y-1556512D01*
X4233418Y-1566926D01*
X4228084Y-1577339D01*
X4217670Y-1592834D01*
X4165854Y-1644650D01*
X4238497Y-1644650D01*
X1982977Y-1129792D02*
G01*
X1977643Y-1119378D01*
X1967229Y-1108963D01*
X1957070Y-1103884D01*
X1936241Y-1103884D01*
X1925828Y-1108963D01*
X1915413Y-1119378D01*
X1910079Y-1129792D01*
X1905000Y-1145539D01*
X1905000Y-1171447D01*
X1910079Y-1186942D01*
X1915413Y-1197355D01*
X1925828Y-1207770D01*
X1936241Y-1212850D01*
X1957070Y-1212850D01*
X1967229Y-1207770D01*
X1977643Y-1197355D01*
X1982977Y-1186942D01*
X1982977Y-1171447D01*
X1957070Y-1171447D02*
G01*
X1982977Y-1171447D01*
X2017268Y-1103884D02*
G01*
X2017268Y-1212850D01*
X2017268Y-1103884D02*
G01*
X2089911Y-1212850D01*
X2089911Y-1103884D02*
G01*
X2089911Y-1212850D01*
X2124202Y-1103884D02*
G01*
X2124202Y-1212850D01*
X2124202Y-1103884D02*
G01*
X2160524Y-1103884D01*
X2176272Y-1108963D01*
X2186686Y-1119378D01*
X2191765Y-1129792D01*
X2197100Y-1145539D01*
X2197100Y-1171447D01*
X2191765Y-1186942D01*
X2186686Y-1197355D01*
X2176272Y-1207770D01*
X2160524Y-1212850D01*
X2124202Y-1212850D01*
X2231390Y-1124712D02*
G01*
X2241550Y-1119378D01*
X2257297Y-1103884D01*
X2257297Y-1212850D01*
X2998977Y-1129792D02*
G01*
X2993643Y-1119378D01*
X2983229Y-1108963D01*
X2973070Y-1103884D01*
X2952241Y-1103884D01*
X2941827Y-1108963D01*
X2931413Y-1119378D01*
X2926079Y-1129792D01*
X2921000Y-1145539D01*
X2921000Y-1171447D01*
X2926079Y-1186942D01*
X2931413Y-1197355D01*
X2941827Y-1207770D01*
X2952241Y-1212850D01*
X2973070Y-1212850D01*
X2983229Y-1207770D01*
X2993643Y-1197355D01*
X2998977Y-1186942D01*
X2998977Y-1171447D01*
X2973070Y-1171447D02*
G01*
X2998977Y-1171447D01*
X3033268Y-1103884D02*
G01*
X3033268Y-1212850D01*
X3033268Y-1103884D02*
G01*
X3105911Y-1212850D01*
X3105911Y-1103884D02*
G01*
X3105911Y-1212850D01*
X3140202Y-1103884D02*
G01*
X3140202Y-1212850D01*
X3140202Y-1103884D02*
G01*
X3176524Y-1103884D01*
X3192272Y-1108963D01*
X3202686Y-1119378D01*
X3207765Y-1129792D01*
X3213100Y-1145539D01*
X3213100Y-1171447D01*
X3207765Y-1186942D01*
X3202686Y-1197355D01*
X3192272Y-1207770D01*
X3176524Y-1212850D01*
X3140202Y-1212850D01*
X3252470Y-1129792D02*
G01*
X3252470Y-1124712D01*
X3257550Y-1114297D01*
X3262884Y-1108963D01*
X3273297Y-1103884D01*
X3294125Y-1103884D01*
X3304540Y-1108963D01*
X3309620Y-1114297D01*
X3314700Y-1124712D01*
X3314700Y-1135126D01*
X3309620Y-1145539D01*
X3299206Y-1161034D01*
X3247390Y-1212850D01*
X3320034Y-1212850D01*
X7772400Y-1078484D02*
G01*
X7772400Y-1187450D01*
X7806690Y-1078484D02*
G01*
X7806690Y-1187450D01*
X7806690Y-1078484D02*
G01*
X7848345Y-1187450D01*
X7889747Y-1078484D02*
G01*
X7848345Y-1187450D01*
X7889747Y-1078484D02*
G01*
X7889747Y-1187450D01*
X7924038Y-1078484D02*
G01*
X7924038Y-1156462D01*
X7929372Y-1171955D01*
X7939786Y-1182370D01*
X7955279Y-1187450D01*
X7965693Y-1187450D01*
X7981188Y-1182370D01*
X7991602Y-1171955D01*
X7996936Y-1156462D01*
X7996936Y-1078484D01*
X2612136Y-1119378D02*
G01*
X2612136Y-1212850D01*
X2565400Y-1166113D02*
G01*
X2658872Y-1166113D01*
X2755645Y-1103884D02*
G01*
X2703575Y-1103884D01*
X2698495Y-1150620D01*
X2703575Y-1145539D01*
X2719070Y-1140205D01*
X2734818Y-1140205D01*
X2750311Y-1145539D01*
X2760725Y-1155700D01*
X2766059Y-1171447D01*
X2766059Y-1181862D01*
X2760725Y-1197355D01*
X2750311Y-1207770D01*
X2734818Y-1212850D01*
X2719070Y-1212850D01*
X2703575Y-1207770D01*
X2698495Y-1202689D01*
X2693161Y-1192276D01*
X2800350Y-1103884D02*
G01*
X2841752Y-1212850D01*
X2883408Y-1103884D02*
G01*
X2841752Y-1212850D01*
X1494536Y-1119378D02*
G01*
X1494536Y-1212850D01*
X1447800Y-1166113D02*
G01*
X1541271Y-1166113D01*
X1575562Y-1124712D02*
G01*
X1585976Y-1119378D01*
X1601470Y-1103884D01*
X1601470Y-1212850D01*
X1641094Y-1129792D02*
G01*
X1641094Y-1124712D01*
X1646173Y-1114297D01*
X1651507Y-1108963D01*
X1661921Y-1103884D01*
X1682750Y-1103884D01*
X1692910Y-1108963D01*
X1698244Y-1114297D01*
X1703323Y-1124712D01*
X1703323Y-1135126D01*
X1698244Y-1145539D01*
X1687829Y-1161034D01*
X1635760Y-1212850D01*
X1708657Y-1212850D01*
X1742947Y-1103884D02*
G01*
X1784350Y-1212850D01*
X1826005Y-1103884D02*
G01*
X1784350Y-1212850D01*
X13131800Y-7072884D02*
G01*
X13131800Y-7150862D01*
X13136879Y-7166355D01*
X13147293Y-7176770D01*
X13163041Y-7181850D01*
X13173456Y-7181850D01*
X13188950Y-7176770D01*
X13199363Y-7166355D01*
X13204443Y-7150862D01*
X13204443Y-7072884D01*
X13244068Y-7098792D02*
G01*
X13244068Y-7093712D01*
X13249147Y-7083297D01*
X13254481Y-7077963D01*
X13264895Y-7072884D01*
X13285470Y-7072884D01*
X13295884Y-7077963D01*
X13301218Y-7083297D01*
X13306297Y-7093712D01*
X13306297Y-7104126D01*
X13301218Y-7114539D01*
X13290804Y-7130034D01*
X13238734Y-7181850D01*
X13311631Y-7181850D01*
D23*
X12420117Y-6723153D02*
G01*
X12420117Y-6579897D01*
X12420117Y-6723153D02*
G01*
X12358903Y-6723153D01*
X12338329Y-6716295D01*
X12331471Y-6709437D01*
X12324867Y-6695975D01*
X12324867Y-6675401D01*
X12331471Y-6661685D01*
X12338329Y-6655081D01*
X12358903Y-6648223D01*
X12420117Y-6648223D01*
X12279655Y-6723153D02*
G01*
X12245619Y-6579897D01*
X12211583Y-6723153D02*
G01*
X12245619Y-6579897D01*
X12211583Y-6723153D02*
G01*
X12177547Y-6579897D01*
X12143257Y-6723153D02*
G01*
X12177547Y-6579897D01*
X12098299Y-6723153D02*
G01*
X12098299Y-6579897D01*
X12098299Y-6723153D02*
G01*
X12043943Y-6579897D01*
X11989333Y-6723153D02*
G01*
X12043943Y-6579897D01*
X11989333Y-6723153D02*
G01*
X11989333Y-6579897D01*
X12317849Y-6109083D02*
G01*
X12324707Y-6122799D01*
X12338423Y-6136261D01*
X12352139Y-6143119D01*
X12379317Y-6143119D01*
X12393033Y-6136261D01*
X12406495Y-6122799D01*
X12413353Y-6109083D01*
X12420211Y-6088509D01*
X12420211Y-6054473D01*
X12413353Y-6034153D01*
X12406495Y-6020437D01*
X12393033Y-6006721D01*
X12379317Y-5999863D01*
X12352139Y-5999863D01*
X12338423Y-6006721D01*
X12324707Y-6020437D01*
X12317849Y-6034153D01*
X12317849Y-6054473D01*
X12352139Y-6054473D02*
G01*
X12317849Y-6054473D01*
X12272891Y-6143119D02*
G01*
X12272891Y-5999863D01*
X12272891Y-6143119D02*
G01*
X12177387Y-5999863D01*
X12177387Y-6143119D02*
G01*
X12177387Y-5999863D01*
X12132429Y-6143119D02*
G01*
X12132429Y-5999863D01*
X12132429Y-6143119D02*
G01*
X12084677Y-6143119D01*
X12064357Y-6136261D01*
X12050641Y-6122799D01*
X12043783Y-6109083D01*
X12036925Y-6088509D01*
X12036925Y-6054473D01*
X12043783Y-6034153D01*
X12050641Y-6020437D01*
X12064357Y-6006721D01*
X12084677Y-5999863D01*
X12132429Y-5999863D01*
X10117195Y-6609247D02*
G01*
X10117193Y-6456593D01*
X10069189Y-6609247D02*
G01*
X10069189Y-6456593D01*
X10069189Y-6609247D02*
G01*
X9967335Y-6456593D01*
X9967335Y-6609247D02*
G01*
X9967335Y-6456593D01*
X9919329Y-6522125D02*
G01*
X9788519Y-6522125D01*
X10620207Y-6606473D02*
G01*
X10620207Y-6463217D01*
X10575249Y-6606473D02*
G01*
X10575249Y-6463217D01*
X10575249Y-6606473D02*
G01*
X10479745Y-6463217D01*
X10479745Y-6606473D02*
G01*
X10479745Y-6463217D01*
X10373319Y-6585899D02*
G01*
X10373319Y-6463217D01*
X10434787Y-6524685D02*
G01*
X10312105Y-6524685D01*
X10617085Y-6270261D02*
G01*
X10617085Y-6127005D01*
X10617085Y-6270261D02*
G01*
X10562475Y-6127005D01*
X10508119Y-6270261D02*
G01*
X10562475Y-6127005D01*
X10508119Y-6270261D02*
G01*
X10508119Y-6127005D01*
X10401693Y-6249687D02*
G01*
X10401693Y-6127005D01*
X10463161Y-6188473D02*
G01*
X10340225Y-6188473D01*
X10120114Y-6266865D02*
G01*
X10120114Y-6123609D01*
X10120114Y-6266865D02*
G01*
X10065504Y-6123609D01*
X10011148Y-6266865D02*
G01*
X10065504Y-6123609D01*
X10011148Y-6266865D02*
G01*
X10011148Y-6123609D01*
X9965936Y-6185077D02*
G01*
X9843254Y-6185077D01*
D27*
X76200Y-3720084D02*
G01*
X76200Y-3829050D01*
X76200Y-3720084D02*
G01*
X122936Y-3720084D01*
X138429Y-3725163D01*
X143763Y-3730497D01*
X148844Y-3740912D01*
X148844Y-3756405D01*
X143763Y-3766820D01*
X138429Y-3771900D01*
X122936Y-3777234D01*
X76200Y-3777234D01*
X214376Y-3720084D02*
G01*
X203962Y-3725163D01*
X193547Y-3735578D01*
X188468Y-3745992D01*
X183134Y-3761739D01*
X183134Y-3787647D01*
X188468Y-3803142D01*
X193547Y-3813555D01*
X203962Y-3823970D01*
X214376Y-3829050D01*
X235204Y-3829050D01*
X245618Y-3823970D01*
X256031Y-3813555D01*
X261112Y-3803142D01*
X266445Y-3787647D01*
X266445Y-3761739D01*
X261112Y-3745992D01*
X256031Y-3735578D01*
X245618Y-3725163D01*
X235204Y-3720084D01*
X214376Y-3720084D01*
X300736Y-3720084D02*
G01*
X326644Y-3829050D01*
X352552Y-3720084D02*
G01*
X326644Y-3829050D01*
X352552Y-3720084D02*
G01*
X378460Y-3829050D01*
X404621Y-3720084D02*
G01*
X378460Y-3829050D01*
X438912Y-3720084D02*
G01*
X438912Y-3829050D01*
X438912Y-3720084D02*
G01*
X506476Y-3720084D01*
X438912Y-3771900D02*
G01*
X480313Y-3771900D01*
X438912Y-3829050D02*
G01*
X506476Y-3829050D01*
X540765Y-3720084D02*
G01*
X540765Y-3829050D01*
X540765Y-3720084D02*
G01*
X587502Y-3720084D01*
X602995Y-3725163D01*
X608329Y-3730497D01*
X613410Y-3740912D01*
X613410Y-3751326D01*
X608329Y-3761739D01*
X602995Y-3766820D01*
X587502Y-3771900D01*
X540765Y-3771900D01*
X577087Y-3771900D02*
G01*
X613410Y-3829050D01*
D23*
X607568Y-2844800D02*
G01*
X607568Y-2975610D01*
X647700Y-3418331D02*
G01*
X516636Y-3418331D01*
X582168Y-3352800D02*
G01*
X582168Y-3483610D01*
D27*
X14652243Y-6631178D02*
G01*
X14641829Y-6620763D01*
X14626336Y-6615684D01*
X14605508Y-6615684D01*
X14590013Y-6620763D01*
X14579600Y-6631178D01*
X14579600Y-6641592D01*
X14584679Y-6652005D01*
X14590013Y-6657339D01*
X14600427Y-6662420D01*
X14631670Y-6672834D01*
X14641829Y-6677913D01*
X14647163Y-6683247D01*
X14652243Y-6693662D01*
X14652243Y-6709155D01*
X14641829Y-6719570D01*
X14626336Y-6724650D01*
X14605508Y-6724650D01*
X14590013Y-6719570D01*
X14579600Y-6709155D01*
X14686534Y-6636512D02*
G01*
X14696947Y-6631178D01*
X14712695Y-6615684D01*
X14712695Y-6724650D01*
X14884400Y-6345428D02*
G01*
X14898370Y-6338570D01*
X14918943Y-6317742D01*
X14918943Y-6463029D01*
X15145258Y-6352286D02*
G01*
X15145258Y-6345428D01*
X15152370Y-6331457D01*
X15159227Y-6324600D01*
X15172943Y-6317742D01*
X15200629Y-6317742D01*
X15214600Y-6324600D01*
X15221458Y-6331457D01*
X15228570Y-6345428D01*
X15228570Y-6359144D01*
X15221458Y-6373113D01*
X15207741Y-6393942D01*
X15138400Y-6463029D01*
X15235427Y-6463029D01*
X15406370Y-6317742D02*
G01*
X15482570Y-6317742D01*
X15440913Y-6373113D01*
X15461741Y-6373113D01*
X15475458Y-6379971D01*
X15482570Y-6386829D01*
X15489427Y-6407657D01*
X15489427Y-6421628D01*
X15482570Y-6442455D01*
X15468600Y-6456171D01*
X15447772Y-6463029D01*
X15426943Y-6463029D01*
X15406370Y-6456171D01*
X15399258Y-6449313D01*
X15392400Y-6435344D01*
X16125443Y-6631178D02*
G01*
X16115029Y-6620763D01*
X16099536Y-6615684D01*
X16078708Y-6615684D01*
X16063213Y-6620763D01*
X16052800Y-6631178D01*
X16052800Y-6641592D01*
X16057879Y-6652005D01*
X16063213Y-6657339D01*
X16073627Y-6662420D01*
X16104870Y-6672834D01*
X16115029Y-6677913D01*
X16120363Y-6683247D01*
X16125443Y-6693662D01*
X16125443Y-6709155D01*
X16115029Y-6719570D01*
X16099536Y-6724650D01*
X16078708Y-6724650D01*
X16063213Y-6719570D01*
X16052800Y-6709155D01*
X16165068Y-6641592D02*
G01*
X16165068Y-6636512D01*
X16170147Y-6626097D01*
X16175481Y-6620763D01*
X16185895Y-6615684D01*
X16206470Y-6615684D01*
X16216884Y-6620763D01*
X16222218Y-6626097D01*
X16227297Y-6636512D01*
X16227297Y-6646926D01*
X16222218Y-6657339D01*
X16211804Y-6672834D01*
X16159734Y-6724650D01*
X16232631Y-6724650D01*
X16408400Y-6345428D02*
G01*
X16422370Y-6338570D01*
X16442943Y-6317742D01*
X16442943Y-6463029D01*
X16669258Y-6352286D02*
G01*
X16669258Y-6345428D01*
X16676370Y-6331457D01*
X16683227Y-6324600D01*
X16696943Y-6317742D01*
X16724629Y-6317742D01*
X16738600Y-6324600D01*
X16745458Y-6331457D01*
X16752570Y-6345428D01*
X16752570Y-6359144D01*
X16745458Y-6373113D01*
X16731741Y-6393942D01*
X16662400Y-6463029D01*
X16759427Y-6463029D01*
X16930370Y-6317742D02*
G01*
X17006570Y-6317742D01*
X16964913Y-6373113D01*
X16985741Y-6373113D01*
X16999458Y-6379971D01*
X17006570Y-6386829D01*
X17013427Y-6407657D01*
X17013427Y-6421628D01*
X17006570Y-6442455D01*
X16992600Y-6456171D01*
X16971772Y-6463029D01*
X16950943Y-6463029D01*
X16930370Y-6456171D01*
X16923258Y-6449313D01*
X16916400Y-6435344D01*
X14626843Y1573021D02*
G01*
X14616429Y1583436D01*
X14600936Y1588515D01*
X14580108Y1588515D01*
X14564613Y1583436D01*
X14554200Y1573021D01*
X14554200Y1562607D01*
X14559279Y1552194D01*
X14564613Y1546860D01*
X14575027Y1541779D01*
X14606270Y1531365D01*
X14616429Y1526286D01*
X14621763Y1520952D01*
X14626843Y1510537D01*
X14626843Y1495044D01*
X14616429Y1484629D01*
X14600936Y1479550D01*
X14580108Y1479550D01*
X14564613Y1484629D01*
X14554200Y1495044D01*
X14671547Y1588515D02*
G01*
X14728697Y1588515D01*
X14697709Y1546860D01*
X14713204Y1546860D01*
X14723618Y1541779D01*
X14728697Y1536700D01*
X14734031Y1520952D01*
X14734031Y1510537D01*
X14728697Y1495044D01*
X14718284Y1484629D01*
X14702790Y1479550D01*
X14687295Y1479550D01*
X14671547Y1484629D01*
X14666468Y1489710D01*
X14661134Y1500123D01*
X14884400Y1858771D02*
G01*
X14898370Y1865629D01*
X14918943Y1886457D01*
X14918943Y1741170D01*
X15145258Y1851913D02*
G01*
X15145258Y1858771D01*
X15152370Y1872742D01*
X15159227Y1879600D01*
X15172943Y1886457D01*
X15200629Y1886457D01*
X15214600Y1879600D01*
X15221458Y1872742D01*
X15228570Y1858771D01*
X15228570Y1845055D01*
X15221458Y1831086D01*
X15207741Y1810257D01*
X15138400Y1741170D01*
X15235427Y1741170D01*
X15406370Y1886457D02*
G01*
X15482570Y1886457D01*
X15440913Y1831086D01*
X15461741Y1831086D01*
X15475458Y1824228D01*
X15482570Y1817370D01*
X15489427Y1796542D01*
X15489427Y1782571D01*
X15482570Y1761744D01*
X15468600Y1748028D01*
X15447772Y1741170D01*
X15426943Y1741170D01*
X15406370Y1748028D01*
X15399258Y1754886D01*
X15392400Y1768855D01*
X16150843Y1547621D02*
G01*
X16140429Y1558036D01*
X16124936Y1563115D01*
X16104108Y1563115D01*
X16088613Y1558036D01*
X16078200Y1547621D01*
X16078200Y1537207D01*
X16083279Y1526794D01*
X16088613Y1521460D01*
X16099027Y1516379D01*
X16130270Y1505965D01*
X16140429Y1500886D01*
X16145763Y1495552D01*
X16150843Y1485137D01*
X16150843Y1469644D01*
X16140429Y1459229D01*
X16124936Y1454150D01*
X16104108Y1454150D01*
X16088613Y1459229D01*
X16078200Y1469644D01*
X16237204Y1563115D02*
G01*
X16185134Y1490471D01*
X16263111Y1490471D01*
X16237204Y1563115D02*
G01*
X16237204Y1454150D01*
X16408400Y1858771D02*
G01*
X16422370Y1865629D01*
X16442943Y1886457D01*
X16442943Y1741170D01*
X16669258Y1851913D02*
G01*
X16669258Y1858771D01*
X16676370Y1872742D01*
X16683227Y1879600D01*
X16696943Y1886457D01*
X16724629Y1886457D01*
X16738600Y1879600D01*
X16745458Y1872742D01*
X16752570Y1858771D01*
X16752570Y1845055D01*
X16745458Y1831086D01*
X16731741Y1810257D01*
X16662400Y1741170D01*
X16759427Y1741170D01*
X16930370Y1886457D02*
G01*
X17006570Y1886457D01*
X16964913Y1831086D01*
X16985741Y1831086D01*
X16999458Y1824228D01*
X17006570Y1817370D01*
X17013427Y1796542D01*
X17013427Y1782571D01*
X17006570Y1761744D01*
X16992600Y1748028D01*
X16971772Y1741170D01*
X16950943Y1741170D01*
X16930370Y1748028D01*
X16923258Y1754886D01*
X16916400Y1768855D01*
X712978Y-1002792D02*
G01*
X707644Y-992378D01*
X697229Y-981963D01*
X687070Y-976884D01*
X666242Y-976884D01*
X655828Y-981963D01*
X645413Y-992378D01*
X640079Y-1002792D01*
X635000Y-1018539D01*
X635000Y-1044447D01*
X640079Y-1059942D01*
X645413Y-1070355D01*
X655828Y-1080770D01*
X666242Y-1085850D01*
X687070Y-1085850D01*
X697229Y-1080770D01*
X707644Y-1070355D01*
X712978Y-1059942D01*
X747268Y-997712D02*
G01*
X757681Y-992378D01*
X773176Y-976884D01*
X773176Y-1085850D01*
X15165577Y-5803392D02*
G01*
X15160243Y-5792978D01*
X15149829Y-5782563D01*
X15139670Y-5777484D01*
X15118841Y-5777484D01*
X15108427Y-5782563D01*
X15098013Y-5792978D01*
X15092679Y-5803392D01*
X15087600Y-5819139D01*
X15087600Y-5845047D01*
X15092679Y-5860542D01*
X15098013Y-5870955D01*
X15108427Y-5881370D01*
X15118841Y-5886450D01*
X15139670Y-5886450D01*
X15149829Y-5881370D01*
X15160243Y-5870955D01*
X15165577Y-5860542D01*
X15204947Y-5803392D02*
G01*
X15204947Y-5798312D01*
X15210281Y-5787897D01*
X15215361Y-5782563D01*
X15225775Y-5777484D01*
X15246604Y-5777484D01*
X15257018Y-5782563D01*
X15262097Y-5787897D01*
X15267431Y-5798312D01*
X15267431Y-5808726D01*
X15262097Y-5819139D01*
X15251684Y-5834634D01*
X15199868Y-5886450D01*
X15272511Y-5886450D01*
X16689577Y-5803392D02*
G01*
X16684243Y-5792978D01*
X16673829Y-5782563D01*
X16663670Y-5777484D01*
X16642841Y-5777484D01*
X16632427Y-5782563D01*
X16622013Y-5792978D01*
X16616679Y-5803392D01*
X16611600Y-5819139D01*
X16611600Y-5845047D01*
X16616679Y-5860542D01*
X16622013Y-5870955D01*
X16632427Y-5881370D01*
X16642841Y-5886450D01*
X16663670Y-5886450D01*
X16673829Y-5881370D01*
X16684243Y-5870955D01*
X16689577Y-5860542D01*
X16734281Y-5777484D02*
G01*
X16791431Y-5777484D01*
X16760190Y-5819139D01*
X16775684Y-5819139D01*
X16786098Y-5824220D01*
X16791431Y-5829300D01*
X16796511Y-5845047D01*
X16796511Y-5855462D01*
X16791431Y-5870955D01*
X16781018Y-5881370D01*
X16765270Y-5886450D01*
X16749775Y-5886450D01*
X16734281Y-5881370D01*
X16728947Y-5876289D01*
X16723868Y-5865876D01*
X15165577Y1257807D02*
G01*
X15160243Y1268221D01*
X15149829Y1278636D01*
X15139670Y1283715D01*
X15118841Y1283715D01*
X15108427Y1278636D01*
X15098013Y1268221D01*
X15092679Y1257807D01*
X15087600Y1242060D01*
X15087600Y1216152D01*
X15092679Y1200657D01*
X15098013Y1190244D01*
X15108427Y1179829D01*
X15118841Y1174750D01*
X15139670Y1174750D01*
X15149829Y1179829D01*
X15160243Y1190244D01*
X15165577Y1200657D01*
X15251684Y1283715D02*
G01*
X15199868Y1211071D01*
X15277845Y1211071D01*
X15251684Y1283715D02*
G01*
X15251684Y1174750D01*
X16689577Y1257807D02*
G01*
X16684243Y1268221D01*
X16673829Y1278636D01*
X16663670Y1283715D01*
X16642841Y1283715D01*
X16632427Y1278636D01*
X16622013Y1268221D01*
X16616679Y1257807D01*
X16611600Y1242060D01*
X16611600Y1216152D01*
X16616679Y1200657D01*
X16622013Y1190244D01*
X16632427Y1179829D01*
X16642841Y1174750D01*
X16663670Y1174750D01*
X16673829Y1179829D01*
X16684243Y1190244D01*
X16689577Y1200657D01*
X16786098Y1283715D02*
G01*
X16734281Y1283715D01*
X16728947Y1236979D01*
X16734281Y1242060D01*
X16749775Y1247394D01*
X16765270Y1247394D01*
X16781018Y1242060D01*
X16791431Y1231900D01*
X16796511Y1216152D01*
X16796511Y1205737D01*
X16791431Y1190244D01*
X16781018Y1179829D01*
X16765270Y1174750D01*
X16749775Y1174750D01*
X16734281Y1179829D01*
X16728947Y1184910D01*
X16723868Y1195323D01*
X13616177Y-3314192D02*
G01*
X13610843Y-3303778D01*
X13600429Y-3293363D01*
X13590270Y-3288284D01*
X13569441Y-3288284D01*
X13559027Y-3293363D01*
X13548613Y-3303778D01*
X13543279Y-3314192D01*
X13538200Y-3329939D01*
X13538200Y-3355847D01*
X13543279Y-3371342D01*
X13548613Y-3381755D01*
X13559027Y-3392170D01*
X13569441Y-3397250D01*
X13590270Y-3397250D01*
X13600429Y-3392170D01*
X13610843Y-3381755D01*
X13616177Y-3371342D01*
X13712697Y-3303778D02*
G01*
X13707618Y-3293363D01*
X13691870Y-3288284D01*
X13681709Y-3288284D01*
X13665961Y-3293363D01*
X13655547Y-3309112D01*
X13650468Y-3335020D01*
X13650468Y-3360928D01*
X13655547Y-3381755D01*
X13665961Y-3392170D01*
X13681709Y-3397250D01*
X13686790Y-3397250D01*
X13702284Y-3392170D01*
X13712697Y-3381755D01*
X13718031Y-3366262D01*
X13718031Y-3360928D01*
X13712697Y-3345434D01*
X13702284Y-3335020D01*
X13686790Y-3329939D01*
X13681709Y-3329939D01*
X13665961Y-3335020D01*
X13655547Y-3345434D01*
X13650468Y-3360928D01*
X13641577Y-3974592D02*
G01*
X13636243Y-3964178D01*
X13625829Y-3953763D01*
X13615670Y-3948684D01*
X13594841Y-3948684D01*
X13584427Y-3953763D01*
X13574013Y-3964178D01*
X13568679Y-3974592D01*
X13563600Y-3990339D01*
X13563600Y-4016247D01*
X13568679Y-4031742D01*
X13574013Y-4042155D01*
X13584427Y-4052570D01*
X13594841Y-4057650D01*
X13615670Y-4057650D01*
X13625829Y-4052570D01*
X13636243Y-4042155D01*
X13641577Y-4031742D01*
X13748511Y-3948684D02*
G01*
X13696695Y-4057650D01*
X13675868Y-3948684D02*
G01*
X13748511Y-3948684D01*
X16181577Y-3288792D02*
G01*
X16176243Y-3278378D01*
X16165829Y-3267963D01*
X16155670Y-3262884D01*
X16134841Y-3262884D01*
X16124427Y-3267963D01*
X16114013Y-3278378D01*
X16108679Y-3288792D01*
X16103600Y-3304539D01*
X16103600Y-3330447D01*
X16108679Y-3345942D01*
X16114013Y-3356355D01*
X16124427Y-3366770D01*
X16134841Y-3371850D01*
X16155670Y-3371850D01*
X16165829Y-3366770D01*
X16176243Y-3356355D01*
X16181577Y-3345942D01*
X16241775Y-3262884D02*
G01*
X16226281Y-3267963D01*
X16220947Y-3278378D01*
X16220947Y-3288792D01*
X16226281Y-3299205D01*
X16236695Y-3304539D01*
X16257270Y-3309620D01*
X16273018Y-3314700D01*
X16283431Y-3325113D01*
X16288511Y-3335528D01*
X16288511Y-3351276D01*
X16283431Y-3361689D01*
X16278097Y-3366770D01*
X16262604Y-3371850D01*
X16241775Y-3371850D01*
X16226281Y-3366770D01*
X16220947Y-3361689D01*
X16215868Y-3351276D01*
X16215868Y-3335528D01*
X16220947Y-3325113D01*
X16231361Y-3314700D01*
X16247109Y-3309620D01*
X16267684Y-3304539D01*
X16278097Y-3299205D01*
X16283431Y-3288792D01*
X16283431Y-3278378D01*
X16278097Y-3267963D01*
X16262604Y-3262884D01*
X16241775Y-3262884D01*
X16206977Y-3949192D02*
G01*
X16201643Y-3938778D01*
X16191229Y-3928363D01*
X16181070Y-3923284D01*
X16160241Y-3923284D01*
X16149827Y-3928363D01*
X16139413Y-3938778D01*
X16134079Y-3949192D01*
X16129000Y-3964939D01*
X16129000Y-3990847D01*
X16134079Y-4006342D01*
X16139413Y-4016755D01*
X16149827Y-4027170D01*
X16160241Y-4032250D01*
X16181070Y-4032250D01*
X16191229Y-4027170D01*
X16201643Y-4016755D01*
X16206977Y-4006342D01*
X16308831Y-3959605D02*
G01*
X16303497Y-3975100D01*
X16293084Y-3985513D01*
X16277590Y-3990847D01*
X16272509Y-3990847D01*
X16256761Y-3985513D01*
X16246347Y-3975100D01*
X16241268Y-3959605D01*
X16241268Y-3954526D01*
X16246347Y-3938778D01*
X16256761Y-3928363D01*
X16272509Y-3923284D01*
X16277590Y-3923284D01*
X16293084Y-3928363D01*
X16303497Y-3938778D01*
X16308831Y-3959605D01*
X16308831Y-3985513D01*
X16303497Y-4011676D01*
X16293084Y-4027170D01*
X16277590Y-4032250D01*
X16267175Y-4032250D01*
X16251681Y-4027170D01*
X16246347Y-4016755D01*
X13599668Y-2673857D02*
G01*
X13594334Y-2663444D01*
X13583920Y-2653029D01*
X13573759Y-2647950D01*
X13552931Y-2647950D01*
X13542518Y-2653029D01*
X13532104Y-2663444D01*
X13526770Y-2673857D01*
X13521690Y-2689605D01*
X13521690Y-2715513D01*
X13526770Y-2731007D01*
X13532104Y-2741421D01*
X13542518Y-2751836D01*
X13552931Y-2756915D01*
X13573759Y-2756915D01*
X13583920Y-2751836D01*
X13594334Y-2741421D01*
X13599668Y-2731007D01*
X13633958Y-2668778D02*
G01*
X13644372Y-2663444D01*
X13659866Y-2647950D01*
X13659866Y-2756915D01*
X13725397Y-2647950D02*
G01*
X13709650Y-2653029D01*
X13699490Y-2668778D01*
X13694156Y-2694686D01*
X13694156Y-2710179D01*
X13699490Y-2736342D01*
X13709650Y-2751836D01*
X13725397Y-2756915D01*
X13735811Y-2756915D01*
X13751306Y-2751836D01*
X13761720Y-2736342D01*
X13766800Y-2710179D01*
X13766800Y-2694686D01*
X13761720Y-2668778D01*
X13751306Y-2653029D01*
X13735811Y-2647950D01*
X13725397Y-2647950D01*
X11050777Y-3923792D02*
G01*
X11045443Y-3913378D01*
X11035029Y-3902963D01*
X11024870Y-3897884D01*
X11004041Y-3897884D01*
X10993627Y-3902963D01*
X10983213Y-3913378D01*
X10977879Y-3923792D01*
X10972800Y-3939539D01*
X10972800Y-3965447D01*
X10977879Y-3980942D01*
X10983213Y-3991355D01*
X10993627Y-4001770D01*
X11004041Y-4006850D01*
X11024870Y-4006850D01*
X11035029Y-4001770D01*
X11045443Y-3991355D01*
X11050777Y-3980942D01*
X11085068Y-3918712D02*
G01*
X11095481Y-3913378D01*
X11110975Y-3897884D01*
X11110975Y-4006850D01*
X11145265Y-3918712D02*
G01*
X11155679Y-3913378D01*
X11171174Y-3897884D01*
X11171174Y-4006850D01*
X16181577Y-2628392D02*
G01*
X16176243Y-2617978D01*
X16165829Y-2607563D01*
X16155670Y-2602484D01*
X16134841Y-2602484D01*
X16124427Y-2607563D01*
X16114013Y-2617978D01*
X16108679Y-2628392D01*
X16103600Y-2644139D01*
X16103600Y-2670047D01*
X16108679Y-2685542D01*
X16114013Y-2695955D01*
X16124427Y-2706370D01*
X16134841Y-2711450D01*
X16155670Y-2711450D01*
X16165829Y-2706370D01*
X16176243Y-2695955D01*
X16181577Y-2685542D01*
X16215868Y-2623312D02*
G01*
X16226281Y-2617978D01*
X16241775Y-2602484D01*
X16241775Y-2711450D01*
X16281400Y-2628392D02*
G01*
X16281400Y-2623312D01*
X16286479Y-2612897D01*
X16291559Y-2607563D01*
X16301974Y-2602484D01*
X16322802Y-2602484D01*
X16333216Y-2607563D01*
X16338550Y-2612897D01*
X16343629Y-2623312D01*
X16343629Y-2633726D01*
X16338550Y-2644139D01*
X16328136Y-2659634D01*
X16276066Y-2711450D01*
X16348709Y-2711450D01*
X9982288Y293154D02*
G01*
X9982288Y184188D01*
X9982288Y293154D02*
G01*
X10029024Y293154D01*
X10044518Y288074D01*
X10049852Y282740D01*
X10054932Y272326D01*
X10054932Y261912D01*
X10049852Y251498D01*
X10044518Y246418D01*
X10029024Y241338D01*
X9982288Y241338D01*
X10018610Y241338D02*
G01*
X10054932Y184188D01*
X10151706Y293154D02*
G01*
X10099636Y293154D01*
X10094556Y246418D01*
X10099636Y251498D01*
X10115384Y256832D01*
X10130878Y256832D01*
X10146372Y251498D01*
X10156786Y241338D01*
X10162120Y225590D01*
X10162120Y215176D01*
X10156786Y199682D01*
X10146372Y189268D01*
X10130878Y184188D01*
X10115384Y184188D01*
X10099636Y189268D01*
X10094556Y194348D01*
X10089222Y204762D01*
D23*
X12180544Y-4185196D02*
G01*
X12171400Y-4166654D01*
X12152858Y-4148366D01*
X12134570Y-4138968D01*
X12106630Y-4129824D01*
X12060656Y-4129824D01*
X12032970Y-4138968D01*
X12014428Y-4148366D01*
X11995886Y-4166654D01*
X11986742Y-4185196D01*
X11986742Y-4222280D01*
X11995886Y-4240568D01*
X12014428Y-4259110D01*
X12032970Y-4268254D01*
X12060656Y-4277652D01*
X12106630Y-4277652D01*
X12134570Y-4268254D01*
X12152858Y-4259110D01*
X12171400Y-4240568D01*
X12180544Y-4222280D01*
X12180544Y-4185196D01*
X12180544Y-4338612D02*
G01*
X12042114Y-4338612D01*
X12014428Y-4347756D01*
X11995886Y-4366298D01*
X11986742Y-4393984D01*
X11986742Y-4412526D01*
X11995886Y-4440212D01*
X12014428Y-4458754D01*
X12042114Y-4467898D01*
X12180544Y-4467898D01*
X12180544Y-4593374D02*
G01*
X11986742Y-4593374D01*
X12180544Y-4528858D02*
G01*
X12180544Y-4658144D01*
X12152858Y-4802162D02*
G01*
X11986742Y-4802162D01*
X12069800Y-4719104D02*
G01*
X12069800Y-4885474D01*
X10215346Y-4185107D02*
G01*
X10206202Y-4166565D01*
X10187660Y-4148277D01*
X10169118Y-4138879D01*
X10141432Y-4129735D01*
X10095204Y-4129735D01*
X10067518Y-4138879D01*
X10048976Y-4148277D01*
X10030688Y-4166565D01*
X10021290Y-4185107D01*
X10021290Y-4222191D01*
X10030688Y-4240479D01*
X10048976Y-4259021D01*
X10067518Y-4268165D01*
X10095204Y-4277563D01*
X10141432Y-4277563D01*
X10169118Y-4268165D01*
X10187660Y-4259021D01*
X10206202Y-4240479D01*
X10215346Y-4222191D01*
X10215346Y-4185107D01*
X10215346Y-4338523D02*
G01*
X10076916Y-4338523D01*
X10048976Y-4347667D01*
X10030688Y-4366209D01*
X10021290Y-4393895D01*
X10021290Y-4412437D01*
X10030688Y-4440123D01*
X10048976Y-4458665D01*
X10076916Y-4467809D01*
X10215346Y-4467809D01*
X10215346Y-4593285D02*
G01*
X10021290Y-4593285D01*
X10215346Y-4528769D02*
G01*
X10215346Y-4658055D01*
X10104602Y-4719015D02*
G01*
X10104602Y-4885385D01*
X10242854Y-224370D02*
G01*
X10048798Y-224370D01*
X10242854Y-285330D02*
G01*
X10048798Y-285330D01*
X10242854Y-285330D02*
G01*
X10048798Y-414616D01*
X10242854Y-414616D02*
G01*
X10048798Y-414616D01*
X10132110Y-475576D02*
G01*
X10132110Y-641692D01*
X12169952Y-224459D02*
G01*
X11976150Y-224459D01*
X12169952Y-285419D02*
G01*
X11976150Y-285419D01*
X12169952Y-285419D02*
G01*
X11976150Y-414705D01*
X12169952Y-414705D02*
G01*
X11976150Y-414705D01*
X12142266Y-558723D02*
G01*
X11976150Y-558723D01*
X12059208Y-475665D02*
G01*
X12059208Y-641781D01*
D27*
X12547600Y293154D02*
G01*
X12547600Y184188D01*
X12547600Y293154D02*
G01*
X12594336Y293154D01*
X12609829Y288074D01*
X12615163Y282740D01*
X12620243Y272326D01*
X12620243Y261912D01*
X12615163Y251498D01*
X12609829Y246418D01*
X12594336Y241338D01*
X12547600Y241338D01*
X12583922Y241338D02*
G01*
X12620243Y184188D01*
X12717018Y277660D02*
G01*
X12711684Y288074D01*
X12696190Y293154D01*
X12685775Y293154D01*
X12670281Y288074D01*
X12659868Y272326D01*
X12654534Y246418D01*
X12654534Y220510D01*
X12659868Y199682D01*
X12670281Y189268D01*
X12685775Y184188D01*
X12691109Y184188D01*
X12706604Y189268D01*
X12717018Y199682D01*
X12722097Y215176D01*
X12722097Y220510D01*
X12717018Y236004D01*
X12706604Y246418D01*
X12691109Y251498D01*
X12685775Y251498D01*
X12670281Y246418D01*
X12659868Y236004D01*
X12654534Y220510D01*
X12756388Y230924D02*
G01*
X12849859Y230924D01*
X12884150Y272326D02*
G01*
X12894563Y277660D01*
X12910311Y293154D01*
X12910311Y184188D01*
X13038074Y313982D02*
G01*
X12944602Y147612D01*
X13077443Y267246D02*
G01*
X13077443Y272326D01*
X13082777Y282740D01*
X13087858Y288074D01*
X13098272Y293154D01*
X13119100Y293154D01*
X13129513Y288074D01*
X13134593Y282740D01*
X13139927Y272326D01*
X13139927Y261912D01*
X13134593Y251498D01*
X13124179Y236004D01*
X13072363Y184188D01*
X13145008Y184188D01*
D23*
X14720455Y-4185196D02*
G01*
X14711311Y-4166654D01*
X14692769Y-4148366D01*
X14674481Y-4138968D01*
X14646541Y-4129824D01*
X14600567Y-4129824D01*
X14572881Y-4138968D01*
X14554339Y-4148366D01*
X14535797Y-4166654D01*
X14526653Y-4185196D01*
X14526653Y-4222280D01*
X14535797Y-4240568D01*
X14554339Y-4259110D01*
X14572881Y-4268254D01*
X14600567Y-4277652D01*
X14646541Y-4277652D01*
X14674481Y-4268254D01*
X14692769Y-4259110D01*
X14711311Y-4240568D01*
X14720455Y-4222280D01*
X14720455Y-4185196D01*
X14720455Y-4338612D02*
G01*
X14582025Y-4338612D01*
X14554339Y-4347756D01*
X14535797Y-4366298D01*
X14526653Y-4393984D01*
X14526653Y-4412526D01*
X14535797Y-4440212D01*
X14554339Y-4458754D01*
X14582025Y-4467898D01*
X14720455Y-4467898D01*
X14720455Y-4593374D02*
G01*
X14526653Y-4593374D01*
X14720455Y-4528858D02*
G01*
X14720455Y-4658144D01*
X14692769Y-4802162D02*
G01*
X14526653Y-4802162D01*
X14609711Y-4719104D02*
G01*
X14609711Y-4885474D01*
X12755257Y-4185107D02*
G01*
X12746113Y-4166565D01*
X12727571Y-4148277D01*
X12709029Y-4138879D01*
X12681343Y-4129735D01*
X12635115Y-4129735D01*
X12607429Y-4138879D01*
X12588887Y-4148277D01*
X12570599Y-4166565D01*
X12561201Y-4185107D01*
X12561201Y-4222191D01*
X12570599Y-4240479D01*
X12588887Y-4259021D01*
X12607429Y-4268165D01*
X12635115Y-4277563D01*
X12681343Y-4277563D01*
X12709029Y-4268165D01*
X12727571Y-4259021D01*
X12746113Y-4240479D01*
X12755257Y-4222191D01*
X12755257Y-4185107D01*
X12755257Y-4338523D02*
G01*
X12616827Y-4338523D01*
X12588887Y-4347667D01*
X12570599Y-4366209D01*
X12561201Y-4393895D01*
X12561201Y-4412437D01*
X12570599Y-4440123D01*
X12588887Y-4458665D01*
X12616827Y-4467809D01*
X12755257Y-4467809D01*
X12755257Y-4593285D02*
G01*
X12561201Y-4593285D01*
X12755257Y-4528769D02*
G01*
X12755257Y-4658055D01*
X12644513Y-4719015D02*
G01*
X12644513Y-4885385D01*
X12782765Y-224370D02*
G01*
X12588709Y-224370D01*
X12782765Y-285330D02*
G01*
X12588709Y-285330D01*
X12782765Y-285330D02*
G01*
X12588709Y-414616D01*
X12782765Y-414616D02*
G01*
X12588709Y-414616D01*
X12672021Y-475576D02*
G01*
X12672021Y-641692D01*
X14709863Y-224459D02*
G01*
X14516061Y-224459D01*
X14709863Y-285419D02*
G01*
X14516061Y-285419D01*
X14709863Y-285419D02*
G01*
X14516061Y-414705D01*
X14709863Y-414705D02*
G01*
X14516061Y-414705D01*
X14682177Y-558723D02*
G01*
X14516061Y-558723D01*
X14599119Y-475665D02*
G01*
X14599119Y-641781D01*
D27*
X15087688Y293154D02*
G01*
X15087688Y184188D01*
X15087688Y293154D02*
G01*
X15134424Y293154D01*
X15149918Y288074D01*
X15155252Y282740D01*
X15160332Y272326D01*
X15160332Y261912D01*
X15155252Y251498D01*
X15149918Y246418D01*
X15134424Y241338D01*
X15087688Y241338D01*
X15124010Y241338D02*
G01*
X15160332Y184188D01*
X15257106Y277660D02*
G01*
X15251772Y288074D01*
X15236278Y293154D01*
X15225864Y293154D01*
X15210370Y288074D01*
X15199956Y272326D01*
X15194622Y246418D01*
X15194622Y220510D01*
X15199956Y199682D01*
X15210370Y189268D01*
X15225864Y184188D01*
X15231198Y184188D01*
X15246692Y189268D01*
X15257106Y199682D01*
X15262186Y215176D01*
X15262186Y220510D01*
X15257106Y236004D01*
X15246692Y246418D01*
X15231198Y251498D01*
X15225864Y251498D01*
X15210370Y246418D01*
X15199956Y236004D01*
X15194622Y220510D01*
X15296476Y230924D02*
G01*
X15389948Y230924D01*
X15434652Y293154D02*
G01*
X15491802Y293154D01*
X15460814Y251498D01*
X15476308Y251498D01*
X15486722Y246418D01*
X15491802Y241338D01*
X15497136Y225590D01*
X15497136Y215176D01*
X15491802Y199682D01*
X15481388Y189268D01*
X15465894Y184188D01*
X15450400Y184188D01*
X15434652Y189268D01*
X15429572Y194348D01*
X15424238Y204762D01*
X15624898Y313982D02*
G01*
X15531426Y147612D01*
X15711258Y293154D02*
G01*
X15659188Y220510D01*
X15737166Y220510D01*
X15711258Y293154D02*
G01*
X15711258Y184188D01*
D23*
X15099055Y-894803D02*
G01*
X15108199Y-913345D01*
X15126741Y-931633D01*
X15145029Y-941031D01*
X15172969Y-950175D01*
X15218943Y-950175D01*
X15246629Y-941031D01*
X15265171Y-931633D01*
X15283713Y-913345D01*
X15292857Y-894803D01*
X15292857Y-857719D01*
X15283713Y-839431D01*
X15265171Y-820889D01*
X15246629Y-811745D01*
X15218943Y-802347D01*
X15172969Y-802347D01*
X15145029Y-811745D01*
X15126741Y-820889D01*
X15108199Y-839431D01*
X15099055Y-857719D01*
X15099055Y-894803D01*
X15099055Y-741387D02*
G01*
X15237485Y-741387D01*
X15265171Y-732243D01*
X15283713Y-713701D01*
X15292857Y-686015D01*
X15292857Y-667473D01*
X15283713Y-639787D01*
X15265171Y-621245D01*
X15237485Y-612101D01*
X15099055Y-612101D01*
X15099055Y-486625D02*
G01*
X15292857Y-486625D01*
X15099055Y-551141D02*
G01*
X15099055Y-421855D01*
X15126741Y-277837D02*
G01*
X15292857Y-277837D01*
X15209799Y-360895D02*
G01*
X15209799Y-194525D01*
X17064253Y-894892D02*
G01*
X17073397Y-913434D01*
X17091939Y-931722D01*
X17110481Y-941120D01*
X17138167Y-950264D01*
X17184395Y-950264D01*
X17212081Y-941120D01*
X17230623Y-931722D01*
X17248911Y-913434D01*
X17258309Y-894892D01*
X17258309Y-857808D01*
X17248911Y-839520D01*
X17230623Y-820978D01*
X17212081Y-811834D01*
X17184395Y-802436D01*
X17138167Y-802436D01*
X17110481Y-811834D01*
X17091939Y-820978D01*
X17073397Y-839520D01*
X17064253Y-857808D01*
X17064253Y-894892D01*
X17064253Y-741476D02*
G01*
X17202683Y-741476D01*
X17230623Y-732332D01*
X17248911Y-713790D01*
X17258309Y-686104D01*
X17258309Y-667562D01*
X17248911Y-639876D01*
X17230623Y-621334D01*
X17202683Y-612190D01*
X17064253Y-612190D01*
X17064253Y-486714D02*
G01*
X17258309Y-486714D01*
X17064253Y-551230D02*
G01*
X17064253Y-421944D01*
X17174997Y-360984D02*
G01*
X17174997Y-194614D01*
X17036745Y-4855629D02*
G01*
X17230801Y-4855629D01*
X17036745Y-4794669D02*
G01*
X17230801Y-4794669D01*
X17036745Y-4794669D02*
G01*
X17230801Y-4665383D01*
X17036745Y-4665383D02*
G01*
X17230801Y-4665383D01*
X17147489Y-4604423D02*
G01*
X17147489Y-4438307D01*
X15109647Y-4855540D02*
G01*
X15303449Y-4855540D01*
X15109647Y-4794580D02*
G01*
X15303449Y-4794580D01*
X15109647Y-4794580D02*
G01*
X15303449Y-4665294D01*
X15109647Y-4665294D02*
G01*
X15303449Y-4665294D01*
X15137333Y-4521276D02*
G01*
X15303449Y-4521276D01*
X15220391Y-4604334D02*
G01*
X15220391Y-4438218D01*
D27*
X8770874Y108204D02*
G01*
X8725408Y108204D01*
X8720836Y67310D01*
X8725408Y71881D01*
X8738870Y76454D01*
X8752586Y76454D01*
X8766302Y71881D01*
X8775445Y62737D01*
X8780018Y49276D01*
X8780018Y40131D01*
X8775445Y26415D01*
X8766302Y17271D01*
X8752586Y12700D01*
X8738870Y12700D01*
X8725408Y17271D01*
X8720836Y21844D01*
X8716263Y30987D01*
X8809990Y108204D02*
G01*
X8846311Y12700D01*
X8882634Y108204D02*
G01*
X8846311Y12700D01*
X1713229Y-351028D02*
G01*
X1676400Y-448055D01*
X1713229Y-351028D02*
G01*
X1750313Y-448055D01*
X1690370Y-415544D02*
G01*
X1736344Y-415544D01*
X1780794Y-351028D02*
G01*
X1780794Y-448055D01*
X1780794Y-351028D02*
G01*
X1822450Y-351028D01*
X1836165Y-355600D01*
X1840737Y-360171D01*
X1845310Y-369570D01*
X1845310Y-378713D01*
X1840737Y-387857D01*
X1836165Y-392429D01*
X1822450Y-397255D01*
X1780794Y-397255D01*
X1813052Y-397255D02*
G01*
X1845310Y-448055D01*
X1875789Y-351028D02*
G01*
X1875789Y-448055D01*
X1875789Y-351028D02*
G01*
X1935988Y-351028D01*
X1875789Y-397255D02*
G01*
X1912873Y-397255D01*
X1875789Y-448055D02*
G01*
X1935988Y-448055D01*
X1966468Y-351028D02*
G01*
X1966468Y-448055D01*
X1966468Y-351028D02*
G01*
X2026411Y-351028D01*
X1966468Y-397255D02*
G01*
X2003297Y-397255D01*
X2152141Y-374142D02*
G01*
X2147570Y-364744D01*
X2138172Y-355600D01*
X2129027Y-351028D01*
X2110486Y-351028D01*
X2101341Y-355600D01*
X2091943Y-364744D01*
X2087372Y-374142D01*
X2082800Y-387857D01*
X2082800Y-410971D01*
X2087372Y-424942D01*
X2091943Y-434086D01*
X2101341Y-443229D01*
X2110486Y-448055D01*
X2129027Y-448055D01*
X2138172Y-443229D01*
X2147570Y-434086D01*
X2152141Y-424942D01*
X2152141Y-410971D01*
X2129027Y-410971D02*
G01*
X2152141Y-410971D01*
X2182622Y-351028D02*
G01*
X2182622Y-448055D01*
X2182622Y-351028D02*
G01*
X2247138Y-448055D01*
X2247138Y-351028D02*
G01*
X2247138Y-448055D01*
X2277618Y-351028D02*
G01*
X2277618Y-448055D01*
X2277618Y-351028D02*
G01*
X2310129Y-351028D01*
X2323845Y-355600D01*
X2332990Y-364744D01*
X2337815Y-374142D01*
X2342388Y-387857D01*
X2342388Y-410971D01*
X2337815Y-424942D01*
X2332990Y-434086D01*
X2323845Y-443229D01*
X2310129Y-448055D01*
X2277618Y-448055D01*
X4140200Y-4704587D02*
G01*
X4165600Y-4771389D01*
X4191000Y-4704587D02*
G01*
X4165600Y-4771389D01*
X4212081Y-4704587D02*
G01*
X4215384Y-4707636D01*
X4218431Y-4704587D01*
X4215384Y-4701286D01*
X4212081Y-4704587D01*
X4215384Y-4726939D02*
G01*
X4215384Y-4771389D01*
X4239513Y-4726939D02*
G01*
X4239513Y-4771389D01*
X4239513Y-4739639D02*
G01*
X4248911Y-4729987D01*
X4255261Y-4726939D01*
X4264913Y-4726939D01*
X4271263Y-4729987D01*
X4274565Y-4739639D01*
X4274565Y-4771389D01*
X3883152Y-4720589D02*
G01*
X3879850Y-4713986D01*
X3873500Y-4707636D01*
X3867150Y-4704587D01*
X3854450Y-4704587D01*
X3848100Y-4707636D01*
X3841750Y-4713986D01*
X3838702Y-4720589D01*
X3835400Y-4729987D01*
X3835400Y-4745989D01*
X3838702Y-4755387D01*
X3841750Y-4761737D01*
X3848100Y-4768087D01*
X3854450Y-4771389D01*
X3867150Y-4771389D01*
X3873500Y-4768087D01*
X3879850Y-4761737D01*
X3883152Y-4755387D01*
X3883152Y-4745989D01*
X3867150Y-4745989D02*
G01*
X3883152Y-4745989D01*
X3904234Y-4704587D02*
G01*
X3904234Y-4771389D01*
X3904234Y-4704587D02*
G01*
X3948684Y-4771389D01*
X3948684Y-4704587D02*
G01*
X3948684Y-4771389D01*
X3969765Y-4704587D02*
G01*
X3969765Y-4771389D01*
X3969765Y-4704587D02*
G01*
X3991863Y-4704587D01*
X4001515Y-4707636D01*
X4007865Y-4713986D01*
X4010913Y-4720589D01*
X4014215Y-4729987D01*
X4014215Y-4745989D01*
X4010913Y-4755387D01*
X4007865Y-4761737D01*
X4001515Y-4768087D01*
X3991863Y-4771389D01*
X3969765Y-4771389D01*
X3603752Y-4720589D02*
G01*
X3600450Y-4713986D01*
X3594100Y-4707636D01*
X3587750Y-4704587D01*
X3575050Y-4704587D01*
X3568700Y-4707636D01*
X3562350Y-4713986D01*
X3559302Y-4720589D01*
X3556000Y-4729987D01*
X3556000Y-4745989D01*
X3559302Y-4755387D01*
X3562350Y-4761737D01*
X3568700Y-4768087D01*
X3575050Y-4771389D01*
X3587750Y-4771389D01*
X3594100Y-4768087D01*
X3600450Y-4761737D01*
X3603752Y-4755387D01*
X3603752Y-4745989D01*
X3587750Y-4745989D02*
G01*
X3603752Y-4745989D01*
X3624834Y-4704587D02*
G01*
X3624834Y-4771389D01*
X3624834Y-4704587D02*
G01*
X3669284Y-4771389D01*
X3669284Y-4704587D02*
G01*
X3669284Y-4771389D01*
X3690365Y-4704587D02*
G01*
X3690365Y-4771389D01*
X3690365Y-4704587D02*
G01*
X3712463Y-4704587D01*
X3722115Y-4707636D01*
X3728465Y-4713986D01*
X3731513Y-4720589D01*
X3734815Y-4729987D01*
X3734815Y-4745989D01*
X3731513Y-4755387D01*
X3728465Y-4761737D01*
X3722115Y-4768087D01*
X3712463Y-4771389D01*
X3690365Y-4771389D01*
X3390900Y-4704587D02*
G01*
X3359150Y-4704587D01*
X3356102Y-4733289D01*
X3359150Y-4729987D01*
X3368802Y-4726939D01*
X3378200Y-4726939D01*
X3387852Y-4729987D01*
X3394202Y-4736337D01*
X3397250Y-4745989D01*
X3397250Y-4752339D01*
X3394202Y-4761737D01*
X3387852Y-4768087D01*
X3378200Y-4771389D01*
X3368802Y-4771389D01*
X3359150Y-4768087D01*
X3356102Y-4765039D01*
X3352800Y-4758689D01*
X3418331Y-4704587D02*
G01*
X3443731Y-4771389D01*
X3469131Y-4704587D02*
G01*
X3443731Y-4771389D01*
X3054350Y-4704587D02*
G01*
X3089402Y-4704587D01*
X3070352Y-4729987D01*
X3079750Y-4729987D01*
X3086100Y-4733289D01*
X3089402Y-4736337D01*
X3092450Y-4745989D01*
X3092450Y-4752339D01*
X3089402Y-4761737D01*
X3083052Y-4768087D01*
X3073400Y-4771389D01*
X3064002Y-4771389D01*
X3054350Y-4768087D01*
X3051302Y-4765039D01*
X3048000Y-4758689D01*
X3116834Y-4755387D02*
G01*
X3113531Y-4758689D01*
X3116834Y-4761737D01*
X3119881Y-4758689D01*
X3116834Y-4755387D01*
X3147313Y-4704587D02*
G01*
X3182365Y-4704587D01*
X3163061Y-4729987D01*
X3172713Y-4729987D01*
X3179063Y-4733289D01*
X3182365Y-4736337D01*
X3185413Y-4745989D01*
X3185413Y-4752339D01*
X3182365Y-4761737D01*
X3176015Y-4768087D01*
X3166363Y-4771389D01*
X3156711Y-4771389D01*
X3147313Y-4768087D01*
X3144011Y-4765039D01*
X3140963Y-4758689D01*
X3206495Y-4704587D02*
G01*
X3231895Y-4771389D01*
X3257295Y-4704587D02*
G01*
X3231895Y-4771389D01*
X2671063Y-4709921D02*
G01*
X2671063Y-4776723D01*
X2671063Y-4709921D02*
G01*
X2699765Y-4709921D01*
X2709163Y-4712970D01*
X2712465Y-4716271D01*
X2715513Y-4722621D01*
X2715513Y-4728971D01*
X2712465Y-4735321D01*
X2709163Y-4738623D01*
X2699765Y-4741671D01*
X2671063Y-4741671D01*
X2693415Y-4741671D02*
G01*
X2715513Y-4776723D01*
X2736595Y-4709921D02*
G01*
X2736595Y-4776723D01*
X2736595Y-4709921D02*
G01*
X2777997Y-4709921D01*
X2736595Y-4741671D02*
G01*
X2761995Y-4741671D01*
X2736595Y-4776723D02*
G01*
X2777997Y-4776723D01*
X2843529Y-4719320D02*
G01*
X2837179Y-4712970D01*
X2827527Y-4709921D01*
X2814827Y-4709921D01*
X2805429Y-4712970D01*
X2799079Y-4719320D01*
X2799079Y-4725923D01*
X2802127Y-4732273D01*
X2805429Y-4735321D01*
X2811779Y-4738623D01*
X2830829Y-4744973D01*
X2837179Y-4748021D01*
X2840227Y-4751323D01*
X2843529Y-4757673D01*
X2843529Y-4767071D01*
X2837179Y-4773421D01*
X2827527Y-4776723D01*
X2814827Y-4776723D01*
X2805429Y-4773421D01*
X2799079Y-4767071D01*
X2864611Y-4709921D02*
G01*
X2864611Y-4776723D01*
X2864611Y-4709921D02*
G01*
X2905759Y-4709921D01*
X2864611Y-4741671D02*
G01*
X2890011Y-4741671D01*
X2864611Y-4776723D02*
G01*
X2905759Y-4776723D01*
X2949193Y-4709921D02*
G01*
X2949193Y-4776723D01*
X2926841Y-4709921D02*
G01*
X2971545Y-4709921D01*
X9419336Y-4598162D02*
G01*
X9415018Y-4589018D01*
X9405874Y-4580128D01*
X9396729Y-4575555D01*
X9378441Y-4575555D01*
X9369552Y-4580128D01*
X9360408Y-4589018D01*
X9355836Y-4598162D01*
X9351263Y-4611878D01*
X9351263Y-4634484D01*
X9355836Y-4648200D01*
X9360408Y-4657344D01*
X9369552Y-4666487D01*
X9378441Y-4671060D01*
X9396729Y-4671060D01*
X9405874Y-4666487D01*
X9415018Y-4657344D01*
X9419336Y-4648200D01*
X9419336Y-4634484D01*
X9396729Y-4634484D02*
G01*
X9419336Y-4634484D01*
X9449561Y-4575555D02*
G01*
X9449561Y-4671060D01*
X9449561Y-4575555D02*
G01*
X9513061Y-4671060D01*
X9513061Y-4575555D02*
G01*
X9513061Y-4671060D01*
X9543034Y-4575555D02*
G01*
X9543034Y-4671060D01*
X9543034Y-4575555D02*
G01*
X9574784Y-4575555D01*
X9588500Y-4580128D01*
X9597643Y-4589018D01*
X9602215Y-4598162D01*
X9606788Y-4611878D01*
X9606788Y-4634484D01*
X9602215Y-4648200D01*
X9597643Y-4657344D01*
X9588500Y-4666487D01*
X9574784Y-4671060D01*
X9543034Y-4671060D01*
X8072627Y-3860800D02*
G01*
X8169656Y-3860800D01*
X8072627Y-3860800D02*
G01*
X8072627Y-3828542D01*
X8077200Y-3814571D01*
X8086343Y-3805428D01*
X8095741Y-3800855D01*
X8109458Y-3796029D01*
X8132572Y-3796029D01*
X8146541Y-3800855D01*
X8155686Y-3805428D01*
X8164829Y-3814571D01*
X8169656Y-3828542D01*
X8169656Y-3860800D01*
X8072627Y-3765550D02*
G01*
X8169656Y-3765550D01*
X8095741Y-3665981D02*
G01*
X8086343Y-3670554D01*
X8077200Y-3679697D01*
X8072627Y-3689095D01*
X8072627Y-3707384D01*
X8077200Y-3716781D01*
X8086343Y-3725926D01*
X8095741Y-3730497D01*
X8109458Y-3735070D01*
X8132572Y-3735070D01*
X8146541Y-3730497D01*
X8155686Y-3725926D01*
X8164829Y-3716781D01*
X8169656Y-3707384D01*
X8169656Y-3689095D01*
X8164829Y-3679697D01*
X8155686Y-3670554D01*
X8146541Y-3665981D01*
X8132572Y-3665981D01*
X8132572Y-3689095D02*
G01*
X8132572Y-3665981D01*
X8072627Y-3635502D02*
G01*
X8169656Y-3635502D01*
X8072627Y-3572510D02*
G01*
X8169656Y-3572510D01*
X8072627Y-3605021D02*
G01*
X8072627Y-3540252D01*
X8072627Y-3472942D02*
G01*
X8169656Y-3509771D01*
X8072627Y-3472942D02*
G01*
X8169656Y-3435857D01*
X8137143Y-3496055D02*
G01*
X8137143Y-3449828D01*
X8072627Y-3405378D02*
G01*
X8169656Y-3405378D01*
X8169656Y-3405378D02*
G01*
X8169656Y-3350005D01*
X8698229Y-4694428D02*
G01*
X8661400Y-4791455D01*
X8698229Y-4694428D02*
G01*
X8735313Y-4791455D01*
X8675370Y-4758944D02*
G01*
X8721343Y-4758944D01*
X8765793Y-4712970D02*
G01*
X8774938Y-4708144D01*
X8788908Y-4694428D01*
X8788908Y-4791455D01*
X8874759Y-4694428D02*
G01*
X8828531Y-4694428D01*
X8823959Y-4735829D01*
X8828531Y-4731257D01*
X8842502Y-4726686D01*
X8856218Y-4726686D01*
X8870188Y-4731257D01*
X8879331Y-4740655D01*
X8883904Y-4754371D01*
X8883904Y-4763770D01*
X8879331Y-4777486D01*
X8870188Y-4786629D01*
X8856218Y-4791455D01*
X8842502Y-4791455D01*
X8828531Y-4786629D01*
X8823959Y-4782057D01*
X8819388Y-4772913D01*
X8444229Y-4694428D02*
G01*
X8407400Y-4791455D01*
X8444229Y-4694428D02*
G01*
X8481313Y-4791455D01*
X8421370Y-4758944D02*
G01*
X8467343Y-4758944D01*
X8511793Y-4712970D02*
G01*
X8520938Y-4708144D01*
X8534908Y-4694428D01*
X8534908Y-4791455D01*
X8611615Y-4694428D02*
G01*
X8565388Y-4758944D01*
X8634729Y-4758944D01*
X8611615Y-4694428D02*
G01*
X8611615Y-4791455D01*
X8164829Y-4694428D02*
G01*
X8128000Y-4791455D01*
X8164829Y-4694428D02*
G01*
X8201913Y-4791455D01*
X8141970Y-4758944D02*
G01*
X8187943Y-4758944D01*
X8232393Y-4712970D02*
G01*
X8241538Y-4708144D01*
X8255508Y-4694428D01*
X8255508Y-4791455D01*
X8295131Y-4694428D02*
G01*
X8345931Y-4694428D01*
X8318245Y-4731257D01*
X8332215Y-4731257D01*
X8341359Y-4735829D01*
X8345931Y-4740655D01*
X8350504Y-4754371D01*
X8350504Y-4763770D01*
X8345931Y-4777486D01*
X8336788Y-4786629D01*
X8322818Y-4791455D01*
X8309102Y-4791455D01*
X8295131Y-4786629D01*
X8290559Y-4782057D01*
X8285988Y-4772913D01*
X7885429Y-4694428D02*
G01*
X7848600Y-4791455D01*
X7885429Y-4694428D02*
G01*
X7922513Y-4791455D01*
X7862570Y-4758944D02*
G01*
X7908543Y-4758944D01*
X7952993Y-4712970D02*
G01*
X7962138Y-4708144D01*
X7976108Y-4694428D01*
X7976108Y-4791455D01*
X8011159Y-4717542D02*
G01*
X8011159Y-4712970D01*
X8015731Y-4703571D01*
X8020304Y-4699000D01*
X8029702Y-4694428D01*
X8047990Y-4694428D01*
X8057388Y-4699000D01*
X8061959Y-4703571D01*
X8066531Y-4712970D01*
X8066531Y-4722113D01*
X8061959Y-4731257D01*
X8052815Y-4745228D01*
X8006588Y-4791455D01*
X8071104Y-4791455D01*
X7631429Y-4694428D02*
G01*
X7594600Y-4791455D01*
X7631429Y-4694428D02*
G01*
X7668513Y-4791455D01*
X7608570Y-4758944D02*
G01*
X7654543Y-4758944D01*
X7698993Y-4712970D02*
G01*
X7708138Y-4708144D01*
X7722108Y-4694428D01*
X7722108Y-4791455D01*
X7752588Y-4712970D02*
G01*
X7761731Y-4708144D01*
X7775702Y-4694428D01*
X7775702Y-4791455D01*
X7352029Y-4694428D02*
G01*
X7315200Y-4791455D01*
X7352029Y-4694428D02*
G01*
X7389113Y-4791455D01*
X7329170Y-4758944D02*
G01*
X7375143Y-4758944D01*
X7419593Y-4712970D02*
G01*
X7428738Y-4708144D01*
X7442708Y-4694428D01*
X7442708Y-4791455D01*
X7500874Y-4694428D02*
G01*
X7486904Y-4699000D01*
X7477759Y-4712970D01*
X7473188Y-4735829D01*
X7473188Y-4749800D01*
X7477759Y-4772913D01*
X7486904Y-4786629D01*
X7500874Y-4791455D01*
X7510018Y-4791455D01*
X7523988Y-4786629D01*
X7533131Y-4772913D01*
X7537704Y-4749800D01*
X7537704Y-4735829D01*
X7533131Y-4712970D01*
X7523988Y-4699000D01*
X7510018Y-4694428D01*
X7500874Y-4694428D01*
X7098029Y-4694428D02*
G01*
X7061200Y-4791455D01*
X7098029Y-4694428D02*
G01*
X7135113Y-4791455D01*
X7075170Y-4758944D02*
G01*
X7121143Y-4758944D01*
X7225538Y-4726686D02*
G01*
X7220965Y-4740655D01*
X7211822Y-4749800D01*
X7197852Y-4754371D01*
X7193279Y-4754371D01*
X7179309Y-4749800D01*
X7170165Y-4740655D01*
X7165593Y-4726686D01*
X7165593Y-4722113D01*
X7170165Y-4708144D01*
X7179309Y-4699000D01*
X7193279Y-4694428D01*
X7197852Y-4694428D01*
X7211822Y-4699000D01*
X7220965Y-4708144D01*
X7225538Y-4726686D01*
X7225538Y-4749800D01*
X7220965Y-4772913D01*
X7211822Y-4786629D01*
X7197852Y-4791455D01*
X7188708Y-4791455D01*
X7174738Y-4786629D01*
X7170165Y-4777486D01*
X6844029Y-4694428D02*
G01*
X6807200Y-4791455D01*
X6844029Y-4694428D02*
G01*
X6881113Y-4791455D01*
X6821170Y-4758944D02*
G01*
X6867143Y-4758944D01*
X6934708Y-4694428D02*
G01*
X6920738Y-4699000D01*
X6916165Y-4708144D01*
X6916165Y-4717542D01*
X6920738Y-4726686D01*
X6930136Y-4731257D01*
X6948424Y-4735829D01*
X6962393Y-4740655D01*
X6971538Y-4749800D01*
X6976109Y-4758944D01*
X6976109Y-4772913D01*
X6971538Y-4782057D01*
X6966965Y-4786629D01*
X6953250Y-4791455D01*
X6934708Y-4791455D01*
X6920738Y-4786629D01*
X6916165Y-4782057D01*
X6911593Y-4772913D01*
X6911593Y-4758944D01*
X6916165Y-4749800D01*
X6925309Y-4740655D01*
X6939279Y-4735829D01*
X6957822Y-4731257D01*
X6966965Y-4726686D01*
X6971538Y-4717542D01*
X6971538Y-4708144D01*
X6966965Y-4699000D01*
X6953250Y-4694428D01*
X6934708Y-4694428D01*
X6386829Y-4694428D02*
G01*
X6350000Y-4791455D01*
X6386829Y-4694428D02*
G01*
X6423913Y-4791455D01*
X6363970Y-4758944D02*
G01*
X6409943Y-4758944D01*
X6518909Y-4694428D02*
G01*
X6472936Y-4791455D01*
X6454393Y-4694428D02*
G01*
X6518909Y-4694428D01*
X6132982Y-4697984D02*
G01*
X6095898Y-4795012D01*
X6132982Y-4697984D02*
G01*
X6169812Y-4795012D01*
X6109868Y-4762754D02*
G01*
X6156096Y-4762754D01*
X6255664Y-4711954D02*
G01*
X6251092Y-4702810D01*
X6237376Y-4697984D01*
X6227978Y-4697984D01*
X6214262Y-4702810D01*
X6204864Y-4716526D01*
X6200292Y-4739639D01*
X6200292Y-4762754D01*
X6204864Y-4781295D01*
X6214262Y-4790439D01*
X6227978Y-4795012D01*
X6232804Y-4795012D01*
X6246520Y-4790439D01*
X6255664Y-4781295D01*
X6260490Y-4767326D01*
X6260490Y-4762754D01*
X6255664Y-4748784D01*
X6246520Y-4739639D01*
X6232804Y-4735068D01*
X6227978Y-4735068D01*
X6214262Y-4739639D01*
X6204864Y-4748784D01*
X6200292Y-4762754D01*
X5878829Y-4694428D02*
G01*
X5842000Y-4791455D01*
X5878829Y-4694428D02*
G01*
X5915913Y-4791455D01*
X5855970Y-4758944D02*
G01*
X5901943Y-4758944D01*
X6001765Y-4694428D02*
G01*
X5955538Y-4694428D01*
X5950965Y-4735829D01*
X5955538Y-4731257D01*
X5969508Y-4726686D01*
X5983224Y-4726686D01*
X5997193Y-4731257D01*
X6006338Y-4740655D01*
X6010909Y-4754371D01*
X6010909Y-4763770D01*
X6006338Y-4777486D01*
X5997193Y-4786629D01*
X5983224Y-4791455D01*
X5969508Y-4791455D01*
X5955538Y-4786629D01*
X5950965Y-4782057D01*
X5946393Y-4772913D01*
X5624829Y-4694428D02*
G01*
X5588000Y-4791455D01*
X5624829Y-4694428D02*
G01*
X5661913Y-4791455D01*
X5601970Y-4758944D02*
G01*
X5647943Y-4758944D01*
X5738622Y-4694428D02*
G01*
X5692393Y-4758944D01*
X5761736Y-4758944D01*
X5738622Y-4694428D02*
G01*
X5738622Y-4791455D01*
X5370829Y-4694428D02*
G01*
X5334000Y-4791455D01*
X5370829Y-4694428D02*
G01*
X5407913Y-4791455D01*
X5347970Y-4758944D02*
G01*
X5393943Y-4758944D01*
X5447538Y-4694428D02*
G01*
X5498338Y-4694428D01*
X5470652Y-4731257D01*
X5484622Y-4731257D01*
X5493765Y-4735829D01*
X5498338Y-4740655D01*
X5502909Y-4754371D01*
X5502909Y-4763770D01*
X5498338Y-4777486D01*
X5489193Y-4786629D01*
X5475224Y-4791455D01*
X5461508Y-4791455D01*
X5447538Y-4786629D01*
X5442965Y-4782057D01*
X5438393Y-4772913D01*
X5116829Y-4694428D02*
G01*
X5080000Y-4791455D01*
X5116829Y-4694428D02*
G01*
X5153913Y-4791455D01*
X5093970Y-4758944D02*
G01*
X5139943Y-4758944D01*
X5188965Y-4717542D02*
G01*
X5188965Y-4712970D01*
X5193538Y-4703571D01*
X5198109Y-4699000D01*
X5207508Y-4694428D01*
X5226050Y-4694428D01*
X5235193Y-4699000D01*
X5239765Y-4703571D01*
X5244338Y-4712970D01*
X5244338Y-4722113D01*
X5239765Y-4731257D01*
X5230622Y-4745228D01*
X5184393Y-4791455D01*
X5248909Y-4791455D01*
X4862829Y-4694428D02*
G01*
X4826000Y-4791455D01*
X4862829Y-4694428D02*
G01*
X4899913Y-4791455D01*
X4839970Y-4758944D02*
G01*
X4885943Y-4758944D01*
X4930393Y-4712970D02*
G01*
X4939538Y-4708144D01*
X4953508Y-4694428D01*
X4953508Y-4791455D01*
X4583429Y-4694428D02*
G01*
X4546600Y-4791455D01*
X4583429Y-4694428D02*
G01*
X4620513Y-4791455D01*
X4560570Y-4758944D02*
G01*
X4606543Y-4758944D01*
X4678679Y-4694428D02*
G01*
X4664709Y-4699000D01*
X4655565Y-4712970D01*
X4650993Y-4735829D01*
X4650993Y-4749800D01*
X4655565Y-4772913D01*
X4664709Y-4786629D01*
X4678679Y-4791455D01*
X4687824Y-4791455D01*
X4701793Y-4786629D01*
X4710938Y-4772913D01*
X4715509Y-4749800D01*
X4715509Y-4735829D01*
X4710938Y-4712970D01*
X4701793Y-4699000D01*
X4687824Y-4694428D01*
X4678679Y-4694428D01*
X9457436Y-4201921D02*
G01*
X9411208Y-4201921D01*
X9406636Y-4243323D01*
X9411208Y-4238752D01*
X9425177Y-4234179D01*
X9438893Y-4234179D01*
X9452863Y-4238752D01*
X9462008Y-4248150D01*
X9466834Y-4261865D01*
X9466834Y-4271263D01*
X9462008Y-4284979D01*
X9452863Y-4294123D01*
X9438893Y-4298950D01*
X9425177Y-4298950D01*
X9411208Y-4294123D01*
X9406636Y-4289552D01*
X9402063Y-4280407D01*
X9506458Y-4201921D02*
G01*
X9557258Y-4201921D01*
X9529572Y-4238752D01*
X9543288Y-4238752D01*
X9552686Y-4243323D01*
X9557258Y-4248150D01*
X9561829Y-4261865D01*
X9561829Y-4271263D01*
X9557258Y-4284979D01*
X9548113Y-4294123D01*
X9534143Y-4298950D01*
X9520174Y-4298950D01*
X9506458Y-4294123D01*
X9501886Y-4289552D01*
X9497313Y-4280407D01*
X9466072Y-3980687D02*
G01*
X9419843Y-3980687D01*
X9415272Y-4022089D01*
X9419843Y-4017518D01*
X9433813Y-4012945D01*
X9447529Y-4012945D01*
X9461500Y-4017518D01*
X9470643Y-4026915D01*
X9475470Y-4040631D01*
X9475470Y-4050029D01*
X9470643Y-4063745D01*
X9461500Y-4072889D01*
X9447529Y-4077715D01*
X9433813Y-4077715D01*
X9419843Y-4072889D01*
X9415272Y-4068318D01*
X9410700Y-4059173D01*
X9505950Y-3999229D02*
G01*
X9515093Y-3994404D01*
X9528809Y-3980687D01*
X9528809Y-4077715D01*
X9456927Y-3726687D02*
G01*
X9410700Y-3791204D01*
X9480041Y-3791204D01*
X9456927Y-3726687D02*
G01*
X9456927Y-3823715D01*
X9570465Y-3758945D02*
G01*
X9565893Y-3772915D01*
X9556750Y-3782060D01*
X9542779Y-3786631D01*
X9538208Y-3786631D01*
X9524238Y-3782060D01*
X9515093Y-3772915D01*
X9510522Y-3758945D01*
X9510522Y-3754373D01*
X9515093Y-3740404D01*
X9524238Y-3731260D01*
X9538208Y-3726687D01*
X9542779Y-3726687D01*
X9556750Y-3731260D01*
X9565893Y-3740404D01*
X9570465Y-3758945D01*
X9570465Y-3782060D01*
X9565893Y-3805173D01*
X9556750Y-3818889D01*
X9542779Y-3823715D01*
X9533636Y-3823715D01*
X9519665Y-3818889D01*
X9515093Y-3809745D01*
X9456927Y-3472687D02*
G01*
X9410700Y-3537204D01*
X9480041Y-3537204D01*
X9456927Y-3472687D02*
G01*
X9456927Y-3569715D01*
X9575038Y-3472687D02*
G01*
X9528809Y-3569715D01*
X9510522Y-3472687D02*
G01*
X9575038Y-3472687D01*
X9456927Y-3218687D02*
G01*
X9410700Y-3283204D01*
X9480041Y-3283204D01*
X9456927Y-3218687D02*
G01*
X9456927Y-3315715D01*
X9565893Y-3218687D02*
G01*
X9519665Y-3218687D01*
X9515093Y-3260089D01*
X9519665Y-3255518D01*
X9533636Y-3250945D01*
X9547352Y-3250945D01*
X9561322Y-3255518D01*
X9570465Y-3264915D01*
X9575038Y-3278631D01*
X9575038Y-3288029D01*
X9570465Y-3301745D01*
X9561322Y-3310889D01*
X9547352Y-3315715D01*
X9533636Y-3315715D01*
X9519665Y-3310889D01*
X9515093Y-3306318D01*
X9510522Y-3297173D01*
X9456927Y-2964687D02*
G01*
X9410700Y-3029204D01*
X9480041Y-3029204D01*
X9456927Y-2964687D02*
G01*
X9456927Y-3061715D01*
X9519665Y-2964687D02*
G01*
X9570465Y-2964687D01*
X9542779Y-3001518D01*
X9556750Y-3001518D01*
X9565893Y-3006089D01*
X9570465Y-3010915D01*
X9575038Y-3024631D01*
X9575038Y-3034029D01*
X9570465Y-3047745D01*
X9561322Y-3056889D01*
X9547352Y-3061715D01*
X9533636Y-3061715D01*
X9519665Y-3056889D01*
X9515093Y-3052318D01*
X9510522Y-3043173D01*
X9456927Y-2710687D02*
G01*
X9410700Y-2775204D01*
X9480041Y-2775204D01*
X9456927Y-2710687D02*
G01*
X9456927Y-2807715D01*
X9510522Y-2729229D02*
G01*
X9519665Y-2724404D01*
X9533636Y-2710687D01*
X9533636Y-2807715D01*
X9419843Y-2456687D02*
G01*
X9470643Y-2456687D01*
X9442958Y-2493518D01*
X9456927Y-2493518D01*
X9466072Y-2498089D01*
X9470643Y-2502915D01*
X9475470Y-2516631D01*
X9475470Y-2526029D01*
X9470643Y-2539745D01*
X9461500Y-2548889D01*
X9447529Y-2553715D01*
X9433813Y-2553715D01*
X9419843Y-2548889D01*
X9415272Y-2544318D01*
X9410700Y-2535173D01*
X9565893Y-2488945D02*
G01*
X9561322Y-2502915D01*
X9551924Y-2512060D01*
X9538208Y-2516631D01*
X9533636Y-2516631D01*
X9519665Y-2512060D01*
X9510522Y-2502915D01*
X9505950Y-2488945D01*
X9505950Y-2484373D01*
X9510522Y-2470404D01*
X9519665Y-2461260D01*
X9533636Y-2456687D01*
X9538208Y-2456687D01*
X9551924Y-2461260D01*
X9561322Y-2470404D01*
X9565893Y-2488945D01*
X9565893Y-2512060D01*
X9561322Y-2535173D01*
X9551924Y-2548889D01*
X9538208Y-2553715D01*
X9528809Y-2553715D01*
X9515093Y-2548889D01*
X9510522Y-2539745D01*
X9419843Y-2202687D02*
G01*
X9470643Y-2202687D01*
X9442958Y-2239518D01*
X9456927Y-2239518D01*
X9466072Y-2244089D01*
X9470643Y-2248915D01*
X9475470Y-2262631D01*
X9475470Y-2272029D01*
X9470643Y-2285745D01*
X9461500Y-2294889D01*
X9447529Y-2299715D01*
X9433813Y-2299715D01*
X9419843Y-2294889D01*
X9415272Y-2290318D01*
X9410700Y-2281173D01*
X9570465Y-2202687D02*
G01*
X9524238Y-2299715D01*
X9505950Y-2202687D02*
G01*
X9570465Y-2202687D01*
X9419843Y-1948687D02*
G01*
X9470643Y-1948687D01*
X9442958Y-1985518D01*
X9456927Y-1985518D01*
X9466072Y-1990089D01*
X9470643Y-1994915D01*
X9475470Y-2008631D01*
X9475470Y-2018029D01*
X9470643Y-2031745D01*
X9461500Y-2040889D01*
X9447529Y-2045715D01*
X9433813Y-2045715D01*
X9419843Y-2040889D01*
X9415272Y-2036318D01*
X9410700Y-2027173D01*
X9561322Y-1948687D02*
G01*
X9515093Y-1948687D01*
X9510522Y-1990089D01*
X9515093Y-1985518D01*
X9528809Y-1980945D01*
X9542779Y-1980945D01*
X9556750Y-1985518D01*
X9565893Y-1994915D01*
X9570465Y-2008631D01*
X9570465Y-2018029D01*
X9565893Y-2031745D01*
X9556750Y-2040889D01*
X9542779Y-2045715D01*
X9528809Y-2045715D01*
X9515093Y-2040889D01*
X9510522Y-2036318D01*
X9505950Y-2027173D01*
X9419843Y-1694687D02*
G01*
X9470643Y-1694687D01*
X9442958Y-1731518D01*
X9456927Y-1731518D01*
X9466072Y-1736089D01*
X9470643Y-1740915D01*
X9475470Y-1754631D01*
X9475470Y-1764029D01*
X9470643Y-1777745D01*
X9461500Y-1786889D01*
X9447529Y-1791715D01*
X9433813Y-1791715D01*
X9419843Y-1786889D01*
X9415272Y-1782318D01*
X9410700Y-1773173D01*
X9515093Y-1694687D02*
G01*
X9565893Y-1694687D01*
X9538208Y-1731518D01*
X9551924Y-1731518D01*
X9561322Y-1736089D01*
X9565893Y-1740915D01*
X9570465Y-1754631D01*
X9570465Y-1764029D01*
X9565893Y-1777745D01*
X9556750Y-1786889D01*
X9542779Y-1791715D01*
X9528809Y-1791715D01*
X9515093Y-1786889D01*
X9510522Y-1782318D01*
X9505950Y-1773173D01*
X9419843Y-1440687D02*
G01*
X9470643Y-1440687D01*
X9442958Y-1477518D01*
X9456927Y-1477518D01*
X9466072Y-1482089D01*
X9470643Y-1486915D01*
X9475470Y-1500631D01*
X9475470Y-1510029D01*
X9470643Y-1523745D01*
X9461500Y-1532889D01*
X9447529Y-1537715D01*
X9433813Y-1537715D01*
X9419843Y-1532889D01*
X9415272Y-1528318D01*
X9410700Y-1519173D01*
X9505950Y-1459229D02*
G01*
X9515093Y-1454404D01*
X9528809Y-1440687D01*
X9528809Y-1537715D01*
X8596375Y-4204462D02*
G01*
X8550147Y-4204462D01*
X8545575Y-4245863D01*
X8550147Y-4241292D01*
X8564118Y-4236720D01*
X8577834Y-4236720D01*
X8591804Y-4241292D01*
X8600947Y-4250689D01*
X8605774Y-4264405D01*
X8605774Y-4273804D01*
X8600947Y-4287520D01*
X8591804Y-4296663D01*
X8577834Y-4301489D01*
X8564118Y-4301489D01*
X8550147Y-4296663D01*
X8545575Y-4292092D01*
X8541004Y-4282947D01*
X8640825Y-4227576D02*
G01*
X8640825Y-4223004D01*
X8645397Y-4213605D01*
X8649970Y-4209034D01*
X8659113Y-4204462D01*
X8677656Y-4204462D01*
X8687054Y-4209034D01*
X8691625Y-4213605D01*
X8696197Y-4223004D01*
X8696197Y-4232147D01*
X8691625Y-4241292D01*
X8682227Y-4255262D01*
X8636254Y-4301489D01*
X8700770Y-4301489D01*
X8583168Y-3729228D02*
G01*
X8536940Y-3793744D01*
X8606281Y-3793744D01*
X8583168Y-3729228D02*
G01*
X8583168Y-3826255D01*
X8659875Y-3729228D02*
G01*
X8645906Y-3733800D01*
X8641334Y-3742944D01*
X8641334Y-3752342D01*
X8645906Y-3761486D01*
X8655050Y-3766057D01*
X8673591Y-3770629D01*
X8687561Y-3775455D01*
X8696706Y-3784600D01*
X8701277Y-3793744D01*
X8701277Y-3807713D01*
X8696706Y-3816857D01*
X8692134Y-3821429D01*
X8678163Y-3826255D01*
X8659875Y-3826255D01*
X8645906Y-3821429D01*
X8641334Y-3816857D01*
X8636761Y-3807713D01*
X8636761Y-3793744D01*
X8641334Y-3784600D01*
X8650477Y-3775455D01*
X8664447Y-3770629D01*
X8682990Y-3766057D01*
X8692134Y-3761486D01*
X8696706Y-3752342D01*
X8696706Y-3742944D01*
X8692134Y-3733800D01*
X8678163Y-3729228D01*
X8659875Y-3729228D01*
X8592311Y-3983228D02*
G01*
X8546084Y-3983228D01*
X8541511Y-4024629D01*
X8546084Y-4020057D01*
X8560054Y-4015486D01*
X8573770Y-4015486D01*
X8587740Y-4020057D01*
X8596884Y-4029455D01*
X8601709Y-4043171D01*
X8601709Y-4052570D01*
X8596884Y-4066286D01*
X8587740Y-4075429D01*
X8573770Y-4080255D01*
X8560054Y-4080255D01*
X8546084Y-4075429D01*
X8541511Y-4070857D01*
X8536940Y-4061713D01*
X8659875Y-3983228D02*
G01*
X8645906Y-3987800D01*
X8636761Y-4001770D01*
X8632190Y-4024629D01*
X8632190Y-4038600D01*
X8636761Y-4061713D01*
X8645906Y-4075429D01*
X8659875Y-4080255D01*
X8669020Y-4080255D01*
X8682990Y-4075429D01*
X8692134Y-4061713D01*
X8696706Y-4038600D01*
X8696706Y-4024629D01*
X8692134Y-4001770D01*
X8682990Y-3987800D01*
X8669020Y-3983228D01*
X8659875Y-3983228D01*
X8583168Y-3475228D02*
G01*
X8536940Y-3539744D01*
X8606281Y-3539744D01*
X8583168Y-3475228D02*
G01*
X8583168Y-3572255D01*
X8692134Y-3488944D02*
G01*
X8687561Y-3479800D01*
X8673591Y-3475228D01*
X8664447Y-3475228D01*
X8650477Y-3479800D01*
X8641334Y-3493770D01*
X8636761Y-3516629D01*
X8636761Y-3539744D01*
X8641334Y-3558286D01*
X8650477Y-3567429D01*
X8664447Y-3572255D01*
X8669020Y-3572255D01*
X8682990Y-3567429D01*
X8692134Y-3558286D01*
X8696706Y-3544570D01*
X8696706Y-3539744D01*
X8692134Y-3526028D01*
X8682990Y-3516629D01*
X8669020Y-3512057D01*
X8664447Y-3512057D01*
X8650477Y-3516629D01*
X8641334Y-3526028D01*
X8636761Y-3539744D01*
X8583168Y-3221228D02*
G01*
X8536940Y-3285744D01*
X8606281Y-3285744D01*
X8583168Y-3221228D02*
G01*
X8583168Y-3318255D01*
X8682990Y-3221228D02*
G01*
X8636761Y-3285744D01*
X8705850Y-3285744D01*
X8682990Y-3221228D02*
G01*
X8682990Y-3318255D01*
X8583168Y-2967228D02*
G01*
X8536940Y-3031744D01*
X8606281Y-3031744D01*
X8583168Y-2967228D02*
G01*
X8583168Y-3064255D01*
X8641334Y-2990342D02*
G01*
X8641334Y-2985770D01*
X8645906Y-2976371D01*
X8650477Y-2971800D01*
X8659875Y-2967228D01*
X8678163Y-2967228D01*
X8687561Y-2971800D01*
X8692134Y-2976371D01*
X8696706Y-2985770D01*
X8696706Y-2994913D01*
X8692134Y-3004057D01*
X8682990Y-3018028D01*
X8636761Y-3064255D01*
X8701277Y-3064255D01*
X8583168Y-2713228D02*
G01*
X8536940Y-2777744D01*
X8606281Y-2777744D01*
X8583168Y-2713228D02*
G01*
X8583168Y-2810255D01*
X8664447Y-2713228D02*
G01*
X8650477Y-2717800D01*
X8641334Y-2731770D01*
X8636761Y-2754629D01*
X8636761Y-2768600D01*
X8641334Y-2791713D01*
X8650477Y-2805429D01*
X8664447Y-2810255D01*
X8673591Y-2810255D01*
X8687561Y-2805429D01*
X8696706Y-2791713D01*
X8701277Y-2768600D01*
X8701277Y-2754629D01*
X8696706Y-2731770D01*
X8687561Y-2717800D01*
X8673591Y-2713228D01*
X8664447Y-2713228D01*
X8546084Y-2459228D02*
G01*
X8596884Y-2459228D01*
X8569197Y-2496057D01*
X8583168Y-2496057D01*
X8592311Y-2500629D01*
X8596884Y-2505455D01*
X8601709Y-2519171D01*
X8601709Y-2528570D01*
X8596884Y-2542286D01*
X8587740Y-2551429D01*
X8573770Y-2556255D01*
X8560054Y-2556255D01*
X8546084Y-2551429D01*
X8541511Y-2546857D01*
X8536940Y-2537713D01*
X8655050Y-2459228D02*
G01*
X8641334Y-2463800D01*
X8636761Y-2472944D01*
X8636761Y-2482342D01*
X8641334Y-2491486D01*
X8650477Y-2496057D01*
X8669020Y-2500629D01*
X8682990Y-2505455D01*
X8692134Y-2514600D01*
X8696706Y-2523744D01*
X8696706Y-2537713D01*
X8692134Y-2546857D01*
X8687561Y-2551429D01*
X8673591Y-2556255D01*
X8655050Y-2556255D01*
X8641334Y-2551429D01*
X8636761Y-2546857D01*
X8632190Y-2537713D01*
X8632190Y-2523744D01*
X8636761Y-2514600D01*
X8645906Y-2505455D01*
X8659875Y-2500629D01*
X8678163Y-2496057D01*
X8687561Y-2491486D01*
X8692134Y-2482342D01*
X8692134Y-2472944D01*
X8687561Y-2463800D01*
X8673591Y-2459228D01*
X8655050Y-2459228D01*
X8546084Y-2205228D02*
G01*
X8596884Y-2205228D01*
X8569197Y-2242057D01*
X8583168Y-2242057D01*
X8592311Y-2246629D01*
X8596884Y-2251455D01*
X8601709Y-2265171D01*
X8601709Y-2274570D01*
X8596884Y-2288286D01*
X8587740Y-2297429D01*
X8573770Y-2302255D01*
X8560054Y-2302255D01*
X8546084Y-2297429D01*
X8541511Y-2292857D01*
X8536940Y-2283713D01*
X8687561Y-2218944D02*
G01*
X8682990Y-2209800D01*
X8669020Y-2205228D01*
X8659875Y-2205228D01*
X8645906Y-2209800D01*
X8636761Y-2223770D01*
X8632190Y-2246629D01*
X8632190Y-2269744D01*
X8636761Y-2288286D01*
X8645906Y-2297429D01*
X8659875Y-2302255D01*
X8664447Y-2302255D01*
X8678163Y-2297429D01*
X8687561Y-2288286D01*
X8692134Y-2274570D01*
X8692134Y-2269744D01*
X8687561Y-2256028D01*
X8678163Y-2246629D01*
X8664447Y-2242057D01*
X8659875Y-2242057D01*
X8645906Y-2246629D01*
X8636761Y-2256028D01*
X8632190Y-2269744D01*
X8546084Y-1951228D02*
G01*
X8596884Y-1951228D01*
X8569197Y-1988057D01*
X8583168Y-1988057D01*
X8592311Y-1992629D01*
X8596884Y-1997455D01*
X8601709Y-2011171D01*
X8601709Y-2020570D01*
X8596884Y-2034286D01*
X8587740Y-2043429D01*
X8573770Y-2048255D01*
X8560054Y-2048255D01*
X8546084Y-2043429D01*
X8541511Y-2038857D01*
X8536940Y-2029713D01*
X8678163Y-1951228D02*
G01*
X8632190Y-2015744D01*
X8701277Y-2015744D01*
X8678163Y-1951228D02*
G01*
X8678163Y-2048255D01*
X8546084Y-1697228D02*
G01*
X8596884Y-1697228D01*
X8569197Y-1734057D01*
X8583168Y-1734057D01*
X8592311Y-1738629D01*
X8596884Y-1743455D01*
X8601709Y-1757171D01*
X8601709Y-1766570D01*
X8596884Y-1780286D01*
X8587740Y-1789429D01*
X8573770Y-1794255D01*
X8560054Y-1794255D01*
X8546084Y-1789429D01*
X8541511Y-1784857D01*
X8536940Y-1775713D01*
X8636761Y-1720342D02*
G01*
X8636761Y-1715770D01*
X8641334Y-1706371D01*
X8645906Y-1701800D01*
X8655050Y-1697228D01*
X8673591Y-1697228D01*
X8682990Y-1701800D01*
X8687561Y-1706371D01*
X8692134Y-1715770D01*
X8692134Y-1724913D01*
X8687561Y-1734057D01*
X8678163Y-1748028D01*
X8632190Y-1794255D01*
X8696706Y-1794255D01*
X8546084Y-1443228D02*
G01*
X8596884Y-1443228D01*
X8569197Y-1480057D01*
X8583168Y-1480057D01*
X8592311Y-1484629D01*
X8596884Y-1489455D01*
X8601709Y-1503171D01*
X8601709Y-1512570D01*
X8596884Y-1526286D01*
X8587740Y-1535429D01*
X8573770Y-1540255D01*
X8560054Y-1540255D01*
X8546084Y-1535429D01*
X8541511Y-1530857D01*
X8536940Y-1521713D01*
X8659875Y-1443228D02*
G01*
X8645906Y-1447800D01*
X8636761Y-1461770D01*
X8632190Y-1484629D01*
X8632190Y-1498600D01*
X8636761Y-1521713D01*
X8645906Y-1535429D01*
X8659875Y-1540255D01*
X8669020Y-1540255D01*
X8682990Y-1535429D01*
X8692134Y-1521713D01*
X8696706Y-1498600D01*
X8696706Y-1484629D01*
X8692134Y-1461770D01*
X8682990Y-1447800D01*
X8669020Y-1443228D01*
X8659875Y-1443228D01*
X8541511Y-1212342D02*
G01*
X8541511Y-1207770D01*
X8546084Y-1198371D01*
X8550909Y-1193800D01*
X8560054Y-1189228D01*
X8578595Y-1189228D01*
X8587740Y-1193800D01*
X8592311Y-1198371D01*
X8596884Y-1207770D01*
X8596884Y-1216913D01*
X8592311Y-1226057D01*
X8583168Y-1240028D01*
X8536940Y-1286255D01*
X8601709Y-1286255D01*
X8655050Y-1189228D02*
G01*
X8641334Y-1193800D01*
X8636761Y-1202944D01*
X8636761Y-1212342D01*
X8641334Y-1221486D01*
X8650477Y-1226057D01*
X8669020Y-1230629D01*
X8682990Y-1235455D01*
X8692134Y-1244600D01*
X8696706Y-1253744D01*
X8696706Y-1267713D01*
X8692134Y-1276857D01*
X8687561Y-1281429D01*
X8673591Y-1286255D01*
X8655050Y-1286255D01*
X8641334Y-1281429D01*
X8636761Y-1276857D01*
X8632190Y-1267713D01*
X8632190Y-1253744D01*
X8636761Y-1244600D01*
X8645906Y-1235455D01*
X8659875Y-1230629D01*
X8678163Y-1226057D01*
X8687561Y-1221486D01*
X8692134Y-1212342D01*
X8692134Y-1202944D01*
X8687561Y-1193800D01*
X8673591Y-1189228D01*
X8655050Y-1189228D01*
X8541511Y-958342D02*
G01*
X8541511Y-953770D01*
X8546084Y-944371D01*
X8550909Y-939800D01*
X8560054Y-935228D01*
X8578595Y-935228D01*
X8587740Y-939800D01*
X8592311Y-944371D01*
X8596884Y-953770D01*
X8596884Y-962913D01*
X8592311Y-972057D01*
X8583168Y-986028D01*
X8536940Y-1032255D01*
X8601709Y-1032255D01*
X8687561Y-948944D02*
G01*
X8682990Y-939800D01*
X8669020Y-935228D01*
X8659875Y-935228D01*
X8645906Y-939800D01*
X8636761Y-953770D01*
X8632190Y-976629D01*
X8632190Y-999744D01*
X8636761Y-1018286D01*
X8645906Y-1027429D01*
X8659875Y-1032255D01*
X8664447Y-1032255D01*
X8678163Y-1027429D01*
X8687561Y-1018286D01*
X8692134Y-1004570D01*
X8692134Y-999744D01*
X8687561Y-986028D01*
X8678163Y-976629D01*
X8664447Y-972057D01*
X8659875Y-972057D01*
X8645906Y-976629D01*
X8636761Y-986028D01*
X8632190Y-999744D01*
X8541511Y-704342D02*
G01*
X8541511Y-699770D01*
X8546084Y-690371D01*
X8550909Y-685800D01*
X8560054Y-681228D01*
X8578595Y-681228D01*
X8587740Y-685800D01*
X8592311Y-690371D01*
X8596884Y-699770D01*
X8596884Y-708913D01*
X8592311Y-718057D01*
X8583168Y-732028D01*
X8536940Y-778255D01*
X8601709Y-778255D01*
X8678163Y-681228D02*
G01*
X8632190Y-745744D01*
X8701277Y-745744D01*
X8678163Y-681228D02*
G01*
X8678163Y-778255D01*
X8541511Y-450342D02*
G01*
X8541511Y-445770D01*
X8546084Y-436371D01*
X8550909Y-431800D01*
X8560054Y-427228D01*
X8578595Y-427228D01*
X8587740Y-431800D01*
X8592311Y-436371D01*
X8596884Y-445770D01*
X8596884Y-454913D01*
X8592311Y-464057D01*
X8583168Y-478028D01*
X8536940Y-524255D01*
X8601709Y-524255D01*
X8636761Y-450342D02*
G01*
X8636761Y-445770D01*
X8641334Y-436371D01*
X8645906Y-431800D01*
X8655050Y-427228D01*
X8673591Y-427228D01*
X8682990Y-431800D01*
X8687561Y-436371D01*
X8692134Y-445770D01*
X8692134Y-454913D01*
X8687561Y-464057D01*
X8678163Y-478028D01*
X8632190Y-524255D01*
X8696706Y-524255D01*
X8157972Y-348742D02*
G01*
X8157972Y-344170D01*
X8162543Y-334771D01*
X8167370Y-330200D01*
X8176513Y-325628D01*
X8195056Y-325628D01*
X8204200Y-330200D01*
X8208772Y-334771D01*
X8213343Y-344170D01*
X8213343Y-353313D01*
X8208772Y-362457D01*
X8199627Y-376428D01*
X8153400Y-422655D01*
X8218170Y-422655D01*
X8248650Y-344170D02*
G01*
X8257793Y-339344D01*
X8271509Y-325628D01*
X8271509Y-422655D01*
X7878572Y-348742D02*
G01*
X7878572Y-344170D01*
X7883143Y-334771D01*
X7887970Y-330200D01*
X7897113Y-325628D01*
X7915656Y-325628D01*
X7924800Y-330200D01*
X7929372Y-334771D01*
X7933943Y-344170D01*
X7933943Y-353313D01*
X7929372Y-362457D01*
X7920227Y-376428D01*
X7874000Y-422655D01*
X7938770Y-422655D01*
X7996936Y-325628D02*
G01*
X7982965Y-330200D01*
X7973822Y-344170D01*
X7969250Y-367029D01*
X7969250Y-381000D01*
X7973822Y-404113D01*
X7982965Y-417829D01*
X7996936Y-422655D01*
X8006079Y-422655D01*
X8020050Y-417829D01*
X8029193Y-404113D01*
X8033765Y-381000D01*
X8033765Y-367029D01*
X8029193Y-344170D01*
X8020050Y-330200D01*
X8006079Y-325628D01*
X7996936Y-325628D01*
X7645400Y-344170D02*
G01*
X7654543Y-339344D01*
X7668513Y-325628D01*
X7668513Y-422655D01*
X7758938Y-357886D02*
G01*
X7754365Y-371855D01*
X7745222Y-381000D01*
X7731252Y-385571D01*
X7726679Y-385571D01*
X7712709Y-381000D01*
X7703565Y-371855D01*
X7698993Y-357886D01*
X7698993Y-353313D01*
X7703565Y-339344D01*
X7712709Y-330200D01*
X7726679Y-325628D01*
X7731252Y-325628D01*
X7745222Y-330200D01*
X7754365Y-339344D01*
X7758938Y-357886D01*
X7758938Y-381000D01*
X7754365Y-404113D01*
X7745222Y-417829D01*
X7731252Y-422655D01*
X7722108Y-422655D01*
X7708138Y-417829D01*
X7703565Y-408686D01*
X7391400Y-344170D02*
G01*
X7400543Y-339344D01*
X7414513Y-325628D01*
X7414513Y-422655D01*
X7468108Y-325628D02*
G01*
X7454138Y-330200D01*
X7449565Y-339344D01*
X7449565Y-348742D01*
X7454138Y-357886D01*
X7463536Y-362457D01*
X7481824Y-367029D01*
X7495793Y-371855D01*
X7504938Y-381000D01*
X7509509Y-390144D01*
X7509509Y-404113D01*
X7504938Y-413257D01*
X7500365Y-417829D01*
X7486650Y-422655D01*
X7468108Y-422655D01*
X7454138Y-417829D01*
X7449565Y-413257D01*
X7444993Y-404113D01*
X7444993Y-390144D01*
X7449565Y-381000D01*
X7458709Y-371855D01*
X7472679Y-367029D01*
X7491222Y-362457D01*
X7500365Y-357886D01*
X7504938Y-348742D01*
X7504938Y-339344D01*
X7500365Y-330200D01*
X7486650Y-325628D01*
X7468108Y-325628D01*
X7137400Y-344170D02*
G01*
X7146543Y-339344D01*
X7160513Y-325628D01*
X7160513Y-422655D01*
X7255509Y-325628D02*
G01*
X7209536Y-422655D01*
X7190993Y-325628D02*
G01*
X7255509Y-325628D01*
X6883400Y-344170D02*
G01*
X6892543Y-339344D01*
X6906513Y-325628D01*
X6906513Y-422655D01*
X6992365Y-339344D02*
G01*
X6987793Y-330200D01*
X6973824Y-325628D01*
X6964679Y-325628D01*
X6950709Y-330200D01*
X6941565Y-344170D01*
X6936993Y-367029D01*
X6936993Y-390144D01*
X6941565Y-408686D01*
X6950709Y-417829D01*
X6964679Y-422655D01*
X6969252Y-422655D01*
X6983222Y-417829D01*
X6992365Y-408686D01*
X6996938Y-394970D01*
X6996938Y-390144D01*
X6992365Y-376428D01*
X6983222Y-367029D01*
X6969252Y-362457D01*
X6964679Y-362457D01*
X6950709Y-367029D01*
X6941565Y-376428D01*
X6936993Y-390144D01*
X6629400Y-344170D02*
G01*
X6638543Y-339344D01*
X6652513Y-325628D01*
X6652513Y-422655D01*
X6738365Y-325628D02*
G01*
X6692138Y-325628D01*
X6687565Y-367029D01*
X6692138Y-362457D01*
X6706108Y-357886D01*
X6719824Y-357886D01*
X6733793Y-362457D01*
X6742938Y-371855D01*
X6747509Y-385571D01*
X6747509Y-394970D01*
X6742938Y-408686D01*
X6733793Y-417829D01*
X6719824Y-422655D01*
X6706108Y-422655D01*
X6692138Y-417829D01*
X6687565Y-413257D01*
X6682993Y-404113D01*
X6375400Y-344170D02*
G01*
X6384543Y-339344D01*
X6398513Y-325628D01*
X6398513Y-422655D01*
X6475222Y-325628D02*
G01*
X6428993Y-390144D01*
X6498336Y-390144D01*
X6475222Y-325628D02*
G01*
X6475222Y-422655D01*
X2413000Y-369570D02*
G01*
X2422143Y-364744D01*
X2436113Y-351028D01*
X2436113Y-448055D01*
X2475738Y-351028D02*
G01*
X2526538Y-351028D01*
X2498852Y-387857D01*
X2512822Y-387857D01*
X2521965Y-392429D01*
X2526538Y-397255D01*
X2531109Y-410971D01*
X2531109Y-420370D01*
X2526538Y-434086D01*
X2517393Y-443229D01*
X2503424Y-448055D01*
X2489708Y-448055D01*
X2475738Y-443229D01*
X2471165Y-438657D01*
X2466593Y-429513D01*
X2667000Y-369570D02*
G01*
X2676143Y-364744D01*
X2690113Y-351028D01*
X2690113Y-448055D01*
X2725165Y-374142D02*
G01*
X2725165Y-369570D01*
X2729738Y-360171D01*
X2734309Y-355600D01*
X2743708Y-351028D01*
X2762250Y-351028D01*
X2771393Y-355600D01*
X2775965Y-360171D01*
X2780538Y-369570D01*
X2780538Y-378713D01*
X2775965Y-387857D01*
X2766822Y-401828D01*
X2720593Y-448055D01*
X2785109Y-448055D01*
X2946400Y-369570D02*
G01*
X2955543Y-364744D01*
X2969513Y-351028D01*
X2969513Y-448055D01*
X2999993Y-369570D02*
G01*
X3009138Y-364744D01*
X3023108Y-351028D01*
X3023108Y-448055D01*
X3175000Y-369570D02*
G01*
X3184143Y-364744D01*
X3198113Y-351028D01*
X3198113Y-448055D01*
X3256279Y-351028D02*
G01*
X3242309Y-355600D01*
X3233165Y-369570D01*
X3228593Y-392429D01*
X3228593Y-406400D01*
X3233165Y-429513D01*
X3242309Y-443229D01*
X3256279Y-448055D01*
X3265424Y-448055D01*
X3279393Y-443229D01*
X3288538Y-429513D01*
X3293109Y-406400D01*
X3293109Y-392429D01*
X3288538Y-369570D01*
X3279393Y-355600D01*
X3265424Y-351028D01*
X3256279Y-351028D01*
X3514343Y-383286D02*
G01*
X3509772Y-397255D01*
X3500627Y-406400D01*
X3486658Y-410971D01*
X3482086Y-410971D01*
X3468370Y-406400D01*
X3458972Y-397255D01*
X3454400Y-383286D01*
X3454400Y-378713D01*
X3458972Y-364744D01*
X3468370Y-355600D01*
X3482086Y-351028D01*
X3486658Y-351028D01*
X3500627Y-355600D01*
X3509772Y-364744D01*
X3514343Y-383286D01*
X3514343Y-406400D01*
X3509772Y-429513D01*
X3500627Y-443229D01*
X3486658Y-448055D01*
X3477513Y-448055D01*
X3463543Y-443229D01*
X3458972Y-434086D01*
X3731513Y-351028D02*
G01*
X3717543Y-355600D01*
X3712972Y-364744D01*
X3712972Y-374142D01*
X3717543Y-383286D01*
X3726941Y-387857D01*
X3745229Y-392429D01*
X3759200Y-397255D01*
X3768343Y-406400D01*
X3773170Y-415544D01*
X3773170Y-429513D01*
X3768343Y-438657D01*
X3763772Y-443229D01*
X3750056Y-448055D01*
X3731513Y-448055D01*
X3717543Y-443229D01*
X3712972Y-438657D01*
X3708400Y-429513D01*
X3708400Y-415544D01*
X3712972Y-406400D01*
X3722370Y-397255D01*
X3736086Y-392429D01*
X3754627Y-387857D01*
X3763772Y-383286D01*
X3768343Y-374142D01*
X3768343Y-364744D01*
X3763772Y-355600D01*
X3750056Y-351028D01*
X3731513Y-351028D01*
X4179570Y-351028D02*
G01*
X4133341Y-448055D01*
X4114800Y-351028D02*
G01*
X4179570Y-351028D01*
X4424172Y-364744D02*
G01*
X4419600Y-355600D01*
X4405629Y-351028D01*
X4396486Y-351028D01*
X4382770Y-355600D01*
X4373372Y-369570D01*
X4368800Y-392429D01*
X4368800Y-415544D01*
X4373372Y-434086D01*
X4382770Y-443229D01*
X4396486Y-448055D01*
X4401058Y-448055D01*
X4415027Y-443229D01*
X4424172Y-434086D01*
X4428743Y-420370D01*
X4428743Y-415544D01*
X4424172Y-401828D01*
X4415027Y-392429D01*
X4401058Y-387857D01*
X4396486Y-387857D01*
X4382770Y-392429D01*
X4373372Y-401828D01*
X4368800Y-415544D01*
X4678172Y-351028D02*
G01*
X4631943Y-351028D01*
X4627372Y-392429D01*
X4631943Y-387857D01*
X4645913Y-383286D01*
X4659629Y-383286D01*
X4673600Y-387857D01*
X4682743Y-397255D01*
X4687570Y-410971D01*
X4687570Y-420370D01*
X4682743Y-434086D01*
X4673600Y-443229D01*
X4659629Y-448055D01*
X4645913Y-448055D01*
X4631943Y-443229D01*
X4627372Y-438657D01*
X4622800Y-429513D01*
X4923027Y-351028D02*
G01*
X4876800Y-415544D01*
X4946141Y-415544D01*
X4923027Y-351028D02*
G01*
X4923027Y-448055D01*
X5165343Y-351028D02*
G01*
X5216143Y-351028D01*
X5188458Y-387857D01*
X5202427Y-387857D01*
X5211572Y-392429D01*
X5216143Y-397255D01*
X5220970Y-410971D01*
X5220970Y-420370D01*
X5216143Y-434086D01*
X5207000Y-443229D01*
X5193029Y-448055D01*
X5179313Y-448055D01*
X5165343Y-443229D01*
X5160772Y-438657D01*
X5156200Y-429513D01*
X5389372Y-374142D02*
G01*
X5389372Y-369570D01*
X5393943Y-360171D01*
X5398770Y-355600D01*
X5407913Y-351028D01*
X5426456Y-351028D01*
X5435600Y-355600D01*
X5440172Y-360171D01*
X5444743Y-369570D01*
X5444743Y-378713D01*
X5440172Y-387857D01*
X5431027Y-401828D01*
X5384800Y-448055D01*
X5449570Y-448055D01*
X5638800Y-369570D02*
G01*
X5647943Y-364744D01*
X5661913Y-351028D01*
X5661913Y-448055D01*
X5920486Y-351028D02*
G01*
X5906770Y-355600D01*
X5897372Y-369570D01*
X5892800Y-392429D01*
X5892800Y-406400D01*
X5897372Y-429513D01*
X5906770Y-443229D01*
X5920486Y-448055D01*
X5929629Y-448055D01*
X5943600Y-443229D01*
X5952743Y-429513D01*
X5957570Y-406400D01*
X5957570Y-392429D01*
X5952743Y-369570D01*
X5943600Y-355600D01*
X5929629Y-351028D01*
X5920486Y-351028D01*
X2375052Y-4933187D02*
G01*
X2343048Y-4933187D01*
X2340000Y-4961889D01*
X2343048Y-4958587D01*
X2352700Y-4955539D01*
X2362352Y-4955539D01*
X2371750Y-4958587D01*
X2378100Y-4964937D01*
X2381402Y-4974589D01*
X2381402Y-4980939D01*
X2378100Y-4990337D01*
X2371750Y-4996687D01*
X2362352Y-4999989D01*
X2352700Y-4999989D01*
X2343048Y-4996687D01*
X2340000Y-4993639D01*
X2336698Y-4987289D01*
X2402230Y-4933187D02*
G01*
X2427884Y-4999989D01*
X2453284Y-4933187D02*
G01*
X2427884Y-4999989D01*
X13106400Y2045715D02*
G01*
X13106400Y1967737D01*
X13111479Y1952244D01*
X13121893Y1941829D01*
X13137641Y1936750D01*
X13148056Y1936750D01*
X13163550Y1941829D01*
X13173963Y1952244D01*
X13179043Y1967737D01*
X13179043Y2045715D01*
X13213334Y2024887D02*
G01*
X13223747Y2030221D01*
X13239495Y2045715D01*
X13239495Y1936750D01*
D23*
X10338282Y1617753D02*
G01*
X10338282Y1474497D01*
X10338282Y1617753D02*
G01*
X10399496Y1617753D01*
X10420070Y1610895D01*
X10426928Y1604037D01*
X10433532Y1590575D01*
X10433532Y1570001D01*
X10426928Y1556285D01*
X10420070Y1549681D01*
X10399496Y1542823D01*
X10338282Y1542823D01*
X10478744Y1617753D02*
G01*
X10512780Y1474497D01*
X10546816Y1617753D02*
G01*
X10512780Y1474497D01*
X10546816Y1617753D02*
G01*
X10580852Y1474497D01*
X10615142Y1617753D02*
G01*
X10580852Y1474497D01*
X10660100Y1617753D02*
G01*
X10660100Y1474497D01*
X10660100Y1617753D02*
G01*
X10714456Y1474497D01*
X10769066Y1617753D02*
G01*
X10714456Y1474497D01*
X10769066Y1617753D02*
G01*
X10769066Y1474497D01*
X10440550Y1003683D02*
G01*
X10433692Y1017399D01*
X10419976Y1030861D01*
X10406260Y1037719D01*
X10379082Y1037719D01*
X10365366Y1030861D01*
X10351904Y1017399D01*
X10345046Y1003683D01*
X10338188Y983109D01*
X10338188Y949073D01*
X10345046Y928753D01*
X10351904Y915037D01*
X10365366Y901321D01*
X10379082Y894463D01*
X10406260Y894463D01*
X10419976Y901321D01*
X10433692Y915037D01*
X10440550Y928753D01*
X10440550Y949073D01*
X10406260Y949073D02*
G01*
X10440550Y949073D01*
X10485508Y1037719D02*
G01*
X10485508Y894463D01*
X10485508Y1037719D02*
G01*
X10581012Y894463D01*
X10581012Y1037719D02*
G01*
X10581012Y894463D01*
X10625970Y1037719D02*
G01*
X10625970Y894463D01*
X10625970Y1037719D02*
G01*
X10673722Y1037719D01*
X10694042Y1030861D01*
X10707758Y1017399D01*
X10714616Y1003683D01*
X10721474Y983109D01*
X10721474Y949073D01*
X10714616Y928753D01*
X10707758Y915037D01*
X10694042Y901321D01*
X10673722Y894463D01*
X10625970Y894463D01*
X12641204Y1503847D02*
G01*
X12641206Y1351193D01*
X12689210Y1503847D02*
G01*
X12689210Y1351193D01*
X12689210Y1503847D02*
G01*
X12791064Y1351193D01*
X12791064Y1503847D02*
G01*
X12791064Y1351193D01*
X12839070Y1416725D02*
G01*
X12969880Y1416725D01*
X12138192Y1501073D02*
G01*
X12138192Y1357817D01*
X12183150Y1501073D02*
G01*
X12183150Y1357817D01*
X12183150Y1501073D02*
G01*
X12278654Y1357817D01*
X12278654Y1501073D02*
G01*
X12278654Y1357817D01*
X12385080Y1480499D02*
G01*
X12385080Y1357817D01*
X12323612Y1419285D02*
G01*
X12446294Y1419285D01*
X12141314Y1164861D02*
G01*
X12141314Y1021605D01*
X12141314Y1164861D02*
G01*
X12195924Y1021605D01*
X12250280Y1164861D02*
G01*
X12195924Y1021605D01*
X12250280Y1164861D02*
G01*
X12250280Y1021605D01*
X12356706Y1144287D02*
G01*
X12356706Y1021605D01*
X12295238Y1083073D02*
G01*
X12418174Y1083073D01*
X12638285Y1161465D02*
G01*
X12638285Y1018209D01*
X12638285Y1161465D02*
G01*
X12692895Y1018209D01*
X12747251Y1161465D02*
G01*
X12692895Y1018209D01*
X12747251Y1161465D02*
G01*
X12747251Y1018209D01*
X12792463Y1079677D02*
G01*
X12915145Y1079677D01*
D27*
X11050777Y-3314192D02*
G01*
X11045443Y-3303778D01*
X11035029Y-3293363D01*
X11024870Y-3288284D01*
X11004041Y-3288284D01*
X10993627Y-3293363D01*
X10983213Y-3303778D01*
X10977879Y-3314192D01*
X10972800Y-3329939D01*
X10972800Y-3355847D01*
X10977879Y-3371342D01*
X10983213Y-3381755D01*
X10993627Y-3392170D01*
X11004041Y-3397250D01*
X11024870Y-3397250D01*
X11035029Y-3392170D01*
X11045443Y-3381755D01*
X11050777Y-3371342D01*
X11085068Y-3309112D02*
G01*
X11095481Y-3303778D01*
X11110975Y-3288284D01*
X11110975Y-3397250D01*
X11155679Y-3288284D02*
G01*
X11212829Y-3288284D01*
X11181588Y-3329939D01*
X11197336Y-3329939D01*
X11207750Y-3335020D01*
X11212829Y-3340100D01*
X11217909Y-3355847D01*
X11217909Y-3366262D01*
X11212829Y-3381755D01*
X11202415Y-3392170D01*
X11186922Y-3397250D01*
X11171174Y-3397250D01*
X11155679Y-3392170D01*
X11150600Y-3387089D01*
X11145265Y-3376676D01*
X11050777Y-2679192D02*
G01*
X11045443Y-2668778D01*
X11035029Y-2658363D01*
X11024870Y-2653284D01*
X11004041Y-2653284D01*
X10993627Y-2658363D01*
X10983213Y-2668778D01*
X10977879Y-2679192D01*
X10972800Y-2694939D01*
X10972800Y-2720847D01*
X10977879Y-2736342D01*
X10983213Y-2746755D01*
X10993627Y-2757170D01*
X11004041Y-2762250D01*
X11024870Y-2762250D01*
X11035029Y-2757170D01*
X11045443Y-2746755D01*
X11050777Y-2736342D01*
X11085068Y-2674112D02*
G01*
X11095481Y-2668778D01*
X11110975Y-2653284D01*
X11110975Y-2762250D01*
X11197336Y-2653284D02*
G01*
X11145265Y-2725928D01*
X11223243Y-2725928D01*
X11197336Y-2653284D02*
G01*
X11197336Y-2762250D01*
D21*
X5080000Y-2971800D02*
G01*
X4826000Y-2971800D01*
X4826000Y-1701800D01*
X5080000Y-1701800D01*
X5080000Y-2971800D01*
D22*
X5727725Y-1371574D02*
G01*
X5727725Y-1943074D01*
X5499125Y-1943074D01*
X5499125Y-1371574D01*
X5727725Y-1371574D01*
X5613425Y-1371574D02*
G01*
X5613425Y-1333474D01*
X5613425Y-1981174D02*
G01*
X5613425Y-1943074D01*
X5727725Y-2743174D02*
G01*
X5727725Y-3314674D01*
X5499125Y-3314674D01*
X5499125Y-2743174D01*
X5727725Y-2743174D01*
X5613425Y-2743174D02*
G01*
X5613425Y-2705074D01*
X5613425Y-3352774D02*
G01*
X5613425Y-3314674D01*
D21*
X3911600Y-2971800D02*
G01*
X3657600Y-2971800D01*
X3657600Y-1701800D01*
X3911600Y-1701800D01*
X3911600Y-2971800D01*
X4267200Y-2971800D02*
G01*
X4013200Y-2971800D01*
X4013200Y-1701800D01*
X4267200Y-1701800D01*
X4267200Y-2971800D01*
X4267200Y-5486400D02*
G01*
X2235200Y-5486400D01*
X2235200Y-5486400D02*
G01*
X2235200Y-5232400D01*
X4267200Y-5486400D02*
G01*
X4267200Y-5232400D01*
X3225800Y-5232400D01*
X2235200Y-5232400D01*
X6553200Y-5486400D02*
G01*
X4521200Y-5486400D01*
X4521200Y-5486400D02*
G01*
X4521200Y-5232400D01*
X6553200Y-5486400D02*
G01*
X6553200Y-5232400D01*
X5511800Y-5232400D01*
X4521200Y-5232400D01*
X8382000Y-4368800D02*
G01*
X6350000Y-4368800D01*
X6350000Y-4368800D02*
G01*
X6350000Y-4114800D01*
X8382000Y-4368800D02*
G01*
X8382000Y-4114800D01*
X7340600Y-4114800D01*
X6350000Y-4114800D01*
X6299200Y381000D02*
G01*
X8331200Y381000D01*
X8331200Y381000D02*
G01*
X8331200Y127000D01*
X6299200Y381000D02*
G01*
X6299200Y127000D01*
X7340600Y127000D01*
X8331200Y127000D01*
X4013200Y381000D02*
G01*
X6045200Y381000D01*
X6045200Y381000D02*
G01*
X6045200Y127000D01*
X4013200Y381000D02*
G01*
X4013200Y127000D01*
X5054600Y127000D01*
X6045200Y127000D01*
D23*
X1511300Y381000D02*
G01*
X1320800Y381000D01*
X1320800Y127000D01*
X3860800Y127000D01*
X3860800Y381000D01*
D24*
X3860800Y381000D02*
G01*
X1511300Y381000D01*
D23*
X1955800Y-3619500D02*
G01*
X1955800Y-3810000D01*
X2209800Y-3810000D01*
X2209800Y-1270000D01*
X1955800Y-1270000D01*
D24*
X1955800Y-1270000D02*
G01*
X1955800Y-3619500D01*
D23*
X2997200Y-3619500D02*
G01*
X2997200Y-3810000D01*
X3251200Y-3810000D01*
X3251200Y-1270000D01*
X2997200Y-1270000D01*
D24*
X2997200Y-1270000D02*
G01*
X2997200Y-3619500D01*
D23*
X7772400Y-3619500D02*
G01*
X7772400Y-3810000D01*
X8026400Y-3810000D01*
X8026400Y-1270000D01*
X7772400Y-1270000D01*
D24*
X7772400Y-1270000D02*
G01*
X7772400Y-3619500D01*
D23*
X2616200Y-3619500D02*
G01*
X2616200Y-3810000D01*
X2870200Y-3810000D01*
X2870200Y-1270000D01*
X2616200Y-1270000D01*
D24*
X2616200Y-1270000D02*
G01*
X2616200Y-3619500D01*
D23*
X1549400Y-3619500D02*
G01*
X1549400Y-3810000D01*
X1803400Y-3810000D01*
X1803400Y-1270000D01*
X1549400Y-1270000D01*
D24*
X1549400Y-1270000D02*
G01*
X1549400Y-3619500D01*
D21*
X3810000Y-4368800D02*
G01*
X1778000Y-4368800D01*
X1778000Y-4368800D02*
G01*
X1778000Y-4114800D01*
X3810000Y-4368800D02*
G01*
X3810000Y-4114800D01*
X2768600Y-4114800D01*
X1778000Y-4114800D01*
X6070600Y-4368800D02*
G01*
X4038600Y-4368800D01*
X4038600Y-4368800D02*
G01*
X4038600Y-4114800D01*
X6070600Y-4368800D02*
G01*
X6070600Y-4114800D01*
X5029200Y-4114800D01*
X4038600Y-4114800D01*
D23*
X1511300Y-508000D02*
G01*
X1320800Y-508000D01*
X1320800Y-762000D01*
X3860800Y-762000D01*
X3860800Y-508000D01*
D24*
X3860800Y-508000D02*
G01*
X1511300Y-508000D01*
D21*
X4013200Y-508000D02*
G01*
X6045200Y-508000D01*
X6045200Y-508000D02*
G01*
X6045200Y-762000D01*
X4013200Y-508000D02*
G01*
X4013200Y-762000D01*
X5054600Y-762000D01*
X6045200Y-762000D01*
X6299200Y-508000D02*
G01*
X8331200Y-508000D01*
X8331200Y-508000D02*
G01*
X8331200Y-762000D01*
X6299200Y-508000D02*
G01*
X6299200Y-762000D01*
X7340600Y-762000D01*
X8331200Y-762000D01*
X9742195Y-6651807D02*
G01*
X10730202Y-6651807D01*
X9736203Y-7158791D02*
G01*
X10736193Y-7158791D01*
X9736203Y-6411805D02*
G01*
X10736193Y-6411805D01*
X9736203Y-7211799D02*
G01*
X10736193Y-7211799D01*
X10736193Y-6411805D02*
G01*
X10736193Y-7211799D01*
X9736203Y-6411805D02*
G01*
X9736203Y-7211799D01*
X10728205Y-6071791D02*
G01*
X9740196Y-6071791D01*
X10734194Y-5564809D02*
G01*
X9734194Y-5564809D01*
X10734194Y-6311795D02*
G01*
X9734194Y-6311795D01*
X10734194Y-5511800D02*
G01*
X9734194Y-5511800D01*
X9734194Y-6311795D02*
G01*
X9734194Y-5511800D01*
X10734194Y-6311795D02*
G01*
X10734194Y-5511800D01*
X13030200Y-5611876D02*
G01*
X13030200Y-5611876D01*
X13030200Y-5611876D01*
X13030200Y-7211821D01*
X9730231Y-7211821D01*
X9730231Y-5511800D01*
X13030200Y-5511800D01*
X13030200Y-5611876D01*
X12720193Y-6911797D02*
G01*
X12466193Y-6911797D01*
X12466193Y-5811799D01*
X12720193Y-5811799D01*
X12720193Y-6911797D01*
X13030200Y-6911797D02*
G01*
X12718186Y-6911797D01*
X12718186Y-5811799D01*
X13030200Y-5811799D01*
X13030200Y-6911797D01*
X12720193Y-6366814D02*
G01*
X12480188Y-6366814D01*
X12480188Y-6356807D01*
X12720193Y-6356807D01*
X12720193Y-6366814D01*
X703198Y-2649601D02*
G01*
X-96799Y-2649601D01*
X703198Y-3649598D02*
G01*
X-96799Y-3649598D01*
X-96799Y-2649601D02*
G01*
X-96799Y-3649598D01*
X703198Y-2649601D02*
G01*
X703198Y-3649598D01*
X-43789Y-2649601D02*
G01*
X-43789Y-3649598D01*
X463194Y-2655595D02*
G01*
X463194Y-3643604D01*
X14782800Y-6814820D02*
G01*
X15595600Y-6814820D01*
X14782800Y-6494779D02*
G01*
X15595600Y-6494779D01*
X14782800Y-6494779D02*
G01*
X14782800Y-6814820D01*
X15595600Y-6494779D02*
G01*
X15595600Y-6814820D01*
X16306800Y-6814820D02*
G01*
X17119600Y-6814820D01*
X16306800Y-6494779D02*
G01*
X17119600Y-6494779D01*
X16306800Y-6494779D02*
G01*
X16306800Y-6814820D01*
X17119600Y-6494779D02*
G01*
X17119600Y-6814820D01*
X14782800Y1389379D02*
G01*
X15595600Y1389379D01*
X14782800Y1709420D02*
G01*
X15595600Y1709420D01*
X14782800Y1709420D02*
G01*
X14782800Y1389379D01*
X15595600Y1709420D02*
G01*
X15595600Y1389379D01*
X16306800Y1389379D02*
G01*
X17119600Y1389379D01*
X16306800Y1709420D02*
G01*
X17119600Y1709420D01*
X16306800Y1709420D02*
G01*
X16306800Y1389379D01*
X17119600Y1709420D02*
G01*
X17119600Y1389379D01*
D25*
X56134Y-1828863D02*
G01*
X1366265Y-1828863D01*
X56134Y-1824799D02*
G01*
X1366265Y-1824799D01*
X56134Y-1820735D02*
G01*
X1366265Y-1820735D01*
X56387Y-1816925D02*
G01*
X1366012Y-1816925D01*
X56387Y-1812861D02*
G01*
X1366012Y-1812861D01*
X56387Y-1808797D02*
G01*
X1366012Y-1808797D01*
X56642Y-1804733D02*
G01*
X1365757Y-1804733D01*
X56642Y-1800923D02*
G01*
X1365757Y-1800923D01*
X56895Y-1796859D02*
G01*
X1365504Y-1796859D01*
X57150Y-1792795D02*
G01*
X1365250Y-1792795D01*
X57404Y-1788731D02*
G01*
X1364995Y-1788731D01*
X57657Y-1784921D02*
G01*
X1364742Y-1784921D01*
X57912Y-1780857D02*
G01*
X1364487Y-1780857D01*
X58165Y-1776793D02*
G01*
X1364234Y-1776793D01*
X58420Y-1772729D02*
G01*
X1363979Y-1772729D01*
X58928Y-1768919D02*
G01*
X1363471Y-1768919D01*
X59181Y-1764855D02*
G01*
X1363218Y-1764855D01*
X59689Y-1760791D02*
G01*
X1362710Y-1760791D01*
X60197Y-1756727D02*
G01*
X1362202Y-1756727D01*
X60452Y-1752663D02*
G01*
X1361947Y-1752663D01*
X60960Y-1748599D02*
G01*
X1361439Y-1748599D01*
X61468Y-1744789D02*
G01*
X1360931Y-1744789D01*
X61976Y-1740725D02*
G01*
X1360423Y-1740725D01*
X62484Y-1736661D02*
G01*
X1359915Y-1736661D01*
X63245Y-1732597D02*
G01*
X1359154Y-1732597D01*
X63754Y-1728787D02*
G01*
X1358645Y-1728787D01*
X64515Y-1724723D02*
G01*
X1357884Y-1724723D01*
X65023Y-1720659D02*
G01*
X1357376Y-1720659D01*
X65786Y-1716595D02*
G01*
X573278Y-1716595D01*
X849121Y-1716595D02*
G01*
X1356613Y-1716595D01*
X66294Y-1712785D02*
G01*
X573278Y-1712785D01*
X849121Y-1712785D02*
G01*
X1356105Y-1712785D01*
X67310Y-1708721D02*
G01*
X573278Y-1708721D01*
X849121Y-1708721D02*
G01*
X1355089Y-1708721D01*
X67818Y-1704657D02*
G01*
X573278Y-1704657D01*
X849121Y-1704657D02*
G01*
X1354581Y-1704657D01*
X68579Y-1700593D02*
G01*
X573278Y-1700593D01*
X849121Y-1700593D02*
G01*
X1353820Y-1700593D01*
X69595Y-1696783D02*
G01*
X573278Y-1696783D01*
X849121Y-1696783D02*
G01*
X1352804Y-1696783D01*
X70357Y-1692719D02*
G01*
X573278Y-1692719D01*
X849121Y-1692719D02*
G01*
X1352042Y-1692719D01*
X71120Y-1688655D02*
G01*
X573278Y-1688655D01*
X849121Y-1688655D02*
G01*
X1351279Y-1688655D01*
X72136Y-1684591D02*
G01*
X573278Y-1684591D01*
X849121Y-1684591D02*
G01*
X1350263Y-1684591D01*
X72897Y-1680781D02*
G01*
X573278Y-1680781D01*
X849121Y-1680781D02*
G01*
X1349502Y-1680781D01*
X73913Y-1676717D02*
G01*
X573278Y-1676717D01*
X849121Y-1676717D02*
G01*
X1348486Y-1676717D01*
X74929Y-1672653D02*
G01*
X573278Y-1672653D01*
X849121Y-1672653D02*
G01*
X1347470Y-1672653D01*
X75945Y-1668589D02*
G01*
X573278Y-1668589D01*
X849121Y-1668589D02*
G01*
X1346454Y-1668589D01*
X76962Y-1664779D02*
G01*
X573278Y-1664779D01*
X849121Y-1664779D02*
G01*
X1345437Y-1664779D01*
X77978Y-1660715D02*
G01*
X573278Y-1660715D01*
X849121Y-1660715D02*
G01*
X1344421Y-1660715D01*
X78994Y-1656651D02*
G01*
X573278Y-1656651D01*
X849121Y-1656651D02*
G01*
X1343405Y-1656651D01*
X80010Y-1652587D02*
G01*
X573278Y-1652587D01*
X849121Y-1652587D02*
G01*
X1342389Y-1652587D01*
X81279Y-1648777D02*
G01*
X573278Y-1648777D01*
X849121Y-1648777D02*
G01*
X1341120Y-1648777D01*
X82295Y-1644713D02*
G01*
X573278Y-1644713D01*
X849121Y-1644713D02*
G01*
X1340104Y-1644713D01*
X83565Y-1640649D02*
G01*
X573278Y-1640649D01*
X849121Y-1640649D02*
G01*
X1338834Y-1640649D01*
X84581Y-1636585D02*
G01*
X573278Y-1636585D01*
X849121Y-1636585D02*
G01*
X1337818Y-1636585D01*
X86105Y-1632775D02*
G01*
X573278Y-1632775D01*
X849121Y-1632775D02*
G01*
X1336294Y-1632775D01*
X87121Y-1628711D02*
G01*
X573278Y-1628711D01*
X849121Y-1628711D02*
G01*
X1335278Y-1628711D01*
X88392Y-1624647D02*
G01*
X573278Y-1624647D01*
X849121Y-1624647D02*
G01*
X1334007Y-1624647D01*
X89915Y-1620583D02*
G01*
X573278Y-1620583D01*
X849121Y-1620583D02*
G01*
X1332484Y-1620583D01*
X91186Y-1616773D02*
G01*
X573278Y-1616773D01*
X849121Y-1616773D02*
G01*
X1331213Y-1616773D01*
X92710Y-1612709D02*
G01*
X573278Y-1612709D01*
X849121Y-1612709D02*
G01*
X1329689Y-1612709D01*
X93979Y-1608645D02*
G01*
X573278Y-1608645D01*
X849121Y-1608645D02*
G01*
X1328420Y-1608645D01*
X95504Y-1604581D02*
G01*
X573278Y-1604581D01*
X849121Y-1604581D02*
G01*
X1326895Y-1604581D01*
X96773Y-1600771D02*
G01*
X573278Y-1600771D01*
X849121Y-1600771D02*
G01*
X1325626Y-1600771D01*
X98297Y-1596707D02*
G01*
X573278Y-1596707D01*
X849121Y-1596707D02*
G01*
X1324102Y-1596707D01*
X99821Y-1592643D02*
G01*
X573278Y-1592643D01*
X849121Y-1592643D02*
G01*
X1322578Y-1592643D01*
X101345Y-1588579D02*
G01*
X573278Y-1588579D01*
X849121Y-1588579D02*
G01*
X1321054Y-1588579D01*
X103123Y-1584769D02*
G01*
X573278Y-1584769D01*
X849121Y-1584769D02*
G01*
X1319276Y-1584769D01*
X104647Y-1580705D02*
G01*
X573278Y-1580705D01*
X849121Y-1580705D02*
G01*
X1317752Y-1580705D01*
X106171Y-1576641D02*
G01*
X573278Y-1576641D01*
X849121Y-1576641D02*
G01*
X1316228Y-1576641D01*
X107950Y-1572577D02*
G01*
X573278Y-1572577D01*
X849121Y-1572577D02*
G01*
X1314450Y-1572577D01*
X109728Y-1568767D02*
G01*
X573278Y-1568767D01*
X849121Y-1568767D02*
G01*
X1312926Y-1568767D01*
X111252Y-1564703D02*
G01*
X573278Y-1564703D01*
X849121Y-1564703D02*
G01*
X1311147Y-1564703D01*
X113029Y-1560639D02*
G01*
X573278Y-1560639D01*
X849121Y-1560639D02*
G01*
X1309370Y-1560639D01*
X114807Y-1556575D02*
G01*
X573278Y-1556575D01*
X849121Y-1556575D02*
G01*
X1307592Y-1556575D01*
X116586Y-1552765D02*
G01*
X573278Y-1552765D01*
X849121Y-1552765D02*
G01*
X1305813Y-1552765D01*
X118618Y-1548701D02*
G01*
X573278Y-1548701D01*
X849121Y-1548701D02*
G01*
X1303781Y-1548701D01*
X120395Y-1544637D02*
G01*
X573278Y-1544637D01*
X849121Y-1544637D02*
G01*
X1302004Y-1544637D01*
X122428Y-1540573D02*
G01*
X573278Y-1540573D01*
X849121Y-1540573D02*
G01*
X1299971Y-1540573D01*
X124460Y-1536763D02*
G01*
X573278Y-1536763D01*
X849121Y-1536763D02*
G01*
X1297939Y-1536763D01*
X126492Y-1532699D02*
G01*
X573278Y-1532699D01*
X849121Y-1532699D02*
G01*
X1295907Y-1532699D01*
X128523Y-1528635D02*
G01*
X573278Y-1528635D01*
X849121Y-1528635D02*
G01*
X1293876Y-1528635D01*
X130555Y-1524825D02*
G01*
X573278Y-1524825D01*
X849121Y-1524825D02*
G01*
X1291844Y-1524825D01*
X132587Y-1520761D02*
G01*
X573278Y-1520761D01*
X849121Y-1520761D02*
G01*
X1289812Y-1520761D01*
X134620Y-1516697D02*
G01*
X573278Y-1516697D01*
X849121Y-1516697D02*
G01*
X1287779Y-1516697D01*
X136905Y-1512633D02*
G01*
X573278Y-1512633D01*
X849121Y-1512633D02*
G01*
X1285494Y-1512633D01*
X139192Y-1508823D02*
G01*
X573278Y-1508823D01*
X849121Y-1508823D02*
G01*
X1283207Y-1508823D01*
X141223Y-1504759D02*
G01*
X573278Y-1504759D01*
X849121Y-1504759D02*
G01*
X1281176Y-1504759D01*
X143510Y-1500695D02*
G01*
X573278Y-1500695D01*
X849121Y-1500695D02*
G01*
X1278889Y-1500695D01*
X145795Y-1496631D02*
G01*
X573278Y-1496631D01*
X849121Y-1496631D02*
G01*
X1276604Y-1496631D01*
X148081Y-1492821D02*
G01*
X573278Y-1492821D01*
X849121Y-1492821D02*
G01*
X1274318Y-1492821D01*
X150621Y-1488757D02*
G01*
X573278Y-1488757D01*
X849121Y-1488757D02*
G01*
X1271778Y-1488757D01*
X153162Y-1484693D02*
G01*
X573278Y-1484693D01*
X849121Y-1484693D02*
G01*
X1269237Y-1484693D01*
X155447Y-1480629D02*
G01*
X573278Y-1480629D01*
X849121Y-1480629D02*
G01*
X1266952Y-1480629D01*
X157987Y-1476819D02*
G01*
X573278Y-1476819D01*
X849121Y-1476819D02*
G01*
X1264412Y-1476819D01*
X160528Y-1472755D02*
G01*
X573278Y-1472755D01*
X849121Y-1472755D02*
G01*
X1261871Y-1472755D01*
X163321Y-1468691D02*
G01*
X573278Y-1468691D01*
X849121Y-1468691D02*
G01*
X1259078Y-1468691D01*
X165862Y-1464627D02*
G01*
X573278Y-1464627D01*
X849121Y-1464627D02*
G01*
X1256537Y-1464627D01*
X168402Y-1460817D02*
G01*
X573278Y-1460817D01*
X849121Y-1460817D02*
G01*
X1253997Y-1460817D01*
X171195Y-1456753D02*
G01*
X573278Y-1456753D01*
X849121Y-1456753D02*
G01*
X1251204Y-1456753D01*
X173989Y-1452689D02*
G01*
X573278Y-1452689D01*
X849121Y-1452689D02*
G01*
X1248410Y-1452689D01*
X176784Y-1448625D02*
G01*
X573278Y-1448625D01*
X849121Y-1448625D02*
G01*
X1245615Y-1448625D01*
X179578Y-1444815D02*
G01*
X573278Y-1444815D01*
X849121Y-1444815D02*
G01*
X1242821Y-1444815D01*
X182626Y-1440751D02*
G01*
X1239773Y-1440751D01*
X185420Y-1436687D02*
G01*
X1236979Y-1436687D01*
X188468Y-1432623D02*
G01*
X1233931Y-1432623D01*
X191515Y-1428813D02*
G01*
X1230884Y-1428813D01*
X194563Y-1424749D02*
G01*
X1227836Y-1424749D01*
X197612Y-1420685D02*
G01*
X1224787Y-1420685D01*
X200913Y-1416621D02*
G01*
X1221486Y-1416621D01*
X203962Y-1412811D02*
G01*
X1218437Y-1412811D01*
X207263Y-1408747D02*
G01*
X1215136Y-1408747D01*
X210820Y-1404683D02*
G01*
X1211579Y-1404683D01*
X214121Y-1400619D02*
G01*
X1208278Y-1400619D01*
X217423Y-1396809D02*
G01*
X1204976Y-1396809D01*
X220979Y-1392745D02*
G01*
X1201420Y-1392745D01*
X224536Y-1388681D02*
G01*
X1197863Y-1388681D01*
X228092Y-1384617D02*
G01*
X1194307Y-1384617D01*
X231902Y-1380807D02*
G01*
X1190497Y-1380807D01*
X235712Y-1376743D02*
G01*
X1186687Y-1376743D01*
X239521Y-1372679D02*
G01*
X1182878Y-1372679D01*
X243331Y-1368615D02*
G01*
X1179068Y-1368615D01*
X247142Y-1364805D02*
G01*
X1175257Y-1364805D01*
X251205Y-1360741D02*
G01*
X1171194Y-1360741D01*
X255270Y-1356677D02*
G01*
X1167129Y-1356677D01*
X259334Y-1352613D02*
G01*
X1163065Y-1352613D01*
X263652Y-1348803D02*
G01*
X1158747Y-1348803D01*
X267970Y-1344739D02*
G01*
X1154429Y-1344739D01*
X272287Y-1340675D02*
G01*
X1150112Y-1340675D01*
X276605Y-1336611D02*
G01*
X1145794Y-1336611D01*
X281178Y-1332801D02*
G01*
X1141221Y-1332801D01*
X286004Y-1328737D02*
G01*
X1136395Y-1328737D01*
X290576Y-1324673D02*
G01*
X1131823Y-1324673D01*
X295402Y-1320609D02*
G01*
X1126997Y-1320609D01*
X300228Y-1316799D02*
G01*
X1122171Y-1316799D01*
X305307Y-1312735D02*
G01*
X1117092Y-1312735D01*
X310387Y-1308671D02*
G01*
X1112012Y-1308671D01*
X315468Y-1304607D02*
G01*
X1106931Y-1304607D01*
X320802Y-1300797D02*
G01*
X1101597Y-1300797D01*
X326136Y-1296733D02*
G01*
X1096263Y-1296733D01*
X331723Y-1292669D02*
G01*
X1090676Y-1292669D01*
X337312Y-1288605D02*
G01*
X1085087Y-1288605D01*
X343154Y-1284795D02*
G01*
X1079245Y-1284795D01*
X348995Y-1280731D02*
G01*
X1073404Y-1280731D01*
X355092Y-1276667D02*
G01*
X1067307Y-1276667D01*
X361442Y-1272603D02*
G01*
X1060957Y-1272603D01*
X367792Y-1268793D02*
G01*
X1054607Y-1268793D01*
X374395Y-1264729D02*
G01*
X1048004Y-1264729D01*
X381000Y-1260665D02*
G01*
X1041400Y-1260665D01*
X387857Y-1256601D02*
G01*
X1034542Y-1256601D01*
X394970Y-1252791D02*
G01*
X1027429Y-1252791D01*
X402336Y-1248727D02*
G01*
X1020063Y-1248727D01*
X409702Y-1244663D02*
G01*
X1012697Y-1244663D01*
X417576Y-1240599D02*
G01*
X1004823Y-1240599D01*
X425704Y-1236789D02*
G01*
X996695Y-1236789D01*
X434086Y-1232725D02*
G01*
X988313Y-1232725D01*
X442721Y-1228661D02*
G01*
X979678Y-1228661D01*
X451612Y-1224597D02*
G01*
X970787Y-1224597D01*
X461010Y-1220787D02*
G01*
X961389Y-1220787D01*
X470662Y-1216723D02*
G01*
X951737Y-1216723D01*
X481076Y-1212659D02*
G01*
X941323Y-1212659D01*
X491744Y-1208595D02*
G01*
X930655Y-1208595D01*
X503173Y-1204785D02*
G01*
X919226Y-1204785D01*
X515365Y-1200721D02*
G01*
X907034Y-1200721D01*
X528320Y-1196657D02*
G01*
X894079Y-1196657D01*
X542544Y-1192593D02*
G01*
X879855Y-1192593D01*
X558037Y-1188783D02*
G01*
X864362Y-1188783D01*
X575310Y-1184719D02*
G01*
X847089Y-1184719D01*
X595121Y-1180655D02*
G01*
X827278Y-1180655D01*
X619505Y-1176591D02*
G01*
X802894Y-1176591D01*
X652271Y-1172781D02*
G01*
X770128Y-1172781D01*
X711200Y-2398839D02*
G01*
X711200Y-2218753D01*
X621284Y-2308923D02*
G01*
X801115Y-2308923D01*
D21*
X15506700Y-6108700D02*
G01*
X15506700Y-6159500D01*
X14871700Y-6159500D01*
X14871700Y-6108700D01*
X14871700Y-5969000D02*
G01*
X14871700Y-5930900D01*
X15506700Y-5930900D01*
X15506700Y-5969000D01*
X17030700Y-6108700D02*
G01*
X17030700Y-6159500D01*
X16395700Y-6159500D01*
X16395700Y-6108700D01*
X16395700Y-5969000D02*
G01*
X16395700Y-5930900D01*
X17030700Y-5930900D01*
X17030700Y-5969000D01*
X15506700Y952500D02*
G01*
X15506700Y901700D01*
X14871700Y901700D01*
X14871700Y952500D01*
X14871700Y1092200D02*
G01*
X14871700Y1130300D01*
X15506700Y1130300D01*
X15506700Y1092200D01*
X17030700Y952500D02*
G01*
X17030700Y901700D01*
X16395700Y901700D01*
X16395700Y952500D01*
X16395700Y1092200D02*
G01*
X16395700Y1130300D01*
X17030700Y1130300D01*
X17030700Y1092200D01*
X13322300Y-3492500D02*
G01*
X13322300Y-3441700D01*
X13957300Y-3441700D01*
X13957300Y-3492500D01*
X13957300Y-3632200D02*
G01*
X13957300Y-3670300D01*
X13322300Y-3670300D01*
X13322300Y-3632200D01*
X13322300Y-4152900D02*
G01*
X13322300Y-4102100D01*
X13957300Y-4102100D01*
X13957300Y-4152900D01*
X13957300Y-4292600D02*
G01*
X13957300Y-4330700D01*
X13322300Y-4330700D01*
X13322300Y-4292600D01*
X15887700Y-3492500D02*
G01*
X15887700Y-3441700D01*
X16522700Y-3441700D01*
X16522700Y-3492500D01*
X16522700Y-3632200D02*
G01*
X16522700Y-3670300D01*
X15887700Y-3670300D01*
X15887700Y-3632200D01*
X15887700Y-4152900D02*
G01*
X15887700Y-4102100D01*
X16522700Y-4102100D01*
X16522700Y-4152900D01*
X16522700Y-4292600D02*
G01*
X16522700Y-4330700D01*
X15887700Y-4330700D01*
X15887700Y-4292600D01*
X13322300Y-2857500D02*
G01*
X13322300Y-2806700D01*
X13957300Y-2806700D01*
X13957300Y-2857500D01*
X13957300Y-2997200D02*
G01*
X13957300Y-3035300D01*
X13322300Y-3035300D01*
X13322300Y-2997200D01*
X11391900Y-4254500D02*
G01*
X11391900Y-4305300D01*
X10756900Y-4305300D01*
X10756900Y-4254500D01*
X10756900Y-4114800D02*
G01*
X10756900Y-4076700D01*
X11391900Y-4076700D01*
X11391900Y-4114800D01*
X15887700Y-2857500D02*
G01*
X15887700Y-2806700D01*
X16522700Y-2806700D01*
X16522700Y-2857500D01*
X16522700Y-2997200D02*
G01*
X16522700Y-3035300D01*
X15887700Y-3035300D01*
X15887700Y-2997200D01*
X8839200Y-5461000D02*
G01*
X6807200Y-5461000D01*
X6807200Y-5461000D02*
G01*
X6807200Y-5207000D01*
X8839200Y-5461000D02*
G01*
X8839200Y-5207000D01*
X7797800Y-5207000D01*
X6807200Y-5207000D01*
D23*
X12052300Y-5181602D02*
G01*
X12242800Y-5181602D01*
X12242800Y-4940302D01*
X9956800Y-4940302D01*
X9956800Y-5181602D01*
D24*
X9956800Y-5181602D02*
G01*
X12052300Y-5181602D01*
X9956800Y-139702D02*
G01*
X12052300Y-139702D01*
D23*
X12052300Y-139702D02*
G01*
X12242800Y-139702D01*
X12242800Y114297D01*
X9956800Y114297D01*
X9956800Y-139702D01*
D21*
X12242406Y114287D02*
G01*
X12242406Y-5185702D01*
X9956787Y-5185702D01*
X9956787Y114287D01*
X12242406Y114287D01*
D23*
X14592211Y-5181602D02*
G01*
X14782711Y-5181602D01*
X14782711Y-4940302D01*
X12496711Y-4940302D01*
X12496711Y-5181602D01*
D24*
X12496711Y-5181602D02*
G01*
X14592211Y-5181602D01*
X12496711Y-139702D02*
G01*
X14592211Y-139702D01*
D23*
X14592211Y-139702D02*
G01*
X14782711Y-139702D01*
X14782711Y114297D01*
X12496711Y114297D01*
X12496711Y-139702D01*
D21*
X14782317Y114287D02*
G01*
X14782317Y-5185702D01*
X12496698Y-5185702D01*
X12496698Y114287D01*
X14782317Y114287D01*
D23*
X15227300Y101602D02*
G01*
X15036800Y101602D01*
X15036800Y-139697D01*
X17322800Y-139697D01*
X17322800Y101602D01*
D24*
X17322800Y101602D02*
G01*
X15227300Y101602D01*
X17322800Y-4940297D02*
G01*
X15227300Y-4940297D01*
D23*
X15227300Y-4940297D02*
G01*
X15036800Y-4940297D01*
X15036800Y-5194297D01*
X17322800Y-5194297D01*
X17322800Y-4940297D01*
D21*
X15037193Y-5194287D02*
G01*
X15037193Y105702D01*
X17322812Y105702D01*
X17322812Y-5194287D01*
X15037193Y-5194287D01*
X2489200Y-4914900D02*
G01*
X2489200Y-5041900D01*
X2552700Y-5105400D02*
G01*
X2489200Y-5041900D01*
X2552700Y-4851400D02*
G01*
X2489200Y-4914900D01*
X2679700Y-4851400D02*
G01*
X2743200Y-4914900D01*
X2679700Y-4851400D02*
G01*
X2552700Y-4851400D01*
X2679700Y-5105400D02*
G01*
X2552700Y-5105400D01*
X2933700Y-5105400D02*
G01*
X2806700Y-5105400D01*
X2679700Y-5105400D02*
G01*
X2743200Y-5041900D01*
X2806700Y-4851400D02*
G01*
X2933700Y-4851400D01*
X2997200Y-4914900D02*
G01*
X3060700Y-4851400D01*
X2933700Y-4851400D02*
G01*
X2997200Y-4914900D01*
D26*
X8194042Y-1277620D02*
G01*
X8458200Y-1016000D01*
X8458200Y-1016000D02*
G01*
X8458200Y-309879D01*
D21*
X4267200Y-4914900D02*
G01*
X4267200Y-5041900D01*
X2743200Y-5041900D02*
G01*
X2806700Y-5105400D01*
X2806700Y-4851400D02*
G01*
X2743200Y-4914900D01*
X3060700Y-5105400D02*
G01*
X2997200Y-5041900D01*
X3187700Y-5105400D02*
G01*
X3060700Y-5105400D01*
X3251200Y-5041900D02*
G01*
X3187700Y-5105400D01*
X3187700Y-4851400D02*
G01*
X3251200Y-4914900D01*
X3060700Y-4851400D02*
G01*
X3187700Y-4851400D01*
X2997200Y-5041900D02*
G01*
X2933700Y-5105400D01*
X3695700Y-5105400D02*
G01*
X3568700Y-5105400D01*
X3505200Y-5041900D02*
G01*
X3568700Y-5105400D01*
X3568700Y-4851400D02*
G01*
X3505200Y-4914900D01*
X3314700Y-5105400D02*
G01*
X3251200Y-5041900D01*
X3441700Y-5105400D02*
G01*
X3314700Y-5105400D01*
X3505200Y-5041900D02*
G01*
X3441700Y-5105400D01*
X3441700Y-4851400D02*
G01*
X3505200Y-4914900D01*
X3314700Y-4851400D02*
G01*
X3441700Y-4851400D01*
X3251200Y-4914900D02*
G01*
X3314700Y-4851400D01*
X3822700Y-5105400D02*
G01*
X3759200Y-5041900D01*
X3949700Y-5105400D02*
G01*
X3822700Y-5105400D01*
X4013200Y-5041900D02*
G01*
X3949700Y-5105400D01*
X3949700Y-4851400D02*
G01*
X4013200Y-4914900D01*
X3822700Y-4851400D02*
G01*
X3949700Y-4851400D01*
X3759200Y-4914900D02*
G01*
X3822700Y-4851400D01*
X3759200Y-5041900D02*
G01*
X3695700Y-5105400D01*
X3695700Y-4851400D02*
G01*
X3759200Y-4914900D01*
X3568700Y-4851400D02*
G01*
X3695700Y-4851400D01*
X4076700Y-5105400D02*
G01*
X4013200Y-5041900D01*
X4203700Y-5105400D02*
G01*
X4076700Y-5105400D01*
X4267200Y-5041900D02*
G01*
X4203700Y-5105400D01*
X4203700Y-4851400D02*
G01*
X4267200Y-4914900D01*
X4076700Y-4851400D02*
G01*
X4203700Y-4851400D01*
X4013200Y-4914900D02*
G01*
X4076700Y-4851400D01*
X5905500Y-660400D02*
G01*
X5854700Y-609600D01*
X5956300Y-609600D02*
G01*
X5905500Y-660400D01*
X5905500Y-533400D02*
G01*
X5905500Y-660400D01*
X5651500Y-533400D02*
G01*
X5702300Y-584200D01*
X5600700Y-584200D02*
G01*
X5651500Y-533400D01*
X5651500Y-660400D02*
G01*
X5651500Y-533400D01*
D26*
X8361685Y-4345942D02*
G01*
X9649457Y-4345942D01*
X8191500Y-4175757D02*
G01*
X8361685Y-4345942D01*
X9220200Y-4678679D02*
G01*
X9220200Y-4602479D01*
X8966200Y-4678679D02*
G01*
X9220200Y-4678679D01*
X8966200Y-4605020D02*
G01*
X8966200Y-4678679D01*
X9220200Y45720D02*
G01*
X9220200Y-20320D01*
X8966200Y45720D02*
G01*
X9220200Y45720D01*
X8966200Y-17779D02*
G01*
X8966200Y45720D01*
X8194042Y-1277620D02*
G01*
X8194042Y-4089400D01*
D21*
X9283700Y-279400D02*
G01*
X8902700Y-279400D01*
X8902700Y-25400D02*
G01*
X9283700Y-25400D01*
X9347200Y-88900D02*
G01*
X9347200Y-215900D01*
X8839200Y-215900D02*
G01*
X8902700Y-279400D01*
X8902700Y-25400D02*
G01*
X8839200Y-88900D01*
X8839200Y-88900D02*
G01*
X8839200Y-215900D01*
X9347200Y-215900D02*
G01*
X9283700Y-279400D01*
X9283700Y-25400D02*
G01*
X9347200Y-88900D01*
X9283700Y-4597400D02*
G01*
X8902700Y-4597400D01*
X8902700Y-4343400D02*
G01*
X9283700Y-4343400D01*
X9347200Y-4406900D02*
G01*
X9347200Y-4533900D01*
X8839200Y-4533900D02*
G01*
X8902700Y-4597400D01*
X8902700Y-4343400D02*
G01*
X8839200Y-4406900D01*
X8839200Y-4406900D02*
G01*
X8839200Y-4533900D01*
X9347200Y-4533900D02*
G01*
X9283700Y-4597400D01*
X9283700Y-4343400D02*
G01*
X9347200Y-4406900D01*
X9347200Y-4279900D02*
G01*
X9347200Y-4152900D01*
X9347200Y-4025900D02*
G01*
X9347200Y-3898900D01*
X9347200Y-3771900D02*
G01*
X9347200Y-3644900D01*
X9347200Y-3517900D02*
G01*
X9347200Y-3390900D01*
X9347200Y-3263900D02*
G01*
X9347200Y-3136900D01*
X9347200Y-3009900D02*
G01*
X9347200Y-2882900D01*
X9347200Y-2755900D02*
G01*
X9347200Y-2628900D01*
X9347200Y-2501900D02*
G01*
X9347200Y-2374900D01*
X8902700Y-2311400D02*
G01*
X9283700Y-2311400D01*
X8902700Y-2565400D02*
G01*
X9283700Y-2565400D01*
X8902700Y-2819400D02*
G01*
X9283700Y-2819400D01*
X8902700Y-3073400D02*
G01*
X9283700Y-3073400D01*
X8902700Y-3327400D02*
G01*
X9283700Y-3327400D01*
X8902700Y-3581400D02*
G01*
X9283700Y-3581400D01*
X8902700Y-3835400D02*
G01*
X9283700Y-3835400D01*
X8902700Y-4089400D02*
G01*
X9283700Y-4089400D01*
X9283700Y-2819400D02*
G01*
X9347200Y-2755900D01*
X9283700Y-2565400D02*
G01*
X9347200Y-2628900D01*
X9283700Y-2565400D02*
G01*
X9347200Y-2501900D01*
X9283700Y-2311400D02*
G01*
X9347200Y-2374900D01*
X8839200Y-2374900D02*
G01*
X8902700Y-2311400D01*
X8839200Y-2501900D02*
G01*
X8839200Y-2374900D01*
X8902700Y-2565400D02*
G01*
X8839200Y-2501900D01*
X8839200Y-2628900D02*
G01*
X8902700Y-2565400D01*
X8839200Y-2755900D02*
G01*
X8839200Y-2628900D01*
X8902700Y-2819400D02*
G01*
X8839200Y-2755900D01*
X8839200Y-2882900D02*
G01*
X8902700Y-2819400D01*
X8839200Y-3009900D02*
G01*
X8839200Y-2882900D01*
X8902700Y-3073400D02*
G01*
X8839200Y-3009900D01*
X8839200Y-3136900D02*
G01*
X8902700Y-3073400D01*
X8839200Y-3263900D02*
G01*
X8839200Y-3136900D01*
X8902700Y-3327400D02*
G01*
X8839200Y-3263900D01*
X8839200Y-3390900D02*
G01*
X8902700Y-3327400D01*
X8839200Y-3517900D02*
G01*
X8839200Y-3390900D01*
X8902700Y-3581400D02*
G01*
X8839200Y-3517900D01*
X8839200Y-3644900D02*
G01*
X8902700Y-3581400D01*
X8839200Y-3771900D02*
G01*
X8839200Y-3644900D01*
X8902700Y-3835400D02*
G01*
X8839200Y-3771900D01*
X8839200Y-3898900D02*
G01*
X8902700Y-3835400D01*
X8839200Y-4025900D02*
G01*
X8839200Y-3898900D01*
X8902700Y-4089400D02*
G01*
X8839200Y-4025900D01*
X8839200Y-4152900D02*
G01*
X8902700Y-4089400D01*
X8839200Y-4279900D02*
G01*
X8839200Y-4152900D01*
X8902700Y-4343400D02*
G01*
X8839200Y-4279900D01*
X9347200Y-2882900D02*
G01*
X9283700Y-2819400D01*
X9283700Y-3073400D02*
G01*
X9347200Y-3009900D01*
X9347200Y-3136900D02*
G01*
X9283700Y-3073400D01*
X9283700Y-3327400D02*
G01*
X9347200Y-3263900D01*
X9347200Y-3390900D02*
G01*
X9283700Y-3327400D01*
X9283700Y-3581400D02*
G01*
X9347200Y-3517900D01*
X9347200Y-3644900D02*
G01*
X9283700Y-3581400D01*
X9283700Y-3835400D02*
G01*
X9347200Y-3771900D01*
X9347200Y-3898900D02*
G01*
X9283700Y-3835400D01*
X9283700Y-4089400D02*
G01*
X9347200Y-4025900D01*
X9347200Y-4152900D02*
G01*
X9283700Y-4089400D01*
X9283700Y-4343400D02*
G01*
X9347200Y-4279900D01*
X9347200Y-2247900D02*
G01*
X9347200Y-2120900D01*
X9347200Y-1993900D02*
G01*
X9347200Y-1866900D01*
X9347200Y-1739900D02*
G01*
X9347200Y-1612900D01*
X9347200Y-1485900D02*
G01*
X9347200Y-1358900D01*
X9347200Y-1231900D02*
G01*
X9347200Y-1104900D01*
X9347200Y-977900D02*
G01*
X9347200Y-850900D01*
X9347200Y-723900D02*
G01*
X9347200Y-596900D01*
X9347200Y-469900D02*
G01*
X9347200Y-342900D01*
X8902700Y-533400D02*
G01*
X9283700Y-533400D01*
X8902700Y-787400D02*
G01*
X9283700Y-787400D01*
X8902700Y-1041400D02*
G01*
X9283700Y-1041400D01*
X8902700Y-1295400D02*
G01*
X9283700Y-1295400D01*
X8902700Y-1549400D02*
G01*
X9283700Y-1549400D01*
X8902700Y-1803400D02*
G01*
X9283700Y-1803400D01*
X8902700Y-2057400D02*
G01*
X9283700Y-2057400D01*
X9283700Y-787400D02*
G01*
X9347200Y-723900D01*
X9283700Y-533400D02*
G01*
X9347200Y-596900D01*
X9283700Y-533400D02*
G01*
X9347200Y-469900D01*
X9283700Y-279400D02*
G01*
X9347200Y-342900D01*
X8839200Y-342900D02*
G01*
X8902700Y-279400D01*
X8839200Y-469900D02*
G01*
X8839200Y-342900D01*
X8902700Y-533400D02*
G01*
X8839200Y-469900D01*
X8839200Y-596900D02*
G01*
X8902700Y-533400D01*
X8839200Y-723900D02*
G01*
X8839200Y-596900D01*
X8902700Y-787400D02*
G01*
X8839200Y-723900D01*
X8839200Y-850900D02*
G01*
X8902700Y-787400D01*
X8839200Y-977900D02*
G01*
X8839200Y-850900D01*
X8902700Y-1041400D02*
G01*
X8839200Y-977900D01*
X8839200Y-1104900D02*
G01*
X8902700Y-1041400D01*
X8839200Y-1231900D02*
G01*
X8839200Y-1104900D01*
X8902700Y-1295400D02*
G01*
X8839200Y-1231900D01*
X8839200Y-1358900D02*
G01*
X8902700Y-1295400D01*
X8839200Y-1485900D02*
G01*
X8839200Y-1358900D01*
X8902700Y-1549400D02*
G01*
X8839200Y-1485900D01*
X8839200Y-1612900D02*
G01*
X8902700Y-1549400D01*
X8839200Y-1739900D02*
G01*
X8839200Y-1612900D01*
X8902700Y-1803400D02*
G01*
X8839200Y-1739900D01*
X8839200Y-1866900D02*
G01*
X8902700Y-1803400D01*
X8839200Y-1993900D02*
G01*
X8839200Y-1866900D01*
X8902700Y-2057400D02*
G01*
X8839200Y-1993900D01*
X8839200Y-2120900D02*
G01*
X8902700Y-2057400D01*
X8839200Y-2247900D02*
G01*
X8839200Y-2120900D01*
X8902700Y-2311400D02*
G01*
X8839200Y-2247900D01*
X9347200Y-850900D02*
G01*
X9283700Y-787400D01*
X9283700Y-1041400D02*
G01*
X9347200Y-977900D01*
X9347200Y-1104900D02*
G01*
X9283700Y-1041400D01*
X9283700Y-1295400D02*
G01*
X9347200Y-1231900D01*
X9347200Y-1358900D02*
G01*
X9283700Y-1295400D01*
X9283700Y-1549400D02*
G01*
X9347200Y-1485900D01*
X9347200Y-1612900D02*
G01*
X9283700Y-1549400D01*
X9283700Y-1803400D02*
G01*
X9347200Y-1739900D01*
X9347200Y-1866900D02*
G01*
X9283700Y-1803400D01*
X9283700Y-2057400D02*
G01*
X9347200Y-1993900D01*
X9347200Y-2120900D02*
G01*
X9283700Y-2057400D01*
X9283700Y-2311400D02*
G01*
X9347200Y-2247900D01*
X3797300Y-279400D02*
G01*
X3670300Y-279400D01*
X3606800Y-215900D02*
G01*
X3670300Y-279400D01*
X3670300Y-25400D02*
G01*
X3606800Y-88900D01*
X3860800Y-215900D02*
G01*
X3797300Y-279400D01*
X3860800Y-88900D02*
G01*
X3860800Y-215900D01*
X3797300Y-25400D02*
G01*
X3860800Y-88900D01*
X3670300Y-25400D02*
G01*
X3797300Y-25400D01*
X2019300Y-279400D02*
G01*
X1892300Y-279400D01*
X1828800Y-215900D02*
G01*
X1892300Y-279400D01*
X1892300Y-25400D02*
G01*
X1828800Y-88900D01*
X1828800Y-88900D02*
G01*
X1828800Y-215900D01*
X2146300Y-279400D02*
G01*
X2082800Y-215900D01*
X2273300Y-279400D02*
G01*
X2146300Y-279400D01*
X2336800Y-215900D02*
G01*
X2273300Y-279400D01*
X2273300Y-25400D02*
G01*
X2336800Y-88900D01*
X2146300Y-25400D02*
G01*
X2273300Y-25400D01*
X2082800Y-88900D02*
G01*
X2146300Y-25400D01*
X2082800Y-215900D02*
G01*
X2019300Y-279400D01*
X2019300Y-25400D02*
G01*
X2082800Y-88900D01*
X1892300Y-25400D02*
G01*
X2019300Y-25400D01*
X2781300Y-279400D02*
G01*
X2654300Y-279400D01*
X2590800Y-215900D02*
G01*
X2654300Y-279400D01*
X2654300Y-25400D02*
G01*
X2590800Y-88900D01*
X2400300Y-279400D02*
G01*
X2336800Y-215900D01*
X2527300Y-279400D02*
G01*
X2400300Y-279400D01*
X2590800Y-215900D02*
G01*
X2527300Y-279400D01*
X2527300Y-25400D02*
G01*
X2590800Y-88900D01*
X2400300Y-25400D02*
G01*
X2527300Y-25400D01*
X2336800Y-88900D02*
G01*
X2400300Y-25400D01*
X2908300Y-279400D02*
G01*
X2844800Y-215900D01*
X3035300Y-279400D02*
G01*
X2908300Y-279400D01*
X3098800Y-215900D02*
G01*
X3035300Y-279400D01*
X3035300Y-25400D02*
G01*
X3098800Y-88900D01*
X2908300Y-25400D02*
G01*
X3035300Y-25400D01*
X2844800Y-88900D02*
G01*
X2908300Y-25400D01*
X2844800Y-215900D02*
G01*
X2781300Y-279400D01*
X2781300Y-25400D02*
G01*
X2844800Y-88900D01*
X2654300Y-25400D02*
G01*
X2781300Y-25400D01*
X3543300Y-279400D02*
G01*
X3416300Y-279400D01*
X3352800Y-215900D02*
G01*
X3416300Y-279400D01*
X3416300Y-25400D02*
G01*
X3352800Y-88900D01*
X3162300Y-279400D02*
G01*
X3098800Y-215900D01*
X3289300Y-279400D02*
G01*
X3162300Y-279400D01*
X3352800Y-215900D02*
G01*
X3289300Y-279400D01*
X3289300Y-25400D02*
G01*
X3352800Y-88900D01*
X3162300Y-25400D02*
G01*
X3289300Y-25400D01*
X3098800Y-88900D02*
G01*
X3162300Y-25400D01*
X3606800Y-215900D02*
G01*
X3543300Y-279400D01*
X3543300Y-25400D02*
G01*
X3606800Y-88900D01*
X3416300Y-25400D02*
G01*
X3543300Y-25400D01*
X5981700Y-279400D02*
G01*
X5854700Y-279400D01*
X5791200Y-215900D02*
G01*
X5854700Y-279400D01*
X5854700Y-25400D02*
G01*
X5791200Y-88900D01*
X6045200Y-215900D02*
G01*
X5981700Y-279400D01*
X6045200Y-88900D02*
G01*
X6045200Y-215900D01*
X5981700Y-25400D02*
G01*
X6045200Y-88900D01*
X5854700Y-25400D02*
G01*
X5981700Y-25400D01*
X4203700Y-279400D02*
G01*
X4076700Y-279400D01*
X4013200Y-215900D02*
G01*
X4076700Y-279400D01*
X4076700Y-25400D02*
G01*
X4013200Y-88900D01*
X4013200Y-88900D02*
G01*
X4013200Y-215900D01*
X4330700Y-279400D02*
G01*
X4267200Y-215900D01*
X4457700Y-279400D02*
G01*
X4330700Y-279400D01*
X4521200Y-215900D02*
G01*
X4457700Y-279400D01*
X4457700Y-25400D02*
G01*
X4521200Y-88900D01*
X4330700Y-25400D02*
G01*
X4457700Y-25400D01*
X4267200Y-88900D02*
G01*
X4330700Y-25400D01*
X4267200Y-215900D02*
G01*
X4203700Y-279400D01*
X4203700Y-25400D02*
G01*
X4267200Y-88900D01*
X4076700Y-25400D02*
G01*
X4203700Y-25400D01*
X4965700Y-279400D02*
G01*
X4838700Y-279400D01*
X4775200Y-215900D02*
G01*
X4838700Y-279400D01*
X4838700Y-25400D02*
G01*
X4775200Y-88900D01*
X4584700Y-279400D02*
G01*
X4521200Y-215900D01*
X4711700Y-279400D02*
G01*
X4584700Y-279400D01*
X4775200Y-215900D02*
G01*
X4711700Y-279400D01*
X4711700Y-25400D02*
G01*
X4775200Y-88900D01*
X4584700Y-25400D02*
G01*
X4711700Y-25400D01*
X4521200Y-88900D02*
G01*
X4584700Y-25400D01*
X5092700Y-279400D02*
G01*
X5029200Y-215900D01*
X5219700Y-279400D02*
G01*
X5092700Y-279400D01*
X5283200Y-215900D02*
G01*
X5219700Y-279400D01*
X5219700Y-25400D02*
G01*
X5283200Y-88900D01*
X5092700Y-25400D02*
G01*
X5219700Y-25400D01*
X5029200Y-88900D02*
G01*
X5092700Y-25400D01*
X5029200Y-215900D02*
G01*
X4965700Y-279400D01*
X4965700Y-25400D02*
G01*
X5029200Y-88900D01*
X4838700Y-25400D02*
G01*
X4965700Y-25400D01*
X5727700Y-279400D02*
G01*
X5600700Y-279400D01*
X5537200Y-215900D02*
G01*
X5600700Y-279400D01*
X5600700Y-25400D02*
G01*
X5537200Y-88900D01*
X5346700Y-279400D02*
G01*
X5283200Y-215900D01*
X5473700Y-279400D02*
G01*
X5346700Y-279400D01*
X5537200Y-215900D02*
G01*
X5473700Y-279400D01*
X5473700Y-25400D02*
G01*
X5537200Y-88900D01*
X5346700Y-25400D02*
G01*
X5473700Y-25400D01*
X5283200Y-88900D02*
G01*
X5346700Y-25400D01*
X5791200Y-215900D02*
G01*
X5727700Y-279400D01*
X5727700Y-25400D02*
G01*
X5791200Y-88900D01*
X5600700Y-25400D02*
G01*
X5727700Y-25400D01*
X6489700Y-5105400D02*
G01*
X6362700Y-5105400D01*
X6299200Y-5041900D02*
G01*
X6362700Y-5105400D01*
X6362700Y-4851400D02*
G01*
X6299200Y-4914900D01*
X6553200Y-5041900D02*
G01*
X6489700Y-5105400D01*
X6553200Y-4914900D02*
G01*
X6553200Y-5041900D01*
X6489700Y-4851400D02*
G01*
X6553200Y-4914900D01*
X6362700Y-4851400D02*
G01*
X6489700Y-4851400D01*
X4711700Y-5105400D02*
G01*
X4584700Y-5105400D01*
X4521200Y-5041900D02*
G01*
X4584700Y-5105400D01*
X4584700Y-4851400D02*
G01*
X4521200Y-4914900D01*
X4521200Y-4914900D02*
G01*
X4521200Y-5041900D01*
X4838700Y-5105400D02*
G01*
X4775200Y-5041900D01*
X4965700Y-5105400D02*
G01*
X4838700Y-5105400D01*
X5029200Y-5041900D02*
G01*
X4965700Y-5105400D01*
X4965700Y-4851400D02*
G01*
X5029200Y-4914900D01*
X4838700Y-4851400D02*
G01*
X4965700Y-4851400D01*
X4775200Y-4914900D02*
G01*
X4838700Y-4851400D01*
X4775200Y-5041900D02*
G01*
X4711700Y-5105400D01*
X4711700Y-4851400D02*
G01*
X4775200Y-4914900D01*
X4584700Y-4851400D02*
G01*
X4711700Y-4851400D01*
X5473700Y-5105400D02*
G01*
X5346700Y-5105400D01*
X5283200Y-5041900D02*
G01*
X5346700Y-5105400D01*
X5346700Y-4851400D02*
G01*
X5283200Y-4914900D01*
X5092700Y-5105400D02*
G01*
X5029200Y-5041900D01*
X5219700Y-5105400D02*
G01*
X5092700Y-5105400D01*
X5283200Y-5041900D02*
G01*
X5219700Y-5105400D01*
X5219700Y-4851400D02*
G01*
X5283200Y-4914900D01*
X5092700Y-4851400D02*
G01*
X5219700Y-4851400D01*
X5029200Y-4914900D02*
G01*
X5092700Y-4851400D01*
X5600700Y-5105400D02*
G01*
X5537200Y-5041900D01*
X5727700Y-5105400D02*
G01*
X5600700Y-5105400D01*
X5791200Y-5041900D02*
G01*
X5727700Y-5105400D01*
X5727700Y-4851400D02*
G01*
X5791200Y-4914900D01*
X5600700Y-4851400D02*
G01*
X5727700Y-4851400D01*
X5537200Y-4914900D02*
G01*
X5600700Y-4851400D01*
X5537200Y-5041900D02*
G01*
X5473700Y-5105400D01*
X5473700Y-4851400D02*
G01*
X5537200Y-4914900D01*
X5346700Y-4851400D02*
G01*
X5473700Y-4851400D01*
X6235700Y-5105400D02*
G01*
X6108700Y-5105400D01*
X6045200Y-5041900D02*
G01*
X6108700Y-5105400D01*
X6108700Y-4851400D02*
G01*
X6045200Y-4914900D01*
X5854700Y-5105400D02*
G01*
X5791200Y-5041900D01*
X5981700Y-5105400D02*
G01*
X5854700Y-5105400D01*
X6045200Y-5041900D02*
G01*
X5981700Y-5105400D01*
X5981700Y-4851400D02*
G01*
X6045200Y-4914900D01*
X5854700Y-4851400D02*
G01*
X5981700Y-4851400D01*
X5791200Y-4914900D02*
G01*
X5854700Y-4851400D01*
X6299200Y-5041900D02*
G01*
X6235700Y-5105400D01*
X6235700Y-4851400D02*
G01*
X6299200Y-4914900D01*
X6108700Y-4851400D02*
G01*
X6235700Y-4851400D01*
X8267700Y-279400D02*
G01*
X8140700Y-279400D01*
X8077200Y-215900D02*
G01*
X8140700Y-279400D01*
X8140700Y-25400D02*
G01*
X8077200Y-88900D01*
X8331200Y-215900D02*
G01*
X8267700Y-279400D01*
X8331200Y-88900D02*
G01*
X8331200Y-215900D01*
X8267700Y-25400D02*
G01*
X8331200Y-88900D01*
X8140700Y-25400D02*
G01*
X8267700Y-25400D01*
X6489700Y-279400D02*
G01*
X6362700Y-279400D01*
X6299200Y-215900D02*
G01*
X6362700Y-279400D01*
X6362700Y-25400D02*
G01*
X6299200Y-88900D01*
X6299200Y-88900D02*
G01*
X6299200Y-215900D01*
X6616700Y-279400D02*
G01*
X6553200Y-215900D01*
X6743700Y-279400D02*
G01*
X6616700Y-279400D01*
X6807200Y-215900D02*
G01*
X6743700Y-279400D01*
X6743700Y-25400D02*
G01*
X6807200Y-88900D01*
X6616700Y-25400D02*
G01*
X6743700Y-25400D01*
X6553200Y-88900D02*
G01*
X6616700Y-25400D01*
X6553200Y-215900D02*
G01*
X6489700Y-279400D01*
X6489700Y-25400D02*
G01*
X6553200Y-88900D01*
X6362700Y-25400D02*
G01*
X6489700Y-25400D01*
X7251700Y-279400D02*
G01*
X7124700Y-279400D01*
X7061200Y-215900D02*
G01*
X7124700Y-279400D01*
X7124700Y-25400D02*
G01*
X7061200Y-88900D01*
X6870700Y-279400D02*
G01*
X6807200Y-215900D01*
X6997700Y-279400D02*
G01*
X6870700Y-279400D01*
X7061200Y-215900D02*
G01*
X6997700Y-279400D01*
X6997700Y-25400D02*
G01*
X7061200Y-88900D01*
X6870700Y-25400D02*
G01*
X6997700Y-25400D01*
X6807200Y-88900D02*
G01*
X6870700Y-25400D01*
X7378700Y-279400D02*
G01*
X7315200Y-215900D01*
X7505700Y-279400D02*
G01*
X7378700Y-279400D01*
X7569200Y-215900D02*
G01*
X7505700Y-279400D01*
X7505700Y-25400D02*
G01*
X7569200Y-88900D01*
X7378700Y-25400D02*
G01*
X7505700Y-25400D01*
X7315200Y-88900D02*
G01*
X7378700Y-25400D01*
X7315200Y-215900D02*
G01*
X7251700Y-279400D01*
X7251700Y-25400D02*
G01*
X7315200Y-88900D01*
X7124700Y-25400D02*
G01*
X7251700Y-25400D01*
X8013700Y-279400D02*
G01*
X7886700Y-279400D01*
X7823200Y-215900D02*
G01*
X7886700Y-279400D01*
X7886700Y-25400D02*
G01*
X7823200Y-88900D01*
X7632700Y-279400D02*
G01*
X7569200Y-215900D01*
X7759700Y-279400D02*
G01*
X7632700Y-279400D01*
X7823200Y-215900D02*
G01*
X7759700Y-279400D01*
X7759700Y-25400D02*
G01*
X7823200Y-88900D01*
X7632700Y-25400D02*
G01*
X7759700Y-25400D01*
X7569200Y-88900D02*
G01*
X7632700Y-25400D01*
X8077200Y-215900D02*
G01*
X8013700Y-279400D01*
X8013700Y-25400D02*
G01*
X8077200Y-88900D01*
X7886700Y-25400D02*
G01*
X8013700Y-25400D01*
X8775700Y-5105400D02*
G01*
X8648700Y-5105400D01*
X8585200Y-5041900D02*
G01*
X8648700Y-5105400D01*
X8648700Y-4851400D02*
G01*
X8585200Y-4914900D01*
X8839200Y-5041900D02*
G01*
X8775700Y-5105400D01*
X8839200Y-4914900D02*
G01*
X8839200Y-5041900D01*
X8775700Y-4851400D02*
G01*
X8839200Y-4914900D01*
X8648700Y-4851400D02*
G01*
X8775700Y-4851400D01*
X6997700Y-5105400D02*
G01*
X6870700Y-5105400D01*
X6807200Y-5041900D02*
G01*
X6870700Y-5105400D01*
X6870700Y-4851400D02*
G01*
X6807200Y-4914900D01*
X6807200Y-4914900D02*
G01*
X6807200Y-5041900D01*
X7124700Y-5105400D02*
G01*
X7061200Y-5041900D01*
X7251700Y-5105400D02*
G01*
X7124700Y-5105400D01*
X7315200Y-5041900D02*
G01*
X7251700Y-5105400D01*
X7251700Y-4851400D02*
G01*
X7315200Y-4914900D01*
X7124700Y-4851400D02*
G01*
X7251700Y-4851400D01*
X7061200Y-4914900D02*
G01*
X7124700Y-4851400D01*
X7061200Y-5041900D02*
G01*
X6997700Y-5105400D01*
X6997700Y-4851400D02*
G01*
X7061200Y-4914900D01*
X6870700Y-4851400D02*
G01*
X6997700Y-4851400D01*
X7759700Y-5105400D02*
G01*
X7632700Y-5105400D01*
X7569200Y-5041900D02*
G01*
X7632700Y-5105400D01*
X7632700Y-4851400D02*
G01*
X7569200Y-4914900D01*
X7378700Y-5105400D02*
G01*
X7315200Y-5041900D01*
X7505700Y-5105400D02*
G01*
X7378700Y-5105400D01*
X7569200Y-5041900D02*
G01*
X7505700Y-5105400D01*
X7505700Y-4851400D02*
G01*
X7569200Y-4914900D01*
X7378700Y-4851400D02*
G01*
X7505700Y-4851400D01*
X7315200Y-4914900D02*
G01*
X7378700Y-4851400D01*
X7886700Y-5105400D02*
G01*
X7823200Y-5041900D01*
X8013700Y-5105400D02*
G01*
X7886700Y-5105400D01*
X8077200Y-5041900D02*
G01*
X8013700Y-5105400D01*
X8013700Y-4851400D02*
G01*
X8077200Y-4914900D01*
X7886700Y-4851400D02*
G01*
X8013700Y-4851400D01*
X7823200Y-4914900D02*
G01*
X7886700Y-4851400D01*
X7823200Y-5041900D02*
G01*
X7759700Y-5105400D01*
X7759700Y-4851400D02*
G01*
X7823200Y-4914900D01*
X7632700Y-4851400D02*
G01*
X7759700Y-4851400D01*
X8521700Y-5105400D02*
G01*
X8394700Y-5105400D01*
X8331200Y-5041900D02*
G01*
X8394700Y-5105400D01*
X8394700Y-4851400D02*
G01*
X8331200Y-4914900D01*
X8140700Y-5105400D02*
G01*
X8077200Y-5041900D01*
X8267700Y-5105400D02*
G01*
X8140700Y-5105400D01*
X8331200Y-5041900D02*
G01*
X8267700Y-5105400D01*
X8267700Y-4851400D02*
G01*
X8331200Y-4914900D01*
X8140700Y-4851400D02*
G01*
X8267700Y-4851400D01*
X8077200Y-4914900D02*
G01*
X8140700Y-4851400D01*
X8585200Y-5041900D02*
G01*
X8521700Y-5105400D01*
X8521700Y-4851400D02*
G01*
X8585200Y-4914900D01*
X8394700Y-4851400D02*
G01*
X8521700Y-4851400D01*
X13016204Y1546407D02*
G01*
X12028197Y1546407D01*
X13022196Y2053391D02*
G01*
X12022206Y2053391D01*
X13022196Y1306405D02*
G01*
X12022206Y1306405D01*
X13022196Y2106399D02*
G01*
X12022206Y2106399D01*
X12022206Y1306405D02*
G01*
X12022206Y2106399D01*
X13022196Y1306405D02*
G01*
X13022196Y2106399D01*
X12030194Y966391D02*
G01*
X13018203Y966391D01*
X12024205Y459409D02*
G01*
X13024205Y459409D01*
X12024205Y1206395D02*
G01*
X13024205Y1206395D01*
X12024205Y406400D02*
G01*
X13024205Y406400D01*
X13024205Y1206395D02*
G01*
X13024205Y406400D01*
X12024205Y1206395D02*
G01*
X12024205Y406400D01*
X9728200Y506476D02*
G01*
X9728200Y506476D01*
X9728200Y506476D01*
X9728200Y2106421D01*
X13028168Y2106421D01*
X13028168Y406400D01*
X9728200Y406400D01*
X9728200Y506476D01*
X10038206Y1806397D02*
G01*
X10292206Y1806397D01*
X10292206Y706399D01*
X10038206Y706399D01*
X10038206Y1806397D01*
X9728200Y1806397D02*
G01*
X10040213Y1806397D01*
X10040213Y706399D01*
X9728200Y706399D01*
X9728200Y1806397D01*
X10038206Y1261414D02*
G01*
X10278211Y1261414D01*
X10278211Y1251407D01*
X10038206Y1251407D01*
X10038206Y1261414D01*
X10756900Y-3492500D02*
G01*
X10756900Y-3441700D01*
X11391900Y-3441700D01*
X11391900Y-3492500D01*
X11391900Y-3632200D02*
G01*
X11391900Y-3670300D01*
X10756900Y-3670300D01*
X10756900Y-3632200D01*
X10756900Y-2857500D02*
G01*
X10756900Y-2806700D01*
X11391900Y-2806700D01*
X11391900Y-2857500D01*
X11391900Y-2997200D02*
G01*
X11391900Y-3035300D01*
X10756900Y-3035300D01*
X10756900Y-2997200D01*
D25*
G75*
G01*
X711200Y-1169802D02*
G03*
X712810Y-1169802I805J-658998D01*
D21*
G75*
G01
X10182098Y-6911797D02*
G03X10182098Y-6911797I-199898J0D01*
G75*
G01
X10690098Y-6911797D02*
G03X10690098Y-6911797I-199898J0D01*
G75*
G01
X10688091Y-5811799D02*
G03X10688091Y-5811799I-199898J0D01*
G75*
G01
X10180091Y-5811799D02*
G03X10180091Y-5811799I-199898J0D01*
G75*
G01
X403098Y-2895600D02*
G03X403098Y-2895600I-199898J0D01*
G75*
G01
X403098Y-3403600D02*
G03X403098Y-3403600I-199898J0D01*
G75*
G01
X12976098Y1806397D02*
G03X12976098Y1806397I-199898J0D01*
G75*
G01
X12468098Y1806397D02*
G03X12468098Y1806397I-199898J0D01*
G75*
G01
X12470105Y706399D02*
G03X12470105Y706399I-199898J0D01*
G75*
G01
X12978105Y706399D02*
G03X12978105Y706399I-199898J0D01*
M02*
