G04 Layer: BottomSolderMaskLayer*
G04 EasyEDA v6.4.19.5, 2021-05-27T00:11:37--3:00*
G04 bf34132eec9142e49db4406177482e83,59636247558045d2802cba280e4ac9d9,10*
G04 Gerber Generator version 0.2*
G04 Scale: 100 percent, Rotated: No, Reflected: No *
G04 Dimensions in millimeters *
G04 leading zeros omitted , absolute positions ,4 integer and 5 decimal *
%FSLAX45Y45*%
%MOMM*%

%ADD26C,2.2032*%
%ADD28C,1.8032*%
%ADD29C,4.7032*%

%LPD*%
G36*
X5339841Y4376928D02*
G01*
X5339841Y4597400D01*
X5560313Y4597400D01*
X5560313Y4376928D01*
G37*
D26*
G01*
X5450077Y4233176D03*
G01*
X5450077Y3979176D03*
G01*
X5450077Y3725176D03*
G01*
X5450077Y3471176D03*
G01*
X5450077Y3217176D03*
G01*
X5450077Y1753882D03*
G36*
X5339841Y1389634D02*
G01*
X5339841Y1610105D01*
X5560313Y1610105D01*
X5560313Y1389634D01*
G37*
G36*
X147828Y4687823D02*
G01*
X147828Y4868163D01*
X328168Y4868163D01*
X328168Y4687823D01*
G37*
D28*
G01*
X238000Y4524001D03*
G01*
X238000Y4270001D03*
G01*
X238000Y4016001D03*
G01*
X238000Y3762001D03*
G01*
X238000Y3508001D03*
G01*
X238000Y3254001D03*
G01*
X238000Y3000001D03*
G01*
X238000Y2746001D03*
G01*
X238000Y2492001D03*
G01*
X238000Y2238001D03*
G01*
X238000Y1984001D03*
G01*
X238000Y1730001D03*
G01*
X238000Y1476001D03*
G01*
X238000Y1222001D03*
G01*
X1762000Y4778001D03*
G01*
X1762000Y4524001D03*
G01*
X1762000Y4270001D03*
G01*
X1762000Y4016001D03*
G01*
X1762000Y3762001D03*
G01*
X1762000Y3508001D03*
G01*
X1762000Y3254001D03*
G01*
X1762000Y3000001D03*
G01*
X1762000Y2746001D03*
G01*
X1762000Y2492001D03*
G01*
X1762000Y2238001D03*
G01*
X1762000Y1984001D03*
G01*
X1762000Y1730001D03*
G01*
X1762000Y1476001D03*
G01*
X1762000Y1222001D03*
G36*
X4739893Y4493768D02*
G01*
X4739893Y4714239D01*
X4960111Y4714239D01*
X4960111Y4493768D01*
G37*
D26*
G01*
X4850000Y4350001D03*
G01*
X4849875Y1345958D03*
G01*
X4849875Y1853958D03*
G01*
X4851974Y3132574D03*
G01*
X4851974Y3958074D03*
G01*
X4850000Y2874992D03*
G01*
X4850000Y2112992D03*
D29*
G01*
X499998Y5500001D03*
G01*
X5499999Y5500001D03*
G01*
X499998Y500001D03*
G01*
X5499999Y500001D03*
G36*
X4739893Y943863D02*
G01*
X4739893Y1164081D01*
X4960111Y1164081D01*
X4960111Y943863D01*
G37*
D26*
G01*
X4850000Y800000D03*
G01*
X4850000Y546000D03*
G36*
X2434843Y2964942D02*
G01*
X2434843Y3185160D01*
X2655315Y3185160D01*
X2655315Y2964942D01*
G37*
G01*
X2545029Y2554973D03*
G01*
X3890035Y3005975D03*
G01*
X3890035Y2745955D03*
G01*
X2545029Y2814967D03*
G36*
X3779774Y3155695D02*
G01*
X3779774Y3376168D01*
X4000245Y3376168D01*
X4000245Y3155695D01*
G37*
G01*
X3890035Y2485961D03*
M02*
