G04 Layer: BottomLayer*
G04 EasyEDA v6.4.19.5, 2021-05-27T00:11:37--3:00*
G04 bf34132eec9142e49db4406177482e83,59636247558045d2802cba280e4ac9d9,10*
G04 Gerber Generator version 0.2*
G04 Scale: 100 percent, Rotated: No, Reflected: No *
G04 Dimensions in millimeters *
G04 leading zeros omitted , absolute positions ,4 integer and 5 decimal *
%FSLAX45Y45*%
%MOMM*%

%ADD14R,2.0000X2.0000*%
%ADD15C,2.0000*%
%ADD16R,1.6000X1.6000*%
%ADD17C,1.6000*%
%ADD18C,4.5000*%

%LPD*%
D14*
G01*
X5450077Y4487176D03*
D15*
G01*
X5450077Y4233176D03*
G01*
X5450077Y3979176D03*
G01*
X5450077Y3725176D03*
G01*
X5450077Y3471176D03*
G01*
X5450077Y3217176D03*
G01*
X5450077Y1753882D03*
D14*
G01*
X5450077Y1499882D03*
D16*
G01*
X238000Y4778001D03*
D17*
G01*
X238000Y4524001D03*
G01*
X238000Y4270001D03*
G01*
X238000Y4016001D03*
G01*
X238000Y3762001D03*
G01*
X238000Y3508001D03*
G01*
X238000Y3254001D03*
G01*
X238000Y3000001D03*
G01*
X238000Y2746001D03*
G01*
X238000Y2492001D03*
G01*
X238000Y2238001D03*
G01*
X238000Y1984001D03*
G01*
X238000Y1730001D03*
G01*
X238000Y1476001D03*
G01*
X238000Y1222001D03*
G01*
X1762000Y4778001D03*
G01*
X1762000Y4524001D03*
G01*
X1762000Y4270001D03*
G01*
X1762000Y4016001D03*
G01*
X1762000Y3762001D03*
G01*
X1762000Y3508001D03*
G01*
X1762000Y3254001D03*
G01*
X1762000Y3000001D03*
G01*
X1762000Y2746001D03*
G01*
X1762000Y2492001D03*
G01*
X1762000Y2238001D03*
G01*
X1762000Y1984001D03*
G01*
X1762000Y1730001D03*
G01*
X1762000Y1476001D03*
G01*
X1762000Y1222001D03*
G36*
X4750000Y4704001D02*
G01*
X4950000Y4704001D01*
X4950000Y4504001D01*
X4750000Y4504001D01*
G37*
D15*
G01*
X4850000Y4350001D03*
G01*
X4849875Y1345958D03*
G01*
X4849875Y1853958D03*
G01*
X4851974Y3132574D03*
G01*
X4851974Y3958074D03*
G01*
X4850000Y2874992D03*
G01*
X4850000Y2112992D03*
D18*
G01*
X499998Y5500001D03*
G01*
X5499999Y5500001D03*
G01*
X499998Y500001D03*
G01*
X5499999Y500001D03*
D14*
G01*
X4850000Y1054000D03*
D15*
G01*
X4850000Y800000D03*
G01*
X4850000Y546000D03*
G36*
X2445029Y3174987D02*
G01*
X2645029Y3174987D01*
X2645029Y2974987D01*
X2445029Y2974987D01*
G37*
G01*
X2545029Y2554973D03*
G01*
X3890035Y3005975D03*
G01*
X3890035Y2745955D03*
G01*
X2545029Y2814967D03*
G36*
X3790035Y3365969D02*
G01*
X3990035Y3365969D01*
X3990035Y3165970D01*
X3790035Y3165970D01*
G37*
G01*
X3890035Y2485961D03*
M02*
