G04 Layer: TopLayer*
G04 EasyEDA v6.4.19.5, 2021-05-27T00:11:37--3:00*
G04 bf34132eec9142e49db4406177482e83,59636247558045d2802cba280e4ac9d9,10*
G04 Gerber Generator version 0.2*
G04 Scale: 100 percent, Rotated: No, Reflected: No *
G04 Dimensions in millimeters *
G04 leading zeros omitted , absolute positions ,4 integer and 5 decimal *
%FSLAX45Y45*%
%MOMM*%

%ADD11C,0.7620*%
%ADD12C,1.2700*%
%ADD13C,1.0160*%
%ADD14R,2.0000X2.0000*%
%ADD15C,2.0000*%
%ADD16R,1.6000X1.6000*%
%ADD17C,1.6000*%
%ADD18C,4.5000*%

%LPD*%
G36*
X498043Y25654D02*
G01*
X467969Y26720D01*
X438353Y29667D01*
X408940Y34493D01*
X379933Y41097D01*
X351332Y49530D01*
X323342Y59791D01*
X296062Y71729D01*
X269595Y85394D01*
X244043Y100634D01*
X219456Y117500D01*
X195986Y135890D01*
X173736Y155702D01*
X152806Y176834D01*
X133197Y199288D01*
X115011Y222910D01*
X98399Y247599D01*
X83362Y273304D01*
X69951Y299923D01*
X58216Y327304D01*
X48260Y355346D01*
X40081Y383997D01*
X33680Y413105D01*
X29159Y442569D01*
X26466Y472236D01*
X25654Y502259D01*
X25654Y5501995D01*
X26771Y5532170D01*
X29718Y5561736D01*
X34493Y5591048D01*
X41097Y5620004D01*
X49530Y5648502D01*
X59690Y5676442D01*
X71628Y5703671D01*
X85191Y5730087D01*
X100431Y5755589D01*
X117195Y5780125D01*
X135483Y5803544D01*
X155194Y5825744D01*
X176276Y5846673D01*
X198628Y5866282D01*
X222148Y5884418D01*
X246786Y5901080D01*
X272389Y5916117D01*
X298856Y5929579D01*
X326186Y5941314D01*
X354126Y5951321D01*
X382676Y5959602D01*
X411683Y5966053D01*
X441045Y5970625D01*
X470611Y5973419D01*
X500532Y5974334D01*
X5501081Y5974334D01*
X5531662Y5973267D01*
X5561228Y5970371D01*
X5590590Y5965596D01*
X5619597Y5958992D01*
X5648096Y5950610D01*
X5676036Y5940450D01*
X5703316Y5928563D01*
X5729732Y5914948D01*
X5755284Y5899759D01*
X5779820Y5882995D01*
X5803290Y5864707D01*
X5825540Y5844997D01*
X5846521Y5823915D01*
X5866130Y5801563D01*
X5884316Y5778042D01*
X5900978Y5753404D01*
X5916066Y5727750D01*
X5929528Y5701284D01*
X5941263Y5673953D01*
X5951321Y5645962D01*
X5959551Y5617413D01*
X5966002Y5588355D01*
X5970625Y5558993D01*
X5973419Y5529376D01*
X5974334Y5499862D01*
X5974283Y509778D01*
X5973927Y479094D01*
X5971641Y449224D01*
X5967476Y419506D01*
X5961481Y390144D01*
X5953607Y361238D01*
X5943955Y332892D01*
X5932525Y305206D01*
X5919368Y278282D01*
X5904534Y252221D01*
X5888075Y227177D01*
X5870041Y203200D01*
X5850585Y180441D01*
X5829706Y158953D01*
X5807506Y138785D01*
X5784088Y120091D01*
X5759551Y102920D01*
X5733948Y87325D01*
X5707430Y73406D01*
X5680049Y61163D01*
X5652008Y50647D01*
X5623306Y41960D01*
X5594146Y35052D01*
X5564632Y30073D01*
X5534812Y26924D01*
X5504738Y25654D01*
G37*

%LPC*%
G36*
X4600549Y374345D02*
G01*
X5799429Y374345D01*
X5805678Y375056D01*
X5811113Y376936D01*
X5815939Y379984D01*
X5820003Y384048D01*
X5823051Y388874D01*
X5824931Y394309D01*
X5825642Y400558D01*
X5825642Y2499410D01*
X5824931Y2505710D01*
X5823051Y2511094D01*
X5820003Y2515971D01*
X5815939Y2519984D01*
X5811113Y2523032D01*
X5805678Y2524963D01*
X5799429Y2525674D01*
X4600549Y2525674D01*
X4594301Y2524963D01*
X4588916Y2523032D01*
X4584039Y2519984D01*
X4579975Y2515971D01*
X4576927Y2511094D01*
X4575048Y2505710D01*
X4574336Y2499410D01*
X4574336Y1500581D01*
X4575048Y1494282D01*
X4576927Y1488897D01*
X4579975Y1484020D01*
X4584039Y1480007D01*
X4588916Y1476959D01*
X4594301Y1475028D01*
X4600549Y1474368D01*
X5014163Y1474368D01*
X5018074Y1473555D01*
X5021376Y1471371D01*
X5023561Y1468069D01*
X5024323Y1464208D01*
X5024323Y1235811D01*
X5023561Y1231950D01*
X5021376Y1228648D01*
X5018074Y1226413D01*
X5014163Y1225651D01*
X4600549Y1225651D01*
X4594301Y1224940D01*
X4588916Y1223060D01*
X4584039Y1220012D01*
X4579975Y1215948D01*
X4576927Y1211122D01*
X4575048Y1205687D01*
X4574336Y1199438D01*
X4574336Y1149350D01*
X4573574Y1145489D01*
X4571390Y1142187D01*
X4568088Y1140002D01*
X4564176Y1139190D01*
X3900119Y1139190D01*
X3893565Y1138986D01*
X3887215Y1138275D01*
X3880967Y1137158D01*
X3874820Y1135583D01*
X3868775Y1133602D01*
X3862882Y1131163D01*
X3857193Y1128318D01*
X3851706Y1125067D01*
X3846474Y1121410D01*
X3841546Y1117447D01*
X3836771Y1112977D01*
X3515969Y792175D01*
X3512667Y789990D01*
X3508756Y789178D01*
X1341120Y789178D01*
X1337208Y789990D01*
X1333906Y792175D01*
X1215085Y911047D01*
X1212850Y914349D01*
X1212088Y918210D01*
X1212088Y3531870D01*
X1212850Y3535781D01*
X1215085Y3539083D01*
X1599844Y3923893D01*
X1603146Y3926078D01*
X1607058Y3926840D01*
X1702612Y3926840D01*
X1705559Y3926433D01*
X1721561Y3918407D01*
X1734667Y3913987D01*
X1748231Y3911295D01*
X1761998Y3910380D01*
X1775764Y3911295D01*
X1789328Y3913987D01*
X1802434Y3918407D01*
X1818436Y3926433D01*
X1821383Y3926840D01*
X1892858Y3926840D01*
X1896770Y3926078D01*
X1900021Y3923893D01*
X2452878Y3371037D01*
X2455062Y3367735D01*
X2455824Y3363874D01*
X2455824Y3210814D01*
X2455164Y3207156D01*
X2453233Y3204006D01*
X2450287Y3201720D01*
X2446731Y3200704D01*
X2439314Y3199892D01*
X2433929Y3198012D01*
X2429103Y3194964D01*
X2425039Y3190951D01*
X2421991Y3186074D01*
X2420061Y3180689D01*
X2419400Y3174390D01*
X2419400Y2975559D01*
X2420061Y2969260D01*
X2421991Y2963875D01*
X2425039Y2958998D01*
X2429103Y2954985D01*
X2433929Y2951937D01*
X2439365Y2950006D01*
X2445613Y2949346D01*
X2490622Y2949346D01*
X2494483Y2948584D01*
X2497785Y2946400D01*
X2499969Y2943148D01*
X2500782Y2939338D01*
X2500122Y2935478D01*
X2498039Y2932176D01*
X2494838Y2929890D01*
X2486660Y2926232D01*
X2473655Y2918358D01*
X2461717Y2909011D01*
X2450998Y2898292D01*
X2441651Y2886354D01*
X2433777Y2873349D01*
X2427579Y2859532D01*
X2423058Y2845054D01*
X2420315Y2830118D01*
X2419400Y2814980D01*
X2420315Y2799842D01*
X2423058Y2784906D01*
X2427579Y2770428D01*
X2433777Y2756611D01*
X2441651Y2743606D01*
X2450998Y2731668D01*
X2461717Y2720949D01*
X2473655Y2711602D01*
X2486660Y2703728D01*
X2500477Y2697530D01*
X2514955Y2693009D01*
X2529890Y2690266D01*
X2545029Y2689352D01*
X2560167Y2690266D01*
X2575102Y2693009D01*
X2589580Y2697530D01*
X2603398Y2703728D01*
X2616403Y2711602D01*
X2628341Y2720949D01*
X2639060Y2731668D01*
X2648407Y2743606D01*
X2656281Y2756611D01*
X2662529Y2770428D01*
X2667000Y2784906D01*
X2669743Y2799842D01*
X2670657Y2814980D01*
X2669743Y2830118D01*
X2667000Y2845054D01*
X2662529Y2859532D01*
X2656281Y2873349D01*
X2648407Y2886354D01*
X2639060Y2898292D01*
X2628341Y2909011D01*
X2616403Y2918358D01*
X2603398Y2926232D01*
X2595270Y2929890D01*
X2592070Y2932176D01*
X2589936Y2935478D01*
X2589276Y2939338D01*
X2590088Y2943148D01*
X2592324Y2946400D01*
X2595575Y2948584D01*
X2599436Y2949346D01*
X2644444Y2949346D01*
X2650744Y2950006D01*
X2656128Y2951937D01*
X2661005Y2954985D01*
X2665018Y2958998D01*
X2668066Y2963875D01*
X2669946Y2969260D01*
X2670759Y2976727D01*
X2671775Y2980283D01*
X2674061Y2983230D01*
X2677210Y2985160D01*
X2680868Y2985871D01*
X3024835Y2985871D01*
X3031388Y2986074D01*
X3037687Y2986786D01*
X3043986Y2987903D01*
X3050133Y2989478D01*
X3056178Y2991510D01*
X3062071Y2993898D01*
X3067761Y2996793D01*
X3073196Y2999994D01*
X3078429Y3003651D01*
X3083407Y3007664D01*
X3088182Y3012084D01*
X4583988Y4507890D01*
X4587240Y4510074D01*
X4591151Y4510836D01*
X4714544Y4510836D01*
X4718202Y4510176D01*
X4721352Y4508246D01*
X4723587Y4505350D01*
X4724654Y4501845D01*
X4725060Y4498289D01*
X4726940Y4492904D01*
X4729988Y4488027D01*
X4734052Y4484014D01*
X4738878Y4480966D01*
X4744313Y4479036D01*
X4750562Y4478324D01*
X4949444Y4478324D01*
X4955692Y4479036D01*
X4961128Y4480966D01*
X4965954Y4484014D01*
X4970018Y4488027D01*
X4973066Y4492904D01*
X4974945Y4498289D01*
X4975352Y4501845D01*
X4976418Y4505350D01*
X4978654Y4508246D01*
X4981803Y4510176D01*
X4985461Y4510836D01*
X5108854Y4510836D01*
X5112766Y4510074D01*
X5116017Y4507890D01*
X5199532Y4424375D01*
X5204307Y4419955D01*
X5209286Y4415942D01*
X5214518Y4412335D01*
X5220004Y4409084D01*
X5225643Y4406239D01*
X5231536Y4403801D01*
X5237581Y4401769D01*
X5243779Y4400194D01*
X5250027Y4399076D01*
X5256326Y4398365D01*
X5262880Y4398162D01*
X5314289Y4398162D01*
X5317896Y4397451D01*
X5321096Y4395520D01*
X5323332Y4392574D01*
X5324348Y4389018D01*
X5325160Y4381449D01*
X5327040Y4376064D01*
X5330088Y4371238D01*
X5334101Y4367174D01*
X5338978Y4364126D01*
X5344363Y4362246D01*
X5350662Y4361535D01*
X5383530Y4361535D01*
X5387797Y4360570D01*
X5391251Y4357928D01*
X5393334Y4354068D01*
X5393588Y4349750D01*
X5391962Y4345686D01*
X5388813Y4342688D01*
X5378704Y4336592D01*
X5366766Y4327194D01*
X5356047Y4316476D01*
X5346700Y4304538D01*
X5338826Y4291584D01*
X5332628Y4277715D01*
X5328107Y4263237D01*
X5325364Y4248302D01*
X5324449Y4233164D01*
X5325364Y4218025D01*
X5328107Y4203090D01*
X5332628Y4188612D01*
X5338826Y4174794D01*
X5346700Y4161790D01*
X5356047Y4149851D01*
X5366766Y4139133D01*
X5378704Y4129786D01*
X5391708Y4121912D01*
X5406085Y4115409D01*
X5409234Y4113174D01*
X5411368Y4109974D01*
X5412079Y4106164D01*
X5411317Y4102354D01*
X5409234Y4099102D01*
X5406085Y4096918D01*
X5391708Y4090415D01*
X5378704Y4082592D01*
X5366766Y4073194D01*
X5356047Y4062476D01*
X5353812Y4059631D01*
X5351576Y4057548D01*
X5348833Y4056227D01*
X5345836Y4055770D01*
X4934153Y4055770D01*
X4930800Y4056329D01*
X4927854Y4057904D01*
X4923332Y4061460D01*
X4910378Y4069334D01*
X4896510Y4075531D01*
X4882032Y4080052D01*
X4867097Y4082796D01*
X4851958Y4083710D01*
X4836820Y4082796D01*
X4821885Y4080052D01*
X4807407Y4075531D01*
X4793589Y4069334D01*
X4780584Y4061460D01*
X4768646Y4052112D01*
X4757928Y4041394D01*
X4748580Y4029456D01*
X4740706Y4016451D01*
X4734509Y4002633D01*
X4729988Y3988155D01*
X4727244Y3973220D01*
X4726330Y3958082D01*
X4727244Y3942943D01*
X4729988Y3928008D01*
X4734509Y3913530D01*
X4740706Y3899712D01*
X4748580Y3886708D01*
X4757928Y3874770D01*
X4768646Y3864051D01*
X4780584Y3854653D01*
X4793589Y3846829D01*
X4807407Y3840581D01*
X4821885Y3836111D01*
X4836820Y3833368D01*
X4851958Y3832453D01*
X4867097Y3833368D01*
X4882032Y3836111D01*
X4896510Y3840581D01*
X4910378Y3846829D01*
X4923332Y3854653D01*
X4935270Y3864051D01*
X4945989Y3874770D01*
X4955387Y3886708D01*
X4962144Y3897934D01*
X4964430Y3900576D01*
X4967427Y3902252D01*
X4970881Y3902862D01*
X5345633Y3902862D01*
X5348630Y3902405D01*
X5351373Y3901033D01*
X5353608Y3898950D01*
X5356047Y3895851D01*
X5366766Y3885133D01*
X5378704Y3875786D01*
X5391708Y3867912D01*
X5406085Y3861409D01*
X5409234Y3859174D01*
X5411368Y3855974D01*
X5412079Y3852164D01*
X5411317Y3848354D01*
X5409234Y3845102D01*
X5406085Y3842918D01*
X5391708Y3836415D01*
X5378704Y3828592D01*
X5366766Y3819194D01*
X5356047Y3808476D01*
X5346700Y3796537D01*
X5345125Y3793947D01*
X5342839Y3791356D01*
X5339842Y3789629D01*
X5336438Y3789070D01*
X4825644Y3789070D01*
X4817211Y3788562D01*
X4806899Y3786327D01*
X4804816Y3785666D01*
X4797094Y3782466D01*
X4788103Y3777081D01*
X4786325Y3775760D01*
X4780026Y3770172D01*
X4082592Y3072739D01*
X4079290Y3070504D01*
X4075379Y3069742D01*
X4003751Y3069742D01*
X4000347Y3070352D01*
X3997299Y3072028D01*
X3995064Y3074670D01*
X3993438Y3077362D01*
X3984091Y3089300D01*
X3973322Y3100019D01*
X3961384Y3109366D01*
X3948429Y3117240D01*
X3934561Y3123438D01*
X3920083Y3127959D01*
X3905199Y3130702D01*
X3890060Y3131616D01*
X3874871Y3130702D01*
X3859987Y3127959D01*
X3845509Y3123438D01*
X3831640Y3117240D01*
X3818686Y3109366D01*
X3806748Y3100019D01*
X3795979Y3089300D01*
X3786632Y3077362D01*
X3781399Y3068675D01*
X3779113Y3066034D01*
X3776116Y3064357D01*
X3772712Y3063748D01*
X3650335Y3063748D01*
X3641902Y3063240D01*
X3639718Y3062935D01*
X3631641Y3061055D01*
X3621836Y3057194D01*
X3619855Y3056178D01*
X3612794Y3051759D01*
X3611016Y3050438D01*
X3604717Y3044850D01*
X2976575Y2416708D01*
X2973273Y2414524D01*
X2969412Y2413762D01*
X2430627Y2413762D01*
X2426716Y2414524D01*
X2423414Y2416708D01*
X2316734Y2523439D01*
X2314498Y2526741D01*
X2313736Y2530602D01*
X2313736Y2749702D01*
X2313228Y2758084D01*
X2312924Y2760268D01*
X2311044Y2768396D01*
X2307183Y2778201D01*
X2306167Y2780131D01*
X2301748Y2787192D01*
X2300427Y2788970D01*
X2294839Y2795320D01*
X1867763Y3222345D01*
X1865833Y3225038D01*
X1864918Y3228238D01*
X1865020Y3231540D01*
X1866747Y3240227D01*
X1867611Y3253994D01*
X1866747Y3267811D01*
X1864055Y3281324D01*
X1859584Y3294430D01*
X1853488Y3306826D01*
X1845818Y3318306D01*
X1836674Y3328670D01*
X1826310Y3337814D01*
X1814830Y3345484D01*
X1802434Y3351580D01*
X1789328Y3356051D01*
X1775764Y3358743D01*
X1761998Y3359658D01*
X1748231Y3358743D01*
X1734667Y3356051D01*
X1721561Y3351580D01*
X1709166Y3345484D01*
X1697685Y3337814D01*
X1687322Y3328670D01*
X1678178Y3318306D01*
X1670507Y3306826D01*
X1664411Y3294430D01*
X1659991Y3281324D01*
X1657248Y3267811D01*
X1656384Y3253994D01*
X1657248Y3240227D01*
X1659991Y3226663D01*
X1664411Y3213557D01*
X1670507Y3201162D01*
X1678178Y3189681D01*
X1687322Y3179318D01*
X1697685Y3170174D01*
X1709166Y3162503D01*
X1721561Y3156407D01*
X1734667Y3151987D01*
X1748231Y3149295D01*
X1757629Y3148634D01*
X1761134Y3147771D01*
X1764131Y3145688D01*
X1788718Y3121152D01*
X1791004Y3117545D01*
X1791665Y3113278D01*
X1790496Y3109163D01*
X1787702Y3105912D01*
X1783842Y3104032D01*
X1779524Y3103981D01*
X1775764Y3104743D01*
X1761998Y3105658D01*
X1748231Y3104743D01*
X1734667Y3102051D01*
X1721561Y3097580D01*
X1709166Y3091484D01*
X1697685Y3083814D01*
X1687322Y3074670D01*
X1678178Y3064306D01*
X1670507Y3052826D01*
X1664411Y3040430D01*
X1659991Y3027324D01*
X1657248Y3013811D01*
X1656384Y2999994D01*
X1657248Y2986227D01*
X1659991Y2972663D01*
X1664411Y2959557D01*
X1670507Y2947162D01*
X1678178Y2935681D01*
X1687322Y2925318D01*
X1697685Y2916174D01*
X1709166Y2908503D01*
X1721561Y2902407D01*
X1734667Y2897987D01*
X1748231Y2895295D01*
X1761998Y2894380D01*
X1771904Y2895041D01*
X1776171Y2894380D01*
X1779778Y2892044D01*
X1810715Y2861157D01*
X1813102Y2857296D01*
X1813610Y2852826D01*
X1812137Y2848559D01*
X1808988Y2845358D01*
X1804720Y2843885D01*
X1800250Y2844342D01*
X1789328Y2848051D01*
X1775764Y2850743D01*
X1761998Y2851658D01*
X1748231Y2850743D01*
X1734667Y2848051D01*
X1721561Y2843580D01*
X1709166Y2837484D01*
X1697685Y2829814D01*
X1687322Y2820670D01*
X1678178Y2810306D01*
X1670507Y2798826D01*
X1664411Y2786430D01*
X1659991Y2773324D01*
X1657248Y2759811D01*
X1656384Y2745994D01*
X1657248Y2732227D01*
X1659991Y2718663D01*
X1664411Y2705557D01*
X1670507Y2693162D01*
X1678178Y2681681D01*
X1687322Y2671318D01*
X1697685Y2662174D01*
X1709166Y2654503D01*
X1721561Y2648407D01*
X1734667Y2643987D01*
X1748231Y2641295D01*
X1761998Y2640380D01*
X1775764Y2641295D01*
X1789328Y2643987D01*
X1802434Y2648407D01*
X1814830Y2654503D01*
X1826310Y2662174D01*
X1836674Y2671318D01*
X1845818Y2681681D01*
X1853488Y2693162D01*
X1859584Y2705557D01*
X1864055Y2718663D01*
X1866747Y2732227D01*
X1867611Y2745994D01*
X1866747Y2759811D01*
X1864055Y2773324D01*
X1860346Y2784246D01*
X1859838Y2788767D01*
X1861362Y2792984D01*
X1864563Y2796133D01*
X1868830Y2797606D01*
X1873300Y2797098D01*
X1877110Y2794711D01*
X1983282Y2688590D01*
X1985467Y2685288D01*
X1986229Y2681376D01*
X1986229Y2450338D01*
X1987092Y2439720D01*
X1988972Y2431592D01*
X1989632Y2429510D01*
X1992833Y2421839D01*
X1993849Y2419858D01*
X1998218Y2412796D01*
X1999538Y2411018D01*
X2005126Y2404719D01*
X2304694Y2105152D01*
X2310993Y2099564D01*
X2312771Y2098243D01*
X2319832Y2093823D01*
X2321814Y2092807D01*
X2331618Y2088946D01*
X2339695Y2087067D01*
X2341880Y2086762D01*
X2350312Y2086254D01*
X3049676Y2086254D01*
X3058109Y2086762D01*
X3060293Y2087067D01*
X3068370Y2088946D01*
X3078175Y2092807D01*
X3080156Y2093823D01*
X3087217Y2098243D01*
X3088995Y2099564D01*
X3095294Y2105152D01*
X3673500Y2683357D01*
X3676802Y2685542D01*
X3680663Y2686304D01*
X3773830Y2686304D01*
X3777234Y2685745D01*
X3780231Y2684018D01*
X3782517Y2681427D01*
X3786632Y2674569D01*
X3795979Y2662631D01*
X3806748Y2651912D01*
X3818686Y2642565D01*
X3831640Y2634742D01*
X3845509Y2628493D01*
X3854551Y2625648D01*
X3858260Y2623566D01*
X3860800Y2620162D01*
X3861663Y2615946D01*
X3860800Y2611780D01*
X3858260Y2608376D01*
X3854551Y2606294D01*
X3845458Y2603449D01*
X3831640Y2597200D01*
X3818686Y2589377D01*
X3806698Y2580030D01*
X3795979Y2569311D01*
X3786632Y2557322D01*
X3778808Y2544368D01*
X3772560Y2530551D01*
X3768039Y2516022D01*
X3765296Y2501138D01*
X3764381Y2485999D01*
X3765296Y2470810D01*
X3768039Y2455926D01*
X3772560Y2441448D01*
X3778808Y2427579D01*
X3786632Y2414625D01*
X3795979Y2402687D01*
X3806698Y2391918D01*
X3818686Y2382570D01*
X3831640Y2374747D01*
X3845458Y2368499D01*
X3859987Y2363978D01*
X3874871Y2361234D01*
X3890010Y2360320D01*
X3905199Y2361234D01*
X3920083Y2363978D01*
X3934561Y2368499D01*
X3948429Y2374747D01*
X3961384Y2382570D01*
X3973322Y2391918D01*
X3984091Y2402687D01*
X3993438Y2414625D01*
X4001262Y2427579D01*
X4007510Y2441448D01*
X4012031Y2455926D01*
X4014774Y2470810D01*
X4015689Y2485999D01*
X4014774Y2501138D01*
X4012031Y2516022D01*
X4007510Y2530551D01*
X4001262Y2544368D01*
X3993438Y2557322D01*
X3984091Y2569311D01*
X3973322Y2580030D01*
X3961384Y2589377D01*
X3948429Y2597200D01*
X3934561Y2603449D01*
X3925519Y2606294D01*
X3921810Y2608376D01*
X3919270Y2611780D01*
X3918407Y2615946D01*
X3919270Y2620162D01*
X3921810Y2623566D01*
X3925519Y2625648D01*
X3934561Y2628493D01*
X3948429Y2634742D01*
X3961384Y2642565D01*
X3973322Y2651912D01*
X3984091Y2662631D01*
X3993438Y2674569D01*
X3995064Y2677312D01*
X3997350Y2679954D01*
X4000347Y2681630D01*
X4003751Y2682240D01*
X4045661Y2682240D01*
X4054094Y2682748D01*
X4056278Y2683052D01*
X4066489Y2685592D01*
X4074160Y2688793D01*
X4076141Y2689809D01*
X4083202Y2694228D01*
X4084980Y2695549D01*
X4091279Y2701137D01*
X4794758Y3404565D01*
X4798009Y3406800D01*
X4801920Y3407562D01*
X5336286Y3407562D01*
X5339689Y3406952D01*
X5342686Y3405276D01*
X5344972Y3402634D01*
X5346700Y3399790D01*
X5356047Y3387851D01*
X5366766Y3377133D01*
X5378704Y3367786D01*
X5391708Y3359912D01*
X5405526Y3353714D01*
X5420004Y3349193D01*
X5434939Y3346450D01*
X5450078Y3345535D01*
X5465216Y3346450D01*
X5480151Y3349193D01*
X5494629Y3353714D01*
X5508447Y3359912D01*
X5521452Y3367786D01*
X5533390Y3377133D01*
X5544108Y3387851D01*
X5553456Y3399790D01*
X5561330Y3412794D01*
X5567527Y3426612D01*
X5572048Y3441090D01*
X5574792Y3456025D01*
X5575706Y3471164D01*
X5574792Y3486302D01*
X5572048Y3501237D01*
X5567527Y3515715D01*
X5561330Y3529584D01*
X5553456Y3542537D01*
X5544108Y3554476D01*
X5533390Y3565194D01*
X5521452Y3574592D01*
X5508447Y3582415D01*
X5494070Y3588918D01*
X5490921Y3591153D01*
X5488787Y3594404D01*
X5488076Y3598214D01*
X5488838Y3601974D01*
X5490921Y3605225D01*
X5494070Y3607460D01*
X5508447Y3613912D01*
X5521452Y3621786D01*
X5533390Y3631133D01*
X5544108Y3641851D01*
X5553456Y3653790D01*
X5561330Y3666794D01*
X5567527Y3680612D01*
X5572048Y3695090D01*
X5574792Y3710025D01*
X5575706Y3725164D01*
X5574792Y3740302D01*
X5572048Y3755237D01*
X5567527Y3769715D01*
X5561330Y3783584D01*
X5553456Y3796537D01*
X5544108Y3808476D01*
X5533390Y3819194D01*
X5521452Y3828592D01*
X5508447Y3836415D01*
X5494070Y3842918D01*
X5490921Y3845153D01*
X5488787Y3848404D01*
X5488076Y3852214D01*
X5488838Y3855974D01*
X5490921Y3859225D01*
X5494070Y3861460D01*
X5508447Y3867912D01*
X5521452Y3875786D01*
X5533390Y3885133D01*
X5544108Y3895851D01*
X5553456Y3907790D01*
X5561330Y3920794D01*
X5563666Y3925163D01*
X5568391Y3928922D01*
X5574639Y3934460D01*
X5794857Y4154678D01*
X5801766Y4162755D01*
X5806186Y4169816D01*
X5807202Y4171797D01*
X5810351Y4179468D01*
X5811012Y4181601D01*
X5813247Y4191914D01*
X5813755Y4200296D01*
X5813755Y4799685D01*
X5813247Y4808118D01*
X5811012Y4818380D01*
X5810351Y4820513D01*
X5806186Y4830165D01*
X5801766Y4837226D01*
X5800445Y4839004D01*
X5794857Y4845304D01*
X5645302Y4994859D01*
X5639003Y5000447D01*
X5637225Y5001768D01*
X5630164Y5006187D01*
X5628182Y5007203D01*
X5620512Y5010353D01*
X5610301Y5012893D01*
X5608066Y5013248D01*
X5599684Y5013756D01*
X1600301Y5013756D01*
X1591868Y5013248D01*
X1581607Y5011013D01*
X1579473Y5010353D01*
X1569821Y5006187D01*
X1562760Y5001768D01*
X1560982Y5000447D01*
X1554683Y4994859D01*
X1155039Y4595215D01*
X1149451Y4588916D01*
X1148130Y4587138D01*
X1143711Y4580077D01*
X1142695Y4578096D01*
X1138834Y4568291D01*
X1136650Y4558030D01*
X1136142Y4549597D01*
X1136142Y4080662D01*
X1135380Y4076750D01*
X1133144Y4073499D01*
X888441Y3828745D01*
X885139Y3826510D01*
X881227Y3825748D01*
X326898Y3825748D01*
X322681Y3826662D01*
X319227Y3829202D01*
X312674Y3836670D01*
X302310Y3845814D01*
X290830Y3853484D01*
X278434Y3859580D01*
X265328Y3864051D01*
X251764Y3866743D01*
X237998Y3867658D01*
X224231Y3866743D01*
X210667Y3864051D01*
X197561Y3859580D01*
X185166Y3853484D01*
X173685Y3845814D01*
X163322Y3836670D01*
X154178Y3826306D01*
X146507Y3814826D01*
X140411Y3802430D01*
X135991Y3789324D01*
X133248Y3775811D01*
X132384Y3761994D01*
X133248Y3748227D01*
X135991Y3734663D01*
X140411Y3721557D01*
X146507Y3709162D01*
X154178Y3697681D01*
X163322Y3687318D01*
X173685Y3678174D01*
X185166Y3670503D01*
X197561Y3664407D01*
X210667Y3659987D01*
X224231Y3657295D01*
X237998Y3656380D01*
X251764Y3657295D01*
X265328Y3659987D01*
X278434Y3664407D01*
X290830Y3670503D01*
X302310Y3678174D01*
X312674Y3687318D01*
X319278Y3694785D01*
X322681Y3697325D01*
X326898Y3698240D01*
X911555Y3698240D01*
X919937Y3698748D01*
X930249Y3700983D01*
X932332Y3701643D01*
X940053Y3704844D01*
X942035Y3705860D01*
X949045Y3710228D01*
X950823Y3711549D01*
X957173Y3717137D01*
X1244752Y4004716D01*
X1250340Y4011066D01*
X1251661Y4012844D01*
X1256080Y4019905D01*
X1257096Y4021836D01*
X1260957Y4031640D01*
X1263142Y4041952D01*
X1263650Y4050334D01*
X1263650Y4519320D01*
X1264412Y4523181D01*
X1266647Y4526483D01*
X1623415Y4883251D01*
X1626717Y4885486D01*
X1630578Y4886248D01*
X1700784Y4886248D01*
X1704949Y4885334D01*
X1708404Y4882794D01*
X1710486Y4879035D01*
X1710842Y4874768D01*
X1709420Y4870704D01*
X1706422Y4867656D01*
X1697685Y4861814D01*
X1687322Y4852670D01*
X1678178Y4842306D01*
X1670507Y4830826D01*
X1664411Y4818430D01*
X1659991Y4805324D01*
X1657248Y4791811D01*
X1656384Y4777994D01*
X1657248Y4764227D01*
X1659991Y4750663D01*
X1664411Y4737557D01*
X1670507Y4725162D01*
X1678178Y4713681D01*
X1687322Y4703318D01*
X1697685Y4694174D01*
X1709166Y4686503D01*
X1721561Y4680407D01*
X1734667Y4675987D01*
X1748231Y4673295D01*
X1761998Y4672380D01*
X1775764Y4673295D01*
X1789328Y4675987D01*
X1802434Y4680407D01*
X1814830Y4686503D01*
X1826310Y4694174D01*
X1836674Y4703318D01*
X1845818Y4713681D01*
X1853488Y4725162D01*
X1859584Y4737557D01*
X1864055Y4750663D01*
X1866747Y4764227D01*
X1867611Y4777994D01*
X1866747Y4791811D01*
X1864055Y4805324D01*
X1859584Y4818430D01*
X1853488Y4830826D01*
X1845818Y4842306D01*
X1836674Y4852670D01*
X1826310Y4861814D01*
X1817573Y4867656D01*
X1814575Y4870704D01*
X1813153Y4874768D01*
X1813509Y4879035D01*
X1815592Y4882794D01*
X1819046Y4885334D01*
X1823212Y4886248D01*
X5569356Y4886248D01*
X5573268Y4885486D01*
X5576570Y4883251D01*
X5683250Y4776571D01*
X5685485Y4773269D01*
X5686247Y4769408D01*
X5686247Y4230624D01*
X5685485Y4226712D01*
X5683250Y4223410D01*
X5539587Y4079748D01*
X5536539Y4077665D01*
X5532983Y4076750D01*
X5529376Y4077208D01*
X5526125Y4078935D01*
X5521452Y4082592D01*
X5508447Y4090415D01*
X5494070Y4096918D01*
X5490921Y4099153D01*
X5488787Y4102404D01*
X5488076Y4106214D01*
X5488838Y4109974D01*
X5490921Y4113225D01*
X5494070Y4115460D01*
X5508447Y4121912D01*
X5521452Y4129786D01*
X5533390Y4139133D01*
X5544108Y4149851D01*
X5553456Y4161790D01*
X5561330Y4174794D01*
X5567527Y4188612D01*
X5572048Y4203090D01*
X5574792Y4218025D01*
X5575706Y4233164D01*
X5574792Y4248302D01*
X5572048Y4263237D01*
X5567527Y4277715D01*
X5561330Y4291584D01*
X5553456Y4304538D01*
X5544108Y4316476D01*
X5533390Y4327194D01*
X5521452Y4336592D01*
X5511342Y4342688D01*
X5508193Y4345686D01*
X5506567Y4349750D01*
X5506821Y4354068D01*
X5508904Y4357928D01*
X5512358Y4360570D01*
X5516626Y4361535D01*
X5549493Y4361535D01*
X5555792Y4362246D01*
X5561177Y4364126D01*
X5566054Y4367174D01*
X5570067Y4371238D01*
X5573115Y4376064D01*
X5575046Y4381500D01*
X5575757Y4387748D01*
X5575757Y4586630D01*
X5575046Y4592878D01*
X5573115Y4598263D01*
X5570067Y4603140D01*
X5566054Y4607204D01*
X5561177Y4610252D01*
X5555792Y4612132D01*
X5549493Y4612843D01*
X5350662Y4612843D01*
X5344363Y4612132D01*
X5338978Y4610252D01*
X5334101Y4607204D01*
X5330088Y4603140D01*
X5327040Y4598263D01*
X5325160Y4592929D01*
X5324348Y4585563D01*
X5323332Y4582007D01*
X5321046Y4579061D01*
X5317896Y4577130D01*
X5314289Y4576470D01*
X5303824Y4576470D01*
X5299964Y4577232D01*
X5296662Y4579416D01*
X5213146Y4662932D01*
X5208371Y4667402D01*
X5203393Y4671364D01*
X5198160Y4675022D01*
X5192725Y4678273D01*
X5187035Y4681118D01*
X5181142Y4683556D01*
X5175097Y4685538D01*
X5168950Y4687112D01*
X5162651Y4688230D01*
X5156352Y4688941D01*
X5149799Y4689144D01*
X4985816Y4689144D01*
X4981905Y4689906D01*
X4978654Y4692142D01*
X4976418Y4695444D01*
X4975656Y4699304D01*
X4975656Y4703419D01*
X4974945Y4709718D01*
X4973066Y4715103D01*
X4970018Y4719980D01*
X4965954Y4723993D01*
X4961128Y4727041D01*
X4955692Y4728972D01*
X4949444Y4729632D01*
X4750562Y4729632D01*
X4744313Y4728972D01*
X4738878Y4727041D01*
X4734052Y4723993D01*
X4729988Y4719980D01*
X4726940Y4715103D01*
X4725060Y4709718D01*
X4724349Y4703419D01*
X4724349Y4699304D01*
X4723587Y4695444D01*
X4721352Y4692142D01*
X4718050Y4689906D01*
X4714189Y4689144D01*
X4550206Y4689144D01*
X4543653Y4688941D01*
X4537303Y4688230D01*
X4531055Y4687112D01*
X4524908Y4685538D01*
X4518863Y4683506D01*
X4512970Y4681067D01*
X4507280Y4678222D01*
X4501794Y4674971D01*
X4496612Y4671364D01*
X4491634Y4667351D01*
X4486859Y4662932D01*
X2991053Y3167126D01*
X2987751Y3164941D01*
X2983890Y3164179D01*
X2680868Y3164179D01*
X2677210Y3164840D01*
X2674061Y3166770D01*
X2671775Y3169716D01*
X2670759Y3173272D01*
X2669946Y3180689D01*
X2668066Y3186074D01*
X2665018Y3190951D01*
X2661005Y3194964D01*
X2656128Y3198012D01*
X2650794Y3199892D01*
X2643276Y3200704D01*
X2639720Y3201720D01*
X2636774Y3204006D01*
X2634843Y3207156D01*
X2634132Y3210814D01*
X2634132Y3404819D01*
X2633929Y3411372D01*
X2633218Y3417671D01*
X2632100Y3423970D01*
X2630525Y3430117D01*
X2628544Y3436162D01*
X2626106Y3442055D01*
X2623261Y3447745D01*
X2620010Y3453180D01*
X2616352Y3458413D01*
X2612390Y3463391D01*
X2607919Y3468166D01*
X1997151Y4078935D01*
X1992375Y4083354D01*
X1987397Y4087368D01*
X1982216Y4090974D01*
X1976729Y4094226D01*
X1971039Y4097070D01*
X1965147Y4099509D01*
X1959102Y4101541D01*
X1952955Y4103115D01*
X1946706Y4104233D01*
X1940356Y4104944D01*
X1933803Y4105148D01*
X1821383Y4105148D01*
X1818436Y4105605D01*
X1802434Y4113580D01*
X1789328Y4118051D01*
X1775764Y4120743D01*
X1761998Y4121658D01*
X1748231Y4120743D01*
X1734667Y4118051D01*
X1721561Y4113580D01*
X1705559Y4105605D01*
X1702612Y4105148D01*
X1566113Y4105148D01*
X1559560Y4104944D01*
X1553210Y4104233D01*
X1546961Y4103115D01*
X1540814Y4101541D01*
X1534769Y4099509D01*
X1528876Y4097070D01*
X1523187Y4094226D01*
X1517700Y4090974D01*
X1512468Y4087368D01*
X1507540Y4083354D01*
X1502714Y4078935D01*
X1060043Y3636213D01*
X1055573Y3631387D01*
X1051560Y3626459D01*
X1047953Y3621227D01*
X1044702Y3615740D01*
X1041857Y3610051D01*
X1039418Y3604209D01*
X1037386Y3598164D01*
X1035812Y3591966D01*
X1034694Y3585718D01*
X1034034Y3579368D01*
X1033780Y3572865D01*
X1033780Y877265D01*
X1034034Y870712D01*
X1034694Y864412D01*
X1035812Y858113D01*
X1037386Y851966D01*
X1039418Y845921D01*
X1041857Y840028D01*
X1044702Y834339D01*
X1047953Y828903D01*
X1051560Y823671D01*
X1055573Y818692D01*
X1060043Y813917D01*
X1236776Y637133D01*
X1241602Y632663D01*
X1246530Y628650D01*
X1251762Y625043D01*
X1257249Y621792D01*
X1262938Y618947D01*
X1268831Y616508D01*
X1274876Y614527D01*
X1281023Y612952D01*
X1287272Y611784D01*
X1293622Y611124D01*
X1300175Y610870D01*
X3549700Y610870D01*
X3556254Y611124D01*
X3562604Y611784D01*
X3568852Y612952D01*
X3574999Y614527D01*
X3581044Y616508D01*
X3586937Y618947D01*
X3592626Y621792D01*
X3598113Y625043D01*
X3603345Y628650D01*
X3608273Y632663D01*
X3613048Y637133D01*
X3933850Y957935D01*
X3937152Y960119D01*
X3941064Y960882D01*
X4564176Y960882D01*
X4568088Y960119D01*
X4571390Y957935D01*
X4573574Y954633D01*
X4574336Y950721D01*
X4574336Y873912D01*
X4573574Y870051D01*
X4571390Y866749D01*
X4568088Y864514D01*
X4564176Y863752D01*
X4000347Y863752D01*
X3991914Y863244D01*
X3989730Y862939D01*
X3981602Y861060D01*
X3971848Y857199D01*
X3969867Y856183D01*
X3962806Y851763D01*
X3961028Y850442D01*
X3954729Y844854D01*
X3626662Y516839D01*
X3623360Y514604D01*
X3619500Y513842D01*
X1188872Y513842D01*
X1184960Y514604D01*
X1181658Y516839D01*
X766775Y931722D01*
X764540Y935024D01*
X763778Y938936D01*
X763778Y2549601D01*
X763270Y2558034D01*
X761085Y2568295D01*
X757224Y2578100D01*
X756208Y2580081D01*
X751789Y2587142D01*
X750468Y2588920D01*
X744880Y2595219D01*
X346608Y2993542D01*
X344525Y2996488D01*
X343611Y3000044D01*
X342747Y3013811D01*
X340055Y3027324D01*
X335584Y3040430D01*
X329488Y3052826D01*
X321818Y3064306D01*
X312674Y3074670D01*
X302310Y3083814D01*
X290830Y3091484D01*
X278434Y3097580D01*
X265328Y3102051D01*
X251764Y3104743D01*
X237998Y3105658D01*
X224231Y3104743D01*
X210667Y3102051D01*
X197561Y3097580D01*
X185166Y3091484D01*
X173685Y3083814D01*
X163322Y3074670D01*
X154178Y3064306D01*
X146507Y3052826D01*
X140411Y3040430D01*
X135991Y3027324D01*
X133248Y3013811D01*
X132384Y2999994D01*
X133248Y2986227D01*
X135991Y2972663D01*
X140411Y2959557D01*
X146507Y2947162D01*
X154178Y2935681D01*
X163322Y2925318D01*
X173685Y2916174D01*
X185166Y2908503D01*
X197561Y2902407D01*
X210667Y2897987D01*
X224231Y2895295D01*
X237998Y2894380D01*
X251764Y2895295D01*
X257048Y2896311D01*
X260400Y2896412D01*
X263550Y2895447D01*
X266242Y2893568D01*
X312775Y2847035D01*
X315061Y2843479D01*
X315722Y2839262D01*
X314604Y2835198D01*
X311912Y2831896D01*
X308102Y2830017D01*
X303885Y2829814D01*
X299923Y2831388D01*
X290830Y2837484D01*
X278434Y2843580D01*
X265328Y2848051D01*
X251764Y2850743D01*
X237998Y2851658D01*
X224231Y2850743D01*
X210667Y2848051D01*
X197561Y2843580D01*
X185166Y2837484D01*
X173685Y2829814D01*
X163322Y2820670D01*
X154178Y2810306D01*
X146507Y2798826D01*
X140411Y2786430D01*
X135991Y2773324D01*
X133248Y2759811D01*
X132384Y2745994D01*
X133248Y2732227D01*
X135991Y2718663D01*
X140411Y2705557D01*
X146507Y2693162D01*
X154178Y2681681D01*
X163322Y2671318D01*
X173685Y2662174D01*
X185166Y2654503D01*
X197561Y2648407D01*
X210667Y2643987D01*
X224231Y2641295D01*
X237998Y2640380D01*
X251764Y2641295D01*
X265328Y2643987D01*
X278434Y2648407D01*
X290830Y2654503D01*
X302310Y2662174D01*
X312674Y2671318D01*
X321818Y2681681D01*
X329488Y2693162D01*
X335584Y2705557D01*
X340055Y2718663D01*
X342747Y2732227D01*
X343611Y2745994D01*
X342747Y2759811D01*
X340055Y2773324D01*
X335584Y2786430D01*
X329488Y2798826D01*
X323392Y2807919D01*
X321818Y2811881D01*
X322021Y2816098D01*
X323900Y2819908D01*
X327202Y2822600D01*
X331266Y2823718D01*
X335483Y2823057D01*
X339039Y2820771D01*
X633272Y2526487D01*
X635508Y2523185D01*
X636270Y2519324D01*
X636270Y887425D01*
X636524Y881989D01*
X637133Y876757D01*
X638251Y871575D01*
X639724Y866546D01*
X641654Y861618D01*
X643940Y856894D01*
X646684Y852373D01*
X649732Y848106D01*
X653135Y844042D01*
X656844Y840333D01*
X660857Y836930D01*
X665175Y833882D01*
X669696Y831189D01*
X674420Y828852D01*
X679348Y826922D01*
X684225Y825500D01*
X691438Y824179D01*
X694334Y823163D01*
X696823Y821385D01*
X1112926Y405231D01*
X1119276Y399643D01*
X1121054Y398322D01*
X1128064Y393954D01*
X1130046Y392938D01*
X1137767Y389737D01*
X1139850Y389077D01*
X1147978Y387197D01*
X1158544Y386334D01*
X3649776Y386334D01*
X3660394Y387197D01*
X3668522Y389077D01*
X3670604Y389737D01*
X3678275Y392938D01*
X3680256Y393954D01*
X3687318Y398322D01*
X3689096Y399643D01*
X3695395Y405231D01*
X4023461Y733298D01*
X4026763Y735482D01*
X4030624Y736244D01*
X4564176Y736244D01*
X4568088Y735482D01*
X4571390Y733298D01*
X4573574Y729996D01*
X4574336Y726084D01*
X4574336Y400558D01*
X4575048Y394309D01*
X4576927Y388874D01*
X4579975Y384048D01*
X4584039Y379984D01*
X4588916Y376936D01*
X4594301Y375056D01*
G37*
G36*
X1761998Y1116380D02*
G01*
X1775764Y1117295D01*
X1789328Y1119987D01*
X1802434Y1124407D01*
X1814830Y1130503D01*
X1826310Y1138174D01*
X1836674Y1147318D01*
X1845818Y1157681D01*
X1853488Y1169162D01*
X1859584Y1181557D01*
X1864055Y1194663D01*
X1866747Y1208227D01*
X1867611Y1221994D01*
X1866747Y1235811D01*
X1864055Y1249324D01*
X1859584Y1262430D01*
X1853488Y1274826D01*
X1845818Y1286306D01*
X1836674Y1296670D01*
X1826310Y1305814D01*
X1814830Y1313484D01*
X1802434Y1319580D01*
X1789328Y1324051D01*
X1775764Y1326743D01*
X1761998Y1327658D01*
X1748231Y1326743D01*
X1734667Y1324051D01*
X1721561Y1319580D01*
X1709166Y1313484D01*
X1697685Y1305814D01*
X1687322Y1296670D01*
X1678178Y1286306D01*
X1670507Y1274826D01*
X1664411Y1262430D01*
X1659991Y1249324D01*
X1657248Y1235811D01*
X1656384Y1221994D01*
X1657248Y1208227D01*
X1659991Y1194663D01*
X1664411Y1181557D01*
X1670507Y1169162D01*
X1678178Y1157681D01*
X1687322Y1147318D01*
X1697685Y1138174D01*
X1709166Y1130503D01*
X1721561Y1124407D01*
X1734667Y1119987D01*
X1748231Y1117295D01*
G37*
G36*
X237998Y1116380D02*
G01*
X251764Y1117295D01*
X265328Y1119987D01*
X278434Y1124407D01*
X290830Y1130503D01*
X302310Y1138174D01*
X312674Y1147318D01*
X321818Y1157681D01*
X329488Y1169162D01*
X335584Y1181557D01*
X340055Y1194663D01*
X342747Y1208227D01*
X343611Y1221994D01*
X342747Y1235811D01*
X340055Y1249324D01*
X335584Y1262430D01*
X329488Y1274826D01*
X321818Y1286306D01*
X312674Y1296670D01*
X302310Y1305814D01*
X290830Y1313484D01*
X278434Y1319580D01*
X265328Y1324051D01*
X251764Y1326743D01*
X237998Y1327658D01*
X224231Y1326743D01*
X210667Y1324051D01*
X197561Y1319580D01*
X185166Y1313484D01*
X173685Y1305814D01*
X163322Y1296670D01*
X154178Y1286306D01*
X146507Y1274826D01*
X140411Y1262430D01*
X135991Y1249324D01*
X133248Y1235811D01*
X132384Y1221994D01*
X133248Y1208227D01*
X135991Y1194663D01*
X140411Y1181557D01*
X146507Y1169162D01*
X154178Y1157681D01*
X163322Y1147318D01*
X173685Y1138174D01*
X185166Y1130503D01*
X197561Y1124407D01*
X210667Y1119987D01*
X224231Y1117295D01*
G37*
G36*
X1761998Y1370380D02*
G01*
X1775764Y1371295D01*
X1789328Y1373987D01*
X1802434Y1378407D01*
X1814830Y1384503D01*
X1826310Y1392174D01*
X1836674Y1401318D01*
X1845818Y1411681D01*
X1853488Y1423162D01*
X1859584Y1435557D01*
X1864055Y1448663D01*
X1866747Y1462227D01*
X1867611Y1475994D01*
X1866747Y1489811D01*
X1864055Y1503324D01*
X1859584Y1516430D01*
X1853488Y1528826D01*
X1845818Y1540306D01*
X1836674Y1550670D01*
X1826310Y1559814D01*
X1814830Y1567484D01*
X1802434Y1573580D01*
X1789328Y1578051D01*
X1775764Y1580743D01*
X1761998Y1581658D01*
X1748231Y1580743D01*
X1734667Y1578051D01*
X1721561Y1573580D01*
X1709166Y1567484D01*
X1697685Y1559814D01*
X1687322Y1550670D01*
X1678178Y1540306D01*
X1670507Y1528826D01*
X1664411Y1516430D01*
X1659991Y1503324D01*
X1657248Y1489811D01*
X1656384Y1475994D01*
X1657248Y1462227D01*
X1659991Y1448663D01*
X1664411Y1435557D01*
X1670507Y1423162D01*
X1678178Y1411681D01*
X1687322Y1401318D01*
X1697685Y1392174D01*
X1709166Y1384503D01*
X1721561Y1378407D01*
X1734667Y1373987D01*
X1748231Y1371295D01*
G37*
G36*
X237998Y1370380D02*
G01*
X251764Y1371295D01*
X265328Y1373987D01*
X278434Y1378407D01*
X290830Y1384503D01*
X302310Y1392174D01*
X312674Y1401318D01*
X321818Y1411681D01*
X329488Y1423162D01*
X335584Y1435557D01*
X340055Y1448663D01*
X342747Y1462227D01*
X343611Y1475994D01*
X342747Y1489811D01*
X340055Y1503324D01*
X335584Y1516430D01*
X329488Y1528826D01*
X321818Y1540306D01*
X312674Y1550670D01*
X302310Y1559814D01*
X290830Y1567484D01*
X278434Y1573580D01*
X265328Y1578051D01*
X251764Y1580743D01*
X237998Y1581658D01*
X224231Y1580743D01*
X210667Y1578051D01*
X197561Y1573580D01*
X185166Y1567484D01*
X173685Y1559814D01*
X163322Y1550670D01*
X154178Y1540306D01*
X146507Y1528826D01*
X140411Y1516430D01*
X135991Y1503324D01*
X133248Y1489811D01*
X132384Y1475994D01*
X133248Y1462227D01*
X135991Y1448663D01*
X140411Y1435557D01*
X146507Y1423162D01*
X154178Y1411681D01*
X163322Y1401318D01*
X173685Y1392174D01*
X185166Y1384503D01*
X197561Y1378407D01*
X210667Y1373987D01*
X224231Y1371295D01*
G37*
G36*
X1761998Y1624380D02*
G01*
X1775764Y1625295D01*
X1789328Y1627987D01*
X1802434Y1632407D01*
X1814830Y1638503D01*
X1826310Y1646174D01*
X1836674Y1655318D01*
X1845818Y1665681D01*
X1853488Y1677162D01*
X1859584Y1689557D01*
X1864055Y1702663D01*
X1866747Y1716227D01*
X1867611Y1729993D01*
X1866747Y1743811D01*
X1864055Y1757324D01*
X1859584Y1770430D01*
X1853488Y1782825D01*
X1845818Y1794306D01*
X1836674Y1804670D01*
X1826310Y1813814D01*
X1814830Y1821484D01*
X1802434Y1827580D01*
X1789328Y1832051D01*
X1775764Y1834743D01*
X1761998Y1835657D01*
X1748231Y1834743D01*
X1734667Y1832051D01*
X1721561Y1827580D01*
X1709166Y1821484D01*
X1697685Y1813814D01*
X1687322Y1804670D01*
X1678178Y1794306D01*
X1670507Y1782825D01*
X1664411Y1770430D01*
X1659991Y1757324D01*
X1657248Y1743811D01*
X1656384Y1729993D01*
X1657248Y1716227D01*
X1659991Y1702663D01*
X1664411Y1689557D01*
X1670507Y1677162D01*
X1678178Y1665681D01*
X1687322Y1655318D01*
X1697685Y1646174D01*
X1709166Y1638503D01*
X1721561Y1632407D01*
X1734667Y1627987D01*
X1748231Y1625295D01*
G37*
G36*
X237998Y1624380D02*
G01*
X251764Y1625295D01*
X265328Y1627987D01*
X278434Y1632407D01*
X290830Y1638503D01*
X302310Y1646174D01*
X312674Y1655318D01*
X321818Y1665681D01*
X329488Y1677162D01*
X335584Y1689557D01*
X340055Y1702663D01*
X342747Y1716227D01*
X343611Y1729993D01*
X342747Y1743811D01*
X340055Y1757324D01*
X335584Y1770430D01*
X329488Y1782825D01*
X321818Y1794306D01*
X312674Y1804670D01*
X302310Y1813814D01*
X290830Y1821484D01*
X278434Y1827580D01*
X265328Y1832051D01*
X251764Y1834743D01*
X237998Y1835657D01*
X224231Y1834743D01*
X210667Y1832051D01*
X197561Y1827580D01*
X185166Y1821484D01*
X173685Y1813814D01*
X163322Y1804670D01*
X154178Y1794306D01*
X146507Y1782825D01*
X140411Y1770430D01*
X135991Y1757324D01*
X133248Y1743811D01*
X132384Y1729993D01*
X133248Y1716227D01*
X135991Y1702663D01*
X140411Y1689557D01*
X146507Y1677162D01*
X154178Y1665681D01*
X163322Y1655318D01*
X173685Y1646174D01*
X185166Y1638503D01*
X197561Y1632407D01*
X210667Y1627987D01*
X224231Y1625295D01*
G37*
G36*
X1761998Y1878380D02*
G01*
X1775764Y1879295D01*
X1789328Y1881987D01*
X1802434Y1886407D01*
X1814830Y1892503D01*
X1826310Y1900174D01*
X1836674Y1909318D01*
X1845818Y1919681D01*
X1853488Y1931162D01*
X1859584Y1943557D01*
X1864055Y1956663D01*
X1866747Y1970227D01*
X1867611Y1983993D01*
X1866747Y1997811D01*
X1864055Y2011324D01*
X1859584Y2024430D01*
X1853488Y2036825D01*
X1845818Y2048306D01*
X1836674Y2058670D01*
X1826310Y2067814D01*
X1814830Y2075484D01*
X1802434Y2081580D01*
X1789328Y2086051D01*
X1775764Y2088743D01*
X1761998Y2089657D01*
X1748231Y2088743D01*
X1734667Y2086051D01*
X1721561Y2081580D01*
X1709166Y2075484D01*
X1697685Y2067814D01*
X1687322Y2058670D01*
X1678178Y2048306D01*
X1670507Y2036825D01*
X1664411Y2024430D01*
X1659991Y2011324D01*
X1657248Y1997811D01*
X1656384Y1983993D01*
X1657248Y1970227D01*
X1659991Y1956663D01*
X1664411Y1943557D01*
X1670507Y1931162D01*
X1678178Y1919681D01*
X1687322Y1909318D01*
X1697685Y1900174D01*
X1709166Y1892503D01*
X1721561Y1886407D01*
X1734667Y1881987D01*
X1748231Y1879295D01*
G37*
G36*
X237998Y1878380D02*
G01*
X251764Y1879295D01*
X265328Y1881987D01*
X278434Y1886407D01*
X290830Y1892503D01*
X302310Y1900174D01*
X312674Y1909318D01*
X321818Y1919681D01*
X329488Y1931162D01*
X335584Y1943557D01*
X340055Y1956663D01*
X342747Y1970227D01*
X343611Y1983993D01*
X342747Y1997811D01*
X340055Y2011324D01*
X335584Y2024430D01*
X329488Y2036825D01*
X321818Y2048306D01*
X312674Y2058670D01*
X302310Y2067814D01*
X290830Y2075484D01*
X278434Y2081580D01*
X265328Y2086051D01*
X251764Y2088743D01*
X237998Y2089657D01*
X224231Y2088743D01*
X210667Y2086051D01*
X197561Y2081580D01*
X185166Y2075484D01*
X173685Y2067814D01*
X163322Y2058670D01*
X154178Y2048306D01*
X146507Y2036825D01*
X140411Y2024430D01*
X135991Y2011324D01*
X133248Y1997811D01*
X132384Y1983993D01*
X133248Y1970227D01*
X135991Y1956663D01*
X140411Y1943557D01*
X146507Y1931162D01*
X154178Y1919681D01*
X163322Y1909318D01*
X173685Y1900174D01*
X185166Y1892503D01*
X197561Y1886407D01*
X210667Y1881987D01*
X224231Y1879295D01*
G37*
G36*
X1761998Y2132380D02*
G01*
X1775764Y2133295D01*
X1789328Y2135987D01*
X1802434Y2140407D01*
X1814830Y2146503D01*
X1826310Y2154174D01*
X1836674Y2163318D01*
X1845818Y2173681D01*
X1853488Y2185162D01*
X1859584Y2197557D01*
X1864055Y2210663D01*
X1866747Y2224227D01*
X1867611Y2237994D01*
X1866747Y2251811D01*
X1864055Y2265324D01*
X1859584Y2278430D01*
X1853488Y2290826D01*
X1845818Y2302306D01*
X1836674Y2312670D01*
X1826310Y2321814D01*
X1814830Y2329484D01*
X1802434Y2335580D01*
X1789328Y2340051D01*
X1775764Y2342743D01*
X1761998Y2343658D01*
X1748231Y2342743D01*
X1734667Y2340051D01*
X1721561Y2335580D01*
X1709166Y2329484D01*
X1697685Y2321814D01*
X1687322Y2312670D01*
X1678178Y2302306D01*
X1670507Y2290826D01*
X1664411Y2278430D01*
X1659991Y2265324D01*
X1657248Y2251811D01*
X1656384Y2237994D01*
X1657248Y2224227D01*
X1659991Y2210663D01*
X1664411Y2197557D01*
X1670507Y2185162D01*
X1678178Y2173681D01*
X1687322Y2163318D01*
X1697685Y2154174D01*
X1709166Y2146503D01*
X1721561Y2140407D01*
X1734667Y2135987D01*
X1748231Y2133295D01*
G37*
G36*
X237998Y2132380D02*
G01*
X251764Y2133295D01*
X265328Y2135987D01*
X278434Y2140407D01*
X290830Y2146503D01*
X302310Y2154174D01*
X312674Y2163318D01*
X321818Y2173681D01*
X329488Y2185162D01*
X335584Y2197557D01*
X340055Y2210663D01*
X342747Y2224227D01*
X343611Y2237994D01*
X342747Y2251811D01*
X340055Y2265324D01*
X335584Y2278430D01*
X329488Y2290826D01*
X321818Y2302306D01*
X312674Y2312670D01*
X302310Y2321814D01*
X290830Y2329484D01*
X278434Y2335580D01*
X265328Y2340051D01*
X251764Y2342743D01*
X237998Y2343658D01*
X224231Y2342743D01*
X210667Y2340051D01*
X197561Y2335580D01*
X185166Y2329484D01*
X173685Y2321814D01*
X163322Y2312670D01*
X154178Y2302306D01*
X146507Y2290826D01*
X140411Y2278430D01*
X135991Y2265324D01*
X133248Y2251811D01*
X132384Y2237994D01*
X133248Y2224227D01*
X135991Y2210663D01*
X140411Y2197557D01*
X146507Y2185162D01*
X154178Y2173681D01*
X163322Y2163318D01*
X173685Y2154174D01*
X185166Y2146503D01*
X197561Y2140407D01*
X210667Y2135987D01*
X224231Y2133295D01*
G37*
G36*
X1761998Y2386380D02*
G01*
X1775764Y2387295D01*
X1789328Y2389987D01*
X1802434Y2394407D01*
X1814830Y2400503D01*
X1826310Y2408174D01*
X1836674Y2417318D01*
X1845818Y2427681D01*
X1853488Y2439162D01*
X1859584Y2451557D01*
X1864055Y2464663D01*
X1866747Y2478227D01*
X1867611Y2491994D01*
X1866747Y2505811D01*
X1864055Y2519324D01*
X1859584Y2532430D01*
X1853488Y2544826D01*
X1845818Y2556306D01*
X1836674Y2566670D01*
X1826310Y2575814D01*
X1814830Y2583484D01*
X1802434Y2589580D01*
X1789328Y2594051D01*
X1775764Y2596743D01*
X1761998Y2597658D01*
X1748231Y2596743D01*
X1734667Y2594051D01*
X1721561Y2589580D01*
X1709166Y2583484D01*
X1697685Y2575814D01*
X1687322Y2566670D01*
X1678178Y2556306D01*
X1670507Y2544826D01*
X1664411Y2532430D01*
X1659991Y2519324D01*
X1657248Y2505811D01*
X1656384Y2491994D01*
X1657248Y2478227D01*
X1659991Y2464663D01*
X1664411Y2451557D01*
X1670507Y2439162D01*
X1678178Y2427681D01*
X1687322Y2417318D01*
X1697685Y2408174D01*
X1709166Y2400503D01*
X1721561Y2394407D01*
X1734667Y2389987D01*
X1748231Y2387295D01*
G37*
G36*
X237998Y2386380D02*
G01*
X251764Y2387295D01*
X265328Y2389987D01*
X278434Y2394407D01*
X290830Y2400503D01*
X302310Y2408174D01*
X312674Y2417318D01*
X321818Y2427681D01*
X329488Y2439162D01*
X335584Y2451557D01*
X340055Y2464663D01*
X342747Y2478227D01*
X343611Y2491994D01*
X342747Y2505811D01*
X340055Y2519324D01*
X335584Y2532430D01*
X329488Y2544826D01*
X321818Y2556306D01*
X312674Y2566670D01*
X302310Y2575814D01*
X290830Y2583484D01*
X278434Y2589580D01*
X265328Y2594051D01*
X251764Y2596743D01*
X237998Y2597658D01*
X224231Y2596743D01*
X210667Y2594051D01*
X197561Y2589580D01*
X185166Y2583484D01*
X173685Y2575814D01*
X163322Y2566670D01*
X154178Y2556306D01*
X146507Y2544826D01*
X140411Y2532430D01*
X135991Y2519324D01*
X133248Y2505811D01*
X132384Y2491994D01*
X133248Y2478227D01*
X135991Y2464663D01*
X140411Y2451557D01*
X146507Y2439162D01*
X154178Y2427681D01*
X163322Y2417318D01*
X173685Y2408174D01*
X185166Y2400503D01*
X197561Y2394407D01*
X210667Y2389987D01*
X224231Y2387295D01*
G37*
G36*
X237998Y3148380D02*
G01*
X251764Y3149295D01*
X265328Y3151987D01*
X278434Y3156407D01*
X290830Y3162503D01*
X302310Y3170174D01*
X312674Y3179318D01*
X321818Y3189681D01*
X329488Y3201162D01*
X335584Y3213557D01*
X340055Y3226663D01*
X342747Y3240227D01*
X343611Y3253994D01*
X342747Y3267811D01*
X340055Y3281324D01*
X335584Y3294430D01*
X329488Y3306826D01*
X321818Y3318306D01*
X312674Y3328670D01*
X302310Y3337814D01*
X290830Y3345484D01*
X278434Y3351580D01*
X265328Y3356051D01*
X251764Y3358743D01*
X237998Y3359658D01*
X224231Y3358743D01*
X210667Y3356051D01*
X197561Y3351580D01*
X185166Y3345484D01*
X173685Y3337814D01*
X163322Y3328670D01*
X154178Y3318306D01*
X146507Y3306826D01*
X140411Y3294430D01*
X135991Y3281324D01*
X133248Y3267811D01*
X132384Y3253994D01*
X133248Y3240227D01*
X135991Y3226663D01*
X140411Y3213557D01*
X146507Y3201162D01*
X154178Y3189681D01*
X163322Y3179318D01*
X173685Y3170174D01*
X185166Y3162503D01*
X197561Y3156407D01*
X210667Y3151987D01*
X224231Y3149295D01*
G37*
G36*
X1761998Y3402380D02*
G01*
X1775764Y3403295D01*
X1789328Y3405987D01*
X1802434Y3410407D01*
X1814830Y3416503D01*
X1826310Y3424174D01*
X1836674Y3433318D01*
X1845818Y3443681D01*
X1853488Y3455162D01*
X1859584Y3467557D01*
X1864055Y3480663D01*
X1866747Y3494227D01*
X1867611Y3507994D01*
X1866747Y3521811D01*
X1864055Y3535324D01*
X1859584Y3548430D01*
X1853488Y3560826D01*
X1845818Y3572306D01*
X1836674Y3582670D01*
X1826310Y3591814D01*
X1814830Y3599484D01*
X1802434Y3605580D01*
X1789328Y3610051D01*
X1775764Y3612743D01*
X1761998Y3613658D01*
X1748231Y3612743D01*
X1734667Y3610051D01*
X1721561Y3605580D01*
X1709166Y3599484D01*
X1697685Y3591814D01*
X1687322Y3582670D01*
X1678178Y3572306D01*
X1670507Y3560826D01*
X1664411Y3548430D01*
X1659991Y3535324D01*
X1657248Y3521811D01*
X1656384Y3507994D01*
X1657248Y3494227D01*
X1659991Y3480663D01*
X1664411Y3467557D01*
X1670507Y3455162D01*
X1678178Y3443681D01*
X1687322Y3433318D01*
X1697685Y3424174D01*
X1709166Y3416503D01*
X1721561Y3410407D01*
X1734667Y3405987D01*
X1748231Y3403295D01*
G37*
G36*
X237998Y3402380D02*
G01*
X251764Y3403295D01*
X265328Y3405987D01*
X278434Y3410407D01*
X290830Y3416503D01*
X302310Y3424174D01*
X312674Y3433318D01*
X321818Y3443681D01*
X329488Y3455162D01*
X335584Y3467557D01*
X340055Y3480663D01*
X342747Y3494227D01*
X343611Y3507994D01*
X342747Y3521811D01*
X340055Y3535324D01*
X335584Y3548430D01*
X329488Y3560826D01*
X321818Y3572306D01*
X312674Y3582670D01*
X302310Y3591814D01*
X290830Y3599484D01*
X278434Y3605580D01*
X265328Y3610051D01*
X251764Y3612743D01*
X237998Y3613658D01*
X224231Y3612743D01*
X210667Y3610051D01*
X197561Y3605580D01*
X185166Y3599484D01*
X173685Y3591814D01*
X163322Y3582670D01*
X154178Y3572306D01*
X146507Y3560826D01*
X140411Y3548430D01*
X135991Y3535324D01*
X133248Y3521811D01*
X132384Y3507994D01*
X133248Y3494227D01*
X135991Y3480663D01*
X140411Y3467557D01*
X146507Y3455162D01*
X154178Y3443681D01*
X163322Y3433318D01*
X173685Y3424174D01*
X185166Y3416503D01*
X197561Y3410407D01*
X210667Y3405987D01*
X224231Y3403295D01*
G37*
G36*
X1761998Y3656380D02*
G01*
X1775764Y3657295D01*
X1789328Y3659987D01*
X1802434Y3664407D01*
X1814830Y3670503D01*
X1826310Y3678174D01*
X1836674Y3687318D01*
X1845818Y3697681D01*
X1853488Y3709162D01*
X1859584Y3721557D01*
X1864055Y3734663D01*
X1866747Y3748227D01*
X1867611Y3761994D01*
X1866747Y3775811D01*
X1864055Y3789324D01*
X1859584Y3802430D01*
X1853488Y3814826D01*
X1845818Y3826306D01*
X1836674Y3836670D01*
X1826310Y3845814D01*
X1814830Y3853484D01*
X1802434Y3859580D01*
X1789328Y3864051D01*
X1775764Y3866743D01*
X1761998Y3867658D01*
X1748231Y3866743D01*
X1734667Y3864051D01*
X1721561Y3859580D01*
X1709166Y3853484D01*
X1697685Y3845814D01*
X1687322Y3836670D01*
X1678178Y3826306D01*
X1670507Y3814826D01*
X1664411Y3802430D01*
X1659991Y3789324D01*
X1657248Y3775811D01*
X1656384Y3761994D01*
X1657248Y3748227D01*
X1659991Y3734663D01*
X1664411Y3721557D01*
X1670507Y3709162D01*
X1678178Y3697681D01*
X1687322Y3687318D01*
X1697685Y3678174D01*
X1709166Y3670503D01*
X1721561Y3664407D01*
X1734667Y3659987D01*
X1748231Y3657295D01*
G37*
G36*
X237998Y3910380D02*
G01*
X251764Y3911295D01*
X265328Y3913987D01*
X278434Y3918407D01*
X290830Y3924503D01*
X302310Y3932174D01*
X312674Y3941318D01*
X321818Y3951681D01*
X329488Y3963162D01*
X335584Y3975557D01*
X340055Y3988663D01*
X342747Y4002227D01*
X343611Y4015994D01*
X342747Y4029811D01*
X340055Y4043324D01*
X335584Y4056430D01*
X329488Y4068826D01*
X321818Y4080306D01*
X312674Y4090670D01*
X302310Y4099814D01*
X290830Y4107484D01*
X278434Y4113580D01*
X265328Y4118051D01*
X251764Y4120743D01*
X237998Y4121658D01*
X224231Y4120743D01*
X210667Y4118051D01*
X197561Y4113580D01*
X185166Y4107484D01*
X173685Y4099814D01*
X163322Y4090670D01*
X154178Y4080306D01*
X146507Y4068826D01*
X140411Y4056430D01*
X135991Y4043324D01*
X133248Y4029811D01*
X132384Y4015994D01*
X133248Y4002227D01*
X135991Y3988663D01*
X140411Y3975557D01*
X146507Y3963162D01*
X154178Y3951681D01*
X163322Y3941318D01*
X173685Y3932174D01*
X185166Y3924503D01*
X197561Y3918407D01*
X210667Y3913987D01*
X224231Y3911295D01*
G37*
G36*
X1761998Y4164380D02*
G01*
X1775764Y4165295D01*
X1789328Y4167987D01*
X1802434Y4172407D01*
X1814830Y4178503D01*
X1826310Y4186174D01*
X1836674Y4195318D01*
X1845818Y4205681D01*
X1853488Y4217162D01*
X1859584Y4229557D01*
X1864055Y4242663D01*
X1866747Y4256227D01*
X1867611Y4269994D01*
X1866747Y4283811D01*
X1864055Y4297324D01*
X1859584Y4310430D01*
X1853488Y4322826D01*
X1845818Y4334306D01*
X1836674Y4344670D01*
X1826310Y4353814D01*
X1814830Y4361484D01*
X1802434Y4367580D01*
X1789328Y4372051D01*
X1775764Y4374743D01*
X1761998Y4375658D01*
X1748231Y4374743D01*
X1734667Y4372051D01*
X1721561Y4367580D01*
X1709166Y4361484D01*
X1697685Y4353814D01*
X1687322Y4344670D01*
X1678178Y4334306D01*
X1670507Y4322826D01*
X1664411Y4310430D01*
X1659991Y4297324D01*
X1657248Y4283811D01*
X1656384Y4269994D01*
X1657248Y4256227D01*
X1659991Y4242663D01*
X1664411Y4229557D01*
X1670507Y4217162D01*
X1678178Y4205681D01*
X1687322Y4195318D01*
X1697685Y4186174D01*
X1709166Y4178503D01*
X1721561Y4172407D01*
X1734667Y4167987D01*
X1748231Y4165295D01*
G37*
G36*
X237998Y4164380D02*
G01*
X251764Y4165295D01*
X265328Y4167987D01*
X278434Y4172407D01*
X290830Y4178503D01*
X302310Y4186174D01*
X312674Y4195318D01*
X321818Y4205681D01*
X329488Y4217162D01*
X335584Y4229557D01*
X340055Y4242663D01*
X342747Y4256227D01*
X343611Y4269994D01*
X342747Y4283811D01*
X340055Y4297324D01*
X335584Y4310430D01*
X329488Y4322826D01*
X321818Y4334306D01*
X312674Y4344670D01*
X302310Y4353814D01*
X290830Y4361484D01*
X278434Y4367580D01*
X265328Y4372051D01*
X251764Y4374743D01*
X237998Y4375658D01*
X224231Y4374743D01*
X210667Y4372051D01*
X197561Y4367580D01*
X185166Y4361484D01*
X173685Y4353814D01*
X163322Y4344670D01*
X154178Y4334306D01*
X146507Y4322826D01*
X140411Y4310430D01*
X135991Y4297324D01*
X133248Y4283811D01*
X132384Y4269994D01*
X133248Y4256227D01*
X135991Y4242663D01*
X140411Y4229557D01*
X146507Y4217162D01*
X154178Y4205681D01*
X163322Y4195318D01*
X173685Y4186174D01*
X185166Y4178503D01*
X197561Y4172407D01*
X210667Y4167987D01*
X224231Y4165295D01*
G37*
G36*
X237998Y4418380D02*
G01*
X251764Y4419295D01*
X265328Y4421987D01*
X278434Y4426407D01*
X290830Y4432503D01*
X302310Y4440174D01*
X312674Y4449318D01*
X321818Y4459681D01*
X329488Y4471162D01*
X335584Y4483557D01*
X340055Y4496663D01*
X342747Y4510227D01*
X343611Y4523994D01*
X342747Y4537811D01*
X340055Y4551324D01*
X335584Y4564430D01*
X329488Y4576826D01*
X321818Y4588306D01*
X312674Y4598670D01*
X302310Y4607814D01*
X290830Y4615484D01*
X278434Y4621580D01*
X265328Y4626051D01*
X251764Y4628743D01*
X237998Y4629658D01*
X224231Y4628743D01*
X210667Y4626051D01*
X197561Y4621580D01*
X185166Y4615484D01*
X173685Y4607814D01*
X163322Y4598670D01*
X154178Y4588306D01*
X146507Y4576826D01*
X140411Y4564430D01*
X135991Y4551324D01*
X133248Y4537811D01*
X132384Y4523994D01*
X133248Y4510227D01*
X135991Y4496663D01*
X140411Y4483557D01*
X146507Y4471162D01*
X154178Y4459681D01*
X163322Y4449318D01*
X173685Y4440174D01*
X185166Y4432503D01*
X197561Y4426407D01*
X210667Y4421987D01*
X224231Y4419295D01*
G37*
G36*
X158546Y4672330D02*
G01*
X317449Y4672330D01*
X323697Y4673041D01*
X329082Y4674920D01*
X333959Y4678019D01*
X338023Y4682032D01*
X341071Y4686909D01*
X342950Y4692294D01*
X343662Y4698593D01*
X343662Y4857445D01*
X342950Y4863693D01*
X341071Y4869129D01*
X338023Y4873955D01*
X333959Y4878019D01*
X329082Y4881067D01*
X323697Y4882946D01*
X317449Y4883658D01*
X158546Y4883658D01*
X152298Y4882946D01*
X146913Y4881067D01*
X142036Y4878019D01*
X137972Y4873955D01*
X134924Y4869129D01*
X133045Y4863693D01*
X132334Y4857445D01*
X132334Y4698593D01*
X133045Y4692294D01*
X134924Y4686909D01*
X137972Y4682032D01*
X142036Y4678019D01*
X146913Y4674920D01*
X152298Y4673041D01*
G37*

%LPD*%
G36*
X4610150Y399999D02*
G01*
X4606290Y400761D01*
X4602988Y402996D01*
X4600752Y406298D01*
X4599990Y410159D01*
X4599990Y726084D01*
X4600752Y729996D01*
X4602988Y733298D01*
X4606290Y735482D01*
X4610150Y736244D01*
X4736287Y736244D01*
X4739690Y735685D01*
X4742688Y733958D01*
X4744974Y731367D01*
X4746599Y728624D01*
X4755946Y716686D01*
X4766665Y705967D01*
X4778654Y696620D01*
X4791608Y688746D01*
X4805426Y682548D01*
X4819954Y678027D01*
X4834839Y675284D01*
X4849977Y674370D01*
X4865166Y675284D01*
X4880051Y678027D01*
X4894529Y682548D01*
X4908397Y688746D01*
X4921351Y696620D01*
X4933289Y705967D01*
X4944059Y716686D01*
X4953406Y728624D01*
X4961229Y741629D01*
X4967478Y755446D01*
X4971999Y769924D01*
X4974742Y784860D01*
X4975656Y799998D01*
X4974742Y815136D01*
X4971999Y830071D01*
X4967478Y844550D01*
X4961229Y858367D01*
X4953406Y871372D01*
X4944059Y883310D01*
X4933289Y894029D01*
X4921351Y903376D01*
X4911293Y909472D01*
X4908143Y912520D01*
X4906518Y916533D01*
X4906772Y920902D01*
X4908804Y924763D01*
X4912258Y927404D01*
X4916525Y928369D01*
X4949444Y928369D01*
X4955692Y929030D01*
X4961128Y930960D01*
X4965954Y934008D01*
X4970018Y938021D01*
X4973066Y942898D01*
X4974945Y948283D01*
X4975656Y954582D01*
X4975656Y1153414D01*
X4974945Y1159713D01*
X4973066Y1165098D01*
X4970018Y1169974D01*
X4965954Y1173988D01*
X4961128Y1177036D01*
X4955692Y1178966D01*
X4949444Y1179677D01*
X4750562Y1179677D01*
X4744313Y1178966D01*
X4738878Y1177036D01*
X4734052Y1173988D01*
X4729988Y1169974D01*
X4726940Y1165098D01*
X4725060Y1159713D01*
X4724349Y1153414D01*
X4724349Y1149350D01*
X4723587Y1145489D01*
X4721352Y1142187D01*
X4718050Y1140002D01*
X4714189Y1139190D01*
X4610150Y1139190D01*
X4606290Y1140002D01*
X4602988Y1142187D01*
X4600752Y1145489D01*
X4599990Y1149350D01*
X4599990Y1189837D01*
X4600752Y1193749D01*
X4602988Y1197000D01*
X4606290Y1199235D01*
X4610150Y1199997D01*
X5049012Y1199997D01*
X5049977Y1201013D01*
X5049977Y1499006D01*
X5049012Y1500022D01*
X4610150Y1500022D01*
X4606290Y1500784D01*
X4602988Y1502968D01*
X4600752Y1506270D01*
X4599990Y1510182D01*
X4599990Y2489860D01*
X4600752Y2493721D01*
X4602988Y2497023D01*
X4606290Y2499207D01*
X4610150Y2500020D01*
X5376062Y2500020D01*
X5379974Y2499207D01*
X5383276Y2497023D01*
X5385460Y2493721D01*
X5386222Y2489860D01*
X5386222Y1867560D01*
X5385663Y1864156D01*
X5383936Y1861159D01*
X5381345Y1858873D01*
X5378704Y1857298D01*
X5366766Y1847900D01*
X5356047Y1837182D01*
X5346700Y1825243D01*
X5338826Y1812289D01*
X5332628Y1798421D01*
X5328107Y1783943D01*
X5325364Y1769008D01*
X5324449Y1753870D01*
X5325364Y1738731D01*
X5328107Y1723796D01*
X5332628Y1709318D01*
X5338826Y1695500D01*
X5346700Y1682496D01*
X5356047Y1670557D01*
X5366766Y1659839D01*
X5378704Y1650492D01*
X5391708Y1642618D01*
X5405526Y1636420D01*
X5420004Y1631899D01*
X5434939Y1629156D01*
X5450078Y1628241D01*
X5465216Y1629156D01*
X5480151Y1631899D01*
X5494629Y1636420D01*
X5508447Y1642618D01*
X5521452Y1650492D01*
X5533390Y1659839D01*
X5544108Y1670557D01*
X5553456Y1682496D01*
X5561330Y1695500D01*
X5567527Y1709318D01*
X5572048Y1723796D01*
X5574792Y1738731D01*
X5575706Y1753870D01*
X5574792Y1769008D01*
X5572048Y1783943D01*
X5567527Y1798421D01*
X5561330Y1812289D01*
X5553456Y1825243D01*
X5544108Y1837182D01*
X5533390Y1847900D01*
X5521452Y1857298D01*
X5518658Y1858975D01*
X5516067Y1861210D01*
X5514340Y1864258D01*
X5513730Y1867662D01*
X5513730Y2489860D01*
X5514543Y2493721D01*
X5516727Y2497023D01*
X5520029Y2499207D01*
X5523890Y2500020D01*
X5789828Y2500020D01*
X5793740Y2499207D01*
X5797042Y2497023D01*
X5799226Y2493721D01*
X5799988Y2489860D01*
X5799988Y410159D01*
X5799226Y406298D01*
X5797042Y402996D01*
X5793740Y400761D01*
X5789828Y399999D01*
X5744819Y399999D01*
X5740908Y400761D01*
X5737656Y402996D01*
X5735421Y406298D01*
X5734659Y410159D01*
X5735523Y414274D01*
X5742127Y435152D01*
X5746851Y456488D01*
X5749696Y478180D01*
X5750661Y500024D01*
X5749696Y521868D01*
X5746851Y543509D01*
X5742127Y564896D01*
X5735523Y585724D01*
X5727141Y605942D01*
X5717082Y625348D01*
X5705297Y643788D01*
X5691987Y661111D01*
X5677255Y677214D01*
X5661101Y691997D01*
X5643778Y705307D01*
X5625338Y717042D01*
X5605932Y727151D01*
X5585714Y735533D01*
X5564886Y742086D01*
X5543499Y746861D01*
X5521858Y749706D01*
X5500014Y750620D01*
X5478170Y749706D01*
X5456478Y746861D01*
X5435142Y742086D01*
X5414264Y735533D01*
X5394096Y727151D01*
X5374690Y717042D01*
X5356250Y705307D01*
X5338876Y691997D01*
X5322773Y677214D01*
X5307990Y661111D01*
X5294680Y643788D01*
X5282946Y625348D01*
X5272836Y605942D01*
X5264454Y585724D01*
X5257901Y564896D01*
X5253177Y543509D01*
X5250332Y521868D01*
X5249367Y500024D01*
X5250332Y478180D01*
X5253177Y456488D01*
X5257901Y435152D01*
X5264556Y414070D01*
X5265318Y410159D01*
X5264556Y406298D01*
X5262372Y402996D01*
X5259070Y400761D01*
X5255158Y399999D01*
G37*

%LPD*%
D11*
X238000Y3762004D02*
G01*
X911857Y3762004D01*
X1199895Y4050042D01*
X1199895Y4549912D01*
X1599984Y4950000D01*
X5599993Y4950000D01*
X5749998Y4800000D01*
X5749998Y4199991D01*
X5529313Y3979306D01*
X5449999Y3979306D01*
X1762000Y3000004D02*
G01*
X2049995Y2712008D01*
X2049995Y2450002D01*
X2349995Y2150003D01*
X3049996Y2150003D01*
X3650071Y2750070D01*
X3885915Y2750070D01*
X3890007Y2745978D01*
D12*
X4849997Y4599998D02*
G01*
X5149987Y4600006D01*
X5262699Y4487306D01*
X5449999Y4487306D01*
D11*
X3890007Y3006001D02*
G01*
X4106006Y3006001D01*
X4825306Y3725306D01*
X5449999Y3725306D01*
X3890007Y2745978D02*
G01*
X4045978Y2745978D01*
X4771306Y3471306D01*
X5449999Y3471306D01*
X238000Y3000004D02*
G01*
X249938Y3000004D01*
X700026Y2549916D01*
X700026Y887234D01*
X721103Y887234D01*
X1158242Y450100D01*
X3650109Y450100D01*
X4000017Y800008D01*
X4849997Y800008D01*
D12*
X1762000Y4016004D02*
G01*
X1565907Y4016004D01*
X1122934Y3573030D01*
X1122934Y877077D01*
X1299969Y700039D01*
X3549898Y700039D01*
X3899915Y1050051D01*
X4849997Y1050051D01*
X4849997Y1054008D01*
D11*
X5449999Y1754009D02*
G01*
X5449999Y2800009D01*
X5117442Y3132566D01*
X4851981Y3132566D01*
D12*
X2544998Y3075012D02*
G01*
X3025018Y3075012D01*
X4550011Y4599998D01*
X4849997Y4599998D01*
X2544998Y3075012D02*
G01*
X2544998Y3405002D01*
X1933996Y4016004D01*
X1762000Y4016004D01*
D11*
X1762000Y3254004D02*
G01*
X1762000Y3237992D01*
X2249995Y2749997D01*
X2249995Y2499997D01*
X2400002Y2350002D01*
X3000004Y2350002D01*
X3650010Y3000004D01*
X3884018Y3000004D01*
X3890007Y3006001D01*
D13*
X4851981Y3958066D02*
G01*
X4873216Y3979306D01*
X5449999Y3979306D01*
D14*
G01*
X5450077Y4487176D03*
D15*
G01*
X5450077Y4233176D03*
G01*
X5450077Y3979176D03*
G01*
X5450077Y3725176D03*
G01*
X5450077Y3471176D03*
G01*
X5450077Y3217176D03*
G01*
X5450077Y1753882D03*
D14*
G01*
X5450077Y1499882D03*
D16*
G01*
X238000Y4778001D03*
D17*
G01*
X238000Y4524001D03*
G01*
X238000Y4270001D03*
G01*
X238000Y4016001D03*
G01*
X238000Y3762001D03*
G01*
X238000Y3508001D03*
G01*
X238000Y3254001D03*
G01*
X238000Y3000001D03*
G01*
X238000Y2746001D03*
G01*
X238000Y2492001D03*
G01*
X238000Y2238001D03*
G01*
X238000Y1984001D03*
G01*
X238000Y1730001D03*
G01*
X238000Y1476001D03*
G01*
X238000Y1222001D03*
G01*
X1762000Y4778001D03*
G01*
X1762000Y4524001D03*
G01*
X1762000Y4270001D03*
G01*
X1762000Y4016001D03*
G01*
X1762000Y3762001D03*
G01*
X1762000Y3508001D03*
G01*
X1762000Y3254001D03*
G01*
X1762000Y3000001D03*
G01*
X1762000Y2746001D03*
G01*
X1762000Y2492001D03*
G01*
X1762000Y2238001D03*
G01*
X1762000Y1984001D03*
G01*
X1762000Y1730001D03*
G01*
X1762000Y1476001D03*
G01*
X1762000Y1222001D03*
G36*
X4750000Y4704001D02*
G01*
X4950000Y4704001D01*
X4950000Y4504001D01*
X4750000Y4504001D01*
G37*
D15*
G01*
X4850000Y4350001D03*
G01*
X4849875Y1345958D03*
G01*
X4849875Y1853958D03*
G01*
X4851974Y3132574D03*
G01*
X4851974Y3958074D03*
G01*
X4850000Y2874992D03*
G01*
X4850000Y2112992D03*
D18*
G01*
X499998Y5500001D03*
G01*
X5499999Y5500001D03*
G01*
X499998Y500001D03*
G01*
X5499999Y500001D03*
D14*
G01*
X4850000Y1054000D03*
D15*
G01*
X4850000Y800000D03*
G01*
X4850000Y546000D03*
G36*
X2445029Y3174987D02*
G01*
X2645029Y3174987D01*
X2645029Y2974987D01*
X2445029Y2974987D01*
G37*
G01*
X2545029Y2554973D03*
G01*
X3890035Y3005975D03*
G01*
X3890035Y2745955D03*
G01*
X2545029Y2814967D03*
G36*
X3790035Y3365969D02*
G01*
X3990035Y3365969D01*
X3990035Y3165970D01*
X3790035Y3165970D01*
G37*
G01*
X3890035Y2485961D03*
M02*
