G04 Layer: BottomSolderMaskLayer*
G04 EasyEDA v6.4.19.5, 2021-05-28T08:08:18--3:00*
G04 c9b473d587b343d0a851897dfaf33f8f,59636247558045d2802cba280e4ac9d9,10*
G04 Gerber Generator version 0.2*
G04 Scale: 100 percent, Rotated: No, Reflected: No *
G04 Dimensions in millimeters *
G04 leading zeros omitted , absolute positions ,4 integer and 5 decimal *
%FSLAX45Y45*%
%MOMM*%

%ADD26C,2.2032*%
%ADD27C,4.7032*%
%ADD29C,2.0032*%

%LPD*%
G36*
X5339841Y4376928D02*
G01*
X5339841Y4597400D01*
X5560313Y4597400D01*
X5560313Y4376928D01*
G37*
D26*
G01*
X5450077Y4233163D03*
G01*
X5450077Y3979163D03*
G01*
X5450077Y3725163D03*
G01*
X5450077Y3471163D03*
G01*
X5450077Y3217163D03*
G01*
X5450077Y1753870D03*
G36*
X5339841Y1389634D02*
G01*
X5339841Y1610105D01*
X5560313Y1610105D01*
X5560313Y1389634D01*
G37*
G36*
X4739893Y4493768D02*
G01*
X4739893Y4714239D01*
X4960111Y4714239D01*
X4960111Y4493768D01*
G37*
G01*
X4850002Y4350004D03*
G01*
X4849875Y1345945D03*
G01*
X4849875Y1853945D03*
G01*
X4851984Y3132581D03*
G01*
X4851984Y3958081D03*
G01*
X4850002Y2875000D03*
G01*
X4850002Y2113000D03*
D27*
G01*
X499998Y5499988D03*
G01*
X5499988Y5499988D03*
G01*
X499998Y499998D03*
G01*
X5499988Y499998D03*
G36*
X4739893Y943863D02*
G01*
X4739893Y1164081D01*
X4960111Y1164081D01*
X4960111Y943863D01*
G37*
D26*
G01*
X4850002Y799998D03*
G01*
X4850002Y545998D03*
G36*
X2234945Y3164839D02*
G01*
X2234945Y3385057D01*
X2455163Y3385057D01*
X2455163Y3164839D01*
G37*
G01*
X2345004Y2754985D03*
G01*
X3690010Y3205987D03*
G01*
X3690010Y2945968D03*
G01*
X2345004Y3014979D03*
G36*
X3579875Y3355847D02*
G01*
X3579875Y3576065D01*
X3800093Y3576065D01*
X3800093Y3355847D01*
G37*
G01*
X3690010Y2685973D03*
G36*
X-62229Y4677918D02*
G01*
X-62229Y4878070D01*
X138176Y4878070D01*
X138176Y4677918D01*
G37*
D29*
G01*
X38000Y4523999D03*
G01*
X38000Y4269999D03*
G01*
X38000Y4015999D03*
G01*
X38000Y3761999D03*
G01*
X38000Y3507999D03*
G01*
X38000Y3253999D03*
G01*
X38000Y2999999D03*
G01*
X38000Y2745999D03*
G01*
X38000Y2491999D03*
G01*
X38000Y2237999D03*
G01*
X38000Y1983999D03*
G01*
X38000Y1729999D03*
G01*
X38000Y1475999D03*
G01*
X38000Y1221999D03*
G01*
X1562000Y4777999D03*
G01*
X1562000Y4523999D03*
G01*
X1562000Y4269999D03*
G01*
X1562000Y4015999D03*
G01*
X1562000Y3761999D03*
G01*
X1562000Y3507999D03*
G01*
X1562000Y3253999D03*
G01*
X1562000Y2999999D03*
G01*
X1562000Y2745999D03*
G01*
X1562000Y2491999D03*
G01*
X1562000Y2237999D03*
G01*
X1562000Y1983999D03*
G01*
X1562000Y1729999D03*
G01*
X1562000Y1475999D03*
G01*
X1562000Y1221999D03*
M02*
