G04 Layer: TopSilkLayer*
G04 EasyEDA v6.4.19.5, 2021-05-28T08:08:18--3:00*
G04 c9b473d587b343d0a851897dfaf33f8f,59636247558045d2802cba280e4ac9d9,10*
G04 Gerber Generator version 0.2*
G04 Scale: 100 percent, Rotated: No, Reflected: No *
G04 Dimensions in millimeters *
G04 leading zeros omitted , absolute positions ,4 integer and 5 decimal *
%FSLAX45Y45*%
%MOMM*%

%ADD10C,0.2540*%
%ADD19C,0.2007*%
%ADD20C,0.1501*%
%ADD21C,0.2286*%
%ADD22C,0.2032*%
%ADD23C,0.2030*%
%ADD24C,0.1016*%

%LPD*%
D22*
X2091690Y5303786D02*
G01*
X2070861Y5296928D01*
X2056891Y5276100D01*
X2050034Y5241556D01*
X2050034Y5220728D01*
X2056891Y5185930D01*
X2070861Y5165356D01*
X2091690Y5158244D01*
X2105406Y5158244D01*
X2126234Y5165356D01*
X2139950Y5185930D01*
X2147061Y5220728D01*
X2147061Y5241556D01*
X2139950Y5276100D01*
X2126234Y5296928D01*
X2105406Y5303786D01*
X2091690Y5303786D01*
X2275840Y5303786D02*
G01*
X2206497Y5303786D01*
X2199640Y5241556D01*
X2206497Y5248414D01*
X2227325Y5255272D01*
X2248154Y5255272D01*
X2268981Y5248414D01*
X2282697Y5234444D01*
X2289809Y5213616D01*
X2289809Y5199900D01*
X2282697Y5179072D01*
X2268981Y5165356D01*
X2248154Y5158244D01*
X2227325Y5158244D01*
X2206497Y5165356D01*
X2199640Y5172214D01*
X2192781Y5185930D01*
X2459990Y5331472D02*
G01*
X2335529Y5109730D01*
X2512822Y5269242D02*
G01*
X2512822Y5276100D01*
X2519679Y5289816D01*
X2526538Y5296928D01*
X2540508Y5303786D01*
X2568193Y5303786D01*
X2581909Y5296928D01*
X2589022Y5289816D01*
X2595879Y5276100D01*
X2595879Y5262130D01*
X2589022Y5248414D01*
X2575052Y5227586D01*
X2505709Y5158244D01*
X2602738Y5158244D01*
X2690113Y5303786D02*
G01*
X2669286Y5296928D01*
X2655570Y5276100D01*
X2648458Y5241556D01*
X2648458Y5220728D01*
X2655570Y5185930D01*
X2669286Y5165356D01*
X2690113Y5158244D01*
X2703829Y5158244D01*
X2724658Y5165356D01*
X2738627Y5185930D01*
X2745486Y5220728D01*
X2745486Y5241556D01*
X2738627Y5276100D01*
X2724658Y5296928D01*
X2703829Y5303786D01*
X2690113Y5303786D01*
X2798063Y5269242D02*
G01*
X2798063Y5276100D01*
X2805175Y5289816D01*
X2812034Y5296928D01*
X2825750Y5303786D01*
X2853690Y5303786D01*
X2867406Y5296928D01*
X2874263Y5289816D01*
X2881375Y5276100D01*
X2881375Y5262130D01*
X2874263Y5248414D01*
X2860547Y5227586D01*
X2791206Y5158244D01*
X2888234Y5158244D01*
X2933954Y5276100D02*
G01*
X2947670Y5282958D01*
X2968497Y5303786D01*
X2968497Y5158244D01*
X2153886Y5497725D02*
G01*
X2147028Y5511695D01*
X2133058Y5525411D01*
X2119342Y5532269D01*
X2091656Y5532269D01*
X2077686Y5525411D01*
X2063970Y5511695D01*
X2056858Y5497725D01*
X2050000Y5476897D01*
X2050000Y5442353D01*
X2056858Y5421525D01*
X2063970Y5407809D01*
X2077686Y5393839D01*
X2091656Y5386981D01*
X2119342Y5386981D01*
X2133058Y5393839D01*
X2147028Y5407809D01*
X2153886Y5421525D01*
X2153886Y5442353D01*
X2119342Y5442353D02*
G01*
X2153886Y5442353D01*
X2282664Y5484009D02*
G01*
X2282664Y5386981D01*
X2282664Y5463181D02*
G01*
X2268948Y5476897D01*
X2254978Y5484009D01*
X2234150Y5484009D01*
X2220434Y5476897D01*
X2206464Y5463181D01*
X2199606Y5442353D01*
X2199606Y5428383D01*
X2206464Y5407809D01*
X2220434Y5393839D01*
X2234150Y5386981D01*
X2254978Y5386981D01*
X2268948Y5393839D01*
X2282664Y5407809D01*
X2328384Y5532269D02*
G01*
X2328384Y5386981D01*
X2328384Y5463181D02*
G01*
X2342354Y5476897D01*
X2356070Y5484009D01*
X2376898Y5484009D01*
X2390868Y5476897D01*
X2404584Y5463181D01*
X2411696Y5442353D01*
X2411696Y5428383D01*
X2404584Y5407809D01*
X2390868Y5393839D01*
X2376898Y5386981D01*
X2356070Y5386981D01*
X2342354Y5393839D01*
X2328384Y5407809D01*
X2457416Y5484009D02*
G01*
X2457416Y5386981D01*
X2457416Y5442353D02*
G01*
X2464274Y5463181D01*
X2477990Y5476897D01*
X2491960Y5484009D01*
X2512788Y5484009D01*
X2558508Y5532269D02*
G01*
X2565366Y5525411D01*
X2572224Y5532269D01*
X2565366Y5539381D01*
X2558508Y5532269D01*
X2565366Y5484009D02*
G01*
X2565366Y5386981D01*
X2617944Y5442353D02*
G01*
X2701256Y5442353D01*
X2701256Y5456069D01*
X2694144Y5470039D01*
X2687286Y5476897D01*
X2673570Y5484009D01*
X2652742Y5484009D01*
X2638772Y5476897D01*
X2625056Y5463181D01*
X2617944Y5442353D01*
X2617944Y5428383D01*
X2625056Y5407809D01*
X2638772Y5393839D01*
X2652742Y5386981D01*
X2673570Y5386981D01*
X2687286Y5393839D01*
X2701256Y5407809D01*
X2746976Y5532269D02*
G01*
X2746976Y5386981D01*
X2899376Y5532269D02*
G01*
X2899376Y5386981D01*
X2899376Y5532269D02*
G01*
X2961606Y5532269D01*
X2982434Y5525411D01*
X2989292Y5518553D01*
X2996150Y5504583D01*
X2996150Y5490867D01*
X2989292Y5476897D01*
X2982434Y5470039D01*
X2961606Y5463181D01*
X2899376Y5463181D02*
G01*
X2961606Y5463181D01*
X2982434Y5456069D01*
X2989292Y5449211D01*
X2996150Y5435495D01*
X2996150Y5414667D01*
X2989292Y5400697D01*
X2982434Y5393839D01*
X2961606Y5386981D01*
X2899376Y5386981D01*
X3041870Y5442353D02*
G01*
X3125182Y5442353D01*
X3125182Y5456069D01*
X3118070Y5470039D01*
X3111212Y5476897D01*
X3097496Y5484009D01*
X3076668Y5484009D01*
X3062698Y5476897D01*
X3048982Y5463181D01*
X3041870Y5442353D01*
X3041870Y5428383D01*
X3048982Y5407809D01*
X3062698Y5393839D01*
X3076668Y5386981D01*
X3097496Y5386981D01*
X3111212Y5393839D01*
X3125182Y5407809D01*
X3191730Y5532269D02*
G01*
X3191730Y5414667D01*
X3198588Y5393839D01*
X3212304Y5386981D01*
X3226274Y5386981D01*
X3170902Y5484009D02*
G01*
X3219416Y5484009D01*
X3292822Y5532269D02*
G01*
X3292822Y5414667D01*
X3299680Y5393839D01*
X3313650Y5386981D01*
X3327366Y5386981D01*
X3271994Y5484009D02*
G01*
X3320508Y5484009D01*
X3456144Y5484009D02*
G01*
X3456144Y5386981D01*
X3456144Y5463181D02*
G01*
X3442428Y5476897D01*
X3428458Y5484009D01*
X3407630Y5484009D01*
X3393914Y5476897D01*
X3379944Y5463181D01*
X3373086Y5442353D01*
X3373086Y5428383D01*
X3379944Y5407809D01*
X3393914Y5393839D01*
X3407630Y5386981D01*
X3428458Y5386981D01*
X3442428Y5393839D01*
X3456144Y5407809D01*
X3501864Y5484009D02*
G01*
X3501864Y5386981D01*
X3501864Y5456069D02*
G01*
X3522692Y5476897D01*
X3536662Y5484009D01*
X3557490Y5484009D01*
X3571206Y5476897D01*
X3578064Y5456069D01*
X3578064Y5386981D01*
X3623784Y5532269D02*
G01*
X3630896Y5525411D01*
X3637754Y5532269D01*
X3630896Y5539381D01*
X3623784Y5532269D01*
X3630896Y5484009D02*
G01*
X3630896Y5386981D01*
X3683474Y5484009D02*
G01*
X3683474Y5386981D01*
X3683474Y5456069D02*
G01*
X3704302Y5476897D01*
X3718018Y5484009D01*
X3738846Y5484009D01*
X3752816Y5476897D01*
X3759674Y5456069D01*
X3759674Y5386981D01*
X2075434Y5760986D02*
G01*
X2075434Y5615444D01*
X2075434Y5615444D02*
G01*
X2158491Y5615444D01*
X2204211Y5760986D02*
G01*
X2204211Y5615444D01*
X2249931Y5760986D02*
G01*
X2249931Y5615444D01*
X2249931Y5760986D02*
G01*
X2298445Y5760986D01*
X2319274Y5754128D01*
X2332990Y5740158D01*
X2340102Y5726442D01*
X2346959Y5705614D01*
X2346959Y5670816D01*
X2340102Y5650242D01*
X2332990Y5636272D01*
X2319274Y5622556D01*
X2298445Y5615444D01*
X2249931Y5615444D01*
X2448052Y5760986D02*
G01*
X2392679Y5615444D01*
X2448052Y5760986D02*
G01*
X2503424Y5615444D01*
X2413508Y5663958D02*
G01*
X2482850Y5663958D01*
X2549143Y5760986D02*
G01*
X2549143Y5615444D01*
X2549143Y5760986D02*
G01*
X2611627Y5760986D01*
X2632456Y5754128D01*
X2639313Y5747016D01*
X2646172Y5733300D01*
X2646172Y5719330D01*
X2639313Y5705614D01*
X2632456Y5698756D01*
X2611627Y5691644D01*
X2549143Y5691644D01*
X2597658Y5691644D02*
G01*
X2646172Y5615444D01*
X2691891Y5566930D02*
G01*
X2816606Y5566930D01*
X2862325Y5760986D02*
G01*
X2862325Y5615444D01*
X2862325Y5760986D02*
G01*
X2924809Y5760986D01*
X2945384Y5754128D01*
X2952495Y5747016D01*
X2959354Y5733300D01*
X2959354Y5719330D01*
X2952495Y5705614D01*
X2945384Y5698756D01*
X2924809Y5691644D01*
X2862325Y5691644D02*
G01*
X2924809Y5691644D01*
X2945384Y5684786D01*
X2952495Y5677928D01*
X2959354Y5663958D01*
X2959354Y5643130D01*
X2952495Y5629414D01*
X2945384Y5622556D01*
X2924809Y5615444D01*
X2862325Y5615444D01*
X3005074Y5670816D02*
G01*
X3088131Y5670816D01*
X3088131Y5684786D01*
X3081274Y5698756D01*
X3074415Y5705614D01*
X3060445Y5712472D01*
X3039618Y5712472D01*
X3025902Y5705614D01*
X3011931Y5691644D01*
X3005074Y5670816D01*
X3005074Y5657100D01*
X3011931Y5636272D01*
X3025902Y5622556D01*
X3039618Y5615444D01*
X3060445Y5615444D01*
X3074415Y5622556D01*
X3088131Y5636272D01*
X3154679Y5760986D02*
G01*
X3154679Y5643130D01*
X3161538Y5622556D01*
X3175508Y5615444D01*
X3189224Y5615444D01*
X3133852Y5712472D02*
G01*
X3182365Y5712472D01*
X3318256Y5712472D02*
G01*
X3318256Y5615444D01*
X3318256Y5691644D02*
G01*
X3304286Y5705614D01*
X3290570Y5712472D01*
X3269741Y5712472D01*
X3255772Y5705614D01*
X3242056Y5691644D01*
X3234943Y5670816D01*
X3234943Y5657100D01*
X3242056Y5636272D01*
X3255772Y5622556D01*
X3269741Y5615444D01*
X3290570Y5615444D01*
X3304286Y5622556D01*
X3318256Y5636272D01*
X3470656Y5712472D02*
G01*
X3512058Y5615444D01*
X3553713Y5712472D02*
G01*
X3512058Y5615444D01*
X3599434Y5733300D02*
G01*
X3613150Y5740158D01*
X3633977Y5760986D01*
X3633977Y5615444D01*
X3686809Y5650242D02*
G01*
X3679697Y5643130D01*
X3686809Y5636272D01*
X3693668Y5643130D01*
X3686809Y5650242D01*
X3780790Y5760986D02*
G01*
X3760215Y5754128D01*
X3746245Y5733300D01*
X3739388Y5698756D01*
X3739388Y5677928D01*
X3746245Y5643130D01*
X3760215Y5622556D01*
X3780790Y5615444D01*
X3794759Y5615444D01*
X3815588Y5622556D01*
X3829304Y5643130D01*
X3836415Y5677928D01*
X3836415Y5698756D01*
X3829304Y5733300D01*
X3815588Y5754128D01*
X3794759Y5760986D01*
X3780790Y5760986D01*
X5252874Y1699889D02*
G01*
X5252874Y1783201D01*
X5691543Y3144641D02*
G01*
X5682145Y3140069D01*
X5673001Y3130671D01*
X5668429Y3121527D01*
X5668429Y3102985D01*
X5673001Y3093841D01*
X5682145Y3084443D01*
X5691543Y3079871D01*
X5705259Y3075299D01*
X5728373Y3075299D01*
X5742343Y3079871D01*
X5751487Y3084443D01*
X5760631Y3093841D01*
X5765457Y3102985D01*
X5765457Y3121527D01*
X5760631Y3130671D01*
X5751487Y3140069D01*
X5742343Y3144641D01*
X5728373Y3144641D01*
X5728373Y3121527D02*
G01*
X5728373Y3144641D01*
X5668429Y3175121D02*
G01*
X5765457Y3175121D01*
X5668429Y3175121D02*
G01*
X5765457Y3239637D01*
X5668429Y3239637D02*
G01*
X5765457Y3239637D01*
X5668429Y3270117D02*
G01*
X5765457Y3270117D01*
X5668429Y3270117D02*
G01*
X5668429Y3302629D01*
X5673001Y3316345D01*
X5682145Y3325489D01*
X5691543Y3330315D01*
X5705259Y3334887D01*
X5728373Y3334887D01*
X5742343Y3330315D01*
X5751487Y3325489D01*
X5760631Y3316345D01*
X5765457Y3302629D01*
X5765457Y3270117D01*
X5185069Y1466883D02*
G01*
X5268381Y1466883D01*
X5226725Y1425227D02*
G01*
X5226725Y1508539D01*
X5682145Y4366955D02*
G01*
X5765457Y4366955D01*
X5723801Y4325299D02*
G01*
X5723801Y4408357D01*
X5668429Y4494209D02*
G01*
X5668429Y4448235D01*
X5709831Y4443409D01*
X5705259Y4448235D01*
X5700687Y4461951D01*
X5700687Y4475921D01*
X5705259Y4489637D01*
X5714657Y4499035D01*
X5728373Y4503607D01*
X5737771Y4503607D01*
X5751487Y4499035D01*
X5760631Y4489637D01*
X5765457Y4475921D01*
X5765457Y4461951D01*
X5760631Y4448235D01*
X5756059Y4443409D01*
X5746915Y4438837D01*
X5668429Y4534087D02*
G01*
X5765457Y4570917D01*
X5668429Y4608001D02*
G01*
X5765457Y4570917D01*
D23*
X5658462Y3625225D02*
G01*
X5767428Y3625225D01*
X5767428Y3625225D02*
G01*
X5767428Y3687709D01*
X5658462Y3721999D02*
G01*
X5767428Y3721999D01*
X5658462Y3756289D02*
G01*
X5767428Y3756289D01*
X5658462Y3756289D02*
G01*
X5658462Y3792611D01*
X5663542Y3808105D01*
X5673956Y3818519D01*
X5684370Y3823853D01*
X5699864Y3828933D01*
X5726026Y3828933D01*
X5741520Y3823853D01*
X5751934Y3818519D01*
X5762348Y3808105D01*
X5767428Y3792611D01*
X5767428Y3756289D01*
X5658462Y3904879D02*
G01*
X5767428Y3863223D01*
X5658462Y3904879D02*
G01*
X5767428Y3946535D01*
X5731106Y3878971D02*
G01*
X5731106Y3930787D01*
X5658462Y3980825D02*
G01*
X5767428Y3980825D01*
X5658462Y3980825D02*
G01*
X5658462Y4027561D01*
X5663542Y4043055D01*
X5668876Y4048135D01*
X5679290Y4053469D01*
X5689450Y4053469D01*
X5699864Y4048135D01*
X5705198Y4043055D01*
X5710278Y4027561D01*
X5710278Y3980825D01*
X5710278Y4017147D02*
G01*
X5767428Y4053469D01*
X5634525Y1399854D02*
G01*
X5743745Y1399854D01*
X5634525Y1399854D02*
G01*
X5743745Y1441510D01*
X5634525Y1483166D02*
G01*
X5743745Y1441510D01*
X5634525Y1483166D02*
G01*
X5743745Y1483166D01*
X5634525Y1548444D02*
G01*
X5639859Y1538284D01*
X5650273Y1527870D01*
X5660687Y1522536D01*
X5676181Y1517456D01*
X5702089Y1517456D01*
X5717837Y1522536D01*
X5727997Y1527870D01*
X5738411Y1538284D01*
X5743745Y1548444D01*
X5743745Y1569272D01*
X5738411Y1579686D01*
X5727997Y1590100D01*
X5717837Y1595434D01*
X5702089Y1600514D01*
X5676181Y1600514D01*
X5660687Y1595434D01*
X5650273Y1590100D01*
X5639859Y1579686D01*
X5634525Y1569272D01*
X5634525Y1548444D01*
X5634525Y1671126D02*
G01*
X5743745Y1671126D01*
X5634525Y1634804D02*
G01*
X5634525Y1707448D01*
X5634525Y1772980D02*
G01*
X5639859Y1762566D01*
X5650273Y1752152D01*
X5660687Y1747072D01*
X5676181Y1741738D01*
X5702089Y1741738D01*
X5717837Y1747072D01*
X5727997Y1752152D01*
X5738411Y1762566D01*
X5743745Y1772980D01*
X5743745Y1793808D01*
X5738411Y1804222D01*
X5727997Y1814636D01*
X5717837Y1819716D01*
X5702089Y1825050D01*
X5676181Y1825050D01*
X5660687Y1819716D01*
X5650273Y1814636D01*
X5639859Y1804222D01*
X5634525Y1793808D01*
X5634525Y1772980D01*
X5634525Y1859340D02*
G01*
X5743745Y1859340D01*
X5634525Y1859340D02*
G01*
X5634525Y1906076D01*
X5639859Y1921570D01*
X5644939Y1926904D01*
X5655353Y1931984D01*
X5665767Y1931984D01*
X5676181Y1926904D01*
X5681261Y1921570D01*
X5686595Y1906076D01*
X5686595Y1859340D01*
X5686595Y1895662D02*
G01*
X5743745Y1931984D01*
X4310540Y4477880D02*
G01*
X4300126Y4472800D01*
X4289966Y4462386D01*
X4284632Y4451972D01*
X4284632Y4431144D01*
X4289966Y4420730D01*
X4300126Y4410316D01*
X4310540Y4405236D01*
X4326288Y4399902D01*
X4352196Y4399902D01*
X4367690Y4405236D01*
X4378104Y4410316D01*
X4388518Y4420730D01*
X4393852Y4431144D01*
X4393852Y4451972D01*
X4388518Y4462386D01*
X4378104Y4472800D01*
X4367690Y4477880D01*
X4305460Y4512170D02*
G01*
X4300126Y4522584D01*
X4284632Y4538078D01*
X4393852Y4538078D01*
X4284632Y4582782D02*
G01*
X4284632Y4639932D01*
X4326288Y4608944D01*
X4326288Y4624438D01*
X4331368Y4634852D01*
X4336702Y4639932D01*
X4352196Y4645266D01*
X4362610Y4645266D01*
X4378104Y4639932D01*
X4388518Y4629518D01*
X4393852Y4614024D01*
X4393852Y4598530D01*
X4388518Y4582782D01*
X4383438Y4577702D01*
X4373024Y4572368D01*
D24*
X4697600Y4248401D02*
G01*
X4780658Y4248401D01*
D23*
X4560709Y1577954D02*
G01*
X4550295Y1572620D01*
X4539881Y1562460D01*
X4534547Y1552046D01*
X4534547Y1531218D01*
X4539881Y1520804D01*
X4550295Y1510390D01*
X4560709Y1505310D01*
X4576203Y1499976D01*
X4602111Y1499976D01*
X4617859Y1505310D01*
X4628273Y1510390D01*
X4638687Y1520804D01*
X4643767Y1531218D01*
X4643767Y1552046D01*
X4638687Y1562460D01*
X4628273Y1572620D01*
X4617859Y1577954D01*
X4555375Y1612244D02*
G01*
X4550295Y1622658D01*
X4534547Y1638152D01*
X4643767Y1638152D01*
X4534547Y1724512D02*
G01*
X4607445Y1672442D01*
X4607445Y1750420D01*
X4534547Y1724512D02*
G01*
X4643767Y1724512D01*
X4584283Y3538999D02*
G01*
X4693249Y3538999D01*
X4584283Y3538999D02*
G01*
X4584283Y3585735D01*
X4589363Y3601229D01*
X4594697Y3606563D01*
X4605111Y3611643D01*
X4615525Y3611643D01*
X4625939Y3606563D01*
X4631019Y3601229D01*
X4636099Y3585735D01*
X4636099Y3538999D01*
X4636099Y3575321D02*
G01*
X4693249Y3611643D01*
X4584283Y3656347D02*
G01*
X4584283Y3713497D01*
X4625939Y3682509D01*
X4625939Y3698003D01*
X4631019Y3708417D01*
X4636099Y3713497D01*
X4651847Y3718831D01*
X4662261Y3718831D01*
X4677755Y3713497D01*
X4688169Y3703083D01*
X4693249Y3687589D01*
X4693249Y3672095D01*
X4688169Y3656347D01*
X4683089Y3651267D01*
X4672675Y3645933D01*
X4534684Y2400000D02*
G01*
X4643650Y2400000D01*
X4534684Y2400000D02*
G01*
X4534684Y2436322D01*
X4539764Y2452070D01*
X4550178Y2462230D01*
X4560592Y2467564D01*
X4576340Y2472644D01*
X4602248Y2472644D01*
X4617742Y2467564D01*
X4628156Y2462230D01*
X4638570Y2452070D01*
X4643650Y2436322D01*
X4643650Y2400000D01*
X4555512Y2506934D02*
G01*
X4550178Y2517348D01*
X4534684Y2533096D01*
X4643650Y2533096D01*
X4534573Y781118D02*
G01*
X4539907Y770704D01*
X4550321Y760290D01*
X4560735Y755210D01*
X4576229Y749876D01*
X4602137Y749876D01*
X4617885Y755210D01*
X4628299Y760290D01*
X4638459Y770704D01*
X4643793Y781118D01*
X4643793Y801946D01*
X4638459Y812360D01*
X4628299Y822774D01*
X4617885Y827854D01*
X4602137Y833188D01*
X4576229Y833188D01*
X4560735Y827854D01*
X4550321Y822774D01*
X4539907Y812360D01*
X4534573Y801946D01*
X4534573Y781118D01*
X4622965Y796866D02*
G01*
X4654207Y827854D01*
X4555401Y867478D02*
G01*
X4550321Y877892D01*
X4534573Y893386D01*
X4643793Y893386D01*
X2649844Y4315353D02*
G01*
X2649844Y4206387D01*
X2649844Y4315353D02*
G01*
X2717408Y4315353D01*
X2649844Y4263537D02*
G01*
X2691500Y4263537D01*
X2649844Y4206387D02*
G01*
X2717408Y4206387D01*
X2751698Y4315353D02*
G01*
X2751698Y4206387D01*
X2751698Y4315353D02*
G01*
X2824596Y4206387D01*
X2824596Y4315353D02*
G01*
X2824596Y4206387D01*
X2936864Y4289445D02*
G01*
X2931530Y4299859D01*
X2921116Y4310273D01*
X2910702Y4315353D01*
X2889874Y4315353D01*
X2879714Y4310273D01*
X2869300Y4299859D01*
X2863966Y4289445D01*
X2858886Y4273697D01*
X2858886Y4247789D01*
X2863966Y4232295D01*
X2869300Y4221881D01*
X2879714Y4211467D01*
X2889874Y4206387D01*
X2910702Y4206387D01*
X2921116Y4211467D01*
X2931530Y4221881D01*
X2936864Y4232295D01*
X3002142Y4315353D02*
G01*
X2991728Y4310273D01*
X2981314Y4299859D01*
X2976234Y4289445D01*
X2971154Y4273697D01*
X2971154Y4247789D01*
X2976234Y4232295D01*
X2981314Y4221881D01*
X2991728Y4211467D01*
X3002142Y4206387D01*
X3022970Y4206387D01*
X3033384Y4211467D01*
X3043798Y4221881D01*
X3048878Y4232295D01*
X3054212Y4247789D01*
X3054212Y4273697D01*
X3048878Y4289445D01*
X3043798Y4299859D01*
X3033384Y4310273D01*
X3022970Y4315353D01*
X3002142Y4315353D01*
X3088502Y4315353D02*
G01*
X3088502Y4206387D01*
X3088502Y4315353D02*
G01*
X3124824Y4315353D01*
X3140318Y4310273D01*
X3150732Y4299859D01*
X3156066Y4289445D01*
X3161146Y4273697D01*
X3161146Y4247789D01*
X3156066Y4232295D01*
X3150732Y4221881D01*
X3140318Y4211467D01*
X3124824Y4206387D01*
X3088502Y4206387D01*
X3195436Y4315353D02*
G01*
X3195436Y4206387D01*
X3195436Y4315353D02*
G01*
X3263000Y4315353D01*
X3195436Y4263537D02*
G01*
X3237092Y4263537D01*
X3195436Y4206387D02*
G01*
X3263000Y4206387D01*
X3297290Y4315353D02*
G01*
X3297290Y4206387D01*
X3297290Y4315353D02*
G01*
X3344026Y4315353D01*
X3359774Y4310273D01*
X3364854Y4304939D01*
X3369934Y4294525D01*
X3369934Y4284111D01*
X3364854Y4273697D01*
X3359774Y4268617D01*
X3344026Y4263537D01*
X3297290Y4263537D01*
X3333612Y4263537D02*
G01*
X3369934Y4206387D01*
D22*
X1938898Y3336437D02*
G01*
X1975220Y3240933D01*
X2011542Y3336437D02*
G01*
X1975220Y3240933D01*
X2109840Y3313831D02*
G01*
X2105268Y3322975D01*
X2096124Y3331865D01*
X2086980Y3336437D01*
X2068946Y3336437D01*
X2059802Y3331865D01*
X2050658Y3322975D01*
X2046086Y3313831D01*
X2041514Y3300115D01*
X2041514Y3277509D01*
X2046086Y3263793D01*
X2050658Y3254649D01*
X2059802Y3245505D01*
X2068946Y3240933D01*
X2086980Y3240933D01*
X2096124Y3245505D01*
X2105268Y3254649D01*
X2109840Y3263793D01*
X2207884Y3313831D02*
G01*
X2203566Y3322975D01*
X2194422Y3331865D01*
X2185278Y3336437D01*
X2166990Y3336437D01*
X2158100Y3331865D01*
X2148956Y3322975D01*
X2144384Y3313831D01*
X2139812Y3300115D01*
X2139812Y3277509D01*
X2144384Y3263793D01*
X2148956Y3254649D01*
X2158100Y3245505D01*
X2166990Y3240933D01*
X2185278Y3240933D01*
X2194422Y3245505D01*
X2203566Y3254649D01*
X2207884Y3263793D01*
X2032370Y2793131D02*
G01*
X2028052Y2802275D01*
X2018908Y2811165D01*
X2009764Y2815737D01*
X1991476Y2815737D01*
X1982586Y2811165D01*
X1973442Y2802275D01*
X1968870Y2793131D01*
X1964298Y2779415D01*
X1964298Y2756809D01*
X1968870Y2743093D01*
X1973442Y2733949D01*
X1982586Y2724805D01*
X1991476Y2720233D01*
X2009764Y2720233D01*
X2018908Y2724805D01*
X2028052Y2733949D01*
X2032370Y2743093D01*
X2032370Y2756809D01*
X2009764Y2756809D02*
G01*
X2032370Y2756809D01*
X2062596Y2815737D02*
G01*
X2062596Y2720233D01*
X2062596Y2815737D02*
G01*
X2126096Y2720233D01*
X2126096Y2815737D02*
G01*
X2126096Y2720233D01*
X2156068Y2815737D02*
G01*
X2156068Y2720233D01*
X2156068Y2815737D02*
G01*
X2187818Y2815737D01*
X2201534Y2811165D01*
X2210678Y2802275D01*
X2215250Y2793131D01*
X2219822Y2779415D01*
X2219822Y2756809D01*
X2215250Y2743093D01*
X2210678Y2733949D01*
X2201534Y2724805D01*
X2187818Y2720233D01*
X2156068Y2720233D01*
X3920352Y2967375D02*
G01*
X3911208Y2976265D01*
X3897492Y2980837D01*
X3879204Y2980837D01*
X3865742Y2976265D01*
X3856598Y2967375D01*
X3856598Y2958231D01*
X3861170Y2949087D01*
X3865742Y2944515D01*
X3874886Y2939943D01*
X3902064Y2930799D01*
X3911208Y2926481D01*
X3915780Y2921909D01*
X3920352Y2912765D01*
X3920352Y2899049D01*
X3911208Y2889905D01*
X3897492Y2885333D01*
X3879204Y2885333D01*
X3865742Y2889905D01*
X3856598Y2899049D01*
X3950324Y2980837D02*
G01*
X3950324Y2885333D01*
X3950324Y2980837D02*
G01*
X3982074Y2980837D01*
X3995790Y2976265D01*
X4004680Y2967375D01*
X4009252Y2958231D01*
X4013824Y2944515D01*
X4013824Y2921909D01*
X4009252Y2908193D01*
X4004680Y2899049D01*
X3995790Y2889905D01*
X3982074Y2885333D01*
X3950324Y2885333D01*
X4080118Y2980837D02*
G01*
X4043796Y2885333D01*
X4080118Y2980837D02*
G01*
X4116694Y2885333D01*
X4057512Y2917337D02*
G01*
X4102978Y2917337D01*
X3920352Y3234075D02*
G01*
X3911208Y3242965D01*
X3897492Y3247537D01*
X3879204Y3247537D01*
X3865742Y3242965D01*
X3856598Y3234075D01*
X3856598Y3224931D01*
X3861170Y3215787D01*
X3865742Y3211215D01*
X3874886Y3206643D01*
X3902064Y3197499D01*
X3911208Y3193181D01*
X3915780Y3188609D01*
X3920352Y3179465D01*
X3920352Y3165749D01*
X3911208Y3156605D01*
X3897492Y3152033D01*
X3879204Y3152033D01*
X3865742Y3156605D01*
X3856598Y3165749D01*
X4018396Y3224931D02*
G01*
X4013824Y3234075D01*
X4004680Y3242965D01*
X3995790Y3247537D01*
X3977502Y3247537D01*
X3968358Y3242965D01*
X3959214Y3234075D01*
X3954896Y3224931D01*
X3950324Y3211215D01*
X3950324Y3188609D01*
X3954896Y3174893D01*
X3959214Y3165749D01*
X3968358Y3156605D01*
X3977502Y3152033D01*
X3995790Y3152033D01*
X4004680Y3156605D01*
X4013824Y3165749D01*
X4018396Y3174893D01*
X4048368Y3247537D02*
G01*
X4048368Y3152033D01*
X4048368Y3152033D02*
G01*
X4102978Y3152033D01*
X1978776Y3069737D02*
G01*
X1969886Y3065165D01*
X1960742Y3056275D01*
X1956170Y3047131D01*
X1951598Y3033415D01*
X1951598Y3010809D01*
X1956170Y2997093D01*
X1960742Y2987949D01*
X1969886Y2978805D01*
X1978776Y2974233D01*
X1997064Y2974233D01*
X2006208Y2978805D01*
X2015352Y2987949D01*
X2019670Y2997093D01*
X2024242Y3010809D01*
X2024242Y3033415D01*
X2019670Y3047131D01*
X2015352Y3056275D01*
X2006208Y3065165D01*
X1997064Y3069737D01*
X1978776Y3069737D01*
X2054214Y3069737D02*
G01*
X2054214Y3001665D01*
X2058786Y2987949D01*
X2067930Y2978805D01*
X2081646Y2974233D01*
X2090790Y2974233D01*
X2104252Y2978805D01*
X2113396Y2987949D01*
X2117968Y3001665D01*
X2117968Y3069737D01*
X2179690Y3069737D02*
G01*
X2179690Y2974233D01*
X2147940Y3069737D02*
G01*
X2211694Y3069737D01*
X3924670Y2704231D02*
G01*
X3920352Y2713375D01*
X3911208Y2722265D01*
X3902064Y2726837D01*
X3883776Y2726837D01*
X3874886Y2722265D01*
X3865742Y2713375D01*
X3861170Y2704231D01*
X3856598Y2690515D01*
X3856598Y2667909D01*
X3861170Y2654193D01*
X3865742Y2645049D01*
X3874886Y2635905D01*
X3883776Y2631333D01*
X3902064Y2631333D01*
X3911208Y2635905D01*
X3920352Y2645049D01*
X3924670Y2654193D01*
X3924670Y2667909D01*
X3902064Y2667909D02*
G01*
X3924670Y2667909D01*
X3954896Y2726837D02*
G01*
X3954896Y2631333D01*
X3954896Y2726837D02*
G01*
X3995790Y2726837D01*
X4009252Y2722265D01*
X4013824Y2717693D01*
X4018396Y2708803D01*
X4018396Y2695087D01*
X4013824Y2685943D01*
X4009252Y2681371D01*
X3995790Y2676799D01*
X3954896Y2676799D01*
X4075800Y2726837D02*
G01*
X4062084Y2722265D01*
X4052940Y2708803D01*
X4048368Y2685943D01*
X4048368Y2672481D01*
X4052940Y2649621D01*
X4062084Y2635905D01*
X4075800Y2631333D01*
X4084690Y2631333D01*
X4098406Y2635905D01*
X4107550Y2649621D01*
X4112122Y2672481D01*
X4112122Y2685943D01*
X4107550Y2708803D01*
X4098406Y2722265D01*
X4084690Y2726837D01*
X4075800Y2726837D01*
X3856598Y3514237D02*
G01*
X3856598Y3418733D01*
X3856598Y3514237D02*
G01*
X3888348Y3514237D01*
X3902064Y3509665D01*
X3911208Y3500775D01*
X3915780Y3491631D01*
X3920352Y3477915D01*
X3920352Y3455309D01*
X3915780Y3441593D01*
X3911208Y3432449D01*
X3902064Y3423305D01*
X3888348Y3418733D01*
X3856598Y3418733D01*
X3950324Y3514237D02*
G01*
X3950324Y3418733D01*
X3980296Y3514237D02*
G01*
X3980296Y3418733D01*
X3980296Y3514237D02*
G01*
X4021190Y3514237D01*
X4034906Y3509665D01*
X4039224Y3505093D01*
X4043796Y3496203D01*
X4043796Y3487059D01*
X4039224Y3477915D01*
X4034906Y3473343D01*
X4021190Y3468771D01*
X3980296Y3468771D01*
X4012046Y3468771D02*
G01*
X4043796Y3418733D01*
D23*
X1300104Y5315323D02*
G01*
X1300104Y5206357D01*
X1300104Y5315323D02*
G01*
X1372748Y5206357D01*
X1372748Y5315323D02*
G01*
X1372748Y5206357D01*
X1448694Y5315323D02*
G01*
X1407038Y5206357D01*
X1448694Y5315323D02*
G01*
X1490096Y5206357D01*
X1422532Y5242679D02*
G01*
X1474602Y5242679D01*
X1524386Y5315323D02*
G01*
X1524386Y5206357D01*
X1524386Y5315323D02*
G01*
X1597284Y5206357D01*
X1597284Y5315323D02*
G01*
X1597284Y5206357D01*
X1662562Y5315323D02*
G01*
X1652148Y5310243D01*
X1641988Y5299829D01*
X1636654Y5289415D01*
X1631574Y5273667D01*
X1631574Y5247759D01*
X1636654Y5232265D01*
X1641988Y5221851D01*
X1652148Y5211437D01*
X1662562Y5206357D01*
X1683390Y5206357D01*
X1693804Y5211437D01*
X1704218Y5221851D01*
X1709298Y5232265D01*
X1714632Y5247759D01*
X1714632Y5273667D01*
X1709298Y5289415D01*
X1704218Y5299829D01*
X1693804Y5310243D01*
X1683390Y5315323D01*
X1662562Y5315323D01*
D22*
X190400Y4833371D02*
G01*
X190400Y4736343D01*
X190400Y4833371D02*
G01*
X222658Y4833371D01*
X236628Y4828799D01*
X245772Y4819655D01*
X250344Y4810257D01*
X255170Y4796541D01*
X255170Y4773427D01*
X250344Y4759457D01*
X245772Y4750313D01*
X236628Y4741169D01*
X222658Y4736343D01*
X190400Y4736343D01*
X285650Y4814829D02*
G01*
X294794Y4819655D01*
X308510Y4833371D01*
X308510Y4736343D01*
X422302Y4851913D02*
G01*
X338990Y4704085D01*
X485040Y4833371D02*
G01*
X485040Y4736343D01*
X452782Y4833371D02*
G01*
X517298Y4833371D01*
X547778Y4833371D02*
G01*
X612548Y4736343D01*
X612548Y4833371D02*
G01*
X547778Y4736343D01*
X1224942Y4556257D02*
G01*
X1220370Y4565655D01*
X1210972Y4574799D01*
X1201828Y4579371D01*
X1183286Y4579371D01*
X1174142Y4574799D01*
X1164744Y4565655D01*
X1160172Y4556257D01*
X1155600Y4542541D01*
X1155600Y4519427D01*
X1160172Y4505457D01*
X1164744Y4496313D01*
X1174142Y4487169D01*
X1183286Y4482343D01*
X1201828Y4482343D01*
X1210972Y4487169D01*
X1220370Y4496313D01*
X1224942Y4505457D01*
X1224942Y4519427D01*
X1201828Y4519427D02*
G01*
X1224942Y4519427D01*
X1255422Y4579371D02*
G01*
X1255422Y4482343D01*
X1255422Y4579371D02*
G01*
X1319938Y4482343D01*
X1319938Y4579371D02*
G01*
X1319938Y4482343D01*
X1350418Y4579371D02*
G01*
X1350418Y4482343D01*
X1350418Y4579371D02*
G01*
X1382930Y4579371D01*
X1396646Y4574799D01*
X1405790Y4565655D01*
X1410616Y4556257D01*
X1415188Y4542541D01*
X1415188Y4519427D01*
X1410616Y4505457D01*
X1405790Y4496313D01*
X1396646Y4487169D01*
X1382930Y4482343D01*
X1350418Y4482343D01*
X1197256Y4032255D02*
G01*
X1197256Y3948943D01*
X1155600Y3990599D02*
G01*
X1238658Y3990599D01*
X1324510Y4045971D02*
G01*
X1278536Y4045971D01*
X1273710Y4004569D01*
X1278536Y4009141D01*
X1292252Y4013713D01*
X1306222Y4013713D01*
X1319938Y4009141D01*
X1329336Y3999743D01*
X1333908Y3986027D01*
X1333908Y3976629D01*
X1329336Y3962913D01*
X1319938Y3953769D01*
X1306222Y3948943D01*
X1292252Y3948943D01*
X1278536Y3953769D01*
X1273710Y3958341D01*
X1269138Y3967485D01*
X1364388Y4045971D02*
G01*
X1401218Y3948943D01*
X1438302Y4045971D02*
G01*
X1401218Y3948943D01*
X215800Y1273815D02*
G01*
X215800Y1176787D01*
X215800Y1273815D02*
G01*
X248058Y1273815D01*
X262028Y1268989D01*
X271172Y1259845D01*
X275744Y1250701D01*
X280570Y1236731D01*
X280570Y1213617D01*
X275744Y1199901D01*
X271172Y1190503D01*
X262028Y1181359D01*
X248058Y1176787D01*
X215800Y1176787D01*
X311050Y1255273D02*
G01*
X320194Y1259845D01*
X333910Y1273815D01*
X333910Y1176787D01*
X369216Y1250701D02*
G01*
X369216Y1255273D01*
X373788Y1264417D01*
X378360Y1268989D01*
X387504Y1273815D01*
X406046Y1273815D01*
X415190Y1268989D01*
X420016Y1264417D01*
X424588Y1255273D01*
X424588Y1246129D01*
X420016Y1236731D01*
X410618Y1223015D01*
X364390Y1176787D01*
X429160Y1176787D01*
X1206400Y4833371D02*
G01*
X1243230Y4736343D01*
X1280314Y4833371D02*
G01*
X1243230Y4736343D01*
X1310794Y4833371D02*
G01*
X1310794Y4736343D01*
X1341274Y4833371D02*
G01*
X1341274Y4736343D01*
X1341274Y4833371D02*
G01*
X1405790Y4736343D01*
X1405790Y4833371D02*
G01*
X1405790Y4736343D01*
X1206400Y1273815D02*
G01*
X1206400Y1176787D01*
X1206400Y1273815D02*
G01*
X1238658Y1273815D01*
X1252628Y1268989D01*
X1261772Y1259845D01*
X1266344Y1250701D01*
X1271170Y1236731D01*
X1271170Y1213617D01*
X1266344Y1199901D01*
X1261772Y1190503D01*
X1252628Y1181359D01*
X1238658Y1176787D01*
X1206400Y1176787D01*
X1301650Y1255273D02*
G01*
X1310794Y1259845D01*
X1324510Y1273815D01*
X1324510Y1176787D01*
X1364388Y1273815D02*
G01*
X1415188Y1273815D01*
X1387502Y1236731D01*
X1401218Y1236731D01*
X1410616Y1232159D01*
X1415188Y1227587D01*
X1419760Y1213617D01*
X1419760Y1204473D01*
X1415188Y1190503D01*
X1405790Y1181359D01*
X1392074Y1176787D01*
X1378104Y1176787D01*
X1364388Y1181359D01*
X1359816Y1185931D01*
X1354990Y1195329D01*
X259742Y4048257D02*
G01*
X255170Y4057655D01*
X245772Y4066799D01*
X236628Y4071371D01*
X218086Y4071371D01*
X208942Y4066799D01*
X199544Y4057655D01*
X194972Y4048257D01*
X190400Y4034541D01*
X190400Y4011427D01*
X194972Y3997457D01*
X199544Y3988313D01*
X208942Y3979169D01*
X218086Y3974343D01*
X236628Y3974343D01*
X245772Y3979169D01*
X255170Y3988313D01*
X259742Y3997457D01*
X259742Y4011427D01*
X236628Y4011427D02*
G01*
X259742Y4011427D01*
X290222Y4071371D02*
G01*
X290222Y3974343D01*
X290222Y4071371D02*
G01*
X354738Y3974343D01*
X354738Y4071371D02*
G01*
X354738Y3974343D01*
X385218Y4071371D02*
G01*
X385218Y3974343D01*
X385218Y4071371D02*
G01*
X417730Y4071371D01*
X431446Y4066799D01*
X440590Y4057655D01*
X445416Y4048257D01*
X449988Y4034541D01*
X449988Y4011427D01*
X445416Y3997457D01*
X440590Y3988313D01*
X431446Y3979169D01*
X417730Y3974343D01*
X385218Y3974343D01*
X190400Y4553971D02*
G01*
X190400Y4456943D01*
X190400Y4553971D02*
G01*
X222658Y4553971D01*
X236628Y4549399D01*
X245772Y4540255D01*
X250344Y4530857D01*
X255170Y4517141D01*
X255170Y4494027D01*
X250344Y4480057D01*
X245772Y4470913D01*
X236628Y4461769D01*
X222658Y4456943D01*
X190400Y4456943D01*
X313336Y4553971D02*
G01*
X299366Y4549399D01*
X290222Y4535429D01*
X285650Y4512569D01*
X285650Y4498599D01*
X290222Y4475485D01*
X299366Y4461769D01*
X313336Y4456943D01*
X322480Y4456943D01*
X336450Y4461769D01*
X345594Y4475485D01*
X350166Y4498599D01*
X350166Y4512569D01*
X345594Y4535429D01*
X336450Y4549399D01*
X322480Y4553971D01*
X313336Y4553971D01*
X463704Y4572513D02*
G01*
X380646Y4424685D01*
X494184Y4553971D02*
G01*
X494184Y4456943D01*
X494184Y4553971D02*
G01*
X535840Y4553971D01*
X549810Y4549399D01*
X554382Y4544827D01*
X558954Y4535429D01*
X558954Y4526285D01*
X554382Y4517141D01*
X549810Y4512569D01*
X535840Y4507743D01*
X494184Y4507743D01*
X526696Y4507743D02*
G01*
X558954Y4456943D01*
X589434Y4553971D02*
G01*
X653950Y4456943D01*
X653950Y4553971D02*
G01*
X589434Y4456943D01*
X190400Y4325371D02*
G01*
X190400Y4228343D01*
X190400Y4325371D02*
G01*
X232056Y4325371D01*
X245772Y4320799D01*
X250344Y4316227D01*
X255170Y4306829D01*
X255170Y4297685D01*
X250344Y4288541D01*
X245772Y4283969D01*
X232056Y4279143D01*
X190400Y4279143D01*
X222658Y4279143D02*
G01*
X255170Y4228343D01*
X285650Y4325371D02*
G01*
X285650Y4228343D01*
X285650Y4325371D02*
G01*
X345594Y4325371D01*
X285650Y4279143D02*
G01*
X322480Y4279143D01*
X285650Y4228343D02*
G01*
X345594Y4228343D01*
X440590Y4311655D02*
G01*
X431446Y4320799D01*
X417730Y4325371D01*
X399188Y4325371D01*
X385218Y4320799D01*
X376074Y4311655D01*
X376074Y4302257D01*
X380646Y4293113D01*
X385218Y4288541D01*
X394616Y4283969D01*
X422302Y4274571D01*
X431446Y4269999D01*
X436018Y4265427D01*
X440590Y4256029D01*
X440590Y4242313D01*
X431446Y4233169D01*
X417730Y4228343D01*
X399188Y4228343D01*
X385218Y4233169D01*
X376074Y4242313D01*
X471070Y4325371D02*
G01*
X471070Y4228343D01*
X471070Y4325371D02*
G01*
X531268Y4325371D01*
X471070Y4279143D02*
G01*
X508154Y4279143D01*
X471070Y4228343D02*
G01*
X531268Y4228343D01*
X594006Y4325371D02*
G01*
X594006Y4228343D01*
X561748Y4325371D02*
G01*
X626264Y4325371D01*
X209450Y3817371D02*
G01*
X209450Y3720343D01*
X209450Y3817371D02*
G01*
X241708Y3817371D01*
X255678Y3812799D01*
X264822Y3803655D01*
X269394Y3794257D01*
X274220Y3780541D01*
X274220Y3757427D01*
X269394Y3743457D01*
X264822Y3734313D01*
X255678Y3725169D01*
X241708Y3720343D01*
X209450Y3720343D01*
X309272Y3794257D02*
G01*
X309272Y3798829D01*
X313844Y3808227D01*
X318416Y3812799D01*
X327560Y3817371D01*
X346102Y3817371D01*
X355500Y3812799D01*
X360072Y3808227D01*
X364644Y3798829D01*
X364644Y3789685D01*
X360072Y3780541D01*
X350674Y3766571D01*
X304700Y3720343D01*
X369216Y3720343D01*
X209450Y3563371D02*
G01*
X209450Y3466343D01*
X209450Y3563371D02*
G01*
X241708Y3563371D01*
X255678Y3558799D01*
X264822Y3549655D01*
X269394Y3540257D01*
X274220Y3526541D01*
X274220Y3503427D01*
X269394Y3489457D01*
X264822Y3480313D01*
X255678Y3471169D01*
X241708Y3466343D01*
X209450Y3466343D01*
X313844Y3563371D02*
G01*
X364644Y3563371D01*
X336958Y3526541D01*
X350674Y3526541D01*
X360072Y3521969D01*
X364644Y3517143D01*
X369216Y3503427D01*
X369216Y3494029D01*
X364644Y3480313D01*
X355500Y3471169D01*
X341530Y3466343D01*
X327560Y3466343D01*
X313844Y3471169D01*
X309272Y3475741D01*
X304700Y3484885D01*
X204878Y3309371D02*
G01*
X204878Y3212343D01*
X204878Y3309371D02*
G01*
X237136Y3309371D01*
X251106Y3304799D01*
X260250Y3295655D01*
X264822Y3286257D01*
X269648Y3272541D01*
X269648Y3249427D01*
X264822Y3235457D01*
X260250Y3226313D01*
X251106Y3217169D01*
X237136Y3212343D01*
X204878Y3212343D01*
X346102Y3309371D02*
G01*
X300128Y3244855D01*
X369216Y3244855D01*
X346102Y3309371D02*
G01*
X346102Y3212343D01*
X209450Y3080771D02*
G01*
X209450Y2983743D01*
X209450Y3080771D02*
G01*
X241708Y3080771D01*
X255678Y3076199D01*
X264822Y3067055D01*
X269394Y3057657D01*
X274220Y3043941D01*
X274220Y3020827D01*
X269394Y3006857D01*
X264822Y2997713D01*
X255678Y2988569D01*
X241708Y2983743D01*
X209450Y2983743D01*
X360072Y3080771D02*
G01*
X313844Y3080771D01*
X309272Y3039369D01*
X313844Y3043941D01*
X327560Y3048513D01*
X341530Y3048513D01*
X355500Y3043941D01*
X364644Y3034543D01*
X369216Y3020827D01*
X369216Y3011429D01*
X364644Y2997713D01*
X355500Y2988569D01*
X341530Y2983743D01*
X327560Y2983743D01*
X313844Y2988569D01*
X309272Y2993141D01*
X304700Y3002285D01*
X214022Y2826771D02*
G01*
X214022Y2729743D01*
X214022Y2826771D02*
G01*
X246280Y2826771D01*
X260250Y2822199D01*
X269394Y2813055D01*
X273966Y2803657D01*
X278792Y2789941D01*
X278792Y2766827D01*
X273966Y2752857D01*
X269394Y2743713D01*
X260250Y2734569D01*
X246280Y2729743D01*
X214022Y2729743D01*
X364644Y2813055D02*
G01*
X360072Y2822199D01*
X346102Y2826771D01*
X336958Y2826771D01*
X322988Y2822199D01*
X313844Y2808229D01*
X309272Y2785369D01*
X309272Y2762255D01*
X313844Y2743713D01*
X322988Y2734569D01*
X336958Y2729743D01*
X341530Y2729743D01*
X355246Y2734569D01*
X364644Y2743713D01*
X369216Y2757429D01*
X369216Y2762255D01*
X364644Y2775971D01*
X355246Y2785369D01*
X341530Y2789941D01*
X336958Y2789941D01*
X322988Y2785369D01*
X313844Y2775971D01*
X309272Y2762255D01*
X209450Y2547371D02*
G01*
X209450Y2450343D01*
X209450Y2547371D02*
G01*
X241708Y2547371D01*
X255678Y2542799D01*
X264822Y2533655D01*
X269394Y2524257D01*
X274220Y2510541D01*
X274220Y2487427D01*
X269394Y2473457D01*
X264822Y2464313D01*
X255678Y2455169D01*
X241708Y2450343D01*
X209450Y2450343D01*
X369216Y2547371D02*
G01*
X322988Y2450343D01*
X304700Y2547371D02*
G01*
X369216Y2547371D01*
X209450Y2318771D02*
G01*
X209450Y2221743D01*
X209450Y2318771D02*
G01*
X241708Y2318771D01*
X255678Y2314199D01*
X264822Y2305055D01*
X269394Y2295657D01*
X274220Y2281941D01*
X274220Y2258827D01*
X269394Y2244857D01*
X264822Y2235713D01*
X255678Y2226569D01*
X241708Y2221743D01*
X209450Y2221743D01*
X327560Y2318771D02*
G01*
X313844Y2314199D01*
X309272Y2305055D01*
X309272Y2295657D01*
X313844Y2286513D01*
X322988Y2281941D01*
X341530Y2277369D01*
X355500Y2272543D01*
X364644Y2263399D01*
X369216Y2254255D01*
X369216Y2240285D01*
X364644Y2231141D01*
X360072Y2226569D01*
X346102Y2221743D01*
X327560Y2221743D01*
X313844Y2226569D01*
X309272Y2231141D01*
X304700Y2240285D01*
X304700Y2254255D01*
X309272Y2263399D01*
X318416Y2272543D01*
X332386Y2277369D01*
X350674Y2281941D01*
X360072Y2286513D01*
X364644Y2295657D01*
X364644Y2305055D01*
X360072Y2314199D01*
X346102Y2318771D01*
X327560Y2318771D01*
X214022Y2064771D02*
G01*
X214022Y1967743D01*
X214022Y2064771D02*
G01*
X246280Y2064771D01*
X260250Y2060199D01*
X269394Y2051055D01*
X273966Y2041657D01*
X278792Y2027941D01*
X278792Y2004827D01*
X273966Y1990857D01*
X269394Y1981713D01*
X260250Y1972569D01*
X246280Y1967743D01*
X214022Y1967743D01*
X369216Y2032513D02*
G01*
X364644Y2018543D01*
X355246Y2009399D01*
X341530Y2004827D01*
X336958Y2004827D01*
X322988Y2009399D01*
X313844Y2018543D01*
X309272Y2032513D01*
X309272Y2037085D01*
X313844Y2051055D01*
X322988Y2060199D01*
X336958Y2064771D01*
X341530Y2064771D01*
X355246Y2060199D01*
X364644Y2051055D01*
X369216Y2032513D01*
X369216Y2009399D01*
X364644Y1986285D01*
X355246Y1972569D01*
X341530Y1967743D01*
X332132Y1967743D01*
X318416Y1972569D01*
X313844Y1981713D01*
X215800Y1785371D02*
G01*
X215800Y1688343D01*
X215800Y1785371D02*
G01*
X248058Y1785371D01*
X262028Y1780799D01*
X271172Y1771655D01*
X275744Y1762257D01*
X280570Y1748541D01*
X280570Y1725427D01*
X275744Y1711457D01*
X271172Y1702313D01*
X262028Y1693169D01*
X248058Y1688343D01*
X215800Y1688343D01*
X311050Y1766829D02*
G01*
X320194Y1771655D01*
X333910Y1785371D01*
X333910Y1688343D01*
X392330Y1785371D02*
G01*
X378360Y1780799D01*
X369216Y1766829D01*
X364390Y1743969D01*
X364390Y1729999D01*
X369216Y1706885D01*
X378360Y1693169D01*
X392330Y1688343D01*
X401474Y1688343D01*
X415190Y1693169D01*
X424588Y1706885D01*
X429160Y1729999D01*
X429160Y1743969D01*
X424588Y1766829D01*
X415190Y1780799D01*
X401474Y1785371D01*
X392330Y1785371D01*
X215800Y1527815D02*
G01*
X215800Y1430787D01*
X215800Y1527815D02*
G01*
X248058Y1527815D01*
X262028Y1522989D01*
X271172Y1513845D01*
X275744Y1504701D01*
X280570Y1490731D01*
X280570Y1467617D01*
X275744Y1453901D01*
X271172Y1444503D01*
X262028Y1435359D01*
X248058Y1430787D01*
X215800Y1430787D01*
X311050Y1509273D02*
G01*
X320194Y1513845D01*
X333910Y1527815D01*
X333910Y1430787D01*
X364390Y1509273D02*
G01*
X373788Y1513845D01*
X387504Y1527815D01*
X387504Y1430787D01*
X1164744Y1505971D02*
G01*
X1215544Y1505971D01*
X1187858Y1469141D01*
X1201828Y1469141D01*
X1210972Y1464569D01*
X1215544Y1459743D01*
X1220370Y1446027D01*
X1220370Y1436629D01*
X1215544Y1422913D01*
X1206400Y1413769D01*
X1192430Y1408943D01*
X1178714Y1408943D01*
X1164744Y1413769D01*
X1160172Y1418341D01*
X1155600Y1427485D01*
X1250850Y1505971D02*
G01*
X1287680Y1408943D01*
X1324510Y1505971D02*
G01*
X1287680Y1408943D01*
X1364388Y1505971D02*
G01*
X1415188Y1505971D01*
X1387502Y1469141D01*
X1401218Y1469141D01*
X1410616Y1464569D01*
X1415188Y1459743D01*
X1419760Y1446027D01*
X1419760Y1436629D01*
X1415188Y1422913D01*
X1405790Y1413769D01*
X1392074Y1408943D01*
X1378104Y1408943D01*
X1364388Y1413769D01*
X1359816Y1418341D01*
X1354990Y1427485D01*
X1116230Y1759971D02*
G01*
X1079400Y1662943D01*
X1116230Y1759971D02*
G01*
X1153314Y1662943D01*
X1093370Y1695455D02*
G01*
X1139344Y1695455D01*
X1183794Y1759971D02*
G01*
X1183794Y1662943D01*
X1183794Y1759971D02*
G01*
X1225450Y1759971D01*
X1239166Y1755399D01*
X1243738Y1750827D01*
X1248310Y1741429D01*
X1248310Y1732285D01*
X1243738Y1723141D01*
X1239166Y1718569D01*
X1225450Y1713743D01*
X1183794Y1713743D01*
X1216052Y1713743D02*
G01*
X1248310Y1662943D01*
X1278790Y1759971D02*
G01*
X1278790Y1662943D01*
X1278790Y1759971D02*
G01*
X1338988Y1759971D01*
X1278790Y1713743D02*
G01*
X1315874Y1713743D01*
X1278790Y1662943D02*
G01*
X1338988Y1662943D01*
X1369468Y1759971D02*
G01*
X1369468Y1662943D01*
X1369468Y1759971D02*
G01*
X1429412Y1759971D01*
X1369468Y1713743D02*
G01*
X1406298Y1713743D01*
X1294030Y2013971D02*
G01*
X1257200Y1916943D01*
X1294030Y2013971D02*
G01*
X1331114Y1916943D01*
X1271170Y1949455D02*
G01*
X1317144Y1949455D01*
X1389280Y2013971D02*
G01*
X1375310Y2009399D01*
X1366166Y1995429D01*
X1361594Y1972569D01*
X1361594Y1958599D01*
X1366166Y1935485D01*
X1375310Y1921769D01*
X1389280Y1916943D01*
X1398424Y1916943D01*
X1412394Y1921769D01*
X1421538Y1935485D01*
X1426110Y1958599D01*
X1426110Y1972569D01*
X1421538Y1995429D01*
X1412394Y2009399D01*
X1398424Y2013971D01*
X1389280Y2013971D01*
X1294030Y2293371D02*
G01*
X1257200Y2196343D01*
X1294030Y2293371D02*
G01*
X1331114Y2196343D01*
X1271170Y2228855D02*
G01*
X1317144Y2228855D01*
X1361594Y2274829D02*
G01*
X1370738Y2279655D01*
X1384708Y2293371D01*
X1384708Y2196343D01*
X1294030Y2521971D02*
G01*
X1257200Y2424943D01*
X1294030Y2521971D02*
G01*
X1331114Y2424943D01*
X1271170Y2457455D02*
G01*
X1317144Y2457455D01*
X1366166Y2498857D02*
G01*
X1366166Y2503429D01*
X1370738Y2512827D01*
X1375310Y2517399D01*
X1384708Y2521971D01*
X1403250Y2521971D01*
X1412394Y2517399D01*
X1416966Y2512827D01*
X1421538Y2503429D01*
X1421538Y2494285D01*
X1416966Y2485141D01*
X1407822Y2471171D01*
X1361594Y2424943D01*
X1426110Y2424943D01*
X1294030Y2801371D02*
G01*
X1257200Y2704343D01*
X1294030Y2801371D02*
G01*
X1331114Y2704343D01*
X1271170Y2736855D02*
G01*
X1317144Y2736855D01*
X1370738Y2801371D02*
G01*
X1421538Y2801371D01*
X1393852Y2764541D01*
X1407822Y2764541D01*
X1416966Y2759969D01*
X1421538Y2755143D01*
X1426110Y2741427D01*
X1426110Y2732029D01*
X1421538Y2718313D01*
X1412394Y2709169D01*
X1398424Y2704343D01*
X1384708Y2704343D01*
X1370738Y2709169D01*
X1366166Y2713741D01*
X1361594Y2722885D01*
X1294030Y3055371D02*
G01*
X1257200Y2958343D01*
X1294030Y3055371D02*
G01*
X1331114Y2958343D01*
X1271170Y2990855D02*
G01*
X1317144Y2990855D01*
X1407822Y3055371D02*
G01*
X1361594Y2990855D01*
X1430936Y2990855D01*
X1407822Y3055371D02*
G01*
X1407822Y2958343D01*
X1294030Y3309371D02*
G01*
X1257200Y3212343D01*
X1294030Y3309371D02*
G01*
X1331114Y3212343D01*
X1271170Y3244855D02*
G01*
X1317144Y3244855D01*
X1416966Y3309371D02*
G01*
X1370738Y3309371D01*
X1366166Y3267969D01*
X1370738Y3272541D01*
X1384708Y3277113D01*
X1398424Y3277113D01*
X1412394Y3272541D01*
X1421538Y3263143D01*
X1426110Y3249427D01*
X1426110Y3240029D01*
X1421538Y3226313D01*
X1412394Y3217169D01*
X1398424Y3212343D01*
X1384708Y3212343D01*
X1370738Y3217169D01*
X1366166Y3221741D01*
X1361594Y3230885D01*
X1294030Y3537971D02*
G01*
X1257200Y3440943D01*
X1294030Y3537971D02*
G01*
X1331114Y3440943D01*
X1271170Y3473455D02*
G01*
X1317144Y3473455D01*
X1416966Y3524255D02*
G01*
X1412394Y3533399D01*
X1398424Y3537971D01*
X1389280Y3537971D01*
X1375310Y3533399D01*
X1366166Y3519429D01*
X1361594Y3496569D01*
X1361594Y3473455D01*
X1366166Y3454913D01*
X1375310Y3445769D01*
X1389280Y3440943D01*
X1393852Y3440943D01*
X1407822Y3445769D01*
X1416966Y3454913D01*
X1421538Y3468629D01*
X1421538Y3473455D01*
X1416966Y3487171D01*
X1407822Y3496569D01*
X1393852Y3501141D01*
X1389280Y3501141D01*
X1375310Y3496569D01*
X1366166Y3487171D01*
X1361594Y3473455D01*
X1294030Y3817371D02*
G01*
X1257200Y3720343D01*
X1294030Y3817371D02*
G01*
X1331114Y3720343D01*
X1271170Y3752855D02*
G01*
X1317144Y3752855D01*
X1426110Y3817371D02*
G01*
X1380136Y3720343D01*
X1361594Y3817371D02*
G01*
X1426110Y3817371D01*
X1003200Y4325371D02*
G01*
X1003200Y4228343D01*
X1003200Y4325371D02*
G01*
X1044856Y4325371D01*
X1058572Y4320799D01*
X1063144Y4316227D01*
X1067970Y4306829D01*
X1067970Y4297685D01*
X1063144Y4288541D01*
X1058572Y4283969D01*
X1044856Y4279143D01*
X1003200Y4279143D01*
X1035458Y4279143D02*
G01*
X1067970Y4228343D01*
X1098450Y4325371D02*
G01*
X1098450Y4228343D01*
X1098450Y4325371D02*
G01*
X1158394Y4325371D01*
X1098450Y4279143D02*
G01*
X1135280Y4279143D01*
X1098450Y4228343D02*
G01*
X1158394Y4228343D01*
X1253390Y4311655D02*
G01*
X1244246Y4320799D01*
X1230530Y4325371D01*
X1211988Y4325371D01*
X1198018Y4320799D01*
X1188874Y4311655D01*
X1188874Y4302257D01*
X1193446Y4293113D01*
X1198018Y4288541D01*
X1207416Y4283969D01*
X1235102Y4274571D01*
X1244246Y4269999D01*
X1248818Y4265427D01*
X1253390Y4256029D01*
X1253390Y4242313D01*
X1244246Y4233169D01*
X1230530Y4228343D01*
X1211988Y4228343D01*
X1198018Y4233169D01*
X1188874Y4242313D01*
X1283870Y4325371D02*
G01*
X1283870Y4228343D01*
X1283870Y4325371D02*
G01*
X1344068Y4325371D01*
X1283870Y4279143D02*
G01*
X1320954Y4279143D01*
X1283870Y4228343D02*
G01*
X1344068Y4228343D01*
X1406806Y4325371D02*
G01*
X1406806Y4228343D01*
X1374548Y4325371D02*
G01*
X1439064Y4325371D01*
G36*
X4621377Y4172204D02*
G01*
X4773777Y4096004D01*
X4926177Y4096004D01*
X5078577Y4172204D01*
G37*
D19*
X5323077Y3090176D02*
G01*
X5577077Y3090176D01*
X5323077Y4614176D02*
G01*
X5577077Y4614176D01*
X5577077Y4614176D02*
G01*
X5577077Y3090176D01*
X5323077Y4614176D02*
G01*
X5323077Y3090176D01*
X5323077Y1372882D02*
G01*
X5323077Y1880882D01*
X5577077Y1372882D02*
G01*
X5323077Y1372882D01*
X5577077Y1372882D02*
G01*
X5577077Y1880882D01*
X5577077Y1880882D02*
G01*
X5323077Y1880882D01*
D10*
X4786375Y1282458D02*
G01*
X4735575Y1282458D01*
X4735575Y1917458D01*
X4786375Y1917458D01*
X4926075Y1917458D02*
G01*
X4964175Y1917458D01*
X4964175Y1282458D01*
X4926075Y1282458D01*
D20*
X4737674Y3259574D02*
G01*
X4737674Y3831074D01*
X4966274Y3831074D01*
X4966274Y3259574D01*
X4737674Y3259574D01*
X4851974Y3259574D02*
G01*
X4851974Y3221474D01*
X4851974Y3869174D02*
G01*
X4851974Y3831074D01*
D21*
X4964998Y2699999D02*
G01*
X4964300Y2295999D01*
X4735700Y2295999D01*
X4735700Y2702399D01*
X4964300Y2702399D01*
X4964998Y2699999D01*
X4964300Y2359499D02*
G01*
X4735700Y2359499D01*
D10*
X4849972Y2295999D02*
G01*
X4849972Y2231362D01*
X4849784Y2702399D02*
G01*
X4849784Y2756634D01*
X4944996Y2344996D02*
G01*
X4944996Y2309995D01*
X4760008Y2309995D01*
X4760008Y2344996D01*
X4944996Y2344996D01*
X4930010Y2339992D02*
G01*
X4930010Y2329985D01*
X4750000Y2329985D01*
X4750000Y2339992D01*
X4930010Y2339992D01*
X4755004Y2314999D02*
G01*
X4755004Y2309995D01*
X4744996Y2309995D01*
X4744996Y2314999D01*
X4755004Y2314999D01*
X4715126Y992532D02*
G01*
X4715126Y608484D01*
X1849998Y4149999D02*
G01*
X4149994Y4149999D01*
X4149994Y1850003D01*
X1849998Y1850003D01*
X1849998Y4149999D01*
X-88999Y840999D02*
G01*
X1689000Y840999D01*
X1689000Y840999D02*
G01*
X1689000Y5158999D01*
X1689000Y5158999D02*
G01*
X-88999Y5158999D01*
X-88999Y5158999D02*
G01*
X-88999Y840999D01*
G75*
G01*
X4716142Y607469D02*
G03*
X4716142Y993549I167804J193040D01*
G75*
G01
X5231003Y4477004D02*
G03X5231003Y4477004I-381000J0D01*
G75*
G01
X3085211Y2999969D02*
G03X3085211Y2999969I-85192J0D01*
M02*
