G04 Layer: TopLayer*
G04 EasyEDA v6.4.17, 2021-03-17T11:39:49--3:00*
G04 0ec266cd3479489882c0241a24e145c1,59636247558045d2802cba280e4ac9d9,10*
G04 Gerber Generator version 0.2*
G04 Scale: 100 percent, Rotated: No, Reflected: No *
G04 Dimensions in inches *
G04 leading zeros omitted , absolute positions ,3 integer and 6 decimal *
%FSLAX36Y36*%
%MOIN*%

%ADD10C,0.0300*%
%ADD11C,0.0400*%
%ADD12C,0.0600*%
%ADD13C,0.0787*%
%ADD14C,0.1181*%
%ADD15C,0.0740*%
%ADD16R,0.0740X0.0740*%
%ADD17C,0.0620*%
%ADD18R,0.0620X0.0620*%
%ADD19R,0.0709X0.0709*%
%ADD20C,0.0709*%
%ADD21C,0.0557*%
%ADD23C,0.0800*%
%ADD24R,0.0945X0.0945*%
%ADD25C,0.0945*%

%LPD*%
G36*
X6649800Y-2859920D02*
G01*
X3815840Y-2859800D01*
X3814300Y-2859500D01*
X3813020Y-2858639D01*
X3157240Y-2202880D01*
X3156120Y-2201900D01*
X3153600Y-2200520D01*
X3151500Y-2199940D01*
X3149840Y-2199800D01*
X150200Y-2199900D01*
X137680Y-2199540D01*
X125520Y-2198460D01*
X113440Y-2196680D01*
X101480Y-2194200D01*
X89700Y-2191040D01*
X78100Y-2187200D01*
X66760Y-2182680D01*
X55700Y-2177520D01*
X44960Y-2171720D01*
X34560Y-2165300D01*
X24560Y-2158300D01*
X15000Y-2150720D01*
X5880Y-2142600D01*
X-2760Y-2133960D01*
X-10860Y-2124820D01*
X-18420Y-2115240D01*
X-25419Y-2105240D01*
X-31840Y-2094840D01*
X-37620Y-2084100D01*
X-42779Y-2073020D01*
X-47280Y-2061680D01*
X-51100Y-2050080D01*
X-54260Y-2038300D01*
X-56720Y-2026339D01*
X-58480Y-2014259D01*
X-59540Y-2002080D01*
X-59900Y-1989820D01*
X-44900Y-15320D01*
X-45199Y-12780D01*
X-46000Y-10620D01*
X-47380Y-8580D01*
X-48160Y-7760D01*
X-49040Y-6320D01*
X-49260Y-4640D01*
X-48460Y4400D01*
X-46680Y16460D01*
X-44200Y28420D01*
X-41040Y40220D01*
X-37200Y51800D01*
X-32679Y63140D01*
X-27519Y74220D01*
X-21720Y84960D01*
X-15300Y95340D01*
X-8300Y105340D01*
X-720Y114920D01*
X7400Y124019D01*
X16040Y132660D01*
X25179Y140760D01*
X34760Y148340D01*
X44760Y155340D01*
X55160Y161740D01*
X65900Y167520D01*
X76980Y172680D01*
X88320Y177180D01*
X99920Y181020D01*
X111700Y184160D01*
X123660Y186640D01*
X135740Y188400D01*
X147920Y189460D01*
X160200Y189800D01*
X3159840Y189899D01*
X3161320Y190020D01*
X3164080Y190820D01*
X3166000Y191880D01*
X3167240Y192960D01*
X3823020Y848720D01*
X3824300Y849599D01*
X3825840Y849900D01*
X6649800Y849900D01*
X6662320Y849539D01*
X6674480Y848460D01*
X6686559Y846680D01*
X6698520Y844200D01*
X6710300Y841040D01*
X6721900Y837200D01*
X6733240Y832680D01*
X6744299Y827520D01*
X6755040Y821720D01*
X6765440Y815300D01*
X6775440Y808300D01*
X6785000Y800720D01*
X6794120Y792600D01*
X6802760Y783960D01*
X6810860Y774820D01*
X6818420Y765240D01*
X6825420Y755240D01*
X6831840Y744840D01*
X6837619Y734100D01*
X6842780Y723020D01*
X6847279Y711680D01*
X6851100Y700080D01*
X6854260Y688300D01*
X6856720Y676340D01*
X6858480Y664260D01*
X6859539Y652080D01*
X6859900Y639800D01*
X6859900Y-2649820D01*
X6859539Y-2662340D01*
X6858460Y-2674500D01*
X6856680Y-2686580D01*
X6854200Y-2698540D01*
X6851040Y-2710340D01*
X6847200Y-2721920D01*
X6842680Y-2733260D01*
X6837519Y-2744320D01*
X6831720Y-2755080D01*
X6825300Y-2765460D01*
X6818300Y-2775460D01*
X6810720Y-2785020D01*
X6802600Y-2794140D01*
X6793960Y-2802780D01*
X6784820Y-2810880D01*
X6775240Y-2818460D01*
X6765240Y-2825440D01*
X6754840Y-2831860D01*
X6744100Y-2837640D01*
X6733020Y-2842799D01*
X6721680Y-2847300D01*
X6710080Y-2851139D01*
X6698300Y-2854280D01*
X6686340Y-2856740D01*
X6674260Y-2858500D01*
X6662080Y-2859560D01*
G37*

%LPC*%
G36*
X4832700Y-2801019D02*
G01*
X4840320Y-2800460D01*
X4847860Y-2799180D01*
X4855240Y-2797160D01*
X4862400Y-2794460D01*
X4869260Y-2791060D01*
X4875760Y-2787020D01*
X4881820Y-2782380D01*
X4887420Y-2777180D01*
X4892500Y-2771460D01*
X4897000Y-2765260D01*
X4900880Y-2758680D01*
X4904100Y-2751740D01*
X4906640Y-2744520D01*
X4908460Y-2737100D01*
X4909560Y-2729520D01*
X4909940Y-2721900D01*
X4909560Y-2714260D01*
X4908460Y-2706680D01*
X4906640Y-2699260D01*
X4904100Y-2692040D01*
X4900880Y-2685100D01*
X4897000Y-2678519D01*
X4892500Y-2672320D01*
X4887420Y-2666600D01*
X4881820Y-2661400D01*
X4875760Y-2656760D01*
X4869260Y-2652720D01*
X4862400Y-2649320D01*
X4855240Y-2646620D01*
X4847860Y-2644600D01*
X4840320Y-2643320D01*
X4832700Y-2642760D01*
X4825060Y-2642940D01*
X4817460Y-2643860D01*
X4810000Y-2645520D01*
X4802720Y-2647880D01*
X4795700Y-2650940D01*
X4789020Y-2654660D01*
X4782740Y-2659000D01*
X4776880Y-2663940D01*
X4771540Y-2669400D01*
X4766760Y-2675360D01*
X4762560Y-2681760D01*
X4759000Y-2688540D01*
X4756120Y-2695620D01*
X4753940Y-2702940D01*
X4752460Y-2710460D01*
X4751740Y-2718060D01*
X4751740Y-2725720D01*
X4752460Y-2733320D01*
X4753940Y-2740840D01*
X4756120Y-2748159D01*
X4759000Y-2755240D01*
X4762560Y-2762020D01*
X4766760Y-2768420D01*
X4771540Y-2774380D01*
X4776880Y-2779840D01*
X4782740Y-2784780D01*
X4789020Y-2789120D01*
X4795700Y-2792840D01*
X4802720Y-2795899D01*
X4810000Y-2798260D01*
X4817460Y-2799920D01*
X4825060Y-2800840D01*
G37*
G36*
X5032700Y-2801019D02*
G01*
X5040320Y-2800460D01*
X5047860Y-2799180D01*
X5055240Y-2797160D01*
X5062400Y-2794460D01*
X5069260Y-2791060D01*
X5075760Y-2787020D01*
X5081820Y-2782380D01*
X5087420Y-2777180D01*
X5092500Y-2771460D01*
X5097000Y-2765260D01*
X5100880Y-2758680D01*
X5104100Y-2751740D01*
X5106640Y-2744520D01*
X5108460Y-2737100D01*
X5109560Y-2729520D01*
X5109940Y-2721900D01*
X5109560Y-2714260D01*
X5108460Y-2706680D01*
X5106640Y-2699260D01*
X5104100Y-2692040D01*
X5100880Y-2685100D01*
X5097000Y-2678519D01*
X5092500Y-2672320D01*
X5087420Y-2666600D01*
X5081820Y-2661400D01*
X5075760Y-2656760D01*
X5069260Y-2652720D01*
X5062400Y-2649320D01*
X5055240Y-2646620D01*
X5047860Y-2644600D01*
X5040320Y-2643320D01*
X5032700Y-2642760D01*
X5025060Y-2642940D01*
X5017460Y-2643860D01*
X5010000Y-2645520D01*
X5002720Y-2647880D01*
X4995700Y-2650940D01*
X4989020Y-2654660D01*
X4982740Y-2659000D01*
X4976880Y-2663940D01*
X4971540Y-2669400D01*
X4966760Y-2675360D01*
X4962560Y-2681760D01*
X4959000Y-2688540D01*
X4956120Y-2695620D01*
X4953940Y-2702940D01*
X4952460Y-2710460D01*
X4951740Y-2718060D01*
X4951740Y-2725720D01*
X4952460Y-2733320D01*
X4953940Y-2740840D01*
X4956120Y-2748159D01*
X4959000Y-2755240D01*
X4962560Y-2762020D01*
X4966760Y-2768420D01*
X4971540Y-2774380D01*
X4976880Y-2779840D01*
X4982740Y-2784780D01*
X4989020Y-2789120D01*
X4995700Y-2792840D01*
X5002720Y-2795899D01*
X5010000Y-2798260D01*
X5017460Y-2799920D01*
X5025060Y-2800840D01*
G37*
G36*
X5840180Y-2680100D02*
G01*
X5919820Y-2680100D01*
X5923480Y-2679780D01*
X5926860Y-2678880D01*
X5930040Y-2677400D01*
X5932920Y-2675380D01*
X5935380Y-2672919D01*
X5937400Y-2670040D01*
X5938540Y-2668200D01*
X5939760Y-2667400D01*
X5941160Y-2667060D01*
X5942600Y-2667280D01*
X5949960Y-2672040D01*
X5955860Y-2675040D01*
X5962060Y-2677360D01*
X5968480Y-2678980D01*
X5975040Y-2679880D01*
X5981660Y-2680080D01*
X5988260Y-2679520D01*
X5994760Y-2678260D01*
X6001079Y-2676280D01*
X6007140Y-2673620D01*
X6012859Y-2670299D01*
X6018200Y-2666380D01*
X6023080Y-2661900D01*
X6027420Y-2656920D01*
X6031200Y-2651460D01*
X6034340Y-2645640D01*
X6036840Y-2639520D01*
X6038640Y-2633140D01*
X6039720Y-2626620D01*
X6040100Y-2620000D01*
X6039720Y-2613380D01*
X6038640Y-2606860D01*
X6036840Y-2600480D01*
X6034340Y-2594360D01*
X6031200Y-2588540D01*
X6027420Y-2583080D01*
X6023080Y-2578100D01*
X6018200Y-2573620D01*
X6012859Y-2569700D01*
X6007140Y-2566380D01*
X6001079Y-2563720D01*
X5994760Y-2561740D01*
X5988260Y-2560480D01*
X5981660Y-2559920D01*
X5975040Y-2560120D01*
X5968480Y-2561019D01*
X5962060Y-2562640D01*
X5955860Y-2564960D01*
X5949960Y-2567960D01*
X5942600Y-2572720D01*
X5941160Y-2572940D01*
X5939760Y-2572600D01*
X5938540Y-2571800D01*
X5937400Y-2569960D01*
X5935380Y-2567080D01*
X5932920Y-2564620D01*
X5930040Y-2562600D01*
X5926860Y-2561120D01*
X5923480Y-2560220D01*
X5919820Y-2559900D01*
X5919100Y-2559900D01*
X5917560Y-2559600D01*
X5916280Y-2558720D01*
X5915400Y-2557440D01*
X5915100Y-2555900D01*
X5915100Y-2414080D01*
X5915380Y-2412640D01*
X5916140Y-2411380D01*
X5917360Y-2410060D01*
X5920760Y-2405240D01*
X5923560Y-2400040D01*
X5925680Y-2394540D01*
X5927120Y-2388800D01*
X5927859Y-2382960D01*
X5927859Y-2377040D01*
X5927120Y-2371200D01*
X5925680Y-2365460D01*
X5923560Y-2359960D01*
X5920760Y-2354760D01*
X5917360Y-2349940D01*
X5916140Y-2348620D01*
X5915380Y-2347360D01*
X5915100Y-2345920D01*
X5915100Y-2164400D01*
X5915400Y-2162860D01*
X5916280Y-2161560D01*
X5917560Y-2160700D01*
X5919100Y-2160400D01*
X5920640Y-2160700D01*
X5921920Y-2161560D01*
X6185140Y-2424760D01*
X6187020Y-2426520D01*
X6188960Y-2428100D01*
X6191020Y-2429520D01*
X6193180Y-2430800D01*
X6195420Y-2431920D01*
X6197740Y-2432880D01*
X6200119Y-2433680D01*
X6202540Y-2434300D01*
X6205000Y-2434740D01*
X6207500Y-2435000D01*
X6210080Y-2435100D01*
X6440900Y-2435100D01*
X6442440Y-2435400D01*
X6443720Y-2436280D01*
X6444600Y-2437560D01*
X6444900Y-2439100D01*
X6444900Y-2555900D01*
X6444600Y-2557440D01*
X6443720Y-2558720D01*
X6442440Y-2559600D01*
X6440900Y-2559900D01*
X6440180Y-2559900D01*
X6436520Y-2560220D01*
X6433140Y-2561120D01*
X6429960Y-2562600D01*
X6427080Y-2564620D01*
X6424620Y-2567080D01*
X6422600Y-2569960D01*
X6421120Y-2573140D01*
X6420220Y-2576520D01*
X6419900Y-2580179D01*
X6419900Y-2659820D01*
X6420220Y-2663480D01*
X6421120Y-2666860D01*
X6422600Y-2670040D01*
X6424620Y-2672919D01*
X6427080Y-2675380D01*
X6429960Y-2677400D01*
X6433140Y-2678880D01*
X6436520Y-2679780D01*
X6440180Y-2680100D01*
X6519820Y-2680100D01*
X6523480Y-2679780D01*
X6526860Y-2678880D01*
X6530040Y-2677400D01*
X6532920Y-2675380D01*
X6535380Y-2672919D01*
X6537400Y-2670040D01*
X6538540Y-2668200D01*
X6539760Y-2667400D01*
X6541160Y-2667060D01*
X6542600Y-2667280D01*
X6549960Y-2672040D01*
X6555860Y-2675040D01*
X6562060Y-2677360D01*
X6568480Y-2678980D01*
X6575040Y-2679880D01*
X6581660Y-2680080D01*
X6588260Y-2679520D01*
X6594760Y-2678260D01*
X6601079Y-2676280D01*
X6607140Y-2673620D01*
X6612859Y-2670299D01*
X6618200Y-2666380D01*
X6623080Y-2661900D01*
X6627420Y-2656920D01*
X6631200Y-2651460D01*
X6634340Y-2645640D01*
X6636840Y-2639520D01*
X6638640Y-2633140D01*
X6639720Y-2626620D01*
X6640100Y-2620000D01*
X6639720Y-2613380D01*
X6638640Y-2606860D01*
X6636840Y-2600480D01*
X6634340Y-2594360D01*
X6631200Y-2588540D01*
X6627420Y-2583080D01*
X6623080Y-2578100D01*
X6618200Y-2573620D01*
X6612859Y-2569700D01*
X6607140Y-2566380D01*
X6601079Y-2563720D01*
X6594760Y-2561740D01*
X6588260Y-2560480D01*
X6581660Y-2559920D01*
X6575040Y-2560120D01*
X6568480Y-2561019D01*
X6562060Y-2562640D01*
X6555860Y-2564960D01*
X6549960Y-2567960D01*
X6542600Y-2572720D01*
X6541160Y-2572940D01*
X6539760Y-2572600D01*
X6538540Y-2571800D01*
X6537400Y-2569960D01*
X6535380Y-2567080D01*
X6532920Y-2564620D01*
X6530040Y-2562600D01*
X6526860Y-2561120D01*
X6523480Y-2560220D01*
X6519820Y-2559900D01*
X6519100Y-2559900D01*
X6517560Y-2559600D01*
X6516280Y-2558720D01*
X6515400Y-2557440D01*
X6515100Y-2555900D01*
X6515100Y-2434080D01*
X6515380Y-2432640D01*
X6516140Y-2431380D01*
X6517360Y-2430060D01*
X6520760Y-2425240D01*
X6523560Y-2420040D01*
X6525680Y-2414540D01*
X6527120Y-2408800D01*
X6527859Y-2402960D01*
X6527859Y-2397040D01*
X6527120Y-2391200D01*
X6525680Y-2385460D01*
X6523560Y-2379960D01*
X6520760Y-2374760D01*
X6517360Y-2369940D01*
X6513380Y-2365580D01*
X6508900Y-2361740D01*
X6503980Y-2358480D01*
X6498680Y-2355840D01*
X6493120Y-2353880D01*
X6487360Y-2352620D01*
X6481480Y-2352080D01*
X6475580Y-2352260D01*
X6469740Y-2353160D01*
X6464059Y-2354780D01*
X6458640Y-2357080D01*
X6453520Y-2360040D01*
X6448620Y-2363780D01*
X6447340Y-2364600D01*
X6445839Y-2364900D01*
X6226200Y-2364900D01*
X6224660Y-2364600D01*
X6223360Y-2363720D01*
X5936280Y-2076639D01*
X5935400Y-2075340D01*
X5935100Y-2073800D01*
X5935100Y-2067900D01*
X5935420Y-2066339D01*
X5936319Y-2065020D01*
X5937660Y-2064180D01*
X5939240Y-2063899D01*
X5940800Y-2064280D01*
X5942100Y-2064880D01*
X5945480Y-2065800D01*
X5949140Y-2066120D01*
X6010800Y-2066120D01*
X6014460Y-2065800D01*
X6017840Y-2064880D01*
X6021000Y-2063400D01*
X6023880Y-2061399D01*
X6026360Y-2058920D01*
X6028360Y-2056060D01*
X6029840Y-2052880D01*
X6030740Y-2049500D01*
X6031020Y-2046380D01*
X6031480Y-2044820D01*
X6032540Y-2043560D01*
X6034000Y-2042840D01*
X6035640Y-2042760D01*
X6037160Y-2043340D01*
X6038320Y-2044480D01*
X6039360Y-2046020D01*
X6043300Y-2050600D01*
X6047780Y-2054680D01*
X6052700Y-2058220D01*
X6058000Y-2061140D01*
X6063600Y-2063420D01*
X6069440Y-2065020D01*
X6075420Y-2065900D01*
X6081480Y-2066080D01*
X6087500Y-2065540D01*
X6093440Y-2064300D01*
X6099160Y-2062360D01*
X6104640Y-2059760D01*
X6109760Y-2056519D01*
X6114460Y-2052720D01*
X6118660Y-2048360D01*
X6122340Y-2043560D01*
X6125420Y-2038340D01*
X6126280Y-2036399D01*
X6127120Y-2035160D01*
X6128360Y-2034340D01*
X6129820Y-2034000D01*
X6131300Y-2034240D01*
X6132580Y-2035000D01*
X6133500Y-2036180D01*
X6135980Y-2041000D01*
X6139360Y-2046020D01*
X6143300Y-2050600D01*
X6147780Y-2054680D01*
X6152700Y-2058220D01*
X6158000Y-2061140D01*
X6163600Y-2063420D01*
X6169440Y-2065020D01*
X6175420Y-2065900D01*
X6181480Y-2066080D01*
X6187500Y-2065540D01*
X6193440Y-2064300D01*
X6199160Y-2062360D01*
X6204640Y-2059760D01*
X6209760Y-2056519D01*
X6214460Y-2052720D01*
X6218660Y-2048360D01*
X6222340Y-2043560D01*
X6225420Y-2038340D01*
X6226280Y-2036399D01*
X6227120Y-2035160D01*
X6228360Y-2034340D01*
X6229820Y-2034000D01*
X6231300Y-2034240D01*
X6232580Y-2035000D01*
X6233500Y-2036180D01*
X6235980Y-2041000D01*
X6239360Y-2046020D01*
X6243300Y-2050600D01*
X6247780Y-2054680D01*
X6252700Y-2058220D01*
X6258000Y-2061140D01*
X6263600Y-2063420D01*
X6269440Y-2065020D01*
X6275420Y-2065900D01*
X6281480Y-2066080D01*
X6287500Y-2065540D01*
X6293440Y-2064300D01*
X6299160Y-2062360D01*
X6304640Y-2059760D01*
X6309760Y-2056519D01*
X6314460Y-2052720D01*
X6318660Y-2048360D01*
X6322340Y-2043560D01*
X6325420Y-2038340D01*
X6326280Y-2036399D01*
X6327120Y-2035160D01*
X6328360Y-2034340D01*
X6329820Y-2034000D01*
X6331300Y-2034240D01*
X6332580Y-2035000D01*
X6333500Y-2036180D01*
X6335980Y-2041000D01*
X6339360Y-2046020D01*
X6343300Y-2050600D01*
X6347780Y-2054680D01*
X6352700Y-2058220D01*
X6358000Y-2061140D01*
X6363600Y-2063420D01*
X6369440Y-2065020D01*
X6375420Y-2065900D01*
X6381480Y-2066080D01*
X6387500Y-2065540D01*
X6393440Y-2064300D01*
X6399160Y-2062360D01*
X6404640Y-2059760D01*
X6409760Y-2056519D01*
X6414460Y-2052720D01*
X6418660Y-2048360D01*
X6422340Y-2043560D01*
X6425420Y-2038340D01*
X6426280Y-2036399D01*
X6427120Y-2035160D01*
X6428360Y-2034340D01*
X6429820Y-2034000D01*
X6431300Y-2034240D01*
X6432580Y-2035000D01*
X6433500Y-2036180D01*
X6435980Y-2041000D01*
X6439360Y-2046020D01*
X6443300Y-2050600D01*
X6447780Y-2054680D01*
X6452700Y-2058220D01*
X6458000Y-2061140D01*
X6463600Y-2063420D01*
X6469440Y-2065020D01*
X6475420Y-2065900D01*
X6481480Y-2066080D01*
X6487500Y-2065540D01*
X6493440Y-2064300D01*
X6499160Y-2062360D01*
X6504640Y-2059760D01*
X6509760Y-2056519D01*
X6514460Y-2052720D01*
X6518660Y-2048360D01*
X6522340Y-2043560D01*
X6525420Y-2038340D01*
X6526280Y-2036399D01*
X6527120Y-2035160D01*
X6528360Y-2034340D01*
X6529820Y-2034000D01*
X6531300Y-2034240D01*
X6532580Y-2035000D01*
X6533500Y-2036180D01*
X6535980Y-2041000D01*
X6539360Y-2046020D01*
X6543300Y-2050600D01*
X6547780Y-2054680D01*
X6552700Y-2058220D01*
X6558000Y-2061140D01*
X6563600Y-2063420D01*
X6569440Y-2065020D01*
X6575420Y-2065900D01*
X6581480Y-2066080D01*
X6587500Y-2065540D01*
X6593440Y-2064300D01*
X6599160Y-2062360D01*
X6604640Y-2059760D01*
X6609760Y-2056519D01*
X6614460Y-2052720D01*
X6618660Y-2048360D01*
X6622340Y-2043560D01*
X6625420Y-2038340D01*
X6626280Y-2036399D01*
X6627120Y-2035160D01*
X6628360Y-2034340D01*
X6629820Y-2034000D01*
X6631300Y-2034240D01*
X6632580Y-2035000D01*
X6633500Y-2036180D01*
X6635980Y-2041000D01*
X6639360Y-2046020D01*
X6643300Y-2050600D01*
X6647780Y-2054680D01*
X6652700Y-2058220D01*
X6658000Y-2061140D01*
X6663600Y-2063420D01*
X6669440Y-2065020D01*
X6675420Y-2065900D01*
X6681480Y-2066080D01*
X6687500Y-2065540D01*
X6693440Y-2064300D01*
X6699160Y-2062360D01*
X6704640Y-2059760D01*
X6709760Y-2056519D01*
X6714460Y-2052720D01*
X6718660Y-2048360D01*
X6722340Y-2043560D01*
X6725420Y-2038340D01*
X6727859Y-2032800D01*
X6729620Y-2027020D01*
X6730700Y-2021060D01*
X6731060Y-2015020D01*
X6730700Y-2008980D01*
X6729620Y-2003020D01*
X6727859Y-1997220D01*
X6725420Y-1991680D01*
X6722340Y-1986480D01*
X6718660Y-1981660D01*
X6714460Y-1977320D01*
X6709760Y-1973500D01*
X6704640Y-1970280D01*
X6699160Y-1967660D01*
X6693440Y-1965720D01*
X6687500Y-1964480D01*
X6681480Y-1963940D01*
X6675420Y-1964120D01*
X6669440Y-1965020D01*
X6663600Y-1966620D01*
X6658000Y-1968880D01*
X6652700Y-1971819D01*
X6647780Y-1975340D01*
X6643300Y-1979420D01*
X6639360Y-1984019D01*
X6635980Y-1989040D01*
X6633500Y-1993860D01*
X6632580Y-1995020D01*
X6631300Y-1995780D01*
X6629820Y-1996020D01*
X6628360Y-1995700D01*
X6627120Y-1994860D01*
X6626280Y-1993640D01*
X6625420Y-1991680D01*
X6622340Y-1986480D01*
X6618660Y-1981660D01*
X6614460Y-1977320D01*
X6609760Y-1973500D01*
X6604640Y-1970280D01*
X6599160Y-1967660D01*
X6593440Y-1965720D01*
X6587500Y-1964480D01*
X6581480Y-1963940D01*
X6575420Y-1964120D01*
X6569440Y-1965020D01*
X6563600Y-1966620D01*
X6558000Y-1968880D01*
X6552700Y-1971819D01*
X6547780Y-1975340D01*
X6543300Y-1979420D01*
X6539360Y-1984019D01*
X6535980Y-1989040D01*
X6533500Y-1993860D01*
X6532580Y-1995020D01*
X6531300Y-1995780D01*
X6529820Y-1996020D01*
X6528360Y-1995700D01*
X6527120Y-1994860D01*
X6526280Y-1993640D01*
X6525420Y-1991680D01*
X6522340Y-1986480D01*
X6518660Y-1981660D01*
X6514460Y-1977320D01*
X6509760Y-1973500D01*
X6504640Y-1970280D01*
X6499160Y-1967660D01*
X6493440Y-1965720D01*
X6487500Y-1964480D01*
X6481480Y-1963940D01*
X6475420Y-1964120D01*
X6469440Y-1965020D01*
X6463600Y-1966620D01*
X6458000Y-1968880D01*
X6452700Y-1971819D01*
X6447780Y-1975340D01*
X6443300Y-1979420D01*
X6439360Y-1984019D01*
X6435980Y-1989040D01*
X6433500Y-1993860D01*
X6432580Y-1995020D01*
X6431300Y-1995780D01*
X6429820Y-1996020D01*
X6428360Y-1995700D01*
X6427120Y-1994860D01*
X6426280Y-1993640D01*
X6425420Y-1991680D01*
X6422340Y-1986480D01*
X6418660Y-1981660D01*
X6414460Y-1977320D01*
X6409760Y-1973500D01*
X6404640Y-1970280D01*
X6399160Y-1967660D01*
X6393440Y-1965720D01*
X6387500Y-1964480D01*
X6381480Y-1963940D01*
X6375420Y-1964120D01*
X6369440Y-1965020D01*
X6363600Y-1966620D01*
X6358000Y-1968880D01*
X6352700Y-1971819D01*
X6347780Y-1975340D01*
X6343300Y-1979420D01*
X6339360Y-1984019D01*
X6335980Y-1989040D01*
X6333500Y-1993860D01*
X6332580Y-1995020D01*
X6331300Y-1995780D01*
X6329820Y-1996020D01*
X6328360Y-1995700D01*
X6327120Y-1994860D01*
X6326280Y-1993640D01*
X6325420Y-1991680D01*
X6322340Y-1986480D01*
X6318660Y-1981660D01*
X6314460Y-1977320D01*
X6309760Y-1973500D01*
X6304640Y-1970280D01*
X6299160Y-1967660D01*
X6293440Y-1965720D01*
X6287500Y-1964480D01*
X6281480Y-1963940D01*
X6275420Y-1964120D01*
X6269440Y-1965020D01*
X6263600Y-1966620D01*
X6258000Y-1968880D01*
X6252700Y-1971819D01*
X6247780Y-1975340D01*
X6243300Y-1979420D01*
X6239360Y-1984019D01*
X6235980Y-1989040D01*
X6233500Y-1993860D01*
X6232580Y-1995020D01*
X6231300Y-1995780D01*
X6229820Y-1996020D01*
X6228360Y-1995700D01*
X6227120Y-1994860D01*
X6226280Y-1993640D01*
X6225420Y-1991680D01*
X6222340Y-1986480D01*
X6218660Y-1981660D01*
X6214460Y-1977320D01*
X6209760Y-1973500D01*
X6204640Y-1970280D01*
X6199160Y-1967660D01*
X6193440Y-1965720D01*
X6187500Y-1964480D01*
X6181480Y-1963940D01*
X6175420Y-1964120D01*
X6169440Y-1965020D01*
X6163600Y-1966620D01*
X6158000Y-1968880D01*
X6152700Y-1971819D01*
X6147780Y-1975340D01*
X6143300Y-1979420D01*
X6139360Y-1984019D01*
X6135980Y-1989040D01*
X6133500Y-1993860D01*
X6132580Y-1995020D01*
X6131300Y-1995780D01*
X6129820Y-1996020D01*
X6128360Y-1995700D01*
X6127120Y-1994860D01*
X6126280Y-1993640D01*
X6125420Y-1991680D01*
X6122340Y-1986480D01*
X6118660Y-1981660D01*
X6114460Y-1977320D01*
X6109760Y-1973500D01*
X6104640Y-1970280D01*
X6099160Y-1967660D01*
X6093440Y-1965720D01*
X6087500Y-1964480D01*
X6081480Y-1963940D01*
X6075420Y-1964120D01*
X6069440Y-1965020D01*
X6063600Y-1966620D01*
X6058000Y-1968880D01*
X6052700Y-1971819D01*
X6047780Y-1975340D01*
X6043300Y-1979420D01*
X6039360Y-1984019D01*
X6038320Y-1985540D01*
X6037160Y-1986680D01*
X6035640Y-1987260D01*
X6034000Y-1987180D01*
X6032540Y-1986459D01*
X6031480Y-1985220D01*
X6031020Y-1983660D01*
X6030740Y-1980520D01*
X6029840Y-1977140D01*
X6028360Y-1973980D01*
X6026360Y-1971100D01*
X6023880Y-1968620D01*
X6021000Y-1966620D01*
X6017840Y-1965140D01*
X6014460Y-1964240D01*
X6010800Y-1963920D01*
X5949140Y-1963920D01*
X5945480Y-1964240D01*
X5942100Y-1965140D01*
X5940800Y-1965760D01*
X5939240Y-1966120D01*
X5937660Y-1965860D01*
X5936319Y-1965000D01*
X5935420Y-1963680D01*
X5935100Y-1962120D01*
X5935100Y-1950080D01*
X5935000Y-1947500D01*
X5934740Y-1945000D01*
X5934299Y-1942540D01*
X5933680Y-1940120D01*
X5932880Y-1937740D01*
X5931920Y-1935420D01*
X5930800Y-1933180D01*
X5929520Y-1931020D01*
X5928099Y-1928959D01*
X5926520Y-1927020D01*
X5924760Y-1925140D01*
X5844860Y-1845240D01*
X5842980Y-1843480D01*
X5841040Y-1841900D01*
X5838980Y-1840480D01*
X5836820Y-1839199D01*
X5834580Y-1838080D01*
X5832260Y-1837120D01*
X5829880Y-1836320D01*
X5827460Y-1835700D01*
X5825000Y-1835260D01*
X5822500Y-1835000D01*
X5819920Y-1834900D01*
X3916200Y-1834900D01*
X3914660Y-1834600D01*
X3913360Y-1833720D01*
X3876280Y-1796639D01*
X3875400Y-1795340D01*
X3875100Y-1793800D01*
X3875100Y-1630080D01*
X3875000Y-1627500D01*
X3874740Y-1625000D01*
X3874300Y-1622540D01*
X3873680Y-1620120D01*
X3872880Y-1617740D01*
X3871920Y-1615420D01*
X3870800Y-1613180D01*
X3869520Y-1611020D01*
X3868100Y-1608959D01*
X3866520Y-1607020D01*
X3864760Y-1605140D01*
X3688320Y-1428680D01*
X3687440Y-1427380D01*
X3687140Y-1425840D01*
X3687140Y-1413180D01*
X3686820Y-1409520D01*
X3685920Y-1406140D01*
X3684440Y-1402960D01*
X3683960Y-1402300D01*
X3683320Y-1400800D01*
X3683320Y-1399199D01*
X3683960Y-1397700D01*
X3684440Y-1397040D01*
X3685920Y-1393860D01*
X3686820Y-1390480D01*
X3687140Y-1386819D01*
X3687140Y-1313180D01*
X3686820Y-1309520D01*
X3685920Y-1306140D01*
X3684440Y-1302960D01*
X3683960Y-1302300D01*
X3683320Y-1300800D01*
X3683320Y-1299199D01*
X3683960Y-1297700D01*
X3684440Y-1297040D01*
X3685920Y-1293860D01*
X3686820Y-1290480D01*
X3687140Y-1286819D01*
X3687140Y-1213180D01*
X3686820Y-1209520D01*
X3685920Y-1206140D01*
X3684440Y-1202960D01*
X3683960Y-1202300D01*
X3683320Y-1200800D01*
X3683320Y-1199200D01*
X3683960Y-1197700D01*
X3684440Y-1197040D01*
X3685920Y-1193860D01*
X3686820Y-1190480D01*
X3687140Y-1186820D01*
X3687140Y-1113180D01*
X3686820Y-1109520D01*
X3685920Y-1106140D01*
X3684440Y-1102960D01*
X3683960Y-1102300D01*
X3683320Y-1100800D01*
X3683320Y-1099200D01*
X3683960Y-1097700D01*
X3684440Y-1097040D01*
X3685920Y-1093860D01*
X3686820Y-1090480D01*
X3687140Y-1086820D01*
X3687140Y-1013180D01*
X3686820Y-1009520D01*
X3685920Y-1006140D01*
X3684440Y-1002960D01*
X3683960Y-1002300D01*
X3683320Y-1000800D01*
X3683320Y-999200D01*
X3683960Y-997700D01*
X3684440Y-997039D01*
X3685920Y-993860D01*
X3686820Y-990480D01*
X3687140Y-986820D01*
X3687140Y-913180D01*
X3686820Y-909520D01*
X3685920Y-906140D01*
X3684440Y-902960D01*
X3683960Y-902300D01*
X3683320Y-900800D01*
X3683320Y-899200D01*
X3683960Y-897700D01*
X3684440Y-897039D01*
X3685920Y-893860D01*
X3686820Y-890480D01*
X3687140Y-886820D01*
X3687140Y-813180D01*
X3686820Y-809520D01*
X3685920Y-806140D01*
X3684440Y-802960D01*
X3683960Y-802300D01*
X3683320Y-800800D01*
X3683320Y-799200D01*
X3683960Y-797700D01*
X3684440Y-797039D01*
X3685920Y-793860D01*
X3686820Y-790480D01*
X3687140Y-786820D01*
X3687140Y-774160D01*
X3687440Y-772620D01*
X3688320Y-771320D01*
X3884760Y-574860D01*
X3886520Y-572980D01*
X3888100Y-571040D01*
X3889520Y-568980D01*
X3890800Y-566820D01*
X3891920Y-564580D01*
X3892880Y-562260D01*
X3893680Y-559880D01*
X3894300Y-557460D01*
X3894740Y-555000D01*
X3895000Y-552500D01*
X3895100Y-549920D01*
X3895100Y-256200D01*
X3895400Y-254660D01*
X3896280Y-253359D01*
X3903360Y-246280D01*
X3904660Y-245400D01*
X3906200Y-245100D01*
X5799920Y-245100D01*
X5802500Y-245000D01*
X5805000Y-244740D01*
X5807460Y-244300D01*
X5809880Y-243680D01*
X5812260Y-242880D01*
X5814580Y-241920D01*
X5816820Y-240799D01*
X5818980Y-239520D01*
X5821040Y-238100D01*
X5822980Y-236520D01*
X5824860Y-234760D01*
X5914760Y-144860D01*
X5916520Y-142980D01*
X5918099Y-141040D01*
X5919520Y-138980D01*
X5920800Y-136820D01*
X5921920Y-134580D01*
X5922880Y-132260D01*
X5923680Y-129880D01*
X5924299Y-127460D01*
X5924740Y-125000D01*
X5925000Y-122500D01*
X5925100Y-119920D01*
X5925100Y-74500D01*
X5925460Y-72860D01*
X5926440Y-71520D01*
X5927900Y-70680D01*
X5929560Y-70520D01*
X5931160Y-71060D01*
X5932380Y-72200D01*
X5933579Y-73920D01*
X5936060Y-76400D01*
X5938920Y-78400D01*
X5942100Y-79880D01*
X5945480Y-80800D01*
X5949140Y-81120D01*
X6010800Y-81120D01*
X6014460Y-80800D01*
X6017840Y-79880D01*
X6021000Y-78400D01*
X6023880Y-76400D01*
X6026360Y-73920D01*
X6028360Y-71060D01*
X6029840Y-67880D01*
X6030740Y-64500D01*
X6031020Y-61380D01*
X6031480Y-59820D01*
X6032540Y-58560D01*
X6034000Y-57840D01*
X6035640Y-57760D01*
X6037160Y-58339D01*
X6038320Y-59480D01*
X6039360Y-61020D01*
X6043300Y-65600D01*
X6047780Y-69680D01*
X6052700Y-73220D01*
X6058000Y-76140D01*
X6063600Y-78420D01*
X6069440Y-80020D01*
X6075420Y-80900D01*
X6081480Y-81080D01*
X6087500Y-80540D01*
X6093440Y-79300D01*
X6099160Y-77360D01*
X6104640Y-74760D01*
X6109760Y-71520D01*
X6114460Y-67720D01*
X6118660Y-63360D01*
X6122340Y-58560D01*
X6125420Y-53339D01*
X6126280Y-51400D01*
X6127120Y-50160D01*
X6128360Y-49340D01*
X6129820Y-49000D01*
X6131300Y-49240D01*
X6132580Y-50000D01*
X6133500Y-51180D01*
X6135980Y-56000D01*
X6139360Y-61020D01*
X6143300Y-65600D01*
X6147780Y-69680D01*
X6152700Y-73220D01*
X6158000Y-76140D01*
X6163600Y-78420D01*
X6169440Y-80020D01*
X6175420Y-80900D01*
X6181480Y-81080D01*
X6187500Y-80540D01*
X6193440Y-79300D01*
X6199160Y-77360D01*
X6204640Y-74760D01*
X6209760Y-71520D01*
X6214460Y-67720D01*
X6218660Y-63360D01*
X6222340Y-58560D01*
X6225420Y-53339D01*
X6226280Y-51400D01*
X6227120Y-50160D01*
X6228360Y-49340D01*
X6229820Y-49000D01*
X6231300Y-49240D01*
X6232580Y-50000D01*
X6233500Y-51180D01*
X6235980Y-56000D01*
X6239360Y-61020D01*
X6243300Y-65600D01*
X6247780Y-69680D01*
X6252700Y-73220D01*
X6258000Y-76140D01*
X6263600Y-78420D01*
X6269440Y-80020D01*
X6275420Y-80900D01*
X6281480Y-81080D01*
X6287500Y-80540D01*
X6293440Y-79300D01*
X6299160Y-77360D01*
X6304640Y-74760D01*
X6309760Y-71520D01*
X6314460Y-67720D01*
X6318660Y-63360D01*
X6322340Y-58560D01*
X6325420Y-53339D01*
X6326280Y-51400D01*
X6327120Y-50160D01*
X6328360Y-49340D01*
X6329820Y-49000D01*
X6331300Y-49240D01*
X6332580Y-50000D01*
X6333500Y-51180D01*
X6335980Y-56000D01*
X6339360Y-61020D01*
X6343300Y-65600D01*
X6347780Y-69680D01*
X6352700Y-73220D01*
X6358000Y-76140D01*
X6363600Y-78420D01*
X6369440Y-80020D01*
X6375420Y-80900D01*
X6381480Y-81080D01*
X6387500Y-80540D01*
X6393440Y-79300D01*
X6399160Y-77360D01*
X6404640Y-74760D01*
X6409760Y-71520D01*
X6414460Y-67720D01*
X6418660Y-63360D01*
X6422340Y-58560D01*
X6425420Y-53339D01*
X6426280Y-51400D01*
X6427120Y-50160D01*
X6428360Y-49340D01*
X6429820Y-49000D01*
X6431300Y-49240D01*
X6432580Y-50000D01*
X6433500Y-51180D01*
X6435980Y-56000D01*
X6439360Y-61020D01*
X6443300Y-65600D01*
X6447780Y-69680D01*
X6452700Y-73220D01*
X6458000Y-76140D01*
X6463600Y-78420D01*
X6469440Y-80020D01*
X6475420Y-80900D01*
X6481480Y-81080D01*
X6487500Y-80540D01*
X6493440Y-79300D01*
X6499160Y-77360D01*
X6504640Y-74760D01*
X6509760Y-71520D01*
X6514460Y-67720D01*
X6518660Y-63360D01*
X6522340Y-58560D01*
X6525420Y-53339D01*
X6526280Y-51400D01*
X6527120Y-50160D01*
X6528360Y-49340D01*
X6529820Y-49000D01*
X6531300Y-49240D01*
X6532580Y-50000D01*
X6533500Y-51180D01*
X6535980Y-56000D01*
X6539360Y-61020D01*
X6543300Y-65600D01*
X6547780Y-69680D01*
X6552700Y-73220D01*
X6558000Y-76140D01*
X6563600Y-78420D01*
X6569440Y-80020D01*
X6575420Y-80900D01*
X6581480Y-81080D01*
X6587500Y-80540D01*
X6593440Y-79300D01*
X6599160Y-77360D01*
X6604640Y-74760D01*
X6609760Y-71520D01*
X6614460Y-67720D01*
X6618660Y-63360D01*
X6622340Y-58560D01*
X6625420Y-53339D01*
X6626280Y-51400D01*
X6627120Y-50160D01*
X6628360Y-49340D01*
X6629820Y-49000D01*
X6631300Y-49240D01*
X6632580Y-50000D01*
X6633500Y-51180D01*
X6635980Y-56000D01*
X6639360Y-61020D01*
X6643300Y-65600D01*
X6647780Y-69680D01*
X6652700Y-73220D01*
X6658000Y-76140D01*
X6663600Y-78420D01*
X6669440Y-80020D01*
X6675420Y-80900D01*
X6681480Y-81080D01*
X6687500Y-80540D01*
X6693440Y-79300D01*
X6699160Y-77360D01*
X6704640Y-74760D01*
X6709760Y-71520D01*
X6714460Y-67720D01*
X6718660Y-63360D01*
X6722340Y-58560D01*
X6725420Y-53339D01*
X6727859Y-47800D01*
X6729620Y-42020D01*
X6730700Y-36060D01*
X6731060Y-30019D01*
X6730700Y-23980D01*
X6729620Y-18020D01*
X6727859Y-12220D01*
X6725420Y-6680D01*
X6722340Y-1480D01*
X6718660Y3340D01*
X6714460Y7680D01*
X6709760Y11500D01*
X6704640Y14720D01*
X6699160Y17340D01*
X6693440Y19280D01*
X6687500Y20520D01*
X6681480Y21060D01*
X6675420Y20880D01*
X6669440Y19980D01*
X6663600Y18380D01*
X6658000Y16120D01*
X6652700Y13180D01*
X6647780Y9660D01*
X6643300Y5580D01*
X6639360Y980D01*
X6635980Y-4040D01*
X6633500Y-8860D01*
X6632580Y-10020D01*
X6631300Y-10780D01*
X6629820Y-11020D01*
X6628360Y-10700D01*
X6627120Y-9860D01*
X6626280Y-8640D01*
X6625420Y-6680D01*
X6622340Y-1480D01*
X6618660Y3340D01*
X6614460Y7680D01*
X6609760Y11500D01*
X6604640Y14720D01*
X6599160Y17340D01*
X6593440Y19280D01*
X6587500Y20520D01*
X6581480Y21060D01*
X6575420Y20880D01*
X6569440Y19980D01*
X6563600Y18380D01*
X6558000Y16120D01*
X6552700Y13180D01*
X6547780Y9660D01*
X6543300Y5580D01*
X6539360Y980D01*
X6535980Y-4040D01*
X6533500Y-8860D01*
X6532580Y-10020D01*
X6531300Y-10780D01*
X6529820Y-11020D01*
X6528360Y-10700D01*
X6527120Y-9860D01*
X6526280Y-8640D01*
X6525420Y-6680D01*
X6522340Y-1480D01*
X6518660Y3340D01*
X6514460Y7680D01*
X6509760Y11500D01*
X6504640Y14720D01*
X6499160Y17340D01*
X6493440Y19280D01*
X6487500Y20520D01*
X6481480Y21060D01*
X6475420Y20880D01*
X6469440Y19980D01*
X6463600Y18380D01*
X6458000Y16120D01*
X6452700Y13180D01*
X6447780Y9660D01*
X6443300Y5580D01*
X6439360Y980D01*
X6435980Y-4040D01*
X6433500Y-8860D01*
X6432580Y-10020D01*
X6431300Y-10780D01*
X6429820Y-11020D01*
X6428360Y-10700D01*
X6427120Y-9860D01*
X6426280Y-8640D01*
X6425420Y-6680D01*
X6422340Y-1480D01*
X6418660Y3340D01*
X6414460Y7680D01*
X6409760Y11500D01*
X6404640Y14720D01*
X6399160Y17340D01*
X6393440Y19280D01*
X6387500Y20520D01*
X6381480Y21060D01*
X6375420Y20880D01*
X6369440Y19980D01*
X6363600Y18380D01*
X6358000Y16120D01*
X6352700Y13180D01*
X6347780Y9660D01*
X6343300Y5580D01*
X6339360Y980D01*
X6335980Y-4040D01*
X6333500Y-8860D01*
X6332580Y-10020D01*
X6331300Y-10780D01*
X6329820Y-11020D01*
X6328360Y-10700D01*
X6327120Y-9860D01*
X6326280Y-8640D01*
X6325420Y-6680D01*
X6322340Y-1480D01*
X6318660Y3340D01*
X6314460Y7680D01*
X6309760Y11500D01*
X6304640Y14720D01*
X6299160Y17340D01*
X6293440Y19280D01*
X6287500Y20520D01*
X6281480Y21060D01*
X6275420Y20880D01*
X6269440Y19980D01*
X6263600Y18380D01*
X6258000Y16120D01*
X6252700Y13180D01*
X6247780Y9660D01*
X6243300Y5580D01*
X6239360Y980D01*
X6235980Y-4040D01*
X6233500Y-8860D01*
X6232580Y-10020D01*
X6231300Y-10780D01*
X6229820Y-11020D01*
X6228360Y-10700D01*
X6227120Y-9860D01*
X6226280Y-8640D01*
X6225420Y-6680D01*
X6222340Y-1480D01*
X6218660Y3340D01*
X6214460Y7680D01*
X6209760Y11500D01*
X6204640Y14720D01*
X6199160Y17340D01*
X6193440Y19280D01*
X6187500Y20520D01*
X6181480Y21060D01*
X6175420Y20880D01*
X6169440Y19980D01*
X6163600Y18380D01*
X6158000Y16120D01*
X6152700Y13180D01*
X6147780Y9660D01*
X6143300Y5580D01*
X6139360Y980D01*
X6135980Y-4040D01*
X6133500Y-8860D01*
X6132580Y-10020D01*
X6131300Y-10780D01*
X6129820Y-11020D01*
X6128360Y-10700D01*
X6127120Y-9860D01*
X6126280Y-8640D01*
X6125420Y-6680D01*
X6122340Y-1480D01*
X6118660Y3340D01*
X6114460Y7680D01*
X6109760Y11500D01*
X6104640Y14720D01*
X6099160Y17340D01*
X6093440Y19280D01*
X6087500Y20520D01*
X6081480Y21060D01*
X6075420Y20880D01*
X6069440Y19980D01*
X6063600Y18380D01*
X6058000Y16120D01*
X6052700Y13180D01*
X6047780Y9660D01*
X6043300Y5580D01*
X6039360Y980D01*
X6038320Y-540D01*
X6037160Y-1680D01*
X6035640Y-2260D01*
X6034000Y-2180D01*
X6032540Y-1460D01*
X6031480Y-220D01*
X6031020Y1340D01*
X6030740Y4480D01*
X6029840Y7860D01*
X6028360Y11020D01*
X6026360Y13899D01*
X6023880Y16379D01*
X6021000Y18380D01*
X6017840Y19860D01*
X6014460Y20760D01*
X6010800Y21080D01*
X5949140Y21080D01*
X5945480Y20760D01*
X5942100Y19860D01*
X5938920Y18380D01*
X5936060Y16379D01*
X5933579Y13899D01*
X5932380Y12180D01*
X5931160Y11040D01*
X5929560Y10500D01*
X5927900Y10660D01*
X5926440Y11480D01*
X5925460Y12840D01*
X5925100Y14480D01*
X5925100Y213800D01*
X5925400Y215340D01*
X5926280Y216640D01*
X5943360Y233720D01*
X5944660Y234600D01*
X5946200Y234899D01*
X6449920Y234899D01*
X6452500Y235000D01*
X6455000Y235260D01*
X6457460Y235700D01*
X6459880Y236320D01*
X6462260Y237120D01*
X6464580Y238080D01*
X6466820Y239200D01*
X6468980Y240479D01*
X6471040Y241900D01*
X6472980Y243480D01*
X6474860Y245240D01*
X6504760Y275140D01*
X6506520Y277020D01*
X6508099Y278960D01*
X6509520Y281020D01*
X6510800Y283180D01*
X6511920Y285420D01*
X6512880Y287740D01*
X6513680Y290120D01*
X6514299Y292540D01*
X6514740Y295000D01*
X6515000Y297500D01*
X6515100Y300080D01*
X6515100Y365920D01*
X6515380Y367360D01*
X6516140Y368620D01*
X6517360Y369940D01*
X6520760Y374760D01*
X6523560Y379960D01*
X6525680Y385460D01*
X6527120Y391200D01*
X6527859Y397040D01*
X6527859Y402960D01*
X6527120Y408800D01*
X6525680Y414540D01*
X6523560Y420040D01*
X6520760Y425240D01*
X6517360Y430060D01*
X6516140Y431380D01*
X6515380Y432640D01*
X6515100Y434080D01*
X6515100Y545900D01*
X6515400Y547440D01*
X6516280Y548720D01*
X6517560Y549600D01*
X6519100Y549900D01*
X6519820Y549900D01*
X6523480Y550220D01*
X6526860Y551120D01*
X6530040Y552600D01*
X6532920Y554620D01*
X6535380Y557080D01*
X6537400Y559960D01*
X6538540Y561800D01*
X6539760Y562600D01*
X6541160Y562940D01*
X6542600Y562720D01*
X6549960Y557960D01*
X6555860Y554960D01*
X6562060Y552640D01*
X6568480Y551020D01*
X6575040Y550120D01*
X6581660Y549920D01*
X6588260Y550480D01*
X6594760Y551740D01*
X6601079Y553720D01*
X6607140Y556380D01*
X6612859Y559700D01*
X6618200Y563620D01*
X6623080Y568100D01*
X6627420Y573080D01*
X6631200Y578540D01*
X6634340Y584360D01*
X6636840Y590480D01*
X6638640Y596860D01*
X6639720Y603380D01*
X6640100Y610000D01*
X6639720Y616620D01*
X6638640Y623140D01*
X6636840Y629520D01*
X6634340Y635640D01*
X6631200Y641460D01*
X6627420Y646919D01*
X6623080Y651900D01*
X6618200Y656380D01*
X6612859Y660300D01*
X6607140Y663620D01*
X6601079Y666280D01*
X6594760Y668259D01*
X6588260Y669520D01*
X6581660Y670080D01*
X6575040Y669880D01*
X6568480Y668980D01*
X6562060Y667360D01*
X6555860Y665040D01*
X6549960Y662039D01*
X6542600Y657280D01*
X6541160Y657060D01*
X6539760Y657400D01*
X6538540Y658199D01*
X6537400Y660040D01*
X6535380Y662920D01*
X6532920Y665380D01*
X6530040Y667400D01*
X6526860Y668880D01*
X6523480Y669780D01*
X6519820Y670100D01*
X6440180Y670100D01*
X6436520Y669780D01*
X6433140Y668880D01*
X6429960Y667400D01*
X6427080Y665380D01*
X6424620Y662920D01*
X6422600Y660040D01*
X6421120Y656860D01*
X6420220Y653480D01*
X6419900Y649820D01*
X6419900Y570180D01*
X6420220Y566520D01*
X6421120Y563140D01*
X6422600Y559960D01*
X6424620Y557080D01*
X6427080Y554620D01*
X6429960Y552600D01*
X6433140Y551120D01*
X6436520Y550220D01*
X6440180Y549900D01*
X6440900Y549900D01*
X6442440Y549600D01*
X6443720Y548720D01*
X6444600Y547440D01*
X6444900Y545900D01*
X6444900Y434120D01*
X6444680Y432780D01*
X6444020Y431620D01*
X6440860Y427700D01*
X6437760Y422680D01*
X6435300Y417320D01*
X6433500Y411700D01*
X6432420Y405900D01*
X6432060Y400000D01*
X6432420Y394099D01*
X6433500Y388300D01*
X6435300Y382680D01*
X6437760Y377320D01*
X6440860Y372299D01*
X6444020Y368380D01*
X6444680Y367220D01*
X6444900Y365880D01*
X6444900Y316200D01*
X6444600Y314660D01*
X6443720Y313360D01*
X6436640Y306280D01*
X6435340Y305400D01*
X6433800Y305100D01*
X5930080Y305100D01*
X5927500Y305000D01*
X5925000Y304740D01*
X5922540Y304300D01*
X5920080Y303660D01*
X5918640Y303580D01*
X5917260Y304000D01*
X5916120Y304880D01*
X5915359Y306120D01*
X5915100Y307540D01*
X5915100Y365920D01*
X5915380Y367360D01*
X5916140Y368620D01*
X5917360Y369940D01*
X5920760Y374760D01*
X5923560Y379960D01*
X5925680Y385460D01*
X5927120Y391200D01*
X5927859Y397040D01*
X5927859Y402960D01*
X5927120Y408800D01*
X5925680Y414540D01*
X5923560Y420040D01*
X5920760Y425240D01*
X5917360Y430060D01*
X5916140Y431380D01*
X5915380Y432640D01*
X5915100Y434080D01*
X5915100Y545900D01*
X5915400Y547440D01*
X5916280Y548720D01*
X5917560Y549600D01*
X5919100Y549900D01*
X5919820Y549900D01*
X5923480Y550220D01*
X5926860Y551120D01*
X5930040Y552600D01*
X5932920Y554620D01*
X5935380Y557080D01*
X5937400Y559960D01*
X5938540Y561800D01*
X5939760Y562600D01*
X5941160Y562940D01*
X5942600Y562720D01*
X5949960Y557960D01*
X5955860Y554960D01*
X5962060Y552640D01*
X5968480Y551020D01*
X5975040Y550120D01*
X5981660Y549920D01*
X5988260Y550480D01*
X5994760Y551740D01*
X6001079Y553720D01*
X6007140Y556380D01*
X6012859Y559700D01*
X6018200Y563620D01*
X6023080Y568100D01*
X6027420Y573080D01*
X6031200Y578540D01*
X6034340Y584360D01*
X6036840Y590480D01*
X6038640Y596860D01*
X6039720Y603380D01*
X6040100Y610000D01*
X6039720Y616620D01*
X6038640Y623140D01*
X6036840Y629520D01*
X6034340Y635640D01*
X6031200Y641460D01*
X6027420Y646919D01*
X6023080Y651900D01*
X6018200Y656380D01*
X6012859Y660300D01*
X6007140Y663620D01*
X6001079Y666280D01*
X5994760Y668259D01*
X5988260Y669520D01*
X5981660Y670080D01*
X5975040Y669880D01*
X5968480Y668980D01*
X5962060Y667360D01*
X5955860Y665040D01*
X5949960Y662039D01*
X5942600Y657280D01*
X5941160Y657060D01*
X5939760Y657400D01*
X5938540Y658199D01*
X5937400Y660040D01*
X5935380Y662920D01*
X5932920Y665380D01*
X5930040Y667400D01*
X5926860Y668880D01*
X5923480Y669780D01*
X5919820Y670100D01*
X5840180Y670100D01*
X5836520Y669780D01*
X5833140Y668880D01*
X5829960Y667400D01*
X5827080Y665380D01*
X5824620Y662920D01*
X5822600Y660040D01*
X5821120Y656860D01*
X5820220Y653480D01*
X5819900Y649820D01*
X5819900Y570180D01*
X5820220Y566520D01*
X5821120Y563140D01*
X5822600Y559960D01*
X5824620Y557080D01*
X5827080Y554620D01*
X5829960Y552600D01*
X5833140Y551120D01*
X5836520Y550220D01*
X5840180Y549900D01*
X5840900Y549900D01*
X5842440Y549600D01*
X5843720Y548720D01*
X5844600Y547440D01*
X5844900Y545900D01*
X5844900Y434120D01*
X5844680Y432780D01*
X5844020Y431620D01*
X5840860Y427700D01*
X5837760Y422680D01*
X5835300Y417320D01*
X5833500Y411700D01*
X5832420Y405900D01*
X5832060Y400000D01*
X5832420Y394099D01*
X5833500Y388300D01*
X5835300Y382680D01*
X5837760Y377320D01*
X5840860Y372299D01*
X5844020Y368380D01*
X5844680Y367220D01*
X5844900Y365880D01*
X5844900Y316200D01*
X5844600Y314660D01*
X5843720Y313360D01*
X5815240Y284860D01*
X5813480Y282980D01*
X5811900Y281040D01*
X5810480Y278980D01*
X5809200Y276820D01*
X5808080Y274580D01*
X5807120Y272260D01*
X5806319Y269880D01*
X5805700Y267460D01*
X5805260Y265000D01*
X5805000Y262500D01*
X5804900Y259920D01*
X5804900Y20080D01*
X5804600Y18560D01*
X5803720Y17260D01*
X5802440Y16379D01*
X5800900Y16080D01*
X5739140Y16080D01*
X5735480Y15760D01*
X5732100Y14860D01*
X5728920Y13380D01*
X5726060Y11379D01*
X5723579Y8900D01*
X5721580Y6020D01*
X5720100Y2859D01*
X5719180Y-520D01*
X5718920Y-3660D01*
X5718440Y-5220D01*
X5717380Y-6460D01*
X5715920Y-7180D01*
X5714299Y-7260D01*
X5712780Y-6680D01*
X5711600Y-5540D01*
X5710580Y-4020D01*
X5706620Y580D01*
X5702160Y4660D01*
X5697240Y8179D01*
X5691940Y11120D01*
X5686319Y13380D01*
X5680480Y14980D01*
X5674500Y15880D01*
X5668460Y16060D01*
X5662420Y15520D01*
X5656500Y14280D01*
X5650760Y12340D01*
X5645300Y9720D01*
X5640180Y6500D01*
X5635480Y2680D01*
X5631260Y-1660D01*
X5627580Y-6480D01*
X5624500Y-11680D01*
X5623660Y-13640D01*
X5622800Y-14860D01*
X5621559Y-15700D01*
X5620100Y-16020D01*
X5618640Y-15780D01*
X5617340Y-15020D01*
X5616440Y-13859D01*
X5613960Y-9040D01*
X5610580Y-4020D01*
X5606620Y580D01*
X5602160Y4660D01*
X5597240Y8179D01*
X5591940Y11120D01*
X5586319Y13380D01*
X5580480Y14980D01*
X5574500Y15880D01*
X5568460Y16060D01*
X5562420Y15520D01*
X5556500Y14280D01*
X5550760Y12340D01*
X5545300Y9720D01*
X5540180Y6500D01*
X5535480Y2680D01*
X5531260Y-1660D01*
X5527580Y-6480D01*
X5524500Y-11680D01*
X5523660Y-13640D01*
X5522800Y-14860D01*
X5521559Y-15700D01*
X5520100Y-16020D01*
X5518640Y-15780D01*
X5517340Y-15020D01*
X5516440Y-13859D01*
X5513960Y-9040D01*
X5510580Y-4020D01*
X5506620Y580D01*
X5502160Y4660D01*
X5497240Y8179D01*
X5491940Y11120D01*
X5486319Y13380D01*
X5480480Y14980D01*
X5474500Y15880D01*
X5468460Y16060D01*
X5462420Y15520D01*
X5456500Y14280D01*
X5450760Y12340D01*
X5445300Y9720D01*
X5440180Y6500D01*
X5435480Y2680D01*
X5431260Y-1660D01*
X5427580Y-6480D01*
X5424500Y-11680D01*
X5423660Y-13640D01*
X5422800Y-14860D01*
X5421559Y-15700D01*
X5420100Y-16020D01*
X5418640Y-15780D01*
X5417340Y-15020D01*
X5416440Y-13859D01*
X5413960Y-9040D01*
X5410580Y-4020D01*
X5406620Y580D01*
X5402160Y4660D01*
X5397240Y8179D01*
X5391940Y11120D01*
X5386319Y13380D01*
X5380480Y14980D01*
X5374500Y15880D01*
X5368460Y16060D01*
X5362420Y15520D01*
X5356500Y14280D01*
X5350760Y12340D01*
X5345300Y9720D01*
X5340180Y6500D01*
X5335480Y2680D01*
X5331260Y-1660D01*
X5327580Y-6480D01*
X5324500Y-11680D01*
X5323660Y-13640D01*
X5322800Y-14860D01*
X5321559Y-15700D01*
X5320100Y-16020D01*
X5318640Y-15780D01*
X5317340Y-15020D01*
X5316440Y-13859D01*
X5313960Y-9040D01*
X5310580Y-4020D01*
X5306620Y580D01*
X5302160Y4660D01*
X5297240Y8179D01*
X5291940Y11120D01*
X5286319Y13380D01*
X5280480Y14980D01*
X5274500Y15880D01*
X5268460Y16060D01*
X5262420Y15520D01*
X5256500Y14280D01*
X5250760Y12340D01*
X5245300Y9720D01*
X5240180Y6500D01*
X5235480Y2680D01*
X5231260Y-1660D01*
X5227580Y-6480D01*
X5224500Y-11680D01*
X5223660Y-13640D01*
X5222800Y-14860D01*
X5221559Y-15700D01*
X5220100Y-16020D01*
X5218640Y-15780D01*
X5217340Y-15020D01*
X5216440Y-13859D01*
X5213960Y-9040D01*
X5210580Y-4020D01*
X5206620Y580D01*
X5202160Y4660D01*
X5197240Y8179D01*
X5191940Y11120D01*
X5186319Y13380D01*
X5180480Y14980D01*
X5174500Y15880D01*
X5168460Y16060D01*
X5162420Y15520D01*
X5156500Y14280D01*
X5150760Y12340D01*
X5145300Y9720D01*
X5140180Y6500D01*
X5135480Y2680D01*
X5131260Y-1660D01*
X5127580Y-6480D01*
X5124500Y-11680D01*
X5123660Y-13640D01*
X5122800Y-14860D01*
X5121559Y-15700D01*
X5120100Y-16020D01*
X5118640Y-15780D01*
X5117340Y-15020D01*
X5116440Y-13859D01*
X5113960Y-9040D01*
X5110580Y-4020D01*
X5106620Y580D01*
X5102160Y4660D01*
X5097240Y8179D01*
X5091940Y11120D01*
X5086320Y13380D01*
X5080480Y14980D01*
X5074500Y15880D01*
X5068460Y16060D01*
X5062420Y15520D01*
X5056500Y14280D01*
X5050760Y12340D01*
X5045300Y9720D01*
X5040180Y6500D01*
X5035480Y2680D01*
X5031260Y-1660D01*
X5027580Y-6480D01*
X5024500Y-11680D01*
X5022060Y-17220D01*
X5020300Y-23020D01*
X5019240Y-28980D01*
X5018880Y-35020D01*
X5019240Y-41060D01*
X5020300Y-47020D01*
X5022060Y-52800D01*
X5024500Y-58339D01*
X5027580Y-63560D01*
X5031260Y-68360D01*
X5035480Y-72720D01*
X5040180Y-76520D01*
X5045300Y-79760D01*
X5050760Y-82360D01*
X5056500Y-84300D01*
X5062420Y-85540D01*
X5068460Y-86080D01*
X5074500Y-85900D01*
X5080480Y-85020D01*
X5086320Y-83420D01*
X5091940Y-81140D01*
X5097240Y-78220D01*
X5102160Y-74680D01*
X5106620Y-70600D01*
X5110580Y-66020D01*
X5113960Y-61000D01*
X5116440Y-56180D01*
X5117340Y-55000D01*
X5118640Y-54240D01*
X5120100Y-54000D01*
X5121559Y-54340D01*
X5122800Y-55160D01*
X5123660Y-56400D01*
X5124500Y-58339D01*
X5127580Y-63560D01*
X5131260Y-68360D01*
X5135480Y-72720D01*
X5140180Y-76520D01*
X5145300Y-79760D01*
X5150760Y-82360D01*
X5156500Y-84300D01*
X5162420Y-85540D01*
X5168460Y-86080D01*
X5174500Y-85900D01*
X5180480Y-85020D01*
X5186319Y-83420D01*
X5191940Y-81140D01*
X5197240Y-78220D01*
X5202160Y-74680D01*
X5206620Y-70600D01*
X5210580Y-66020D01*
X5213960Y-61000D01*
X5216440Y-56180D01*
X5217340Y-55000D01*
X5218640Y-54240D01*
X5220100Y-54000D01*
X5221559Y-54340D01*
X5222800Y-55160D01*
X5223660Y-56400D01*
X5224500Y-58339D01*
X5227580Y-63560D01*
X5231260Y-68360D01*
X5235480Y-72720D01*
X5240180Y-76520D01*
X5245300Y-79760D01*
X5250760Y-82360D01*
X5256500Y-84300D01*
X5262420Y-85540D01*
X5268460Y-86080D01*
X5274500Y-85900D01*
X5280480Y-85020D01*
X5286319Y-83420D01*
X5291940Y-81140D01*
X5297240Y-78220D01*
X5302160Y-74680D01*
X5306620Y-70600D01*
X5310580Y-66020D01*
X5313960Y-61000D01*
X5316440Y-56180D01*
X5317340Y-55000D01*
X5318640Y-54240D01*
X5320100Y-54000D01*
X5321559Y-54340D01*
X5322800Y-55160D01*
X5323660Y-56400D01*
X5324500Y-58339D01*
X5327580Y-63560D01*
X5331260Y-68360D01*
X5335480Y-72720D01*
X5340180Y-76520D01*
X5345300Y-79760D01*
X5350760Y-82360D01*
X5356500Y-84300D01*
X5362420Y-85540D01*
X5368460Y-86080D01*
X5374500Y-85900D01*
X5380480Y-85020D01*
X5386319Y-83420D01*
X5391940Y-81140D01*
X5397240Y-78220D01*
X5402160Y-74680D01*
X5406620Y-70600D01*
X5410580Y-66020D01*
X5413960Y-61000D01*
X5416440Y-56180D01*
X5417340Y-55000D01*
X5418640Y-54240D01*
X5420100Y-54000D01*
X5421559Y-54340D01*
X5422800Y-55160D01*
X5423660Y-56400D01*
X5424500Y-58339D01*
X5427580Y-63560D01*
X5431260Y-68360D01*
X5435480Y-72720D01*
X5440180Y-76520D01*
X5445300Y-79760D01*
X5450760Y-82360D01*
X5456500Y-84300D01*
X5462420Y-85540D01*
X5468460Y-86080D01*
X5474500Y-85900D01*
X5480480Y-85020D01*
X5486319Y-83420D01*
X5491940Y-81140D01*
X5497240Y-78220D01*
X5502160Y-74680D01*
X5506620Y-70600D01*
X5510580Y-66020D01*
X5513960Y-61000D01*
X5516440Y-56180D01*
X5517340Y-55000D01*
X5518640Y-54240D01*
X5520100Y-54000D01*
X5521559Y-54340D01*
X5522800Y-55160D01*
X5523660Y-56400D01*
X5524500Y-58339D01*
X5527580Y-63560D01*
X5531260Y-68360D01*
X5535480Y-72720D01*
X5540180Y-76520D01*
X5545300Y-79760D01*
X5550760Y-82360D01*
X5556500Y-84300D01*
X5562420Y-85540D01*
X5568460Y-86080D01*
X5574500Y-85900D01*
X5580480Y-85020D01*
X5586319Y-83420D01*
X5591940Y-81140D01*
X5597240Y-78220D01*
X5602160Y-74680D01*
X5606620Y-70600D01*
X5610580Y-66020D01*
X5613960Y-61000D01*
X5616440Y-56180D01*
X5617340Y-55000D01*
X5618640Y-54240D01*
X5620100Y-54000D01*
X5621559Y-54340D01*
X5622800Y-55160D01*
X5623660Y-56400D01*
X5624500Y-58339D01*
X5627580Y-63560D01*
X5631260Y-68360D01*
X5635480Y-72720D01*
X5640180Y-76520D01*
X5645300Y-79760D01*
X5650760Y-82360D01*
X5656500Y-84300D01*
X5662420Y-85540D01*
X5668460Y-86080D01*
X5674500Y-85900D01*
X5680480Y-85020D01*
X5686319Y-83420D01*
X5691940Y-81140D01*
X5697240Y-78220D01*
X5702160Y-74680D01*
X5706620Y-70600D01*
X5710580Y-66020D01*
X5711600Y-64480D01*
X5712780Y-63339D01*
X5714299Y-62760D01*
X5715920Y-62840D01*
X5717380Y-63560D01*
X5718440Y-64820D01*
X5718920Y-66380D01*
X5719180Y-69500D01*
X5720100Y-72880D01*
X5721580Y-76060D01*
X5723579Y-78920D01*
X5726060Y-81400D01*
X5728920Y-83400D01*
X5732100Y-84880D01*
X5735480Y-85800D01*
X5739140Y-86120D01*
X5794580Y-86120D01*
X5796120Y-86420D01*
X5797420Y-87280D01*
X5798280Y-88580D01*
X5798579Y-90120D01*
X5798280Y-91640D01*
X5797420Y-92940D01*
X5786640Y-103720D01*
X5785340Y-104600D01*
X5783800Y-104900D01*
X3870080Y-104900D01*
X3867500Y-105000D01*
X3865000Y-105260D01*
X3862540Y-105700D01*
X3860120Y-106320D01*
X3857740Y-107120D01*
X3855419Y-108080D01*
X3853180Y-109200D01*
X3851019Y-110480D01*
X3848960Y-111900D01*
X3847020Y-113480D01*
X3845140Y-115239D01*
X3781920Y-178440D01*
X3780640Y-179300D01*
X3779100Y-179600D01*
X3777559Y-179300D01*
X3776280Y-178440D01*
X3775400Y-177140D01*
X3775100Y-175600D01*
X3775100Y273800D01*
X3775400Y275320D01*
X3776280Y276620D01*
X3909160Y409420D01*
X3910460Y410300D01*
X3911980Y410600D01*
X4917680Y410600D01*
X4919200Y410300D01*
X4920500Y409420D01*
X4921360Y408140D01*
X4921680Y406599D01*
X4921680Y383020D01*
X4921360Y381480D01*
X4920500Y380180D01*
X4919280Y378960D01*
X4915540Y374200D01*
X4912420Y369020D01*
X4909940Y363519D01*
X4908140Y357740D01*
X4907040Y351780D01*
X4906680Y345740D01*
X4907040Y339700D01*
X4908140Y333760D01*
X4909940Y327980D01*
X4912420Y322460D01*
X4915540Y317300D01*
X4919280Y312540D01*
X4923560Y308260D01*
X4928320Y304520D01*
X4933500Y301400D01*
X4939000Y298920D01*
X4944780Y297120D01*
X4950740Y296020D01*
X4956780Y295660D01*
X4962820Y296020D01*
X4968760Y297120D01*
X4974540Y298920D01*
X4980060Y301400D01*
X4985220Y304520D01*
X4989980Y308260D01*
X4994260Y312540D01*
X4998000Y317300D01*
X5001120Y322460D01*
X5003600Y327980D01*
X5005400Y333760D01*
X5006500Y339700D01*
X5006860Y345740D01*
X5006500Y351780D01*
X5005400Y357740D01*
X5003600Y363519D01*
X5001120Y369020D01*
X4998000Y374200D01*
X4994260Y378960D01*
X4993040Y380200D01*
X4992180Y381480D01*
X4991880Y383020D01*
X4991880Y408480D01*
X4992180Y410000D01*
X4993040Y411300D01*
X4994260Y412540D01*
X4998000Y417299D01*
X5001120Y422460D01*
X5003600Y427980D01*
X5005400Y433760D01*
X5006500Y439700D01*
X5006860Y445740D01*
X5006500Y451780D01*
X5005400Y457740D01*
X5003600Y463519D01*
X5001120Y469020D01*
X4998000Y474200D01*
X4994260Y478960D01*
X4989980Y483240D01*
X4985220Y486980D01*
X4980060Y490100D01*
X4974540Y492580D01*
X4968760Y494380D01*
X4962820Y495480D01*
X4956780Y495840D01*
X4950740Y495480D01*
X4944780Y494380D01*
X4939000Y492580D01*
X4933500Y490100D01*
X4928320Y486980D01*
X4923560Y483240D01*
X4922280Y481980D01*
X4920980Y481100D01*
X4919460Y480800D01*
X3895880Y480800D01*
X3893300Y480700D01*
X3890800Y480439D01*
X3888360Y480000D01*
X3885920Y479380D01*
X3883540Y478579D01*
X3881220Y477620D01*
X3879000Y476500D01*
X3876820Y475220D01*
X3874780Y473800D01*
X3872820Y472220D01*
X3870940Y470480D01*
X3715240Y314880D01*
X3713480Y312980D01*
X3711920Y311040D01*
X3710480Y308980D01*
X3709200Y306840D01*
X3708080Y304580D01*
X3707120Y302280D01*
X3706320Y299880D01*
X3705700Y297480D01*
X3705260Y295000D01*
X3705000Y292520D01*
X3704900Y289920D01*
X3704900Y-463800D01*
X3704600Y-465340D01*
X3703720Y-466640D01*
X3693960Y-476400D01*
X3692679Y-477260D01*
X3691139Y-477560D01*
X3689600Y-477260D01*
X3688320Y-476400D01*
X3687440Y-475100D01*
X3687140Y-473560D01*
X3687140Y-413180D01*
X3686820Y-409520D01*
X3685920Y-406140D01*
X3684440Y-402960D01*
X3683960Y-402299D01*
X3683320Y-400800D01*
X3683320Y-399200D01*
X3683960Y-397700D01*
X3684440Y-397040D01*
X3685920Y-393860D01*
X3686820Y-390480D01*
X3687140Y-386820D01*
X3687140Y-313180D01*
X3686820Y-309520D01*
X3685920Y-306140D01*
X3684440Y-302960D01*
X3683960Y-302300D01*
X3683320Y-300800D01*
X3683320Y-299200D01*
X3683960Y-297700D01*
X3684440Y-297040D01*
X3685920Y-293860D01*
X3686820Y-290480D01*
X3687140Y-286820D01*
X3687140Y-213180D01*
X3686820Y-209520D01*
X3685920Y-206140D01*
X3684440Y-202960D01*
X3683960Y-202300D01*
X3683320Y-200799D01*
X3683320Y-199200D01*
X3683960Y-197700D01*
X3684440Y-197040D01*
X3685920Y-193860D01*
X3686820Y-190479D01*
X3687140Y-186820D01*
X3687140Y-113180D01*
X3686820Y-109520D01*
X3685920Y-106140D01*
X3684440Y-102960D01*
X3682420Y-100079D01*
X3679960Y-97620D01*
X3677080Y-95600D01*
X3674000Y-94179D01*
X3672780Y-93280D01*
X3671980Y-92000D01*
X3671700Y-90520D01*
X3672000Y-89019D01*
X3673180Y-87380D01*
X3677160Y-82220D01*
X3680539Y-76640D01*
X3683240Y-70720D01*
X3685260Y-64520D01*
X3686560Y-58120D01*
X3687120Y-51640D01*
X3686920Y-45119D01*
X3686000Y-38660D01*
X3684340Y-32360D01*
X3681980Y-26280D01*
X3678940Y-20520D01*
X3675260Y-15140D01*
X3670980Y-10200D01*
X3666180Y-5800D01*
X3660899Y-1960D01*
X3655240Y1240D01*
X3649220Y3780D01*
X3642980Y5600D01*
X3636540Y6720D01*
X3630040Y7100D01*
X3623540Y6720D01*
X3617100Y5600D01*
X3610860Y3780D01*
X3604840Y1240D01*
X3599180Y-1960D01*
X3593900Y-5800D01*
X3590580Y-8840D01*
X3589320Y-9620D01*
X3587880Y-9900D01*
X3572200Y-9900D01*
X3570760Y-9620D01*
X3569500Y-8840D01*
X3566180Y-5800D01*
X3560899Y-1960D01*
X3555240Y1240D01*
X3549220Y3780D01*
X3542980Y5600D01*
X3536540Y6720D01*
X3530040Y7100D01*
X3523540Y6720D01*
X3517100Y5600D01*
X3510860Y3780D01*
X3504840Y1240D01*
X3499180Y-1960D01*
X3493900Y-5800D01*
X3490580Y-8840D01*
X3489320Y-9620D01*
X3487880Y-9900D01*
X3420140Y-9900D01*
X3414760Y-10260D01*
X3409620Y-11279D01*
X3404660Y-12960D01*
X3399960Y-15280D01*
X3395600Y-18200D01*
X3391560Y-21740D01*
X3371740Y-41560D01*
X3368200Y-45599D01*
X3365280Y-49960D01*
X3362960Y-54660D01*
X3361280Y-59620D01*
X3360260Y-64760D01*
X3359900Y-70140D01*
X3359900Y-94960D01*
X3360059Y-97820D01*
X3359900Y-100140D01*
X3359900Y-271300D01*
X3359600Y-272840D01*
X3358720Y-274140D01*
X3357440Y-275000D01*
X3355899Y-275300D01*
X3354360Y-275000D01*
X3353080Y-274140D01*
X3266280Y-187340D01*
X3265400Y-186040D01*
X3265100Y-184500D01*
X3265100Y-96860D01*
X3265480Y-95140D01*
X3266560Y-93760D01*
X3268639Y-92060D01*
X3273180Y-87380D01*
X3277160Y-82220D01*
X3280539Y-76640D01*
X3283240Y-70720D01*
X3285260Y-64520D01*
X3286560Y-58120D01*
X3287120Y-51640D01*
X3286920Y-45119D01*
X3286000Y-38660D01*
X3284340Y-32360D01*
X3281980Y-26280D01*
X3278940Y-20520D01*
X3275260Y-15140D01*
X3271080Y-10320D01*
X3270360Y-9100D01*
X3270100Y-7700D01*
X3270100Y60140D01*
X3270380Y61600D01*
X3271160Y62859D01*
X3272980Y64860D01*
X3276720Y69980D01*
X3279820Y75500D01*
X3282300Y81340D01*
X3284080Y87420D01*
X3285160Y93680D01*
X3285520Y100000D01*
X3285160Y106320D01*
X3284080Y112579D01*
X3282300Y118660D01*
X3279820Y124500D01*
X3276720Y130020D01*
X3272980Y135140D01*
X3268700Y139820D01*
X3263900Y143980D01*
X3258680Y147540D01*
X3253060Y150500D01*
X3247160Y152800D01*
X3241019Y154420D01*
X3234760Y155320D01*
X3228420Y155500D01*
X3222100Y154960D01*
X3215880Y153700D01*
X3209860Y151740D01*
X3204080Y149100D01*
X3198660Y145840D01*
X3193639Y141960D01*
X3189100Y137540D01*
X3185080Y132640D01*
X3183420Y130060D01*
X3182360Y128940D01*
X3180940Y128320D01*
X3179400Y128280D01*
X3177960Y128820D01*
X3176820Y129880D01*
X3172980Y135140D01*
X3168700Y139820D01*
X3163900Y143980D01*
X3158680Y147540D01*
X3153060Y150500D01*
X3147160Y152800D01*
X3141019Y154420D01*
X3134760Y155320D01*
X3128420Y155500D01*
X3122100Y154960D01*
X3115880Y153700D01*
X3109860Y151740D01*
X3104080Y149100D01*
X3098660Y145840D01*
X3093639Y141960D01*
X3089100Y137540D01*
X3085080Y132640D01*
X3083420Y130060D01*
X3082360Y128940D01*
X3080940Y128320D01*
X3079400Y128280D01*
X3077960Y128820D01*
X3076820Y129880D01*
X3072980Y135140D01*
X3068700Y139820D01*
X3063900Y143980D01*
X3058680Y147540D01*
X3053060Y150500D01*
X3047160Y152800D01*
X3041019Y154420D01*
X3034760Y155320D01*
X3028420Y155500D01*
X3022100Y154960D01*
X3015880Y153700D01*
X3009860Y151740D01*
X3004080Y149100D01*
X2998660Y145840D01*
X2993639Y141960D01*
X2989100Y137540D01*
X2985080Y132640D01*
X2983420Y130060D01*
X2982360Y128940D01*
X2980940Y128320D01*
X2979400Y128280D01*
X2977960Y128820D01*
X2976820Y129880D01*
X2972980Y135140D01*
X2968700Y139820D01*
X2963900Y143980D01*
X2958680Y147540D01*
X2953060Y150500D01*
X2947160Y152800D01*
X2941019Y154420D01*
X2934760Y155320D01*
X2928420Y155500D01*
X2922100Y154960D01*
X2915880Y153700D01*
X2909860Y151740D01*
X2904080Y149100D01*
X2898660Y145840D01*
X2893639Y141960D01*
X2889100Y137540D01*
X2885080Y132640D01*
X2883420Y130060D01*
X2882360Y128940D01*
X2880940Y128320D01*
X2879400Y128280D01*
X2877960Y128820D01*
X2876820Y129880D01*
X2872980Y135140D01*
X2868700Y139820D01*
X2863900Y143980D01*
X2858680Y147540D01*
X2853060Y150500D01*
X2847160Y152800D01*
X2841019Y154420D01*
X2834760Y155320D01*
X2828420Y155500D01*
X2822100Y154960D01*
X2815880Y153700D01*
X2809860Y151740D01*
X2804080Y149100D01*
X2798660Y145840D01*
X2793639Y141960D01*
X2789100Y137540D01*
X2785080Y132640D01*
X2783420Y130060D01*
X2782360Y128940D01*
X2780940Y128320D01*
X2779400Y128280D01*
X2777960Y128820D01*
X2776820Y129880D01*
X2772980Y135140D01*
X2768700Y139820D01*
X2763900Y143980D01*
X2758680Y147540D01*
X2753060Y150500D01*
X2747160Y152800D01*
X2741019Y154420D01*
X2734760Y155320D01*
X2728420Y155500D01*
X2722100Y154960D01*
X2715880Y153700D01*
X2709860Y151740D01*
X2704080Y149100D01*
X2698660Y145840D01*
X2693639Y141960D01*
X2689100Y137540D01*
X2685080Y132640D01*
X2683420Y130060D01*
X2682360Y128940D01*
X2680940Y128320D01*
X2679400Y128280D01*
X2677960Y128820D01*
X2676820Y129880D01*
X2672980Y135140D01*
X2668700Y139820D01*
X2663900Y143980D01*
X2658680Y147540D01*
X2653060Y150500D01*
X2647160Y152800D01*
X2641019Y154420D01*
X2634760Y155320D01*
X2628420Y155500D01*
X2622100Y154960D01*
X2615880Y153700D01*
X2609860Y151740D01*
X2604080Y149100D01*
X2598660Y145840D01*
X2593639Y141960D01*
X2591200Y139580D01*
X2589800Y138700D01*
X2588159Y138460D01*
X2586560Y138900D01*
X2585299Y139940D01*
X2584540Y141420D01*
X2584300Y142300D01*
X2582820Y145480D01*
X2580820Y148340D01*
X2578340Y150820D01*
X2575480Y152820D01*
X2572300Y154300D01*
X2568920Y155220D01*
X2565260Y155540D01*
X2494740Y155540D01*
X2491080Y155220D01*
X2487700Y154300D01*
X2484520Y152820D01*
X2481660Y150820D01*
X2479180Y148340D01*
X2477180Y145480D01*
X2475700Y142300D01*
X2474780Y138920D01*
X2474460Y135260D01*
X2474460Y64740D01*
X2474780Y61080D01*
X2475700Y57699D01*
X2477180Y54520D01*
X2479180Y51660D01*
X2481660Y49180D01*
X2484520Y47180D01*
X2487700Y45700D01*
X2492660Y44380D01*
X2493840Y43500D01*
X2494620Y42240D01*
X2494900Y40780D01*
X2494900Y-3120D01*
X2494560Y-4740D01*
X2493600Y-6080D01*
X2489100Y-10200D01*
X2484820Y-15140D01*
X2481140Y-20520D01*
X2478100Y-26280D01*
X2475740Y-32360D01*
X2474080Y-38660D01*
X2473160Y-45119D01*
X2472960Y-51640D01*
X2473520Y-58120D01*
X2474820Y-64520D01*
X2476840Y-70720D01*
X2479540Y-76640D01*
X2482920Y-82220D01*
X2486900Y-87380D01*
X2491440Y-92060D01*
X2496480Y-96180D01*
X2501960Y-99720D01*
X2507820Y-102600D01*
X2513960Y-104780D01*
X2520300Y-106260D01*
X2526780Y-107000D01*
X2533300Y-107000D01*
X2539780Y-106260D01*
X2546120Y-104780D01*
X2552260Y-102600D01*
X2558120Y-99720D01*
X2563600Y-96180D01*
X2568639Y-92060D01*
X2573180Y-87380D01*
X2576880Y-82620D01*
X2577960Y-81640D01*
X2579320Y-81120D01*
X2580760Y-81120D01*
X2582120Y-81640D01*
X2583200Y-82620D01*
X2586900Y-87380D01*
X2591440Y-92060D01*
X2596480Y-96180D01*
X2601960Y-99720D01*
X2607820Y-102600D01*
X2613960Y-104780D01*
X2620299Y-106260D01*
X2626780Y-107000D01*
X2633300Y-107000D01*
X2639780Y-106260D01*
X2646120Y-104780D01*
X2652260Y-102600D01*
X2658120Y-99720D01*
X2663600Y-96180D01*
X2668639Y-92060D01*
X2673180Y-87380D01*
X2676880Y-82620D01*
X2677960Y-81640D01*
X2679320Y-81120D01*
X2680760Y-81120D01*
X2682120Y-81640D01*
X2683200Y-82620D01*
X2686900Y-87380D01*
X2691440Y-92060D01*
X2696480Y-96180D01*
X2701960Y-99720D01*
X2707820Y-102600D01*
X2713960Y-104780D01*
X2720299Y-106260D01*
X2726780Y-107000D01*
X2733300Y-107000D01*
X2739780Y-106260D01*
X2746120Y-104780D01*
X2752260Y-102600D01*
X2758120Y-99720D01*
X2763600Y-96180D01*
X2768639Y-92060D01*
X2773180Y-87380D01*
X2776880Y-82620D01*
X2777960Y-81640D01*
X2779320Y-81120D01*
X2780760Y-81120D01*
X2782120Y-81640D01*
X2783200Y-82620D01*
X2786900Y-87380D01*
X2791440Y-92060D01*
X2796480Y-96180D01*
X2801960Y-99720D01*
X2807820Y-102600D01*
X2813960Y-104780D01*
X2820299Y-106260D01*
X2826780Y-107000D01*
X2833300Y-107000D01*
X2839780Y-106260D01*
X2846120Y-104780D01*
X2852260Y-102600D01*
X2858120Y-99720D01*
X2863600Y-96180D01*
X2868639Y-92060D01*
X2873180Y-87380D01*
X2876880Y-82620D01*
X2877960Y-81640D01*
X2879320Y-81120D01*
X2880760Y-81120D01*
X2882120Y-81640D01*
X2883200Y-82620D01*
X2886900Y-87380D01*
X2891440Y-92060D01*
X2896480Y-96180D01*
X2901960Y-99720D01*
X2907820Y-102600D01*
X2913960Y-104780D01*
X2920299Y-106260D01*
X2926780Y-107000D01*
X2933300Y-107000D01*
X2939780Y-106260D01*
X2946120Y-104780D01*
X2952260Y-102600D01*
X2958120Y-99720D01*
X2963600Y-96180D01*
X2968639Y-92060D01*
X2973180Y-87380D01*
X2976880Y-82620D01*
X2977960Y-81640D01*
X2979320Y-81120D01*
X2980760Y-81120D01*
X2982120Y-81640D01*
X2983200Y-82620D01*
X2986900Y-87380D01*
X2991440Y-92060D01*
X2996480Y-96180D01*
X3001960Y-99720D01*
X3007820Y-102600D01*
X3013960Y-104780D01*
X3020299Y-106260D01*
X3026780Y-107000D01*
X3033300Y-107000D01*
X3039780Y-106260D01*
X3046120Y-104780D01*
X3052260Y-102600D01*
X3058120Y-99720D01*
X3063600Y-96180D01*
X3068639Y-92060D01*
X3073180Y-87380D01*
X3076880Y-82620D01*
X3077960Y-81640D01*
X3079320Y-81120D01*
X3080760Y-81120D01*
X3082120Y-81640D01*
X3083200Y-82620D01*
X3086900Y-87380D01*
X3091440Y-92060D01*
X3093440Y-93699D01*
X3094520Y-95079D01*
X3094900Y-96800D01*
X3094900Y-272420D01*
X3095000Y-275000D01*
X3095260Y-277500D01*
X3095700Y-279960D01*
X3096320Y-282380D01*
X3097120Y-284760D01*
X3098080Y-287080D01*
X3099200Y-289320D01*
X3100480Y-291480D01*
X3101900Y-293540D01*
X3103480Y-295480D01*
X3105240Y-297360D01*
X3253720Y-445860D01*
X3254600Y-447160D01*
X3254900Y-448700D01*
X3254900Y-953800D01*
X3254600Y-955340D01*
X3253720Y-956640D01*
X3167040Y-1043319D01*
X3165600Y-1044240D01*
X3163920Y-1044479D01*
X3162280Y-1044000D01*
X3161000Y-1042880D01*
X3160299Y-1041320D01*
X3159280Y-1036540D01*
X3157340Y-1030800D01*
X3154740Y-1025340D01*
X3151520Y-1020220D01*
X3147700Y-1015520D01*
X3143360Y-1011300D01*
X3138540Y-1007620D01*
X3133340Y-1004539D01*
X3131380Y-1003680D01*
X3130140Y-1002840D01*
X3129320Y-1001600D01*
X3129000Y-1000140D01*
X3129220Y-998660D01*
X3129980Y-997380D01*
X3131160Y-996460D01*
X3135980Y-994000D01*
X3141000Y-990620D01*
X3145580Y-986660D01*
X3149680Y-982200D01*
X3153200Y-977280D01*
X3156120Y-971979D01*
X3158399Y-966360D01*
X3160000Y-960520D01*
X3160899Y-954539D01*
X3161080Y-948480D01*
X3160539Y-942460D01*
X3159280Y-936540D01*
X3157340Y-930800D01*
X3154740Y-925340D01*
X3151520Y-920220D01*
X3147700Y-915520D01*
X3143360Y-911300D01*
X3138540Y-907620D01*
X3133340Y-904539D01*
X3131380Y-903680D01*
X3130140Y-902840D01*
X3129320Y-901600D01*
X3129000Y-900140D01*
X3129220Y-898660D01*
X3129980Y-897380D01*
X3131160Y-896460D01*
X3135980Y-894000D01*
X3141000Y-890620D01*
X3145580Y-886660D01*
X3149680Y-882200D01*
X3153200Y-877280D01*
X3156120Y-871979D01*
X3158399Y-866360D01*
X3160000Y-860520D01*
X3160899Y-854539D01*
X3161080Y-848480D01*
X3160539Y-842460D01*
X3159280Y-836540D01*
X3157340Y-830800D01*
X3154740Y-825340D01*
X3151520Y-820220D01*
X3147700Y-815520D01*
X3143360Y-811300D01*
X3138540Y-807620D01*
X3133340Y-804539D01*
X3131380Y-803680D01*
X3130140Y-802840D01*
X3129320Y-801600D01*
X3129000Y-800140D01*
X3129220Y-798660D01*
X3129980Y-797380D01*
X3131160Y-796460D01*
X3135980Y-794000D01*
X3141000Y-790620D01*
X3145580Y-786660D01*
X3149680Y-782200D01*
X3153200Y-777280D01*
X3156120Y-771979D01*
X3158399Y-766360D01*
X3160000Y-760520D01*
X3160899Y-754539D01*
X3161080Y-748480D01*
X3160539Y-742460D01*
X3159280Y-736540D01*
X3157340Y-730800D01*
X3154740Y-725340D01*
X3151520Y-720220D01*
X3147700Y-715520D01*
X3143360Y-711300D01*
X3138540Y-707620D01*
X3133340Y-704539D01*
X3131380Y-703680D01*
X3130140Y-702840D01*
X3129320Y-701600D01*
X3129000Y-700140D01*
X3129220Y-698660D01*
X3129980Y-697380D01*
X3131160Y-696460D01*
X3135980Y-694000D01*
X3141000Y-690620D01*
X3145580Y-686660D01*
X3149680Y-682200D01*
X3153200Y-677280D01*
X3156120Y-671979D01*
X3158399Y-666360D01*
X3160000Y-660520D01*
X3160899Y-654539D01*
X3161080Y-648480D01*
X3160539Y-642460D01*
X3159280Y-636540D01*
X3157340Y-630800D01*
X3154740Y-625340D01*
X3151520Y-620220D01*
X3147700Y-615520D01*
X3143360Y-611300D01*
X3138540Y-607620D01*
X3133340Y-604540D01*
X3131380Y-603680D01*
X3130140Y-602840D01*
X3129320Y-601600D01*
X3129000Y-600140D01*
X3129220Y-598660D01*
X3129980Y-597380D01*
X3131160Y-596460D01*
X3135980Y-594000D01*
X3141000Y-590620D01*
X3145580Y-586660D01*
X3149680Y-582200D01*
X3153200Y-577280D01*
X3156120Y-571980D01*
X3158399Y-566360D01*
X3160000Y-560520D01*
X3160899Y-554540D01*
X3161080Y-548480D01*
X3160539Y-542460D01*
X3159280Y-536540D01*
X3157340Y-530800D01*
X3154740Y-525340D01*
X3151520Y-520220D01*
X3147700Y-515520D01*
X3143360Y-511300D01*
X3138540Y-507620D01*
X3133340Y-504540D01*
X3127799Y-502100D01*
X3122000Y-500340D01*
X3116040Y-499260D01*
X3110000Y-498900D01*
X3103960Y-499260D01*
X3098000Y-500340D01*
X3092200Y-502100D01*
X3086660Y-504540D01*
X3081460Y-507620D01*
X3076640Y-511300D01*
X3072300Y-515520D01*
X3068480Y-520220D01*
X3065260Y-525340D01*
X3062660Y-530800D01*
X3060720Y-536540D01*
X3059460Y-542460D01*
X3058920Y-548480D01*
X3059100Y-554540D01*
X3060000Y-560520D01*
X3061600Y-566360D01*
X3063880Y-571980D01*
X3066800Y-577280D01*
X3070320Y-582200D01*
X3074420Y-586660D01*
X3079000Y-590620D01*
X3084020Y-594000D01*
X3088840Y-596460D01*
X3090020Y-597380D01*
X3090779Y-598660D01*
X3091000Y-600140D01*
X3090680Y-601600D01*
X3089860Y-602840D01*
X3088620Y-603680D01*
X3086660Y-604540D01*
X3081460Y-607620D01*
X3076640Y-611300D01*
X3072300Y-615520D01*
X3068480Y-620220D01*
X3065260Y-625340D01*
X3062660Y-630800D01*
X3060720Y-636540D01*
X3059460Y-642460D01*
X3058920Y-648480D01*
X3059100Y-654539D01*
X3060000Y-660520D01*
X3061600Y-666360D01*
X3063880Y-671979D01*
X3066800Y-677280D01*
X3070320Y-682200D01*
X3074420Y-686660D01*
X3079000Y-690620D01*
X3084020Y-694000D01*
X3088840Y-696460D01*
X3090020Y-697380D01*
X3090779Y-698660D01*
X3091000Y-700140D01*
X3090680Y-701600D01*
X3089860Y-702840D01*
X3088620Y-703680D01*
X3086660Y-704539D01*
X3081460Y-707620D01*
X3076640Y-711300D01*
X3074100Y-713780D01*
X3072820Y-714599D01*
X3071320Y-714900D01*
X2766200Y-714900D01*
X2764660Y-714599D01*
X2763360Y-713720D01*
X2166280Y-116640D01*
X2165400Y-115340D01*
X2165100Y-113800D01*
X2165100Y-96860D01*
X2165480Y-95140D01*
X2166560Y-93760D01*
X2168640Y-92060D01*
X2173180Y-87380D01*
X2176880Y-82620D01*
X2177960Y-81640D01*
X2179320Y-81120D01*
X2180760Y-81120D01*
X2182120Y-81640D01*
X2183200Y-82620D01*
X2186900Y-87380D01*
X2191440Y-92060D01*
X2196480Y-96180D01*
X2201960Y-99720D01*
X2207820Y-102600D01*
X2213960Y-104780D01*
X2220300Y-106260D01*
X2226780Y-107000D01*
X2233300Y-107000D01*
X2239780Y-106260D01*
X2246120Y-104780D01*
X2252260Y-102600D01*
X2258120Y-99720D01*
X2263600Y-96180D01*
X2268640Y-92060D01*
X2273180Y-87380D01*
X2276880Y-82620D01*
X2277960Y-81640D01*
X2279320Y-81120D01*
X2280760Y-81120D01*
X2282120Y-81640D01*
X2283200Y-82620D01*
X2286900Y-87380D01*
X2291440Y-92060D01*
X2296480Y-96180D01*
X2301960Y-99720D01*
X2307820Y-102600D01*
X2313960Y-104780D01*
X2320300Y-106260D01*
X2326780Y-107000D01*
X2333300Y-107000D01*
X2339780Y-106260D01*
X2346120Y-104780D01*
X2352260Y-102600D01*
X2358120Y-99720D01*
X2363600Y-96180D01*
X2368640Y-92060D01*
X2373180Y-87380D01*
X2377160Y-82220D01*
X2380540Y-76640D01*
X2383240Y-70720D01*
X2385260Y-64520D01*
X2386560Y-58120D01*
X2387120Y-51640D01*
X2386920Y-45119D01*
X2386000Y-38660D01*
X2384340Y-32360D01*
X2381980Y-26280D01*
X2378940Y-20520D01*
X2375260Y-15140D01*
X2370980Y-10200D01*
X2366400Y-6000D01*
X2365440Y-4660D01*
X2365100Y-3060D01*
X2365100Y55240D01*
X2365460Y56900D01*
X2366480Y58259D01*
X2368700Y60180D01*
X2372980Y64860D01*
X2376720Y69980D01*
X2379820Y75500D01*
X2382300Y81340D01*
X2384080Y87420D01*
X2385160Y93680D01*
X2385520Y100000D01*
X2385160Y106320D01*
X2384080Y112579D01*
X2382300Y118660D01*
X2379820Y124500D01*
X2376720Y130020D01*
X2372980Y135140D01*
X2368700Y139820D01*
X2363900Y143980D01*
X2358680Y147540D01*
X2353060Y150500D01*
X2347160Y152800D01*
X2341020Y154420D01*
X2334760Y155320D01*
X2328420Y155500D01*
X2322100Y154960D01*
X2315880Y153700D01*
X2309860Y151740D01*
X2304080Y149100D01*
X2298660Y145840D01*
X2293640Y141960D01*
X2289100Y137540D01*
X2285080Y132640D01*
X2283420Y130060D01*
X2282360Y128940D01*
X2280940Y128320D01*
X2279400Y128280D01*
X2277960Y128820D01*
X2276820Y129880D01*
X2272980Y135140D01*
X2268700Y139820D01*
X2263900Y143980D01*
X2258680Y147540D01*
X2253060Y150500D01*
X2247160Y152800D01*
X2241020Y154420D01*
X2234760Y155320D01*
X2228420Y155500D01*
X2222100Y154960D01*
X2215880Y153700D01*
X2209860Y151740D01*
X2204080Y149100D01*
X2198660Y145840D01*
X2193640Y141960D01*
X2189100Y137540D01*
X2185080Y132640D01*
X2183420Y130060D01*
X2182360Y128940D01*
X2180940Y128320D01*
X2179400Y128280D01*
X2177960Y128820D01*
X2176820Y129880D01*
X2172980Y135140D01*
X2168700Y139820D01*
X2163900Y143980D01*
X2158680Y147540D01*
X2153060Y150500D01*
X2147160Y152800D01*
X2141020Y154420D01*
X2134760Y155320D01*
X2128420Y155500D01*
X2122100Y154960D01*
X2115880Y153700D01*
X2109860Y151740D01*
X2104080Y149100D01*
X2098660Y145840D01*
X2093640Y141960D01*
X2089100Y137540D01*
X2085080Y132640D01*
X2083420Y130060D01*
X2082360Y128940D01*
X2080940Y128320D01*
X2079400Y128280D01*
X2077960Y128820D01*
X2076819Y129880D01*
X2072980Y135140D01*
X2068700Y139820D01*
X2063899Y143980D01*
X2058680Y147540D01*
X2053060Y150500D01*
X2047160Y152800D01*
X2041020Y154420D01*
X2034760Y155320D01*
X2028420Y155500D01*
X2022100Y154960D01*
X2015880Y153700D01*
X2009860Y151740D01*
X2004079Y149100D01*
X1998660Y145840D01*
X1993640Y141960D01*
X1989100Y137540D01*
X1985080Y132640D01*
X1983420Y130060D01*
X1982360Y128940D01*
X1980940Y128320D01*
X1979400Y128280D01*
X1977960Y128820D01*
X1976819Y129880D01*
X1972980Y135140D01*
X1968700Y139820D01*
X1963899Y143980D01*
X1958680Y147540D01*
X1953060Y150500D01*
X1947160Y152800D01*
X1941020Y154420D01*
X1934760Y155320D01*
X1928420Y155500D01*
X1922100Y154960D01*
X1915880Y153700D01*
X1909860Y151740D01*
X1904079Y149100D01*
X1898660Y145840D01*
X1893640Y141960D01*
X1889100Y137540D01*
X1885080Y132640D01*
X1883420Y130060D01*
X1882360Y128940D01*
X1880940Y128320D01*
X1879400Y128280D01*
X1877960Y128820D01*
X1876819Y129880D01*
X1872980Y135140D01*
X1868700Y139820D01*
X1863899Y143980D01*
X1858680Y147540D01*
X1853060Y150500D01*
X1847160Y152800D01*
X1841020Y154420D01*
X1834760Y155320D01*
X1828420Y155500D01*
X1822100Y154960D01*
X1815880Y153700D01*
X1809860Y151740D01*
X1804079Y149100D01*
X1798660Y145840D01*
X1793640Y141960D01*
X1789100Y137540D01*
X1785080Y132640D01*
X1783420Y130060D01*
X1782360Y128940D01*
X1780940Y128320D01*
X1779400Y128280D01*
X1777960Y128820D01*
X1776819Y129880D01*
X1772980Y135140D01*
X1768700Y139820D01*
X1763899Y143980D01*
X1758680Y147540D01*
X1753060Y150500D01*
X1747160Y152800D01*
X1741020Y154420D01*
X1734760Y155320D01*
X1728420Y155500D01*
X1722100Y154960D01*
X1715880Y153700D01*
X1709860Y151740D01*
X1704079Y149100D01*
X1698660Y145840D01*
X1693640Y141960D01*
X1691200Y139580D01*
X1689800Y138700D01*
X1688160Y138460D01*
X1686560Y138900D01*
X1685300Y139940D01*
X1684540Y141420D01*
X1684300Y142300D01*
X1682820Y145480D01*
X1680820Y148340D01*
X1678340Y150820D01*
X1675480Y152820D01*
X1672300Y154300D01*
X1668920Y155220D01*
X1665260Y155540D01*
X1594740Y155540D01*
X1591080Y155220D01*
X1587700Y154300D01*
X1584520Y152820D01*
X1581660Y150820D01*
X1579180Y148340D01*
X1577180Y145480D01*
X1575700Y142300D01*
X1574780Y138920D01*
X1574460Y135260D01*
X1574460Y64740D01*
X1574780Y61080D01*
X1575700Y57699D01*
X1577180Y54520D01*
X1579180Y51660D01*
X1581660Y49180D01*
X1584520Y47180D01*
X1587700Y45700D01*
X1592660Y44380D01*
X1593839Y43500D01*
X1594620Y42240D01*
X1594900Y40780D01*
X1594900Y-3120D01*
X1594560Y-4740D01*
X1593600Y-6080D01*
X1589100Y-10200D01*
X1584820Y-15140D01*
X1581140Y-20520D01*
X1578100Y-26280D01*
X1575740Y-32360D01*
X1574079Y-38660D01*
X1573160Y-45119D01*
X1572960Y-51640D01*
X1573520Y-58120D01*
X1574820Y-64520D01*
X1576840Y-70720D01*
X1579540Y-76640D01*
X1582920Y-82220D01*
X1586900Y-87380D01*
X1591440Y-92060D01*
X1596480Y-96180D01*
X1601960Y-99720D01*
X1607820Y-102600D01*
X1613959Y-104780D01*
X1620300Y-106260D01*
X1626780Y-107000D01*
X1633300Y-107000D01*
X1639780Y-106260D01*
X1646120Y-104780D01*
X1652260Y-102600D01*
X1658120Y-99720D01*
X1663600Y-96180D01*
X1668640Y-92060D01*
X1673180Y-87380D01*
X1676879Y-82620D01*
X1677960Y-81640D01*
X1679319Y-81120D01*
X1680760Y-81120D01*
X1682120Y-81640D01*
X1683200Y-82620D01*
X1686900Y-87380D01*
X1691440Y-92060D01*
X1696480Y-96180D01*
X1701960Y-99720D01*
X1707820Y-102600D01*
X1713959Y-104780D01*
X1720300Y-106260D01*
X1726780Y-107000D01*
X1733300Y-107000D01*
X1739780Y-106260D01*
X1746120Y-104780D01*
X1752260Y-102600D01*
X1758120Y-99720D01*
X1763600Y-96180D01*
X1768640Y-92060D01*
X1773180Y-87380D01*
X1776879Y-82620D01*
X1777960Y-81640D01*
X1779319Y-81120D01*
X1780760Y-81120D01*
X1782120Y-81640D01*
X1783200Y-82620D01*
X1786900Y-87380D01*
X1791440Y-92060D01*
X1796480Y-96180D01*
X1801960Y-99720D01*
X1807820Y-102600D01*
X1813959Y-104780D01*
X1820300Y-106260D01*
X1826780Y-107000D01*
X1833300Y-107000D01*
X1839780Y-106260D01*
X1846120Y-104780D01*
X1852260Y-102600D01*
X1858120Y-99720D01*
X1863600Y-96180D01*
X1868640Y-92060D01*
X1873180Y-87380D01*
X1876879Y-82620D01*
X1877960Y-81640D01*
X1879319Y-81120D01*
X1880760Y-81120D01*
X1882120Y-81640D01*
X1883200Y-82620D01*
X1886900Y-87380D01*
X1891440Y-92060D01*
X1893440Y-93699D01*
X1894520Y-95079D01*
X1894900Y-96800D01*
X1894900Y-299920D01*
X1895000Y-302500D01*
X1895260Y-305000D01*
X1895700Y-307460D01*
X1896320Y-309880D01*
X1897120Y-312260D01*
X1898080Y-314580D01*
X1899199Y-316820D01*
X1900480Y-318980D01*
X1901900Y-321040D01*
X1903480Y-322980D01*
X1905240Y-324860D01*
X1993720Y-413360D01*
X1994600Y-414660D01*
X1994900Y-416200D01*
X1994900Y-479280D01*
X1994520Y-481000D01*
X1993440Y-482380D01*
X1989300Y-485780D01*
X1984680Y-490540D01*
X1980620Y-495760D01*
X1977140Y-501400D01*
X1974319Y-507380D01*
X1972180Y-513640D01*
X1970720Y-520100D01*
X1970000Y-526680D01*
X1970000Y-533320D01*
X1970720Y-539900D01*
X1972180Y-546360D01*
X1974319Y-552620D01*
X1977140Y-558600D01*
X1980620Y-564240D01*
X1984680Y-569460D01*
X1989300Y-574220D01*
X1994420Y-578420D01*
X1999960Y-582040D01*
X2005860Y-585040D01*
X2012060Y-587360D01*
X2018480Y-588980D01*
X2025040Y-589880D01*
X2031660Y-590080D01*
X2038260Y-589520D01*
X2044760Y-588260D01*
X2051080Y-586280D01*
X2057140Y-583620D01*
X2062860Y-580300D01*
X2068200Y-576380D01*
X2073080Y-571900D01*
X2077020Y-567380D01*
X2078420Y-566340D01*
X2080140Y-566000D01*
X2081840Y-566440D01*
X2083180Y-567540D01*
X2084680Y-569460D01*
X2089300Y-574220D01*
X2093440Y-577620D01*
X2094520Y-579000D01*
X2094900Y-580720D01*
X2094900Y-815920D01*
X2094620Y-817360D01*
X2093860Y-818620D01*
X2092640Y-819940D01*
X2089240Y-824760D01*
X2086440Y-829960D01*
X2084319Y-835460D01*
X2082880Y-841200D01*
X2082140Y-847039D01*
X2082140Y-852960D01*
X2082880Y-858800D01*
X2084319Y-864539D01*
X2086440Y-870040D01*
X2089240Y-875240D01*
X2092640Y-880060D01*
X2093860Y-881380D01*
X2094620Y-882640D01*
X2094900Y-884080D01*
X2094900Y-1015920D01*
X2094620Y-1017360D01*
X2093860Y-1018620D01*
X2092640Y-1019940D01*
X2089240Y-1024760D01*
X2086440Y-1029960D01*
X2084319Y-1035460D01*
X2082880Y-1041200D01*
X2082140Y-1047039D01*
X2082140Y-1052960D01*
X2082880Y-1058800D01*
X2084319Y-1064540D01*
X2086440Y-1070040D01*
X2089240Y-1075240D01*
X2092640Y-1080060D01*
X2093860Y-1081380D01*
X2094620Y-1082640D01*
X2094900Y-1084080D01*
X2094900Y-1094900D01*
X2094600Y-1096440D01*
X2093720Y-1097720D01*
X2092440Y-1098600D01*
X2090900Y-1098900D01*
X1951140Y-1098900D01*
X1945760Y-1099260D01*
X1940620Y-1100280D01*
X1935660Y-1101960D01*
X1930960Y-1104280D01*
X1926600Y-1107200D01*
X1922560Y-1110740D01*
X1301740Y-1731560D01*
X1298200Y-1735600D01*
X1295280Y-1739960D01*
X1292960Y-1744660D01*
X1291279Y-1749620D01*
X1290260Y-1754760D01*
X1289900Y-1760140D01*
X1289900Y-1907800D01*
X1289640Y-1909180D01*
X1288920Y-1910400D01*
X1284820Y-1915140D01*
X1283340Y-1917300D01*
X1282240Y-1918400D01*
X1280820Y-1918980D01*
X1279260Y-1918980D01*
X1277840Y-1918400D01*
X1276740Y-1917300D01*
X1275260Y-1915140D01*
X1270980Y-1910200D01*
X1266180Y-1905800D01*
X1260900Y-1901960D01*
X1255240Y-1898760D01*
X1249220Y-1896220D01*
X1242980Y-1894400D01*
X1236540Y-1893280D01*
X1230040Y-1892900D01*
X1223540Y-1893280D01*
X1217100Y-1894400D01*
X1210860Y-1896220D01*
X1204840Y-1898760D01*
X1199180Y-1901960D01*
X1193900Y-1905800D01*
X1189100Y-1910200D01*
X1184820Y-1915140D01*
X1183340Y-1917300D01*
X1182240Y-1918400D01*
X1180820Y-1918980D01*
X1179260Y-1918980D01*
X1177840Y-1918400D01*
X1176740Y-1917300D01*
X1175260Y-1915140D01*
X1170980Y-1910200D01*
X1166180Y-1905800D01*
X1160900Y-1901960D01*
X1155240Y-1898760D01*
X1149220Y-1896220D01*
X1142980Y-1894400D01*
X1136540Y-1893280D01*
X1130040Y-1892900D01*
X1123540Y-1893280D01*
X1117100Y-1894400D01*
X1110860Y-1896220D01*
X1104840Y-1898760D01*
X1099180Y-1901960D01*
X1093900Y-1905800D01*
X1089100Y-1910200D01*
X1084820Y-1915140D01*
X1083340Y-1917300D01*
X1082240Y-1918400D01*
X1080820Y-1918980D01*
X1079260Y-1918980D01*
X1077840Y-1918400D01*
X1076740Y-1917300D01*
X1075260Y-1915140D01*
X1070980Y-1910200D01*
X1066180Y-1905800D01*
X1060900Y-1901960D01*
X1055240Y-1898760D01*
X1049220Y-1896220D01*
X1042980Y-1894400D01*
X1036540Y-1893280D01*
X1030040Y-1892900D01*
X1023540Y-1893280D01*
X1017099Y-1894400D01*
X1010860Y-1896220D01*
X1004840Y-1898760D01*
X999180Y-1901960D01*
X993900Y-1905800D01*
X989100Y-1910200D01*
X984820Y-1915140D01*
X981140Y-1920520D01*
X978100Y-1926279D01*
X975740Y-1932360D01*
X974080Y-1938660D01*
X973160Y-1945120D01*
X972960Y-1951639D01*
X973520Y-1958120D01*
X974820Y-1964520D01*
X976840Y-1970720D01*
X979539Y-1976639D01*
X982920Y-1982220D01*
X986900Y-1987380D01*
X991440Y-1992060D01*
X993439Y-1993700D01*
X994520Y-1995080D01*
X994900Y-1996800D01*
X994900Y-2065240D01*
X994539Y-2066900D01*
X993520Y-2068260D01*
X991300Y-2070180D01*
X987020Y-2074860D01*
X983180Y-2080120D01*
X982039Y-2081180D01*
X980600Y-2081720D01*
X979060Y-2081680D01*
X977640Y-2081060D01*
X976580Y-2079940D01*
X974920Y-2077360D01*
X970900Y-2072460D01*
X966360Y-2068040D01*
X961340Y-2064160D01*
X955920Y-2060900D01*
X950140Y-2058260D01*
X944120Y-2056300D01*
X937900Y-2055040D01*
X931580Y-2054500D01*
X925240Y-2054680D01*
X918980Y-2055580D01*
X912840Y-2057200D01*
X906940Y-2059500D01*
X901320Y-2062460D01*
X896100Y-2066020D01*
X891300Y-2070180D01*
X887020Y-2074860D01*
X883280Y-2079980D01*
X880180Y-2085500D01*
X877700Y-2091339D01*
X875920Y-2097420D01*
X874840Y-2103680D01*
X874479Y-2110000D01*
X874840Y-2116320D01*
X875920Y-2122580D01*
X877700Y-2128660D01*
X880180Y-2134500D01*
X883280Y-2140020D01*
X887020Y-2145140D01*
X891300Y-2149820D01*
X896100Y-2153980D01*
X901320Y-2157560D01*
X906940Y-2160500D01*
X912840Y-2162800D01*
X918980Y-2164420D01*
X925240Y-2165320D01*
X931580Y-2165500D01*
X937900Y-2164960D01*
X944120Y-2163700D01*
X950140Y-2161740D01*
X955920Y-2159100D01*
X961340Y-2155840D01*
X966360Y-2151960D01*
X970900Y-2147540D01*
X974920Y-2142640D01*
X976580Y-2140060D01*
X977640Y-2138940D01*
X979060Y-2138320D01*
X980600Y-2138280D01*
X982039Y-2138820D01*
X983180Y-2139880D01*
X987020Y-2145140D01*
X991300Y-2149820D01*
X996100Y-2153980D01*
X1001320Y-2157560D01*
X1006940Y-2160500D01*
X1012840Y-2162800D01*
X1018980Y-2164420D01*
X1025240Y-2165320D01*
X1031580Y-2165500D01*
X1037900Y-2164960D01*
X1044120Y-2163700D01*
X1050140Y-2161740D01*
X1055920Y-2159100D01*
X1061340Y-2155840D01*
X1066360Y-2151960D01*
X1070900Y-2147540D01*
X1074920Y-2142640D01*
X1076580Y-2140060D01*
X1077640Y-2138940D01*
X1079060Y-2138320D01*
X1080600Y-2138280D01*
X1082040Y-2138820D01*
X1083180Y-2139880D01*
X1087020Y-2145140D01*
X1091300Y-2149820D01*
X1096100Y-2153980D01*
X1101320Y-2157560D01*
X1106940Y-2160500D01*
X1112840Y-2162800D01*
X1118980Y-2164420D01*
X1125240Y-2165320D01*
X1131580Y-2165500D01*
X1137900Y-2164960D01*
X1144120Y-2163700D01*
X1150140Y-2161740D01*
X1155920Y-2159100D01*
X1161340Y-2155840D01*
X1166360Y-2151960D01*
X1170900Y-2147540D01*
X1174920Y-2142640D01*
X1176580Y-2140060D01*
X1177640Y-2138940D01*
X1179060Y-2138320D01*
X1180600Y-2138280D01*
X1182040Y-2138820D01*
X1183180Y-2139880D01*
X1187020Y-2145140D01*
X1191300Y-2149820D01*
X1196100Y-2153980D01*
X1201320Y-2157560D01*
X1206940Y-2160500D01*
X1212840Y-2162800D01*
X1218980Y-2164420D01*
X1225240Y-2165320D01*
X1231580Y-2165500D01*
X1237900Y-2164960D01*
X1244120Y-2163700D01*
X1250140Y-2161740D01*
X1255920Y-2159100D01*
X1261340Y-2155840D01*
X1266360Y-2151960D01*
X1270900Y-2147540D01*
X1274920Y-2142640D01*
X1276580Y-2140060D01*
X1277640Y-2138940D01*
X1279060Y-2138320D01*
X1280600Y-2138280D01*
X1282040Y-2138820D01*
X1283180Y-2139880D01*
X1287020Y-2145140D01*
X1291300Y-2149820D01*
X1296100Y-2153980D01*
X1301320Y-2157560D01*
X1306940Y-2160500D01*
X1312840Y-2162800D01*
X1318980Y-2164420D01*
X1325240Y-2165320D01*
X1331579Y-2165500D01*
X1337900Y-2164960D01*
X1344120Y-2163700D01*
X1350140Y-2161740D01*
X1355920Y-2159100D01*
X1361339Y-2155840D01*
X1366360Y-2151960D01*
X1370900Y-2147540D01*
X1374920Y-2142640D01*
X1378340Y-2137300D01*
X1381140Y-2131620D01*
X1383280Y-2125640D01*
X1384720Y-2119460D01*
X1385440Y-2113160D01*
X1385440Y-2106840D01*
X1384720Y-2100540D01*
X1383280Y-2094360D01*
X1381140Y-2088380D01*
X1378340Y-2082700D01*
X1374920Y-2077360D01*
X1371000Y-2072580D01*
X1370340Y-2071380D01*
X1370100Y-2070040D01*
X1370100Y-1992180D01*
X1370400Y-1990680D01*
X1371240Y-1989400D01*
X1373180Y-1987380D01*
X1377160Y-1982220D01*
X1380540Y-1976639D01*
X1383240Y-1970720D01*
X1385260Y-1964520D01*
X1386560Y-1958120D01*
X1387120Y-1951639D01*
X1386920Y-1945120D01*
X1386000Y-1938660D01*
X1384340Y-1932360D01*
X1381980Y-1926279D01*
X1378940Y-1920520D01*
X1375260Y-1915140D01*
X1371080Y-1910320D01*
X1370360Y-1909100D01*
X1370100Y-1907700D01*
X1370100Y-1778260D01*
X1370400Y-1776740D01*
X1371279Y-1775440D01*
X1966440Y-1180280D01*
X1967740Y-1179400D01*
X1969259Y-1179100D01*
X2090900Y-1179100D01*
X2092440Y-1179400D01*
X2093720Y-1180280D01*
X2094600Y-1181560D01*
X2094900Y-1183100D01*
X2094900Y-1299280D01*
X2094520Y-1301000D01*
X2093440Y-1302380D01*
X2089300Y-1305780D01*
X2084680Y-1310540D01*
X2083180Y-1312460D01*
X2081840Y-1313560D01*
X2080140Y-1314000D01*
X2078420Y-1313660D01*
X2077020Y-1312620D01*
X2073080Y-1308100D01*
X2068200Y-1303620D01*
X2062860Y-1299700D01*
X2057140Y-1296380D01*
X2051080Y-1293720D01*
X2044760Y-1291740D01*
X2038260Y-1290480D01*
X2031660Y-1289920D01*
X2025040Y-1290120D01*
X2018480Y-1291020D01*
X2012060Y-1292640D01*
X2005860Y-1294960D01*
X1999960Y-1297960D01*
X1994420Y-1301579D01*
X1989300Y-1305780D01*
X1984680Y-1310540D01*
X1980620Y-1315760D01*
X1977140Y-1321399D01*
X1974319Y-1327380D01*
X1972180Y-1333640D01*
X1970720Y-1340100D01*
X1970000Y-1346680D01*
X1970000Y-1353320D01*
X1970720Y-1359900D01*
X1972180Y-1366360D01*
X1974319Y-1372620D01*
X1977140Y-1378600D01*
X1980620Y-1384240D01*
X1984680Y-1389460D01*
X1989300Y-1394220D01*
X1994420Y-1398420D01*
X1999960Y-1402040D01*
X2005860Y-1405040D01*
X2012060Y-1407360D01*
X2018480Y-1408980D01*
X2025040Y-1409880D01*
X2028800Y-1410000D01*
X2030280Y-1410320D01*
X2031519Y-1411160D01*
X2115140Y-1494760D01*
X2117020Y-1496519D01*
X2118960Y-1498100D01*
X2121020Y-1499520D01*
X2123180Y-1500800D01*
X2125420Y-1501920D01*
X2127740Y-1502880D01*
X2130120Y-1503680D01*
X2132540Y-1504300D01*
X2135000Y-1504740D01*
X2137500Y-1505000D01*
X2140080Y-1505100D01*
X2219920Y-1505100D01*
X2222500Y-1505000D01*
X2225000Y-1504740D01*
X2227460Y-1504300D01*
X2229880Y-1503680D01*
X2232260Y-1502880D01*
X2234580Y-1501920D01*
X2236820Y-1500800D01*
X2238980Y-1499520D01*
X2241040Y-1498100D01*
X2242980Y-1496519D01*
X2244860Y-1494760D01*
X2304760Y-1434860D01*
X2306520Y-1432980D01*
X2308100Y-1431040D01*
X2309520Y-1428980D01*
X2310800Y-1426819D01*
X2311920Y-1424580D01*
X2312880Y-1422260D01*
X2313680Y-1419880D01*
X2314300Y-1417460D01*
X2314740Y-1415000D01*
X2315000Y-1412500D01*
X2315100Y-1409920D01*
X2315100Y-520080D01*
X2315000Y-517500D01*
X2314740Y-515000D01*
X2314300Y-512540D01*
X2313680Y-510120D01*
X2312880Y-507740D01*
X2311920Y-505420D01*
X2310800Y-503180D01*
X2309520Y-501019D01*
X2308100Y-498960D01*
X2306520Y-497020D01*
X2304760Y-495140D01*
X2066279Y-256640D01*
X2065400Y-255340D01*
X2065100Y-253800D01*
X2065100Y-96860D01*
X2065480Y-95140D01*
X2066560Y-93760D01*
X2068640Y-92060D01*
X2073180Y-87380D01*
X2076879Y-82620D01*
X2077960Y-81640D01*
X2079319Y-81120D01*
X2080760Y-81120D01*
X2082120Y-81640D01*
X2083200Y-82620D01*
X2086900Y-87380D01*
X2091440Y-92060D01*
X2093440Y-93699D01*
X2094520Y-95079D01*
X2094900Y-96800D01*
X2094900Y-129920D01*
X2095000Y-132500D01*
X2095260Y-135000D01*
X2095700Y-137460D01*
X2096320Y-139880D01*
X2097120Y-142260D01*
X2098080Y-144580D01*
X2099200Y-146820D01*
X2100480Y-148980D01*
X2101900Y-151040D01*
X2103480Y-152980D01*
X2105240Y-154860D01*
X2725140Y-774760D01*
X2727020Y-776520D01*
X2728960Y-778100D01*
X2731019Y-779520D01*
X2733180Y-780800D01*
X2735419Y-781919D01*
X2737740Y-782880D01*
X2740120Y-783680D01*
X2742540Y-784300D01*
X2745000Y-784740D01*
X2747500Y-785000D01*
X2750080Y-785100D01*
X3071220Y-785100D01*
X3072840Y-785440D01*
X3074420Y-786660D01*
X3079000Y-790620D01*
X3084020Y-794000D01*
X3088840Y-796460D01*
X3090020Y-797380D01*
X3090779Y-798660D01*
X3091000Y-800140D01*
X3090680Y-801600D01*
X3089860Y-802840D01*
X3088620Y-803680D01*
X3086660Y-804539D01*
X3081460Y-807620D01*
X3076640Y-811300D01*
X3072300Y-815520D01*
X3068480Y-820220D01*
X3065260Y-825340D01*
X3062660Y-830800D01*
X3060720Y-836540D01*
X3059460Y-842460D01*
X3058920Y-848480D01*
X3059100Y-854539D01*
X3060000Y-860520D01*
X3061600Y-866360D01*
X3063880Y-871979D01*
X3066800Y-877280D01*
X3070320Y-882200D01*
X3074420Y-886660D01*
X3079000Y-890620D01*
X3084020Y-894000D01*
X3088840Y-896460D01*
X3090020Y-897380D01*
X3090779Y-898660D01*
X3091000Y-900140D01*
X3090680Y-901600D01*
X3089860Y-902840D01*
X3088620Y-903680D01*
X3086660Y-904539D01*
X3081460Y-907620D01*
X3076640Y-911300D01*
X3072300Y-915520D01*
X3068480Y-920220D01*
X3065260Y-925340D01*
X3062660Y-930800D01*
X3060720Y-936540D01*
X3059460Y-942460D01*
X3058920Y-948480D01*
X3059100Y-954539D01*
X3060000Y-960520D01*
X3061600Y-966360D01*
X3063880Y-971979D01*
X3066800Y-977280D01*
X3070320Y-982200D01*
X3074420Y-986660D01*
X3079000Y-990620D01*
X3084020Y-994000D01*
X3088840Y-996460D01*
X3090020Y-997380D01*
X3090779Y-998660D01*
X3091000Y-1000140D01*
X3090680Y-1001600D01*
X3089860Y-1002840D01*
X3088620Y-1003680D01*
X3086660Y-1004539D01*
X3081460Y-1007620D01*
X3076640Y-1011300D01*
X3072300Y-1015520D01*
X3068480Y-1020220D01*
X3065260Y-1025340D01*
X3062660Y-1030800D01*
X3060720Y-1036540D01*
X3059460Y-1042460D01*
X3058920Y-1048480D01*
X3059100Y-1054540D01*
X3060000Y-1060520D01*
X3061600Y-1066360D01*
X3063880Y-1071980D01*
X3066800Y-1077280D01*
X3070320Y-1082200D01*
X3074420Y-1086660D01*
X3079000Y-1090620D01*
X3084020Y-1094000D01*
X3088840Y-1096460D01*
X3090020Y-1097380D01*
X3090779Y-1098660D01*
X3091000Y-1100140D01*
X3090680Y-1101600D01*
X3089860Y-1102840D01*
X3088620Y-1103680D01*
X3086660Y-1104540D01*
X3081460Y-1107620D01*
X3076640Y-1111300D01*
X3072300Y-1115520D01*
X3068480Y-1120220D01*
X3065260Y-1125340D01*
X3062660Y-1130800D01*
X3060720Y-1136540D01*
X3059460Y-1142460D01*
X3058920Y-1148480D01*
X3059100Y-1154540D01*
X3060000Y-1160520D01*
X3061600Y-1166360D01*
X3063880Y-1171980D01*
X3066800Y-1177280D01*
X3070320Y-1182200D01*
X3074420Y-1186660D01*
X3079000Y-1190620D01*
X3084020Y-1194000D01*
X3088840Y-1196460D01*
X3090020Y-1197380D01*
X3090779Y-1198660D01*
X3091000Y-1200140D01*
X3090680Y-1201600D01*
X3089860Y-1202840D01*
X3088620Y-1203680D01*
X3086660Y-1204540D01*
X3081460Y-1207620D01*
X3076640Y-1211300D01*
X3072300Y-1215520D01*
X3068480Y-1220220D01*
X3065260Y-1225340D01*
X3062660Y-1230800D01*
X3060720Y-1236540D01*
X3059460Y-1242460D01*
X3058920Y-1248480D01*
X3059100Y-1254540D01*
X3060000Y-1260520D01*
X3061600Y-1266360D01*
X3063880Y-1271980D01*
X3066800Y-1277280D01*
X3070320Y-1282200D01*
X3074420Y-1286660D01*
X3079000Y-1290620D01*
X3084020Y-1294000D01*
X3089400Y-1296759D01*
X3095080Y-1298860D01*
X3100960Y-1300280D01*
X3106980Y-1301000D01*
X3113020Y-1301000D01*
X3119040Y-1300280D01*
X3124920Y-1298860D01*
X3130600Y-1296759D01*
X3135980Y-1294000D01*
X3141000Y-1290620D01*
X3145580Y-1286660D01*
X3149680Y-1282200D01*
X3153200Y-1277280D01*
X3156120Y-1271980D01*
X3158399Y-1266360D01*
X3160000Y-1260520D01*
X3160899Y-1254540D01*
X3161019Y-1250160D01*
X3161340Y-1248700D01*
X3162200Y-1247440D01*
X3353080Y-1056560D01*
X3354360Y-1055700D01*
X3355899Y-1055400D01*
X3357440Y-1055700D01*
X3358720Y-1056560D01*
X3359600Y-1057860D01*
X3359900Y-1059400D01*
X3359900Y-1141740D01*
X3359600Y-1143260D01*
X3358720Y-1144560D01*
X3105560Y-1397720D01*
X3104260Y-1398600D01*
X3102740Y-1398899D01*
X3079180Y-1398899D01*
X3075520Y-1399220D01*
X3072140Y-1400120D01*
X3068960Y-1401600D01*
X3066080Y-1403620D01*
X3063620Y-1406080D01*
X3061600Y-1408959D01*
X3060120Y-1412140D01*
X3059220Y-1415520D01*
X3058900Y-1419180D01*
X3058900Y-1480820D01*
X3059220Y-1484480D01*
X3060120Y-1487860D01*
X3061600Y-1491040D01*
X3063620Y-1493920D01*
X3066080Y-1496380D01*
X3068960Y-1498400D01*
X3072140Y-1499880D01*
X3075520Y-1500780D01*
X3079180Y-1501100D01*
X3140820Y-1501100D01*
X3144480Y-1500780D01*
X3147860Y-1499880D01*
X3151040Y-1498400D01*
X3153920Y-1496380D01*
X3156380Y-1493920D01*
X3158399Y-1491040D01*
X3159880Y-1487860D01*
X3160779Y-1484480D01*
X3161100Y-1480820D01*
X3161100Y-1457260D01*
X3161400Y-1455740D01*
X3162280Y-1454440D01*
X3428260Y-1188440D01*
X3431800Y-1184400D01*
X3434720Y-1180040D01*
X3437040Y-1175340D01*
X3438720Y-1170380D01*
X3439740Y-1165240D01*
X3440100Y-1159860D01*
X3440100Y-100140D01*
X3439940Y-97360D01*
X3440100Y-93920D01*
X3440460Y-92440D01*
X3441340Y-91199D01*
X3442620Y-90380D01*
X3444100Y-90100D01*
X3478180Y-90100D01*
X3479820Y-90460D01*
X3481160Y-91440D01*
X3481980Y-92899D01*
X3482140Y-94560D01*
X3481600Y-96160D01*
X3477660Y-100079D01*
X3475640Y-102960D01*
X3474160Y-106140D01*
X3473260Y-109520D01*
X3472940Y-113180D01*
X3472940Y-186820D01*
X3473260Y-190479D01*
X3474160Y-193860D01*
X3475640Y-197040D01*
X3476120Y-197700D01*
X3476760Y-199200D01*
X3476760Y-200799D01*
X3476120Y-202300D01*
X3475640Y-202960D01*
X3474160Y-206140D01*
X3473260Y-209520D01*
X3472940Y-213180D01*
X3472940Y-286820D01*
X3473260Y-290480D01*
X3474160Y-293860D01*
X3475640Y-297040D01*
X3476120Y-297700D01*
X3476760Y-299200D01*
X3476760Y-300800D01*
X3476120Y-302300D01*
X3475640Y-302960D01*
X3474160Y-306140D01*
X3473260Y-309520D01*
X3472940Y-313180D01*
X3472940Y-386820D01*
X3473260Y-390480D01*
X3474160Y-393860D01*
X3475640Y-397040D01*
X3476120Y-397700D01*
X3476760Y-399200D01*
X3476760Y-400800D01*
X3476120Y-402299D01*
X3475640Y-402960D01*
X3474160Y-406140D01*
X3473260Y-409520D01*
X3472940Y-413180D01*
X3472940Y-486820D01*
X3473260Y-490480D01*
X3474160Y-493860D01*
X3475640Y-497040D01*
X3476120Y-497700D01*
X3476760Y-499200D01*
X3476760Y-500800D01*
X3476120Y-502299D01*
X3475640Y-502960D01*
X3474160Y-506140D01*
X3473260Y-509520D01*
X3472940Y-513180D01*
X3472940Y-586820D01*
X3473260Y-590480D01*
X3474160Y-593860D01*
X3475640Y-597040D01*
X3476120Y-597700D01*
X3476760Y-599200D01*
X3476760Y-600800D01*
X3476120Y-602300D01*
X3475640Y-602960D01*
X3474160Y-606140D01*
X3473260Y-609520D01*
X3472940Y-613180D01*
X3472940Y-686820D01*
X3473260Y-690480D01*
X3474160Y-693860D01*
X3475640Y-697039D01*
X3476120Y-697700D01*
X3476760Y-699200D01*
X3476760Y-700800D01*
X3476120Y-702300D01*
X3475640Y-702960D01*
X3474160Y-706140D01*
X3473260Y-709520D01*
X3472940Y-713180D01*
X3472940Y-786820D01*
X3473260Y-790480D01*
X3474160Y-793860D01*
X3475640Y-797039D01*
X3476120Y-797700D01*
X3476760Y-799200D01*
X3476760Y-800800D01*
X3476120Y-802300D01*
X3475640Y-802960D01*
X3474160Y-806140D01*
X3473260Y-809520D01*
X3472940Y-813180D01*
X3472940Y-886820D01*
X3473260Y-890480D01*
X3474160Y-893860D01*
X3475640Y-897039D01*
X3476120Y-897700D01*
X3476760Y-899200D01*
X3476760Y-900800D01*
X3476120Y-902300D01*
X3475640Y-902960D01*
X3474160Y-906140D01*
X3473260Y-909520D01*
X3472940Y-913180D01*
X3472940Y-986820D01*
X3473260Y-990480D01*
X3474160Y-993860D01*
X3475640Y-997039D01*
X3476120Y-997700D01*
X3476760Y-999200D01*
X3476760Y-1000800D01*
X3476120Y-1002300D01*
X3475640Y-1002960D01*
X3474160Y-1006140D01*
X3473260Y-1009520D01*
X3472940Y-1013180D01*
X3472940Y-1086820D01*
X3473260Y-1090480D01*
X3474160Y-1093860D01*
X3475640Y-1097040D01*
X3476120Y-1097700D01*
X3476760Y-1099200D01*
X3476760Y-1100800D01*
X3476120Y-1102300D01*
X3475640Y-1102960D01*
X3474160Y-1106140D01*
X3473260Y-1109520D01*
X3472940Y-1113180D01*
X3472940Y-1186820D01*
X3473260Y-1190480D01*
X3474160Y-1193860D01*
X3475640Y-1197040D01*
X3476120Y-1197700D01*
X3476760Y-1199200D01*
X3476760Y-1200800D01*
X3476120Y-1202300D01*
X3475640Y-1202960D01*
X3474160Y-1206140D01*
X3473260Y-1209520D01*
X3472940Y-1213180D01*
X3472940Y-1286819D01*
X3473260Y-1290480D01*
X3474160Y-1293860D01*
X3475640Y-1297040D01*
X3476120Y-1297700D01*
X3476760Y-1299199D01*
X3476760Y-1300800D01*
X3476120Y-1302300D01*
X3475640Y-1302960D01*
X3474160Y-1306140D01*
X3473260Y-1309520D01*
X3472940Y-1313180D01*
X3472940Y-1386819D01*
X3473260Y-1390480D01*
X3474160Y-1393860D01*
X3475640Y-1397040D01*
X3476120Y-1397700D01*
X3476760Y-1399199D01*
X3476760Y-1400800D01*
X3476120Y-1402300D01*
X3475640Y-1402960D01*
X3474160Y-1406140D01*
X3473260Y-1409520D01*
X3472940Y-1413180D01*
X3472940Y-1486819D01*
X3473260Y-1490480D01*
X3474160Y-1493860D01*
X3475640Y-1497040D01*
X3476120Y-1497700D01*
X3476760Y-1499199D01*
X3476760Y-1500800D01*
X3476120Y-1502300D01*
X3475640Y-1502960D01*
X3474160Y-1506140D01*
X3473260Y-1509520D01*
X3472940Y-1513180D01*
X3472940Y-1586819D01*
X3473260Y-1590480D01*
X3474160Y-1593860D01*
X3475640Y-1597040D01*
X3476120Y-1597700D01*
X3476760Y-1599199D01*
X3476760Y-1600800D01*
X3476120Y-1602300D01*
X3475640Y-1602960D01*
X3474160Y-1606140D01*
X3473260Y-1609520D01*
X3472940Y-1613180D01*
X3472940Y-1686819D01*
X3473260Y-1690480D01*
X3474160Y-1693860D01*
X3475640Y-1697040D01*
X3477660Y-1699920D01*
X3480120Y-1702380D01*
X3483000Y-1704400D01*
X3486180Y-1705880D01*
X3489560Y-1706780D01*
X3493220Y-1707100D01*
X3566860Y-1707100D01*
X3570520Y-1706780D01*
X3573900Y-1705880D01*
X3577080Y-1704400D01*
X3577740Y-1703920D01*
X3579240Y-1703280D01*
X3580840Y-1703280D01*
X3582340Y-1703920D01*
X3583000Y-1704400D01*
X3586180Y-1705880D01*
X3589560Y-1706780D01*
X3593220Y-1707100D01*
X3666860Y-1707100D01*
X3670520Y-1706780D01*
X3673519Y-1705980D01*
X3674900Y-1705860D01*
X3676240Y-1706220D01*
X3677380Y-1707020D01*
X3683720Y-1713360D01*
X3684600Y-1714660D01*
X3684900Y-1716200D01*
X3684900Y-2019920D01*
X3685000Y-2022500D01*
X3685260Y-2025000D01*
X3685700Y-2027460D01*
X3686320Y-2029880D01*
X3687120Y-2032260D01*
X3688080Y-2034580D01*
X3689200Y-2036819D01*
X3690480Y-2038980D01*
X3691900Y-2041040D01*
X3693480Y-2042980D01*
X3695240Y-2044860D01*
X3966480Y-2316120D01*
X3967360Y-2317420D01*
X3967660Y-2318960D01*
X3967360Y-2320480D01*
X3966480Y-2321780D01*
X3965740Y-2322540D01*
X3962000Y-2327300D01*
X3958880Y-2332460D01*
X3956400Y-2337980D01*
X3954600Y-2343760D01*
X3953500Y-2349720D01*
X3953120Y-2355860D01*
X3953120Y-2379460D01*
X3952740Y-2381160D01*
X3951680Y-2382540D01*
X3950120Y-2383340D01*
X3948380Y-2383400D01*
X3946780Y-2382700D01*
X3945620Y-2381400D01*
X3943340Y-2377260D01*
X3939480Y-2371820D01*
X3935040Y-2366860D01*
X3930059Y-2362400D01*
X3924620Y-2358540D01*
X3918800Y-2355320D01*
X3912640Y-2352780D01*
X3906220Y-2350920D01*
X3899640Y-2349800D01*
X3893000Y-2349440D01*
X3886340Y-2349800D01*
X3879760Y-2350920D01*
X3873360Y-2352780D01*
X3867200Y-2355320D01*
X3861360Y-2358540D01*
X3855920Y-2362400D01*
X3850940Y-2366860D01*
X3846500Y-2371820D01*
X3842640Y-2377260D01*
X3839420Y-2383100D01*
X3836860Y-2389260D01*
X3835020Y-2395660D01*
X3833900Y-2402240D01*
X3833519Y-2408900D01*
X3833900Y-2415560D01*
X3835020Y-2422120D01*
X3836860Y-2428540D01*
X3839420Y-2434700D01*
X3842640Y-2440540D01*
X3846500Y-2445980D01*
X3850940Y-2450940D01*
X3855920Y-2455380D01*
X3861360Y-2459240D01*
X3867200Y-2462480D01*
X3873360Y-2465020D01*
X3879760Y-2466880D01*
X3886340Y-2467980D01*
X3893000Y-2468360D01*
X3899640Y-2467980D01*
X3906220Y-2466880D01*
X3912640Y-2465020D01*
X3918800Y-2462480D01*
X3924620Y-2459240D01*
X3930059Y-2455380D01*
X3935040Y-2450940D01*
X3939480Y-2445980D01*
X3943340Y-2440540D01*
X3945620Y-2436400D01*
X3946780Y-2435100D01*
X3948380Y-2434400D01*
X3950120Y-2434460D01*
X3951680Y-2435260D01*
X3952740Y-2436620D01*
X3953120Y-2438340D01*
X3953140Y-2455600D01*
X3953500Y-2461780D01*
X3954600Y-2467740D01*
X3956400Y-2473520D01*
X3958880Y-2479020D01*
X3962000Y-2484200D01*
X3965740Y-2488960D01*
X3970020Y-2493240D01*
X3974780Y-2496980D01*
X3979960Y-2500100D01*
X3985460Y-2502580D01*
X3991240Y-2504380D01*
X3997200Y-2505480D01*
X4003240Y-2505840D01*
X4009260Y-2505480D01*
X4015220Y-2504380D01*
X4021000Y-2502580D01*
X4026500Y-2500100D01*
X4031680Y-2496980D01*
X4036440Y-2493240D01*
X4040720Y-2488960D01*
X4044460Y-2484200D01*
X4047580Y-2479020D01*
X4050059Y-2473520D01*
X4051860Y-2467740D01*
X4052960Y-2461780D01*
X4053340Y-2455620D01*
X4053340Y-2355880D01*
X4052960Y-2349720D01*
X4051860Y-2343760D01*
X4050059Y-2337980D01*
X4047580Y-2332480D01*
X4044460Y-2327300D01*
X4040720Y-2322540D01*
X4039500Y-2321300D01*
X4038639Y-2320020D01*
X4038340Y-2318480D01*
X4038340Y-2303300D01*
X4038240Y-2300720D01*
X4037980Y-2298240D01*
X4037520Y-2295760D01*
X4036900Y-2293340D01*
X4036120Y-2290960D01*
X4035160Y-2288660D01*
X4034040Y-2286400D01*
X4032760Y-2284260D01*
X4031320Y-2282200D01*
X4029760Y-2280240D01*
X4028000Y-2278360D01*
X3756280Y-2006639D01*
X3755400Y-2005340D01*
X3755100Y-2003800D01*
X3755100Y-1883920D01*
X3755440Y-1882340D01*
X3756380Y-1881000D01*
X3757760Y-1880160D01*
X3759380Y-1879940D01*
X3760960Y-1880380D01*
X3762220Y-1881420D01*
X3763480Y-1882980D01*
X3765240Y-1884860D01*
X3835140Y-1954760D01*
X3837020Y-1956519D01*
X3838960Y-1958100D01*
X3841019Y-1959520D01*
X3843180Y-1960800D01*
X3845419Y-1961920D01*
X3847740Y-1962880D01*
X3850120Y-1963680D01*
X3852540Y-1964300D01*
X3855000Y-1964740D01*
X3857500Y-1965000D01*
X3860080Y-1965100D01*
X4038960Y-1965100D01*
X4040460Y-1965400D01*
X4041740Y-1966240D01*
X4042620Y-1967480D01*
X4042940Y-1968980D01*
X4042700Y-1970500D01*
X4041900Y-1971800D01*
X4040680Y-1972720D01*
X4035299Y-1975280D01*
X4030179Y-1978500D01*
X4025480Y-1982320D01*
X4021259Y-1986660D01*
X4017580Y-1991480D01*
X4014500Y-1996680D01*
X4012060Y-2002220D01*
X4010299Y-2008020D01*
X4009240Y-2013980D01*
X4008880Y-2020020D01*
X4009240Y-2026060D01*
X4010299Y-2032020D01*
X4012060Y-2037800D01*
X4014500Y-2043340D01*
X4017580Y-2048560D01*
X4021259Y-2053360D01*
X4025480Y-2057720D01*
X4030179Y-2061519D01*
X4035299Y-2064760D01*
X4040760Y-2067360D01*
X4046500Y-2069300D01*
X4052420Y-2070540D01*
X4058460Y-2071080D01*
X4064500Y-2070900D01*
X4070480Y-2070020D01*
X4076320Y-2068420D01*
X4081940Y-2066140D01*
X4087240Y-2063220D01*
X4092160Y-2059680D01*
X4096620Y-2055600D01*
X4100580Y-2051020D01*
X4103960Y-2046000D01*
X4106440Y-2041180D01*
X4107340Y-2040000D01*
X4108639Y-2039240D01*
X4110100Y-2039000D01*
X4111560Y-2039340D01*
X4112799Y-2040160D01*
X4113660Y-2041399D01*
X4114500Y-2043340D01*
X4117580Y-2048560D01*
X4121259Y-2053360D01*
X4125480Y-2057720D01*
X4130179Y-2061519D01*
X4135299Y-2064760D01*
X4140760Y-2067360D01*
X4146500Y-2069300D01*
X4152420Y-2070540D01*
X4158460Y-2071080D01*
X4164500Y-2070900D01*
X4170480Y-2070020D01*
X4176320Y-2068420D01*
X4181940Y-2066140D01*
X4187240Y-2063220D01*
X4192160Y-2059680D01*
X4196620Y-2055600D01*
X4200580Y-2051020D01*
X4203960Y-2046000D01*
X4206440Y-2041180D01*
X4207340Y-2040000D01*
X4208640Y-2039240D01*
X4210100Y-2039000D01*
X4211560Y-2039340D01*
X4212800Y-2040160D01*
X4213660Y-2041399D01*
X4214500Y-2043340D01*
X4217580Y-2048560D01*
X4221260Y-2053360D01*
X4225480Y-2057720D01*
X4230180Y-2061519D01*
X4235300Y-2064760D01*
X4240760Y-2067360D01*
X4246500Y-2069300D01*
X4252420Y-2070540D01*
X4258460Y-2071080D01*
X4264500Y-2070900D01*
X4270480Y-2070020D01*
X4276320Y-2068420D01*
X4281940Y-2066140D01*
X4287240Y-2063220D01*
X4292160Y-2059680D01*
X4296620Y-2055600D01*
X4300580Y-2051020D01*
X4303960Y-2046000D01*
X4306440Y-2041180D01*
X4307340Y-2040000D01*
X4308640Y-2039240D01*
X4310100Y-2039000D01*
X4311560Y-2039340D01*
X4312800Y-2040160D01*
X4313660Y-2041399D01*
X4314500Y-2043340D01*
X4317580Y-2048560D01*
X4321260Y-2053360D01*
X4325480Y-2057720D01*
X4330180Y-2061519D01*
X4335300Y-2064760D01*
X4340760Y-2067360D01*
X4346500Y-2069300D01*
X4352420Y-2070540D01*
X4358460Y-2071080D01*
X4364500Y-2070900D01*
X4370480Y-2070020D01*
X4376320Y-2068420D01*
X4381940Y-2066140D01*
X4387240Y-2063220D01*
X4392160Y-2059680D01*
X4396620Y-2055600D01*
X4400580Y-2051020D01*
X4403960Y-2046000D01*
X4406440Y-2041180D01*
X4407340Y-2040000D01*
X4408640Y-2039240D01*
X4410100Y-2039000D01*
X4411560Y-2039340D01*
X4412800Y-2040160D01*
X4413660Y-2041399D01*
X4414500Y-2043340D01*
X4417580Y-2048560D01*
X4421260Y-2053360D01*
X4425480Y-2057720D01*
X4430180Y-2061519D01*
X4435300Y-2064760D01*
X4440760Y-2067360D01*
X4446500Y-2069300D01*
X4452420Y-2070540D01*
X4458460Y-2071080D01*
X4464500Y-2070900D01*
X4470480Y-2070020D01*
X4476320Y-2068420D01*
X4481940Y-2066140D01*
X4487240Y-2063220D01*
X4492160Y-2059680D01*
X4496620Y-2055600D01*
X4500580Y-2051020D01*
X4503960Y-2046000D01*
X4506440Y-2041180D01*
X4507340Y-2040000D01*
X4508640Y-2039240D01*
X4510100Y-2039000D01*
X4511560Y-2039340D01*
X4512800Y-2040160D01*
X4513660Y-2041399D01*
X4514500Y-2043340D01*
X4517580Y-2048560D01*
X4521260Y-2053360D01*
X4525480Y-2057720D01*
X4530180Y-2061519D01*
X4535300Y-2064760D01*
X4540760Y-2067360D01*
X4546500Y-2069300D01*
X4552420Y-2070540D01*
X4558460Y-2071080D01*
X4564500Y-2070900D01*
X4570480Y-2070020D01*
X4576320Y-2068420D01*
X4581940Y-2066140D01*
X4587240Y-2063220D01*
X4592160Y-2059680D01*
X4596620Y-2055600D01*
X4600580Y-2051020D01*
X4603960Y-2046000D01*
X4606440Y-2041180D01*
X4607340Y-2040000D01*
X4608640Y-2039240D01*
X4610100Y-2039000D01*
X4611560Y-2039340D01*
X4612800Y-2040160D01*
X4613660Y-2041399D01*
X4614500Y-2043340D01*
X4617580Y-2048560D01*
X4621260Y-2053360D01*
X4625480Y-2057720D01*
X4630180Y-2061519D01*
X4635300Y-2064760D01*
X4640760Y-2067360D01*
X4646500Y-2069300D01*
X4652420Y-2070540D01*
X4658460Y-2071080D01*
X4664500Y-2070900D01*
X4670480Y-2070020D01*
X4676320Y-2068420D01*
X4681940Y-2066140D01*
X4687240Y-2063220D01*
X4692160Y-2059680D01*
X4696620Y-2055600D01*
X4700580Y-2051020D01*
X4701600Y-2049480D01*
X4702780Y-2048340D01*
X4704300Y-2047760D01*
X4705920Y-2047840D01*
X4707380Y-2048560D01*
X4708440Y-2049820D01*
X4708920Y-2051380D01*
X4709180Y-2054500D01*
X4710100Y-2057880D01*
X4711580Y-2061060D01*
X4713580Y-2063920D01*
X4716060Y-2066399D01*
X4718920Y-2068400D01*
X4722100Y-2069880D01*
X4725480Y-2070800D01*
X4729140Y-2071120D01*
X4790800Y-2071120D01*
X4794460Y-2070800D01*
X4797840Y-2069880D01*
X4801000Y-2068400D01*
X4803880Y-2066399D01*
X4806360Y-2063920D01*
X4808360Y-2061060D01*
X4809840Y-2057880D01*
X4810740Y-2054500D01*
X4811060Y-2050840D01*
X4811060Y-1989180D01*
X4810740Y-1985520D01*
X4809840Y-1982140D01*
X4808360Y-1978980D01*
X4806360Y-1976100D01*
X4803880Y-1973620D01*
X4802080Y-1972380D01*
X4800940Y-1971160D01*
X4800400Y-1969560D01*
X4800560Y-1967900D01*
X4801400Y-1966440D01*
X4802740Y-1965460D01*
X4804380Y-1965100D01*
X5048960Y-1965100D01*
X5050460Y-1965400D01*
X5051740Y-1966240D01*
X5052620Y-1967480D01*
X5052940Y-1968980D01*
X5052700Y-1970500D01*
X5051900Y-1971800D01*
X5050680Y-1972720D01*
X5045300Y-1975280D01*
X5040180Y-1978500D01*
X5035480Y-1982320D01*
X5031260Y-1986660D01*
X5027580Y-1991480D01*
X5024500Y-1996680D01*
X5022060Y-2002220D01*
X5020300Y-2008020D01*
X5019240Y-2013980D01*
X5018880Y-2020020D01*
X5019240Y-2026060D01*
X5020300Y-2032020D01*
X5022060Y-2037800D01*
X5024500Y-2043340D01*
X5027580Y-2048560D01*
X5031260Y-2053360D01*
X5035480Y-2057720D01*
X5040180Y-2061519D01*
X5045300Y-2064760D01*
X5050760Y-2067360D01*
X5056500Y-2069300D01*
X5062420Y-2070540D01*
X5068460Y-2071080D01*
X5074500Y-2070900D01*
X5080480Y-2070020D01*
X5086320Y-2068420D01*
X5091940Y-2066140D01*
X5097240Y-2063220D01*
X5102160Y-2059680D01*
X5106620Y-2055600D01*
X5110580Y-2051020D01*
X5113960Y-2046000D01*
X5116440Y-2041180D01*
X5117340Y-2040000D01*
X5118640Y-2039240D01*
X5120100Y-2039000D01*
X5121559Y-2039340D01*
X5122800Y-2040160D01*
X5123660Y-2041399D01*
X5124500Y-2043340D01*
X5127580Y-2048560D01*
X5131260Y-2053360D01*
X5135480Y-2057720D01*
X5140180Y-2061519D01*
X5145300Y-2064760D01*
X5150760Y-2067360D01*
X5156500Y-2069300D01*
X5162420Y-2070540D01*
X5168460Y-2071080D01*
X5174500Y-2070900D01*
X5180480Y-2070020D01*
X5186319Y-2068420D01*
X5191940Y-2066140D01*
X5197240Y-2063220D01*
X5202160Y-2059680D01*
X5206620Y-2055600D01*
X5210580Y-2051020D01*
X5213960Y-2046000D01*
X5216440Y-2041180D01*
X5217340Y-2040000D01*
X5218640Y-2039240D01*
X5220100Y-2039000D01*
X5221559Y-2039340D01*
X5222800Y-2040160D01*
X5223660Y-2041399D01*
X5224500Y-2043340D01*
X5227580Y-2048560D01*
X5231260Y-2053360D01*
X5235480Y-2057720D01*
X5240180Y-2061519D01*
X5245300Y-2064760D01*
X5250760Y-2067360D01*
X5256500Y-2069300D01*
X5262420Y-2070540D01*
X5268460Y-2071080D01*
X5274500Y-2070900D01*
X5280480Y-2070020D01*
X5286319Y-2068420D01*
X5291940Y-2066140D01*
X5297240Y-2063220D01*
X5302160Y-2059680D01*
X5306620Y-2055600D01*
X5310580Y-2051020D01*
X5313960Y-2046000D01*
X5316440Y-2041180D01*
X5317340Y-2040000D01*
X5318640Y-2039240D01*
X5320100Y-2039000D01*
X5321559Y-2039340D01*
X5322800Y-2040160D01*
X5323660Y-2041399D01*
X5324500Y-2043340D01*
X5327580Y-2048560D01*
X5331260Y-2053360D01*
X5335480Y-2057720D01*
X5340180Y-2061519D01*
X5345300Y-2064760D01*
X5350760Y-2067360D01*
X5356500Y-2069300D01*
X5362420Y-2070540D01*
X5368460Y-2071080D01*
X5374500Y-2070900D01*
X5380480Y-2070020D01*
X5386319Y-2068420D01*
X5391940Y-2066140D01*
X5397240Y-2063220D01*
X5402160Y-2059680D01*
X5406620Y-2055600D01*
X5410580Y-2051020D01*
X5413960Y-2046000D01*
X5416440Y-2041180D01*
X5417340Y-2040000D01*
X5418640Y-2039240D01*
X5420100Y-2039000D01*
X5421559Y-2039340D01*
X5422800Y-2040160D01*
X5423660Y-2041399D01*
X5424500Y-2043340D01*
X5427580Y-2048560D01*
X5431260Y-2053360D01*
X5435480Y-2057720D01*
X5440180Y-2061519D01*
X5445300Y-2064760D01*
X5450760Y-2067360D01*
X5456500Y-2069300D01*
X5462420Y-2070540D01*
X5468460Y-2071080D01*
X5474500Y-2070900D01*
X5480480Y-2070020D01*
X5486319Y-2068420D01*
X5491940Y-2066140D01*
X5497240Y-2063220D01*
X5502160Y-2059680D01*
X5506620Y-2055600D01*
X5510580Y-2051020D01*
X5513960Y-2046000D01*
X5516440Y-2041180D01*
X5517340Y-2040000D01*
X5518640Y-2039240D01*
X5520100Y-2039000D01*
X5521559Y-2039340D01*
X5522800Y-2040160D01*
X5523660Y-2041399D01*
X5524500Y-2043340D01*
X5527580Y-2048560D01*
X5531260Y-2053360D01*
X5535480Y-2057720D01*
X5540180Y-2061519D01*
X5545300Y-2064760D01*
X5550760Y-2067360D01*
X5556500Y-2069300D01*
X5562420Y-2070540D01*
X5568460Y-2071080D01*
X5574500Y-2070900D01*
X5580480Y-2070020D01*
X5586319Y-2068420D01*
X5591940Y-2066140D01*
X5597240Y-2063220D01*
X5602160Y-2059680D01*
X5606620Y-2055600D01*
X5610580Y-2051020D01*
X5613960Y-2046000D01*
X5616440Y-2041180D01*
X5617340Y-2040000D01*
X5618640Y-2039240D01*
X5620100Y-2039000D01*
X5621559Y-2039340D01*
X5622800Y-2040160D01*
X5623660Y-2041399D01*
X5624500Y-2043340D01*
X5627580Y-2048560D01*
X5631260Y-2053360D01*
X5635480Y-2057720D01*
X5640180Y-2061519D01*
X5645300Y-2064760D01*
X5650760Y-2067360D01*
X5656500Y-2069300D01*
X5662420Y-2070540D01*
X5668460Y-2071080D01*
X5674500Y-2070900D01*
X5680480Y-2070020D01*
X5686319Y-2068420D01*
X5691940Y-2066140D01*
X5697240Y-2063220D01*
X5702160Y-2059680D01*
X5706620Y-2055600D01*
X5710580Y-2051020D01*
X5711600Y-2049480D01*
X5712780Y-2048340D01*
X5714299Y-2047760D01*
X5715920Y-2047840D01*
X5717380Y-2048560D01*
X5718440Y-2049820D01*
X5718920Y-2051380D01*
X5719180Y-2054500D01*
X5720100Y-2057880D01*
X5721580Y-2061060D01*
X5723579Y-2063920D01*
X5726060Y-2066399D01*
X5728920Y-2068400D01*
X5732100Y-2069880D01*
X5735480Y-2070800D01*
X5739140Y-2071120D01*
X5800900Y-2071120D01*
X5802440Y-2071420D01*
X5803720Y-2072280D01*
X5804600Y-2073580D01*
X5804900Y-2075120D01*
X5804900Y-2099920D01*
X5805000Y-2102500D01*
X5805260Y-2105000D01*
X5805700Y-2107460D01*
X5806319Y-2109880D01*
X5807120Y-2112260D01*
X5808080Y-2114580D01*
X5809200Y-2116820D01*
X5810480Y-2118980D01*
X5811900Y-2121040D01*
X5813480Y-2122980D01*
X5815240Y-2124860D01*
X5843720Y-2153360D01*
X5844600Y-2154660D01*
X5844900Y-2156200D01*
X5844900Y-2345880D01*
X5844680Y-2347220D01*
X5844020Y-2348380D01*
X5840860Y-2352300D01*
X5837760Y-2357320D01*
X5835300Y-2362680D01*
X5833500Y-2368300D01*
X5832420Y-2374100D01*
X5832060Y-2380000D01*
X5832420Y-2385900D01*
X5833500Y-2391700D01*
X5835300Y-2397320D01*
X5837760Y-2402680D01*
X5840860Y-2407700D01*
X5844020Y-2411620D01*
X5844680Y-2412780D01*
X5844900Y-2414120D01*
X5844900Y-2555900D01*
X5844600Y-2557440D01*
X5843720Y-2558720D01*
X5842440Y-2559600D01*
X5840900Y-2559900D01*
X5840180Y-2559900D01*
X5836520Y-2560220D01*
X5833140Y-2561120D01*
X5829960Y-2562600D01*
X5827080Y-2564620D01*
X5824620Y-2567080D01*
X5822600Y-2569960D01*
X5821120Y-2573140D01*
X5820220Y-2576520D01*
X5819900Y-2580179D01*
X5819900Y-2659820D01*
X5820220Y-2663480D01*
X5821120Y-2666860D01*
X5822600Y-2670040D01*
X5824620Y-2672919D01*
X5827080Y-2675380D01*
X5829960Y-2677400D01*
X5833140Y-2678880D01*
X5836520Y-2679780D01*
G37*
G36*
X4828080Y-2367940D02*
G01*
X4835740Y-2367760D01*
X4843320Y-2366840D01*
X4850800Y-2365180D01*
X4858060Y-2362820D01*
X4865080Y-2359780D01*
X4871760Y-2356060D01*
X4878060Y-2351720D01*
X4883900Y-2346780D01*
X4889240Y-2341300D01*
X4894040Y-2335340D01*
X4898220Y-2328940D01*
X4901780Y-2322180D01*
X4904660Y-2315080D01*
X4906860Y-2307760D01*
X4908320Y-2300260D01*
X4909060Y-2292640D01*
X4909060Y-2285000D01*
X4908320Y-2277380D01*
X4906860Y-2269880D01*
X4904660Y-2262540D01*
X4901780Y-2255460D01*
X4898220Y-2248700D01*
X4894040Y-2242300D01*
X4889240Y-2236340D01*
X4883900Y-2230860D01*
X4878060Y-2225920D01*
X4871760Y-2221580D01*
X4865080Y-2217860D01*
X4858060Y-2214820D01*
X4850800Y-2212440D01*
X4843320Y-2210800D01*
X4835740Y-2209880D01*
X4828080Y-2209700D01*
X4820460Y-2210240D01*
X4812920Y-2211540D01*
X4805540Y-2213540D01*
X4798400Y-2216260D01*
X4791540Y-2219640D01*
X4785040Y-2223680D01*
X4778960Y-2228320D01*
X4773360Y-2233540D01*
X4768280Y-2239260D01*
X4763800Y-2245440D01*
X4759920Y-2252040D01*
X4756700Y-2258980D01*
X4754160Y-2266180D01*
X4752320Y-2273620D01*
X4751220Y-2281180D01*
X4750860Y-2288820D01*
X4751220Y-2296460D01*
X4752320Y-2304020D01*
X4754160Y-2311460D01*
X4756700Y-2318660D01*
X4759920Y-2325600D01*
X4763800Y-2332200D01*
X4768280Y-2338380D01*
X4773360Y-2344100D01*
X4778960Y-2349320D01*
X4785040Y-2353960D01*
X4791540Y-2358000D01*
X4798400Y-2361380D01*
X4805540Y-2364100D01*
X4812920Y-2366100D01*
X4820460Y-2367400D01*
G37*
G36*
X1594740Y-2165540D02*
G01*
X1665260Y-2165540D01*
X1668920Y-2165220D01*
X1672300Y-2164300D01*
X1675480Y-2162820D01*
X1678340Y-2160820D01*
X1680820Y-2158340D01*
X1682820Y-2155480D01*
X1684300Y-2152300D01*
X1685220Y-2148920D01*
X1685540Y-2145260D01*
X1685540Y-2074740D01*
X1685220Y-2071080D01*
X1684300Y-2067700D01*
X1682820Y-2064520D01*
X1680820Y-2061660D01*
X1678340Y-2059180D01*
X1675480Y-2057180D01*
X1672400Y-2055740D01*
X1671200Y-2054860D01*
X1670380Y-2053600D01*
X1670100Y-2052120D01*
X1670100Y-1992180D01*
X1670400Y-1990680D01*
X1671240Y-1989400D01*
X1673180Y-1987380D01*
X1677160Y-1982220D01*
X1680540Y-1976639D01*
X1683240Y-1970720D01*
X1685260Y-1964520D01*
X1686560Y-1958120D01*
X1687120Y-1951639D01*
X1686920Y-1945120D01*
X1686000Y-1938660D01*
X1684340Y-1932360D01*
X1681980Y-1926279D01*
X1678940Y-1920520D01*
X1675260Y-1915140D01*
X1670980Y-1910200D01*
X1666180Y-1905800D01*
X1660900Y-1901960D01*
X1655240Y-1898760D01*
X1649220Y-1896220D01*
X1642980Y-1894400D01*
X1636540Y-1893280D01*
X1630040Y-1892900D01*
X1623540Y-1893280D01*
X1617100Y-1894400D01*
X1610860Y-1896220D01*
X1604840Y-1898760D01*
X1599180Y-1901960D01*
X1593899Y-1905800D01*
X1589100Y-1910200D01*
X1584820Y-1915140D01*
X1581140Y-1920520D01*
X1578100Y-1926279D01*
X1575740Y-1932360D01*
X1574079Y-1938660D01*
X1573160Y-1945120D01*
X1572960Y-1951639D01*
X1573520Y-1958120D01*
X1574820Y-1964520D01*
X1576840Y-1970720D01*
X1579540Y-1976639D01*
X1582920Y-1982220D01*
X1586900Y-1987380D01*
X1588760Y-1989319D01*
X1589600Y-1990600D01*
X1589900Y-1992100D01*
X1589900Y-2052120D01*
X1589620Y-2053600D01*
X1588800Y-2054860D01*
X1587600Y-2055740D01*
X1584520Y-2057180D01*
X1581660Y-2059180D01*
X1579180Y-2061660D01*
X1577180Y-2064520D01*
X1575700Y-2067700D01*
X1574780Y-2071080D01*
X1574460Y-2074740D01*
X1574460Y-2145260D01*
X1574780Y-2148920D01*
X1575700Y-2152300D01*
X1577180Y-2155480D01*
X1579180Y-2158340D01*
X1581660Y-2160820D01*
X1584520Y-2162820D01*
X1587700Y-2164300D01*
X1591080Y-2165220D01*
G37*
G36*
X3394740Y-2165540D02*
G01*
X3465260Y-2165540D01*
X3468920Y-2165220D01*
X3472300Y-2164300D01*
X3475480Y-2162820D01*
X3478340Y-2160820D01*
X3480820Y-2158340D01*
X3482820Y-2155480D01*
X3484300Y-2152300D01*
X3485220Y-2148920D01*
X3485539Y-2145260D01*
X3485539Y-2074740D01*
X3485220Y-2071080D01*
X3484300Y-2067700D01*
X3482820Y-2064520D01*
X3480820Y-2061660D01*
X3478340Y-2059180D01*
X3475480Y-2057180D01*
X3472300Y-2055700D01*
X3467340Y-2054379D01*
X3466160Y-2053500D01*
X3465380Y-2052240D01*
X3465100Y-2050780D01*
X3465100Y-1996860D01*
X3465480Y-1995140D01*
X3466560Y-1993760D01*
X3468639Y-1992060D01*
X3473180Y-1987380D01*
X3477160Y-1982220D01*
X3480539Y-1976639D01*
X3483240Y-1970720D01*
X3485260Y-1964520D01*
X3486560Y-1958120D01*
X3487120Y-1951639D01*
X3486920Y-1945120D01*
X3486000Y-1938660D01*
X3484340Y-1932360D01*
X3481980Y-1926279D01*
X3478940Y-1920520D01*
X3475260Y-1915140D01*
X3470980Y-1910200D01*
X3466180Y-1905800D01*
X3460899Y-1901960D01*
X3455240Y-1898760D01*
X3449220Y-1896220D01*
X3442980Y-1894400D01*
X3436540Y-1893280D01*
X3430040Y-1892900D01*
X3423540Y-1893280D01*
X3417100Y-1894400D01*
X3410860Y-1896220D01*
X3404840Y-1898760D01*
X3399180Y-1901960D01*
X3393900Y-1905800D01*
X3389100Y-1910200D01*
X3384820Y-1915140D01*
X3383340Y-1917300D01*
X3382240Y-1918400D01*
X3380820Y-1918980D01*
X3379260Y-1918980D01*
X3377840Y-1918400D01*
X3376740Y-1917300D01*
X3375260Y-1915140D01*
X3370980Y-1910200D01*
X3366180Y-1905800D01*
X3360899Y-1901960D01*
X3355240Y-1898760D01*
X3349220Y-1896220D01*
X3342980Y-1894400D01*
X3336540Y-1893280D01*
X3330040Y-1892900D01*
X3323540Y-1893280D01*
X3317100Y-1894400D01*
X3310860Y-1896220D01*
X3304840Y-1898760D01*
X3299180Y-1901960D01*
X3293900Y-1905800D01*
X3289100Y-1910200D01*
X3284820Y-1915140D01*
X3283340Y-1917300D01*
X3282240Y-1918400D01*
X3280820Y-1918980D01*
X3279260Y-1918980D01*
X3277840Y-1918400D01*
X3276740Y-1917300D01*
X3275260Y-1915140D01*
X3270980Y-1910200D01*
X3266180Y-1905800D01*
X3260899Y-1901960D01*
X3255240Y-1898760D01*
X3249220Y-1896220D01*
X3242980Y-1894400D01*
X3236540Y-1893280D01*
X3230040Y-1892900D01*
X3223540Y-1893280D01*
X3217100Y-1894400D01*
X3210860Y-1896220D01*
X3204840Y-1898760D01*
X3199180Y-1901960D01*
X3193900Y-1905800D01*
X3189100Y-1910200D01*
X3184820Y-1915140D01*
X3183340Y-1917300D01*
X3182240Y-1918400D01*
X3180820Y-1918980D01*
X3179260Y-1918980D01*
X3177840Y-1918400D01*
X3176740Y-1917300D01*
X3175260Y-1915140D01*
X3170980Y-1910200D01*
X3166180Y-1905800D01*
X3160899Y-1901960D01*
X3155240Y-1898760D01*
X3149220Y-1896220D01*
X3142980Y-1894400D01*
X3136540Y-1893280D01*
X3130040Y-1892900D01*
X3123540Y-1893280D01*
X3117100Y-1894400D01*
X3110860Y-1896220D01*
X3104840Y-1898760D01*
X3099180Y-1901960D01*
X3093900Y-1905800D01*
X3089100Y-1910200D01*
X3084820Y-1915140D01*
X3083340Y-1917300D01*
X3082240Y-1918400D01*
X3080820Y-1918980D01*
X3079260Y-1918980D01*
X3077840Y-1918400D01*
X3076740Y-1917300D01*
X3075260Y-1915140D01*
X3070980Y-1910200D01*
X3066180Y-1905800D01*
X3060899Y-1901960D01*
X3055240Y-1898760D01*
X3049220Y-1896220D01*
X3042980Y-1894400D01*
X3036540Y-1893280D01*
X3030040Y-1892900D01*
X3023540Y-1893280D01*
X3017100Y-1894400D01*
X3010860Y-1896220D01*
X3004840Y-1898760D01*
X2999180Y-1901960D01*
X2993900Y-1905800D01*
X2989100Y-1910200D01*
X2984820Y-1915140D01*
X2983340Y-1917300D01*
X2982240Y-1918400D01*
X2980820Y-1918980D01*
X2979260Y-1918980D01*
X2977840Y-1918400D01*
X2976740Y-1917300D01*
X2975260Y-1915140D01*
X2970980Y-1910200D01*
X2966180Y-1905800D01*
X2960899Y-1901960D01*
X2955240Y-1898760D01*
X2949220Y-1896220D01*
X2942980Y-1894400D01*
X2936540Y-1893280D01*
X2930040Y-1892900D01*
X2923540Y-1893280D01*
X2917100Y-1894400D01*
X2910860Y-1896220D01*
X2904840Y-1898760D01*
X2899180Y-1901960D01*
X2893900Y-1905800D01*
X2889100Y-1910200D01*
X2884820Y-1915140D01*
X2883340Y-1917300D01*
X2882240Y-1918400D01*
X2880820Y-1918980D01*
X2879260Y-1918980D01*
X2877840Y-1918400D01*
X2876740Y-1917300D01*
X2875260Y-1915140D01*
X2870980Y-1910200D01*
X2866180Y-1905800D01*
X2860899Y-1901960D01*
X2855240Y-1898760D01*
X2849220Y-1896220D01*
X2842980Y-1894400D01*
X2836540Y-1893280D01*
X2830040Y-1892900D01*
X2823540Y-1893280D01*
X2817100Y-1894400D01*
X2810860Y-1896220D01*
X2804840Y-1898760D01*
X2799180Y-1901960D01*
X2793900Y-1905800D01*
X2789100Y-1910200D01*
X2784820Y-1915140D01*
X2783340Y-1917300D01*
X2782240Y-1918400D01*
X2780820Y-1918980D01*
X2779260Y-1918980D01*
X2777840Y-1918400D01*
X2776740Y-1917300D01*
X2775260Y-1915140D01*
X2770980Y-1910200D01*
X2766180Y-1905800D01*
X2760899Y-1901960D01*
X2755240Y-1898760D01*
X2749220Y-1896220D01*
X2742980Y-1894400D01*
X2736540Y-1893280D01*
X2730040Y-1892900D01*
X2723540Y-1893280D01*
X2717100Y-1894400D01*
X2710860Y-1896220D01*
X2704840Y-1898760D01*
X2699180Y-1901960D01*
X2693900Y-1905800D01*
X2689100Y-1910200D01*
X2684820Y-1915140D01*
X2681139Y-1920520D01*
X2678100Y-1926279D01*
X2675740Y-1932360D01*
X2674080Y-1938660D01*
X2673159Y-1945120D01*
X2672960Y-1951639D01*
X2673519Y-1958120D01*
X2674820Y-1964520D01*
X2676840Y-1970720D01*
X2679540Y-1976639D01*
X2682919Y-1982220D01*
X2686900Y-1987380D01*
X2691440Y-1992060D01*
X2693440Y-1993700D01*
X2694520Y-1995080D01*
X2694900Y-1996800D01*
X2694900Y-2065240D01*
X2694540Y-2066900D01*
X2693519Y-2068260D01*
X2691300Y-2070180D01*
X2687020Y-2074860D01*
X2683279Y-2079980D01*
X2680179Y-2085500D01*
X2677700Y-2091339D01*
X2675920Y-2097420D01*
X2674840Y-2103680D01*
X2674480Y-2110000D01*
X2674840Y-2116320D01*
X2675920Y-2122580D01*
X2677700Y-2128660D01*
X2680179Y-2134500D01*
X2683279Y-2140020D01*
X2687020Y-2145140D01*
X2691300Y-2149820D01*
X2696100Y-2153980D01*
X2701320Y-2157560D01*
X2706940Y-2160500D01*
X2712840Y-2162800D01*
X2718980Y-2164420D01*
X2725240Y-2165320D01*
X2731580Y-2165500D01*
X2737900Y-2164960D01*
X2744120Y-2163700D01*
X2750140Y-2161740D01*
X2755920Y-2159100D01*
X2761340Y-2155840D01*
X2766360Y-2151960D01*
X2770899Y-2147540D01*
X2774920Y-2142640D01*
X2776580Y-2140060D01*
X2777640Y-2138940D01*
X2779060Y-2138320D01*
X2780600Y-2138280D01*
X2782040Y-2138820D01*
X2783180Y-2139880D01*
X2787020Y-2145140D01*
X2791300Y-2149820D01*
X2796100Y-2153980D01*
X2801320Y-2157560D01*
X2806940Y-2160500D01*
X2812840Y-2162800D01*
X2818980Y-2164420D01*
X2825240Y-2165320D01*
X2831580Y-2165500D01*
X2837900Y-2164960D01*
X2844120Y-2163700D01*
X2850140Y-2161740D01*
X2855920Y-2159100D01*
X2861340Y-2155840D01*
X2866360Y-2151960D01*
X2870899Y-2147540D01*
X2874920Y-2142640D01*
X2876580Y-2140060D01*
X2877640Y-2138940D01*
X2879060Y-2138320D01*
X2880600Y-2138280D01*
X2882040Y-2138820D01*
X2883180Y-2139880D01*
X2887020Y-2145140D01*
X2891300Y-2149820D01*
X2896100Y-2153980D01*
X2901320Y-2157560D01*
X2906940Y-2160500D01*
X2912840Y-2162800D01*
X2918980Y-2164420D01*
X2925240Y-2165320D01*
X2931580Y-2165500D01*
X2937900Y-2164960D01*
X2944120Y-2163700D01*
X2950140Y-2161740D01*
X2955920Y-2159100D01*
X2961340Y-2155840D01*
X2966360Y-2151960D01*
X2970899Y-2147540D01*
X2974920Y-2142640D01*
X2976580Y-2140060D01*
X2977640Y-2138940D01*
X2979060Y-2138320D01*
X2980600Y-2138280D01*
X2982040Y-2138820D01*
X2983180Y-2139880D01*
X2987020Y-2145140D01*
X2991300Y-2149820D01*
X2996100Y-2153980D01*
X3001320Y-2157560D01*
X3006940Y-2160500D01*
X3012840Y-2162800D01*
X3018980Y-2164420D01*
X3025240Y-2165320D01*
X3031580Y-2165500D01*
X3037900Y-2164960D01*
X3044120Y-2163700D01*
X3050140Y-2161740D01*
X3055920Y-2159100D01*
X3061340Y-2155840D01*
X3066360Y-2151960D01*
X3070899Y-2147540D01*
X3074920Y-2142640D01*
X3076580Y-2140060D01*
X3077640Y-2138940D01*
X3079060Y-2138320D01*
X3080600Y-2138280D01*
X3082040Y-2138820D01*
X3083180Y-2139880D01*
X3087020Y-2145140D01*
X3091300Y-2149820D01*
X3096100Y-2153980D01*
X3101320Y-2157560D01*
X3106940Y-2160500D01*
X3112840Y-2162800D01*
X3118980Y-2164420D01*
X3125240Y-2165320D01*
X3131580Y-2165500D01*
X3137900Y-2164960D01*
X3144120Y-2163700D01*
X3150140Y-2161740D01*
X3155920Y-2159100D01*
X3161340Y-2155840D01*
X3166360Y-2151960D01*
X3170899Y-2147540D01*
X3174920Y-2142640D01*
X3176580Y-2140060D01*
X3177640Y-2138940D01*
X3179060Y-2138320D01*
X3180600Y-2138280D01*
X3182040Y-2138820D01*
X3183180Y-2139880D01*
X3187020Y-2145140D01*
X3191300Y-2149820D01*
X3196100Y-2153980D01*
X3201320Y-2157560D01*
X3206940Y-2160500D01*
X3212840Y-2162800D01*
X3218980Y-2164420D01*
X3225240Y-2165320D01*
X3231580Y-2165500D01*
X3237900Y-2164960D01*
X3244120Y-2163700D01*
X3250140Y-2161740D01*
X3255920Y-2159100D01*
X3261340Y-2155840D01*
X3266360Y-2151960D01*
X3270899Y-2147540D01*
X3274920Y-2142640D01*
X3276580Y-2140060D01*
X3277640Y-2138940D01*
X3279060Y-2138320D01*
X3280600Y-2138280D01*
X3282040Y-2138820D01*
X3283180Y-2139880D01*
X3287020Y-2145140D01*
X3291300Y-2149820D01*
X3296100Y-2153980D01*
X3301320Y-2157560D01*
X3306940Y-2160500D01*
X3312840Y-2162800D01*
X3318980Y-2164420D01*
X3325240Y-2165320D01*
X3331580Y-2165500D01*
X3337900Y-2164960D01*
X3344120Y-2163700D01*
X3350140Y-2161740D01*
X3355920Y-2159100D01*
X3361340Y-2155840D01*
X3366360Y-2151960D01*
X3368800Y-2149580D01*
X3370200Y-2148700D01*
X3371840Y-2148460D01*
X3373440Y-2148900D01*
X3374700Y-2149940D01*
X3375460Y-2151420D01*
X3375700Y-2152300D01*
X3377180Y-2155480D01*
X3379180Y-2158340D01*
X3381660Y-2160820D01*
X3384520Y-2162820D01*
X3387700Y-2164300D01*
X3391080Y-2165220D01*
G37*
G36*
X2494740Y-2165540D02*
G01*
X2565260Y-2165540D01*
X2568920Y-2165220D01*
X2572300Y-2164300D01*
X2575480Y-2162820D01*
X2578340Y-2160820D01*
X2580820Y-2158340D01*
X2582820Y-2155480D01*
X2584300Y-2152300D01*
X2585220Y-2148920D01*
X2585539Y-2145260D01*
X2585539Y-2074740D01*
X2585220Y-2071080D01*
X2584300Y-2067700D01*
X2582820Y-2064520D01*
X2580820Y-2061660D01*
X2578340Y-2059180D01*
X2575480Y-2057180D01*
X2572300Y-2055700D01*
X2567340Y-2054379D01*
X2566160Y-2053500D01*
X2565380Y-2052240D01*
X2565100Y-2050780D01*
X2565100Y-1996860D01*
X2565480Y-1995140D01*
X2566560Y-1993760D01*
X2568639Y-1992060D01*
X2573180Y-1987380D01*
X2577160Y-1982220D01*
X2580539Y-1976639D01*
X2583240Y-1970720D01*
X2585260Y-1964520D01*
X2586560Y-1958120D01*
X2587120Y-1951639D01*
X2586920Y-1945120D01*
X2586000Y-1938660D01*
X2584340Y-1932360D01*
X2581980Y-1926279D01*
X2578940Y-1920520D01*
X2575260Y-1915140D01*
X2570980Y-1910200D01*
X2566180Y-1905800D01*
X2560899Y-1901960D01*
X2555240Y-1898760D01*
X2549220Y-1896220D01*
X2542980Y-1894400D01*
X2536540Y-1893280D01*
X2530040Y-1892900D01*
X2523540Y-1893280D01*
X2517100Y-1894400D01*
X2510860Y-1896220D01*
X2504840Y-1898760D01*
X2499180Y-1901960D01*
X2493900Y-1905800D01*
X2489100Y-1910200D01*
X2484820Y-1915140D01*
X2483340Y-1917300D01*
X2482240Y-1918400D01*
X2480820Y-1918980D01*
X2479260Y-1918980D01*
X2477840Y-1918400D01*
X2476740Y-1917300D01*
X2475260Y-1915140D01*
X2470980Y-1910200D01*
X2466180Y-1905800D01*
X2460900Y-1901960D01*
X2455240Y-1898760D01*
X2449220Y-1896220D01*
X2442980Y-1894400D01*
X2436540Y-1893280D01*
X2430040Y-1892900D01*
X2423540Y-1893280D01*
X2417100Y-1894400D01*
X2410860Y-1896220D01*
X2404840Y-1898760D01*
X2399180Y-1901960D01*
X2393900Y-1905800D01*
X2389100Y-1910200D01*
X2384820Y-1915140D01*
X2383340Y-1917300D01*
X2382240Y-1918400D01*
X2380820Y-1918980D01*
X2379260Y-1918980D01*
X2377840Y-1918400D01*
X2376740Y-1917300D01*
X2375260Y-1915140D01*
X2370980Y-1910200D01*
X2366180Y-1905800D01*
X2360900Y-1901960D01*
X2355240Y-1898760D01*
X2349220Y-1896220D01*
X2342980Y-1894400D01*
X2336540Y-1893280D01*
X2330040Y-1892900D01*
X2323540Y-1893280D01*
X2317100Y-1894400D01*
X2310860Y-1896220D01*
X2304840Y-1898760D01*
X2299180Y-1901960D01*
X2293900Y-1905800D01*
X2289100Y-1910200D01*
X2284820Y-1915140D01*
X2283340Y-1917300D01*
X2282240Y-1918400D01*
X2280820Y-1918980D01*
X2279260Y-1918980D01*
X2277840Y-1918400D01*
X2276740Y-1917300D01*
X2275260Y-1915140D01*
X2270980Y-1910200D01*
X2266180Y-1905800D01*
X2260900Y-1901960D01*
X2255240Y-1898760D01*
X2249220Y-1896220D01*
X2242980Y-1894400D01*
X2236540Y-1893280D01*
X2230040Y-1892900D01*
X2223540Y-1893280D01*
X2217100Y-1894400D01*
X2210860Y-1896220D01*
X2204840Y-1898760D01*
X2199180Y-1901960D01*
X2193900Y-1905800D01*
X2189100Y-1910200D01*
X2184820Y-1915140D01*
X2183340Y-1917300D01*
X2182240Y-1918400D01*
X2180820Y-1918980D01*
X2179260Y-1918980D01*
X2177840Y-1918400D01*
X2176740Y-1917300D01*
X2175260Y-1915140D01*
X2170980Y-1910200D01*
X2166180Y-1905800D01*
X2160900Y-1901960D01*
X2155240Y-1898760D01*
X2149220Y-1896220D01*
X2142980Y-1894400D01*
X2136540Y-1893280D01*
X2130040Y-1892900D01*
X2123540Y-1893280D01*
X2117100Y-1894400D01*
X2110860Y-1896220D01*
X2104840Y-1898760D01*
X2099180Y-1901960D01*
X2093899Y-1905800D01*
X2089100Y-1910200D01*
X2084820Y-1915140D01*
X2083340Y-1917300D01*
X2082240Y-1918400D01*
X2080820Y-1918980D01*
X2079259Y-1918980D01*
X2077840Y-1918400D01*
X2076740Y-1917300D01*
X2075260Y-1915140D01*
X2070980Y-1910200D01*
X2066180Y-1905800D01*
X2060900Y-1901960D01*
X2055240Y-1898760D01*
X2049220Y-1896220D01*
X2042980Y-1894400D01*
X2036540Y-1893280D01*
X2030040Y-1892900D01*
X2023540Y-1893280D01*
X2017100Y-1894400D01*
X2010860Y-1896220D01*
X2004840Y-1898760D01*
X1999180Y-1901960D01*
X1993899Y-1905800D01*
X1989100Y-1910200D01*
X1984820Y-1915140D01*
X1983340Y-1917300D01*
X1982240Y-1918400D01*
X1980820Y-1918980D01*
X1979259Y-1918980D01*
X1977840Y-1918400D01*
X1976740Y-1917300D01*
X1975260Y-1915140D01*
X1970980Y-1910200D01*
X1966180Y-1905800D01*
X1960900Y-1901960D01*
X1955240Y-1898760D01*
X1949220Y-1896220D01*
X1942980Y-1894400D01*
X1936540Y-1893280D01*
X1930040Y-1892900D01*
X1923540Y-1893280D01*
X1917100Y-1894400D01*
X1910860Y-1896220D01*
X1904840Y-1898760D01*
X1899180Y-1901960D01*
X1893899Y-1905800D01*
X1889100Y-1910200D01*
X1884820Y-1915140D01*
X1883340Y-1917300D01*
X1882240Y-1918400D01*
X1880820Y-1918980D01*
X1879259Y-1918980D01*
X1877840Y-1918400D01*
X1876740Y-1917300D01*
X1875260Y-1915140D01*
X1870980Y-1910200D01*
X1866180Y-1905800D01*
X1860900Y-1901960D01*
X1855240Y-1898760D01*
X1849220Y-1896220D01*
X1842980Y-1894400D01*
X1836540Y-1893280D01*
X1830040Y-1892900D01*
X1823540Y-1893280D01*
X1817100Y-1894400D01*
X1810860Y-1896220D01*
X1804840Y-1898760D01*
X1799180Y-1901960D01*
X1793899Y-1905800D01*
X1789100Y-1910200D01*
X1784820Y-1915140D01*
X1781140Y-1920520D01*
X1778100Y-1926279D01*
X1775740Y-1932360D01*
X1774079Y-1938660D01*
X1773160Y-1945120D01*
X1772960Y-1951639D01*
X1773520Y-1958120D01*
X1774820Y-1964520D01*
X1776840Y-1970720D01*
X1779540Y-1976639D01*
X1782920Y-1982220D01*
X1786900Y-1987380D01*
X1791440Y-1992060D01*
X1793440Y-1993700D01*
X1794520Y-1995080D01*
X1794900Y-1996800D01*
X1794900Y-2065240D01*
X1794540Y-2066900D01*
X1793520Y-2068260D01*
X1791300Y-2070180D01*
X1787020Y-2074860D01*
X1783280Y-2079980D01*
X1780180Y-2085500D01*
X1777700Y-2091339D01*
X1775920Y-2097420D01*
X1774840Y-2103680D01*
X1774480Y-2110000D01*
X1774840Y-2116320D01*
X1775920Y-2122580D01*
X1777700Y-2128660D01*
X1780180Y-2134500D01*
X1783280Y-2140020D01*
X1787020Y-2145140D01*
X1791300Y-2149820D01*
X1796100Y-2153980D01*
X1801320Y-2157560D01*
X1806940Y-2160500D01*
X1812840Y-2162800D01*
X1818980Y-2164420D01*
X1825240Y-2165320D01*
X1831579Y-2165500D01*
X1837900Y-2164960D01*
X1844120Y-2163700D01*
X1850140Y-2161740D01*
X1855920Y-2159100D01*
X1861339Y-2155840D01*
X1866360Y-2151960D01*
X1870900Y-2147540D01*
X1874920Y-2142640D01*
X1876579Y-2140060D01*
X1877640Y-2138940D01*
X1879060Y-2138320D01*
X1880600Y-2138280D01*
X1882040Y-2138820D01*
X1883180Y-2139880D01*
X1887020Y-2145140D01*
X1891300Y-2149820D01*
X1896100Y-2153980D01*
X1901320Y-2157560D01*
X1906940Y-2160500D01*
X1912840Y-2162800D01*
X1918980Y-2164420D01*
X1925240Y-2165320D01*
X1931579Y-2165500D01*
X1937900Y-2164960D01*
X1944120Y-2163700D01*
X1950140Y-2161740D01*
X1955920Y-2159100D01*
X1961339Y-2155840D01*
X1966360Y-2151960D01*
X1970900Y-2147540D01*
X1974920Y-2142640D01*
X1976579Y-2140060D01*
X1977640Y-2138940D01*
X1979060Y-2138320D01*
X1980600Y-2138280D01*
X1982040Y-2138820D01*
X1983180Y-2139880D01*
X1987020Y-2145140D01*
X1991300Y-2149820D01*
X1996100Y-2153980D01*
X2001320Y-2157560D01*
X2006940Y-2160500D01*
X2012840Y-2162800D01*
X2018980Y-2164420D01*
X2025240Y-2165320D01*
X2031579Y-2165500D01*
X2037900Y-2164960D01*
X2044120Y-2163700D01*
X2050140Y-2161740D01*
X2055920Y-2159100D01*
X2061339Y-2155840D01*
X2066360Y-2151960D01*
X2070900Y-2147540D01*
X2074920Y-2142640D01*
X2076579Y-2140060D01*
X2077640Y-2138940D01*
X2079060Y-2138320D01*
X2080600Y-2138280D01*
X2082040Y-2138820D01*
X2083180Y-2139880D01*
X2087020Y-2145140D01*
X2091300Y-2149820D01*
X2096100Y-2153980D01*
X2101320Y-2157560D01*
X2106940Y-2160500D01*
X2112840Y-2162800D01*
X2118980Y-2164420D01*
X2125240Y-2165320D01*
X2131580Y-2165500D01*
X2137900Y-2164960D01*
X2144120Y-2163700D01*
X2150140Y-2161740D01*
X2155920Y-2159100D01*
X2161340Y-2155840D01*
X2166360Y-2151960D01*
X2170900Y-2147540D01*
X2174920Y-2142640D01*
X2176580Y-2140060D01*
X2177640Y-2138940D01*
X2179060Y-2138320D01*
X2180600Y-2138280D01*
X2182040Y-2138820D01*
X2183180Y-2139880D01*
X2187020Y-2145140D01*
X2191300Y-2149820D01*
X2196100Y-2153980D01*
X2201320Y-2157560D01*
X2206940Y-2160500D01*
X2212840Y-2162800D01*
X2218980Y-2164420D01*
X2225240Y-2165320D01*
X2231580Y-2165500D01*
X2237900Y-2164960D01*
X2244120Y-2163700D01*
X2250140Y-2161740D01*
X2255920Y-2159100D01*
X2261340Y-2155840D01*
X2266360Y-2151960D01*
X2270900Y-2147540D01*
X2274920Y-2142640D01*
X2276580Y-2140060D01*
X2277640Y-2138940D01*
X2279060Y-2138320D01*
X2280600Y-2138280D01*
X2282040Y-2138820D01*
X2283180Y-2139880D01*
X2287020Y-2145140D01*
X2291300Y-2149820D01*
X2296100Y-2153980D01*
X2301320Y-2157560D01*
X2306940Y-2160500D01*
X2312840Y-2162800D01*
X2318980Y-2164420D01*
X2325240Y-2165320D01*
X2331580Y-2165500D01*
X2337900Y-2164960D01*
X2344120Y-2163700D01*
X2350140Y-2161740D01*
X2355920Y-2159100D01*
X2361340Y-2155840D01*
X2366360Y-2151960D01*
X2370900Y-2147540D01*
X2374920Y-2142640D01*
X2376580Y-2140060D01*
X2377640Y-2138940D01*
X2379060Y-2138320D01*
X2380600Y-2138280D01*
X2382040Y-2138820D01*
X2383180Y-2139880D01*
X2387020Y-2145140D01*
X2391300Y-2149820D01*
X2396100Y-2153980D01*
X2401320Y-2157560D01*
X2406940Y-2160500D01*
X2412840Y-2162800D01*
X2418980Y-2164420D01*
X2425240Y-2165320D01*
X2431580Y-2165500D01*
X2437900Y-2164960D01*
X2444120Y-2163700D01*
X2450140Y-2161740D01*
X2455920Y-2159100D01*
X2461340Y-2155840D01*
X2466360Y-2151960D01*
X2468800Y-2149580D01*
X2470200Y-2148700D01*
X2471840Y-2148460D01*
X2473440Y-2148900D01*
X2474700Y-2149940D01*
X2475460Y-2151420D01*
X2475700Y-2152300D01*
X2477180Y-2155480D01*
X2479180Y-2158340D01*
X2481660Y-2160820D01*
X2484520Y-2162820D01*
X2487700Y-2164300D01*
X2491080Y-2165220D01*
G37*
G36*
X6278520Y-1707920D02*
G01*
X6284420Y-1707740D01*
X6290260Y-1706840D01*
X6295940Y-1705220D01*
X6301360Y-1702920D01*
X6306480Y-1699960D01*
X6311200Y-1696399D01*
X6315420Y-1692300D01*
X6319140Y-1687700D01*
X6322240Y-1682680D01*
X6324700Y-1677320D01*
X6326500Y-1671699D01*
X6327580Y-1665900D01*
X6327940Y-1660000D01*
X6327580Y-1654100D01*
X6326500Y-1648300D01*
X6324700Y-1642680D01*
X6322240Y-1637320D01*
X6319140Y-1632300D01*
X6315420Y-1627700D01*
X6311200Y-1623600D01*
X6306480Y-1620040D01*
X6301360Y-1617080D01*
X6295940Y-1614780D01*
X6290260Y-1613160D01*
X6284420Y-1612260D01*
X6278520Y-1612080D01*
X6272640Y-1612620D01*
X6266880Y-1613880D01*
X6261319Y-1615840D01*
X6256020Y-1618480D01*
X6251100Y-1621740D01*
X6246620Y-1625580D01*
X6242640Y-1629940D01*
X6239240Y-1634760D01*
X6236440Y-1639960D01*
X6234320Y-1645460D01*
X6232880Y-1651200D01*
X6232140Y-1657040D01*
X6232140Y-1662960D01*
X6232880Y-1668800D01*
X6234320Y-1674540D01*
X6236440Y-1680040D01*
X6239240Y-1685240D01*
X6242640Y-1690060D01*
X6246620Y-1694420D01*
X6251100Y-1698260D01*
X6256020Y-1701519D01*
X6261319Y-1704160D01*
X6266880Y-1706120D01*
X6272640Y-1707380D01*
G37*
G36*
X6478520Y-1707920D02*
G01*
X6484420Y-1707740D01*
X6490260Y-1706840D01*
X6495940Y-1705220D01*
X6501360Y-1702920D01*
X6506480Y-1699960D01*
X6511200Y-1696399D01*
X6515420Y-1692300D01*
X6519140Y-1687700D01*
X6522240Y-1682680D01*
X6524700Y-1677320D01*
X6526500Y-1671699D01*
X6527580Y-1665900D01*
X6527940Y-1660000D01*
X6527580Y-1654100D01*
X6526500Y-1648300D01*
X6524700Y-1642680D01*
X6522240Y-1637320D01*
X6519140Y-1632300D01*
X6515420Y-1627700D01*
X6511200Y-1623600D01*
X6506480Y-1620040D01*
X6501360Y-1617080D01*
X6495940Y-1614780D01*
X6490260Y-1613160D01*
X6484420Y-1612260D01*
X6478520Y-1612080D01*
X6472640Y-1612620D01*
X6466880Y-1613880D01*
X6461319Y-1615840D01*
X6456020Y-1618480D01*
X6451100Y-1621740D01*
X6446620Y-1625580D01*
X6442640Y-1629940D01*
X6439240Y-1634760D01*
X6436440Y-1639960D01*
X6434320Y-1645460D01*
X6432880Y-1651200D01*
X6432140Y-1657040D01*
X6432140Y-1662960D01*
X6432880Y-1668800D01*
X6434320Y-1674540D01*
X6436440Y-1680040D01*
X6439240Y-1685240D01*
X6442640Y-1690060D01*
X6446620Y-1694420D01*
X6451100Y-1698260D01*
X6456020Y-1701519D01*
X6461319Y-1704160D01*
X6466880Y-1706120D01*
X6472640Y-1707380D01*
G37*
G36*
X5468520Y-1707920D02*
G01*
X5474420Y-1707740D01*
X5480260Y-1706840D01*
X5485940Y-1705220D01*
X5491360Y-1702920D01*
X5496480Y-1699960D01*
X5501200Y-1696399D01*
X5505420Y-1692300D01*
X5509140Y-1687700D01*
X5512240Y-1682680D01*
X5514700Y-1677320D01*
X5516500Y-1671699D01*
X5517580Y-1665900D01*
X5517940Y-1660000D01*
X5517580Y-1654100D01*
X5516500Y-1648300D01*
X5514700Y-1642680D01*
X5512240Y-1637320D01*
X5509140Y-1632300D01*
X5505420Y-1627700D01*
X5501200Y-1623600D01*
X5496480Y-1620040D01*
X5491360Y-1617080D01*
X5485940Y-1614780D01*
X5480260Y-1613160D01*
X5474420Y-1612260D01*
X5468520Y-1612080D01*
X5462640Y-1612620D01*
X5456880Y-1613880D01*
X5451319Y-1615840D01*
X5446020Y-1618480D01*
X5441100Y-1621740D01*
X5436620Y-1625580D01*
X5432640Y-1629940D01*
X5429240Y-1634760D01*
X5426440Y-1639960D01*
X5424320Y-1645460D01*
X5422880Y-1651200D01*
X5422140Y-1657040D01*
X5422140Y-1662960D01*
X5422880Y-1668800D01*
X5424320Y-1674540D01*
X5426440Y-1680040D01*
X5429240Y-1685240D01*
X5432640Y-1690060D01*
X5436620Y-1694420D01*
X5441100Y-1698260D01*
X5446020Y-1701519D01*
X5451319Y-1704160D01*
X5456880Y-1706120D01*
X5462640Y-1707380D01*
G37*
G36*
X4261480Y-1697920D02*
G01*
X4267360Y-1697380D01*
X4273120Y-1696120D01*
X4278680Y-1694160D01*
X4283980Y-1691519D01*
X4288900Y-1688260D01*
X4293380Y-1684420D01*
X4297360Y-1680060D01*
X4300760Y-1675240D01*
X4303560Y-1670040D01*
X4305680Y-1664540D01*
X4307120Y-1658800D01*
X4307860Y-1652960D01*
X4307860Y-1647040D01*
X4307120Y-1641200D01*
X4305680Y-1635460D01*
X4303560Y-1629960D01*
X4300760Y-1624760D01*
X4297360Y-1619940D01*
X4293380Y-1615580D01*
X4288900Y-1611740D01*
X4283980Y-1608480D01*
X4278680Y-1605840D01*
X4273120Y-1603880D01*
X4267360Y-1602620D01*
X4261480Y-1602080D01*
X4255580Y-1602260D01*
X4249740Y-1603160D01*
X4244060Y-1604780D01*
X4238640Y-1607080D01*
X4233520Y-1610040D01*
X4228800Y-1613600D01*
X4224580Y-1617700D01*
X4220860Y-1622300D01*
X4217760Y-1627320D01*
X4215300Y-1632680D01*
X4213500Y-1638300D01*
X4212420Y-1644100D01*
X4212060Y-1650000D01*
X4212420Y-1655900D01*
X4213500Y-1661699D01*
X4215300Y-1667320D01*
X4217760Y-1672680D01*
X4220860Y-1677700D01*
X4224580Y-1682300D01*
X4228800Y-1686399D01*
X4233520Y-1689960D01*
X4238640Y-1692920D01*
X4244060Y-1695220D01*
X4249740Y-1696840D01*
X4255580Y-1697740D01*
G37*
G36*
X659180Y-1501100D02*
G01*
X720819Y-1501100D01*
X724479Y-1500780D01*
X727860Y-1499880D01*
X731040Y-1498400D01*
X733920Y-1496380D01*
X736380Y-1493920D01*
X738400Y-1491040D01*
X739880Y-1487860D01*
X740780Y-1484480D01*
X741100Y-1480820D01*
X741100Y-1419180D01*
X740780Y-1415520D01*
X739880Y-1412140D01*
X738400Y-1408959D01*
X736380Y-1406080D01*
X733920Y-1403620D01*
X731040Y-1401600D01*
X727860Y-1400120D01*
X724479Y-1399220D01*
X721360Y-1398940D01*
X719800Y-1398480D01*
X718560Y-1397420D01*
X717840Y-1395960D01*
X717760Y-1394340D01*
X718340Y-1392820D01*
X719479Y-1391639D01*
X721000Y-1390620D01*
X725580Y-1386660D01*
X729680Y-1382200D01*
X733199Y-1377280D01*
X736120Y-1371980D01*
X738400Y-1366360D01*
X740000Y-1360520D01*
X740900Y-1354540D01*
X741080Y-1348480D01*
X740540Y-1342460D01*
X739280Y-1336540D01*
X737340Y-1330800D01*
X734740Y-1325340D01*
X731520Y-1320220D01*
X727700Y-1315520D01*
X723360Y-1311300D01*
X718540Y-1307620D01*
X713340Y-1304540D01*
X711380Y-1303680D01*
X710140Y-1302840D01*
X709320Y-1301600D01*
X709000Y-1300140D01*
X709220Y-1298660D01*
X709980Y-1297380D01*
X711160Y-1296459D01*
X715980Y-1294000D01*
X721000Y-1290620D01*
X725580Y-1286660D01*
X729680Y-1282200D01*
X733199Y-1277280D01*
X736120Y-1271980D01*
X738400Y-1266360D01*
X740000Y-1260520D01*
X740900Y-1254540D01*
X741080Y-1248480D01*
X740540Y-1242460D01*
X739280Y-1236540D01*
X737340Y-1230800D01*
X734740Y-1225340D01*
X731520Y-1220220D01*
X727700Y-1215520D01*
X723360Y-1211300D01*
X718540Y-1207620D01*
X713340Y-1204540D01*
X711380Y-1203680D01*
X710140Y-1202840D01*
X709320Y-1201600D01*
X709000Y-1200140D01*
X709220Y-1198660D01*
X709980Y-1197380D01*
X711160Y-1196460D01*
X715980Y-1194000D01*
X721000Y-1190620D01*
X725580Y-1186660D01*
X729680Y-1182200D01*
X733199Y-1177280D01*
X736120Y-1171980D01*
X738400Y-1166360D01*
X740000Y-1160520D01*
X740900Y-1154540D01*
X741080Y-1148480D01*
X740540Y-1142460D01*
X739280Y-1136540D01*
X737340Y-1130800D01*
X734740Y-1125340D01*
X731520Y-1120220D01*
X727700Y-1115520D01*
X723360Y-1111300D01*
X718540Y-1107620D01*
X713340Y-1104540D01*
X711380Y-1103680D01*
X710140Y-1102840D01*
X709320Y-1101600D01*
X709000Y-1100140D01*
X709220Y-1098660D01*
X709980Y-1097380D01*
X711160Y-1096460D01*
X715980Y-1094000D01*
X721000Y-1090620D01*
X725580Y-1086660D01*
X729680Y-1082200D01*
X733199Y-1077280D01*
X736120Y-1071980D01*
X738400Y-1066360D01*
X740000Y-1060520D01*
X740900Y-1054540D01*
X741080Y-1048480D01*
X740540Y-1042460D01*
X739280Y-1036540D01*
X737340Y-1030800D01*
X734740Y-1025340D01*
X731520Y-1020220D01*
X727700Y-1015520D01*
X723360Y-1011300D01*
X718540Y-1007620D01*
X713340Y-1004539D01*
X711380Y-1003680D01*
X710140Y-1002840D01*
X709320Y-1001600D01*
X709000Y-1000140D01*
X709220Y-998660D01*
X709980Y-997380D01*
X711160Y-996460D01*
X715980Y-994000D01*
X721000Y-990620D01*
X725580Y-986660D01*
X729680Y-982200D01*
X733199Y-977280D01*
X736120Y-971979D01*
X738400Y-966360D01*
X740000Y-960520D01*
X740900Y-954539D01*
X741080Y-948480D01*
X740540Y-942460D01*
X739280Y-936540D01*
X737340Y-930800D01*
X734740Y-925340D01*
X731520Y-920220D01*
X727700Y-915520D01*
X723360Y-911300D01*
X718540Y-907620D01*
X713340Y-904539D01*
X711380Y-903680D01*
X710140Y-902840D01*
X709320Y-901600D01*
X709000Y-900140D01*
X709220Y-898660D01*
X709980Y-897380D01*
X711160Y-896460D01*
X715980Y-894000D01*
X721000Y-890620D01*
X725580Y-886660D01*
X729680Y-882200D01*
X733199Y-877280D01*
X736120Y-871979D01*
X738400Y-866360D01*
X740000Y-860520D01*
X740900Y-854539D01*
X741080Y-848480D01*
X740540Y-842460D01*
X739280Y-836540D01*
X737340Y-830800D01*
X734740Y-825340D01*
X731520Y-820220D01*
X727700Y-815520D01*
X723360Y-811300D01*
X718540Y-807620D01*
X713340Y-804539D01*
X711380Y-803680D01*
X710140Y-802840D01*
X709320Y-801600D01*
X709000Y-800140D01*
X709220Y-798660D01*
X709980Y-797380D01*
X711160Y-796460D01*
X715980Y-794000D01*
X721000Y-790620D01*
X725580Y-786660D01*
X729680Y-782200D01*
X733199Y-777280D01*
X736120Y-771979D01*
X738400Y-766360D01*
X740000Y-760520D01*
X740900Y-754539D01*
X741080Y-748480D01*
X740540Y-742460D01*
X739280Y-736540D01*
X737340Y-730800D01*
X734740Y-725340D01*
X731520Y-720220D01*
X727700Y-715520D01*
X723360Y-711300D01*
X718540Y-707620D01*
X713340Y-704539D01*
X711380Y-703680D01*
X710140Y-702840D01*
X709320Y-701600D01*
X709000Y-700140D01*
X709220Y-698660D01*
X709980Y-697380D01*
X711160Y-696460D01*
X715980Y-694000D01*
X721000Y-690620D01*
X725580Y-686660D01*
X729680Y-682200D01*
X733199Y-677280D01*
X736120Y-671979D01*
X738400Y-666360D01*
X740000Y-660520D01*
X740900Y-654539D01*
X741080Y-648480D01*
X740540Y-642460D01*
X739280Y-636540D01*
X737340Y-630800D01*
X734740Y-625340D01*
X731520Y-620220D01*
X727700Y-615520D01*
X723360Y-611300D01*
X718540Y-607620D01*
X713340Y-604540D01*
X711380Y-603680D01*
X710140Y-602840D01*
X709320Y-601600D01*
X709000Y-600140D01*
X709220Y-598660D01*
X709980Y-597380D01*
X711160Y-596460D01*
X715980Y-594000D01*
X721000Y-590620D01*
X725580Y-586660D01*
X729680Y-582200D01*
X733199Y-577280D01*
X736120Y-571980D01*
X738400Y-566360D01*
X740000Y-560520D01*
X740900Y-554540D01*
X741080Y-548480D01*
X740540Y-542460D01*
X739280Y-536540D01*
X737340Y-530800D01*
X734740Y-525340D01*
X731520Y-520220D01*
X727700Y-515520D01*
X723360Y-511300D01*
X718540Y-507620D01*
X713340Y-504540D01*
X707800Y-502100D01*
X702000Y-500340D01*
X696040Y-499260D01*
X690000Y-498900D01*
X683960Y-499260D01*
X678000Y-500340D01*
X672200Y-502100D01*
X666660Y-504540D01*
X661460Y-507620D01*
X656640Y-511300D01*
X652300Y-515520D01*
X648480Y-520220D01*
X645260Y-525340D01*
X642660Y-530800D01*
X640720Y-536540D01*
X639460Y-542460D01*
X638920Y-548480D01*
X639100Y-554540D01*
X640000Y-560520D01*
X641600Y-566360D01*
X643880Y-571980D01*
X646800Y-577280D01*
X650320Y-582200D01*
X654419Y-586660D01*
X659000Y-590620D01*
X664020Y-594000D01*
X668840Y-596460D01*
X670020Y-597380D01*
X670780Y-598660D01*
X671000Y-600140D01*
X670680Y-601600D01*
X669860Y-602840D01*
X668620Y-603680D01*
X666660Y-604540D01*
X661460Y-607620D01*
X656640Y-611300D01*
X652300Y-615520D01*
X648480Y-620220D01*
X645260Y-625340D01*
X642660Y-630800D01*
X640720Y-636540D01*
X639460Y-642460D01*
X638920Y-648480D01*
X639100Y-654539D01*
X640000Y-660520D01*
X641600Y-666360D01*
X643880Y-671979D01*
X646800Y-677280D01*
X650320Y-682200D01*
X654419Y-686660D01*
X659000Y-690620D01*
X664020Y-694000D01*
X668840Y-696460D01*
X670020Y-697380D01*
X670780Y-698660D01*
X671000Y-700140D01*
X670680Y-701600D01*
X669860Y-702840D01*
X668620Y-703680D01*
X666660Y-704539D01*
X661460Y-707620D01*
X656640Y-711300D01*
X652300Y-715520D01*
X648480Y-720220D01*
X645260Y-725340D01*
X642660Y-730800D01*
X640720Y-736540D01*
X639460Y-742460D01*
X638920Y-748480D01*
X639100Y-754539D01*
X640000Y-760520D01*
X641600Y-766360D01*
X643880Y-771979D01*
X646800Y-777280D01*
X650320Y-782200D01*
X654419Y-786660D01*
X659000Y-790620D01*
X664020Y-794000D01*
X668840Y-796460D01*
X670020Y-797380D01*
X670780Y-798660D01*
X671000Y-800140D01*
X670680Y-801600D01*
X669860Y-802840D01*
X668620Y-803680D01*
X666660Y-804539D01*
X661460Y-807620D01*
X656640Y-811300D01*
X652300Y-815520D01*
X648480Y-820220D01*
X645260Y-825340D01*
X642660Y-830800D01*
X640720Y-836540D01*
X639460Y-842460D01*
X638920Y-848480D01*
X639100Y-854539D01*
X640000Y-860520D01*
X641600Y-866360D01*
X643880Y-871979D01*
X646800Y-877280D01*
X650320Y-882200D01*
X654419Y-886660D01*
X659000Y-890620D01*
X664020Y-894000D01*
X668840Y-896460D01*
X670020Y-897380D01*
X670780Y-898660D01*
X671000Y-900140D01*
X670680Y-901600D01*
X669860Y-902840D01*
X668620Y-903680D01*
X666660Y-904539D01*
X661460Y-907620D01*
X656640Y-911300D01*
X652300Y-915520D01*
X648480Y-920220D01*
X645260Y-925340D01*
X642660Y-930800D01*
X640720Y-936540D01*
X639460Y-942460D01*
X638920Y-948480D01*
X639100Y-954539D01*
X640000Y-960520D01*
X641600Y-966360D01*
X643880Y-971979D01*
X646800Y-977280D01*
X650320Y-982200D01*
X654419Y-986660D01*
X659000Y-990620D01*
X664020Y-994000D01*
X668840Y-996460D01*
X670020Y-997380D01*
X670780Y-998660D01*
X671000Y-1000140D01*
X670680Y-1001600D01*
X669860Y-1002840D01*
X668620Y-1003680D01*
X666660Y-1004539D01*
X661460Y-1007620D01*
X656640Y-1011300D01*
X652300Y-1015520D01*
X648480Y-1020220D01*
X645260Y-1025340D01*
X642660Y-1030800D01*
X640720Y-1036540D01*
X639460Y-1042460D01*
X638920Y-1048480D01*
X639100Y-1054540D01*
X640000Y-1060520D01*
X641600Y-1066360D01*
X643880Y-1071980D01*
X646800Y-1077280D01*
X650320Y-1082200D01*
X654419Y-1086660D01*
X659000Y-1090620D01*
X664020Y-1094000D01*
X668840Y-1096460D01*
X670020Y-1097380D01*
X670780Y-1098660D01*
X671000Y-1100140D01*
X670680Y-1101600D01*
X669860Y-1102840D01*
X668620Y-1103680D01*
X666660Y-1104540D01*
X661460Y-1107620D01*
X656640Y-1111300D01*
X652300Y-1115520D01*
X648480Y-1120220D01*
X645260Y-1125340D01*
X642660Y-1130800D01*
X640720Y-1136540D01*
X639460Y-1142460D01*
X638920Y-1148480D01*
X639100Y-1154540D01*
X640000Y-1160520D01*
X641600Y-1166360D01*
X643880Y-1171980D01*
X646800Y-1177280D01*
X650320Y-1182200D01*
X654419Y-1186660D01*
X659000Y-1190620D01*
X664020Y-1194000D01*
X668840Y-1196460D01*
X670020Y-1197380D01*
X670780Y-1198660D01*
X671000Y-1200140D01*
X670680Y-1201600D01*
X669860Y-1202840D01*
X668620Y-1203680D01*
X666660Y-1204540D01*
X661460Y-1207620D01*
X656640Y-1211300D01*
X652300Y-1215520D01*
X648480Y-1220220D01*
X645260Y-1225340D01*
X642660Y-1230800D01*
X640720Y-1236540D01*
X639460Y-1242460D01*
X638920Y-1248480D01*
X639100Y-1254540D01*
X640000Y-1260520D01*
X641600Y-1266360D01*
X643880Y-1271980D01*
X646800Y-1277280D01*
X650320Y-1282200D01*
X654419Y-1286660D01*
X659000Y-1290620D01*
X664020Y-1294000D01*
X668840Y-1296459D01*
X670020Y-1297380D01*
X670780Y-1298660D01*
X671000Y-1300140D01*
X670680Y-1301600D01*
X669860Y-1302840D01*
X668620Y-1303680D01*
X666660Y-1304540D01*
X661460Y-1307620D01*
X656640Y-1311300D01*
X652300Y-1315520D01*
X648480Y-1320220D01*
X645260Y-1325340D01*
X642660Y-1330800D01*
X640720Y-1336540D01*
X639460Y-1342460D01*
X638920Y-1348480D01*
X639100Y-1354540D01*
X640000Y-1360520D01*
X641600Y-1366360D01*
X643880Y-1371980D01*
X646800Y-1377280D01*
X650320Y-1382200D01*
X654419Y-1386660D01*
X659000Y-1390620D01*
X660520Y-1391639D01*
X661660Y-1392820D01*
X662240Y-1394340D01*
X662159Y-1395960D01*
X661440Y-1397420D01*
X660200Y-1398480D01*
X658640Y-1398940D01*
X655520Y-1399220D01*
X652140Y-1400120D01*
X648960Y-1401600D01*
X646080Y-1403620D01*
X643620Y-1406080D01*
X641600Y-1408959D01*
X640120Y-1412140D01*
X639220Y-1415520D01*
X638900Y-1419180D01*
X638900Y-1480820D01*
X639220Y-1484480D01*
X640120Y-1487860D01*
X641600Y-1491040D01*
X643620Y-1493920D01*
X646080Y-1496380D01*
X648960Y-1498400D01*
X652140Y-1499880D01*
X655520Y-1500780D01*
G37*
G36*
X1079180Y-1501100D02*
G01*
X1140820Y-1501100D01*
X1144480Y-1500780D01*
X1147860Y-1499880D01*
X1151040Y-1498400D01*
X1153920Y-1496380D01*
X1156380Y-1493920D01*
X1158400Y-1491040D01*
X1159880Y-1487860D01*
X1160780Y-1484480D01*
X1161100Y-1480820D01*
X1161100Y-1419180D01*
X1160780Y-1415520D01*
X1159880Y-1412140D01*
X1158400Y-1408959D01*
X1156380Y-1406080D01*
X1153920Y-1403620D01*
X1151040Y-1401600D01*
X1147860Y-1400120D01*
X1144480Y-1399220D01*
X1141360Y-1398940D01*
X1139800Y-1398480D01*
X1138560Y-1397420D01*
X1137840Y-1395960D01*
X1137760Y-1394340D01*
X1138340Y-1392820D01*
X1139480Y-1391639D01*
X1141000Y-1390620D01*
X1145580Y-1386660D01*
X1149680Y-1382200D01*
X1153200Y-1377280D01*
X1156120Y-1371980D01*
X1158400Y-1366360D01*
X1160000Y-1360520D01*
X1160900Y-1354540D01*
X1161080Y-1348480D01*
X1160540Y-1342460D01*
X1159280Y-1336540D01*
X1157340Y-1330800D01*
X1154740Y-1325340D01*
X1151520Y-1320220D01*
X1147700Y-1315520D01*
X1143360Y-1311300D01*
X1138540Y-1307620D01*
X1133340Y-1304540D01*
X1131380Y-1303680D01*
X1130140Y-1302840D01*
X1129320Y-1301600D01*
X1129000Y-1300140D01*
X1129220Y-1298660D01*
X1129980Y-1297380D01*
X1131160Y-1296459D01*
X1135980Y-1294000D01*
X1141000Y-1290620D01*
X1145580Y-1286660D01*
X1149680Y-1282200D01*
X1153200Y-1277280D01*
X1156120Y-1271980D01*
X1158400Y-1266360D01*
X1160000Y-1260520D01*
X1160900Y-1254540D01*
X1161080Y-1248480D01*
X1160540Y-1242460D01*
X1159280Y-1236540D01*
X1157340Y-1230800D01*
X1154740Y-1225340D01*
X1151520Y-1220220D01*
X1147700Y-1215520D01*
X1143360Y-1211300D01*
X1138540Y-1207620D01*
X1133340Y-1204540D01*
X1131380Y-1203680D01*
X1130140Y-1202840D01*
X1129320Y-1201600D01*
X1129000Y-1200140D01*
X1129220Y-1198660D01*
X1129980Y-1197380D01*
X1131160Y-1196460D01*
X1135980Y-1194000D01*
X1141000Y-1190620D01*
X1145580Y-1186660D01*
X1149680Y-1182200D01*
X1153200Y-1177280D01*
X1156120Y-1171980D01*
X1158400Y-1166360D01*
X1160000Y-1160520D01*
X1160900Y-1154540D01*
X1161080Y-1148480D01*
X1160540Y-1142460D01*
X1159280Y-1136540D01*
X1157340Y-1130800D01*
X1154740Y-1125340D01*
X1151520Y-1120220D01*
X1147700Y-1115520D01*
X1143360Y-1111300D01*
X1138540Y-1107620D01*
X1133340Y-1104540D01*
X1131380Y-1103680D01*
X1130140Y-1102840D01*
X1129320Y-1101600D01*
X1129000Y-1100140D01*
X1129220Y-1098660D01*
X1129980Y-1097380D01*
X1131160Y-1096460D01*
X1135980Y-1094000D01*
X1141000Y-1090620D01*
X1145580Y-1086660D01*
X1149680Y-1082200D01*
X1153200Y-1077280D01*
X1156120Y-1071980D01*
X1158400Y-1066360D01*
X1160000Y-1060520D01*
X1160900Y-1054540D01*
X1161080Y-1048480D01*
X1160540Y-1042460D01*
X1159280Y-1036540D01*
X1157340Y-1030800D01*
X1154740Y-1025340D01*
X1151520Y-1020220D01*
X1147700Y-1015520D01*
X1143360Y-1011300D01*
X1138540Y-1007620D01*
X1133340Y-1004539D01*
X1131380Y-1003680D01*
X1130140Y-1002840D01*
X1129320Y-1001600D01*
X1129000Y-1000140D01*
X1129220Y-998660D01*
X1129980Y-997380D01*
X1131160Y-996460D01*
X1135980Y-994000D01*
X1141000Y-990620D01*
X1145580Y-986660D01*
X1149680Y-982200D01*
X1153200Y-977280D01*
X1156120Y-971979D01*
X1158400Y-966360D01*
X1160000Y-960520D01*
X1160900Y-954539D01*
X1161080Y-948480D01*
X1160540Y-942460D01*
X1159280Y-936540D01*
X1157340Y-930800D01*
X1154740Y-925340D01*
X1151520Y-920220D01*
X1147700Y-915520D01*
X1143360Y-911300D01*
X1138540Y-907620D01*
X1133340Y-904539D01*
X1131380Y-903680D01*
X1130140Y-902840D01*
X1129320Y-901600D01*
X1129000Y-900140D01*
X1129220Y-898660D01*
X1129980Y-897380D01*
X1131160Y-896460D01*
X1135980Y-894000D01*
X1141000Y-890620D01*
X1145580Y-886660D01*
X1149680Y-882200D01*
X1153200Y-877280D01*
X1156120Y-871979D01*
X1158400Y-866360D01*
X1160000Y-860520D01*
X1160900Y-854539D01*
X1161080Y-848480D01*
X1160540Y-842460D01*
X1159280Y-836540D01*
X1157340Y-830800D01*
X1154740Y-825340D01*
X1151520Y-820220D01*
X1147700Y-815520D01*
X1143360Y-811300D01*
X1138540Y-807620D01*
X1133340Y-804539D01*
X1131380Y-803680D01*
X1130140Y-802840D01*
X1129320Y-801600D01*
X1129000Y-800140D01*
X1129220Y-798660D01*
X1129980Y-797380D01*
X1131160Y-796460D01*
X1135980Y-794000D01*
X1141000Y-790620D01*
X1145580Y-786660D01*
X1149680Y-782200D01*
X1153200Y-777280D01*
X1156120Y-771979D01*
X1158400Y-766360D01*
X1160000Y-760520D01*
X1160900Y-754539D01*
X1161080Y-748480D01*
X1160540Y-742460D01*
X1159280Y-736540D01*
X1157340Y-730800D01*
X1154740Y-725340D01*
X1151520Y-720220D01*
X1147700Y-715520D01*
X1143360Y-711300D01*
X1138540Y-707620D01*
X1133340Y-704539D01*
X1131380Y-703680D01*
X1130140Y-702840D01*
X1129320Y-701600D01*
X1129000Y-700140D01*
X1129220Y-698660D01*
X1129980Y-697380D01*
X1131160Y-696460D01*
X1135980Y-694000D01*
X1141000Y-690620D01*
X1145580Y-686660D01*
X1149680Y-682200D01*
X1153200Y-677280D01*
X1156120Y-671979D01*
X1158400Y-666360D01*
X1160000Y-660520D01*
X1160900Y-654539D01*
X1161080Y-648480D01*
X1160540Y-642460D01*
X1159280Y-636540D01*
X1157340Y-630800D01*
X1154740Y-625340D01*
X1151520Y-620220D01*
X1147700Y-615520D01*
X1143360Y-611300D01*
X1138540Y-607620D01*
X1133340Y-604540D01*
X1131380Y-603680D01*
X1130140Y-602840D01*
X1129320Y-601600D01*
X1129000Y-600140D01*
X1129220Y-598660D01*
X1129980Y-597380D01*
X1131160Y-596460D01*
X1135980Y-594000D01*
X1141000Y-590620D01*
X1145580Y-586660D01*
X1149680Y-582200D01*
X1153200Y-577280D01*
X1156120Y-571980D01*
X1158400Y-566360D01*
X1160000Y-560520D01*
X1160900Y-554540D01*
X1161080Y-548480D01*
X1160540Y-542460D01*
X1159280Y-536540D01*
X1157340Y-530800D01*
X1154740Y-525340D01*
X1151520Y-520220D01*
X1147700Y-515520D01*
X1143360Y-511300D01*
X1138540Y-507620D01*
X1133340Y-504540D01*
X1127800Y-502100D01*
X1122000Y-500340D01*
X1116040Y-499260D01*
X1110000Y-498900D01*
X1103960Y-499260D01*
X1098000Y-500340D01*
X1092200Y-502100D01*
X1086660Y-504540D01*
X1081460Y-507620D01*
X1076640Y-511300D01*
X1072300Y-515520D01*
X1068480Y-520220D01*
X1065260Y-525340D01*
X1062660Y-530800D01*
X1060720Y-536540D01*
X1059460Y-542460D01*
X1058920Y-548480D01*
X1059100Y-554540D01*
X1060000Y-560520D01*
X1061600Y-566360D01*
X1063880Y-571980D01*
X1066800Y-577280D01*
X1070320Y-582200D01*
X1074420Y-586660D01*
X1079000Y-590620D01*
X1084020Y-594000D01*
X1088840Y-596460D01*
X1090020Y-597380D01*
X1090780Y-598660D01*
X1091000Y-600140D01*
X1090680Y-601600D01*
X1089860Y-602840D01*
X1088620Y-603680D01*
X1086660Y-604540D01*
X1081460Y-607620D01*
X1076640Y-611300D01*
X1072300Y-615520D01*
X1068480Y-620220D01*
X1065260Y-625340D01*
X1062660Y-630800D01*
X1060720Y-636540D01*
X1059460Y-642460D01*
X1058920Y-648480D01*
X1059100Y-654539D01*
X1060000Y-660520D01*
X1061600Y-666360D01*
X1063880Y-671979D01*
X1066800Y-677280D01*
X1070320Y-682200D01*
X1074420Y-686660D01*
X1079000Y-690620D01*
X1084020Y-694000D01*
X1088840Y-696460D01*
X1090020Y-697380D01*
X1090780Y-698660D01*
X1091000Y-700140D01*
X1090680Y-701600D01*
X1089860Y-702840D01*
X1088620Y-703680D01*
X1086660Y-704539D01*
X1081460Y-707620D01*
X1076640Y-711300D01*
X1072300Y-715520D01*
X1068480Y-720220D01*
X1065260Y-725340D01*
X1062660Y-730800D01*
X1060720Y-736540D01*
X1059460Y-742460D01*
X1058920Y-748480D01*
X1059100Y-754539D01*
X1060000Y-760520D01*
X1061600Y-766360D01*
X1063880Y-771979D01*
X1066800Y-777280D01*
X1070320Y-782200D01*
X1074420Y-786660D01*
X1079000Y-790620D01*
X1084020Y-794000D01*
X1088840Y-796460D01*
X1090020Y-797380D01*
X1090780Y-798660D01*
X1091000Y-800140D01*
X1090680Y-801600D01*
X1089860Y-802840D01*
X1088620Y-803680D01*
X1086660Y-804539D01*
X1081460Y-807620D01*
X1076640Y-811300D01*
X1072300Y-815520D01*
X1068480Y-820220D01*
X1065260Y-825340D01*
X1062660Y-830800D01*
X1060720Y-836540D01*
X1059460Y-842460D01*
X1058920Y-848480D01*
X1059100Y-854539D01*
X1060000Y-860520D01*
X1061600Y-866360D01*
X1063880Y-871979D01*
X1066800Y-877280D01*
X1070320Y-882200D01*
X1074420Y-886660D01*
X1079000Y-890620D01*
X1084020Y-894000D01*
X1088840Y-896460D01*
X1090020Y-897380D01*
X1090780Y-898660D01*
X1091000Y-900140D01*
X1090680Y-901600D01*
X1089860Y-902840D01*
X1088620Y-903680D01*
X1086660Y-904539D01*
X1081460Y-907620D01*
X1076640Y-911300D01*
X1072300Y-915520D01*
X1068480Y-920220D01*
X1065260Y-925340D01*
X1062660Y-930800D01*
X1060720Y-936540D01*
X1059460Y-942460D01*
X1058920Y-948480D01*
X1059100Y-954539D01*
X1060000Y-960520D01*
X1061600Y-966360D01*
X1063880Y-971979D01*
X1066800Y-977280D01*
X1070320Y-982200D01*
X1074420Y-986660D01*
X1079000Y-990620D01*
X1084020Y-994000D01*
X1088840Y-996460D01*
X1090020Y-997380D01*
X1090780Y-998660D01*
X1091000Y-1000140D01*
X1090680Y-1001600D01*
X1089860Y-1002840D01*
X1088620Y-1003680D01*
X1086660Y-1004539D01*
X1081460Y-1007620D01*
X1076640Y-1011300D01*
X1072300Y-1015520D01*
X1068480Y-1020220D01*
X1065260Y-1025340D01*
X1062660Y-1030800D01*
X1060720Y-1036540D01*
X1059460Y-1042460D01*
X1058920Y-1048480D01*
X1059100Y-1054540D01*
X1060000Y-1060520D01*
X1061600Y-1066360D01*
X1063880Y-1071980D01*
X1066800Y-1077280D01*
X1070320Y-1082200D01*
X1074420Y-1086660D01*
X1079000Y-1090620D01*
X1084020Y-1094000D01*
X1088840Y-1096460D01*
X1090020Y-1097380D01*
X1090780Y-1098660D01*
X1091000Y-1100140D01*
X1090680Y-1101600D01*
X1089860Y-1102840D01*
X1088620Y-1103680D01*
X1086660Y-1104540D01*
X1081460Y-1107620D01*
X1076640Y-1111300D01*
X1072300Y-1115520D01*
X1068480Y-1120220D01*
X1065260Y-1125340D01*
X1062660Y-1130800D01*
X1060720Y-1136540D01*
X1059460Y-1142460D01*
X1058920Y-1148480D01*
X1059100Y-1154540D01*
X1060000Y-1160520D01*
X1061600Y-1166360D01*
X1063880Y-1171980D01*
X1066800Y-1177280D01*
X1070320Y-1182200D01*
X1074420Y-1186660D01*
X1079000Y-1190620D01*
X1084020Y-1194000D01*
X1088840Y-1196460D01*
X1090020Y-1197380D01*
X1090780Y-1198660D01*
X1091000Y-1200140D01*
X1090680Y-1201600D01*
X1089860Y-1202840D01*
X1088620Y-1203680D01*
X1086660Y-1204540D01*
X1081460Y-1207620D01*
X1076640Y-1211300D01*
X1072300Y-1215520D01*
X1068480Y-1220220D01*
X1065260Y-1225340D01*
X1062660Y-1230800D01*
X1060720Y-1236540D01*
X1059460Y-1242460D01*
X1058920Y-1248480D01*
X1059100Y-1254540D01*
X1060000Y-1260520D01*
X1061600Y-1266360D01*
X1063880Y-1271980D01*
X1066800Y-1277280D01*
X1070320Y-1282200D01*
X1074420Y-1286660D01*
X1079000Y-1290620D01*
X1084020Y-1294000D01*
X1088840Y-1296459D01*
X1090020Y-1297380D01*
X1090780Y-1298660D01*
X1091000Y-1300140D01*
X1090680Y-1301600D01*
X1089860Y-1302840D01*
X1088620Y-1303680D01*
X1086660Y-1304540D01*
X1081460Y-1307620D01*
X1076640Y-1311300D01*
X1072300Y-1315520D01*
X1068480Y-1320220D01*
X1065260Y-1325340D01*
X1062660Y-1330800D01*
X1060720Y-1336540D01*
X1059460Y-1342460D01*
X1058920Y-1348480D01*
X1059100Y-1354540D01*
X1060000Y-1360520D01*
X1061600Y-1366360D01*
X1063880Y-1371980D01*
X1066800Y-1377280D01*
X1070320Y-1382200D01*
X1074420Y-1386660D01*
X1079000Y-1390620D01*
X1080520Y-1391639D01*
X1081660Y-1392820D01*
X1082240Y-1394340D01*
X1082160Y-1395960D01*
X1081440Y-1397420D01*
X1080200Y-1398480D01*
X1078640Y-1398940D01*
X1075520Y-1399220D01*
X1072140Y-1400120D01*
X1068960Y-1401600D01*
X1066080Y-1403620D01*
X1063620Y-1406080D01*
X1061600Y-1408959D01*
X1060120Y-1412140D01*
X1059220Y-1415520D01*
X1058900Y-1419180D01*
X1058900Y-1480820D01*
X1059220Y-1484480D01*
X1060120Y-1487860D01*
X1061600Y-1491040D01*
X1063620Y-1493920D01*
X1066080Y-1496380D01*
X1068960Y-1498400D01*
X1072140Y-1499880D01*
X1075520Y-1500780D01*
G37*
G36*
X6478520Y-1447920D02*
G01*
X6484420Y-1447740D01*
X6490260Y-1446840D01*
X6495940Y-1445220D01*
X6501360Y-1442920D01*
X6506480Y-1439960D01*
X6511200Y-1436399D01*
X6515420Y-1432300D01*
X6519140Y-1427700D01*
X6522240Y-1422680D01*
X6524700Y-1417320D01*
X6526500Y-1411699D01*
X6527580Y-1405900D01*
X6527940Y-1400000D01*
X6527580Y-1394100D01*
X6526500Y-1388300D01*
X6524700Y-1382680D01*
X6522240Y-1377320D01*
X6519140Y-1372300D01*
X6515420Y-1367700D01*
X6511200Y-1363600D01*
X6506480Y-1360040D01*
X6501360Y-1357080D01*
X6495940Y-1354780D01*
X6490260Y-1353160D01*
X6484420Y-1352260D01*
X6478520Y-1352080D01*
X6472640Y-1352620D01*
X6466880Y-1353880D01*
X6461319Y-1355840D01*
X6456020Y-1358480D01*
X6451100Y-1361740D01*
X6446620Y-1365580D01*
X6442640Y-1369940D01*
X6439240Y-1374760D01*
X6436440Y-1379960D01*
X6434320Y-1385460D01*
X6432880Y-1391200D01*
X6432140Y-1397040D01*
X6432140Y-1402960D01*
X6432880Y-1408800D01*
X6434320Y-1414540D01*
X6436440Y-1420040D01*
X6439240Y-1425240D01*
X6442640Y-1430060D01*
X6446620Y-1434420D01*
X6451100Y-1438260D01*
X6456020Y-1441519D01*
X6461319Y-1444160D01*
X6466880Y-1446120D01*
X6472640Y-1447380D01*
G37*
G36*
X5468520Y-1447920D02*
G01*
X5474420Y-1447740D01*
X5480260Y-1446840D01*
X5485940Y-1445220D01*
X5491360Y-1442920D01*
X5496480Y-1439960D01*
X5501200Y-1436399D01*
X5505420Y-1432300D01*
X5509140Y-1427700D01*
X5512240Y-1422680D01*
X5514700Y-1417320D01*
X5516500Y-1411699D01*
X5517580Y-1405900D01*
X5517940Y-1400000D01*
X5517580Y-1394100D01*
X5516500Y-1388300D01*
X5514700Y-1382680D01*
X5512240Y-1377320D01*
X5509140Y-1372300D01*
X5505420Y-1367700D01*
X5501200Y-1363600D01*
X5496480Y-1360040D01*
X5491360Y-1357080D01*
X5485940Y-1354780D01*
X5480260Y-1353160D01*
X5474420Y-1352260D01*
X5468520Y-1352080D01*
X5462640Y-1352620D01*
X5456880Y-1353880D01*
X5451319Y-1355840D01*
X5446020Y-1358480D01*
X5441100Y-1361740D01*
X5436620Y-1365580D01*
X5432640Y-1369940D01*
X5429240Y-1374760D01*
X5426440Y-1379960D01*
X5424320Y-1385460D01*
X5422880Y-1391200D01*
X5422140Y-1397040D01*
X5422140Y-1402960D01*
X5422880Y-1408800D01*
X5424320Y-1414540D01*
X5426440Y-1420040D01*
X5429240Y-1425240D01*
X5432640Y-1430060D01*
X5436620Y-1434420D01*
X5441100Y-1438260D01*
X5446020Y-1441519D01*
X5451319Y-1444160D01*
X5456880Y-1446120D01*
X5462640Y-1447380D01*
G37*
G36*
X80000Y-1419160D02*
G01*
X87640Y-1418779D01*
X95200Y-1417680D01*
X102640Y-1415840D01*
X109840Y-1413300D01*
X116780Y-1410080D01*
X123379Y-1406200D01*
X129560Y-1401720D01*
X135280Y-1396639D01*
X140500Y-1391040D01*
X145140Y-1384960D01*
X149180Y-1378460D01*
X152560Y-1371600D01*
X155280Y-1364460D01*
X157280Y-1357080D01*
X158580Y-1349540D01*
X159120Y-1341920D01*
X158940Y-1334259D01*
X158020Y-1326680D01*
X156380Y-1319199D01*
X154000Y-1311940D01*
X150960Y-1304920D01*
X147240Y-1298240D01*
X142900Y-1291940D01*
X137960Y-1286100D01*
X132480Y-1280760D01*
X126519Y-1275960D01*
X120120Y-1271780D01*
X113360Y-1268220D01*
X106280Y-1265340D01*
X98940Y-1263140D01*
X91440Y-1261680D01*
X83820Y-1260940D01*
X76180Y-1260940D01*
X68560Y-1261680D01*
X61060Y-1263140D01*
X53720Y-1265340D01*
X46640Y-1268220D01*
X39880Y-1271780D01*
X33480Y-1275960D01*
X27519Y-1280760D01*
X22040Y-1286100D01*
X17100Y-1291940D01*
X12760Y-1298240D01*
X9040Y-1304920D01*
X6000Y-1311940D01*
X3620Y-1319199D01*
X1980Y-1326680D01*
X1060Y-1334259D01*
X880Y-1341920D01*
X1419Y-1349540D01*
X2720Y-1357080D01*
X4720Y-1364460D01*
X7440Y-1371600D01*
X10820Y-1378460D01*
X14860Y-1384960D01*
X19500Y-1391040D01*
X24720Y-1396639D01*
X30440Y-1401720D01*
X36620Y-1406200D01*
X43220Y-1410080D01*
X50160Y-1413300D01*
X57360Y-1415840D01*
X64800Y-1417680D01*
X72360Y-1418779D01*
G37*
G36*
X80000Y-1219160D02*
G01*
X87640Y-1218780D01*
X95200Y-1217680D01*
X102640Y-1215840D01*
X109840Y-1213300D01*
X116780Y-1210080D01*
X123379Y-1206200D01*
X129560Y-1201720D01*
X135280Y-1196640D01*
X140500Y-1191040D01*
X145140Y-1184960D01*
X149180Y-1178460D01*
X152560Y-1171600D01*
X155280Y-1164460D01*
X157280Y-1157080D01*
X158580Y-1149540D01*
X159120Y-1141920D01*
X158940Y-1134260D01*
X158020Y-1126680D01*
X156380Y-1119200D01*
X154000Y-1111940D01*
X150960Y-1104920D01*
X147240Y-1098240D01*
X142900Y-1091940D01*
X137960Y-1086100D01*
X132480Y-1080760D01*
X126519Y-1075960D01*
X120120Y-1071780D01*
X113360Y-1068220D01*
X106280Y-1065340D01*
X98940Y-1063140D01*
X91440Y-1061680D01*
X83820Y-1060940D01*
X76180Y-1060940D01*
X68560Y-1061680D01*
X61060Y-1063140D01*
X53720Y-1065340D01*
X46640Y-1068220D01*
X39880Y-1071780D01*
X33480Y-1075960D01*
X27519Y-1080760D01*
X22040Y-1086100D01*
X17100Y-1091940D01*
X12760Y-1098240D01*
X9040Y-1104920D01*
X6000Y-1111940D01*
X3620Y-1119200D01*
X1980Y-1126680D01*
X1060Y-1134260D01*
X880Y-1141920D01*
X1419Y-1149540D01*
X2720Y-1157080D01*
X4720Y-1164460D01*
X7440Y-1171600D01*
X10820Y-1178460D01*
X14860Y-1184960D01*
X19500Y-1191040D01*
X24720Y-1196640D01*
X30440Y-1201720D01*
X36620Y-1206200D01*
X43220Y-1210080D01*
X50160Y-1213300D01*
X57360Y-1215840D01*
X64800Y-1217680D01*
X72360Y-1218780D01*
G37*
G36*
X6478520Y-1197920D02*
G01*
X6484420Y-1197740D01*
X6490260Y-1196840D01*
X6495940Y-1195220D01*
X6501360Y-1192920D01*
X6506480Y-1189960D01*
X6511200Y-1186400D01*
X6515420Y-1182300D01*
X6519140Y-1177700D01*
X6522240Y-1172680D01*
X6524700Y-1167320D01*
X6526500Y-1161700D01*
X6527580Y-1155900D01*
X6527940Y-1150000D01*
X6527580Y-1144100D01*
X6526500Y-1138300D01*
X6524700Y-1132680D01*
X6522240Y-1127320D01*
X6519140Y-1122300D01*
X6515420Y-1117700D01*
X6511200Y-1113600D01*
X6506480Y-1110040D01*
X6501360Y-1107080D01*
X6495940Y-1104780D01*
X6490260Y-1103160D01*
X6484420Y-1102260D01*
X6478520Y-1102080D01*
X6472640Y-1102620D01*
X6466880Y-1103880D01*
X6461319Y-1105840D01*
X6456020Y-1108480D01*
X6451100Y-1111740D01*
X6446620Y-1115580D01*
X6442640Y-1119940D01*
X6439240Y-1124760D01*
X6436440Y-1129960D01*
X6434320Y-1135460D01*
X6432880Y-1141200D01*
X6432140Y-1147040D01*
X6432140Y-1152960D01*
X6432880Y-1158800D01*
X6434320Y-1164540D01*
X6436440Y-1170040D01*
X6439240Y-1175240D01*
X6442640Y-1180060D01*
X6446620Y-1184420D01*
X6451100Y-1188260D01*
X6456020Y-1191520D01*
X6461319Y-1194160D01*
X6466880Y-1196120D01*
X6472640Y-1197380D01*
G37*
G36*
X5468520Y-1197920D02*
G01*
X5474420Y-1197740D01*
X5480260Y-1196840D01*
X5485940Y-1195220D01*
X5491360Y-1192920D01*
X5496480Y-1189960D01*
X5501200Y-1186400D01*
X5505420Y-1182300D01*
X5509140Y-1177700D01*
X5512240Y-1172680D01*
X5514700Y-1167320D01*
X5516500Y-1161700D01*
X5517580Y-1155900D01*
X5517940Y-1150000D01*
X5517580Y-1144100D01*
X5516500Y-1138300D01*
X5514700Y-1132680D01*
X5512240Y-1127320D01*
X5509140Y-1122300D01*
X5505420Y-1117700D01*
X5501200Y-1113600D01*
X5496480Y-1110040D01*
X5491360Y-1107080D01*
X5485940Y-1104780D01*
X5480260Y-1103160D01*
X5474420Y-1102260D01*
X5468520Y-1102080D01*
X5462640Y-1102620D01*
X5456880Y-1103880D01*
X5451319Y-1105840D01*
X5446020Y-1108480D01*
X5441100Y-1111740D01*
X5436620Y-1115580D01*
X5432640Y-1119940D01*
X5429240Y-1124760D01*
X5426440Y-1129960D01*
X5424320Y-1135460D01*
X5422880Y-1141200D01*
X5422140Y-1147040D01*
X5422140Y-1152960D01*
X5422880Y-1158800D01*
X5424320Y-1164540D01*
X5426440Y-1170040D01*
X5429240Y-1175240D01*
X5432640Y-1180060D01*
X5436620Y-1184420D01*
X5441100Y-1188260D01*
X5446020Y-1191520D01*
X5451319Y-1194160D01*
X5456880Y-1196120D01*
X5462640Y-1197380D01*
G37*
G36*
X232940Y-885759D02*
G01*
X327060Y-885759D01*
X330740Y-885440D01*
X334120Y-884539D01*
X337280Y-883060D01*
X340160Y-881060D01*
X342620Y-878580D01*
X344640Y-875720D01*
X346120Y-872540D01*
X347020Y-869160D01*
X347340Y-865500D01*
X347340Y-771360D01*
X347020Y-767700D01*
X346120Y-764320D01*
X344640Y-761140D01*
X342620Y-758280D01*
X340160Y-755800D01*
X337280Y-753780D01*
X334120Y-752300D01*
X330740Y-751400D01*
X327060Y-751080D01*
X232940Y-751080D01*
X229259Y-751400D01*
X225880Y-752300D01*
X222719Y-753780D01*
X219840Y-755800D01*
X217380Y-758280D01*
X215360Y-761140D01*
X213880Y-764320D01*
X212979Y-767700D01*
X212659Y-771360D01*
X212659Y-865500D01*
X212979Y-869160D01*
X213880Y-872540D01*
X215360Y-875720D01*
X217380Y-878580D01*
X219840Y-881060D01*
X222719Y-883060D01*
X225880Y-884539D01*
X229259Y-885440D01*
G37*
G36*
X766780Y-107000D02*
G01*
X773300Y-107000D01*
X779780Y-106260D01*
X786120Y-104780D01*
X792260Y-102600D01*
X798120Y-99720D01*
X803600Y-96180D01*
X808640Y-92060D01*
X813180Y-87380D01*
X817159Y-82220D01*
X820540Y-76640D01*
X823240Y-70720D01*
X825260Y-64520D01*
X826560Y-58120D01*
X827120Y-51640D01*
X826919Y-45119D01*
X826000Y-38660D01*
X824340Y-32360D01*
X821979Y-26280D01*
X818940Y-20520D01*
X815260Y-15140D01*
X810980Y-10200D01*
X806400Y-6000D01*
X805440Y-4660D01*
X805100Y-3060D01*
X805100Y61320D01*
X805400Y62820D01*
X806220Y64100D01*
X808700Y66640D01*
X812380Y71460D01*
X815460Y76660D01*
X817900Y82200D01*
X819659Y88000D01*
X820740Y93960D01*
X821100Y100000D01*
X820740Y106039D01*
X819659Y112000D01*
X817900Y117800D01*
X815460Y123340D01*
X812380Y128539D01*
X808700Y133360D01*
X804479Y137700D01*
X799780Y141520D01*
X794659Y144740D01*
X789200Y147340D01*
X783460Y149280D01*
X777540Y150540D01*
X771520Y151080D01*
X765460Y150900D01*
X759479Y150000D01*
X753640Y148400D01*
X748020Y146120D01*
X742720Y143200D01*
X737800Y139680D01*
X733340Y135580D01*
X729380Y131000D01*
X726000Y125980D01*
X723540Y121160D01*
X722620Y119980D01*
X721340Y119220D01*
X719860Y119000D01*
X718400Y119320D01*
X717159Y120140D01*
X716320Y121380D01*
X715460Y123340D01*
X712380Y128539D01*
X708700Y133360D01*
X704479Y137700D01*
X699780Y141520D01*
X694659Y144740D01*
X689200Y147340D01*
X683460Y149280D01*
X677540Y150540D01*
X671520Y151080D01*
X665460Y150900D01*
X659479Y150000D01*
X653640Y148400D01*
X648020Y146120D01*
X642720Y143200D01*
X637800Y139680D01*
X633340Y135580D01*
X629380Y131000D01*
X628360Y129480D01*
X627180Y128340D01*
X625660Y127760D01*
X624040Y127840D01*
X622580Y128560D01*
X621520Y129800D01*
X621060Y131360D01*
X620780Y134480D01*
X619880Y137860D01*
X618400Y141040D01*
X616380Y143920D01*
X613920Y146380D01*
X611040Y148400D01*
X607860Y149880D01*
X604480Y150780D01*
X600820Y151100D01*
X539180Y151100D01*
X535520Y150780D01*
X532140Y149880D01*
X528960Y148400D01*
X526080Y146380D01*
X523620Y143920D01*
X521599Y141040D01*
X520120Y137860D01*
X519219Y134480D01*
X518900Y130820D01*
X518900Y69180D01*
X519219Y65519D01*
X520120Y62140D01*
X521599Y58960D01*
X523620Y56080D01*
X526080Y53620D01*
X528960Y51600D01*
X532140Y50119D01*
X535520Y49220D01*
X539180Y48900D01*
X600820Y48900D01*
X604480Y49220D01*
X607860Y50119D01*
X611040Y51600D01*
X613920Y53620D01*
X616380Y56080D01*
X618400Y58960D01*
X619880Y62140D01*
X620780Y65519D01*
X621060Y68640D01*
X621520Y70200D01*
X622580Y71440D01*
X624040Y72160D01*
X625660Y72240D01*
X627180Y71660D01*
X628360Y70520D01*
X629380Y69000D01*
X633340Y64420D01*
X637800Y60320D01*
X642720Y56800D01*
X648020Y53880D01*
X653640Y51600D01*
X659479Y50000D01*
X665460Y49100D01*
X671520Y48920D01*
X677540Y49460D01*
X683460Y50720D01*
X689200Y52660D01*
X694659Y55260D01*
X699780Y58480D01*
X704479Y62300D01*
X708700Y66640D01*
X712380Y71460D01*
X715460Y76660D01*
X716320Y78620D01*
X717159Y79860D01*
X718400Y80680D01*
X719860Y81000D01*
X721340Y80780D01*
X722620Y80020D01*
X723540Y78840D01*
X726000Y74020D01*
X729380Y69000D01*
X733340Y64420D01*
X734560Y62840D01*
X734900Y61220D01*
X734900Y-3120D01*
X734560Y-4740D01*
X733600Y-6080D01*
X729100Y-10200D01*
X724820Y-15140D01*
X721140Y-20520D01*
X718100Y-26280D01*
X715740Y-32360D01*
X714080Y-38660D01*
X713160Y-45119D01*
X712960Y-51640D01*
X713520Y-58120D01*
X714820Y-64520D01*
X716840Y-70720D01*
X719539Y-76640D01*
X722920Y-82220D01*
X726900Y-87380D01*
X731440Y-92060D01*
X736480Y-96180D01*
X741960Y-99720D01*
X747820Y-102600D01*
X753960Y-104780D01*
X760300Y-106260D01*
G37*
G36*
X966780Y-107000D02*
G01*
X973300Y-107000D01*
X979780Y-106260D01*
X986120Y-104780D01*
X992260Y-102600D01*
X998120Y-99720D01*
X1003600Y-96180D01*
X1008640Y-92060D01*
X1013180Y-87380D01*
X1016880Y-82620D01*
X1017960Y-81640D01*
X1019320Y-81120D01*
X1020759Y-81120D01*
X1022120Y-81640D01*
X1023199Y-82620D01*
X1026900Y-87380D01*
X1031440Y-92060D01*
X1036480Y-96180D01*
X1041960Y-99720D01*
X1047820Y-102600D01*
X1053960Y-104780D01*
X1060300Y-106260D01*
X1066780Y-107000D01*
X1073300Y-107000D01*
X1079780Y-106260D01*
X1086120Y-104780D01*
X1092260Y-102600D01*
X1098120Y-99720D01*
X1103600Y-96180D01*
X1108640Y-92060D01*
X1113180Y-87380D01*
X1116880Y-82620D01*
X1117960Y-81640D01*
X1119320Y-81120D01*
X1120760Y-81120D01*
X1122120Y-81640D01*
X1123200Y-82620D01*
X1126900Y-87380D01*
X1131440Y-92060D01*
X1136480Y-96180D01*
X1141960Y-99720D01*
X1147820Y-102600D01*
X1153960Y-104780D01*
X1160300Y-106260D01*
X1166780Y-107000D01*
X1173300Y-107000D01*
X1179780Y-106260D01*
X1186120Y-104780D01*
X1192260Y-102600D01*
X1198120Y-99720D01*
X1203600Y-96180D01*
X1208640Y-92060D01*
X1213180Y-87380D01*
X1216880Y-82620D01*
X1217960Y-81640D01*
X1219320Y-81120D01*
X1220760Y-81120D01*
X1222120Y-81640D01*
X1223200Y-82620D01*
X1226900Y-87380D01*
X1231440Y-92060D01*
X1236480Y-96180D01*
X1241960Y-99720D01*
X1247820Y-102600D01*
X1253960Y-104780D01*
X1260300Y-106260D01*
X1266780Y-107000D01*
X1273300Y-107000D01*
X1279780Y-106260D01*
X1286120Y-104780D01*
X1292260Y-102600D01*
X1298120Y-99720D01*
X1303600Y-96180D01*
X1308640Y-92060D01*
X1313180Y-87380D01*
X1316879Y-82620D01*
X1317960Y-81640D01*
X1319319Y-81120D01*
X1320760Y-81120D01*
X1322120Y-81640D01*
X1323200Y-82620D01*
X1326900Y-87380D01*
X1331440Y-92060D01*
X1336480Y-96180D01*
X1341960Y-99720D01*
X1347820Y-102600D01*
X1353959Y-104780D01*
X1360300Y-106260D01*
X1366780Y-107000D01*
X1373300Y-107000D01*
X1379780Y-106260D01*
X1386120Y-104780D01*
X1392260Y-102600D01*
X1398120Y-99720D01*
X1403600Y-96180D01*
X1408640Y-92060D01*
X1413180Y-87380D01*
X1416879Y-82620D01*
X1417960Y-81640D01*
X1419319Y-81120D01*
X1420760Y-81120D01*
X1422120Y-81640D01*
X1423200Y-82620D01*
X1426900Y-87380D01*
X1431440Y-92060D01*
X1436480Y-96180D01*
X1441960Y-99720D01*
X1447820Y-102600D01*
X1453959Y-104780D01*
X1460300Y-106260D01*
X1466780Y-107000D01*
X1473300Y-107000D01*
X1479780Y-106260D01*
X1486120Y-104780D01*
X1492260Y-102600D01*
X1498120Y-99720D01*
X1503600Y-96180D01*
X1508640Y-92060D01*
X1513180Y-87380D01*
X1517160Y-82220D01*
X1520540Y-76640D01*
X1523240Y-70720D01*
X1525260Y-64520D01*
X1526560Y-58120D01*
X1527120Y-51640D01*
X1526920Y-45119D01*
X1526000Y-38660D01*
X1524340Y-32360D01*
X1521980Y-26280D01*
X1518940Y-20520D01*
X1515260Y-15140D01*
X1510980Y-10200D01*
X1506399Y-6000D01*
X1505440Y-4660D01*
X1505100Y-3060D01*
X1505100Y61320D01*
X1505400Y62820D01*
X1506220Y64100D01*
X1508700Y66640D01*
X1512380Y71460D01*
X1515460Y76660D01*
X1517900Y82200D01*
X1519660Y88000D01*
X1520740Y93960D01*
X1521100Y100000D01*
X1520740Y106039D01*
X1519660Y112000D01*
X1517900Y117800D01*
X1515460Y123340D01*
X1512380Y128539D01*
X1508700Y133360D01*
X1504480Y137700D01*
X1499780Y141520D01*
X1494660Y144740D01*
X1489199Y147340D01*
X1483460Y149280D01*
X1477540Y150540D01*
X1471519Y151080D01*
X1465460Y150900D01*
X1459480Y150000D01*
X1453640Y148400D01*
X1448020Y146120D01*
X1442720Y143200D01*
X1437800Y139680D01*
X1433340Y135580D01*
X1429379Y131000D01*
X1426000Y125980D01*
X1423540Y121160D01*
X1422620Y119980D01*
X1421339Y119220D01*
X1419860Y119000D01*
X1418400Y119320D01*
X1417160Y120140D01*
X1416320Y121380D01*
X1415460Y123340D01*
X1412380Y128539D01*
X1408700Y133360D01*
X1404480Y137700D01*
X1399780Y141520D01*
X1394660Y144740D01*
X1389199Y147340D01*
X1383460Y149280D01*
X1377540Y150540D01*
X1371519Y151080D01*
X1365460Y150900D01*
X1359480Y150000D01*
X1353640Y148400D01*
X1348020Y146120D01*
X1342720Y143200D01*
X1337800Y139680D01*
X1333340Y135580D01*
X1329379Y131000D01*
X1326000Y125980D01*
X1323540Y121160D01*
X1322620Y119980D01*
X1321339Y119220D01*
X1319860Y119000D01*
X1318400Y119320D01*
X1317160Y120140D01*
X1316320Y121380D01*
X1315460Y123340D01*
X1312380Y128539D01*
X1308700Y133360D01*
X1304480Y137700D01*
X1299780Y141520D01*
X1294660Y144740D01*
X1289199Y147340D01*
X1283460Y149280D01*
X1277540Y150540D01*
X1271520Y151080D01*
X1265460Y150900D01*
X1259480Y150000D01*
X1253640Y148400D01*
X1248020Y146120D01*
X1242720Y143200D01*
X1237800Y139680D01*
X1233340Y135580D01*
X1229380Y131000D01*
X1226000Y125980D01*
X1223540Y121160D01*
X1222620Y119980D01*
X1221340Y119220D01*
X1219860Y119000D01*
X1218400Y119320D01*
X1217160Y120140D01*
X1216320Y121380D01*
X1215460Y123340D01*
X1212380Y128539D01*
X1208700Y133360D01*
X1204480Y137700D01*
X1199780Y141520D01*
X1194660Y144740D01*
X1189200Y147340D01*
X1183460Y149280D01*
X1177540Y150540D01*
X1171520Y151080D01*
X1165460Y150900D01*
X1159480Y150000D01*
X1153640Y148400D01*
X1148020Y146120D01*
X1142720Y143200D01*
X1137800Y139680D01*
X1133340Y135580D01*
X1129380Y131000D01*
X1126000Y125980D01*
X1123540Y121160D01*
X1122620Y119980D01*
X1121340Y119220D01*
X1119860Y119000D01*
X1118400Y119320D01*
X1117160Y120140D01*
X1116320Y121380D01*
X1115460Y123340D01*
X1112380Y128539D01*
X1108700Y133360D01*
X1104480Y137700D01*
X1099780Y141520D01*
X1094660Y144740D01*
X1089200Y147340D01*
X1083460Y149280D01*
X1077540Y150540D01*
X1071520Y151080D01*
X1065460Y150900D01*
X1059480Y150000D01*
X1053640Y148400D01*
X1048020Y146120D01*
X1042720Y143200D01*
X1037800Y139680D01*
X1033340Y135580D01*
X1029380Y131000D01*
X1026000Y125980D01*
X1023540Y121160D01*
X1022620Y119980D01*
X1021340Y119220D01*
X1019860Y119000D01*
X1018400Y119320D01*
X1017159Y120140D01*
X1016320Y121380D01*
X1015460Y123340D01*
X1012380Y128539D01*
X1008700Y133360D01*
X1004479Y137700D01*
X999780Y141520D01*
X994659Y144740D01*
X989200Y147340D01*
X983460Y149280D01*
X977540Y150540D01*
X971520Y151080D01*
X965460Y150900D01*
X959479Y150000D01*
X953640Y148400D01*
X948020Y146120D01*
X942720Y143200D01*
X937800Y139680D01*
X933340Y135580D01*
X929380Y131000D01*
X926000Y125980D01*
X923240Y120600D01*
X921140Y114920D01*
X919720Y109040D01*
X919000Y103020D01*
X919000Y96980D01*
X919720Y90960D01*
X921140Y85079D01*
X923240Y79400D01*
X926000Y74020D01*
X929380Y69000D01*
X933340Y64420D01*
X934560Y62840D01*
X934900Y61220D01*
X934900Y-3120D01*
X934560Y-4740D01*
X933600Y-6080D01*
X929100Y-10200D01*
X924820Y-15140D01*
X921140Y-20520D01*
X918100Y-26280D01*
X915740Y-32360D01*
X914080Y-38660D01*
X913160Y-45119D01*
X912960Y-51640D01*
X913520Y-58120D01*
X914820Y-64520D01*
X916840Y-70720D01*
X919539Y-76640D01*
X922920Y-82220D01*
X926900Y-87380D01*
X931440Y-92060D01*
X936480Y-96180D01*
X941960Y-99720D01*
X947820Y-102600D01*
X953960Y-104780D01*
X960300Y-106260D01*
G37*
G36*
X4729140Y-86120D02*
G01*
X4790800Y-86120D01*
X4794460Y-85800D01*
X4797840Y-84880D01*
X4801000Y-83400D01*
X4803880Y-81400D01*
X4806360Y-78920D01*
X4808360Y-76060D01*
X4809840Y-72880D01*
X4810740Y-69500D01*
X4811060Y-65840D01*
X4811060Y-4180D01*
X4810740Y-520D01*
X4809840Y2859D01*
X4808360Y6020D01*
X4806360Y8900D01*
X4803880Y11379D01*
X4801000Y13380D01*
X4797840Y14860D01*
X4794460Y15760D01*
X4790800Y16080D01*
X4729140Y16080D01*
X4725480Y15760D01*
X4722100Y14860D01*
X4718920Y13380D01*
X4716060Y11379D01*
X4713580Y8900D01*
X4711580Y6020D01*
X4710100Y2859D01*
X4709180Y-520D01*
X4708920Y-3660D01*
X4708440Y-5220D01*
X4707380Y-6460D01*
X4705920Y-7180D01*
X4704300Y-7260D01*
X4702780Y-6680D01*
X4701600Y-5540D01*
X4700580Y-4020D01*
X4696620Y580D01*
X4692160Y4660D01*
X4687240Y8179D01*
X4681940Y11120D01*
X4676320Y13380D01*
X4670480Y14980D01*
X4664500Y15880D01*
X4658460Y16060D01*
X4652420Y15520D01*
X4646500Y14280D01*
X4640760Y12340D01*
X4635300Y9720D01*
X4630180Y6500D01*
X4625480Y2680D01*
X4621260Y-1660D01*
X4617580Y-6480D01*
X4614500Y-11680D01*
X4613660Y-13640D01*
X4612800Y-14860D01*
X4611560Y-15700D01*
X4610100Y-16020D01*
X4608640Y-15780D01*
X4607340Y-15020D01*
X4606440Y-13859D01*
X4603960Y-9040D01*
X4600580Y-4020D01*
X4596620Y580D01*
X4592160Y4660D01*
X4587240Y8179D01*
X4581940Y11120D01*
X4576320Y13380D01*
X4570480Y14980D01*
X4564500Y15880D01*
X4558460Y16060D01*
X4552420Y15520D01*
X4546500Y14280D01*
X4540760Y12340D01*
X4535300Y9720D01*
X4530180Y6500D01*
X4525480Y2680D01*
X4521260Y-1660D01*
X4517580Y-6480D01*
X4514500Y-11680D01*
X4513660Y-13640D01*
X4512800Y-14860D01*
X4511560Y-15700D01*
X4510100Y-16020D01*
X4508640Y-15780D01*
X4507340Y-15020D01*
X4506440Y-13859D01*
X4503960Y-9040D01*
X4500580Y-4020D01*
X4496620Y580D01*
X4492160Y4660D01*
X4487240Y8179D01*
X4481940Y11120D01*
X4476320Y13380D01*
X4470480Y14980D01*
X4464500Y15880D01*
X4458460Y16060D01*
X4452420Y15520D01*
X4446500Y14280D01*
X4440760Y12340D01*
X4435300Y9720D01*
X4430180Y6500D01*
X4425480Y2680D01*
X4421260Y-1660D01*
X4417580Y-6480D01*
X4414500Y-11680D01*
X4413660Y-13640D01*
X4412800Y-14860D01*
X4411560Y-15700D01*
X4410100Y-16020D01*
X4408640Y-15780D01*
X4407340Y-15020D01*
X4406440Y-13859D01*
X4403960Y-9040D01*
X4400580Y-4020D01*
X4396620Y580D01*
X4392160Y4660D01*
X4387240Y8179D01*
X4381940Y11120D01*
X4376320Y13380D01*
X4370480Y14980D01*
X4364500Y15880D01*
X4358460Y16060D01*
X4352420Y15520D01*
X4346500Y14280D01*
X4340760Y12340D01*
X4335300Y9720D01*
X4330180Y6500D01*
X4325480Y2680D01*
X4321260Y-1660D01*
X4317580Y-6480D01*
X4314500Y-11680D01*
X4313660Y-13640D01*
X4312800Y-14860D01*
X4311560Y-15700D01*
X4310100Y-16020D01*
X4308640Y-15780D01*
X4307340Y-15020D01*
X4306440Y-13859D01*
X4303960Y-9040D01*
X4300580Y-4020D01*
X4296620Y580D01*
X4292160Y4660D01*
X4287240Y8179D01*
X4281940Y11120D01*
X4276320Y13380D01*
X4270480Y14980D01*
X4264500Y15880D01*
X4258460Y16060D01*
X4252420Y15520D01*
X4246500Y14280D01*
X4240760Y12340D01*
X4235300Y9720D01*
X4230180Y6500D01*
X4225480Y2680D01*
X4221260Y-1660D01*
X4217580Y-6480D01*
X4214500Y-11680D01*
X4213660Y-13640D01*
X4212800Y-14860D01*
X4211560Y-15700D01*
X4210100Y-16020D01*
X4208640Y-15780D01*
X4207340Y-15020D01*
X4206440Y-13859D01*
X4203960Y-9040D01*
X4200580Y-4020D01*
X4196620Y580D01*
X4192160Y4660D01*
X4187240Y8179D01*
X4181940Y11120D01*
X4176320Y13380D01*
X4170480Y14980D01*
X4164500Y15880D01*
X4158460Y16060D01*
X4152420Y15520D01*
X4146500Y14280D01*
X4140760Y12340D01*
X4135299Y9720D01*
X4130179Y6500D01*
X4125480Y2680D01*
X4121259Y-1660D01*
X4117580Y-6480D01*
X4114500Y-11680D01*
X4113660Y-13640D01*
X4112799Y-14860D01*
X4111560Y-15700D01*
X4110100Y-16020D01*
X4108639Y-15780D01*
X4107340Y-15020D01*
X4106440Y-13859D01*
X4103960Y-9040D01*
X4100580Y-4020D01*
X4096620Y580D01*
X4092160Y4660D01*
X4087240Y8179D01*
X4081940Y11120D01*
X4076320Y13380D01*
X4070480Y14980D01*
X4064500Y15880D01*
X4058460Y16060D01*
X4052420Y15520D01*
X4046500Y14280D01*
X4040760Y12340D01*
X4035299Y9720D01*
X4030179Y6500D01*
X4025480Y2680D01*
X4021259Y-1660D01*
X4017580Y-6480D01*
X4014500Y-11680D01*
X4012060Y-17220D01*
X4010299Y-23020D01*
X4009240Y-28980D01*
X4008880Y-35020D01*
X4009240Y-41060D01*
X4010299Y-47020D01*
X4012060Y-52800D01*
X4014500Y-58339D01*
X4017580Y-63560D01*
X4021259Y-68360D01*
X4025480Y-72720D01*
X4030179Y-76520D01*
X4035299Y-79760D01*
X4040760Y-82360D01*
X4046500Y-84300D01*
X4052420Y-85540D01*
X4058460Y-86080D01*
X4064500Y-85900D01*
X4070480Y-85020D01*
X4076320Y-83420D01*
X4081940Y-81140D01*
X4087240Y-78220D01*
X4092160Y-74680D01*
X4096620Y-70600D01*
X4100580Y-66020D01*
X4103960Y-61000D01*
X4106440Y-56180D01*
X4107340Y-55000D01*
X4108639Y-54240D01*
X4110100Y-54000D01*
X4111560Y-54340D01*
X4112799Y-55160D01*
X4113660Y-56400D01*
X4114500Y-58339D01*
X4117580Y-63560D01*
X4121259Y-68360D01*
X4125480Y-72720D01*
X4130179Y-76520D01*
X4135299Y-79760D01*
X4140760Y-82360D01*
X4146500Y-84300D01*
X4152420Y-85540D01*
X4158460Y-86080D01*
X4164500Y-85900D01*
X4170480Y-85020D01*
X4176320Y-83420D01*
X4181940Y-81140D01*
X4187240Y-78220D01*
X4192160Y-74680D01*
X4196620Y-70600D01*
X4200580Y-66020D01*
X4203960Y-61000D01*
X4206440Y-56180D01*
X4207340Y-55000D01*
X4208640Y-54240D01*
X4210100Y-54000D01*
X4211560Y-54340D01*
X4212800Y-55160D01*
X4213660Y-56400D01*
X4214500Y-58339D01*
X4217580Y-63560D01*
X4221260Y-68360D01*
X4225480Y-72720D01*
X4230180Y-76520D01*
X4235300Y-79760D01*
X4240760Y-82360D01*
X4246500Y-84300D01*
X4252420Y-85540D01*
X4258460Y-86080D01*
X4264500Y-85900D01*
X4270480Y-85020D01*
X4276320Y-83420D01*
X4281940Y-81140D01*
X4287240Y-78220D01*
X4292160Y-74680D01*
X4296620Y-70600D01*
X4300580Y-66020D01*
X4303960Y-61000D01*
X4306440Y-56180D01*
X4307340Y-55000D01*
X4308640Y-54240D01*
X4310100Y-54000D01*
X4311560Y-54340D01*
X4312800Y-55160D01*
X4313660Y-56400D01*
X4314500Y-58339D01*
X4317580Y-63560D01*
X4321260Y-68360D01*
X4325480Y-72720D01*
X4330180Y-76520D01*
X4335300Y-79760D01*
X4340760Y-82360D01*
X4346500Y-84300D01*
X4352420Y-85540D01*
X4358460Y-86080D01*
X4364500Y-85900D01*
X4370480Y-85020D01*
X4376320Y-83420D01*
X4381940Y-81140D01*
X4387240Y-78220D01*
X4392160Y-74680D01*
X4396620Y-70600D01*
X4400580Y-66020D01*
X4403960Y-61000D01*
X4406440Y-56180D01*
X4407340Y-55000D01*
X4408640Y-54240D01*
X4410100Y-54000D01*
X4411560Y-54340D01*
X4412800Y-55160D01*
X4413660Y-56400D01*
X4414500Y-58339D01*
X4417580Y-63560D01*
X4421260Y-68360D01*
X4425480Y-72720D01*
X4430180Y-76520D01*
X4435300Y-79760D01*
X4440760Y-82360D01*
X4446500Y-84300D01*
X4452420Y-85540D01*
X4458460Y-86080D01*
X4464500Y-85900D01*
X4470480Y-85020D01*
X4476320Y-83420D01*
X4481940Y-81140D01*
X4487240Y-78220D01*
X4492160Y-74680D01*
X4496620Y-70600D01*
X4500580Y-66020D01*
X4503960Y-61000D01*
X4506440Y-56180D01*
X4507340Y-55000D01*
X4508640Y-54240D01*
X4510100Y-54000D01*
X4511560Y-54340D01*
X4512800Y-55160D01*
X4513660Y-56400D01*
X4514500Y-58339D01*
X4517580Y-63560D01*
X4521260Y-68360D01*
X4525480Y-72720D01*
X4530180Y-76520D01*
X4535300Y-79760D01*
X4540760Y-82360D01*
X4546500Y-84300D01*
X4552420Y-85540D01*
X4558460Y-86080D01*
X4564500Y-85900D01*
X4570480Y-85020D01*
X4576320Y-83420D01*
X4581940Y-81140D01*
X4587240Y-78220D01*
X4592160Y-74680D01*
X4596620Y-70600D01*
X4600580Y-66020D01*
X4603960Y-61000D01*
X4606440Y-56180D01*
X4607340Y-55000D01*
X4608640Y-54240D01*
X4610100Y-54000D01*
X4611560Y-54340D01*
X4612800Y-55160D01*
X4613660Y-56400D01*
X4614500Y-58339D01*
X4617580Y-63560D01*
X4621260Y-68360D01*
X4625480Y-72720D01*
X4630180Y-76520D01*
X4635300Y-79760D01*
X4640760Y-82360D01*
X4646500Y-84300D01*
X4652420Y-85540D01*
X4658460Y-86080D01*
X4664500Y-85900D01*
X4670480Y-85020D01*
X4676320Y-83420D01*
X4681940Y-81140D01*
X4687240Y-78220D01*
X4692160Y-74680D01*
X4696620Y-70600D01*
X4700580Y-66020D01*
X4701600Y-64480D01*
X4702780Y-63339D01*
X4704300Y-62760D01*
X4705920Y-62840D01*
X4707380Y-63560D01*
X4708440Y-64820D01*
X4708920Y-66380D01*
X4709180Y-69500D01*
X4710100Y-72880D01*
X4711580Y-76060D01*
X4713580Y-78920D01*
X4716060Y-81400D01*
X4718920Y-83400D01*
X4722100Y-84880D01*
X4725480Y-85800D01*
G37*
G36*
X4131920Y199700D02*
G01*
X4139540Y200240D01*
X4147080Y201540D01*
X4154460Y203540D01*
X4161600Y206260D01*
X4168460Y209640D01*
X4174960Y213680D01*
X4181040Y218320D01*
X4186640Y223540D01*
X4191720Y229259D01*
X4196200Y235440D01*
X4200080Y242040D01*
X4203300Y248980D01*
X4205840Y256180D01*
X4207680Y263620D01*
X4208780Y271180D01*
X4209140Y278820D01*
X4208780Y286460D01*
X4207680Y294020D01*
X4205840Y301460D01*
X4203300Y308660D01*
X4200080Y315600D01*
X4196200Y322200D01*
X4191720Y328380D01*
X4186640Y334099D01*
X4181040Y339320D01*
X4174960Y343960D01*
X4168460Y348000D01*
X4161600Y351380D01*
X4154460Y354099D01*
X4147080Y356100D01*
X4139540Y357400D01*
X4131920Y357939D01*
X4124260Y357760D01*
X4116680Y356840D01*
X4109200Y355180D01*
X4101940Y352819D01*
X4094920Y349780D01*
X4088240Y346060D01*
X4081940Y341719D01*
X4076100Y336780D01*
X4070760Y331300D01*
X4065960Y325340D01*
X4061780Y318940D01*
X4058220Y312180D01*
X4055340Y305080D01*
X4053140Y297760D01*
X4051680Y290260D01*
X4050940Y282640D01*
X4050940Y275000D01*
X4051680Y267380D01*
X4053140Y259880D01*
X4055340Y252540D01*
X4058220Y245460D01*
X4061780Y238700D01*
X4065960Y232300D01*
X4070760Y226340D01*
X4076100Y220859D01*
X4081940Y215920D01*
X4088240Y211580D01*
X4094920Y207860D01*
X4101940Y204820D01*
X4109200Y202440D01*
X4116680Y200799D01*
X4124260Y199880D01*
G37*
G36*
X5067000Y339440D02*
G01*
X5073660Y339799D01*
X5080240Y340920D01*
X5086640Y342780D01*
X5092800Y345319D01*
X5098640Y348540D01*
X5104080Y352400D01*
X5109060Y356860D01*
X5113500Y361820D01*
X5117360Y367260D01*
X5120580Y373100D01*
X5123140Y379260D01*
X5124980Y385660D01*
X5126100Y392239D01*
X5126480Y398900D01*
X5126100Y405560D01*
X5124980Y412120D01*
X5123140Y418540D01*
X5120580Y424700D01*
X5117360Y430540D01*
X5113500Y435980D01*
X5109060Y440940D01*
X5104080Y445379D01*
X5098640Y449240D01*
X5092800Y452480D01*
X5086640Y455020D01*
X5080240Y456880D01*
X5073660Y457980D01*
X5067000Y458360D01*
X5060360Y457980D01*
X5053780Y456880D01*
X5047360Y455020D01*
X5041200Y452480D01*
X5035380Y449240D01*
X5029940Y445379D01*
X5024960Y440940D01*
X5020520Y435980D01*
X5016660Y430540D01*
X5013440Y424700D01*
X5010880Y418540D01*
X5009040Y412120D01*
X5007920Y405560D01*
X5007540Y398900D01*
X5007920Y392239D01*
X5009040Y385660D01*
X5010880Y379260D01*
X5013440Y373100D01*
X5016660Y367260D01*
X5020520Y361820D01*
X5024960Y356860D01*
X5029940Y352400D01*
X5035380Y348540D01*
X5041200Y345319D01*
X5047360Y342780D01*
X5053780Y340920D01*
X5060360Y339799D01*
G37*
G36*
X4127300Y632760D02*
G01*
X4134940Y632940D01*
X4142540Y633860D01*
X4150000Y635520D01*
X4157280Y637880D01*
X4164300Y640939D01*
X4170980Y644659D01*
X4177260Y649000D01*
X4183120Y653940D01*
X4188460Y659400D01*
X4193240Y665360D01*
X4197440Y671760D01*
X4201000Y678540D01*
X4203880Y685620D01*
X4206060Y692940D01*
X4207540Y700460D01*
X4208260Y708060D01*
X4208260Y715720D01*
X4207540Y723319D01*
X4206060Y730840D01*
X4203880Y738160D01*
X4201000Y745240D01*
X4197440Y752020D01*
X4193240Y758420D01*
X4188460Y764380D01*
X4183120Y769840D01*
X4177260Y774780D01*
X4170980Y779120D01*
X4164300Y782840D01*
X4157280Y785900D01*
X4150000Y788259D01*
X4142540Y789920D01*
X4134940Y790840D01*
X4127300Y791020D01*
X4119680Y790460D01*
X4112140Y789180D01*
X4104760Y787159D01*
X4097600Y784460D01*
X4090740Y781060D01*
X4084240Y777020D01*
X4078180Y772380D01*
X4072580Y767180D01*
X4067500Y761460D01*
X4063000Y755260D01*
X4059120Y748680D01*
X4055899Y741740D01*
X4053360Y734520D01*
X4051540Y727099D01*
X4050440Y719520D01*
X4050059Y711880D01*
X4050440Y704260D01*
X4051540Y696680D01*
X4053360Y689260D01*
X4055899Y682039D01*
X4059120Y675100D01*
X4063000Y668520D01*
X4067500Y662320D01*
X4072580Y656600D01*
X4078180Y651400D01*
X4084240Y646760D01*
X4090740Y642720D01*
X4097600Y639320D01*
X4104760Y636620D01*
X4112140Y634600D01*
X4119680Y633320D01*
G37*
G36*
X3927300Y632760D02*
G01*
X3934940Y632940D01*
X3942540Y633860D01*
X3950000Y635520D01*
X3957280Y637880D01*
X3964300Y640939D01*
X3970980Y644659D01*
X3977260Y649000D01*
X3983120Y653940D01*
X3988460Y659400D01*
X3993240Y665360D01*
X3997440Y671760D01*
X4001000Y678540D01*
X4003880Y685620D01*
X4006060Y692940D01*
X4007540Y700460D01*
X4008260Y708060D01*
X4008260Y715720D01*
X4007540Y723319D01*
X4006060Y730840D01*
X4003880Y738160D01*
X4001000Y745240D01*
X3997440Y752020D01*
X3993240Y758420D01*
X3988460Y764380D01*
X3983120Y769840D01*
X3977260Y774780D01*
X3970980Y779120D01*
X3964300Y782840D01*
X3957280Y785900D01*
X3950000Y788259D01*
X3942540Y789920D01*
X3934940Y790840D01*
X3927300Y791020D01*
X3919680Y790460D01*
X3912140Y789180D01*
X3904760Y787159D01*
X3897600Y784460D01*
X3890740Y781060D01*
X3884240Y777020D01*
X3878180Y772380D01*
X3872580Y767180D01*
X3867500Y761460D01*
X3863000Y755260D01*
X3859120Y748680D01*
X3855899Y741740D01*
X3853360Y734520D01*
X3851540Y727099D01*
X3850440Y719520D01*
X3850059Y711880D01*
X3850440Y704260D01*
X3851540Y696680D01*
X3853360Y689260D01*
X3855899Y682039D01*
X3859120Y675100D01*
X3863000Y668520D01*
X3867500Y662320D01*
X3872580Y656600D01*
X3878180Y651400D01*
X3884240Y646760D01*
X3890740Y642720D01*
X3897600Y639320D01*
X3904760Y636620D01*
X3912140Y634600D01*
X3919680Y633320D01*
G37*

%LPD*%
D11*
X3630000Y-50000D02*
G01*
X3530000Y-50000D01*
X3530000Y-50000D02*
G01*
X3420000Y-50000D01*
X3400000Y-70000D01*
X3400000Y-95100D01*
X3110000Y-1450000D02*
G01*
X3400000Y-1160000D01*
X3400000Y-100000D01*
D10*
X3230000Y-50000D02*
G01*
X3230000Y-200700D01*
X3340000Y-310700D01*
X3340000Y-1020000D01*
X3110000Y-1250000D01*
X3110000Y-1150000D02*
G01*
X3290000Y-970000D01*
X3290000Y-432500D01*
X3130000Y-272500D01*
X3130000Y-50000D01*
X6480000Y-2400000D02*
G01*
X6210000Y-2400000D01*
X5900000Y-2090000D01*
X5900000Y-1950000D01*
X5820000Y-1870000D01*
X3900000Y-1870000D01*
X3840000Y-1810000D01*
X3840000Y-1630000D01*
X3660000Y-1450000D01*
X3630000Y-1450000D01*
X2130000Y-850000D02*
G01*
X2130000Y-1050000D01*
X2130000Y-530000D02*
G01*
X2130000Y-850000D01*
D11*
X2130000Y-1139000D02*
G01*
X1951000Y-1139000D01*
X1330000Y-1760000D01*
X1330000Y-1950000D01*
X1330000Y-2110000D02*
G01*
X1330000Y-1950000D01*
D10*
X5880000Y-2380000D02*
G01*
X5880000Y-2140000D01*
X5840000Y-2100000D01*
X5840000Y-1970000D01*
X5800000Y-1930000D01*
X3860000Y-1930000D01*
X3790000Y-1860000D01*
X3790000Y-1670000D01*
X3670000Y-1550000D01*
X3630000Y-1550000D01*
X1030000Y-2110000D02*
G01*
X1030000Y-1950000D01*
X2130000Y-1350000D02*
G01*
X2130000Y-1050000D01*
X2030000Y-1350000D02*
G01*
X2030000Y-1360000D01*
X2140000Y-1470000D01*
X2220000Y-1470000D01*
X2280000Y-1410000D01*
X2280000Y-520000D01*
X2030000Y-270000D01*
X2030000Y-50000D01*
X2030000Y-530000D02*
G01*
X2030000Y-400000D01*
X1930000Y-300000D01*
X1930000Y-50000D01*
X3110000Y-750000D02*
G01*
X2750000Y-750000D01*
X2130000Y-130000D01*
X2130000Y-50000D01*
X770000Y-50000D02*
G01*
X770000Y100000D01*
X870000Y-50000D02*
G01*
X870000Y100000D01*
X970000Y-50000D02*
G01*
X970000Y100000D01*
X1070000Y-50000D02*
G01*
X1070000Y100000D01*
X1170000Y-50000D02*
G01*
X1170000Y100000D01*
X1270000Y-50000D02*
G01*
X1270000Y100000D01*
X1370000Y-50000D02*
G01*
X1370000Y100000D01*
X1470000Y-50000D02*
G01*
X1470000Y100000D01*
X1630000Y-50000D02*
G01*
X1630000Y100000D01*
X1730000Y-50000D02*
G01*
X1730000Y100000D01*
X1830000Y-50000D02*
G01*
X1830000Y100000D01*
X3630000Y-750000D02*
G01*
X3660000Y-750000D01*
X3860000Y-550000D01*
X3860000Y-240000D01*
X3890000Y-210000D01*
X5800000Y-210000D01*
X5890000Y-120000D01*
X5890000Y230000D01*
X5930000Y270000D01*
X6450000Y270000D01*
X6480000Y300000D01*
X6480000Y400000D01*
X6480000Y400000D02*
G01*
X6480000Y610000D01*
X5880000Y400000D02*
G01*
X5880000Y610000D01*
X3630000Y-650000D02*
G01*
X3670000Y-650000D01*
X3800000Y-520000D01*
X3800000Y-210000D01*
X3870000Y-140000D01*
X5800000Y-140000D01*
X5840000Y-100000D01*
X5840000Y260000D01*
X5880000Y300000D01*
X5880000Y400000D01*
X3630000Y-550000D02*
G01*
X3670000Y-550000D01*
X3740000Y-480000D01*
X3740000Y290000D01*
X3895799Y445700D01*
X4956800Y445700D01*
X4956769Y345749D02*
G01*
X4956769Y445749D01*
X5880000Y-2380000D02*
G01*
X5880000Y-2620000D01*
X6480000Y-2620000D02*
G01*
X6480000Y-2400000D01*
X4003230Y-2355749D02*
G01*
X4003230Y-2303229D01*
X3720000Y-2020000D01*
X3720000Y-1700000D01*
X3670000Y-1650000D01*
X3630000Y-1650000D01*
D12*
X4003230Y-2455749D02*
G01*
X4003230Y-2355749D01*
D11*
X3130000Y100000D02*
G01*
X3130000Y-50000D01*
D10*
X3030000Y-50000D02*
G01*
X3030000Y100000D01*
D11*
X3230000Y100000D02*
G01*
X3230000Y-50000D01*
D10*
X2730000Y-50000D02*
G01*
X2730000Y100000D01*
X2230000Y-50000D02*
G01*
X2230000Y100000D01*
X2330000Y-50000D02*
G01*
X2330000Y100000D01*
X2530000Y-50000D02*
G01*
X2530000Y100000D01*
X2630000Y-50000D02*
G01*
X2630000Y100000D01*
X2830000Y-50000D02*
G01*
X2830000Y100000D01*
X2930000Y-50000D02*
G01*
X2930000Y100000D01*
X3430000Y-2110000D02*
G01*
X3430000Y-1950000D01*
X3330000Y-2110000D02*
G01*
X3330000Y-1950000D01*
X3230000Y-2110000D02*
G01*
X3230000Y-1950000D01*
X3130000Y-2110000D02*
G01*
X3130000Y-1950000D01*
X3030000Y-2110000D02*
G01*
X3030000Y-1950000D01*
X2930000Y-2110000D02*
G01*
X2930000Y-1950000D01*
X2830000Y-2110000D02*
G01*
X2830000Y-1950000D01*
X2730000Y-2110000D02*
G01*
X2730000Y-1950000D01*
X2530000Y-2110000D02*
G01*
X2530000Y-1950000D01*
X2430000Y-2110000D02*
G01*
X2430000Y-1950000D01*
X2330000Y-2110000D02*
G01*
X2330000Y-1950000D01*
X2230000Y-2110000D02*
G01*
X2230000Y-1950000D01*
X2130000Y-2110000D02*
G01*
X2130000Y-1950000D01*
X2030000Y-2110000D02*
G01*
X2030000Y-1950000D01*
X1930000Y-2110000D02*
G01*
X1930000Y-1950000D01*
X1830000Y-2110000D02*
G01*
X1830000Y-1950000D01*
X1530000Y-2110000D02*
G01*
X1530000Y-1950000D01*
X1430000Y-2110000D02*
G01*
X1430000Y-1950000D01*
X1130000Y-2110000D02*
G01*
X1130000Y-1950000D01*
D11*
X1230000Y-2110000D02*
G01*
X1230000Y-1950000D01*
X1630000Y-2110000D02*
G01*
X1630000Y-1950000D01*
D10*
X1930000Y-50000D02*
G01*
X1930000Y100000D01*
X2030000Y100000D02*
G01*
X2030000Y-50000D01*
X2130000Y100000D02*
G01*
X2130000Y-50000D01*
D12*
G01*
X4003230Y-2655749D03*
G01*
X4003230Y-2555749D03*
G01*
X4003230Y-2455749D03*
G01*
X4003230Y-2355749D03*
D13*
G01*
X3892990Y-2605749D03*
G01*
X3892990Y-2408899D03*
D14*
G01*
X5030000Y-2288820D03*
G01*
X4830000Y-2288820D03*
G01*
X4830789Y-2721889D03*
G01*
X5030789Y-2721889D03*
D12*
G01*
X4956769Y645749D03*
G01*
X4956769Y545749D03*
G01*
X4956769Y445749D03*
G01*
X4956769Y345749D03*
D13*
G01*
X5067010Y595749D03*
G01*
X5067010Y398899D03*
D14*
G01*
X3930000Y278820D03*
G01*
X4130000Y278820D03*
G01*
X4129210Y711889D03*
G01*
X3929210Y711889D03*
D15*
G01*
X1630039Y-1950000D03*
G01*
X1530039Y-1950000D03*
G01*
X1430039Y-1950000D03*
G01*
X1330039Y-1950000D03*
G01*
X1230039Y-1950000D03*
G01*
X1130039Y-1950000D03*
G01*
X3630039Y-50000D03*
G01*
X3530039Y-50000D03*
G01*
X3630039Y-1750000D03*
G01*
X3530039Y-1750000D03*
D16*
G01*
X3530039Y-950000D03*
G01*
X3630039Y-950000D03*
G01*
X3530039Y-1050000D03*
G01*
X3630039Y-1050000D03*
G01*
X3530039Y-1150000D03*
G01*
X3630039Y-1150000D03*
G01*
X3530039Y-1250000D03*
G01*
X3630039Y-1250000D03*
G01*
X3530039Y-1350000D03*
G01*
X3630039Y-1350000D03*
G01*
X3530039Y-1450000D03*
G01*
X3630039Y-1450000D03*
G01*
X3530039Y-1550000D03*
G01*
X3630039Y-1550000D03*
G01*
X3530039Y-1650000D03*
G01*
X3630039Y-1650000D03*
G01*
X3530039Y-150000D03*
G01*
X3630039Y-150000D03*
G01*
X3530039Y-250000D03*
G01*
X3630039Y-250000D03*
G01*
X3530039Y-350000D03*
G01*
X3630039Y-350000D03*
G01*
X3530039Y-450000D03*
G01*
X3630039Y-450000D03*
G01*
X3530039Y-550000D03*
G01*
X3630039Y-550000D03*
G01*
X3530039Y-650000D03*
G01*
X3630039Y-650000D03*
G01*
X3530039Y-750000D03*
G01*
X3630039Y-750000D03*
G01*
X3530039Y-850000D03*
G01*
X3630039Y-850000D03*
D15*
G01*
X770039Y-50000D03*
G01*
X1470039Y-50000D03*
G01*
X1370039Y-50000D03*
G01*
X1270039Y-50000D03*
G01*
X1170039Y-50000D03*
G01*
X1070039Y-50000D03*
G01*
X970039Y-50000D03*
G01*
X870039Y-50000D03*
G01*
X1630039Y-50000D03*
G01*
X2330039Y-50000D03*
G01*
X2230039Y-50000D03*
G01*
X2130039Y-50000D03*
G01*
X2030039Y-50000D03*
G01*
X1930039Y-50000D03*
G01*
X1830039Y-50000D03*
G01*
X1730039Y-50000D03*
G01*
X1830039Y-1950000D03*
G01*
X2530039Y-1950000D03*
G01*
X2430039Y-1950000D03*
G01*
X2330039Y-1950000D03*
G01*
X2230039Y-1950000D03*
G01*
X2130039Y-1950000D03*
G01*
X2030039Y-1950000D03*
G01*
X1930039Y-1950000D03*
G01*
X2530039Y-50000D03*
G01*
X3230039Y-50000D03*
G01*
X3130039Y-50000D03*
G01*
X3030039Y-50000D03*
G01*
X2930039Y-50000D03*
G01*
X2830039Y-50000D03*
G01*
X2730039Y-50000D03*
G01*
X2630039Y-50000D03*
G01*
X2730039Y-1950000D03*
G01*
X3430039Y-1950000D03*
G01*
X3330039Y-1950000D03*
G01*
X3230039Y-1950000D03*
G01*
X3130039Y-1950000D03*
G01*
X3030039Y-1950000D03*
G01*
X2930039Y-1950000D03*
G01*
X2830039Y-1950000D03*
G01*
X1030039Y-1950000D03*
D17*
G01*
X1110000Y-550000D03*
G01*
X1110000Y-650000D03*
G01*
X1110000Y-750000D03*
G01*
X1110000Y-850000D03*
G01*
X1110000Y-950000D03*
G01*
X1110000Y-1050000D03*
G01*
X1110000Y-1150000D03*
G01*
X1110000Y-1250000D03*
G01*
X1110000Y-1350000D03*
D18*
G01*
X1110000Y-1450000D03*
D17*
G01*
X690000Y-550000D03*
G01*
X690000Y-650000D03*
G01*
X690000Y-750000D03*
G01*
X690000Y-850000D03*
G01*
X690000Y-950000D03*
G01*
X690000Y-1050000D03*
G01*
X690000Y-1150000D03*
G01*
X690000Y-1250000D03*
G01*
X690000Y-1350000D03*
D18*
G01*
X690000Y-1450000D03*
D14*
G01*
X80000Y-1140000D03*
G01*
X80000Y-1340000D03*
D17*
G01*
X1470000Y100000D03*
G01*
X1370000Y100000D03*
G01*
X1270000Y100000D03*
G01*
X1170000Y100000D03*
G01*
X1070000Y100000D03*
G01*
X970000Y100000D03*
G01*
X870000Y100000D03*
G01*
X770000Y100000D03*
G01*
X670000Y100000D03*
G36*
X539000Y130999D02*
G01*
X600999Y130999D01*
X600999Y69000D01*
X539000Y69000D01*
G37*
G36*
X1594566Y135432D02*
G01*
X1665433Y135432D01*
X1665433Y64567D01*
X1594566Y64567D01*
G37*
D20*
G01*
X1730000Y100000D03*
G01*
X1830000Y100000D03*
G01*
X1930000Y100000D03*
G01*
X2030000Y100000D03*
G01*
X2130000Y100000D03*
G01*
X2230000Y100000D03*
G01*
X2330000Y100000D03*
G36*
X2494566Y135432D02*
G01*
X2565433Y135432D01*
X2565433Y64567D01*
X2494566Y64567D01*
G37*
G01*
X2630000Y100000D03*
G01*
X2730000Y100000D03*
G01*
X2830000Y100000D03*
G01*
X2930000Y100000D03*
G01*
X3030000Y100000D03*
G01*
X3130000Y100000D03*
G01*
X3230000Y100000D03*
D18*
G01*
X4759960Y-35019D03*
D17*
G01*
X4659960Y-35019D03*
G01*
X4559960Y-35019D03*
G01*
X4459960Y-35019D03*
G01*
X4359960Y-35019D03*
G01*
X4259960Y-35019D03*
G01*
X4159960Y-35019D03*
G01*
X4059960Y-35019D03*
G01*
X3959960Y-35019D03*
D18*
G01*
X4759960Y-2020019D03*
D17*
G01*
X4659960Y-2020019D03*
G01*
X4559960Y-2020019D03*
G01*
X4459960Y-2020019D03*
G01*
X4359960Y-2020019D03*
G01*
X4259960Y-2020019D03*
G01*
X4159960Y-2020019D03*
G01*
X4059960Y-2020019D03*
G01*
X3959960Y-2020019D03*
D18*
G01*
X5769960Y-35019D03*
D17*
G01*
X5669960Y-35019D03*
G01*
X5569960Y-35019D03*
G01*
X5469960Y-35019D03*
G01*
X5369960Y-35019D03*
G01*
X5269960Y-35019D03*
G01*
X5169960Y-35019D03*
G01*
X5069960Y-35019D03*
G01*
X4969960Y-35019D03*
D18*
G01*
X5769960Y-2020019D03*
D17*
G01*
X5669960Y-2020019D03*
G01*
X5569960Y-2020019D03*
G01*
X5469960Y-2020019D03*
G01*
X5369960Y-2020019D03*
G01*
X5269960Y-2020019D03*
G01*
X5169960Y-2020019D03*
G01*
X5069960Y-2020019D03*
G01*
X4969960Y-2020019D03*
G36*
X5948964Y-1984014D02*
G01*
X6010964Y-1984014D01*
X6010964Y-2046015D01*
X5948964Y-2046015D01*
G37*
G01*
X6079970Y-2015010D03*
G01*
X6179970Y-2015010D03*
G01*
X6279970Y-2015010D03*
G01*
X6379970Y-2015010D03*
G01*
X6479970Y-2015010D03*
G01*
X6579970Y-2015010D03*
G01*
X6679970Y-2015010D03*
G01*
X6779970Y-2015010D03*
G36*
X5948964Y985D02*
G01*
X6010964Y985D01*
X6010964Y-61015D01*
X5948964Y-61015D01*
G37*
G01*
X6079970Y-30010D03*
G01*
X6179970Y-30010D03*
G01*
X6279970Y-30010D03*
G01*
X6379970Y-30010D03*
G01*
X6479970Y-30010D03*
G01*
X6579970Y-30010D03*
G01*
X6679970Y-30010D03*
G01*
X6779970Y-30010D03*
D21*
G01*
X1930000Y-1050000D03*
G01*
X2130000Y-1050000D03*
G01*
X1930000Y-850000D03*
G01*
X2130000Y-850000D03*
G36*
X1890000Y-1310000D02*
G01*
X1970000Y-1310000D01*
X1970000Y-1390000D01*
X1890000Y-1390000D01*
G37*
D23*
G01*
X2030000Y-1350000D03*
G01*
X2130000Y-1350000D03*
G36*
X1890000Y-490000D02*
G01*
X1970000Y-490000D01*
X1970000Y-570000D01*
X1890000Y-570000D01*
G37*
G01*
X2030000Y-530000D03*
G01*
X2130000Y-530000D03*
D17*
G01*
X3110000Y-550000D03*
G01*
X3110000Y-650000D03*
G01*
X3110000Y-750000D03*
G01*
X3110000Y-850000D03*
G01*
X3110000Y-950000D03*
G01*
X3110000Y-1050000D03*
G01*
X3110000Y-1150000D03*
G01*
X3110000Y-1250000D03*
G01*
X3110000Y-1350000D03*
D18*
G01*
X3110000Y-1450000D03*
D17*
G01*
X850000Y-550000D03*
G01*
X850000Y-650000D03*
G01*
X850000Y-750000D03*
G01*
X850000Y-850000D03*
G01*
X850000Y-950000D03*
G01*
X850000Y-1050000D03*
G01*
X850000Y-1150000D03*
G01*
X850000Y-1250000D03*
G01*
X850000Y-1350000D03*
D18*
G01*
X850000Y-1450000D03*
D17*
G01*
X1260000Y-550000D03*
G01*
X1260000Y-650000D03*
G01*
X1260000Y-750000D03*
G01*
X1260000Y-850000D03*
G01*
X1260000Y-950000D03*
G01*
X1260000Y-1050000D03*
G01*
X1260000Y-1150000D03*
G01*
X1260000Y-1250000D03*
G01*
X1260000Y-1350000D03*
D18*
G01*
X1260000Y-1450000D03*
D19*
G01*
X1630000Y-2110000D03*
D20*
G01*
X1530000Y-2110000D03*
G01*
X1430000Y-2110000D03*
G01*
X1330000Y-2110000D03*
G01*
X1230000Y-2110000D03*
G01*
X1130000Y-2110000D03*
G01*
X1030000Y-2110000D03*
G01*
X930000Y-2110000D03*
D19*
G01*
X2530000Y-2110000D03*
D20*
G01*
X2430000Y-2110000D03*
G01*
X2330000Y-2110000D03*
G01*
X2230000Y-2110000D03*
G01*
X2130000Y-2110000D03*
G01*
X2030000Y-2110000D03*
G01*
X1930000Y-2110000D03*
G01*
X1830000Y-2110000D03*
D19*
G01*
X3430000Y-2110000D03*
D20*
G01*
X3330000Y-2110000D03*
G01*
X3230000Y-2110000D03*
G01*
X3130000Y-2110000D03*
G01*
X3030000Y-2110000D03*
G01*
X2930000Y-2110000D03*
G01*
X2830000Y-2110000D03*
G01*
X2730000Y-2110000D03*
G36*
X5840000Y-2580000D02*
G01*
X5920000Y-2580000D01*
X5920000Y-2660000D01*
X5840000Y-2660000D01*
G37*
D23*
G01*
X5980000Y-2620000D03*
G01*
X6080000Y-2620000D03*
G36*
X6440000Y-2580000D02*
G01*
X6520000Y-2580000D01*
X6520000Y-2660000D01*
X6440000Y-2660000D01*
G37*
G01*
X6580000Y-2620000D03*
G01*
X6680000Y-2620000D03*
G36*
X5840000Y650000D02*
G01*
X5920000Y650000D01*
X5920000Y570000D01*
X5840000Y570000D01*
G37*
G01*
X5980000Y610000D03*
G01*
X6080000Y610000D03*
G36*
X6440000Y650000D02*
G01*
X6520000Y650000D01*
X6520000Y570000D01*
X6440000Y570000D01*
G37*
G01*
X6580000Y610000D03*
G01*
X6680000Y610000D03*
D24*
G01*
X280000Y-818420D03*
D25*
G01*
X280000Y-621579D03*
D21*
G01*
X6080000Y-2380000D03*
G01*
X5880000Y-2380000D03*
G01*
X6680000Y-2400000D03*
G01*
X6480000Y-2400000D03*
G01*
X6080000Y400000D03*
G01*
X5880000Y400000D03*
G01*
X6680000Y400000D03*
G01*
X6480000Y400000D03*
G01*
X5270000Y-1400000D03*
G01*
X5470000Y-1400000D03*
G01*
X5270000Y-1660000D03*
G01*
X5470000Y-1660000D03*
G01*
X6280000Y-1400000D03*
G01*
X6480000Y-1400000D03*
G01*
X6280000Y-1660000D03*
G01*
X6480000Y-1660000D03*
G01*
X5270000Y-1150000D03*
G01*
X5470000Y-1150000D03*
G01*
X4460000Y-1650000D03*
G01*
X4260000Y-1650000D03*
G01*
X6280000Y-1150000D03*
G01*
X6480000Y-1150000D03*
M02*
