M48
METRIC,LZ,000.000
;FILE_FORMAT=3:3
;TYPE=PLATED
;Layer: Drill PTH
;EasyEDA v6.4.19.5, 2021-05-27T13:51:55--3:00
;d4571b5f0cad4c8e9ba745b3e698b6d2,59636247558045d2802cba280e4ac9d9,10
;Gerber Generator version 0.2
;Holesize 1 = 1.000 mm
T01C1.000
;Holesize 2 = 3.200 mm
T02C3.200
%
G05
G90
T01
X072898Y-011176
X082042Y-023876
X084328Y-027565
X086868Y-031375
X017018Y-001270
X014478Y-001270
X037592Y-034290
X160652Y-055372
X146812Y-055372
X154086Y006004
X149352Y006096
X119380Y-058674
X096012Y005588
X037846Y-013970
X058420Y-018288
X049530Y-028448
X049530Y-025908
X049530Y-023368
X049530Y-020828
X049530Y-018288
X056109Y-012446G85X056159Y-012446
X056109Y-020701G85X056159Y-020701
X056109Y-026162G85X056159Y-026162
X056109Y-034417G85X056159Y-034417
X037846Y-028448
X037846Y-025908
X037846Y-023368
X037846Y-020828
X037846Y-018288
X041402Y-028448
X041402Y-025908
X041402Y-023368
X041402Y-020828
X041402Y-018288
X041402Y-053594
X038862Y-053594
X036322Y-053594
X033782Y-053594
X023622Y-053594
X026162Y-053594
X028702Y-053594
X031242Y-053594
X064262Y-053594
X061722Y-053594
X059182Y-053594
X056642Y-053594
X046482Y-053594
X049022Y-053594
X051562Y-053594
X054102Y-053594
X082550Y-042418
X080010Y-042418
X077470Y-042418
X074930Y-042418
X064770Y-042418
X067310Y-042418
X069850Y-042418
X072390Y-042418
X064262Y002540
X066802Y002540
X069342Y002540
X071882Y002540
X082042Y002540
X079502Y002540
X076962Y002540
X074422Y002540
X041402Y002540
X043942Y002540
X046482Y002540
X049022Y002540
X059182Y002540
X056642Y002540
X054102Y002540
X051562Y002540
X037338Y002540
X034798Y002540
X032258Y002540
X029718Y002540
X027178Y002540
X024638Y002540
X022098Y002540
X019558Y002540
X017018Y002540
X014478Y002540
X020828Y-013970
X020828Y-016510
X020828Y-019050
X020828Y-021590
X020828Y-024130
X020828Y-026670
X020828Y-029210
X020828Y-031750
X020828Y-034290
X020828Y-036830
X031242Y-013970
X031242Y-016510
X031242Y-019050
X031242Y-021590
X031242Y-024130
X031242Y-026670
X031242Y-029210
X031242Y-031750
X031242Y-034290
X031242Y-036830
X078994Y-013970
X078994Y-016510
X078994Y-019050
X078994Y-021590
X078994Y-024130
X078994Y-026670
X078994Y-029210
X078994Y-031750
X078994Y-034290
X078994Y-036830
X027432Y-013970
X027432Y-016510
X027432Y-019050
X027432Y-021590
X027432Y-024130
X027432Y-026670
X027432Y-029210
X027432Y-031750
X027432Y-034290
X027432Y-036830
X016764Y-013970
X016764Y-016510
X016764Y-019050
X016764Y-021590
X016764Y-024130
X016764Y-026670
X016764Y-029210
X016764Y-031750
X016764Y-034290
X016764Y-036830
X036830Y-042418
X034290Y-042418
X031750Y-042418
X029210Y-042418
X019050Y-042418
X021590Y-042418
X024130Y-042418
X026670Y-042418
X059436Y-042418
X056896Y-042418
X054356Y-042418
X051816Y-042418
X041656Y-042418
X044196Y-042418
X046736Y-042418
X049276Y-042418
X037338Y-006350
X034798Y-006350
X032258Y-006350
X029718Y-006350
X027178Y-006350
X024638Y-006350
X022098Y-006350
X019558Y-006350
X017018Y-006350
X014478Y-006350
X041402Y-006350
X043942Y-006350
X046482Y-006350
X049022Y-006350
X059182Y-006350
X056642Y-006350
X054102Y-006350
X051562Y-006350
X064262Y-006350
X066802Y-006350
X069342Y-006350
X071882Y-006350
X082042Y-006350
X079502Y-006350
X076962Y-006350
X074422Y-006350
X125902Y-059798
X125902Y-062338
X125902Y-064878
X125902Y-067418
X128702Y-061068
X128702Y-066068
X099822Y-069118
X104902Y-069118
X104882Y-058118
X099802Y-058118
X002032Y-028956
X002032Y-034036
X149352Y-066548
X151892Y-066548
X154432Y-066548
X164592Y-066548
X167132Y-066548
X169672Y-066548
X149352Y015494
X151892Y015494
X154432Y015494
X164592Y015494
X167132Y015494
X169672Y015494
X007112Y-020788
X007112Y-015787
X154432Y-060452
X149352Y-060452
X169672Y-060452
X164592Y-060452
X154432Y010160
X149352Y010160
X169672Y010160
X164592Y010160
X133858Y-035560
X138938Y-035560
X133858Y-042164
X138938Y-042164
X159512Y-035560
X164592Y-035560
X159512Y-042164
X164592Y-042164
X133858Y-029210
X138938Y-029210
X113284Y-041910
X108204Y-041910
X159512Y-029210
X164592Y-029210
X087122Y-053340
X084582Y-053340
X082042Y-053340
X079502Y-053340
X069342Y-053340
X071882Y-053340
X074422Y-053340
X076962Y-053340
X121158Y-000127
X118618Y-000127
X116078Y-000127
X113538Y-000127
X110998Y-000127
X108458Y-000127
X105918Y-000127
X103378Y-000127
X100838Y-000127
X121158Y-050546
X118618Y-050546
X116078Y-050546
X113538Y-050546
X110998Y-050546
X108458Y-050546
X105918Y-050546
X103378Y-050546
X100838Y-050546
X146557Y-000127
X144017Y-000127
X141477Y-000127
X138937Y-000127
X136397Y-000127
X133857Y-000127
X131317Y-000127
X128777Y-000127
X126237Y-000127
X146557Y-050546
X144017Y-050546
X141477Y-050546
X138937Y-050546
X136397Y-050546
X133857Y-050546
X131317Y-050546
X128777Y-050546
X126237Y-050546
X151638Y-050673
X154178Y-050673
X156718Y-050673
X159258Y-050673
X161798Y-050673
X164338Y-050673
X166878Y-050673
X169418Y-050673
X171958Y-050673
X151638Y-000254
X154178Y-000254
X156718Y-000254
X159258Y-000254
X161798Y-000254
X164338Y-000254
X166878Y-000254
X169418Y-000254
X171958Y-000254
X041402Y-049784
X038862Y-049784
X036322Y-049784
X033782Y-049784
X031242Y-049784
X028702Y-049784
X092202Y-001524
X089662Y-001524
X092202Y-044704
X089662Y-044704
X089662Y-024384
X092202Y-024384
X089662Y-026924
X092202Y-026924
X089662Y-029464
X092202Y-029464
X089662Y-032004
X092202Y-032004
X089662Y-034544
X092202Y-034544
X089662Y-037084
X092202Y-037084
X089662Y-039624
X092202Y-039624
X089662Y-042164
X092202Y-042164
X089662Y-004064
X092202Y-004064
X089662Y-006604
X092202Y-006604
X089662Y-009144
X092202Y-009144
X089662Y-011684
X092202Y-011684
X089662Y-014224
X092202Y-014224
X089662Y-016764
X092202Y-016764
X089662Y-019304
X092202Y-019304
X089662Y-021844
X092202Y-021844
X019558Y-001524
X037338Y-001524
X034798Y-001524
X032258Y-001524
X029718Y-001524
X027178Y-001524
X024638Y-001524
X022098Y-001524
X041402Y-001524
X059182Y-001524
X056642Y-001524
X054102Y-001524
X051562Y-001524
X049022Y-001524
X046482Y-001524
X043942Y-001524
X046482Y-049784
X064262Y-049784
X061722Y-049784
X059182Y-049784
X056642Y-049784
X054102Y-049784
X051562Y-049784
X049022Y-049784
X064262Y-001524
X082042Y-001524
X079502Y-001524
X076962Y-001524
X074422Y-001524
X071882Y-001524
X069342Y-001524
X066802Y-001524
X069342Y-049784
X087122Y-049784
X084582Y-049784
X082042Y-049784
X079502Y-049784
X076962Y-049784
X074422Y-049784
X071882Y-049784
X026162Y-049784
X101682Y008744
X101682Y011284
X101682Y013824
X101682Y016364
X098882Y010014
X098882Y015014
X127762Y018064
X122682Y018064
X122702Y007064
X127782Y007064
X108204Y-035560
X113284Y-035560
X108204Y-029210
X113284Y-029210
T02
X139189Y-061722G85X139195Y-061722
X139189Y010668G85X139195Y010668
X090929Y-061722G85X090935Y-061722
X090929Y010668G85X090935Y010668
M30
