G04 Layer: BottomSolderMaskLayer*
G04 EasyEDA v6.4.19.5, 2021-04-15T14:22:44--3:00*
G04 56ca0cd20ace464db3ad8dc24ac0750e,59636247558045d2802cba280e4ac9d9,10*
G04 Gerber Generator version 0.2*
G04 Scale: 100 percent, Rotated: No, Reflected: No *
G04 Dimensions in inches *
G04 leading zeros omitted , absolute positions ,3 integer and 6 decimal *
%FSLAX36Y36*%
%MOIN*%

%ADD28C,0.0867*%
%ADD29C,0.0880*%
%ADD30C,0.2049*%
%ADD32C,0.1261*%
%ADD34C,0.1025*%

%LPD*%
D28*
G01*
X2780000Y-750000D03*
G01*
X3230000Y-940000D03*
G01*
X3320000Y-1085232D03*
G01*
X3420000Y-1235232D03*
G01*
X670000Y-50000D03*
G01*
X570000Y-50000D03*
D29*
G01*
X1910000Y-1440000D03*
D28*
G01*
X6324862Y-2180000D03*
G01*
X5850000Y-2180000D03*
G01*
X6066359Y236359D03*
G01*
X5880000Y240000D03*
G01*
X4700000Y-2310000D03*
G01*
X3780000Y220000D03*
D30*
G01*
X5480000Y-2430000D03*
G01*
X5480000Y420000D03*
G01*
X3580000Y-2430000D03*
G01*
X3580000Y420000D03*
D28*
G01*
X1550000Y-1120000D03*
G01*
X1550000Y-1020000D03*
G01*
X1550000Y-920000D03*
G01*
X1550000Y-820000D03*
G01*
X1550000Y-720000D03*
G01*
X1730000Y-1120000D03*
G01*
X1730000Y-1020000D03*
G01*
X1730000Y-920000D03*
G01*
X1730000Y-820000D03*
G01*
X1730000Y-720000D03*
G36*
X1586599Y-2153400D02*
G01*
X1586599Y-2066599D01*
X1673400Y-2066599D01*
X1673400Y-2153400D01*
G37*
G01*
X1530000Y-2110000D03*
G01*
X1430000Y-2110000D03*
G01*
X1330000Y-2110000D03*
G01*
X930000Y-2110000D03*
G01*
X1030000Y-2110000D03*
G01*
X1130000Y-2110000D03*
G01*
X1230000Y-2110000D03*
G36*
X2486599Y-2153400D02*
G01*
X2486599Y-2066599D01*
X2573400Y-2066599D01*
X2573400Y-2153400D01*
G37*
G01*
X2430000Y-2110000D03*
G01*
X2330000Y-2110000D03*
G01*
X2230000Y-2110000D03*
G01*
X1830000Y-2110000D03*
G01*
X1930000Y-2110000D03*
G01*
X2030000Y-2110000D03*
G01*
X2130000Y-2110000D03*
G36*
X3206599Y-1713400D02*
G01*
X3206599Y-1626599D01*
X3293400Y-1626599D01*
X3293400Y-1713400D01*
G37*
G01*
X3150000Y-1670000D03*
G01*
X3050000Y-1670000D03*
G01*
X2950000Y-1670000D03*
G01*
X2550000Y-1670000D03*
G01*
X2650000Y-1670000D03*
G01*
X2750000Y-1670000D03*
G01*
X2850000Y-1670000D03*
G36*
X2486599Y56599D02*
G01*
X2486599Y143400D01*
X2573400Y143400D01*
X2573400Y56599D01*
G37*
G01*
X2630000Y100000D03*
G01*
X2730000Y100000D03*
G01*
X2830000Y100000D03*
G01*
X3230000Y100000D03*
G01*
X3130000Y100000D03*
G01*
X3030000Y100000D03*
G01*
X2930000Y100000D03*
G36*
X1586599Y56599D02*
G01*
X1586599Y143400D01*
X1673400Y143400D01*
X1673400Y56599D01*
G37*
G01*
X1730000Y100000D03*
G01*
X1830000Y100000D03*
G01*
X1930000Y100000D03*
G01*
X2330000Y100000D03*
G01*
X2230000Y100000D03*
G01*
X2130000Y100000D03*
G01*
X2030000Y100000D03*
G01*
X1470000Y100000D03*
G01*
X1370000Y100000D03*
G01*
X1270000Y100000D03*
G01*
X1170000Y100000D03*
G01*
X1070000Y100000D03*
G01*
X970000Y100000D03*
G01*
X870000Y100000D03*
G01*
X770000Y100000D03*
G01*
X670000Y100000D03*
G36*
X526599Y56599D02*
G01*
X526599Y143400D01*
X613400Y143400D01*
X613400Y56599D01*
G37*
G01*
X850000Y-550000D03*
G01*
X850000Y-650000D03*
G01*
X850000Y-750000D03*
G01*
X850000Y-850000D03*
G01*
X850000Y-950000D03*
G01*
X850000Y-1050000D03*
G01*
X850000Y-1150000D03*
G01*
X850000Y-1250000D03*
G01*
X850000Y-1350000D03*
G36*
X806599Y-1493400D02*
G01*
X806599Y-1406599D01*
X893400Y-1406599D01*
X893400Y-1493400D01*
G37*
G01*
X1260000Y-550000D03*
G01*
X1260000Y-650000D03*
G01*
X1260000Y-750000D03*
G01*
X1260000Y-850000D03*
G01*
X1260000Y-950000D03*
G01*
X1260000Y-1050000D03*
G01*
X1260000Y-1150000D03*
G01*
X1260000Y-1250000D03*
G01*
X1260000Y-1350000D03*
G36*
X1216599Y-1493400D02*
G01*
X1216599Y-1406599D01*
X1303400Y-1406599D01*
X1303400Y-1493400D01*
G37*
G01*
X3110000Y-550000D03*
G01*
X3110000Y-650000D03*
G01*
X3110000Y-750000D03*
G01*
X3110000Y-850000D03*
G01*
X3110000Y-950000D03*
G01*
X3110000Y-1050000D03*
G01*
X3110000Y-1150000D03*
G01*
X3110000Y-1250000D03*
G01*
X3110000Y-1350000D03*
G36*
X3066599Y-1493400D02*
G01*
X3066599Y-1406599D01*
X3153400Y-1406599D01*
X3153400Y-1493400D01*
G37*
G01*
X1110000Y-550000D03*
G01*
X1110000Y-650000D03*
G01*
X1110000Y-750000D03*
G01*
X1110000Y-850000D03*
G01*
X1110000Y-950000D03*
G01*
X1110000Y-1050000D03*
G01*
X1110000Y-1150000D03*
G01*
X1110000Y-1250000D03*
G01*
X1110000Y-1350000D03*
G36*
X1066599Y-1493400D02*
G01*
X1066599Y-1406599D01*
X1153400Y-1406599D01*
X1153400Y-1493400D01*
G37*
G01*
X690000Y-550000D03*
G01*
X690000Y-650000D03*
G01*
X690000Y-750000D03*
G01*
X690000Y-850000D03*
G01*
X690000Y-950000D03*
G01*
X690000Y-1050000D03*
G01*
X690000Y-1150000D03*
G01*
X690000Y-1250000D03*
G01*
X690000Y-1350000D03*
G36*
X646599Y-1493400D02*
G01*
X646599Y-1406599D01*
X733400Y-1406599D01*
X733400Y-1493400D01*
G37*
G36*
X1406599Y-1713400D02*
G01*
X1406599Y-1626599D01*
X1493400Y-1626599D01*
X1493400Y-1713400D01*
G37*
G01*
X1350000Y-1670000D03*
G01*
X1250000Y-1670000D03*
G01*
X1150000Y-1670000D03*
G01*
X750000Y-1670000D03*
G01*
X850000Y-1670000D03*
G01*
X950000Y-1670000D03*
G01*
X1050000Y-1670000D03*
G36*
X2296599Y-1713400D02*
G01*
X2296599Y-1626599D01*
X2383400Y-1626599D01*
X2383400Y-1713400D01*
G37*
G01*
X2240000Y-1670000D03*
G01*
X2140000Y-1670000D03*
G01*
X2040000Y-1670000D03*
G01*
X1640000Y-1670000D03*
G01*
X1740000Y-1670000D03*
G01*
X1840000Y-1670000D03*
G01*
X1940000Y-1670000D03*
G01*
X1470000Y-250000D03*
G01*
X1370000Y-250000D03*
G01*
X1270000Y-250000D03*
G01*
X1170000Y-250000D03*
G01*
X1070000Y-250000D03*
G01*
X970000Y-250000D03*
G01*
X870000Y-250000D03*
G01*
X770000Y-250000D03*
G01*
X670000Y-250000D03*
G36*
X526599Y-293400D02*
G01*
X526599Y-206599D01*
X613400Y-206599D01*
X613400Y-293400D01*
G37*
G36*
X1586599Y-293400D02*
G01*
X1586599Y-206599D01*
X1673400Y-206599D01*
X1673400Y-293400D01*
G37*
G01*
X1730000Y-250000D03*
G01*
X1830000Y-250000D03*
G01*
X1930000Y-250000D03*
G01*
X2330000Y-250000D03*
G01*
X2230000Y-250000D03*
G01*
X2130000Y-250000D03*
G01*
X2030000Y-250000D03*
G36*
X2486599Y-293400D02*
G01*
X2486599Y-206599D01*
X2573400Y-206599D01*
X2573400Y-293400D01*
G37*
G01*
X2630000Y-250000D03*
G01*
X2730000Y-250000D03*
G01*
X2830000Y-250000D03*
G01*
X3230000Y-250000D03*
G01*
X3130000Y-250000D03*
G01*
X3030000Y-250000D03*
G01*
X2930000Y-250000D03*
G01*
X4956769Y-2354250D03*
G01*
X4956769Y-2454250D03*
G01*
X4956769Y-2554250D03*
G01*
X4956769Y-2654250D03*
G01*
X5067010Y-2404250D03*
G01*
X5067010Y-2601100D03*
D32*
G01*
X3930000Y-2721179D03*
G01*
X4130000Y-2721179D03*
G01*
X4129210Y-2288110D03*
G01*
X3929210Y-2288110D03*
G01*
X80000Y-1140000D03*
G01*
X80000Y-1340000D03*
G36*
X5836599Y-2663400D02*
G01*
X5836599Y-2576599D01*
X5923400Y-2576599D01*
X5923400Y-2663400D01*
G37*
D28*
G01*
X5980000Y-2620000D03*
G01*
X6080000Y-2620000D03*
G36*
X6436599Y-2663400D02*
G01*
X6436599Y-2576599D01*
X6523400Y-2576599D01*
X6523400Y-2663400D01*
G37*
G01*
X6580000Y-2620000D03*
G01*
X6680000Y-2620000D03*
G36*
X5836599Y566599D02*
G01*
X5836599Y653400D01*
X5923400Y653400D01*
X5923400Y566599D01*
G37*
G01*
X5980000Y610000D03*
G01*
X6080000Y610000D03*
G36*
X6436599Y566599D02*
G01*
X6436599Y653400D01*
X6523400Y653400D01*
X6523400Y566599D01*
G37*
G01*
X6580000Y610000D03*
G01*
X6680000Y610000D03*
G36*
X228800Y-869699D02*
G01*
X228800Y-767199D01*
X331199Y-767199D01*
X331199Y-869699D01*
G37*
D34*
G01*
X280000Y-621579D03*
D28*
G01*
X6080000Y-2380000D03*
G01*
X5880000Y-2380000D03*
G01*
X6680000Y-2400000D03*
G01*
X6480000Y-2400000D03*
G01*
X6080000Y400000D03*
G01*
X5880000Y400000D03*
G01*
X6680000Y400000D03*
G01*
X6480000Y400000D03*
G01*
X5270000Y-1400000D03*
G01*
X5470000Y-1400000D03*
G01*
X5270000Y-1660000D03*
G01*
X5470000Y-1660000D03*
G01*
X6280000Y-1400000D03*
G01*
X6480000Y-1400000D03*
G01*
X6280000Y-1660000D03*
G01*
X6480000Y-1660000D03*
G01*
X5270000Y-1150000D03*
G01*
X5470000Y-1150000D03*
G01*
X4460000Y-1650000D03*
G01*
X4260000Y-1650000D03*
G01*
X6280000Y-1150000D03*
G01*
X6480000Y-1150000D03*
G36*
X3386599Y-2143400D02*
G01*
X3386599Y-2056599D01*
X3473400Y-2056599D01*
X3473400Y-2143400D01*
G37*
G01*
X3330000Y-2100000D03*
G01*
X3230000Y-2100000D03*
G01*
X3130000Y-2100000D03*
G01*
X2730000Y-2100000D03*
G01*
X2830000Y-2100000D03*
G01*
X2930000Y-2100000D03*
G01*
X3030000Y-2100000D03*
G36*
X4726599Y-48400D02*
G01*
X4726599Y38400D01*
X4813400Y38400D01*
X4813400Y-48400D01*
G37*
G01*
X4670000Y-5010D03*
G01*
X4570000Y-5010D03*
G01*
X4470000Y-5010D03*
G01*
X4370000Y-5010D03*
G01*
X4270000Y-5010D03*
G01*
X4170000Y-5010D03*
G01*
X4070000Y-5010D03*
G01*
X3970000Y-5010D03*
G36*
X4726599Y-2033400D02*
G01*
X4726599Y-1946599D01*
X4813400Y-1946599D01*
X4813400Y-2033400D01*
G37*
G01*
X4670000Y-1990010D03*
G01*
X4570000Y-1990010D03*
G01*
X4470000Y-1990010D03*
G01*
X4370000Y-1990010D03*
G01*
X4270000Y-1990010D03*
G01*
X4170000Y-1990010D03*
G01*
X4070000Y-1990010D03*
G01*
X3970000Y-1990010D03*
G36*
X5726599Y-48400D02*
G01*
X5726599Y38400D01*
X5813299Y38400D01*
X5813299Y-48400D01*
G37*
G01*
X5669960Y-5010D03*
G01*
X5569960Y-5010D03*
G01*
X5469960Y-5010D03*
G01*
X5369960Y-5010D03*
G01*
X5269960Y-5010D03*
G01*
X5169960Y-5010D03*
G01*
X5069960Y-5010D03*
G01*
X4969960Y-5010D03*
G36*
X5726599Y-2033400D02*
G01*
X5726599Y-1946599D01*
X5813299Y-1946599D01*
X5813299Y-2033400D01*
G37*
G01*
X5669960Y-1990010D03*
G01*
X5569960Y-1990010D03*
G01*
X5469960Y-1990010D03*
G01*
X5369960Y-1990010D03*
G01*
X5269960Y-1990010D03*
G01*
X5169960Y-1990010D03*
G01*
X5069960Y-1990010D03*
G01*
X4969960Y-1990010D03*
G36*
X5926599Y-2038400D02*
G01*
X5926599Y-1951599D01*
X6013400Y-1951599D01*
X6013400Y-2038400D01*
G37*
G01*
X6070005Y-1995000D03*
G01*
X6170005Y-1995000D03*
G01*
X6270005Y-1995000D03*
G01*
X6370005Y-1995000D03*
G01*
X6470005Y-1995000D03*
G01*
X6570005Y-1995000D03*
G01*
X6670005Y-1995000D03*
G01*
X6770005Y-1995000D03*
G36*
X5926599Y-53400D02*
G01*
X5926599Y33400D01*
X6013400Y33400D01*
X6013400Y-53400D01*
G37*
G01*
X6070005Y-10000D03*
G01*
X6170005Y-10000D03*
G01*
X6270005Y-10000D03*
G01*
X6370005Y-10000D03*
G01*
X6470005Y-10000D03*
G01*
X6570005Y-10000D03*
G01*
X6670005Y-10000D03*
G01*
X6770005Y-10000D03*
G01*
X1630000Y-1960000D03*
G01*
X1530000Y-1960000D03*
G01*
X1430000Y-1960000D03*
G01*
X1330000Y-1960000D03*
G01*
X1230000Y-1960000D03*
G01*
X1130000Y-1960000D03*
G01*
X3630000Y-60000D03*
G01*
X3530000Y-60000D03*
G01*
X3630000Y-1760000D03*
G01*
X3530000Y-1760000D03*
G36*
X3486599Y-1003400D02*
G01*
X3486599Y-916599D01*
X3573400Y-916599D01*
X3573400Y-1003400D01*
G37*
G36*
X3586599Y-1003400D02*
G01*
X3586599Y-916599D01*
X3673400Y-916599D01*
X3673400Y-1003400D01*
G37*
G36*
X3486599Y-1103400D02*
G01*
X3486599Y-1016599D01*
X3573400Y-1016599D01*
X3573400Y-1103400D01*
G37*
G36*
X3586599Y-1103400D02*
G01*
X3586599Y-1016599D01*
X3673400Y-1016599D01*
X3673400Y-1103400D01*
G37*
G36*
X3486599Y-1203400D02*
G01*
X3486599Y-1116599D01*
X3573400Y-1116599D01*
X3573400Y-1203400D01*
G37*
G36*
X3586599Y-1203400D02*
G01*
X3586599Y-1116599D01*
X3673400Y-1116599D01*
X3673400Y-1203400D01*
G37*
G36*
X3486599Y-1303400D02*
G01*
X3486599Y-1216599D01*
X3573400Y-1216599D01*
X3573400Y-1303400D01*
G37*
G36*
X3586599Y-1303400D02*
G01*
X3586599Y-1216599D01*
X3673400Y-1216599D01*
X3673400Y-1303400D01*
G37*
G36*
X3486599Y-1403400D02*
G01*
X3486599Y-1316599D01*
X3573400Y-1316599D01*
X3573400Y-1403400D01*
G37*
G36*
X3586599Y-1403400D02*
G01*
X3586599Y-1316599D01*
X3673400Y-1316599D01*
X3673400Y-1403400D01*
G37*
G36*
X3486599Y-1503400D02*
G01*
X3486599Y-1416599D01*
X3573400Y-1416599D01*
X3573400Y-1503400D01*
G37*
G36*
X3586599Y-1503400D02*
G01*
X3586599Y-1416599D01*
X3673400Y-1416599D01*
X3673400Y-1503400D01*
G37*
G36*
X3486599Y-1603400D02*
G01*
X3486599Y-1516599D01*
X3573400Y-1516599D01*
X3573400Y-1603400D01*
G37*
G36*
X3586599Y-1603400D02*
G01*
X3586599Y-1516599D01*
X3673400Y-1516599D01*
X3673400Y-1603400D01*
G37*
G36*
X3486599Y-1703400D02*
G01*
X3486599Y-1616599D01*
X3573400Y-1616599D01*
X3573400Y-1703400D01*
G37*
G36*
X3586599Y-1703400D02*
G01*
X3586599Y-1616599D01*
X3673400Y-1616599D01*
X3673400Y-1703400D01*
G37*
G36*
X3486599Y-203400D02*
G01*
X3486599Y-116599D01*
X3573400Y-116599D01*
X3573400Y-203400D01*
G37*
G36*
X3586599Y-203400D02*
G01*
X3586599Y-116599D01*
X3673400Y-116599D01*
X3673400Y-203400D01*
G37*
G36*
X3486599Y-303400D02*
G01*
X3486599Y-216599D01*
X3573400Y-216599D01*
X3573400Y-303400D01*
G37*
G36*
X3586599Y-303400D02*
G01*
X3586599Y-216599D01*
X3673400Y-216599D01*
X3673400Y-303400D01*
G37*
G36*
X3486599Y-403400D02*
G01*
X3486599Y-316599D01*
X3573400Y-316599D01*
X3573400Y-403400D01*
G37*
G36*
X3586599Y-403400D02*
G01*
X3586599Y-316599D01*
X3673400Y-316599D01*
X3673400Y-403400D01*
G37*
G36*
X3486599Y-503400D02*
G01*
X3486599Y-416599D01*
X3573400Y-416599D01*
X3573400Y-503400D01*
G37*
G36*
X3586599Y-503400D02*
G01*
X3586599Y-416599D01*
X3673400Y-416599D01*
X3673400Y-503400D01*
G37*
G36*
X3486599Y-603400D02*
G01*
X3486599Y-516599D01*
X3573400Y-516599D01*
X3573400Y-603400D01*
G37*
G36*
X3586599Y-603400D02*
G01*
X3586599Y-516599D01*
X3673400Y-516599D01*
X3673400Y-603400D01*
G37*
G36*
X3486599Y-703400D02*
G01*
X3486599Y-616599D01*
X3573400Y-616599D01*
X3573400Y-703400D01*
G37*
G36*
X3586599Y-703400D02*
G01*
X3586599Y-616599D01*
X3673400Y-616599D01*
X3673400Y-703400D01*
G37*
G36*
X3486599Y-803400D02*
G01*
X3486599Y-716599D01*
X3573400Y-716599D01*
X3573400Y-803400D01*
G37*
G36*
X3586599Y-803400D02*
G01*
X3586599Y-716599D01*
X3673400Y-716599D01*
X3673400Y-803400D01*
G37*
G36*
X3486599Y-903400D02*
G01*
X3486599Y-816599D01*
X3573400Y-816599D01*
X3573400Y-903400D01*
G37*
G36*
X3586599Y-903400D02*
G01*
X3586599Y-816599D01*
X3673400Y-816599D01*
X3673400Y-903400D01*
G37*
G01*
X770000Y-60000D03*
G01*
X1470000Y-60000D03*
G01*
X1370000Y-60000D03*
G01*
X1270000Y-60000D03*
G01*
X1170000Y-60000D03*
G01*
X1070000Y-60000D03*
G01*
X970000Y-60000D03*
G01*
X870000Y-60000D03*
G01*
X1630000Y-60000D03*
G01*
X2330000Y-60000D03*
G01*
X2230000Y-60000D03*
G01*
X2130000Y-60000D03*
G01*
X2030000Y-60000D03*
G01*
X1930000Y-60000D03*
G01*
X1830000Y-60000D03*
G01*
X1730000Y-60000D03*
G01*
X1830000Y-1960000D03*
G01*
X2530000Y-1960000D03*
G01*
X2430000Y-1960000D03*
G01*
X2330000Y-1960000D03*
G01*
X2230000Y-1960000D03*
G01*
X2130000Y-1960000D03*
G01*
X2030000Y-1960000D03*
G01*
X1930000Y-1960000D03*
G01*
X2530000Y-60000D03*
G01*
X3230000Y-60000D03*
G01*
X3130000Y-60000D03*
G01*
X3030000Y-60000D03*
G01*
X2930000Y-60000D03*
G01*
X2830000Y-60000D03*
G01*
X2730000Y-60000D03*
G01*
X2630000Y-60000D03*
G01*
X2730000Y-1960000D03*
G01*
X3430000Y-1960000D03*
G01*
X3330000Y-1960000D03*
G01*
X3230000Y-1960000D03*
G01*
X3130000Y-1960000D03*
G01*
X3030000Y-1960000D03*
G01*
X2930000Y-1960000D03*
G01*
X2830000Y-1960000D03*
G01*
X1030000Y-1960000D03*
G01*
X4460000Y-1400000D03*
G01*
X4260000Y-1400000D03*
G01*
X4460000Y-1150000D03*
G01*
X4260000Y-1150000D03*
G01*
X4003230Y344250D03*
G01*
X4003230Y444250D03*
G01*
X4003230Y544250D03*
G01*
X4003230Y644250D03*
G01*
X3892990Y394250D03*
G01*
X3892990Y591100D03*
D32*
G01*
X5030000Y711179D03*
G01*
X4830000Y711179D03*
G01*
X4830789Y278110D03*
G01*
X5030789Y278110D03*
M02*
