G04 Layer: TopSilkLayer*
G04 EasyEDA v6.4.17, 2021-03-24T16:23:22--3:00*
G04 5452c1f5e71c41299ba0e0f227da57fd,59636247558045d2802cba280e4ac9d9,10*
G04 Gerber Generator version 0.2*
G04 Scale: 100 percent, Rotated: No, Reflected: No *
G04 Dimensions in millimeters *
G04 leading zeros omitted , absolute positions ,4 integer and 5 decimal *
%FSLAX45Y45*%
%MOMM*%

%ADD21C,0.2032*%
%ADD22C,0.2030*%
%ADD23C,0.2540*%
%ADD24C,0.1200*%
%ADD25C,0.3048*%
%ADD26C,0.1524*%

%LPD*%
D21*
X16522700Y772668D02*
G01*
X16391636Y772668D01*
X16457168Y838200D02*
G01*
X16457168Y707389D01*
X14998700Y772668D02*
G01*
X14867636Y772668D01*
X14933168Y838200D02*
G01*
X14933168Y707389D01*
X14998700Y-5823445D02*
G01*
X14867636Y-5823445D01*
X14933168Y-5757913D02*
G01*
X14933168Y-5888723D01*
X16522700Y-5882131D02*
G01*
X16391636Y-5882131D01*
X16457168Y-5816600D02*
G01*
X16457168Y-5947410D01*
X16522700Y-3957914D02*
G01*
X16391636Y-3957914D01*
X16457168Y-3892382D02*
G01*
X16457168Y-4023192D01*
X16522700Y-3302861D02*
G01*
X16391636Y-3302861D01*
X16457168Y-3237329D02*
G01*
X16457168Y-3368139D01*
X16522700Y-2654493D02*
G01*
X16391636Y-2654493D01*
X16457168Y-2588961D02*
G01*
X16457168Y-2719771D01*
X13957300Y-2656331D02*
G01*
X13826236Y-2656331D01*
X13891768Y-2590800D02*
G01*
X13891768Y-2721610D01*
X13957300Y-3318537D02*
G01*
X13826236Y-3318537D01*
X13891768Y-3253005D02*
G01*
X13891768Y-3383815D01*
X13957300Y-3997563D02*
G01*
X13826236Y-3997563D01*
X13891768Y-3932031D02*
G01*
X13891768Y-4062841D01*
X10883900Y-3951731D02*
G01*
X10752836Y-3951731D01*
X10818368Y-3886200D02*
G01*
X10818368Y-4017010D01*
X5473700Y-2456347D02*
G01*
X5342636Y-2456347D01*
X5408168Y-2390815D02*
G01*
X5408168Y-2521625D01*
X5473700Y-1924641D02*
G01*
X5342636Y-1924641D01*
X5408168Y-1859109D02*
G01*
X5408168Y-1989919D01*
X7514843Y-2897378D02*
G01*
X7504429Y-2886963D01*
X7488936Y-2881884D01*
X7468108Y-2881884D01*
X7452613Y-2886963D01*
X7442200Y-2897378D01*
X7442200Y-2907792D01*
X7447279Y-2918205D01*
X7452613Y-2923539D01*
X7463027Y-2928620D01*
X7494270Y-2939034D01*
X7504429Y-2944113D01*
X7509763Y-2949447D01*
X7514843Y-2959862D01*
X7514843Y-2975355D01*
X7504429Y-2985770D01*
X7488936Y-2990850D01*
X7468108Y-2990850D01*
X7452613Y-2985770D01*
X7442200Y-2975355D01*
X7549134Y-2881884D02*
G01*
X7549134Y-2990850D01*
X7549134Y-2881884D02*
G01*
X7585709Y-2881884D01*
X7601204Y-2886963D01*
X7611618Y-2897378D01*
X7616697Y-2907792D01*
X7622031Y-2923539D01*
X7622031Y-2949447D01*
X7616697Y-2964942D01*
X7611618Y-2975355D01*
X7601204Y-2985770D01*
X7585709Y-2990850D01*
X7549134Y-2990850D01*
X7697724Y-2881884D02*
G01*
X7656322Y-2990850D01*
X7697724Y-2881884D02*
G01*
X7739379Y-2990850D01*
X7671815Y-2954528D02*
G01*
X7723886Y-2954528D01*
X7514843Y-3151378D02*
G01*
X7504429Y-3140963D01*
X7488936Y-3135884D01*
X7468108Y-3135884D01*
X7452613Y-3140963D01*
X7442200Y-3151378D01*
X7442200Y-3161792D01*
X7447279Y-3172205D01*
X7452613Y-3177539D01*
X7463027Y-3182620D01*
X7494270Y-3193034D01*
X7504429Y-3198113D01*
X7509763Y-3203447D01*
X7514843Y-3213862D01*
X7514843Y-3229355D01*
X7504429Y-3239770D01*
X7488936Y-3244850D01*
X7468108Y-3244850D01*
X7452613Y-3239770D01*
X7442200Y-3229355D01*
X7627111Y-3161792D02*
G01*
X7622031Y-3151378D01*
X7611618Y-3140963D01*
X7601204Y-3135884D01*
X7580375Y-3135884D01*
X7569961Y-3140963D01*
X7559547Y-3151378D01*
X7554468Y-3161792D01*
X7549134Y-3177539D01*
X7549134Y-3203447D01*
X7554468Y-3218942D01*
X7559547Y-3229355D01*
X7569961Y-3239770D01*
X7580375Y-3244850D01*
X7601204Y-3244850D01*
X7611618Y-3239770D01*
X7622031Y-3229355D01*
X7627111Y-3218942D01*
X7661402Y-3135884D02*
G01*
X7661402Y-3244850D01*
X7661402Y-3244850D02*
G01*
X7723886Y-3244850D01*
X7416800Y-3643884D02*
G01*
X7458456Y-3752850D01*
X7499858Y-3643884D02*
G01*
X7458456Y-3752850D01*
X7612125Y-3669792D02*
G01*
X7607045Y-3659378D01*
X7596631Y-3648963D01*
X7586218Y-3643884D01*
X7565390Y-3643884D01*
X7554975Y-3648963D01*
X7544561Y-3659378D01*
X7539481Y-3669792D01*
X7534147Y-3685539D01*
X7534147Y-3711447D01*
X7539481Y-3726942D01*
X7544561Y-3737355D01*
X7554975Y-3747770D01*
X7565390Y-3752850D01*
X7586218Y-3752850D01*
X7596631Y-3747770D01*
X7607045Y-3737355D01*
X7612125Y-3726942D01*
X7724393Y-3669792D02*
G01*
X7719059Y-3659378D01*
X7708900Y-3648963D01*
X7698486Y-3643884D01*
X7677658Y-3643884D01*
X7667243Y-3648963D01*
X7656829Y-3659378D01*
X7651750Y-3669792D01*
X7646415Y-3685539D01*
X7646415Y-3711447D01*
X7651750Y-3726942D01*
X7656829Y-3737355D01*
X7667243Y-3747770D01*
X7677658Y-3752850D01*
X7698486Y-3752850D01*
X7708900Y-3747770D01*
X7719059Y-3737355D01*
X7724393Y-3726942D01*
X180086Y-4859273D02*
G01*
X173228Y-4845304D01*
X159257Y-4831587D01*
X145542Y-4824729D01*
X117855Y-4824729D01*
X103886Y-4831587D01*
X90170Y-4845304D01*
X83057Y-4859273D01*
X76200Y-4880102D01*
X76200Y-4914645D01*
X83057Y-4935473D01*
X90170Y-4949189D01*
X103886Y-4963160D01*
X117855Y-4970018D01*
X145542Y-4970018D01*
X159257Y-4963160D01*
X173228Y-4949189D01*
X180086Y-4935473D01*
X180086Y-4914645D01*
X145542Y-4914645D02*
G01*
X180086Y-4914645D01*
X308863Y-4872989D02*
G01*
X308863Y-4970018D01*
X308863Y-4893818D02*
G01*
X295147Y-4880102D01*
X281178Y-4872989D01*
X260350Y-4872989D01*
X246634Y-4880102D01*
X232663Y-4893818D01*
X225805Y-4914645D01*
X225805Y-4928615D01*
X232663Y-4949189D01*
X246634Y-4963160D01*
X260350Y-4970018D01*
X281178Y-4970018D01*
X295147Y-4963160D01*
X308863Y-4949189D01*
X354584Y-4824729D02*
G01*
X354584Y-4970018D01*
X354584Y-4893818D02*
G01*
X368554Y-4880102D01*
X382270Y-4872989D01*
X403097Y-4872989D01*
X417068Y-4880102D01*
X430784Y-4893818D01*
X437895Y-4914645D01*
X437895Y-4928615D01*
X430784Y-4949189D01*
X417068Y-4963160D01*
X403097Y-4970018D01*
X382270Y-4970018D01*
X368554Y-4963160D01*
X354584Y-4949189D01*
X483615Y-4872989D02*
G01*
X483615Y-4970018D01*
X483615Y-4914645D02*
G01*
X490473Y-4893818D01*
X504189Y-4880102D01*
X518160Y-4872989D01*
X538987Y-4872989D01*
X584707Y-4824729D02*
G01*
X591565Y-4831587D01*
X598423Y-4824729D01*
X591565Y-4817618D01*
X584707Y-4824729D01*
X591565Y-4872989D02*
G01*
X591565Y-4970018D01*
X644144Y-4914645D02*
G01*
X727455Y-4914645D01*
X727455Y-4900929D01*
X720344Y-4886960D01*
X713486Y-4880102D01*
X699770Y-4872989D01*
X678942Y-4872989D01*
X664971Y-4880102D01*
X651255Y-4893818D01*
X644144Y-4914645D01*
X644144Y-4928615D01*
X651255Y-4949189D01*
X664971Y-4963160D01*
X678942Y-4970018D01*
X699770Y-4970018D01*
X713486Y-4963160D01*
X727455Y-4949189D01*
X773176Y-4824729D02*
G01*
X773176Y-4970018D01*
X925576Y-4824729D02*
G01*
X925576Y-4970018D01*
X925576Y-4824729D02*
G01*
X987805Y-4824729D01*
X1008634Y-4831587D01*
X1015492Y-4838445D01*
X1022350Y-4852415D01*
X1022350Y-4866131D01*
X1015492Y-4880102D01*
X1008634Y-4886960D01*
X987805Y-4893818D01*
X925576Y-4893818D02*
G01*
X987805Y-4893818D01*
X1008634Y-4900929D01*
X1015492Y-4907787D01*
X1022350Y-4921504D01*
X1022350Y-4942331D01*
X1015492Y-4956302D01*
X1008634Y-4963160D01*
X987805Y-4970018D01*
X925576Y-4970018D01*
X1068070Y-4914645D02*
G01*
X1151381Y-4914645D01*
X1151381Y-4900929D01*
X1144270Y-4886960D01*
X1137412Y-4880102D01*
X1123695Y-4872989D01*
X1102868Y-4872989D01*
X1088897Y-4880102D01*
X1075181Y-4893818D01*
X1068070Y-4914645D01*
X1068070Y-4928615D01*
X1075181Y-4949189D01*
X1088897Y-4963160D01*
X1102868Y-4970018D01*
X1123695Y-4970018D01*
X1137412Y-4963160D01*
X1151381Y-4949189D01*
X1217929Y-4824729D02*
G01*
X1217929Y-4942331D01*
X1224787Y-4963160D01*
X1238504Y-4970018D01*
X1252473Y-4970018D01*
X1197102Y-4872989D02*
G01*
X1245615Y-4872989D01*
X1319021Y-4824729D02*
G01*
X1319021Y-4942331D01*
X1325879Y-4963160D01*
X1339850Y-4970018D01*
X1353565Y-4970018D01*
X1298194Y-4872989D02*
G01*
X1346707Y-4872989D01*
X1482344Y-4872989D02*
G01*
X1482344Y-4970018D01*
X1482344Y-4893818D02*
G01*
X1468628Y-4880102D01*
X1454657Y-4872989D01*
X1433829Y-4872989D01*
X1420113Y-4880102D01*
X1406144Y-4893818D01*
X1399286Y-4914645D01*
X1399286Y-4928615D01*
X1406144Y-4949189D01*
X1420113Y-4963160D01*
X1433829Y-4970018D01*
X1454657Y-4970018D01*
X1468628Y-4963160D01*
X1482344Y-4949189D01*
X1528063Y-4872989D02*
G01*
X1528063Y-4970018D01*
X1528063Y-4900929D02*
G01*
X1548892Y-4880102D01*
X1562862Y-4872989D01*
X1583689Y-4872989D01*
X1597405Y-4880102D01*
X1604263Y-4900929D01*
X1604263Y-4970018D01*
X1649984Y-4824729D02*
G01*
X1657095Y-4831587D01*
X1663954Y-4824729D01*
X1657095Y-4817618D01*
X1649984Y-4824729D01*
X1657095Y-4872989D02*
G01*
X1657095Y-4970018D01*
X1709673Y-4872989D02*
G01*
X1709673Y-4970018D01*
X1709673Y-4900929D02*
G01*
X1730502Y-4880102D01*
X1744218Y-4872989D01*
X1765045Y-4872989D01*
X1779015Y-4880102D01*
X1785873Y-4900929D01*
X1785873Y-4970018D01*
X117855Y-5053329D02*
G01*
X97028Y-5060187D01*
X83057Y-5081015D01*
X76200Y-5115560D01*
X76200Y-5136387D01*
X83057Y-5170931D01*
X97028Y-5191760D01*
X117855Y-5198618D01*
X131571Y-5198618D01*
X152400Y-5191760D01*
X166370Y-5170931D01*
X173228Y-5136387D01*
X173228Y-5115560D01*
X166370Y-5081015D01*
X152400Y-5060187D01*
X131571Y-5053329D01*
X117855Y-5053329D01*
X232663Y-5053329D02*
G01*
X308863Y-5053329D01*
X267462Y-5108702D01*
X288289Y-5108702D01*
X302005Y-5115560D01*
X308863Y-5122418D01*
X315976Y-5143245D01*
X315976Y-5157215D01*
X308863Y-5177789D01*
X295147Y-5191760D01*
X274320Y-5198618D01*
X253492Y-5198618D01*
X232663Y-5191760D01*
X225805Y-5184902D01*
X218947Y-5170931D01*
X486410Y-5025389D02*
G01*
X361695Y-5247131D01*
X538987Y-5087873D02*
G01*
X538987Y-5081015D01*
X545845Y-5067045D01*
X552704Y-5060187D01*
X566673Y-5053329D01*
X594360Y-5053329D01*
X608329Y-5060187D01*
X615187Y-5067045D01*
X622045Y-5081015D01*
X622045Y-5094731D01*
X615187Y-5108702D01*
X601218Y-5129529D01*
X532129Y-5198618D01*
X628904Y-5198618D01*
X716279Y-5053329D02*
G01*
X695452Y-5060187D01*
X681736Y-5081015D01*
X674623Y-5115560D01*
X674623Y-5136387D01*
X681736Y-5170931D01*
X695452Y-5191760D01*
X716279Y-5198618D01*
X730250Y-5198618D01*
X750823Y-5191760D01*
X764794Y-5170931D01*
X771652Y-5136387D01*
X771652Y-5115560D01*
X764794Y-5081015D01*
X750823Y-5060187D01*
X730250Y-5053329D01*
X716279Y-5053329D01*
X824229Y-5087873D02*
G01*
X824229Y-5081015D01*
X831342Y-5067045D01*
X838200Y-5060187D01*
X852170Y-5053329D01*
X879855Y-5053329D01*
X893571Y-5060187D01*
X900429Y-5067045D01*
X907542Y-5081015D01*
X907542Y-5094731D01*
X900429Y-5108702D01*
X886713Y-5129529D01*
X817371Y-5198618D01*
X914400Y-5198618D01*
X960120Y-5081015D02*
G01*
X974089Y-5073904D01*
X994663Y-5053329D01*
X994663Y-5198618D01*
X101600Y-4596129D02*
G01*
X101600Y-4741418D01*
X101600Y-4741418D02*
G01*
X184657Y-4741418D01*
X285750Y-4596129D02*
G01*
X230378Y-4741418D01*
X285750Y-4596129D02*
G01*
X341376Y-4741418D01*
X251205Y-4692904D02*
G01*
X320547Y-4692904D01*
X387095Y-4596129D02*
G01*
X387095Y-4741418D01*
X387095Y-4596129D02*
G01*
X449326Y-4596129D01*
X470154Y-4602987D01*
X477012Y-4609845D01*
X483870Y-4623815D01*
X483870Y-4644389D01*
X477012Y-4658360D01*
X470154Y-4665218D01*
X449326Y-4672329D01*
X387095Y-4672329D01*
X529589Y-4596129D02*
G01*
X529589Y-4741418D01*
X575310Y-4596129D02*
G01*
X672337Y-4741418D01*
X672337Y-4596129D02*
G01*
X575310Y-4741418D01*
X928623Y-4630673D02*
G01*
X921765Y-4616704D01*
X908050Y-4602987D01*
X894079Y-4596129D01*
X866394Y-4596129D01*
X852423Y-4602987D01*
X838707Y-4616704D01*
X831850Y-4630673D01*
X824737Y-4651502D01*
X824737Y-4686045D01*
X831850Y-4706873D01*
X838707Y-4720589D01*
X852423Y-4734560D01*
X866394Y-4741418D01*
X894079Y-4741418D01*
X908050Y-4734560D01*
X921765Y-4720589D01*
X928623Y-4706873D01*
X974344Y-4644389D02*
G01*
X974344Y-4741418D01*
X974344Y-4686045D02*
G01*
X981455Y-4665218D01*
X995171Y-4651502D01*
X1009142Y-4644389D01*
X1029970Y-4644389D01*
X1158747Y-4644389D02*
G01*
X1158747Y-4741418D01*
X1158747Y-4665218D02*
G01*
X1144778Y-4651502D01*
X1131062Y-4644389D01*
X1110234Y-4644389D01*
X1096263Y-4651502D01*
X1082547Y-4665218D01*
X1075689Y-4686045D01*
X1075689Y-4700015D01*
X1082547Y-4720589D01*
X1096263Y-4734560D01*
X1110234Y-4741418D01*
X1131062Y-4741418D01*
X1144778Y-4734560D01*
X1158747Y-4720589D01*
X1204468Y-4644389D02*
G01*
X1232154Y-4741418D01*
X1259839Y-4644389D02*
G01*
X1232154Y-4741418D01*
X1259839Y-4644389D02*
G01*
X1287526Y-4741418D01*
X1315212Y-4644389D02*
G01*
X1287526Y-4741418D01*
X1360931Y-4596129D02*
G01*
X1360931Y-4741418D01*
X1406652Y-4686045D02*
G01*
X1489710Y-4686045D01*
X1489710Y-4672329D01*
X1482852Y-4658360D01*
X1475994Y-4651502D01*
X1462023Y-4644389D01*
X1441450Y-4644389D01*
X1427479Y-4651502D01*
X1413510Y-4665218D01*
X1406652Y-4686045D01*
X1406652Y-4700015D01*
X1413510Y-4720589D01*
X1427479Y-4734560D01*
X1441450Y-4741418D01*
X1462023Y-4741418D01*
X1475994Y-4734560D01*
X1489710Y-4720589D01*
X1535429Y-4644389D02*
G01*
X1535429Y-4741418D01*
X1535429Y-4686045D02*
G01*
X1542542Y-4665218D01*
X1556257Y-4651502D01*
X1570228Y-4644389D01*
X1591055Y-4644389D01*
X1743455Y-4644389D02*
G01*
X1784857Y-4741418D01*
X1826513Y-4644389D02*
G01*
X1784857Y-4741418D01*
X1872234Y-4623815D02*
G01*
X1885950Y-4616704D01*
X1906778Y-4596129D01*
X1906778Y-4741418D01*
X1959609Y-4706873D02*
G01*
X1952497Y-4713731D01*
X1959609Y-4720589D01*
X1966468Y-4713731D01*
X1959609Y-4706873D01*
X2025904Y-4596129D02*
G01*
X2102104Y-4596129D01*
X2060702Y-4651502D01*
X2081529Y-4651502D01*
X2095245Y-4658360D01*
X2102104Y-4665218D01*
X2109215Y-4686045D01*
X2109215Y-4700015D01*
X2102104Y-4720589D01*
X2088388Y-4734560D01*
X2067559Y-4741418D01*
X2046731Y-4741418D01*
X2025904Y-4734560D01*
X2019045Y-4727702D01*
X2012188Y-4713731D01*
D26*
X2059177Y-1129792D02*
G01*
X2053843Y-1119378D01*
X2043429Y-1108963D01*
X2033270Y-1103884D01*
X2012441Y-1103884D01*
X2002027Y-1108963D01*
X1991613Y-1119378D01*
X1986279Y-1129792D01*
X1981200Y-1145539D01*
X1981200Y-1171447D01*
X1986279Y-1186942D01*
X1991613Y-1197355D01*
X2002027Y-1207770D01*
X2012441Y-1212850D01*
X2033270Y-1212850D01*
X2043429Y-1207770D01*
X2053843Y-1197355D01*
X2059177Y-1186942D01*
X2059177Y-1171447D01*
X2033270Y-1171447D02*
G01*
X2059177Y-1171447D01*
X2093468Y-1103884D02*
G01*
X2093468Y-1212850D01*
X2093468Y-1103884D02*
G01*
X2166111Y-1212850D01*
X2166111Y-1103884D02*
G01*
X2166111Y-1212850D01*
X2200402Y-1103884D02*
G01*
X2200402Y-1212850D01*
X2200402Y-1103884D02*
G01*
X2236724Y-1103884D01*
X2252472Y-1108963D01*
X2262886Y-1119378D01*
X2267965Y-1129792D01*
X2273300Y-1145539D01*
X2273300Y-1171447D01*
X2267965Y-1186942D01*
X2262886Y-1197355D01*
X2252472Y-1207770D01*
X2236724Y-1212850D01*
X2200402Y-1212850D01*
X2307590Y-1124712D02*
G01*
X2317750Y-1119378D01*
X2333497Y-1103884D01*
X2333497Y-1212850D01*
X3075177Y-1129792D02*
G01*
X3069843Y-1119378D01*
X3059429Y-1108963D01*
X3049270Y-1103884D01*
X3028441Y-1103884D01*
X3018027Y-1108963D01*
X3007613Y-1119378D01*
X3002279Y-1129792D01*
X2997200Y-1145539D01*
X2997200Y-1171447D01*
X3002279Y-1186942D01*
X3007613Y-1197355D01*
X3018027Y-1207770D01*
X3028441Y-1212850D01*
X3049270Y-1212850D01*
X3059429Y-1207770D01*
X3069843Y-1197355D01*
X3075177Y-1186942D01*
X3075177Y-1171447D01*
X3049270Y-1171447D02*
G01*
X3075177Y-1171447D01*
X3109468Y-1103884D02*
G01*
X3109468Y-1212850D01*
X3109468Y-1103884D02*
G01*
X3182111Y-1212850D01*
X3182111Y-1103884D02*
G01*
X3182111Y-1212850D01*
X3216402Y-1103884D02*
G01*
X3216402Y-1212850D01*
X3216402Y-1103884D02*
G01*
X3252724Y-1103884D01*
X3268472Y-1108963D01*
X3278886Y-1119378D01*
X3283965Y-1129792D01*
X3289300Y-1145539D01*
X3289300Y-1171447D01*
X3283965Y-1186942D01*
X3278886Y-1197355D01*
X3268472Y-1207770D01*
X3252724Y-1212850D01*
X3216402Y-1212850D01*
X3328670Y-1129792D02*
G01*
X3328670Y-1124712D01*
X3333750Y-1114297D01*
X3339084Y-1108963D01*
X3349497Y-1103884D01*
X3370325Y-1103884D01*
X3380740Y-1108963D01*
X3385820Y-1114297D01*
X3390900Y-1124712D01*
X3390900Y-1135126D01*
X3385820Y-1145539D01*
X3375406Y-1161034D01*
X3323590Y-1212850D01*
X3396234Y-1212850D01*
X7772400Y-1078484D02*
G01*
X7772400Y-1187450D01*
X7806690Y-1078484D02*
G01*
X7806690Y-1187450D01*
X7806690Y-1078484D02*
G01*
X7848345Y-1187450D01*
X7889747Y-1078484D02*
G01*
X7848345Y-1187450D01*
X7889747Y-1078484D02*
G01*
X7889747Y-1187450D01*
X7924038Y-1078484D02*
G01*
X7924038Y-1156462D01*
X7929372Y-1171955D01*
X7939786Y-1182370D01*
X7955279Y-1187450D01*
X7965693Y-1187450D01*
X7981188Y-1182370D01*
X7991602Y-1171955D01*
X7996936Y-1156462D01*
X7996936Y-1078484D01*
X2688336Y-1119378D02*
G01*
X2688336Y-1212850D01*
X2641600Y-1166113D02*
G01*
X2735072Y-1166113D01*
X2831845Y-1103884D02*
G01*
X2779775Y-1103884D01*
X2774695Y-1150620D01*
X2779775Y-1145539D01*
X2795270Y-1140205D01*
X2811018Y-1140205D01*
X2826511Y-1145539D01*
X2836925Y-1155700D01*
X2842259Y-1171447D01*
X2842259Y-1181862D01*
X2836925Y-1197355D01*
X2826511Y-1207770D01*
X2811018Y-1212850D01*
X2795270Y-1212850D01*
X2779775Y-1207770D01*
X2774695Y-1202689D01*
X2769361Y-1192276D01*
X2876550Y-1103884D02*
G01*
X2917952Y-1212850D01*
X2959608Y-1103884D02*
G01*
X2917952Y-1212850D01*
X1570736Y-1119378D02*
G01*
X1570736Y-1212850D01*
X1524000Y-1166113D02*
G01*
X1617471Y-1166113D01*
X1651762Y-1124712D02*
G01*
X1662176Y-1119378D01*
X1677670Y-1103884D01*
X1677670Y-1212850D01*
X1717294Y-1129792D02*
G01*
X1717294Y-1124712D01*
X1722373Y-1114297D01*
X1727707Y-1108963D01*
X1738121Y-1103884D01*
X1758950Y-1103884D01*
X1769110Y-1108963D01*
X1774444Y-1114297D01*
X1779523Y-1124712D01*
X1779523Y-1135126D01*
X1774444Y-1145539D01*
X1764029Y-1161034D01*
X1711960Y-1212850D01*
X1784857Y-1212850D01*
X1819147Y-1103884D02*
G01*
X1860550Y-1212850D01*
X1902205Y-1103884D02*
G01*
X1860550Y-1212850D01*
X2592070Y-5091684D02*
G01*
X2592070Y-5174742D01*
X2586736Y-5190489D01*
X2581656Y-5195570D01*
X2571241Y-5200650D01*
X2560827Y-5200650D01*
X2550413Y-5195570D01*
X2545079Y-5190489D01*
X2540000Y-5174742D01*
X2540000Y-5164328D01*
X2626359Y-5112512D02*
G01*
X2636520Y-5107178D01*
X2652268Y-5091684D01*
X2652268Y-5200650D01*
X4878070Y-5066284D02*
G01*
X4878070Y-5149342D01*
X4872736Y-5165089D01*
X4867656Y-5170170D01*
X4857241Y-5175250D01*
X4846827Y-5175250D01*
X4836413Y-5170170D01*
X4831079Y-5165089D01*
X4826000Y-5149342D01*
X4826000Y-5138928D01*
X4917440Y-5092192D02*
G01*
X4917440Y-5087112D01*
X4922520Y-5076697D01*
X4927854Y-5071363D01*
X4938268Y-5066284D01*
X4959095Y-5066284D01*
X4969509Y-5071363D01*
X4974590Y-5076697D01*
X4979670Y-5087112D01*
X4979670Y-5097526D01*
X4974590Y-5107939D01*
X4964175Y-5123434D01*
X4912359Y-5175250D01*
X4985004Y-5175250D01*
X3379470Y115315D02*
G01*
X3379470Y32257D01*
X3374136Y16510D01*
X3369056Y11429D01*
X3358641Y6350D01*
X3348227Y6350D01*
X3337813Y11429D01*
X3332479Y16510D01*
X3327400Y32257D01*
X3327400Y42671D01*
X3475990Y115315D02*
G01*
X3423920Y115315D01*
X3418840Y68579D01*
X3423920Y73660D01*
X3439668Y78994D01*
X3455161Y78994D01*
X3470909Y73660D01*
X3481070Y63500D01*
X3486404Y47752D01*
X3486404Y37337D01*
X3481070Y21844D01*
X3470909Y11429D01*
X3455161Y6350D01*
X3439668Y6350D01*
X3423920Y11429D01*
X3418840Y16510D01*
X3413759Y26923D01*
X5640070Y89915D02*
G01*
X5640070Y6857D01*
X5634736Y-8889D01*
X5629656Y-13970D01*
X5619241Y-19050D01*
X5608827Y-19050D01*
X5598413Y-13970D01*
X5593079Y-8889D01*
X5588000Y6857D01*
X5588000Y17271D01*
X5736590Y74421D02*
G01*
X5731509Y84836D01*
X5715761Y89915D01*
X5705347Y89915D01*
X5689854Y84836D01*
X5679440Y69087D01*
X5674359Y43179D01*
X5674359Y17271D01*
X5679440Y-3555D01*
X5689854Y-13970D01*
X5705347Y-19050D01*
X5710681Y-19050D01*
X5726175Y-13970D01*
X5736590Y-3555D01*
X5741670Y11937D01*
X5741670Y17271D01*
X5736590Y32765D01*
X5726175Y43179D01*
X5710681Y48260D01*
X5705347Y48260D01*
X5689854Y43179D01*
X5679440Y32765D01*
X5674359Y17271D01*
X13131800Y547115D02*
G01*
X13131800Y469137D01*
X13136879Y453644D01*
X13147293Y443229D01*
X13163041Y438150D01*
X13173456Y438150D01*
X13188950Y443229D01*
X13199363Y453644D01*
X13204443Y469137D01*
X13204443Y547115D01*
X13244068Y521207D02*
G01*
X13244068Y526287D01*
X13249147Y536702D01*
X13254481Y542036D01*
X13264895Y547115D01*
X13285470Y547115D01*
X13295884Y542036D01*
X13301218Y536702D01*
X13306297Y526287D01*
X13306297Y515873D01*
X13301218Y505460D01*
X13290804Y489965D01*
X13238734Y438150D01*
X13311631Y438150D01*
D21*
X12420117Y896846D02*
G01*
X12420117Y1040102D01*
X12420117Y896846D02*
G01*
X12358903Y896846D01*
X12338329Y903704D01*
X12331471Y910562D01*
X12324867Y924024D01*
X12324867Y944598D01*
X12331471Y958314D01*
X12338329Y964918D01*
X12358903Y971776D01*
X12420117Y971776D01*
X12279655Y896846D02*
G01*
X12245619Y1040102D01*
X12211583Y896846D02*
G01*
X12245619Y1040102D01*
X12211583Y896846D02*
G01*
X12177547Y1040102D01*
X12143257Y896846D02*
G01*
X12177547Y1040102D01*
X12098299Y896846D02*
G01*
X12098299Y1040102D01*
X12098299Y896846D02*
G01*
X12043943Y1040102D01*
X11989333Y896846D02*
G01*
X12043943Y1040102D01*
X11989333Y896846D02*
G01*
X11989333Y1040102D01*
X12317849Y1510916D02*
G01*
X12324707Y1497200D01*
X12338423Y1483738D01*
X12352139Y1476880D01*
X12379317Y1476880D01*
X12393033Y1483738D01*
X12406495Y1497200D01*
X12413353Y1510916D01*
X12420211Y1531490D01*
X12420211Y1565526D01*
X12413353Y1585846D01*
X12406495Y1599562D01*
X12393033Y1613278D01*
X12379317Y1620136D01*
X12352139Y1620136D01*
X12338423Y1613278D01*
X12324707Y1599562D01*
X12317849Y1585846D01*
X12317849Y1565526D01*
X12352139Y1565526D02*
G01*
X12317849Y1565526D01*
X12272891Y1476880D02*
G01*
X12272891Y1620136D01*
X12272891Y1476880D02*
G01*
X12177387Y1620136D01*
X12177387Y1476880D02*
G01*
X12177387Y1620136D01*
X12132429Y1476880D02*
G01*
X12132429Y1620136D01*
X12132429Y1476880D02*
G01*
X12084677Y1476880D01*
X12064357Y1483738D01*
X12050641Y1497200D01*
X12043783Y1510916D01*
X12036925Y1531490D01*
X12036925Y1565526D01*
X12043783Y1585846D01*
X12050641Y1599562D01*
X12064357Y1613278D01*
X12084677Y1620136D01*
X12132429Y1620136D01*
X10117195Y1010752D02*
G01*
X10117193Y1163406D01*
X10069189Y1010752D02*
G01*
X10069189Y1163406D01*
X10069189Y1010752D02*
G01*
X9967335Y1163406D01*
X9967335Y1010752D02*
G01*
X9967335Y1163406D01*
X9919329Y1097874D02*
G01*
X9788519Y1097874D01*
X10620207Y1013526D02*
G01*
X10620207Y1156782D01*
X10575249Y1013526D02*
G01*
X10575249Y1156782D01*
X10575249Y1013526D02*
G01*
X10479745Y1156782D01*
X10479745Y1013526D02*
G01*
X10479745Y1156782D01*
X10373319Y1034100D02*
G01*
X10373319Y1156782D01*
X10434787Y1095314D02*
G01*
X10312105Y1095314D01*
X10617085Y1349738D02*
G01*
X10617085Y1492994D01*
X10617085Y1349738D02*
G01*
X10562475Y1492994D01*
X10508119Y1349738D02*
G01*
X10562475Y1492994D01*
X10508119Y1349738D02*
G01*
X10508119Y1492994D01*
X10401693Y1370312D02*
G01*
X10401693Y1492994D01*
X10463161Y1431526D02*
G01*
X10340225Y1431526D01*
X10120114Y1353134D02*
G01*
X10120114Y1496390D01*
X10120114Y1353134D02*
G01*
X10065504Y1496390D01*
X10011148Y1353134D02*
G01*
X10065504Y1496390D01*
X10011148Y1353134D02*
G01*
X10011148Y1496390D01*
X9965936Y1434922D02*
G01*
X9843254Y1434922D01*
D26*
X76200Y-3720084D02*
G01*
X76200Y-3829050D01*
X76200Y-3720084D02*
G01*
X122936Y-3720084D01*
X138429Y-3725163D01*
X143763Y-3730497D01*
X148844Y-3740912D01*
X148844Y-3756405D01*
X143763Y-3766820D01*
X138429Y-3771900D01*
X122936Y-3777234D01*
X76200Y-3777234D01*
X214376Y-3720084D02*
G01*
X203962Y-3725163D01*
X193547Y-3735578D01*
X188468Y-3745992D01*
X183134Y-3761739D01*
X183134Y-3787647D01*
X188468Y-3803142D01*
X193547Y-3813555D01*
X203962Y-3823970D01*
X214376Y-3829050D01*
X235204Y-3829050D01*
X245618Y-3823970D01*
X256031Y-3813555D01*
X261112Y-3803142D01*
X266445Y-3787647D01*
X266445Y-3761739D01*
X261112Y-3745992D01*
X256031Y-3735578D01*
X245618Y-3725163D01*
X235204Y-3720084D01*
X214376Y-3720084D01*
X300736Y-3720084D02*
G01*
X326644Y-3829050D01*
X352552Y-3720084D02*
G01*
X326644Y-3829050D01*
X352552Y-3720084D02*
G01*
X378460Y-3829050D01*
X404621Y-3720084D02*
G01*
X378460Y-3829050D01*
X438912Y-3720084D02*
G01*
X438912Y-3829050D01*
X438912Y-3720084D02*
G01*
X506476Y-3720084D01*
X438912Y-3771900D02*
G01*
X480313Y-3771900D01*
X438912Y-3829050D02*
G01*
X506476Y-3829050D01*
X540765Y-3720084D02*
G01*
X540765Y-3829050D01*
X540765Y-3720084D02*
G01*
X587502Y-3720084D01*
X602995Y-3725163D01*
X608329Y-3730497D01*
X613410Y-3740912D01*
X613410Y-3751326D01*
X608329Y-3761739D01*
X602995Y-3766820D01*
X587502Y-3771900D01*
X540765Y-3771900D01*
X577087Y-3771900D02*
G01*
X613410Y-3829050D01*
D21*
X607568Y-2844800D02*
G01*
X607568Y-2975610D01*
X647700Y-3418331D02*
G01*
X516636Y-3418331D01*
X582168Y-3352800D02*
G01*
X582168Y-3483610D01*
D26*
X5107177Y-2399792D02*
G01*
X5101843Y-2389378D01*
X5091429Y-2378963D01*
X5081270Y-2373884D01*
X5060441Y-2373884D01*
X5050027Y-2378963D01*
X5039613Y-2389378D01*
X5034279Y-2399792D01*
X5029200Y-2415539D01*
X5029200Y-2441447D01*
X5034279Y-2456942D01*
X5039613Y-2467355D01*
X5050027Y-2477770D01*
X5060441Y-2482850D01*
X5081270Y-2482850D01*
X5091429Y-2477770D01*
X5101843Y-2467355D01*
X5107177Y-2456942D01*
X5141468Y-2394712D02*
G01*
X5151881Y-2389378D01*
X5167375Y-2373884D01*
X5167375Y-2482850D01*
X5212079Y-2373884D02*
G01*
X5269229Y-2373884D01*
X5237988Y-2415539D01*
X5253736Y-2415539D01*
X5264150Y-2420620D01*
X5269229Y-2425700D01*
X5274309Y-2441447D01*
X5274309Y-2451862D01*
X5269229Y-2467355D01*
X5258815Y-2477770D01*
X5243322Y-2482850D01*
X5227574Y-2482850D01*
X5212079Y-2477770D01*
X5207000Y-2472689D01*
X5201665Y-2462276D01*
X5107177Y-1917192D02*
G01*
X5101843Y-1906778D01*
X5091429Y-1896363D01*
X5081270Y-1891284D01*
X5060441Y-1891284D01*
X5050027Y-1896363D01*
X5039613Y-1906778D01*
X5034279Y-1917192D01*
X5029200Y-1932939D01*
X5029200Y-1958847D01*
X5034279Y-1974342D01*
X5039613Y-1984755D01*
X5050027Y-1995170D01*
X5060441Y-2000250D01*
X5081270Y-2000250D01*
X5091429Y-1995170D01*
X5101843Y-1984755D01*
X5107177Y-1974342D01*
X5141468Y-1912112D02*
G01*
X5151881Y-1906778D01*
X5167375Y-1891284D01*
X5167375Y-2000250D01*
X5253736Y-1891284D02*
G01*
X5201665Y-1963928D01*
X5279643Y-1963928D01*
X5253736Y-1891284D02*
G01*
X5253736Y-2000250D01*
X4572000Y-3364484D02*
G01*
X4572000Y-3473450D01*
X4572000Y-3364484D02*
G01*
X4639563Y-3364484D01*
X4572000Y-3416300D02*
G01*
X4613656Y-3416300D01*
X4572000Y-3473450D02*
G01*
X4639563Y-3473450D01*
X4673854Y-3385312D02*
G01*
X4684268Y-3379978D01*
X4699761Y-3364484D01*
X4699761Y-3473450D01*
X4876800Y-3068828D02*
G01*
X4890770Y-3061970D01*
X4911343Y-3041142D01*
X4911343Y-3186429D01*
X5137658Y-3075686D02*
G01*
X5137658Y-3068828D01*
X5144770Y-3054857D01*
X5151627Y-3048000D01*
X5165343Y-3041142D01*
X5193029Y-3041142D01*
X5207000Y-3048000D01*
X5213858Y-3054857D01*
X5220970Y-3068828D01*
X5220970Y-3082544D01*
X5213858Y-3096513D01*
X5200141Y-3117342D01*
X5130800Y-3186429D01*
X5227827Y-3186429D01*
X5398770Y-3041142D02*
G01*
X5474970Y-3041142D01*
X5433313Y-3096513D01*
X5454141Y-3096513D01*
X5467858Y-3103371D01*
X5474970Y-3110229D01*
X5481827Y-3131057D01*
X5481827Y-3145028D01*
X5474970Y-3165855D01*
X5461000Y-3179571D01*
X5440172Y-3186429D01*
X5419343Y-3186429D01*
X5398770Y-3179571D01*
X5391658Y-3172713D01*
X5384800Y-3158744D01*
X4495800Y-1281684D02*
G01*
X4495800Y-1390650D01*
X4495800Y-1281684D02*
G01*
X4563363Y-1281684D01*
X4495800Y-1333500D02*
G01*
X4537456Y-1333500D01*
X4495800Y-1390650D02*
G01*
X4563363Y-1390650D01*
X4602734Y-1307592D02*
G01*
X4602734Y-1302512D01*
X4608068Y-1292097D01*
X4613147Y-1286763D01*
X4623561Y-1281684D01*
X4644390Y-1281684D01*
X4654804Y-1286763D01*
X4659884Y-1292097D01*
X4665218Y-1302512D01*
X4665218Y-1312926D01*
X4659884Y-1323339D01*
X4649470Y-1338834D01*
X4597654Y-1390650D01*
X4670297Y-1390650D01*
X4851400Y-1570228D02*
G01*
X4865370Y-1563370D01*
X4885943Y-1542542D01*
X4885943Y-1687829D01*
X5112258Y-1577086D02*
G01*
X5112258Y-1570228D01*
X5119370Y-1556257D01*
X5126227Y-1549400D01*
X5139943Y-1542542D01*
X5167629Y-1542542D01*
X5181600Y-1549400D01*
X5188458Y-1556257D01*
X5195570Y-1570228D01*
X5195570Y-1583944D01*
X5188458Y-1597913D01*
X5174741Y-1618742D01*
X5105400Y-1687829D01*
X5202427Y-1687829D01*
X5373370Y-1542542D02*
G01*
X5449570Y-1542542D01*
X5407913Y-1597913D01*
X5428741Y-1597913D01*
X5442458Y-1604771D01*
X5449570Y-1611629D01*
X5456427Y-1632457D01*
X5456427Y-1646428D01*
X5449570Y-1667255D01*
X5435600Y-1680971D01*
X5414772Y-1687829D01*
X5393943Y-1687829D01*
X5373370Y-1680971D01*
X5366258Y-1674113D01*
X5359400Y-1660144D01*
X14652243Y-6631178D02*
G01*
X14641829Y-6620763D01*
X14626336Y-6615684D01*
X14605508Y-6615684D01*
X14590013Y-6620763D01*
X14579600Y-6631178D01*
X14579600Y-6641592D01*
X14584679Y-6652005D01*
X14590013Y-6657339D01*
X14600427Y-6662420D01*
X14631670Y-6672834D01*
X14641829Y-6677913D01*
X14647163Y-6683247D01*
X14652243Y-6693662D01*
X14652243Y-6709155D01*
X14641829Y-6719570D01*
X14626336Y-6724650D01*
X14605508Y-6724650D01*
X14590013Y-6719570D01*
X14579600Y-6709155D01*
X14686534Y-6636512D02*
G01*
X14696947Y-6631178D01*
X14712695Y-6615684D01*
X14712695Y-6724650D01*
X14884400Y-6345428D02*
G01*
X14898370Y-6338570D01*
X14918943Y-6317742D01*
X14918943Y-6463029D01*
X15145258Y-6352286D02*
G01*
X15145258Y-6345428D01*
X15152370Y-6331457D01*
X15159227Y-6324600D01*
X15172943Y-6317742D01*
X15200629Y-6317742D01*
X15214600Y-6324600D01*
X15221458Y-6331457D01*
X15228570Y-6345428D01*
X15228570Y-6359144D01*
X15221458Y-6373113D01*
X15207741Y-6393942D01*
X15138400Y-6463029D01*
X15235427Y-6463029D01*
X15406370Y-6317742D02*
G01*
X15482570Y-6317742D01*
X15440913Y-6373113D01*
X15461741Y-6373113D01*
X15475458Y-6379971D01*
X15482570Y-6386829D01*
X15489427Y-6407657D01*
X15489427Y-6421628D01*
X15482570Y-6442455D01*
X15468600Y-6456171D01*
X15447772Y-6463029D01*
X15426943Y-6463029D01*
X15406370Y-6456171D01*
X15399258Y-6449313D01*
X15392400Y-6435344D01*
X16125443Y-6631178D02*
G01*
X16115029Y-6620763D01*
X16099536Y-6615684D01*
X16078708Y-6615684D01*
X16063213Y-6620763D01*
X16052800Y-6631178D01*
X16052800Y-6641592D01*
X16057879Y-6652005D01*
X16063213Y-6657339D01*
X16073627Y-6662420D01*
X16104870Y-6672834D01*
X16115029Y-6677913D01*
X16120363Y-6683247D01*
X16125443Y-6693662D01*
X16125443Y-6709155D01*
X16115029Y-6719570D01*
X16099536Y-6724650D01*
X16078708Y-6724650D01*
X16063213Y-6719570D01*
X16052800Y-6709155D01*
X16165068Y-6641592D02*
G01*
X16165068Y-6636512D01*
X16170147Y-6626097D01*
X16175481Y-6620763D01*
X16185895Y-6615684D01*
X16206470Y-6615684D01*
X16216884Y-6620763D01*
X16222218Y-6626097D01*
X16227297Y-6636512D01*
X16227297Y-6646926D01*
X16222218Y-6657339D01*
X16211804Y-6672834D01*
X16159734Y-6724650D01*
X16232631Y-6724650D01*
X16408400Y-6345428D02*
G01*
X16422370Y-6338570D01*
X16442943Y-6317742D01*
X16442943Y-6463029D01*
X16669258Y-6352286D02*
G01*
X16669258Y-6345428D01*
X16676370Y-6331457D01*
X16683227Y-6324600D01*
X16696943Y-6317742D01*
X16724629Y-6317742D01*
X16738600Y-6324600D01*
X16745458Y-6331457D01*
X16752570Y-6345428D01*
X16752570Y-6359144D01*
X16745458Y-6373113D01*
X16731741Y-6393942D01*
X16662400Y-6463029D01*
X16759427Y-6463029D01*
X16930370Y-6317742D02*
G01*
X17006570Y-6317742D01*
X16964913Y-6373113D01*
X16985741Y-6373113D01*
X16999458Y-6379971D01*
X17006570Y-6386829D01*
X17013427Y-6407657D01*
X17013427Y-6421628D01*
X17006570Y-6442455D01*
X16992600Y-6456171D01*
X16971772Y-6463029D01*
X16950943Y-6463029D01*
X16930370Y-6456171D01*
X16923258Y-6449313D01*
X16916400Y-6435344D01*
X14626843Y1573021D02*
G01*
X14616429Y1583436D01*
X14600936Y1588515D01*
X14580108Y1588515D01*
X14564613Y1583436D01*
X14554200Y1573021D01*
X14554200Y1562607D01*
X14559279Y1552194D01*
X14564613Y1546860D01*
X14575027Y1541779D01*
X14606270Y1531365D01*
X14616429Y1526286D01*
X14621763Y1520952D01*
X14626843Y1510537D01*
X14626843Y1495044D01*
X14616429Y1484629D01*
X14600936Y1479550D01*
X14580108Y1479550D01*
X14564613Y1484629D01*
X14554200Y1495044D01*
X14671547Y1588515D02*
G01*
X14728697Y1588515D01*
X14697709Y1546860D01*
X14713204Y1546860D01*
X14723618Y1541779D01*
X14728697Y1536700D01*
X14734031Y1520952D01*
X14734031Y1510537D01*
X14728697Y1495044D01*
X14718284Y1484629D01*
X14702790Y1479550D01*
X14687295Y1479550D01*
X14671547Y1484629D01*
X14666468Y1489710D01*
X14661134Y1500123D01*
X14884400Y1858771D02*
G01*
X14898370Y1865629D01*
X14918943Y1886457D01*
X14918943Y1741170D01*
X15145258Y1851913D02*
G01*
X15145258Y1858771D01*
X15152370Y1872742D01*
X15159227Y1879600D01*
X15172943Y1886457D01*
X15200629Y1886457D01*
X15214600Y1879600D01*
X15221458Y1872742D01*
X15228570Y1858771D01*
X15228570Y1845055D01*
X15221458Y1831086D01*
X15207741Y1810257D01*
X15138400Y1741170D01*
X15235427Y1741170D01*
X15406370Y1886457D02*
G01*
X15482570Y1886457D01*
X15440913Y1831086D01*
X15461741Y1831086D01*
X15475458Y1824228D01*
X15482570Y1817370D01*
X15489427Y1796542D01*
X15489427Y1782571D01*
X15482570Y1761744D01*
X15468600Y1748028D01*
X15447772Y1741170D01*
X15426943Y1741170D01*
X15406370Y1748028D01*
X15399258Y1754886D01*
X15392400Y1768855D01*
X16150843Y1547621D02*
G01*
X16140429Y1558036D01*
X16124936Y1563115D01*
X16104108Y1563115D01*
X16088613Y1558036D01*
X16078200Y1547621D01*
X16078200Y1537207D01*
X16083279Y1526794D01*
X16088613Y1521460D01*
X16099027Y1516379D01*
X16130270Y1505965D01*
X16140429Y1500886D01*
X16145763Y1495552D01*
X16150843Y1485137D01*
X16150843Y1469644D01*
X16140429Y1459229D01*
X16124936Y1454150D01*
X16104108Y1454150D01*
X16088613Y1459229D01*
X16078200Y1469644D01*
X16237204Y1563115D02*
G01*
X16185134Y1490471D01*
X16263111Y1490471D01*
X16237204Y1563115D02*
G01*
X16237204Y1454150D01*
X16408400Y1858771D02*
G01*
X16422370Y1865629D01*
X16442943Y1886457D01*
X16442943Y1741170D01*
X16669258Y1851913D02*
G01*
X16669258Y1858771D01*
X16676370Y1872742D01*
X16683227Y1879600D01*
X16696943Y1886457D01*
X16724629Y1886457D01*
X16738600Y1879600D01*
X16745458Y1872742D01*
X16752570Y1858771D01*
X16752570Y1845055D01*
X16745458Y1831086D01*
X16731741Y1810257D01*
X16662400Y1741170D01*
X16759427Y1741170D01*
X16930370Y1886457D02*
G01*
X17006570Y1886457D01*
X16964913Y1831086D01*
X16985741Y1831086D01*
X16999458Y1824228D01*
X17006570Y1817370D01*
X17013427Y1796542D01*
X17013427Y1782571D01*
X17006570Y1761744D01*
X16992600Y1748028D01*
X16971772Y1741170D01*
X16950943Y1741170D01*
X16930370Y1748028D01*
X16923258Y1754886D01*
X16916400Y1768855D01*
X712978Y-1002792D02*
G01*
X707644Y-992378D01*
X697229Y-981963D01*
X687070Y-976884D01*
X666242Y-976884D01*
X655828Y-981963D01*
X645413Y-992378D01*
X640079Y-1002792D01*
X635000Y-1018539D01*
X635000Y-1044447D01*
X640079Y-1059942D01*
X645413Y-1070355D01*
X655828Y-1080770D01*
X666242Y-1085850D01*
X687070Y-1085850D01*
X697229Y-1080770D01*
X707644Y-1070355D01*
X712978Y-1059942D01*
X747268Y-997712D02*
G01*
X757681Y-992378D01*
X773176Y-976884D01*
X773176Y-1085850D01*
X15165577Y-5803392D02*
G01*
X15160243Y-5792978D01*
X15149829Y-5782563D01*
X15139670Y-5777484D01*
X15118841Y-5777484D01*
X15108427Y-5782563D01*
X15098013Y-5792978D01*
X15092679Y-5803392D01*
X15087600Y-5819139D01*
X15087600Y-5845047D01*
X15092679Y-5860542D01*
X15098013Y-5870955D01*
X15108427Y-5881370D01*
X15118841Y-5886450D01*
X15139670Y-5886450D01*
X15149829Y-5881370D01*
X15160243Y-5870955D01*
X15165577Y-5860542D01*
X15204947Y-5803392D02*
G01*
X15204947Y-5798312D01*
X15210281Y-5787897D01*
X15215361Y-5782563D01*
X15225775Y-5777484D01*
X15246604Y-5777484D01*
X15257018Y-5782563D01*
X15262097Y-5787897D01*
X15267431Y-5798312D01*
X15267431Y-5808726D01*
X15262097Y-5819139D01*
X15251684Y-5834634D01*
X15199868Y-5886450D01*
X15272511Y-5886450D01*
X16689577Y-5854192D02*
G01*
X16684243Y-5843778D01*
X16673829Y-5833363D01*
X16663670Y-5828284D01*
X16642841Y-5828284D01*
X16632427Y-5833363D01*
X16622013Y-5843778D01*
X16616679Y-5854192D01*
X16611600Y-5869939D01*
X16611600Y-5895847D01*
X16616679Y-5911342D01*
X16622013Y-5921755D01*
X16632427Y-5932170D01*
X16642841Y-5937250D01*
X16663670Y-5937250D01*
X16673829Y-5932170D01*
X16684243Y-5921755D01*
X16689577Y-5911342D01*
X16734281Y-5828284D02*
G01*
X16791431Y-5828284D01*
X16760190Y-5869939D01*
X16775684Y-5869939D01*
X16786098Y-5875020D01*
X16791431Y-5880100D01*
X16796511Y-5895847D01*
X16796511Y-5906262D01*
X16791431Y-5921755D01*
X16781018Y-5932170D01*
X16765270Y-5937250D01*
X16749775Y-5937250D01*
X16734281Y-5932170D01*
X16728947Y-5927089D01*
X16723868Y-5916676D01*
X15165577Y1257807D02*
G01*
X15160243Y1268221D01*
X15149829Y1278636D01*
X15139670Y1283715D01*
X15118841Y1283715D01*
X15108427Y1278636D01*
X15098013Y1268221D01*
X15092679Y1257807D01*
X15087600Y1242060D01*
X15087600Y1216152D01*
X15092679Y1200657D01*
X15098013Y1190244D01*
X15108427Y1179829D01*
X15118841Y1174750D01*
X15139670Y1174750D01*
X15149829Y1179829D01*
X15160243Y1190244D01*
X15165577Y1200657D01*
X15251684Y1283715D02*
G01*
X15199868Y1211071D01*
X15277845Y1211071D01*
X15251684Y1283715D02*
G01*
X15251684Y1174750D01*
X16689577Y1257807D02*
G01*
X16684243Y1268221D01*
X16673829Y1278636D01*
X16663670Y1283715D01*
X16642841Y1283715D01*
X16632427Y1278636D01*
X16622013Y1268221D01*
X16616679Y1257807D01*
X16611600Y1242060D01*
X16611600Y1216152D01*
X16616679Y1200657D01*
X16622013Y1190244D01*
X16632427Y1179829D01*
X16642841Y1174750D01*
X16663670Y1174750D01*
X16673829Y1179829D01*
X16684243Y1190244D01*
X16689577Y1200657D01*
X16786098Y1283715D02*
G01*
X16734281Y1283715D01*
X16728947Y1236979D01*
X16734281Y1242060D01*
X16749775Y1247394D01*
X16765270Y1247394D01*
X16781018Y1242060D01*
X16791431Y1231900D01*
X16796511Y1216152D01*
X16796511Y1205737D01*
X16791431Y1190244D01*
X16781018Y1179829D01*
X16765270Y1174750D01*
X16749775Y1174750D01*
X16734281Y1179829D01*
X16728947Y1184910D01*
X16723868Y1195323D01*
X13616177Y-3314192D02*
G01*
X13610843Y-3303778D01*
X13600429Y-3293363D01*
X13590270Y-3288284D01*
X13569441Y-3288284D01*
X13559027Y-3293363D01*
X13548613Y-3303778D01*
X13543279Y-3314192D01*
X13538200Y-3329939D01*
X13538200Y-3355847D01*
X13543279Y-3371342D01*
X13548613Y-3381755D01*
X13559027Y-3392170D01*
X13569441Y-3397250D01*
X13590270Y-3397250D01*
X13600429Y-3392170D01*
X13610843Y-3381755D01*
X13616177Y-3371342D01*
X13712697Y-3303778D02*
G01*
X13707618Y-3293363D01*
X13691870Y-3288284D01*
X13681709Y-3288284D01*
X13665961Y-3293363D01*
X13655547Y-3309112D01*
X13650468Y-3335020D01*
X13650468Y-3360928D01*
X13655547Y-3381755D01*
X13665961Y-3392170D01*
X13681709Y-3397250D01*
X13686790Y-3397250D01*
X13702284Y-3392170D01*
X13712697Y-3381755D01*
X13718031Y-3366262D01*
X13718031Y-3360928D01*
X13712697Y-3345434D01*
X13702284Y-3335020D01*
X13686790Y-3329939D01*
X13681709Y-3329939D01*
X13665961Y-3335020D01*
X13655547Y-3345434D01*
X13650468Y-3360928D01*
X13641577Y-3974592D02*
G01*
X13636243Y-3964178D01*
X13625829Y-3953763D01*
X13615670Y-3948684D01*
X13594841Y-3948684D01*
X13584427Y-3953763D01*
X13574013Y-3964178D01*
X13568679Y-3974592D01*
X13563600Y-3990339D01*
X13563600Y-4016247D01*
X13568679Y-4031742D01*
X13574013Y-4042155D01*
X13584427Y-4052570D01*
X13594841Y-4057650D01*
X13615670Y-4057650D01*
X13625829Y-4052570D01*
X13636243Y-4042155D01*
X13641577Y-4031742D01*
X13748511Y-3948684D02*
G01*
X13696695Y-4057650D01*
X13675868Y-3948684D02*
G01*
X13748511Y-3948684D01*
X16181577Y-3288792D02*
G01*
X16176243Y-3278378D01*
X16165829Y-3267963D01*
X16155670Y-3262884D01*
X16134841Y-3262884D01*
X16124427Y-3267963D01*
X16114013Y-3278378D01*
X16108679Y-3288792D01*
X16103600Y-3304539D01*
X16103600Y-3330447D01*
X16108679Y-3345942D01*
X16114013Y-3356355D01*
X16124427Y-3366770D01*
X16134841Y-3371850D01*
X16155670Y-3371850D01*
X16165829Y-3366770D01*
X16176243Y-3356355D01*
X16181577Y-3345942D01*
X16241775Y-3262884D02*
G01*
X16226281Y-3267963D01*
X16220947Y-3278378D01*
X16220947Y-3288792D01*
X16226281Y-3299205D01*
X16236695Y-3304539D01*
X16257270Y-3309620D01*
X16273018Y-3314700D01*
X16283431Y-3325113D01*
X16288511Y-3335528D01*
X16288511Y-3351276D01*
X16283431Y-3361689D01*
X16278097Y-3366770D01*
X16262604Y-3371850D01*
X16241775Y-3371850D01*
X16226281Y-3366770D01*
X16220947Y-3361689D01*
X16215868Y-3351276D01*
X16215868Y-3335528D01*
X16220947Y-3325113D01*
X16231361Y-3314700D01*
X16247109Y-3309620D01*
X16267684Y-3304539D01*
X16278097Y-3299205D01*
X16283431Y-3288792D01*
X16283431Y-3278378D01*
X16278097Y-3267963D01*
X16262604Y-3262884D01*
X16241775Y-3262884D01*
X16206977Y-3949192D02*
G01*
X16201643Y-3938778D01*
X16191229Y-3928363D01*
X16181070Y-3923284D01*
X16160241Y-3923284D01*
X16149827Y-3928363D01*
X16139413Y-3938778D01*
X16134079Y-3949192D01*
X16129000Y-3964939D01*
X16129000Y-3990847D01*
X16134079Y-4006342D01*
X16139413Y-4016755D01*
X16149827Y-4027170D01*
X16160241Y-4032250D01*
X16181070Y-4032250D01*
X16191229Y-4027170D01*
X16201643Y-4016755D01*
X16206977Y-4006342D01*
X16308831Y-3959605D02*
G01*
X16303497Y-3975100D01*
X16293084Y-3985513D01*
X16277590Y-3990847D01*
X16272509Y-3990847D01*
X16256761Y-3985513D01*
X16246347Y-3975100D01*
X16241268Y-3959605D01*
X16241268Y-3954526D01*
X16246347Y-3938778D01*
X16256761Y-3928363D01*
X16272509Y-3923284D01*
X16277590Y-3923284D01*
X16293084Y-3928363D01*
X16303497Y-3938778D01*
X16308831Y-3959605D01*
X16308831Y-3985513D01*
X16303497Y-4011676D01*
X16293084Y-4027170D01*
X16277590Y-4032250D01*
X16267175Y-4032250D01*
X16251681Y-4027170D01*
X16246347Y-4016755D01*
X13599668Y-2673857D02*
G01*
X13594334Y-2663444D01*
X13583920Y-2653029D01*
X13573759Y-2647950D01*
X13552931Y-2647950D01*
X13542518Y-2653029D01*
X13532104Y-2663444D01*
X13526770Y-2673857D01*
X13521690Y-2689605D01*
X13521690Y-2715513D01*
X13526770Y-2731007D01*
X13532104Y-2741421D01*
X13542518Y-2751836D01*
X13552931Y-2756915D01*
X13573759Y-2756915D01*
X13583920Y-2751836D01*
X13594334Y-2741421D01*
X13599668Y-2731007D01*
X13633958Y-2668778D02*
G01*
X13644372Y-2663444D01*
X13659866Y-2647950D01*
X13659866Y-2756915D01*
X13725397Y-2647950D02*
G01*
X13709650Y-2653029D01*
X13699490Y-2668778D01*
X13694156Y-2694686D01*
X13694156Y-2710179D01*
X13699490Y-2736342D01*
X13709650Y-2751836D01*
X13725397Y-2756915D01*
X13735811Y-2756915D01*
X13751306Y-2751836D01*
X13761720Y-2736342D01*
X13766800Y-2710179D01*
X13766800Y-2694686D01*
X13761720Y-2668778D01*
X13751306Y-2653029D01*
X13735811Y-2647950D01*
X13725397Y-2647950D01*
X11050777Y-3923792D02*
G01*
X11045443Y-3913378D01*
X11035029Y-3902963D01*
X11024870Y-3897884D01*
X11004041Y-3897884D01*
X10993627Y-3902963D01*
X10983213Y-3913378D01*
X10977879Y-3923792D01*
X10972800Y-3939539D01*
X10972800Y-3965447D01*
X10977879Y-3980942D01*
X10983213Y-3991355D01*
X10993627Y-4001770D01*
X11004041Y-4006850D01*
X11024870Y-4006850D01*
X11035029Y-4001770D01*
X11045443Y-3991355D01*
X11050777Y-3980942D01*
X11085068Y-3918712D02*
G01*
X11095481Y-3913378D01*
X11110975Y-3897884D01*
X11110975Y-4006850D01*
X11145265Y-3918712D02*
G01*
X11155679Y-3913378D01*
X11171174Y-3897884D01*
X11171174Y-4006850D01*
X16181577Y-2628392D02*
G01*
X16176243Y-2617978D01*
X16165829Y-2607563D01*
X16155670Y-2602484D01*
X16134841Y-2602484D01*
X16124427Y-2607563D01*
X16114013Y-2617978D01*
X16108679Y-2628392D01*
X16103600Y-2644139D01*
X16103600Y-2670047D01*
X16108679Y-2685542D01*
X16114013Y-2695955D01*
X16124427Y-2706370D01*
X16134841Y-2711450D01*
X16155670Y-2711450D01*
X16165829Y-2706370D01*
X16176243Y-2695955D01*
X16181577Y-2685542D01*
X16215868Y-2623312D02*
G01*
X16226281Y-2617978D01*
X16241775Y-2602484D01*
X16241775Y-2711450D01*
X16281400Y-2628392D02*
G01*
X16281400Y-2623312D01*
X16286479Y-2612897D01*
X16291559Y-2607563D01*
X16301974Y-2602484D01*
X16322802Y-2602484D01*
X16333216Y-2607563D01*
X16338550Y-2612897D01*
X16343629Y-2623312D01*
X16343629Y-2633726D01*
X16338550Y-2644139D01*
X16328136Y-2659634D01*
X16276066Y-2711450D01*
X16348709Y-2711450D01*
X7164070Y-5066284D02*
G01*
X7164070Y-5149342D01*
X7158736Y-5165089D01*
X7153656Y-5170170D01*
X7143241Y-5175250D01*
X7132827Y-5175250D01*
X7122413Y-5170170D01*
X7117079Y-5165089D01*
X7112000Y-5149342D01*
X7112000Y-5138928D01*
X7208520Y-5066284D02*
G01*
X7265670Y-5066284D01*
X7234681Y-5107939D01*
X7250175Y-5107939D01*
X7260590Y-5113020D01*
X7265670Y-5118100D01*
X7271004Y-5133847D01*
X7271004Y-5144262D01*
X7265670Y-5159755D01*
X7255509Y-5170170D01*
X7239761Y-5175250D01*
X7224268Y-5175250D01*
X7208520Y-5170170D01*
X7203440Y-5165089D01*
X7198359Y-5154676D01*
X9982288Y293154D02*
G01*
X9982288Y184188D01*
X9982288Y293154D02*
G01*
X10029024Y293154D01*
X10044518Y288074D01*
X10049852Y282740D01*
X10054932Y272326D01*
X10054932Y261912D01*
X10049852Y251498D01*
X10044518Y246418D01*
X10029024Y241338D01*
X9982288Y241338D01*
X10018610Y241338D02*
G01*
X10054932Y184188D01*
X10151706Y293154D02*
G01*
X10099636Y293154D01*
X10094556Y246418D01*
X10099636Y251498D01*
X10115384Y256832D01*
X10130878Y256832D01*
X10146372Y251498D01*
X10156786Y241338D01*
X10162120Y225590D01*
X10162120Y215176D01*
X10156786Y199682D01*
X10146372Y189268D01*
X10130878Y184188D01*
X10115384Y184188D01*
X10099636Y189268D01*
X10094556Y194348D01*
X10089222Y204762D01*
D21*
X12180544Y-4185196D02*
G01*
X12171400Y-4166654D01*
X12152858Y-4148366D01*
X12134570Y-4138968D01*
X12106630Y-4129824D01*
X12060656Y-4129824D01*
X12032970Y-4138968D01*
X12014428Y-4148366D01*
X11995886Y-4166654D01*
X11986742Y-4185196D01*
X11986742Y-4222280D01*
X11995886Y-4240568D01*
X12014428Y-4259110D01*
X12032970Y-4268254D01*
X12060656Y-4277652D01*
X12106630Y-4277652D01*
X12134570Y-4268254D01*
X12152858Y-4259110D01*
X12171400Y-4240568D01*
X12180544Y-4222280D01*
X12180544Y-4185196D01*
X12180544Y-4338612D02*
G01*
X12042114Y-4338612D01*
X12014428Y-4347756D01*
X11995886Y-4366298D01*
X11986742Y-4393984D01*
X11986742Y-4412526D01*
X11995886Y-4440212D01*
X12014428Y-4458754D01*
X12042114Y-4467898D01*
X12180544Y-4467898D01*
X12180544Y-4593374D02*
G01*
X11986742Y-4593374D01*
X12180544Y-4528858D02*
G01*
X12180544Y-4658144D01*
X12152858Y-4802162D02*
G01*
X11986742Y-4802162D01*
X12069800Y-4719104D02*
G01*
X12069800Y-4885474D01*
X10215346Y-4185107D02*
G01*
X10206202Y-4166565D01*
X10187660Y-4148277D01*
X10169118Y-4138879D01*
X10141432Y-4129735D01*
X10095204Y-4129735D01*
X10067518Y-4138879D01*
X10048976Y-4148277D01*
X10030688Y-4166565D01*
X10021290Y-4185107D01*
X10021290Y-4222191D01*
X10030688Y-4240479D01*
X10048976Y-4259021D01*
X10067518Y-4268165D01*
X10095204Y-4277563D01*
X10141432Y-4277563D01*
X10169118Y-4268165D01*
X10187660Y-4259021D01*
X10206202Y-4240479D01*
X10215346Y-4222191D01*
X10215346Y-4185107D01*
X10215346Y-4338523D02*
G01*
X10076916Y-4338523D01*
X10048976Y-4347667D01*
X10030688Y-4366209D01*
X10021290Y-4393895D01*
X10021290Y-4412437D01*
X10030688Y-4440123D01*
X10048976Y-4458665D01*
X10076916Y-4467809D01*
X10215346Y-4467809D01*
X10215346Y-4593285D02*
G01*
X10021290Y-4593285D01*
X10215346Y-4528769D02*
G01*
X10215346Y-4658055D01*
X10104602Y-4719015D02*
G01*
X10104602Y-4885385D01*
X10242854Y-224370D02*
G01*
X10048798Y-224370D01*
X10242854Y-285330D02*
G01*
X10048798Y-285330D01*
X10242854Y-285330D02*
G01*
X10048798Y-414616D01*
X10242854Y-414616D02*
G01*
X10048798Y-414616D01*
X10132110Y-475576D02*
G01*
X10132110Y-641692D01*
X12169952Y-224459D02*
G01*
X11976150Y-224459D01*
X12169952Y-285419D02*
G01*
X11976150Y-285419D01*
X12169952Y-285419D02*
G01*
X11976150Y-414705D01*
X12169952Y-414705D02*
G01*
X11976150Y-414705D01*
X12142266Y-558723D02*
G01*
X11976150Y-558723D01*
X12059208Y-475665D02*
G01*
X12059208Y-641781D01*
D26*
X12547600Y293154D02*
G01*
X12547600Y184188D01*
X12547600Y293154D02*
G01*
X12594336Y293154D01*
X12609829Y288074D01*
X12615163Y282740D01*
X12620243Y272326D01*
X12620243Y261912D01*
X12615163Y251498D01*
X12609829Y246418D01*
X12594336Y241338D01*
X12547600Y241338D01*
X12583922Y241338D02*
G01*
X12620243Y184188D01*
X12717018Y277660D02*
G01*
X12711684Y288074D01*
X12696190Y293154D01*
X12685775Y293154D01*
X12670281Y288074D01*
X12659868Y272326D01*
X12654534Y246418D01*
X12654534Y220510D01*
X12659868Y199682D01*
X12670281Y189268D01*
X12685775Y184188D01*
X12691109Y184188D01*
X12706604Y189268D01*
X12717018Y199682D01*
X12722097Y215176D01*
X12722097Y220510D01*
X12717018Y236004D01*
X12706604Y246418D01*
X12691109Y251498D01*
X12685775Y251498D01*
X12670281Y246418D01*
X12659868Y236004D01*
X12654534Y220510D01*
X12756388Y230924D02*
G01*
X12849859Y230924D01*
X12884150Y272326D02*
G01*
X12894563Y277660D01*
X12910311Y293154D01*
X12910311Y184188D01*
X13038074Y313982D02*
G01*
X12944602Y147612D01*
X13077443Y267246D02*
G01*
X13077443Y272326D01*
X13082777Y282740D01*
X13087858Y288074D01*
X13098272Y293154D01*
X13119100Y293154D01*
X13129513Y288074D01*
X13134593Y282740D01*
X13139927Y272326D01*
X13139927Y261912D01*
X13134593Y251498D01*
X13124179Y236004D01*
X13072363Y184188D01*
X13145008Y184188D01*
D21*
X14720455Y-4185196D02*
G01*
X14711311Y-4166654D01*
X14692769Y-4148366D01*
X14674481Y-4138968D01*
X14646541Y-4129824D01*
X14600567Y-4129824D01*
X14572881Y-4138968D01*
X14554339Y-4148366D01*
X14535797Y-4166654D01*
X14526653Y-4185196D01*
X14526653Y-4222280D01*
X14535797Y-4240568D01*
X14554339Y-4259110D01*
X14572881Y-4268254D01*
X14600567Y-4277652D01*
X14646541Y-4277652D01*
X14674481Y-4268254D01*
X14692769Y-4259110D01*
X14711311Y-4240568D01*
X14720455Y-4222280D01*
X14720455Y-4185196D01*
X14720455Y-4338612D02*
G01*
X14582025Y-4338612D01*
X14554339Y-4347756D01*
X14535797Y-4366298D01*
X14526653Y-4393984D01*
X14526653Y-4412526D01*
X14535797Y-4440212D01*
X14554339Y-4458754D01*
X14582025Y-4467898D01*
X14720455Y-4467898D01*
X14720455Y-4593374D02*
G01*
X14526653Y-4593374D01*
X14720455Y-4528858D02*
G01*
X14720455Y-4658144D01*
X14692769Y-4802162D02*
G01*
X14526653Y-4802162D01*
X14609711Y-4719104D02*
G01*
X14609711Y-4885474D01*
X12755257Y-4185107D02*
G01*
X12746113Y-4166565D01*
X12727571Y-4148277D01*
X12709029Y-4138879D01*
X12681343Y-4129735D01*
X12635115Y-4129735D01*
X12607429Y-4138879D01*
X12588887Y-4148277D01*
X12570599Y-4166565D01*
X12561201Y-4185107D01*
X12561201Y-4222191D01*
X12570599Y-4240479D01*
X12588887Y-4259021D01*
X12607429Y-4268165D01*
X12635115Y-4277563D01*
X12681343Y-4277563D01*
X12709029Y-4268165D01*
X12727571Y-4259021D01*
X12746113Y-4240479D01*
X12755257Y-4222191D01*
X12755257Y-4185107D01*
X12755257Y-4338523D02*
G01*
X12616827Y-4338523D01*
X12588887Y-4347667D01*
X12570599Y-4366209D01*
X12561201Y-4393895D01*
X12561201Y-4412437D01*
X12570599Y-4440123D01*
X12588887Y-4458665D01*
X12616827Y-4467809D01*
X12755257Y-4467809D01*
X12755257Y-4593285D02*
G01*
X12561201Y-4593285D01*
X12755257Y-4528769D02*
G01*
X12755257Y-4658055D01*
X12644513Y-4719015D02*
G01*
X12644513Y-4885385D01*
X12782765Y-224370D02*
G01*
X12588709Y-224370D01*
X12782765Y-285330D02*
G01*
X12588709Y-285330D01*
X12782765Y-285330D02*
G01*
X12588709Y-414616D01*
X12782765Y-414616D02*
G01*
X12588709Y-414616D01*
X12672021Y-475576D02*
G01*
X12672021Y-641692D01*
X14709863Y-224459D02*
G01*
X14516061Y-224459D01*
X14709863Y-285419D02*
G01*
X14516061Y-285419D01*
X14709863Y-285419D02*
G01*
X14516061Y-414705D01*
X14709863Y-414705D02*
G01*
X14516061Y-414705D01*
X14682177Y-558723D02*
G01*
X14516061Y-558723D01*
X14599119Y-475665D02*
G01*
X14599119Y-641781D01*
D26*
X15113000Y305854D02*
G01*
X15113000Y196888D01*
X15113000Y305854D02*
G01*
X15159736Y305854D01*
X15175229Y300774D01*
X15180563Y295440D01*
X15185643Y285026D01*
X15185643Y274612D01*
X15180563Y264198D01*
X15175229Y259118D01*
X15159736Y254038D01*
X15113000Y254038D01*
X15149322Y254038D02*
G01*
X15185643Y196888D01*
X15282418Y290360D02*
G01*
X15277084Y300774D01*
X15261590Y305854D01*
X15251175Y305854D01*
X15235681Y300774D01*
X15225268Y285026D01*
X15219934Y259118D01*
X15219934Y233210D01*
X15225268Y212382D01*
X15235681Y201968D01*
X15251175Y196888D01*
X15256509Y196888D01*
X15272004Y201968D01*
X15282418Y212382D01*
X15287497Y227876D01*
X15287497Y233210D01*
X15282418Y248704D01*
X15272004Y259118D01*
X15256509Y264198D01*
X15251175Y264198D01*
X15235681Y259118D01*
X15225268Y248704D01*
X15219934Y233210D01*
X15321788Y243624D02*
G01*
X15415259Y243624D01*
X15459963Y305854D02*
G01*
X15517113Y305854D01*
X15486125Y264198D01*
X15501620Y264198D01*
X15512034Y259118D01*
X15517113Y254038D01*
X15522447Y238290D01*
X15522447Y227876D01*
X15517113Y212382D01*
X15506700Y201968D01*
X15491206Y196888D01*
X15475711Y196888D01*
X15459963Y201968D01*
X15454884Y207048D01*
X15449550Y217462D01*
X15650209Y326682D02*
G01*
X15556738Y160312D01*
X15736570Y305854D02*
G01*
X15684500Y233210D01*
X15762477Y233210D01*
X15736570Y305854D02*
G01*
X15736570Y196888D01*
D21*
X15124366Y-882103D02*
G01*
X15133510Y-900645D01*
X15152052Y-918933D01*
X15170340Y-928331D01*
X15198280Y-937475D01*
X15244254Y-937475D01*
X15271940Y-928331D01*
X15290482Y-918933D01*
X15309024Y-900645D01*
X15318168Y-882103D01*
X15318168Y-845019D01*
X15309024Y-826731D01*
X15290482Y-808189D01*
X15271940Y-799045D01*
X15244254Y-789647D01*
X15198280Y-789647D01*
X15170340Y-799045D01*
X15152052Y-808189D01*
X15133510Y-826731D01*
X15124366Y-845019D01*
X15124366Y-882103D01*
X15124366Y-728687D02*
G01*
X15262796Y-728687D01*
X15290482Y-719543D01*
X15309024Y-701001D01*
X15318168Y-673315D01*
X15318168Y-654773D01*
X15309024Y-627087D01*
X15290482Y-608545D01*
X15262796Y-599401D01*
X15124366Y-599401D01*
X15124366Y-473925D02*
G01*
X15318168Y-473925D01*
X15124366Y-538441D02*
G01*
X15124366Y-409155D01*
X15152052Y-265137D02*
G01*
X15318168Y-265137D01*
X15235110Y-348195D02*
G01*
X15235110Y-181825D01*
X17089564Y-882192D02*
G01*
X17098708Y-900734D01*
X17117250Y-919022D01*
X17135792Y-928420D01*
X17163478Y-937564D01*
X17209706Y-937564D01*
X17237392Y-928420D01*
X17255934Y-919022D01*
X17274222Y-900734D01*
X17283620Y-882192D01*
X17283620Y-845108D01*
X17274222Y-826820D01*
X17255934Y-808278D01*
X17237392Y-799134D01*
X17209706Y-789736D01*
X17163478Y-789736D01*
X17135792Y-799134D01*
X17117250Y-808278D01*
X17098708Y-826820D01*
X17089564Y-845108D01*
X17089564Y-882192D01*
X17089564Y-728776D02*
G01*
X17227994Y-728776D01*
X17255934Y-719632D01*
X17274222Y-701090D01*
X17283620Y-673404D01*
X17283620Y-654862D01*
X17274222Y-627176D01*
X17255934Y-608634D01*
X17227994Y-599490D01*
X17089564Y-599490D01*
X17089564Y-474014D02*
G01*
X17283620Y-474014D01*
X17089564Y-538530D02*
G01*
X17089564Y-409244D01*
X17200308Y-348284D02*
G01*
X17200308Y-181914D01*
X17062056Y-4842929D02*
G01*
X17256112Y-4842929D01*
X17062056Y-4781969D02*
G01*
X17256112Y-4781969D01*
X17062056Y-4781969D02*
G01*
X17256112Y-4652683D01*
X17062056Y-4652683D02*
G01*
X17256112Y-4652683D01*
X17172800Y-4591723D02*
G01*
X17172800Y-4425607D01*
X15134958Y-4842840D02*
G01*
X15328760Y-4842840D01*
X15134958Y-4781880D02*
G01*
X15328760Y-4781880D01*
X15134958Y-4781880D02*
G01*
X15328760Y-4652594D01*
X15134958Y-4652594D02*
G01*
X15328760Y-4652594D01*
X15162644Y-4508576D02*
G01*
X15328760Y-4508576D01*
X15245702Y-4591634D02*
G01*
X15245702Y-4425518D01*
D26*
X8770975Y133604D02*
G01*
X8725509Y133604D01*
X8720937Y92710D01*
X8725509Y97281D01*
X8738971Y101854D01*
X8752687Y101854D01*
X8766403Y97281D01*
X8775547Y88137D01*
X8780119Y74676D01*
X8780119Y65531D01*
X8775547Y51815D01*
X8766403Y42671D01*
X8752687Y38100D01*
X8738971Y38100D01*
X8725509Y42671D01*
X8720937Y47244D01*
X8716365Y56387D01*
X8810091Y133604D02*
G01*
X8846413Y38100D01*
X8882735Y133604D02*
G01*
X8846413Y38100D01*
X1713331Y-325628D02*
G01*
X1676501Y-422655D01*
X1713331Y-325628D02*
G01*
X1750415Y-422655D01*
X1690471Y-390144D02*
G01*
X1736445Y-390144D01*
X1780895Y-325628D02*
G01*
X1780895Y-422655D01*
X1780895Y-325628D02*
G01*
X1822551Y-325628D01*
X1836267Y-330200D01*
X1840839Y-334771D01*
X1845411Y-344170D01*
X1845411Y-353313D01*
X1840839Y-362457D01*
X1836267Y-367029D01*
X1822551Y-371855D01*
X1780895Y-371855D01*
X1813153Y-371855D02*
G01*
X1845411Y-422655D01*
X1875891Y-325628D02*
G01*
X1875891Y-422655D01*
X1875891Y-325628D02*
G01*
X1936089Y-325628D01*
X1875891Y-371855D02*
G01*
X1912975Y-371855D01*
X1875891Y-422655D02*
G01*
X1936089Y-422655D01*
X1966569Y-325628D02*
G01*
X1966569Y-422655D01*
X1966569Y-325628D02*
G01*
X2026513Y-325628D01*
X1966569Y-371855D02*
G01*
X2003399Y-371855D01*
X2152243Y-348742D02*
G01*
X2147671Y-339344D01*
X2138273Y-330200D01*
X2129129Y-325628D01*
X2110587Y-325628D01*
X2101443Y-330200D01*
X2092045Y-339344D01*
X2087473Y-348742D01*
X2082901Y-362457D01*
X2082901Y-385571D01*
X2087473Y-399542D01*
X2092045Y-408686D01*
X2101443Y-417829D01*
X2110587Y-422655D01*
X2129129Y-422655D01*
X2138273Y-417829D01*
X2147671Y-408686D01*
X2152243Y-399542D01*
X2152243Y-385571D01*
X2129129Y-385571D02*
G01*
X2152243Y-385571D01*
X2182723Y-325628D02*
G01*
X2182723Y-422655D01*
X2182723Y-325628D02*
G01*
X2247239Y-422655D01*
X2247239Y-325628D02*
G01*
X2247239Y-422655D01*
X2277719Y-325628D02*
G01*
X2277719Y-422655D01*
X2277719Y-325628D02*
G01*
X2310231Y-325628D01*
X2323947Y-330200D01*
X2333091Y-339344D01*
X2337917Y-348742D01*
X2342489Y-362457D01*
X2342489Y-385571D01*
X2337917Y-399542D01*
X2333091Y-408686D01*
X2323947Y-417829D01*
X2310231Y-422655D01*
X2277719Y-422655D01*
X4140301Y-4679187D02*
G01*
X4165701Y-4745989D01*
X4191101Y-4679187D02*
G01*
X4165701Y-4745989D01*
X4212183Y-4679187D02*
G01*
X4215485Y-4682236D01*
X4218533Y-4679187D01*
X4215485Y-4675886D01*
X4212183Y-4679187D01*
X4215485Y-4701539D02*
G01*
X4215485Y-4745989D01*
X4239615Y-4701539D02*
G01*
X4239615Y-4745989D01*
X4239615Y-4714239D02*
G01*
X4249013Y-4704587D01*
X4255363Y-4701539D01*
X4265015Y-4701539D01*
X4271365Y-4704587D01*
X4274667Y-4714239D01*
X4274667Y-4745989D01*
X3883253Y-4695189D02*
G01*
X3879951Y-4688586D01*
X3873601Y-4682236D01*
X3867251Y-4679187D01*
X3854551Y-4679187D01*
X3848201Y-4682236D01*
X3841851Y-4688586D01*
X3838803Y-4695189D01*
X3835501Y-4704587D01*
X3835501Y-4720589D01*
X3838803Y-4729987D01*
X3841851Y-4736337D01*
X3848201Y-4742687D01*
X3854551Y-4745989D01*
X3867251Y-4745989D01*
X3873601Y-4742687D01*
X3879951Y-4736337D01*
X3883253Y-4729987D01*
X3883253Y-4720589D01*
X3867251Y-4720589D02*
G01*
X3883253Y-4720589D01*
X3904335Y-4679187D02*
G01*
X3904335Y-4745989D01*
X3904335Y-4679187D02*
G01*
X3948785Y-4745989D01*
X3948785Y-4679187D02*
G01*
X3948785Y-4745989D01*
X3969867Y-4679187D02*
G01*
X3969867Y-4745989D01*
X3969867Y-4679187D02*
G01*
X3991965Y-4679187D01*
X4001617Y-4682236D01*
X4007967Y-4688586D01*
X4011015Y-4695189D01*
X4014317Y-4704587D01*
X4014317Y-4720589D01*
X4011015Y-4729987D01*
X4007967Y-4736337D01*
X4001617Y-4742687D01*
X3991965Y-4745989D01*
X3969867Y-4745989D01*
X3603853Y-4695189D02*
G01*
X3600551Y-4688586D01*
X3594201Y-4682236D01*
X3587851Y-4679187D01*
X3575151Y-4679187D01*
X3568801Y-4682236D01*
X3562451Y-4688586D01*
X3559403Y-4695189D01*
X3556101Y-4704587D01*
X3556101Y-4720589D01*
X3559403Y-4729987D01*
X3562451Y-4736337D01*
X3568801Y-4742687D01*
X3575151Y-4745989D01*
X3587851Y-4745989D01*
X3594201Y-4742687D01*
X3600551Y-4736337D01*
X3603853Y-4729987D01*
X3603853Y-4720589D01*
X3587851Y-4720589D02*
G01*
X3603853Y-4720589D01*
X3624935Y-4679187D02*
G01*
X3624935Y-4745989D01*
X3624935Y-4679187D02*
G01*
X3669385Y-4745989D01*
X3669385Y-4679187D02*
G01*
X3669385Y-4745989D01*
X3690467Y-4679187D02*
G01*
X3690467Y-4745989D01*
X3690467Y-4679187D02*
G01*
X3712565Y-4679187D01*
X3722217Y-4682236D01*
X3728567Y-4688586D01*
X3731615Y-4695189D01*
X3734917Y-4704587D01*
X3734917Y-4720589D01*
X3731615Y-4729987D01*
X3728567Y-4736337D01*
X3722217Y-4742687D01*
X3712565Y-4745989D01*
X3690467Y-4745989D01*
X3391001Y-4679187D02*
G01*
X3359251Y-4679187D01*
X3356203Y-4707889D01*
X3359251Y-4704587D01*
X3368903Y-4701539D01*
X3378301Y-4701539D01*
X3387953Y-4704587D01*
X3394303Y-4710937D01*
X3397351Y-4720589D01*
X3397351Y-4726939D01*
X3394303Y-4736337D01*
X3387953Y-4742687D01*
X3378301Y-4745989D01*
X3368903Y-4745989D01*
X3359251Y-4742687D01*
X3356203Y-4739639D01*
X3352901Y-4733289D01*
X3418433Y-4679187D02*
G01*
X3443833Y-4745989D01*
X3469233Y-4679187D02*
G01*
X3443833Y-4745989D01*
X3054451Y-4679187D02*
G01*
X3089503Y-4679187D01*
X3070453Y-4704587D01*
X3079851Y-4704587D01*
X3086201Y-4707889D01*
X3089503Y-4710937D01*
X3092551Y-4720589D01*
X3092551Y-4726939D01*
X3089503Y-4736337D01*
X3083153Y-4742687D01*
X3073501Y-4745989D01*
X3064103Y-4745989D01*
X3054451Y-4742687D01*
X3051403Y-4739639D01*
X3048101Y-4733289D01*
X3116935Y-4729987D02*
G01*
X3113633Y-4733289D01*
X3116935Y-4736337D01*
X3119983Y-4733289D01*
X3116935Y-4729987D01*
X3147415Y-4679187D02*
G01*
X3182467Y-4679187D01*
X3163163Y-4704587D01*
X3172815Y-4704587D01*
X3179165Y-4707889D01*
X3182467Y-4710937D01*
X3185515Y-4720589D01*
X3185515Y-4726939D01*
X3182467Y-4736337D01*
X3176117Y-4742687D01*
X3166465Y-4745989D01*
X3156813Y-4745989D01*
X3147415Y-4742687D01*
X3144113Y-4739639D01*
X3141065Y-4733289D01*
X3206597Y-4679187D02*
G01*
X3231997Y-4745989D01*
X3257397Y-4679187D02*
G01*
X3231997Y-4745989D01*
X2671165Y-4684521D02*
G01*
X2671165Y-4751323D01*
X2671165Y-4684521D02*
G01*
X2699867Y-4684521D01*
X2709265Y-4687570D01*
X2712567Y-4690871D01*
X2715615Y-4697221D01*
X2715615Y-4703571D01*
X2712567Y-4709921D01*
X2709265Y-4713223D01*
X2699867Y-4716271D01*
X2671165Y-4716271D01*
X2693517Y-4716271D02*
G01*
X2715615Y-4751323D01*
X2736697Y-4684521D02*
G01*
X2736697Y-4751323D01*
X2736697Y-4684521D02*
G01*
X2778099Y-4684521D01*
X2736697Y-4716271D02*
G01*
X2762097Y-4716271D01*
X2736697Y-4751323D02*
G01*
X2778099Y-4751323D01*
X2843631Y-4693920D02*
G01*
X2837281Y-4687570D01*
X2827629Y-4684521D01*
X2814929Y-4684521D01*
X2805531Y-4687570D01*
X2799181Y-4693920D01*
X2799181Y-4700523D01*
X2802229Y-4706873D01*
X2805531Y-4709921D01*
X2811881Y-4713223D01*
X2830931Y-4719573D01*
X2837281Y-4722621D01*
X2840329Y-4725923D01*
X2843631Y-4732273D01*
X2843631Y-4741671D01*
X2837281Y-4748021D01*
X2827629Y-4751323D01*
X2814929Y-4751323D01*
X2805531Y-4748021D01*
X2799181Y-4741671D01*
X2864713Y-4684521D02*
G01*
X2864713Y-4751323D01*
X2864713Y-4684521D02*
G01*
X2905861Y-4684521D01*
X2864713Y-4716271D02*
G01*
X2890113Y-4716271D01*
X2864713Y-4751323D02*
G01*
X2905861Y-4751323D01*
X2949295Y-4684521D02*
G01*
X2949295Y-4751323D01*
X2926943Y-4684521D02*
G01*
X2971647Y-4684521D01*
X9419437Y-4572762D02*
G01*
X9415119Y-4563618D01*
X9405975Y-4554728D01*
X9396831Y-4550155D01*
X9378543Y-4550155D01*
X9369653Y-4554728D01*
X9360509Y-4563618D01*
X9355937Y-4572762D01*
X9351365Y-4586478D01*
X9351365Y-4609084D01*
X9355937Y-4622800D01*
X9360509Y-4631944D01*
X9369653Y-4641087D01*
X9378543Y-4645660D01*
X9396831Y-4645660D01*
X9405975Y-4641087D01*
X9415119Y-4631944D01*
X9419437Y-4622800D01*
X9419437Y-4609084D01*
X9396831Y-4609084D02*
G01*
X9419437Y-4609084D01*
X9449663Y-4550155D02*
G01*
X9449663Y-4645660D01*
X9449663Y-4550155D02*
G01*
X9513163Y-4645660D01*
X9513163Y-4550155D02*
G01*
X9513163Y-4645660D01*
X9543135Y-4550155D02*
G01*
X9543135Y-4645660D01*
X9543135Y-4550155D02*
G01*
X9574885Y-4550155D01*
X9588601Y-4554728D01*
X9597745Y-4563618D01*
X9602317Y-4572762D01*
X9606889Y-4586478D01*
X9606889Y-4609084D01*
X9602317Y-4622800D01*
X9597745Y-4631944D01*
X9588601Y-4641087D01*
X9574885Y-4645660D01*
X9543135Y-4645660D01*
X8072729Y-3835400D02*
G01*
X8169757Y-3835400D01*
X8072729Y-3835400D02*
G01*
X8072729Y-3803142D01*
X8077301Y-3789171D01*
X8086445Y-3780028D01*
X8095843Y-3775455D01*
X8109559Y-3770629D01*
X8132673Y-3770629D01*
X8146643Y-3775455D01*
X8155787Y-3780028D01*
X8164931Y-3789171D01*
X8169757Y-3803142D01*
X8169757Y-3835400D01*
X8072729Y-3740150D02*
G01*
X8169757Y-3740150D01*
X8095843Y-3640581D02*
G01*
X8086445Y-3645154D01*
X8077301Y-3654297D01*
X8072729Y-3663695D01*
X8072729Y-3681984D01*
X8077301Y-3691381D01*
X8086445Y-3700526D01*
X8095843Y-3705097D01*
X8109559Y-3709670D01*
X8132673Y-3709670D01*
X8146643Y-3705097D01*
X8155787Y-3700526D01*
X8164931Y-3691381D01*
X8169757Y-3681984D01*
X8169757Y-3663695D01*
X8164931Y-3654297D01*
X8155787Y-3645154D01*
X8146643Y-3640581D01*
X8132673Y-3640581D01*
X8132673Y-3663695D02*
G01*
X8132673Y-3640581D01*
X8072729Y-3610102D02*
G01*
X8169757Y-3610102D01*
X8072729Y-3547110D02*
G01*
X8169757Y-3547110D01*
X8072729Y-3579621D02*
G01*
X8072729Y-3514852D01*
X8072729Y-3447542D02*
G01*
X8169757Y-3484371D01*
X8072729Y-3447542D02*
G01*
X8169757Y-3410457D01*
X8137245Y-3470655D02*
G01*
X8137245Y-3424428D01*
X8072729Y-3379978D02*
G01*
X8169757Y-3379978D01*
X8169757Y-3379978D02*
G01*
X8169757Y-3324605D01*
X8698331Y-4669028D02*
G01*
X8661501Y-4766055D01*
X8698331Y-4669028D02*
G01*
X8735415Y-4766055D01*
X8675471Y-4733544D02*
G01*
X8721445Y-4733544D01*
X8765895Y-4687570D02*
G01*
X8775039Y-4682744D01*
X8789009Y-4669028D01*
X8789009Y-4766055D01*
X8874861Y-4669028D02*
G01*
X8828633Y-4669028D01*
X8824061Y-4710429D01*
X8828633Y-4705857D01*
X8842603Y-4701286D01*
X8856319Y-4701286D01*
X8870289Y-4705857D01*
X8879433Y-4715255D01*
X8884005Y-4728971D01*
X8884005Y-4738370D01*
X8879433Y-4752086D01*
X8870289Y-4761229D01*
X8856319Y-4766055D01*
X8842603Y-4766055D01*
X8828633Y-4761229D01*
X8824061Y-4756657D01*
X8819489Y-4747513D01*
X8444331Y-4669028D02*
G01*
X8407501Y-4766055D01*
X8444331Y-4669028D02*
G01*
X8481415Y-4766055D01*
X8421471Y-4733544D02*
G01*
X8467445Y-4733544D01*
X8511895Y-4687570D02*
G01*
X8521039Y-4682744D01*
X8535009Y-4669028D01*
X8535009Y-4766055D01*
X8611717Y-4669028D02*
G01*
X8565489Y-4733544D01*
X8634831Y-4733544D01*
X8611717Y-4669028D02*
G01*
X8611717Y-4766055D01*
X8164931Y-4669028D02*
G01*
X8128101Y-4766055D01*
X8164931Y-4669028D02*
G01*
X8202015Y-4766055D01*
X8142071Y-4733544D02*
G01*
X8188045Y-4733544D01*
X8232495Y-4687570D02*
G01*
X8241639Y-4682744D01*
X8255609Y-4669028D01*
X8255609Y-4766055D01*
X8295233Y-4669028D02*
G01*
X8346033Y-4669028D01*
X8318347Y-4705857D01*
X8332317Y-4705857D01*
X8341461Y-4710429D01*
X8346033Y-4715255D01*
X8350605Y-4728971D01*
X8350605Y-4738370D01*
X8346033Y-4752086D01*
X8336889Y-4761229D01*
X8322919Y-4766055D01*
X8309203Y-4766055D01*
X8295233Y-4761229D01*
X8290661Y-4756657D01*
X8286089Y-4747513D01*
X7885531Y-4669028D02*
G01*
X7848701Y-4766055D01*
X7885531Y-4669028D02*
G01*
X7922615Y-4766055D01*
X7862671Y-4733544D02*
G01*
X7908645Y-4733544D01*
X7953095Y-4687570D02*
G01*
X7962239Y-4682744D01*
X7976209Y-4669028D01*
X7976209Y-4766055D01*
X8011261Y-4692142D02*
G01*
X8011261Y-4687570D01*
X8015833Y-4678171D01*
X8020405Y-4673600D01*
X8029803Y-4669028D01*
X8048091Y-4669028D01*
X8057489Y-4673600D01*
X8062061Y-4678171D01*
X8066633Y-4687570D01*
X8066633Y-4696713D01*
X8062061Y-4705857D01*
X8052917Y-4719828D01*
X8006689Y-4766055D01*
X8071205Y-4766055D01*
X7631531Y-4669028D02*
G01*
X7594701Y-4766055D01*
X7631531Y-4669028D02*
G01*
X7668615Y-4766055D01*
X7608671Y-4733544D02*
G01*
X7654645Y-4733544D01*
X7699095Y-4687570D02*
G01*
X7708239Y-4682744D01*
X7722209Y-4669028D01*
X7722209Y-4766055D01*
X7752689Y-4687570D02*
G01*
X7761833Y-4682744D01*
X7775803Y-4669028D01*
X7775803Y-4766055D01*
X7352131Y-4669028D02*
G01*
X7315301Y-4766055D01*
X7352131Y-4669028D02*
G01*
X7389215Y-4766055D01*
X7329271Y-4733544D02*
G01*
X7375245Y-4733544D01*
X7419695Y-4687570D02*
G01*
X7428839Y-4682744D01*
X7442809Y-4669028D01*
X7442809Y-4766055D01*
X7500975Y-4669028D02*
G01*
X7487005Y-4673600D01*
X7477861Y-4687570D01*
X7473289Y-4710429D01*
X7473289Y-4724400D01*
X7477861Y-4747513D01*
X7487005Y-4761229D01*
X7500975Y-4766055D01*
X7510119Y-4766055D01*
X7524089Y-4761229D01*
X7533233Y-4747513D01*
X7537805Y-4724400D01*
X7537805Y-4710429D01*
X7533233Y-4687570D01*
X7524089Y-4673600D01*
X7510119Y-4669028D01*
X7500975Y-4669028D01*
X7098131Y-4669028D02*
G01*
X7061301Y-4766055D01*
X7098131Y-4669028D02*
G01*
X7135215Y-4766055D01*
X7075271Y-4733544D02*
G01*
X7121245Y-4733544D01*
X7225639Y-4701286D02*
G01*
X7221067Y-4715255D01*
X7211923Y-4724400D01*
X7197953Y-4728971D01*
X7193381Y-4728971D01*
X7179411Y-4724400D01*
X7170267Y-4715255D01*
X7165695Y-4701286D01*
X7165695Y-4696713D01*
X7170267Y-4682744D01*
X7179411Y-4673600D01*
X7193381Y-4669028D01*
X7197953Y-4669028D01*
X7211923Y-4673600D01*
X7221067Y-4682744D01*
X7225639Y-4701286D01*
X7225639Y-4724400D01*
X7221067Y-4747513D01*
X7211923Y-4761229D01*
X7197953Y-4766055D01*
X7188809Y-4766055D01*
X7174839Y-4761229D01*
X7170267Y-4752086D01*
X6844131Y-4669028D02*
G01*
X6807301Y-4766055D01*
X6844131Y-4669028D02*
G01*
X6881215Y-4766055D01*
X6821271Y-4733544D02*
G01*
X6867245Y-4733544D01*
X6934809Y-4669028D02*
G01*
X6920839Y-4673600D01*
X6916267Y-4682744D01*
X6916267Y-4692142D01*
X6920839Y-4701286D01*
X6930237Y-4705857D01*
X6948525Y-4710429D01*
X6962495Y-4715255D01*
X6971639Y-4724400D01*
X6976211Y-4733544D01*
X6976211Y-4747513D01*
X6971639Y-4756657D01*
X6967067Y-4761229D01*
X6953351Y-4766055D01*
X6934809Y-4766055D01*
X6920839Y-4761229D01*
X6916267Y-4756657D01*
X6911695Y-4747513D01*
X6911695Y-4733544D01*
X6916267Y-4724400D01*
X6925411Y-4715255D01*
X6939381Y-4710429D01*
X6957923Y-4705857D01*
X6967067Y-4701286D01*
X6971639Y-4692142D01*
X6971639Y-4682744D01*
X6967067Y-4673600D01*
X6953351Y-4669028D01*
X6934809Y-4669028D01*
X6386931Y-4669028D02*
G01*
X6350101Y-4766055D01*
X6386931Y-4669028D02*
G01*
X6424015Y-4766055D01*
X6364071Y-4733544D02*
G01*
X6410045Y-4733544D01*
X6519011Y-4669028D02*
G01*
X6473037Y-4766055D01*
X6454495Y-4669028D02*
G01*
X6519011Y-4669028D01*
X6133084Y-4672584D02*
G01*
X6096000Y-4769612D01*
X6133084Y-4672584D02*
G01*
X6169913Y-4769612D01*
X6109970Y-4737354D02*
G01*
X6156197Y-4737354D01*
X6255765Y-4686554D02*
G01*
X6251193Y-4677410D01*
X6237477Y-4672584D01*
X6228079Y-4672584D01*
X6214363Y-4677410D01*
X6204965Y-4691126D01*
X6200393Y-4714239D01*
X6200393Y-4737354D01*
X6204965Y-4755895D01*
X6214363Y-4765039D01*
X6228079Y-4769612D01*
X6232906Y-4769612D01*
X6246622Y-4765039D01*
X6255765Y-4755895D01*
X6260591Y-4741926D01*
X6260591Y-4737354D01*
X6255765Y-4723384D01*
X6246622Y-4714239D01*
X6232906Y-4709668D01*
X6228079Y-4709668D01*
X6214363Y-4714239D01*
X6204965Y-4723384D01*
X6200393Y-4737354D01*
X5878931Y-4669028D02*
G01*
X5842101Y-4766055D01*
X5878931Y-4669028D02*
G01*
X5916015Y-4766055D01*
X5856071Y-4733544D02*
G01*
X5902045Y-4733544D01*
X6001867Y-4669028D02*
G01*
X5955639Y-4669028D01*
X5951067Y-4710429D01*
X5955639Y-4705857D01*
X5969609Y-4701286D01*
X5983325Y-4701286D01*
X5997295Y-4705857D01*
X6006439Y-4715255D01*
X6011011Y-4728971D01*
X6011011Y-4738370D01*
X6006439Y-4752086D01*
X5997295Y-4761229D01*
X5983325Y-4766055D01*
X5969609Y-4766055D01*
X5955639Y-4761229D01*
X5951067Y-4756657D01*
X5946495Y-4747513D01*
X5624931Y-4669028D02*
G01*
X5588101Y-4766055D01*
X5624931Y-4669028D02*
G01*
X5662015Y-4766055D01*
X5602071Y-4733544D02*
G01*
X5648045Y-4733544D01*
X5738723Y-4669028D02*
G01*
X5692495Y-4733544D01*
X5761837Y-4733544D01*
X5738723Y-4669028D02*
G01*
X5738723Y-4766055D01*
X5370931Y-4669028D02*
G01*
X5334101Y-4766055D01*
X5370931Y-4669028D02*
G01*
X5408015Y-4766055D01*
X5348071Y-4733544D02*
G01*
X5394045Y-4733544D01*
X5447639Y-4669028D02*
G01*
X5498439Y-4669028D01*
X5470753Y-4705857D01*
X5484723Y-4705857D01*
X5493867Y-4710429D01*
X5498439Y-4715255D01*
X5503011Y-4728971D01*
X5503011Y-4738370D01*
X5498439Y-4752086D01*
X5489295Y-4761229D01*
X5475325Y-4766055D01*
X5461609Y-4766055D01*
X5447639Y-4761229D01*
X5443067Y-4756657D01*
X5438495Y-4747513D01*
X5116931Y-4669028D02*
G01*
X5080101Y-4766055D01*
X5116931Y-4669028D02*
G01*
X5154015Y-4766055D01*
X5094071Y-4733544D02*
G01*
X5140045Y-4733544D01*
X5189067Y-4692142D02*
G01*
X5189067Y-4687570D01*
X5193639Y-4678171D01*
X5198211Y-4673600D01*
X5207609Y-4669028D01*
X5226151Y-4669028D01*
X5235295Y-4673600D01*
X5239867Y-4678171D01*
X5244439Y-4687570D01*
X5244439Y-4696713D01*
X5239867Y-4705857D01*
X5230723Y-4719828D01*
X5184495Y-4766055D01*
X5249011Y-4766055D01*
X4862931Y-4669028D02*
G01*
X4826101Y-4766055D01*
X4862931Y-4669028D02*
G01*
X4900015Y-4766055D01*
X4840071Y-4733544D02*
G01*
X4886045Y-4733544D01*
X4930495Y-4687570D02*
G01*
X4939639Y-4682744D01*
X4953609Y-4669028D01*
X4953609Y-4766055D01*
X4583531Y-4669028D02*
G01*
X4546701Y-4766055D01*
X4583531Y-4669028D02*
G01*
X4620615Y-4766055D01*
X4560671Y-4733544D02*
G01*
X4606645Y-4733544D01*
X4678781Y-4669028D02*
G01*
X4664811Y-4673600D01*
X4655667Y-4687570D01*
X4651095Y-4710429D01*
X4651095Y-4724400D01*
X4655667Y-4747513D01*
X4664811Y-4761229D01*
X4678781Y-4766055D01*
X4687925Y-4766055D01*
X4701895Y-4761229D01*
X4711039Y-4747513D01*
X4715611Y-4724400D01*
X4715611Y-4710429D01*
X4711039Y-4687570D01*
X4701895Y-4673600D01*
X4687925Y-4669028D01*
X4678781Y-4669028D01*
X9457537Y-4176521D02*
G01*
X9411309Y-4176521D01*
X9406737Y-4217923D01*
X9411309Y-4213352D01*
X9425279Y-4208779D01*
X9438995Y-4208779D01*
X9452965Y-4213352D01*
X9462109Y-4222750D01*
X9466935Y-4236465D01*
X9466935Y-4245863D01*
X9462109Y-4259579D01*
X9452965Y-4268723D01*
X9438995Y-4273550D01*
X9425279Y-4273550D01*
X9411309Y-4268723D01*
X9406737Y-4264152D01*
X9402165Y-4255007D01*
X9506559Y-4176521D02*
G01*
X9557359Y-4176521D01*
X9529673Y-4213352D01*
X9543389Y-4213352D01*
X9552787Y-4217923D01*
X9557359Y-4222750D01*
X9561931Y-4236465D01*
X9561931Y-4245863D01*
X9557359Y-4259579D01*
X9548215Y-4268723D01*
X9534245Y-4273550D01*
X9520275Y-4273550D01*
X9506559Y-4268723D01*
X9501987Y-4264152D01*
X9497415Y-4255007D01*
X9466173Y-3955287D02*
G01*
X9419945Y-3955287D01*
X9415373Y-3996689D01*
X9419945Y-3992118D01*
X9433915Y-3987545D01*
X9447631Y-3987545D01*
X9461601Y-3992118D01*
X9470745Y-4001515D01*
X9475571Y-4015231D01*
X9475571Y-4024629D01*
X9470745Y-4038345D01*
X9461601Y-4047489D01*
X9447631Y-4052315D01*
X9433915Y-4052315D01*
X9419945Y-4047489D01*
X9415373Y-4042918D01*
X9410801Y-4033773D01*
X9506051Y-3973829D02*
G01*
X9515195Y-3969004D01*
X9528911Y-3955287D01*
X9528911Y-4052315D01*
X9457029Y-3701287D02*
G01*
X9410801Y-3765804D01*
X9480143Y-3765804D01*
X9457029Y-3701287D02*
G01*
X9457029Y-3798315D01*
X9570567Y-3733545D02*
G01*
X9565995Y-3747515D01*
X9556851Y-3756660D01*
X9542881Y-3761231D01*
X9538309Y-3761231D01*
X9524339Y-3756660D01*
X9515195Y-3747515D01*
X9510623Y-3733545D01*
X9510623Y-3728973D01*
X9515195Y-3715004D01*
X9524339Y-3705860D01*
X9538309Y-3701287D01*
X9542881Y-3701287D01*
X9556851Y-3705860D01*
X9565995Y-3715004D01*
X9570567Y-3733545D01*
X9570567Y-3756660D01*
X9565995Y-3779773D01*
X9556851Y-3793489D01*
X9542881Y-3798315D01*
X9533737Y-3798315D01*
X9519767Y-3793489D01*
X9515195Y-3784345D01*
X9457029Y-3447287D02*
G01*
X9410801Y-3511804D01*
X9480143Y-3511804D01*
X9457029Y-3447287D02*
G01*
X9457029Y-3544315D01*
X9575139Y-3447287D02*
G01*
X9528911Y-3544315D01*
X9510623Y-3447287D02*
G01*
X9575139Y-3447287D01*
X9457029Y-3193287D02*
G01*
X9410801Y-3257804D01*
X9480143Y-3257804D01*
X9457029Y-3193287D02*
G01*
X9457029Y-3290315D01*
X9565995Y-3193287D02*
G01*
X9519767Y-3193287D01*
X9515195Y-3234689D01*
X9519767Y-3230118D01*
X9533737Y-3225545D01*
X9547453Y-3225545D01*
X9561423Y-3230118D01*
X9570567Y-3239515D01*
X9575139Y-3253231D01*
X9575139Y-3262629D01*
X9570567Y-3276345D01*
X9561423Y-3285489D01*
X9547453Y-3290315D01*
X9533737Y-3290315D01*
X9519767Y-3285489D01*
X9515195Y-3280918D01*
X9510623Y-3271773D01*
X9457029Y-2939287D02*
G01*
X9410801Y-3003804D01*
X9480143Y-3003804D01*
X9457029Y-2939287D02*
G01*
X9457029Y-3036315D01*
X9519767Y-2939287D02*
G01*
X9570567Y-2939287D01*
X9542881Y-2976118D01*
X9556851Y-2976118D01*
X9565995Y-2980689D01*
X9570567Y-2985515D01*
X9575139Y-2999231D01*
X9575139Y-3008629D01*
X9570567Y-3022345D01*
X9561423Y-3031489D01*
X9547453Y-3036315D01*
X9533737Y-3036315D01*
X9519767Y-3031489D01*
X9515195Y-3026918D01*
X9510623Y-3017773D01*
X9457029Y-2685287D02*
G01*
X9410801Y-2749804D01*
X9480143Y-2749804D01*
X9457029Y-2685287D02*
G01*
X9457029Y-2782315D01*
X9510623Y-2703829D02*
G01*
X9519767Y-2699004D01*
X9533737Y-2685287D01*
X9533737Y-2782315D01*
X9419945Y-2431287D02*
G01*
X9470745Y-2431287D01*
X9443059Y-2468118D01*
X9457029Y-2468118D01*
X9466173Y-2472689D01*
X9470745Y-2477515D01*
X9475571Y-2491231D01*
X9475571Y-2500629D01*
X9470745Y-2514345D01*
X9461601Y-2523489D01*
X9447631Y-2528315D01*
X9433915Y-2528315D01*
X9419945Y-2523489D01*
X9415373Y-2518918D01*
X9410801Y-2509773D01*
X9565995Y-2463545D02*
G01*
X9561423Y-2477515D01*
X9552025Y-2486660D01*
X9538309Y-2491231D01*
X9533737Y-2491231D01*
X9519767Y-2486660D01*
X9510623Y-2477515D01*
X9506051Y-2463545D01*
X9506051Y-2458973D01*
X9510623Y-2445004D01*
X9519767Y-2435860D01*
X9533737Y-2431287D01*
X9538309Y-2431287D01*
X9552025Y-2435860D01*
X9561423Y-2445004D01*
X9565995Y-2463545D01*
X9565995Y-2486660D01*
X9561423Y-2509773D01*
X9552025Y-2523489D01*
X9538309Y-2528315D01*
X9528911Y-2528315D01*
X9515195Y-2523489D01*
X9510623Y-2514345D01*
X9419945Y-2177287D02*
G01*
X9470745Y-2177287D01*
X9443059Y-2214118D01*
X9457029Y-2214118D01*
X9466173Y-2218689D01*
X9470745Y-2223515D01*
X9475571Y-2237231D01*
X9475571Y-2246629D01*
X9470745Y-2260345D01*
X9461601Y-2269489D01*
X9447631Y-2274315D01*
X9433915Y-2274315D01*
X9419945Y-2269489D01*
X9415373Y-2264918D01*
X9410801Y-2255773D01*
X9570567Y-2177287D02*
G01*
X9524339Y-2274315D01*
X9506051Y-2177287D02*
G01*
X9570567Y-2177287D01*
X9419945Y-1923287D02*
G01*
X9470745Y-1923287D01*
X9443059Y-1960118D01*
X9457029Y-1960118D01*
X9466173Y-1964689D01*
X9470745Y-1969515D01*
X9475571Y-1983231D01*
X9475571Y-1992629D01*
X9470745Y-2006345D01*
X9461601Y-2015489D01*
X9447631Y-2020315D01*
X9433915Y-2020315D01*
X9419945Y-2015489D01*
X9415373Y-2010918D01*
X9410801Y-2001773D01*
X9561423Y-1923287D02*
G01*
X9515195Y-1923287D01*
X9510623Y-1964689D01*
X9515195Y-1960118D01*
X9528911Y-1955545D01*
X9542881Y-1955545D01*
X9556851Y-1960118D01*
X9565995Y-1969515D01*
X9570567Y-1983231D01*
X9570567Y-1992629D01*
X9565995Y-2006345D01*
X9556851Y-2015489D01*
X9542881Y-2020315D01*
X9528911Y-2020315D01*
X9515195Y-2015489D01*
X9510623Y-2010918D01*
X9506051Y-2001773D01*
X9419945Y-1669287D02*
G01*
X9470745Y-1669287D01*
X9443059Y-1706118D01*
X9457029Y-1706118D01*
X9466173Y-1710689D01*
X9470745Y-1715515D01*
X9475571Y-1729231D01*
X9475571Y-1738629D01*
X9470745Y-1752345D01*
X9461601Y-1761489D01*
X9447631Y-1766315D01*
X9433915Y-1766315D01*
X9419945Y-1761489D01*
X9415373Y-1756918D01*
X9410801Y-1747773D01*
X9515195Y-1669287D02*
G01*
X9565995Y-1669287D01*
X9538309Y-1706118D01*
X9552025Y-1706118D01*
X9561423Y-1710689D01*
X9565995Y-1715515D01*
X9570567Y-1729231D01*
X9570567Y-1738629D01*
X9565995Y-1752345D01*
X9556851Y-1761489D01*
X9542881Y-1766315D01*
X9528911Y-1766315D01*
X9515195Y-1761489D01*
X9510623Y-1756918D01*
X9506051Y-1747773D01*
X9419945Y-1415287D02*
G01*
X9470745Y-1415287D01*
X9443059Y-1452118D01*
X9457029Y-1452118D01*
X9466173Y-1456689D01*
X9470745Y-1461515D01*
X9475571Y-1475231D01*
X9475571Y-1484629D01*
X9470745Y-1498345D01*
X9461601Y-1507489D01*
X9447631Y-1512315D01*
X9433915Y-1512315D01*
X9419945Y-1507489D01*
X9415373Y-1502918D01*
X9410801Y-1493773D01*
X9506051Y-1433829D02*
G01*
X9515195Y-1429004D01*
X9528911Y-1415287D01*
X9528911Y-1512315D01*
X8596477Y-4179062D02*
G01*
X8550249Y-4179062D01*
X8545677Y-4220463D01*
X8550249Y-4215892D01*
X8564219Y-4211320D01*
X8577935Y-4211320D01*
X8591905Y-4215892D01*
X8601049Y-4225289D01*
X8605875Y-4239005D01*
X8605875Y-4248404D01*
X8601049Y-4262120D01*
X8591905Y-4271263D01*
X8577935Y-4276089D01*
X8564219Y-4276089D01*
X8550249Y-4271263D01*
X8545677Y-4266692D01*
X8541105Y-4257547D01*
X8640927Y-4202176D02*
G01*
X8640927Y-4197604D01*
X8645499Y-4188205D01*
X8650071Y-4183634D01*
X8659215Y-4179062D01*
X8677757Y-4179062D01*
X8687155Y-4183634D01*
X8691727Y-4188205D01*
X8696299Y-4197604D01*
X8696299Y-4206747D01*
X8691727Y-4215892D01*
X8682329Y-4229862D01*
X8636355Y-4276089D01*
X8700871Y-4276089D01*
X8583269Y-3703828D02*
G01*
X8537041Y-3768344D01*
X8606383Y-3768344D01*
X8583269Y-3703828D02*
G01*
X8583269Y-3800855D01*
X8659977Y-3703828D02*
G01*
X8646007Y-3708400D01*
X8641435Y-3717544D01*
X8641435Y-3726942D01*
X8646007Y-3736086D01*
X8655151Y-3740657D01*
X8673693Y-3745229D01*
X8687663Y-3750055D01*
X8696807Y-3759200D01*
X8701379Y-3768344D01*
X8701379Y-3782313D01*
X8696807Y-3791457D01*
X8692235Y-3796029D01*
X8678265Y-3800855D01*
X8659977Y-3800855D01*
X8646007Y-3796029D01*
X8641435Y-3791457D01*
X8636863Y-3782313D01*
X8636863Y-3768344D01*
X8641435Y-3759200D01*
X8650579Y-3750055D01*
X8664549Y-3745229D01*
X8683091Y-3740657D01*
X8692235Y-3736086D01*
X8696807Y-3726942D01*
X8696807Y-3717544D01*
X8692235Y-3708400D01*
X8678265Y-3703828D01*
X8659977Y-3703828D01*
X8592413Y-3957828D02*
G01*
X8546185Y-3957828D01*
X8541613Y-3999229D01*
X8546185Y-3994657D01*
X8560155Y-3990086D01*
X8573871Y-3990086D01*
X8587841Y-3994657D01*
X8596985Y-4004055D01*
X8601811Y-4017771D01*
X8601811Y-4027170D01*
X8596985Y-4040886D01*
X8587841Y-4050029D01*
X8573871Y-4054855D01*
X8560155Y-4054855D01*
X8546185Y-4050029D01*
X8541613Y-4045457D01*
X8537041Y-4036313D01*
X8659977Y-3957828D02*
G01*
X8646007Y-3962400D01*
X8636863Y-3976370D01*
X8632291Y-3999229D01*
X8632291Y-4013200D01*
X8636863Y-4036313D01*
X8646007Y-4050029D01*
X8659977Y-4054855D01*
X8669121Y-4054855D01*
X8683091Y-4050029D01*
X8692235Y-4036313D01*
X8696807Y-4013200D01*
X8696807Y-3999229D01*
X8692235Y-3976370D01*
X8683091Y-3962400D01*
X8669121Y-3957828D01*
X8659977Y-3957828D01*
X8583269Y-3449828D02*
G01*
X8537041Y-3514344D01*
X8606383Y-3514344D01*
X8583269Y-3449828D02*
G01*
X8583269Y-3546855D01*
X8692235Y-3463544D02*
G01*
X8687663Y-3454400D01*
X8673693Y-3449828D01*
X8664549Y-3449828D01*
X8650579Y-3454400D01*
X8641435Y-3468370D01*
X8636863Y-3491229D01*
X8636863Y-3514344D01*
X8641435Y-3532886D01*
X8650579Y-3542029D01*
X8664549Y-3546855D01*
X8669121Y-3546855D01*
X8683091Y-3542029D01*
X8692235Y-3532886D01*
X8696807Y-3519170D01*
X8696807Y-3514344D01*
X8692235Y-3500628D01*
X8683091Y-3491229D01*
X8669121Y-3486657D01*
X8664549Y-3486657D01*
X8650579Y-3491229D01*
X8641435Y-3500628D01*
X8636863Y-3514344D01*
X8583269Y-3195828D02*
G01*
X8537041Y-3260344D01*
X8606383Y-3260344D01*
X8583269Y-3195828D02*
G01*
X8583269Y-3292855D01*
X8683091Y-3195828D02*
G01*
X8636863Y-3260344D01*
X8705951Y-3260344D01*
X8683091Y-3195828D02*
G01*
X8683091Y-3292855D01*
X8583269Y-2941828D02*
G01*
X8537041Y-3006344D01*
X8606383Y-3006344D01*
X8583269Y-2941828D02*
G01*
X8583269Y-3038855D01*
X8641435Y-2964942D02*
G01*
X8641435Y-2960370D01*
X8646007Y-2950971D01*
X8650579Y-2946400D01*
X8659977Y-2941828D01*
X8678265Y-2941828D01*
X8687663Y-2946400D01*
X8692235Y-2950971D01*
X8696807Y-2960370D01*
X8696807Y-2969513D01*
X8692235Y-2978657D01*
X8683091Y-2992628D01*
X8636863Y-3038855D01*
X8701379Y-3038855D01*
X8583269Y-2687828D02*
G01*
X8537041Y-2752344D01*
X8606383Y-2752344D01*
X8583269Y-2687828D02*
G01*
X8583269Y-2784855D01*
X8664549Y-2687828D02*
G01*
X8650579Y-2692400D01*
X8641435Y-2706370D01*
X8636863Y-2729229D01*
X8636863Y-2743200D01*
X8641435Y-2766313D01*
X8650579Y-2780029D01*
X8664549Y-2784855D01*
X8673693Y-2784855D01*
X8687663Y-2780029D01*
X8696807Y-2766313D01*
X8701379Y-2743200D01*
X8701379Y-2729229D01*
X8696807Y-2706370D01*
X8687663Y-2692400D01*
X8673693Y-2687828D01*
X8664549Y-2687828D01*
X8546185Y-2433828D02*
G01*
X8596985Y-2433828D01*
X8569299Y-2470657D01*
X8583269Y-2470657D01*
X8592413Y-2475229D01*
X8596985Y-2480055D01*
X8601811Y-2493771D01*
X8601811Y-2503170D01*
X8596985Y-2516886D01*
X8587841Y-2526029D01*
X8573871Y-2530855D01*
X8560155Y-2530855D01*
X8546185Y-2526029D01*
X8541613Y-2521457D01*
X8537041Y-2512313D01*
X8655151Y-2433828D02*
G01*
X8641435Y-2438400D01*
X8636863Y-2447544D01*
X8636863Y-2456942D01*
X8641435Y-2466086D01*
X8650579Y-2470657D01*
X8669121Y-2475229D01*
X8683091Y-2480055D01*
X8692235Y-2489200D01*
X8696807Y-2498344D01*
X8696807Y-2512313D01*
X8692235Y-2521457D01*
X8687663Y-2526029D01*
X8673693Y-2530855D01*
X8655151Y-2530855D01*
X8641435Y-2526029D01*
X8636863Y-2521457D01*
X8632291Y-2512313D01*
X8632291Y-2498344D01*
X8636863Y-2489200D01*
X8646007Y-2480055D01*
X8659977Y-2475229D01*
X8678265Y-2470657D01*
X8687663Y-2466086D01*
X8692235Y-2456942D01*
X8692235Y-2447544D01*
X8687663Y-2438400D01*
X8673693Y-2433828D01*
X8655151Y-2433828D01*
X8546185Y-2179828D02*
G01*
X8596985Y-2179828D01*
X8569299Y-2216657D01*
X8583269Y-2216657D01*
X8592413Y-2221229D01*
X8596985Y-2226055D01*
X8601811Y-2239771D01*
X8601811Y-2249170D01*
X8596985Y-2262886D01*
X8587841Y-2272029D01*
X8573871Y-2276855D01*
X8560155Y-2276855D01*
X8546185Y-2272029D01*
X8541613Y-2267457D01*
X8537041Y-2258313D01*
X8687663Y-2193544D02*
G01*
X8683091Y-2184400D01*
X8669121Y-2179828D01*
X8659977Y-2179828D01*
X8646007Y-2184400D01*
X8636863Y-2198370D01*
X8632291Y-2221229D01*
X8632291Y-2244344D01*
X8636863Y-2262886D01*
X8646007Y-2272029D01*
X8659977Y-2276855D01*
X8664549Y-2276855D01*
X8678265Y-2272029D01*
X8687663Y-2262886D01*
X8692235Y-2249170D01*
X8692235Y-2244344D01*
X8687663Y-2230628D01*
X8678265Y-2221229D01*
X8664549Y-2216657D01*
X8659977Y-2216657D01*
X8646007Y-2221229D01*
X8636863Y-2230628D01*
X8632291Y-2244344D01*
X8546185Y-1925828D02*
G01*
X8596985Y-1925828D01*
X8569299Y-1962657D01*
X8583269Y-1962657D01*
X8592413Y-1967229D01*
X8596985Y-1972055D01*
X8601811Y-1985771D01*
X8601811Y-1995170D01*
X8596985Y-2008886D01*
X8587841Y-2018029D01*
X8573871Y-2022855D01*
X8560155Y-2022855D01*
X8546185Y-2018029D01*
X8541613Y-2013457D01*
X8537041Y-2004313D01*
X8678265Y-1925828D02*
G01*
X8632291Y-1990344D01*
X8701379Y-1990344D01*
X8678265Y-1925828D02*
G01*
X8678265Y-2022855D01*
X8546185Y-1671828D02*
G01*
X8596985Y-1671828D01*
X8569299Y-1708657D01*
X8583269Y-1708657D01*
X8592413Y-1713229D01*
X8596985Y-1718055D01*
X8601811Y-1731771D01*
X8601811Y-1741170D01*
X8596985Y-1754886D01*
X8587841Y-1764029D01*
X8573871Y-1768855D01*
X8560155Y-1768855D01*
X8546185Y-1764029D01*
X8541613Y-1759457D01*
X8537041Y-1750313D01*
X8636863Y-1694942D02*
G01*
X8636863Y-1690370D01*
X8641435Y-1680971D01*
X8646007Y-1676400D01*
X8655151Y-1671828D01*
X8673693Y-1671828D01*
X8683091Y-1676400D01*
X8687663Y-1680971D01*
X8692235Y-1690370D01*
X8692235Y-1699513D01*
X8687663Y-1708657D01*
X8678265Y-1722628D01*
X8632291Y-1768855D01*
X8696807Y-1768855D01*
X8546185Y-1417828D02*
G01*
X8596985Y-1417828D01*
X8569299Y-1454657D01*
X8583269Y-1454657D01*
X8592413Y-1459229D01*
X8596985Y-1464055D01*
X8601811Y-1477771D01*
X8601811Y-1487170D01*
X8596985Y-1500886D01*
X8587841Y-1510029D01*
X8573871Y-1514855D01*
X8560155Y-1514855D01*
X8546185Y-1510029D01*
X8541613Y-1505457D01*
X8537041Y-1496313D01*
X8659977Y-1417828D02*
G01*
X8646007Y-1422400D01*
X8636863Y-1436370D01*
X8632291Y-1459229D01*
X8632291Y-1473200D01*
X8636863Y-1496313D01*
X8646007Y-1510029D01*
X8659977Y-1514855D01*
X8669121Y-1514855D01*
X8683091Y-1510029D01*
X8692235Y-1496313D01*
X8696807Y-1473200D01*
X8696807Y-1459229D01*
X8692235Y-1436370D01*
X8683091Y-1422400D01*
X8669121Y-1417828D01*
X8659977Y-1417828D01*
X8541613Y-1186942D02*
G01*
X8541613Y-1182370D01*
X8546185Y-1172971D01*
X8551011Y-1168400D01*
X8560155Y-1163828D01*
X8578697Y-1163828D01*
X8587841Y-1168400D01*
X8592413Y-1172971D01*
X8596985Y-1182370D01*
X8596985Y-1191513D01*
X8592413Y-1200657D01*
X8583269Y-1214628D01*
X8537041Y-1260855D01*
X8601811Y-1260855D01*
X8655151Y-1163828D02*
G01*
X8641435Y-1168400D01*
X8636863Y-1177544D01*
X8636863Y-1186942D01*
X8641435Y-1196086D01*
X8650579Y-1200657D01*
X8669121Y-1205229D01*
X8683091Y-1210055D01*
X8692235Y-1219200D01*
X8696807Y-1228344D01*
X8696807Y-1242313D01*
X8692235Y-1251457D01*
X8687663Y-1256029D01*
X8673693Y-1260855D01*
X8655151Y-1260855D01*
X8641435Y-1256029D01*
X8636863Y-1251457D01*
X8632291Y-1242313D01*
X8632291Y-1228344D01*
X8636863Y-1219200D01*
X8646007Y-1210055D01*
X8659977Y-1205229D01*
X8678265Y-1200657D01*
X8687663Y-1196086D01*
X8692235Y-1186942D01*
X8692235Y-1177544D01*
X8687663Y-1168400D01*
X8673693Y-1163828D01*
X8655151Y-1163828D01*
X8541613Y-932942D02*
G01*
X8541613Y-928370D01*
X8546185Y-918971D01*
X8551011Y-914400D01*
X8560155Y-909828D01*
X8578697Y-909828D01*
X8587841Y-914400D01*
X8592413Y-918971D01*
X8596985Y-928370D01*
X8596985Y-937513D01*
X8592413Y-946657D01*
X8583269Y-960628D01*
X8537041Y-1006855D01*
X8601811Y-1006855D01*
X8687663Y-923544D02*
G01*
X8683091Y-914400D01*
X8669121Y-909828D01*
X8659977Y-909828D01*
X8646007Y-914400D01*
X8636863Y-928370D01*
X8632291Y-951229D01*
X8632291Y-974344D01*
X8636863Y-992886D01*
X8646007Y-1002029D01*
X8659977Y-1006855D01*
X8664549Y-1006855D01*
X8678265Y-1002029D01*
X8687663Y-992886D01*
X8692235Y-979170D01*
X8692235Y-974344D01*
X8687663Y-960628D01*
X8678265Y-951229D01*
X8664549Y-946657D01*
X8659977Y-946657D01*
X8646007Y-951229D01*
X8636863Y-960628D01*
X8632291Y-974344D01*
X8541613Y-678942D02*
G01*
X8541613Y-674370D01*
X8546185Y-664971D01*
X8551011Y-660400D01*
X8560155Y-655828D01*
X8578697Y-655828D01*
X8587841Y-660400D01*
X8592413Y-664971D01*
X8596985Y-674370D01*
X8596985Y-683513D01*
X8592413Y-692657D01*
X8583269Y-706628D01*
X8537041Y-752855D01*
X8601811Y-752855D01*
X8678265Y-655828D02*
G01*
X8632291Y-720344D01*
X8701379Y-720344D01*
X8678265Y-655828D02*
G01*
X8678265Y-752855D01*
X8541613Y-424942D02*
G01*
X8541613Y-420370D01*
X8546185Y-410971D01*
X8551011Y-406400D01*
X8560155Y-401828D01*
X8578697Y-401828D01*
X8587841Y-406400D01*
X8592413Y-410971D01*
X8596985Y-420370D01*
X8596985Y-429513D01*
X8592413Y-438657D01*
X8583269Y-452628D01*
X8537041Y-498855D01*
X8601811Y-498855D01*
X8636863Y-424942D02*
G01*
X8636863Y-420370D01*
X8641435Y-410971D01*
X8646007Y-406400D01*
X8655151Y-401828D01*
X8673693Y-401828D01*
X8683091Y-406400D01*
X8687663Y-410971D01*
X8692235Y-420370D01*
X8692235Y-429513D01*
X8687663Y-438657D01*
X8678265Y-452628D01*
X8632291Y-498855D01*
X8696807Y-498855D01*
X8158073Y-323342D02*
G01*
X8158073Y-318770D01*
X8162645Y-309371D01*
X8167471Y-304800D01*
X8176615Y-300228D01*
X8195157Y-300228D01*
X8204301Y-304800D01*
X8208873Y-309371D01*
X8213445Y-318770D01*
X8213445Y-327913D01*
X8208873Y-337057D01*
X8199729Y-351028D01*
X8153501Y-397255D01*
X8218271Y-397255D01*
X8248751Y-318770D02*
G01*
X8257895Y-313944D01*
X8271611Y-300228D01*
X8271611Y-397255D01*
X7878673Y-323342D02*
G01*
X7878673Y-318770D01*
X7883245Y-309371D01*
X7888071Y-304800D01*
X7897215Y-300228D01*
X7915757Y-300228D01*
X7924901Y-304800D01*
X7929473Y-309371D01*
X7934045Y-318770D01*
X7934045Y-327913D01*
X7929473Y-337057D01*
X7920329Y-351028D01*
X7874101Y-397255D01*
X7938871Y-397255D01*
X7997037Y-300228D02*
G01*
X7983067Y-304800D01*
X7973923Y-318770D01*
X7969351Y-341629D01*
X7969351Y-355600D01*
X7973923Y-378713D01*
X7983067Y-392429D01*
X7997037Y-397255D01*
X8006181Y-397255D01*
X8020151Y-392429D01*
X8029295Y-378713D01*
X8033867Y-355600D01*
X8033867Y-341629D01*
X8029295Y-318770D01*
X8020151Y-304800D01*
X8006181Y-300228D01*
X7997037Y-300228D01*
X7645501Y-318770D02*
G01*
X7654645Y-313944D01*
X7668615Y-300228D01*
X7668615Y-397255D01*
X7759039Y-332486D02*
G01*
X7754467Y-346455D01*
X7745323Y-355600D01*
X7731353Y-360171D01*
X7726781Y-360171D01*
X7712811Y-355600D01*
X7703667Y-346455D01*
X7699095Y-332486D01*
X7699095Y-327913D01*
X7703667Y-313944D01*
X7712811Y-304800D01*
X7726781Y-300228D01*
X7731353Y-300228D01*
X7745323Y-304800D01*
X7754467Y-313944D01*
X7759039Y-332486D01*
X7759039Y-355600D01*
X7754467Y-378713D01*
X7745323Y-392429D01*
X7731353Y-397255D01*
X7722209Y-397255D01*
X7708239Y-392429D01*
X7703667Y-383286D01*
X7391501Y-318770D02*
G01*
X7400645Y-313944D01*
X7414615Y-300228D01*
X7414615Y-397255D01*
X7468209Y-300228D02*
G01*
X7454239Y-304800D01*
X7449667Y-313944D01*
X7449667Y-323342D01*
X7454239Y-332486D01*
X7463637Y-337057D01*
X7481925Y-341629D01*
X7495895Y-346455D01*
X7505039Y-355600D01*
X7509611Y-364744D01*
X7509611Y-378713D01*
X7505039Y-387857D01*
X7500467Y-392429D01*
X7486751Y-397255D01*
X7468209Y-397255D01*
X7454239Y-392429D01*
X7449667Y-387857D01*
X7445095Y-378713D01*
X7445095Y-364744D01*
X7449667Y-355600D01*
X7458811Y-346455D01*
X7472781Y-341629D01*
X7491323Y-337057D01*
X7500467Y-332486D01*
X7505039Y-323342D01*
X7505039Y-313944D01*
X7500467Y-304800D01*
X7486751Y-300228D01*
X7468209Y-300228D01*
X7137501Y-318770D02*
G01*
X7146645Y-313944D01*
X7160615Y-300228D01*
X7160615Y-397255D01*
X7255611Y-300228D02*
G01*
X7209637Y-397255D01*
X7191095Y-300228D02*
G01*
X7255611Y-300228D01*
X6883501Y-318770D02*
G01*
X6892645Y-313944D01*
X6906615Y-300228D01*
X6906615Y-397255D01*
X6992467Y-313944D02*
G01*
X6987895Y-304800D01*
X6973925Y-300228D01*
X6964781Y-300228D01*
X6950811Y-304800D01*
X6941667Y-318770D01*
X6937095Y-341629D01*
X6937095Y-364744D01*
X6941667Y-383286D01*
X6950811Y-392429D01*
X6964781Y-397255D01*
X6969353Y-397255D01*
X6983323Y-392429D01*
X6992467Y-383286D01*
X6997039Y-369570D01*
X6997039Y-364744D01*
X6992467Y-351028D01*
X6983323Y-341629D01*
X6969353Y-337057D01*
X6964781Y-337057D01*
X6950811Y-341629D01*
X6941667Y-351028D01*
X6937095Y-364744D01*
X6629501Y-318770D02*
G01*
X6638645Y-313944D01*
X6652615Y-300228D01*
X6652615Y-397255D01*
X6738467Y-300228D02*
G01*
X6692239Y-300228D01*
X6687667Y-341629D01*
X6692239Y-337057D01*
X6706209Y-332486D01*
X6719925Y-332486D01*
X6733895Y-337057D01*
X6743039Y-346455D01*
X6747611Y-360171D01*
X6747611Y-369570D01*
X6743039Y-383286D01*
X6733895Y-392429D01*
X6719925Y-397255D01*
X6706209Y-397255D01*
X6692239Y-392429D01*
X6687667Y-387857D01*
X6683095Y-378713D01*
X6375501Y-318770D02*
G01*
X6384645Y-313944D01*
X6398615Y-300228D01*
X6398615Y-397255D01*
X6475323Y-300228D02*
G01*
X6429095Y-364744D01*
X6498437Y-364744D01*
X6475323Y-300228D02*
G01*
X6475323Y-397255D01*
X2413101Y-344170D02*
G01*
X2422245Y-339344D01*
X2436215Y-325628D01*
X2436215Y-422655D01*
X2475839Y-325628D02*
G01*
X2526639Y-325628D01*
X2498953Y-362457D01*
X2512923Y-362457D01*
X2522067Y-367029D01*
X2526639Y-371855D01*
X2531211Y-385571D01*
X2531211Y-394970D01*
X2526639Y-408686D01*
X2517495Y-417829D01*
X2503525Y-422655D01*
X2489809Y-422655D01*
X2475839Y-417829D01*
X2471267Y-413257D01*
X2466695Y-404113D01*
X2667101Y-344170D02*
G01*
X2676245Y-339344D01*
X2690215Y-325628D01*
X2690215Y-422655D01*
X2725267Y-348742D02*
G01*
X2725267Y-344170D01*
X2729839Y-334771D01*
X2734411Y-330200D01*
X2743809Y-325628D01*
X2762351Y-325628D01*
X2771495Y-330200D01*
X2776067Y-334771D01*
X2780639Y-344170D01*
X2780639Y-353313D01*
X2776067Y-362457D01*
X2766923Y-376428D01*
X2720695Y-422655D01*
X2785211Y-422655D01*
X2946501Y-344170D02*
G01*
X2955645Y-339344D01*
X2969615Y-325628D01*
X2969615Y-422655D01*
X3000095Y-344170D02*
G01*
X3009239Y-339344D01*
X3023209Y-325628D01*
X3023209Y-422655D01*
X3175101Y-344170D02*
G01*
X3184245Y-339344D01*
X3198215Y-325628D01*
X3198215Y-422655D01*
X3256381Y-325628D02*
G01*
X3242411Y-330200D01*
X3233267Y-344170D01*
X3228695Y-367029D01*
X3228695Y-381000D01*
X3233267Y-404113D01*
X3242411Y-417829D01*
X3256381Y-422655D01*
X3265525Y-422655D01*
X3279495Y-417829D01*
X3288639Y-404113D01*
X3293211Y-381000D01*
X3293211Y-367029D01*
X3288639Y-344170D01*
X3279495Y-330200D01*
X3265525Y-325628D01*
X3256381Y-325628D01*
X3514445Y-357886D02*
G01*
X3509873Y-371855D01*
X3500729Y-381000D01*
X3486759Y-385571D01*
X3482187Y-385571D01*
X3468471Y-381000D01*
X3459073Y-371855D01*
X3454501Y-357886D01*
X3454501Y-353313D01*
X3459073Y-339344D01*
X3468471Y-330200D01*
X3482187Y-325628D01*
X3486759Y-325628D01*
X3500729Y-330200D01*
X3509873Y-339344D01*
X3514445Y-357886D01*
X3514445Y-381000D01*
X3509873Y-404113D01*
X3500729Y-417829D01*
X3486759Y-422655D01*
X3477615Y-422655D01*
X3463645Y-417829D01*
X3459073Y-408686D01*
X3731615Y-325628D02*
G01*
X3717645Y-330200D01*
X3713073Y-339344D01*
X3713073Y-348742D01*
X3717645Y-357886D01*
X3727043Y-362457D01*
X3745331Y-367029D01*
X3759301Y-371855D01*
X3768445Y-381000D01*
X3773271Y-390144D01*
X3773271Y-404113D01*
X3768445Y-413257D01*
X3763873Y-417829D01*
X3750157Y-422655D01*
X3731615Y-422655D01*
X3717645Y-417829D01*
X3713073Y-413257D01*
X3708501Y-404113D01*
X3708501Y-390144D01*
X3713073Y-381000D01*
X3722471Y-371855D01*
X3736187Y-367029D01*
X3754729Y-362457D01*
X3763873Y-357886D01*
X3768445Y-348742D01*
X3768445Y-339344D01*
X3763873Y-330200D01*
X3750157Y-325628D01*
X3731615Y-325628D01*
X4179671Y-325628D02*
G01*
X4133443Y-422655D01*
X4114901Y-325628D02*
G01*
X4179671Y-325628D01*
X4424273Y-339344D02*
G01*
X4419701Y-330200D01*
X4405731Y-325628D01*
X4396587Y-325628D01*
X4382871Y-330200D01*
X4373473Y-344170D01*
X4368901Y-367029D01*
X4368901Y-390144D01*
X4373473Y-408686D01*
X4382871Y-417829D01*
X4396587Y-422655D01*
X4401159Y-422655D01*
X4415129Y-417829D01*
X4424273Y-408686D01*
X4428845Y-394970D01*
X4428845Y-390144D01*
X4424273Y-376428D01*
X4415129Y-367029D01*
X4401159Y-362457D01*
X4396587Y-362457D01*
X4382871Y-367029D01*
X4373473Y-376428D01*
X4368901Y-390144D01*
X4678273Y-325628D02*
G01*
X4632045Y-325628D01*
X4627473Y-367029D01*
X4632045Y-362457D01*
X4646015Y-357886D01*
X4659731Y-357886D01*
X4673701Y-362457D01*
X4682845Y-371855D01*
X4687671Y-385571D01*
X4687671Y-394970D01*
X4682845Y-408686D01*
X4673701Y-417829D01*
X4659731Y-422655D01*
X4646015Y-422655D01*
X4632045Y-417829D01*
X4627473Y-413257D01*
X4622901Y-404113D01*
X4923129Y-325628D02*
G01*
X4876901Y-390144D01*
X4946243Y-390144D01*
X4923129Y-325628D02*
G01*
X4923129Y-422655D01*
X5165445Y-325628D02*
G01*
X5216245Y-325628D01*
X5188559Y-362457D01*
X5202529Y-362457D01*
X5211673Y-367029D01*
X5216245Y-371855D01*
X5221071Y-385571D01*
X5221071Y-394970D01*
X5216245Y-408686D01*
X5207101Y-417829D01*
X5193131Y-422655D01*
X5179415Y-422655D01*
X5165445Y-417829D01*
X5160873Y-413257D01*
X5156301Y-404113D01*
X5389473Y-348742D02*
G01*
X5389473Y-344170D01*
X5394045Y-334771D01*
X5398871Y-330200D01*
X5408015Y-325628D01*
X5426557Y-325628D01*
X5435701Y-330200D01*
X5440273Y-334771D01*
X5444845Y-344170D01*
X5444845Y-353313D01*
X5440273Y-362457D01*
X5431129Y-376428D01*
X5384901Y-422655D01*
X5449671Y-422655D01*
X5638901Y-344170D02*
G01*
X5648045Y-339344D01*
X5662015Y-325628D01*
X5662015Y-422655D01*
X5920587Y-325628D02*
G01*
X5906871Y-330200D01*
X5897473Y-344170D01*
X5892901Y-367029D01*
X5892901Y-381000D01*
X5897473Y-404113D01*
X5906871Y-417829D01*
X5920587Y-422655D01*
X5929731Y-422655D01*
X5943701Y-417829D01*
X5952845Y-404113D01*
X5957671Y-381000D01*
X5957671Y-367029D01*
X5952845Y-344170D01*
X5943701Y-330200D01*
X5929731Y-325628D01*
X5920587Y-325628D01*
X2375154Y-4907787D02*
G01*
X2343150Y-4907787D01*
X2340102Y-4936489D01*
X2343150Y-4933187D01*
X2352802Y-4930139D01*
X2362454Y-4930139D01*
X2371852Y-4933187D01*
X2378202Y-4939537D01*
X2381504Y-4949189D01*
X2381504Y-4955539D01*
X2378202Y-4964937D01*
X2371852Y-4971287D01*
X2362454Y-4974589D01*
X2352802Y-4974589D01*
X2343150Y-4971287D01*
X2340102Y-4968239D01*
X2336800Y-4961889D01*
X2402331Y-4907787D02*
G01*
X2427986Y-4974589D01*
X2453386Y-4907787D02*
G01*
X2427986Y-4974589D01*
X13106400Y-5574284D02*
G01*
X13106400Y-5652262D01*
X13111479Y-5667755D01*
X13121893Y-5678170D01*
X13137641Y-5683250D01*
X13148056Y-5683250D01*
X13163550Y-5678170D01*
X13173963Y-5667755D01*
X13179043Y-5652262D01*
X13179043Y-5574284D01*
X13213334Y-5595112D02*
G01*
X13223747Y-5589778D01*
X13239495Y-5574284D01*
X13239495Y-5683250D01*
D21*
X10338282Y-6002246D02*
G01*
X10338282Y-6145502D01*
X10338282Y-6002246D02*
G01*
X10399496Y-6002246D01*
X10420070Y-6009104D01*
X10426928Y-6015962D01*
X10433532Y-6029424D01*
X10433532Y-6049998D01*
X10426928Y-6063714D01*
X10420070Y-6070318D01*
X10399496Y-6077176D01*
X10338282Y-6077176D01*
X10478744Y-6002246D02*
G01*
X10512780Y-6145502D01*
X10546816Y-6002246D02*
G01*
X10512780Y-6145502D01*
X10546816Y-6002246D02*
G01*
X10580852Y-6145502D01*
X10615142Y-6002246D02*
G01*
X10580852Y-6145502D01*
X10660100Y-6002246D02*
G01*
X10660100Y-6145502D01*
X10660100Y-6002246D02*
G01*
X10714456Y-6145502D01*
X10769066Y-6002246D02*
G01*
X10714456Y-6145502D01*
X10769066Y-6002246D02*
G01*
X10769066Y-6145502D01*
X10440550Y-6616316D02*
G01*
X10433692Y-6602600D01*
X10419976Y-6589138D01*
X10406260Y-6582280D01*
X10379082Y-6582280D01*
X10365366Y-6589138D01*
X10351904Y-6602600D01*
X10345046Y-6616316D01*
X10338188Y-6636890D01*
X10338188Y-6670926D01*
X10345046Y-6691246D01*
X10351904Y-6704962D01*
X10365366Y-6718678D01*
X10379082Y-6725536D01*
X10406260Y-6725536D01*
X10419976Y-6718678D01*
X10433692Y-6704962D01*
X10440550Y-6691246D01*
X10440550Y-6670926D01*
X10406260Y-6670926D02*
G01*
X10440550Y-6670926D01*
X10485508Y-6582280D02*
G01*
X10485508Y-6725536D01*
X10485508Y-6582280D02*
G01*
X10581012Y-6725536D01*
X10581012Y-6582280D02*
G01*
X10581012Y-6725536D01*
X10625970Y-6582280D02*
G01*
X10625970Y-6725536D01*
X10625970Y-6582280D02*
G01*
X10673722Y-6582280D01*
X10694042Y-6589138D01*
X10707758Y-6602600D01*
X10714616Y-6616316D01*
X10721474Y-6636890D01*
X10721474Y-6670926D01*
X10714616Y-6691246D01*
X10707758Y-6704962D01*
X10694042Y-6718678D01*
X10673722Y-6725536D01*
X10625970Y-6725536D01*
X12641204Y-6116152D02*
G01*
X12641206Y-6268806D01*
X12689210Y-6116152D02*
G01*
X12689210Y-6268806D01*
X12689210Y-6116152D02*
G01*
X12791064Y-6268806D01*
X12791064Y-6116152D02*
G01*
X12791064Y-6268806D01*
X12839070Y-6203274D02*
G01*
X12969880Y-6203274D01*
X12138192Y-6118926D02*
G01*
X12138192Y-6262182D01*
X12183150Y-6118926D02*
G01*
X12183150Y-6262182D01*
X12183150Y-6118926D02*
G01*
X12278654Y-6262182D01*
X12278654Y-6118926D02*
G01*
X12278654Y-6262182D01*
X12385080Y-6139500D02*
G01*
X12385080Y-6262182D01*
X12323612Y-6200714D02*
G01*
X12446294Y-6200714D01*
X12141314Y-6455138D02*
G01*
X12141314Y-6598394D01*
X12141314Y-6455138D02*
G01*
X12195924Y-6598394D01*
X12250280Y-6455138D02*
G01*
X12195924Y-6598394D01*
X12250280Y-6455138D02*
G01*
X12250280Y-6598394D01*
X12356706Y-6475712D02*
G01*
X12356706Y-6598394D01*
X12295238Y-6536926D02*
G01*
X12418174Y-6536926D01*
X12638285Y-6458534D02*
G01*
X12638285Y-6601790D01*
X12638285Y-6458534D02*
G01*
X12692895Y-6601790D01*
X12747251Y-6458534D02*
G01*
X12692895Y-6601790D01*
X12747251Y-6458534D02*
G01*
X12747251Y-6601790D01*
X12792463Y-6540322D02*
G01*
X12915145Y-6540322D01*
X2032000Y-3619500D02*
G01*
X2032000Y-3810000D01*
X2286000Y-3810000D01*
X2286000Y-1270000D01*
X2032000Y-1270000D01*
D22*
X2032000Y-1270000D02*
G01*
X2032000Y-3619500D01*
D21*
X3073400Y-3619500D02*
G01*
X3073400Y-3810000D01*
X3327400Y-3810000D01*
X3327400Y-1270000D01*
X3073400Y-1270000D01*
D22*
X3073400Y-1270000D02*
G01*
X3073400Y-3619500D01*
D21*
X7772400Y-3619500D02*
G01*
X7772400Y-3810000D01*
X8026400Y-3810000D01*
X8026400Y-1270000D01*
X7772400Y-1270000D01*
D22*
X7772400Y-1270000D02*
G01*
X7772400Y-3619500D01*
D21*
X2692400Y-3619500D02*
G01*
X2692400Y-3810000D01*
X2946400Y-3810000D01*
X2946400Y-1270000D01*
X2692400Y-1270000D01*
D22*
X2692400Y-1270000D02*
G01*
X2692400Y-3619500D01*
D21*
X1625600Y-3619500D02*
G01*
X1625600Y-3810000D01*
X1879600Y-3810000D01*
X1879600Y-1270000D01*
X1625600Y-1270000D01*
D22*
X1625600Y-1270000D02*
G01*
X1625600Y-3619500D01*
D23*
X4267200Y-5486400D02*
G01*
X2235200Y-5486400D01*
X2235200Y-5486400D02*
G01*
X2235200Y-5232400D01*
X4267200Y-5486400D02*
G01*
X4267200Y-5232400D01*
X3225800Y-5232400D01*
X2235200Y-5232400D01*
X6553200Y-5461000D02*
G01*
X4521200Y-5461000D01*
X4521200Y-5461000D02*
G01*
X4521200Y-5207000D01*
X6553200Y-5461000D02*
G01*
X6553200Y-5207000D01*
X5511800Y-5207000D01*
X4521200Y-5207000D01*
D21*
X1511300Y381000D02*
G01*
X1320800Y381000D01*
X1320800Y127000D01*
X3860800Y127000D01*
X3860800Y381000D01*
D22*
X3860800Y381000D02*
G01*
X1511300Y381000D01*
D23*
X4013200Y381000D02*
G01*
X6045200Y381000D01*
X6045200Y381000D02*
G01*
X6045200Y127000D01*
X4013200Y381000D02*
G01*
X4013200Y127000D01*
X5054600Y127000D01*
X6045200Y127000D01*
X6299200Y381000D02*
G01*
X8331200Y381000D01*
X8331200Y381000D02*
G01*
X8331200Y127000D01*
X6299200Y381000D02*
G01*
X6299200Y127000D01*
X7340600Y127000D01*
X8331200Y127000D01*
X9742195Y968192D02*
G01*
X10730202Y968192D01*
X9736203Y461208D02*
G01*
X10736193Y461208D01*
X9736203Y1208194D02*
G01*
X10736193Y1208194D01*
X9736203Y408200D02*
G01*
X10736193Y408200D01*
X10736193Y1208194D02*
G01*
X10736193Y408200D01*
X9736203Y1208194D02*
G01*
X9736203Y408200D01*
X10728205Y1548208D02*
G01*
X9740196Y1548208D01*
X10734194Y2055190D02*
G01*
X9734194Y2055190D01*
X10734194Y1308204D02*
G01*
X9734194Y1308204D01*
X10734194Y2108200D02*
G01*
X9734194Y2108200D01*
X9734194Y1308204D02*
G01*
X9734194Y2108200D01*
X10734194Y1308204D02*
G01*
X10734194Y2108200D01*
X13030200Y2008123D02*
G01*
X13030200Y2008123D01*
X13030200Y2008123D01*
X13030200Y408178D01*
X9730231Y408178D01*
X9730231Y2108200D01*
X13030200Y2108200D01*
X13030200Y2008123D01*
X12720193Y708202D02*
G01*
X12466193Y708202D01*
X12466193Y1808200D01*
X12720193Y1808200D01*
X12720193Y708202D01*
X13030200Y708202D02*
G01*
X12718186Y708202D01*
X12718186Y1808200D01*
X13030200Y1808200D01*
X13030200Y708202D01*
X12720193Y1253185D02*
G01*
X12480188Y1253185D01*
X12480188Y1263192D01*
X12720193Y1263192D01*
X12720193Y1253185D01*
X703198Y-2649601D02*
G01*
X-96799Y-2649601D01*
X703198Y-3649598D02*
G01*
X-96799Y-3649598D01*
X-96799Y-2649601D02*
G01*
X-96799Y-3649598D01*
X703198Y-2649601D02*
G01*
X703198Y-3649598D01*
X-43789Y-2649601D02*
G01*
X-43789Y-3649598D01*
X463194Y-2655595D02*
G01*
X463194Y-3643604D01*
X4838700Y-2603500D02*
G01*
X4838700Y-2552700D01*
X5473700Y-2552700D01*
X5473700Y-2603500D01*
X5473700Y-2743200D02*
G01*
X5473700Y-2781300D01*
X4838700Y-2781300D01*
X4838700Y-2743200D01*
X4838700Y-2095500D02*
G01*
X4838700Y-2044700D01*
X5473700Y-2044700D01*
X5473700Y-2095500D01*
X5473700Y-2235200D02*
G01*
X5473700Y-2273300D01*
X4838700Y-2273300D01*
X4838700Y-2235200D01*
X4749800Y-3589020D02*
G01*
X5562600Y-3589020D01*
X4749800Y-3268979D02*
G01*
X5562600Y-3268979D01*
X4749800Y-3268979D02*
G01*
X4749800Y-3589020D01*
X5562600Y-3268979D02*
G01*
X5562600Y-3589020D01*
X4749800Y-1506220D02*
G01*
X5562600Y-1506220D01*
X4749800Y-1186179D02*
G01*
X5562600Y-1186179D01*
X4749800Y-1186179D02*
G01*
X4749800Y-1506220D01*
X5562600Y-1186179D02*
G01*
X5562600Y-1506220D01*
X14782800Y-6814820D02*
G01*
X15595600Y-6814820D01*
X14782800Y-6494779D02*
G01*
X15595600Y-6494779D01*
X14782800Y-6494779D02*
G01*
X14782800Y-6814820D01*
X15595600Y-6494779D02*
G01*
X15595600Y-6814820D01*
X16306800Y-6814820D02*
G01*
X17119600Y-6814820D01*
X16306800Y-6494779D02*
G01*
X17119600Y-6494779D01*
X16306800Y-6494779D02*
G01*
X16306800Y-6814820D01*
X17119600Y-6494779D02*
G01*
X17119600Y-6814820D01*
X14782800Y1389379D02*
G01*
X15595600Y1389379D01*
X14782800Y1709420D02*
G01*
X15595600Y1709420D01*
X14782800Y1709420D02*
G01*
X14782800Y1389379D01*
X15595600Y1709420D02*
G01*
X15595600Y1389379D01*
X16306800Y1389379D02*
G01*
X17119600Y1389379D01*
X16306800Y1709420D02*
G01*
X17119600Y1709420D01*
X16306800Y1709420D02*
G01*
X16306800Y1389379D01*
X17119600Y1709420D02*
G01*
X17119600Y1389379D01*
D24*
X56134Y-1828863D02*
G01*
X1366265Y-1828863D01*
X56134Y-1824799D02*
G01*
X1366265Y-1824799D01*
X56134Y-1820735D02*
G01*
X1366265Y-1820735D01*
X56387Y-1816925D02*
G01*
X1366012Y-1816925D01*
X56387Y-1812861D02*
G01*
X1366012Y-1812861D01*
X56387Y-1808797D02*
G01*
X1366012Y-1808797D01*
X56642Y-1804733D02*
G01*
X1365757Y-1804733D01*
X56642Y-1800923D02*
G01*
X1365757Y-1800923D01*
X56895Y-1796859D02*
G01*
X1365504Y-1796859D01*
X57150Y-1792795D02*
G01*
X1365250Y-1792795D01*
X57404Y-1788731D02*
G01*
X1364995Y-1788731D01*
X57657Y-1784921D02*
G01*
X1364742Y-1784921D01*
X57912Y-1780857D02*
G01*
X1364487Y-1780857D01*
X58165Y-1776793D02*
G01*
X1364234Y-1776793D01*
X58420Y-1772729D02*
G01*
X1363979Y-1772729D01*
X58928Y-1768919D02*
G01*
X1363471Y-1768919D01*
X59181Y-1764855D02*
G01*
X1363218Y-1764855D01*
X59689Y-1760791D02*
G01*
X1362710Y-1760791D01*
X60197Y-1756727D02*
G01*
X1362202Y-1756727D01*
X60452Y-1752663D02*
G01*
X1361947Y-1752663D01*
X60960Y-1748599D02*
G01*
X1361439Y-1748599D01*
X61468Y-1744789D02*
G01*
X1360931Y-1744789D01*
X61976Y-1740725D02*
G01*
X1360423Y-1740725D01*
X62484Y-1736661D02*
G01*
X1359915Y-1736661D01*
X63245Y-1732597D02*
G01*
X1359154Y-1732597D01*
X63754Y-1728787D02*
G01*
X1358645Y-1728787D01*
X64515Y-1724723D02*
G01*
X1357884Y-1724723D01*
X65023Y-1720659D02*
G01*
X1357376Y-1720659D01*
X65786Y-1716595D02*
G01*
X573278Y-1716595D01*
X849121Y-1716595D02*
G01*
X1356613Y-1716595D01*
X66294Y-1712785D02*
G01*
X573278Y-1712785D01*
X849121Y-1712785D02*
G01*
X1356105Y-1712785D01*
X67310Y-1708721D02*
G01*
X573278Y-1708721D01*
X849121Y-1708721D02*
G01*
X1355089Y-1708721D01*
X67818Y-1704657D02*
G01*
X573278Y-1704657D01*
X849121Y-1704657D02*
G01*
X1354581Y-1704657D01*
X68579Y-1700593D02*
G01*
X573278Y-1700593D01*
X849121Y-1700593D02*
G01*
X1353820Y-1700593D01*
X69595Y-1696783D02*
G01*
X573278Y-1696783D01*
X849121Y-1696783D02*
G01*
X1352804Y-1696783D01*
X70357Y-1692719D02*
G01*
X573278Y-1692719D01*
X849121Y-1692719D02*
G01*
X1352042Y-1692719D01*
X71120Y-1688655D02*
G01*
X573278Y-1688655D01*
X849121Y-1688655D02*
G01*
X1351279Y-1688655D01*
X72136Y-1684591D02*
G01*
X573278Y-1684591D01*
X849121Y-1684591D02*
G01*
X1350263Y-1684591D01*
X72897Y-1680781D02*
G01*
X573278Y-1680781D01*
X849121Y-1680781D02*
G01*
X1349502Y-1680781D01*
X73913Y-1676717D02*
G01*
X573278Y-1676717D01*
X849121Y-1676717D02*
G01*
X1348486Y-1676717D01*
X74929Y-1672653D02*
G01*
X573278Y-1672653D01*
X849121Y-1672653D02*
G01*
X1347470Y-1672653D01*
X75945Y-1668589D02*
G01*
X573278Y-1668589D01*
X849121Y-1668589D02*
G01*
X1346454Y-1668589D01*
X76962Y-1664779D02*
G01*
X573278Y-1664779D01*
X849121Y-1664779D02*
G01*
X1345437Y-1664779D01*
X77978Y-1660715D02*
G01*
X573278Y-1660715D01*
X849121Y-1660715D02*
G01*
X1344421Y-1660715D01*
X78994Y-1656651D02*
G01*
X573278Y-1656651D01*
X849121Y-1656651D02*
G01*
X1343405Y-1656651D01*
X80010Y-1652587D02*
G01*
X573278Y-1652587D01*
X849121Y-1652587D02*
G01*
X1342389Y-1652587D01*
X81279Y-1648777D02*
G01*
X573278Y-1648777D01*
X849121Y-1648777D02*
G01*
X1341120Y-1648777D01*
X82295Y-1644713D02*
G01*
X573278Y-1644713D01*
X849121Y-1644713D02*
G01*
X1340104Y-1644713D01*
X83565Y-1640649D02*
G01*
X573278Y-1640649D01*
X849121Y-1640649D02*
G01*
X1338834Y-1640649D01*
X84581Y-1636585D02*
G01*
X573278Y-1636585D01*
X849121Y-1636585D02*
G01*
X1337818Y-1636585D01*
X86105Y-1632775D02*
G01*
X573278Y-1632775D01*
X849121Y-1632775D02*
G01*
X1336294Y-1632775D01*
X87121Y-1628711D02*
G01*
X573278Y-1628711D01*
X849121Y-1628711D02*
G01*
X1335278Y-1628711D01*
X88392Y-1624647D02*
G01*
X573278Y-1624647D01*
X849121Y-1624647D02*
G01*
X1334007Y-1624647D01*
X89915Y-1620583D02*
G01*
X573278Y-1620583D01*
X849121Y-1620583D02*
G01*
X1332484Y-1620583D01*
X91186Y-1616773D02*
G01*
X573278Y-1616773D01*
X849121Y-1616773D02*
G01*
X1331213Y-1616773D01*
X92710Y-1612709D02*
G01*
X573278Y-1612709D01*
X849121Y-1612709D02*
G01*
X1329689Y-1612709D01*
X93979Y-1608645D02*
G01*
X573278Y-1608645D01*
X849121Y-1608645D02*
G01*
X1328420Y-1608645D01*
X95504Y-1604581D02*
G01*
X573278Y-1604581D01*
X849121Y-1604581D02*
G01*
X1326895Y-1604581D01*
X96773Y-1600771D02*
G01*
X573278Y-1600771D01*
X849121Y-1600771D02*
G01*
X1325626Y-1600771D01*
X98297Y-1596707D02*
G01*
X573278Y-1596707D01*
X849121Y-1596707D02*
G01*
X1324102Y-1596707D01*
X99821Y-1592643D02*
G01*
X573278Y-1592643D01*
X849121Y-1592643D02*
G01*
X1322578Y-1592643D01*
X101345Y-1588579D02*
G01*
X573278Y-1588579D01*
X849121Y-1588579D02*
G01*
X1321054Y-1588579D01*
X103123Y-1584769D02*
G01*
X573278Y-1584769D01*
X849121Y-1584769D02*
G01*
X1319276Y-1584769D01*
X104647Y-1580705D02*
G01*
X573278Y-1580705D01*
X849121Y-1580705D02*
G01*
X1317752Y-1580705D01*
X106171Y-1576641D02*
G01*
X573278Y-1576641D01*
X849121Y-1576641D02*
G01*
X1316228Y-1576641D01*
X107950Y-1572577D02*
G01*
X573278Y-1572577D01*
X849121Y-1572577D02*
G01*
X1314450Y-1572577D01*
X109728Y-1568767D02*
G01*
X573278Y-1568767D01*
X849121Y-1568767D02*
G01*
X1312926Y-1568767D01*
X111252Y-1564703D02*
G01*
X573278Y-1564703D01*
X849121Y-1564703D02*
G01*
X1311147Y-1564703D01*
X113029Y-1560639D02*
G01*
X573278Y-1560639D01*
X849121Y-1560639D02*
G01*
X1309370Y-1560639D01*
X114807Y-1556575D02*
G01*
X573278Y-1556575D01*
X849121Y-1556575D02*
G01*
X1307592Y-1556575D01*
X116586Y-1552765D02*
G01*
X573278Y-1552765D01*
X849121Y-1552765D02*
G01*
X1305813Y-1552765D01*
X118618Y-1548701D02*
G01*
X573278Y-1548701D01*
X849121Y-1548701D02*
G01*
X1303781Y-1548701D01*
X120395Y-1544637D02*
G01*
X573278Y-1544637D01*
X849121Y-1544637D02*
G01*
X1302004Y-1544637D01*
X122428Y-1540573D02*
G01*
X573278Y-1540573D01*
X849121Y-1540573D02*
G01*
X1299971Y-1540573D01*
X124460Y-1536763D02*
G01*
X573278Y-1536763D01*
X849121Y-1536763D02*
G01*
X1297939Y-1536763D01*
X126492Y-1532699D02*
G01*
X573278Y-1532699D01*
X849121Y-1532699D02*
G01*
X1295907Y-1532699D01*
X128523Y-1528635D02*
G01*
X573278Y-1528635D01*
X849121Y-1528635D02*
G01*
X1293876Y-1528635D01*
X130555Y-1524825D02*
G01*
X573278Y-1524825D01*
X849121Y-1524825D02*
G01*
X1291844Y-1524825D01*
X132587Y-1520761D02*
G01*
X573278Y-1520761D01*
X849121Y-1520761D02*
G01*
X1289812Y-1520761D01*
X134620Y-1516697D02*
G01*
X573278Y-1516697D01*
X849121Y-1516697D02*
G01*
X1287779Y-1516697D01*
X136905Y-1512633D02*
G01*
X573278Y-1512633D01*
X849121Y-1512633D02*
G01*
X1285494Y-1512633D01*
X139192Y-1508823D02*
G01*
X573278Y-1508823D01*
X849121Y-1508823D02*
G01*
X1283207Y-1508823D01*
X141223Y-1504759D02*
G01*
X573278Y-1504759D01*
X849121Y-1504759D02*
G01*
X1281176Y-1504759D01*
X143510Y-1500695D02*
G01*
X573278Y-1500695D01*
X849121Y-1500695D02*
G01*
X1278889Y-1500695D01*
X145795Y-1496631D02*
G01*
X573278Y-1496631D01*
X849121Y-1496631D02*
G01*
X1276604Y-1496631D01*
X148081Y-1492821D02*
G01*
X573278Y-1492821D01*
X849121Y-1492821D02*
G01*
X1274318Y-1492821D01*
X150621Y-1488757D02*
G01*
X573278Y-1488757D01*
X849121Y-1488757D02*
G01*
X1271778Y-1488757D01*
X153162Y-1484693D02*
G01*
X573278Y-1484693D01*
X849121Y-1484693D02*
G01*
X1269237Y-1484693D01*
X155447Y-1480629D02*
G01*
X573278Y-1480629D01*
X849121Y-1480629D02*
G01*
X1266952Y-1480629D01*
X157987Y-1476819D02*
G01*
X573278Y-1476819D01*
X849121Y-1476819D02*
G01*
X1264412Y-1476819D01*
X160528Y-1472755D02*
G01*
X573278Y-1472755D01*
X849121Y-1472755D02*
G01*
X1261871Y-1472755D01*
X163321Y-1468691D02*
G01*
X573278Y-1468691D01*
X849121Y-1468691D02*
G01*
X1259078Y-1468691D01*
X165862Y-1464627D02*
G01*
X573278Y-1464627D01*
X849121Y-1464627D02*
G01*
X1256537Y-1464627D01*
X168402Y-1460817D02*
G01*
X573278Y-1460817D01*
X849121Y-1460817D02*
G01*
X1253997Y-1460817D01*
X171195Y-1456753D02*
G01*
X573278Y-1456753D01*
X849121Y-1456753D02*
G01*
X1251204Y-1456753D01*
X173989Y-1452689D02*
G01*
X573278Y-1452689D01*
X849121Y-1452689D02*
G01*
X1248410Y-1452689D01*
X176784Y-1448625D02*
G01*
X573278Y-1448625D01*
X849121Y-1448625D02*
G01*
X1245615Y-1448625D01*
X179578Y-1444815D02*
G01*
X573278Y-1444815D01*
X849121Y-1444815D02*
G01*
X1242821Y-1444815D01*
X182626Y-1440751D02*
G01*
X1239773Y-1440751D01*
X185420Y-1436687D02*
G01*
X1236979Y-1436687D01*
X188468Y-1432623D02*
G01*
X1233931Y-1432623D01*
X191515Y-1428813D02*
G01*
X1230884Y-1428813D01*
X194563Y-1424749D02*
G01*
X1227836Y-1424749D01*
X197612Y-1420685D02*
G01*
X1224787Y-1420685D01*
X200913Y-1416621D02*
G01*
X1221486Y-1416621D01*
X203962Y-1412811D02*
G01*
X1218437Y-1412811D01*
X207263Y-1408747D02*
G01*
X1215136Y-1408747D01*
X210820Y-1404683D02*
G01*
X1211579Y-1404683D01*
X214121Y-1400619D02*
G01*
X1208278Y-1400619D01*
X217423Y-1396809D02*
G01*
X1204976Y-1396809D01*
X220979Y-1392745D02*
G01*
X1201420Y-1392745D01*
X224536Y-1388681D02*
G01*
X1197863Y-1388681D01*
X228092Y-1384617D02*
G01*
X1194307Y-1384617D01*
X231902Y-1380807D02*
G01*
X1190497Y-1380807D01*
X235712Y-1376743D02*
G01*
X1186687Y-1376743D01*
X239521Y-1372679D02*
G01*
X1182878Y-1372679D01*
X243331Y-1368615D02*
G01*
X1179068Y-1368615D01*
X247142Y-1364805D02*
G01*
X1175257Y-1364805D01*
X251205Y-1360741D02*
G01*
X1171194Y-1360741D01*
X255270Y-1356677D02*
G01*
X1167129Y-1356677D01*
X259334Y-1352613D02*
G01*
X1163065Y-1352613D01*
X263652Y-1348803D02*
G01*
X1158747Y-1348803D01*
X267970Y-1344739D02*
G01*
X1154429Y-1344739D01*
X272287Y-1340675D02*
G01*
X1150112Y-1340675D01*
X276605Y-1336611D02*
G01*
X1145794Y-1336611D01*
X281178Y-1332801D02*
G01*
X1141221Y-1332801D01*
X286004Y-1328737D02*
G01*
X1136395Y-1328737D01*
X290576Y-1324673D02*
G01*
X1131823Y-1324673D01*
X295402Y-1320609D02*
G01*
X1126997Y-1320609D01*
X300228Y-1316799D02*
G01*
X1122171Y-1316799D01*
X305307Y-1312735D02*
G01*
X1117092Y-1312735D01*
X310387Y-1308671D02*
G01*
X1112012Y-1308671D01*
X315468Y-1304607D02*
G01*
X1106931Y-1304607D01*
X320802Y-1300797D02*
G01*
X1101597Y-1300797D01*
X326136Y-1296733D02*
G01*
X1096263Y-1296733D01*
X331723Y-1292669D02*
G01*
X1090676Y-1292669D01*
X337312Y-1288605D02*
G01*
X1085087Y-1288605D01*
X343154Y-1284795D02*
G01*
X1079245Y-1284795D01*
X348995Y-1280731D02*
G01*
X1073404Y-1280731D01*
X355092Y-1276667D02*
G01*
X1067307Y-1276667D01*
X361442Y-1272603D02*
G01*
X1060957Y-1272603D01*
X367792Y-1268793D02*
G01*
X1054607Y-1268793D01*
X374395Y-1264729D02*
G01*
X1048004Y-1264729D01*
X381000Y-1260665D02*
G01*
X1041400Y-1260665D01*
X387857Y-1256601D02*
G01*
X1034542Y-1256601D01*
X394970Y-1252791D02*
G01*
X1027429Y-1252791D01*
X402336Y-1248727D02*
G01*
X1020063Y-1248727D01*
X409702Y-1244663D02*
G01*
X1012697Y-1244663D01*
X417576Y-1240599D02*
G01*
X1004823Y-1240599D01*
X425704Y-1236789D02*
G01*
X996695Y-1236789D01*
X434086Y-1232725D02*
G01*
X988313Y-1232725D01*
X442721Y-1228661D02*
G01*
X979678Y-1228661D01*
X451612Y-1224597D02*
G01*
X970787Y-1224597D01*
X461010Y-1220787D02*
G01*
X961389Y-1220787D01*
X470662Y-1216723D02*
G01*
X951737Y-1216723D01*
X481076Y-1212659D02*
G01*
X941323Y-1212659D01*
X491744Y-1208595D02*
G01*
X930655Y-1208595D01*
X503173Y-1204785D02*
G01*
X919226Y-1204785D01*
X515365Y-1200721D02*
G01*
X907034Y-1200721D01*
X528320Y-1196657D02*
G01*
X894079Y-1196657D01*
X542544Y-1192593D02*
G01*
X879855Y-1192593D01*
X558037Y-1188783D02*
G01*
X864362Y-1188783D01*
X575310Y-1184719D02*
G01*
X847089Y-1184719D01*
X595121Y-1180655D02*
G01*
X827278Y-1180655D01*
X619505Y-1176591D02*
G01*
X802894Y-1176591D01*
X652271Y-1172781D02*
G01*
X770128Y-1172781D01*
X711200Y-2398839D02*
G01*
X711200Y-2218753D01*
X621284Y-2308923D02*
G01*
X801115Y-2308923D01*
D23*
X15506700Y-6108700D02*
G01*
X15506700Y-6159500D01*
X14871700Y-6159500D01*
X14871700Y-6108700D01*
X14871700Y-5969000D02*
G01*
X14871700Y-5930900D01*
X15506700Y-5930900D01*
X15506700Y-5969000D01*
X17030700Y-6159500D02*
G01*
X17030700Y-6210300D01*
X16395700Y-6210300D01*
X16395700Y-6159500D01*
X16395700Y-6019800D02*
G01*
X16395700Y-5981700D01*
X17030700Y-5981700D01*
X17030700Y-6019800D01*
X15506700Y952500D02*
G01*
X15506700Y901700D01*
X14871700Y901700D01*
X14871700Y952500D01*
X14871700Y1092200D02*
G01*
X14871700Y1130300D01*
X15506700Y1130300D01*
X15506700Y1092200D01*
X17030700Y952500D02*
G01*
X17030700Y901700D01*
X16395700Y901700D01*
X16395700Y952500D01*
X16395700Y1092200D02*
G01*
X16395700Y1130300D01*
X17030700Y1130300D01*
X17030700Y1092200D01*
X13322300Y-3492500D02*
G01*
X13322300Y-3441700D01*
X13957300Y-3441700D01*
X13957300Y-3492500D01*
X13957300Y-3632200D02*
G01*
X13957300Y-3670300D01*
X13322300Y-3670300D01*
X13322300Y-3632200D01*
X13322300Y-4152900D02*
G01*
X13322300Y-4102100D01*
X13957300Y-4102100D01*
X13957300Y-4152900D01*
X13957300Y-4292600D02*
G01*
X13957300Y-4330700D01*
X13322300Y-4330700D01*
X13322300Y-4292600D01*
X15887700Y-3492500D02*
G01*
X15887700Y-3441700D01*
X16522700Y-3441700D01*
X16522700Y-3492500D01*
X16522700Y-3632200D02*
G01*
X16522700Y-3670300D01*
X15887700Y-3670300D01*
X15887700Y-3632200D01*
X15887700Y-4152900D02*
G01*
X15887700Y-4102100D01*
X16522700Y-4102100D01*
X16522700Y-4152900D01*
X16522700Y-4292600D02*
G01*
X16522700Y-4330700D01*
X15887700Y-4330700D01*
X15887700Y-4292600D01*
X13322300Y-2857500D02*
G01*
X13322300Y-2806700D01*
X13957300Y-2806700D01*
X13957300Y-2857500D01*
X13957300Y-2997200D02*
G01*
X13957300Y-3035300D01*
X13322300Y-3035300D01*
X13322300Y-2997200D01*
X11391900Y-4254500D02*
G01*
X11391900Y-4305300D01*
X10756900Y-4305300D01*
X10756900Y-4254500D01*
X10756900Y-4114800D02*
G01*
X10756900Y-4076700D01*
X11391900Y-4076700D01*
X11391900Y-4114800D01*
X15887700Y-2857500D02*
G01*
X15887700Y-2806700D01*
X16522700Y-2806700D01*
X16522700Y-2857500D01*
X16522700Y-2997200D02*
G01*
X16522700Y-3035300D01*
X15887700Y-3035300D01*
X15887700Y-2997200D01*
X8839200Y-5461000D02*
G01*
X6807200Y-5461000D01*
X6807200Y-5461000D02*
G01*
X6807200Y-5207000D01*
X8839200Y-5461000D02*
G01*
X8839200Y-5207000D01*
X7797800Y-5207000D01*
X6807200Y-5207000D01*
D21*
X12052300Y-5181602D02*
G01*
X12242800Y-5181602D01*
X12242800Y-4940302D01*
X9956800Y-4940302D01*
X9956800Y-5181602D01*
D22*
X9956800Y-5181602D02*
G01*
X12052300Y-5181602D01*
X9956800Y-139702D02*
G01*
X12052300Y-139702D01*
D21*
X12052300Y-139702D02*
G01*
X12242800Y-139702D01*
X12242800Y114297D01*
X9956800Y114297D01*
X9956800Y-139702D01*
D23*
X12242406Y114287D02*
G01*
X12242406Y-5185702D01*
X9956787Y-5185702D01*
X9956787Y114287D01*
X12242406Y114287D01*
D21*
X14592211Y-5181602D02*
G01*
X14782711Y-5181602D01*
X14782711Y-4940302D01*
X12496711Y-4940302D01*
X12496711Y-5181602D01*
D22*
X12496711Y-5181602D02*
G01*
X14592211Y-5181602D01*
X12496711Y-139702D02*
G01*
X14592211Y-139702D01*
D21*
X14592211Y-139702D02*
G01*
X14782711Y-139702D01*
X14782711Y114297D01*
X12496711Y114297D01*
X12496711Y-139702D01*
D23*
X14782317Y114287D02*
G01*
X14782317Y-5185702D01*
X12496698Y-5185702D01*
X12496698Y114287D01*
X14782317Y114287D01*
D21*
X15252611Y114302D02*
G01*
X15062111Y114302D01*
X15062111Y-126997D01*
X17348111Y-126997D01*
X17348111Y114302D01*
D22*
X17348111Y114302D02*
G01*
X15252611Y114302D01*
X17348111Y-4927597D02*
G01*
X15252611Y-4927597D01*
D21*
X15252611Y-4927597D02*
G01*
X15062111Y-4927597D01*
X15062111Y-5181597D01*
X17348111Y-5181597D01*
X17348111Y-4927597D01*
D23*
X15062504Y-5181587D02*
G01*
X15062504Y118402D01*
X17348123Y118402D01*
X17348123Y-5181587D01*
X15062504Y-5181587D01*
X2489301Y-4889500D02*
G01*
X2489301Y-5016500D01*
X2552801Y-5080000D02*
G01*
X2489301Y-5016500D01*
X2552801Y-4826000D02*
G01*
X2489301Y-4889500D01*
X2679801Y-4826000D02*
G01*
X2743301Y-4889500D01*
X2679801Y-4826000D02*
G01*
X2552801Y-4826000D01*
X2679801Y-5080000D02*
G01*
X2552801Y-5080000D01*
X2933801Y-5080000D02*
G01*
X2806801Y-5080000D01*
X2679801Y-5080000D02*
G01*
X2743301Y-5016500D01*
X2806801Y-4826000D02*
G01*
X2933801Y-4826000D01*
X2997301Y-4889500D02*
G01*
X3060801Y-4826000D01*
X2933801Y-4826000D02*
G01*
X2997301Y-4889500D01*
D25*
X8194144Y-1252220D02*
G01*
X8458301Y-990600D01*
X8458301Y-990600D02*
G01*
X8458301Y-284479D01*
D23*
X4267301Y-4889500D02*
G01*
X4267301Y-5016500D01*
X2743301Y-5016500D02*
G01*
X2806801Y-5080000D01*
X2806801Y-4826000D02*
G01*
X2743301Y-4889500D01*
X3060801Y-5080000D02*
G01*
X2997301Y-5016500D01*
X3187801Y-5080000D02*
G01*
X3060801Y-5080000D01*
X3251301Y-5016500D02*
G01*
X3187801Y-5080000D01*
X3187801Y-4826000D02*
G01*
X3251301Y-4889500D01*
X3060801Y-4826000D02*
G01*
X3187801Y-4826000D01*
X2997301Y-5016500D02*
G01*
X2933801Y-5080000D01*
X3695801Y-5080000D02*
G01*
X3568801Y-5080000D01*
X3505301Y-5016500D02*
G01*
X3568801Y-5080000D01*
X3568801Y-4826000D02*
G01*
X3505301Y-4889500D01*
X3314801Y-5080000D02*
G01*
X3251301Y-5016500D01*
X3441801Y-5080000D02*
G01*
X3314801Y-5080000D01*
X3505301Y-5016500D02*
G01*
X3441801Y-5080000D01*
X3441801Y-4826000D02*
G01*
X3505301Y-4889500D01*
X3314801Y-4826000D02*
G01*
X3441801Y-4826000D01*
X3251301Y-4889500D02*
G01*
X3314801Y-4826000D01*
X3822801Y-5080000D02*
G01*
X3759301Y-5016500D01*
X3949801Y-5080000D02*
G01*
X3822801Y-5080000D01*
X4013301Y-5016500D02*
G01*
X3949801Y-5080000D01*
X3949801Y-4826000D02*
G01*
X4013301Y-4889500D01*
X3822801Y-4826000D02*
G01*
X3949801Y-4826000D01*
X3759301Y-4889500D02*
G01*
X3822801Y-4826000D01*
X3759301Y-5016500D02*
G01*
X3695801Y-5080000D01*
X3695801Y-4826000D02*
G01*
X3759301Y-4889500D01*
X3568801Y-4826000D02*
G01*
X3695801Y-4826000D01*
X4076801Y-5080000D02*
G01*
X4013301Y-5016500D01*
X4203801Y-5080000D02*
G01*
X4076801Y-5080000D01*
X4267301Y-5016500D02*
G01*
X4203801Y-5080000D01*
X4203801Y-4826000D02*
G01*
X4267301Y-4889500D01*
X4076801Y-4826000D02*
G01*
X4203801Y-4826000D01*
X4013301Y-4889500D02*
G01*
X4076801Y-4826000D01*
X5905601Y-635000D02*
G01*
X5854801Y-584200D01*
X5956401Y-584200D02*
G01*
X5905601Y-635000D01*
X5905601Y-508000D02*
G01*
X5905601Y-635000D01*
X5651601Y-508000D02*
G01*
X5702401Y-558800D01*
X5600801Y-558800D02*
G01*
X5651601Y-508000D01*
X5651601Y-635000D02*
G01*
X5651601Y-508000D01*
D25*
X8361786Y-4320542D02*
G01*
X9649559Y-4320542D01*
X8191601Y-4150357D02*
G01*
X8361786Y-4320542D01*
X9220301Y-4653279D02*
G01*
X9220301Y-4577079D01*
X8966301Y-4653279D02*
G01*
X9220301Y-4653279D01*
X8966301Y-4579620D02*
G01*
X8966301Y-4653279D01*
X9220301Y71120D02*
G01*
X9220301Y5079D01*
X8966301Y71120D02*
G01*
X9220301Y71120D01*
X8966301Y7620D02*
G01*
X8966301Y71120D01*
X8194144Y-1252220D02*
G01*
X8194144Y-4064000D01*
D23*
X9283801Y-254000D02*
G01*
X8902801Y-254000D01*
X8902801Y0D02*
G01*
X9283801Y0D01*
X9347301Y-63500D02*
G01*
X9347301Y-190500D01*
X8839301Y-190500D02*
G01*
X8902801Y-254000D01*
X8902801Y0D02*
G01*
X8839301Y-63500D01*
X8839301Y-63500D02*
G01*
X8839301Y-190500D01*
X9347301Y-190500D02*
G01*
X9283801Y-254000D01*
X9283801Y0D02*
G01*
X9347301Y-63500D01*
X9283801Y-4572000D02*
G01*
X8902801Y-4572000D01*
X8902801Y-4318000D02*
G01*
X9283801Y-4318000D01*
X9347301Y-4381500D02*
G01*
X9347301Y-4508500D01*
X8839301Y-4508500D02*
G01*
X8902801Y-4572000D01*
X8902801Y-4318000D02*
G01*
X8839301Y-4381500D01*
X8839301Y-4381500D02*
G01*
X8839301Y-4508500D01*
X9347301Y-4508500D02*
G01*
X9283801Y-4572000D01*
X9283801Y-4318000D02*
G01*
X9347301Y-4381500D01*
X9347301Y-4254500D02*
G01*
X9347301Y-4127500D01*
X9347301Y-4000500D02*
G01*
X9347301Y-3873500D01*
X9347301Y-3746500D02*
G01*
X9347301Y-3619500D01*
X9347301Y-3492500D02*
G01*
X9347301Y-3365500D01*
X9347301Y-3238500D02*
G01*
X9347301Y-3111500D01*
X9347301Y-2984500D02*
G01*
X9347301Y-2857500D01*
X9347301Y-2730500D02*
G01*
X9347301Y-2603500D01*
X9347301Y-2476500D02*
G01*
X9347301Y-2349500D01*
X8902801Y-2286000D02*
G01*
X9283801Y-2286000D01*
X8902801Y-2540000D02*
G01*
X9283801Y-2540000D01*
X8902801Y-2794000D02*
G01*
X9283801Y-2794000D01*
X8902801Y-3048000D02*
G01*
X9283801Y-3048000D01*
X8902801Y-3302000D02*
G01*
X9283801Y-3302000D01*
X8902801Y-3556000D02*
G01*
X9283801Y-3556000D01*
X8902801Y-3810000D02*
G01*
X9283801Y-3810000D01*
X8902801Y-4064000D02*
G01*
X9283801Y-4064000D01*
X9283801Y-2794000D02*
G01*
X9347301Y-2730500D01*
X9283801Y-2540000D02*
G01*
X9347301Y-2603500D01*
X9283801Y-2540000D02*
G01*
X9347301Y-2476500D01*
X9283801Y-2286000D02*
G01*
X9347301Y-2349500D01*
X8839301Y-2349500D02*
G01*
X8902801Y-2286000D01*
X8839301Y-2476500D02*
G01*
X8839301Y-2349500D01*
X8902801Y-2540000D02*
G01*
X8839301Y-2476500D01*
X8839301Y-2603500D02*
G01*
X8902801Y-2540000D01*
X8839301Y-2730500D02*
G01*
X8839301Y-2603500D01*
X8902801Y-2794000D02*
G01*
X8839301Y-2730500D01*
X8839301Y-2857500D02*
G01*
X8902801Y-2794000D01*
X8839301Y-2984500D02*
G01*
X8839301Y-2857500D01*
X8902801Y-3048000D02*
G01*
X8839301Y-2984500D01*
X8839301Y-3111500D02*
G01*
X8902801Y-3048000D01*
X8839301Y-3238500D02*
G01*
X8839301Y-3111500D01*
X8902801Y-3302000D02*
G01*
X8839301Y-3238500D01*
X8839301Y-3365500D02*
G01*
X8902801Y-3302000D01*
X8839301Y-3492500D02*
G01*
X8839301Y-3365500D01*
X8902801Y-3556000D02*
G01*
X8839301Y-3492500D01*
X8839301Y-3619500D02*
G01*
X8902801Y-3556000D01*
X8839301Y-3746500D02*
G01*
X8839301Y-3619500D01*
X8902801Y-3810000D02*
G01*
X8839301Y-3746500D01*
X8839301Y-3873500D02*
G01*
X8902801Y-3810000D01*
X8839301Y-4000500D02*
G01*
X8839301Y-3873500D01*
X8902801Y-4064000D02*
G01*
X8839301Y-4000500D01*
X8839301Y-4127500D02*
G01*
X8902801Y-4064000D01*
X8839301Y-4254500D02*
G01*
X8839301Y-4127500D01*
X8902801Y-4318000D02*
G01*
X8839301Y-4254500D01*
X9347301Y-2857500D02*
G01*
X9283801Y-2794000D01*
X9283801Y-3048000D02*
G01*
X9347301Y-2984500D01*
X9347301Y-3111500D02*
G01*
X9283801Y-3048000D01*
X9283801Y-3302000D02*
G01*
X9347301Y-3238500D01*
X9347301Y-3365500D02*
G01*
X9283801Y-3302000D01*
X9283801Y-3556000D02*
G01*
X9347301Y-3492500D01*
X9347301Y-3619500D02*
G01*
X9283801Y-3556000D01*
X9283801Y-3810000D02*
G01*
X9347301Y-3746500D01*
X9347301Y-3873500D02*
G01*
X9283801Y-3810000D01*
X9283801Y-4064000D02*
G01*
X9347301Y-4000500D01*
X9347301Y-4127500D02*
G01*
X9283801Y-4064000D01*
X9283801Y-4318000D02*
G01*
X9347301Y-4254500D01*
X9347301Y-2222500D02*
G01*
X9347301Y-2095500D01*
X9347301Y-1968500D02*
G01*
X9347301Y-1841500D01*
X9347301Y-1714500D02*
G01*
X9347301Y-1587500D01*
X9347301Y-1460500D02*
G01*
X9347301Y-1333500D01*
X9347301Y-1206500D02*
G01*
X9347301Y-1079500D01*
X9347301Y-952500D02*
G01*
X9347301Y-825500D01*
X9347301Y-698500D02*
G01*
X9347301Y-571500D01*
X9347301Y-444500D02*
G01*
X9347301Y-317500D01*
X8902801Y-508000D02*
G01*
X9283801Y-508000D01*
X8902801Y-762000D02*
G01*
X9283801Y-762000D01*
X8902801Y-1016000D02*
G01*
X9283801Y-1016000D01*
X8902801Y-1270000D02*
G01*
X9283801Y-1270000D01*
X8902801Y-1524000D02*
G01*
X9283801Y-1524000D01*
X8902801Y-1778000D02*
G01*
X9283801Y-1778000D01*
X8902801Y-2032000D02*
G01*
X9283801Y-2032000D01*
X9283801Y-762000D02*
G01*
X9347301Y-698500D01*
X9283801Y-508000D02*
G01*
X9347301Y-571500D01*
X9283801Y-508000D02*
G01*
X9347301Y-444500D01*
X9283801Y-254000D02*
G01*
X9347301Y-317500D01*
X8839301Y-317500D02*
G01*
X8902801Y-254000D01*
X8839301Y-444500D02*
G01*
X8839301Y-317500D01*
X8902801Y-508000D02*
G01*
X8839301Y-444500D01*
X8839301Y-571500D02*
G01*
X8902801Y-508000D01*
X8839301Y-698500D02*
G01*
X8839301Y-571500D01*
X8902801Y-762000D02*
G01*
X8839301Y-698500D01*
X8839301Y-825500D02*
G01*
X8902801Y-762000D01*
X8839301Y-952500D02*
G01*
X8839301Y-825500D01*
X8902801Y-1016000D02*
G01*
X8839301Y-952500D01*
X8839301Y-1079500D02*
G01*
X8902801Y-1016000D01*
X8839301Y-1206500D02*
G01*
X8839301Y-1079500D01*
X8902801Y-1270000D02*
G01*
X8839301Y-1206500D01*
X8839301Y-1333500D02*
G01*
X8902801Y-1270000D01*
X8839301Y-1460500D02*
G01*
X8839301Y-1333500D01*
X8902801Y-1524000D02*
G01*
X8839301Y-1460500D01*
X8839301Y-1587500D02*
G01*
X8902801Y-1524000D01*
X8839301Y-1714500D02*
G01*
X8839301Y-1587500D01*
X8902801Y-1778000D02*
G01*
X8839301Y-1714500D01*
X8839301Y-1841500D02*
G01*
X8902801Y-1778000D01*
X8839301Y-1968500D02*
G01*
X8839301Y-1841500D01*
X8902801Y-2032000D02*
G01*
X8839301Y-1968500D01*
X8839301Y-2095500D02*
G01*
X8902801Y-2032000D01*
X8839301Y-2222500D02*
G01*
X8839301Y-2095500D01*
X8902801Y-2286000D02*
G01*
X8839301Y-2222500D01*
X9347301Y-825500D02*
G01*
X9283801Y-762000D01*
X9283801Y-1016000D02*
G01*
X9347301Y-952500D01*
X9347301Y-1079500D02*
G01*
X9283801Y-1016000D01*
X9283801Y-1270000D02*
G01*
X9347301Y-1206500D01*
X9347301Y-1333500D02*
G01*
X9283801Y-1270000D01*
X9283801Y-1524000D02*
G01*
X9347301Y-1460500D01*
X9347301Y-1587500D02*
G01*
X9283801Y-1524000D01*
X9283801Y-1778000D02*
G01*
X9347301Y-1714500D01*
X9347301Y-1841500D02*
G01*
X9283801Y-1778000D01*
X9283801Y-2032000D02*
G01*
X9347301Y-1968500D01*
X9347301Y-2095500D02*
G01*
X9283801Y-2032000D01*
X9283801Y-2286000D02*
G01*
X9347301Y-2222500D01*
X3797401Y-254000D02*
G01*
X3670401Y-254000D01*
X3606901Y-190500D02*
G01*
X3670401Y-254000D01*
X3670401Y0D02*
G01*
X3606901Y-63500D01*
X3860901Y-190500D02*
G01*
X3797401Y-254000D01*
X3860901Y-63500D02*
G01*
X3860901Y-190500D01*
X3797401Y0D02*
G01*
X3860901Y-63500D01*
X3670401Y0D02*
G01*
X3797401Y0D01*
X2019401Y-254000D02*
G01*
X1892401Y-254000D01*
X1828901Y-190500D02*
G01*
X1892401Y-254000D01*
X1892401Y0D02*
G01*
X1828901Y-63500D01*
X1828901Y-63500D02*
G01*
X1828901Y-190500D01*
X2146401Y-254000D02*
G01*
X2082901Y-190500D01*
X2273401Y-254000D02*
G01*
X2146401Y-254000D01*
X2336901Y-190500D02*
G01*
X2273401Y-254000D01*
X2273401Y0D02*
G01*
X2336901Y-63500D01*
X2146401Y0D02*
G01*
X2273401Y0D01*
X2082901Y-63500D02*
G01*
X2146401Y0D01*
X2082901Y-190500D02*
G01*
X2019401Y-254000D01*
X2019401Y0D02*
G01*
X2082901Y-63500D01*
X1892401Y0D02*
G01*
X2019401Y0D01*
X2781401Y-254000D02*
G01*
X2654401Y-254000D01*
X2590901Y-190500D02*
G01*
X2654401Y-254000D01*
X2654401Y0D02*
G01*
X2590901Y-63500D01*
X2400401Y-254000D02*
G01*
X2336901Y-190500D01*
X2527401Y-254000D02*
G01*
X2400401Y-254000D01*
X2590901Y-190500D02*
G01*
X2527401Y-254000D01*
X2527401Y0D02*
G01*
X2590901Y-63500D01*
X2400401Y0D02*
G01*
X2527401Y0D01*
X2336901Y-63500D02*
G01*
X2400401Y0D01*
X2908401Y-254000D02*
G01*
X2844901Y-190500D01*
X3035401Y-254000D02*
G01*
X2908401Y-254000D01*
X3098901Y-190500D02*
G01*
X3035401Y-254000D01*
X3035401Y0D02*
G01*
X3098901Y-63500D01*
X2908401Y0D02*
G01*
X3035401Y0D01*
X2844901Y-63500D02*
G01*
X2908401Y0D01*
X2844901Y-190500D02*
G01*
X2781401Y-254000D01*
X2781401Y0D02*
G01*
X2844901Y-63500D01*
X2654401Y0D02*
G01*
X2781401Y0D01*
X3543401Y-254000D02*
G01*
X3416401Y-254000D01*
X3352901Y-190500D02*
G01*
X3416401Y-254000D01*
X3416401Y0D02*
G01*
X3352901Y-63500D01*
X3162401Y-254000D02*
G01*
X3098901Y-190500D01*
X3289401Y-254000D02*
G01*
X3162401Y-254000D01*
X3352901Y-190500D02*
G01*
X3289401Y-254000D01*
X3289401Y0D02*
G01*
X3352901Y-63500D01*
X3162401Y0D02*
G01*
X3289401Y0D01*
X3098901Y-63500D02*
G01*
X3162401Y0D01*
X3606901Y-190500D02*
G01*
X3543401Y-254000D01*
X3543401Y0D02*
G01*
X3606901Y-63500D01*
X3416401Y0D02*
G01*
X3543401Y0D01*
X5981801Y-254000D02*
G01*
X5854801Y-254000D01*
X5791301Y-190500D02*
G01*
X5854801Y-254000D01*
X5854801Y0D02*
G01*
X5791301Y-63500D01*
X6045301Y-190500D02*
G01*
X5981801Y-254000D01*
X6045301Y-63500D02*
G01*
X6045301Y-190500D01*
X5981801Y0D02*
G01*
X6045301Y-63500D01*
X5854801Y0D02*
G01*
X5981801Y0D01*
X4203801Y-254000D02*
G01*
X4076801Y-254000D01*
X4013301Y-190500D02*
G01*
X4076801Y-254000D01*
X4076801Y0D02*
G01*
X4013301Y-63500D01*
X4013301Y-63500D02*
G01*
X4013301Y-190500D01*
X4330801Y-254000D02*
G01*
X4267301Y-190500D01*
X4457801Y-254000D02*
G01*
X4330801Y-254000D01*
X4521301Y-190500D02*
G01*
X4457801Y-254000D01*
X4457801Y0D02*
G01*
X4521301Y-63500D01*
X4330801Y0D02*
G01*
X4457801Y0D01*
X4267301Y-63500D02*
G01*
X4330801Y0D01*
X4267301Y-190500D02*
G01*
X4203801Y-254000D01*
X4203801Y0D02*
G01*
X4267301Y-63500D01*
X4076801Y0D02*
G01*
X4203801Y0D01*
X4965801Y-254000D02*
G01*
X4838801Y-254000D01*
X4775301Y-190500D02*
G01*
X4838801Y-254000D01*
X4838801Y0D02*
G01*
X4775301Y-63500D01*
X4584801Y-254000D02*
G01*
X4521301Y-190500D01*
X4711801Y-254000D02*
G01*
X4584801Y-254000D01*
X4775301Y-190500D02*
G01*
X4711801Y-254000D01*
X4711801Y0D02*
G01*
X4775301Y-63500D01*
X4584801Y0D02*
G01*
X4711801Y0D01*
X4521301Y-63500D02*
G01*
X4584801Y0D01*
X5092801Y-254000D02*
G01*
X5029301Y-190500D01*
X5219801Y-254000D02*
G01*
X5092801Y-254000D01*
X5283301Y-190500D02*
G01*
X5219801Y-254000D01*
X5219801Y0D02*
G01*
X5283301Y-63500D01*
X5092801Y0D02*
G01*
X5219801Y0D01*
X5029301Y-63500D02*
G01*
X5092801Y0D01*
X5029301Y-190500D02*
G01*
X4965801Y-254000D01*
X4965801Y0D02*
G01*
X5029301Y-63500D01*
X4838801Y0D02*
G01*
X4965801Y0D01*
X5727801Y-254000D02*
G01*
X5600801Y-254000D01*
X5537301Y-190500D02*
G01*
X5600801Y-254000D01*
X5600801Y0D02*
G01*
X5537301Y-63500D01*
X5346801Y-254000D02*
G01*
X5283301Y-190500D01*
X5473801Y-254000D02*
G01*
X5346801Y-254000D01*
X5537301Y-190500D02*
G01*
X5473801Y-254000D01*
X5473801Y0D02*
G01*
X5537301Y-63500D01*
X5346801Y0D02*
G01*
X5473801Y0D01*
X5283301Y-63500D02*
G01*
X5346801Y0D01*
X5791301Y-190500D02*
G01*
X5727801Y-254000D01*
X5727801Y0D02*
G01*
X5791301Y-63500D01*
X5600801Y0D02*
G01*
X5727801Y0D01*
X6489801Y-5080000D02*
G01*
X6362801Y-5080000D01*
X6299301Y-5016500D02*
G01*
X6362801Y-5080000D01*
X6362801Y-4826000D02*
G01*
X6299301Y-4889500D01*
X6553301Y-5016500D02*
G01*
X6489801Y-5080000D01*
X6553301Y-4889500D02*
G01*
X6553301Y-5016500D01*
X6489801Y-4826000D02*
G01*
X6553301Y-4889500D01*
X6362801Y-4826000D02*
G01*
X6489801Y-4826000D01*
X4711801Y-5080000D02*
G01*
X4584801Y-5080000D01*
X4521301Y-5016500D02*
G01*
X4584801Y-5080000D01*
X4584801Y-4826000D02*
G01*
X4521301Y-4889500D01*
X4521301Y-4889500D02*
G01*
X4521301Y-5016500D01*
X4838801Y-5080000D02*
G01*
X4775301Y-5016500D01*
X4965801Y-5080000D02*
G01*
X4838801Y-5080000D01*
X5029301Y-5016500D02*
G01*
X4965801Y-5080000D01*
X4965801Y-4826000D02*
G01*
X5029301Y-4889500D01*
X4838801Y-4826000D02*
G01*
X4965801Y-4826000D01*
X4775301Y-4889500D02*
G01*
X4838801Y-4826000D01*
X4775301Y-5016500D02*
G01*
X4711801Y-5080000D01*
X4711801Y-4826000D02*
G01*
X4775301Y-4889500D01*
X4584801Y-4826000D02*
G01*
X4711801Y-4826000D01*
X5473801Y-5080000D02*
G01*
X5346801Y-5080000D01*
X5283301Y-5016500D02*
G01*
X5346801Y-5080000D01*
X5346801Y-4826000D02*
G01*
X5283301Y-4889500D01*
X5092801Y-5080000D02*
G01*
X5029301Y-5016500D01*
X5219801Y-5080000D02*
G01*
X5092801Y-5080000D01*
X5283301Y-5016500D02*
G01*
X5219801Y-5080000D01*
X5219801Y-4826000D02*
G01*
X5283301Y-4889500D01*
X5092801Y-4826000D02*
G01*
X5219801Y-4826000D01*
X5029301Y-4889500D02*
G01*
X5092801Y-4826000D01*
X5600801Y-5080000D02*
G01*
X5537301Y-5016500D01*
X5727801Y-5080000D02*
G01*
X5600801Y-5080000D01*
X5791301Y-5016500D02*
G01*
X5727801Y-5080000D01*
X5727801Y-4826000D02*
G01*
X5791301Y-4889500D01*
X5600801Y-4826000D02*
G01*
X5727801Y-4826000D01*
X5537301Y-4889500D02*
G01*
X5600801Y-4826000D01*
X5537301Y-5016500D02*
G01*
X5473801Y-5080000D01*
X5473801Y-4826000D02*
G01*
X5537301Y-4889500D01*
X5346801Y-4826000D02*
G01*
X5473801Y-4826000D01*
X6235801Y-5080000D02*
G01*
X6108801Y-5080000D01*
X6045301Y-5016500D02*
G01*
X6108801Y-5080000D01*
X6108801Y-4826000D02*
G01*
X6045301Y-4889500D01*
X5854801Y-5080000D02*
G01*
X5791301Y-5016500D01*
X5981801Y-5080000D02*
G01*
X5854801Y-5080000D01*
X6045301Y-5016500D02*
G01*
X5981801Y-5080000D01*
X5981801Y-4826000D02*
G01*
X6045301Y-4889500D01*
X5854801Y-4826000D02*
G01*
X5981801Y-4826000D01*
X5791301Y-4889500D02*
G01*
X5854801Y-4826000D01*
X6299301Y-5016500D02*
G01*
X6235801Y-5080000D01*
X6235801Y-4826000D02*
G01*
X6299301Y-4889500D01*
X6108801Y-4826000D02*
G01*
X6235801Y-4826000D01*
X8267801Y-254000D02*
G01*
X8140801Y-254000D01*
X8077301Y-190500D02*
G01*
X8140801Y-254000D01*
X8140801Y0D02*
G01*
X8077301Y-63500D01*
X8331301Y-190500D02*
G01*
X8267801Y-254000D01*
X8331301Y-63500D02*
G01*
X8331301Y-190500D01*
X8267801Y0D02*
G01*
X8331301Y-63500D01*
X8140801Y0D02*
G01*
X8267801Y0D01*
X6489801Y-254000D02*
G01*
X6362801Y-254000D01*
X6299301Y-190500D02*
G01*
X6362801Y-254000D01*
X6362801Y0D02*
G01*
X6299301Y-63500D01*
X6299301Y-63500D02*
G01*
X6299301Y-190500D01*
X6616801Y-254000D02*
G01*
X6553301Y-190500D01*
X6743801Y-254000D02*
G01*
X6616801Y-254000D01*
X6807301Y-190500D02*
G01*
X6743801Y-254000D01*
X6743801Y0D02*
G01*
X6807301Y-63500D01*
X6616801Y0D02*
G01*
X6743801Y0D01*
X6553301Y-63500D02*
G01*
X6616801Y0D01*
X6553301Y-190500D02*
G01*
X6489801Y-254000D01*
X6489801Y0D02*
G01*
X6553301Y-63500D01*
X6362801Y0D02*
G01*
X6489801Y0D01*
X7251801Y-254000D02*
G01*
X7124801Y-254000D01*
X7061301Y-190500D02*
G01*
X7124801Y-254000D01*
X7124801Y0D02*
G01*
X7061301Y-63500D01*
X6870801Y-254000D02*
G01*
X6807301Y-190500D01*
X6997801Y-254000D02*
G01*
X6870801Y-254000D01*
X7061301Y-190500D02*
G01*
X6997801Y-254000D01*
X6997801Y0D02*
G01*
X7061301Y-63500D01*
X6870801Y0D02*
G01*
X6997801Y0D01*
X6807301Y-63500D02*
G01*
X6870801Y0D01*
X7378801Y-254000D02*
G01*
X7315301Y-190500D01*
X7505801Y-254000D02*
G01*
X7378801Y-254000D01*
X7569301Y-190500D02*
G01*
X7505801Y-254000D01*
X7505801Y0D02*
G01*
X7569301Y-63500D01*
X7378801Y0D02*
G01*
X7505801Y0D01*
X7315301Y-63500D02*
G01*
X7378801Y0D01*
X7315301Y-190500D02*
G01*
X7251801Y-254000D01*
X7251801Y0D02*
G01*
X7315301Y-63500D01*
X7124801Y0D02*
G01*
X7251801Y0D01*
X8013801Y-254000D02*
G01*
X7886801Y-254000D01*
X7823301Y-190500D02*
G01*
X7886801Y-254000D01*
X7886801Y0D02*
G01*
X7823301Y-63500D01*
X7632801Y-254000D02*
G01*
X7569301Y-190500D01*
X7759801Y-254000D02*
G01*
X7632801Y-254000D01*
X7823301Y-190500D02*
G01*
X7759801Y-254000D01*
X7759801Y0D02*
G01*
X7823301Y-63500D01*
X7632801Y0D02*
G01*
X7759801Y0D01*
X7569301Y-63500D02*
G01*
X7632801Y0D01*
X8077301Y-190500D02*
G01*
X8013801Y-254000D01*
X8013801Y0D02*
G01*
X8077301Y-63500D01*
X7886801Y0D02*
G01*
X8013801Y0D01*
X8775801Y-5080000D02*
G01*
X8648801Y-5080000D01*
X8585301Y-5016500D02*
G01*
X8648801Y-5080000D01*
X8648801Y-4826000D02*
G01*
X8585301Y-4889500D01*
X8839301Y-5016500D02*
G01*
X8775801Y-5080000D01*
X8839301Y-4889500D02*
G01*
X8839301Y-5016500D01*
X8775801Y-4826000D02*
G01*
X8839301Y-4889500D01*
X8648801Y-4826000D02*
G01*
X8775801Y-4826000D01*
X6997801Y-5080000D02*
G01*
X6870801Y-5080000D01*
X6807301Y-5016500D02*
G01*
X6870801Y-5080000D01*
X6870801Y-4826000D02*
G01*
X6807301Y-4889500D01*
X6807301Y-4889500D02*
G01*
X6807301Y-5016500D01*
X7124801Y-5080000D02*
G01*
X7061301Y-5016500D01*
X7251801Y-5080000D02*
G01*
X7124801Y-5080000D01*
X7315301Y-5016500D02*
G01*
X7251801Y-5080000D01*
X7251801Y-4826000D02*
G01*
X7315301Y-4889500D01*
X7124801Y-4826000D02*
G01*
X7251801Y-4826000D01*
X7061301Y-4889500D02*
G01*
X7124801Y-4826000D01*
X7061301Y-5016500D02*
G01*
X6997801Y-5080000D01*
X6997801Y-4826000D02*
G01*
X7061301Y-4889500D01*
X6870801Y-4826000D02*
G01*
X6997801Y-4826000D01*
X7759801Y-5080000D02*
G01*
X7632801Y-5080000D01*
X7569301Y-5016500D02*
G01*
X7632801Y-5080000D01*
X7632801Y-4826000D02*
G01*
X7569301Y-4889500D01*
X7378801Y-5080000D02*
G01*
X7315301Y-5016500D01*
X7505801Y-5080000D02*
G01*
X7378801Y-5080000D01*
X7569301Y-5016500D02*
G01*
X7505801Y-5080000D01*
X7505801Y-4826000D02*
G01*
X7569301Y-4889500D01*
X7378801Y-4826000D02*
G01*
X7505801Y-4826000D01*
X7315301Y-4889500D02*
G01*
X7378801Y-4826000D01*
X7886801Y-5080000D02*
G01*
X7823301Y-5016500D01*
X8013801Y-5080000D02*
G01*
X7886801Y-5080000D01*
X8077301Y-5016500D02*
G01*
X8013801Y-5080000D01*
X8013801Y-4826000D02*
G01*
X8077301Y-4889500D01*
X7886801Y-4826000D02*
G01*
X8013801Y-4826000D01*
X7823301Y-4889500D02*
G01*
X7886801Y-4826000D01*
X7823301Y-5016500D02*
G01*
X7759801Y-5080000D01*
X7759801Y-4826000D02*
G01*
X7823301Y-4889500D01*
X7632801Y-4826000D02*
G01*
X7759801Y-4826000D01*
X8521801Y-5080000D02*
G01*
X8394801Y-5080000D01*
X8331301Y-5016500D02*
G01*
X8394801Y-5080000D01*
X8394801Y-4826000D02*
G01*
X8331301Y-4889500D01*
X8140801Y-5080000D02*
G01*
X8077301Y-5016500D01*
X8267801Y-5080000D02*
G01*
X8140801Y-5080000D01*
X8331301Y-5016500D02*
G01*
X8267801Y-5080000D01*
X8267801Y-4826000D02*
G01*
X8331301Y-4889500D01*
X8140801Y-4826000D02*
G01*
X8267801Y-4826000D01*
X8077301Y-4889500D02*
G01*
X8140801Y-4826000D01*
X8585301Y-5016500D02*
G01*
X8521801Y-5080000D01*
X8521801Y-4826000D02*
G01*
X8585301Y-4889500D01*
X8394801Y-4826000D02*
G01*
X8521801Y-4826000D01*
X13016204Y-6073592D02*
G01*
X12028197Y-6073592D01*
X13022196Y-5566608D02*
G01*
X12022206Y-5566608D01*
X13022196Y-6313594D02*
G01*
X12022206Y-6313594D01*
X13022196Y-5513600D02*
G01*
X12022206Y-5513600D01*
X12022206Y-6313594D02*
G01*
X12022206Y-5513600D01*
X13022196Y-6313594D02*
G01*
X13022196Y-5513600D01*
X12030194Y-6653608D02*
G01*
X13018203Y-6653608D01*
X12024205Y-7160590D02*
G01*
X13024205Y-7160590D01*
X12024205Y-6413604D02*
G01*
X13024205Y-6413604D01*
X12024205Y-7213600D02*
G01*
X13024205Y-7213600D01*
X13024205Y-6413604D02*
G01*
X13024205Y-7213600D01*
X12024205Y-6413604D02*
G01*
X12024205Y-7213600D01*
X9728200Y-7113523D02*
G01*
X9728200Y-7113523D01*
X9728200Y-7113523D01*
X9728200Y-5513578D01*
X13028168Y-5513578D01*
X13028168Y-7213600D01*
X9728200Y-7213600D01*
X9728200Y-7113523D01*
X10038206Y-5813602D02*
G01*
X10292206Y-5813602D01*
X10292206Y-6913600D01*
X10038206Y-6913600D01*
X10038206Y-5813602D01*
X9728200Y-5813602D02*
G01*
X10040213Y-5813602D01*
X10040213Y-6913600D01*
X9728200Y-6913600D01*
X9728200Y-5813602D01*
X10038206Y-6358585D02*
G01*
X10278211Y-6358585D01*
X10278211Y-6368592D01*
X10038206Y-6368592D01*
X10038206Y-6358585D01*
D24*
G75*
G01*
X711200Y-1169802D02*
G03*
X712810Y-1169802I805J-658998D01*
D23*
G75*
G01
X10182098Y708203D02*
G03X10182098Y708203I-199898J0D01*
G75*
G01
X10690098Y708203D02*
G03X10690098Y708203I-199898J0D01*
G75*
G01
X10688091Y1808201D02*
G03X10688091Y1808201I-199898J0D01*
G75*
G01
X10180091Y1808201D02*
G03X10180091Y1808201I-199898J0D01*
G75*
G01
X403098Y-2895600D02*
G03X403098Y-2895600I-199898J0D01*
G75*
G01
X403098Y-3403600D02*
G03X403098Y-3403600I-199898J0D01*
G75*
G01
X12976098Y-5813603D02*
G03X12976098Y-5813603I-199898J0D01*
G75*
G01
X12468098Y-5813603D02*
G03X12468098Y-5813603I-199898J0D01*
G75*
G01
X12470105Y-6913601D02*
G03X12470105Y-6913601I-199898J0D01*
G75*
G01
X12978105Y-6913601D02*
G03X12978105Y-6913601I-199898J0D01*
M02*
