M48
METRIC,LZ,000.000
;FILE_FORMAT=3:3
;TYPE=PLATED
;Layer: Drill PTH
;EasyEDA v6.4.17, 2021-03-24T16:23:22--3:00
;5452c1f5e71c41299ba0e0f227da57fd,59636247558045d2802cba280e4ac9d9,10
;Gerber Generator version 0.2
;Holesize 1 = 1.000 mm
T01C1.000
%
G05
G90
T01
X021590Y-013970
X021590Y-016510
X021590Y-019050
X021590Y-021590
X021590Y-024130
X021590Y-026670
X021590Y-029210
X021590Y-031750
X021590Y-034290
X021590Y-036830
X032004Y-013970
X032004Y-016510
X032004Y-019050
X032004Y-021590
X032004Y-024130
X032004Y-026670
X032004Y-029210
X032004Y-031750
X032004Y-034290
X032004Y-036830
X078994Y-013970
X078994Y-016510
X078994Y-019050
X078994Y-021590
X078994Y-024130
X078994Y-026670
X078994Y-029210
X078994Y-031750
X078994Y-034290
X078994Y-036830
X028194Y-013970
X028194Y-016510
X028194Y-019050
X028194Y-021590
X028194Y-024130
X028194Y-026670
X028194Y-029210
X028194Y-031750
X028194Y-034290
X028194Y-036830
X017526Y-013970
X017526Y-016510
X017526Y-019050
X017526Y-021590
X017526Y-024130
X017526Y-026670
X017526Y-029210
X017526Y-031750
X017526Y-034290
X017526Y-036830
X041402Y-053594
X038862Y-053594
X036322Y-053594
X033782Y-053594
X023622Y-053594
X026162Y-053594
X028702Y-053594
X031242Y-053594
X064262Y-053340
X061722Y-053340
X059182Y-053340
X056642Y-053340
X046482Y-053340
X049022Y-053340
X051562Y-053340
X054102Y-053340
X037338Y002540
X034798Y002540
X032258Y002540
X029718Y002540
X027178Y002540
X024638Y002540
X022098Y002540
X019558Y002540
X017018Y002540
X014478Y002540
X041402Y002540
X043942Y002540
X046482Y002540
X049022Y002540
X059182Y002540
X056642Y002540
X054102Y002540
X051562Y002540
X064262Y002540
X066802Y002540
X069342Y002540
X071882Y002540
X082042Y002540
X079502Y002540
X076962Y002540
X074422Y002540
X125902Y016402
X125902Y013862
X125902Y011322
X125902Y008782
X128702Y015132
X128702Y010132
X099822Y007082
X104902Y007082
X104882Y018082
X099802Y018082
X002032Y-028956
X002032Y-034036
X049022Y-026670
X054102Y-026670
X049022Y-021590
X054102Y-021590
X049022Y-034290
X051562Y-034290
X054102Y-034290
X049022Y-013462
X051562Y-013462
X054102Y-013462
X149352Y-066548
X151892Y-066548
X154432Y-066548
X164592Y-066548
X167132Y-066548
X169672Y-066548
X149352Y015494
X151892Y015494
X154432Y015494
X164592Y015494
X167132Y015494
X169672Y015494
X007112Y-020788
X007112Y-015787
X154432Y-060452
X149352Y-060452
X169672Y-060960
X164592Y-060960
X154432Y010160
X149352Y010160
X169672Y010160
X164592Y010160
X133858Y-035560
X138938Y-035560
X133858Y-042164
X138938Y-042164
X159512Y-035560
X164592Y-035560
X159512Y-042164
X164592Y-042164
X133858Y-029210
X138938Y-029210
X113284Y-041910
X108204Y-041910
X159512Y-029210
X164592Y-029210
X087122Y-053340
X084582Y-053340
X082042Y-053340
X079502Y-053340
X069342Y-053340
X071882Y-053340
X074422Y-053340
X076962Y-053340
X121158Y-000127
X118618Y-000127
X116078Y-000127
X113538Y-000127
X110998Y-000127
X108458Y-000127
X105918Y-000127
X103378Y-000127
X100838Y-000127
X121158Y-050546
X118618Y-050546
X116078Y-050546
X113538Y-050546
X110998Y-050546
X108458Y-050546
X105918Y-050546
X103378Y-050546
X100838Y-050546
X146557Y-000127
X144017Y-000127
X141477Y-000127
X138937Y-000127
X136397Y-000127
X133857Y-000127
X131317Y-000127
X128777Y-000127
X126237Y-000127
X146557Y-050546
X144017Y-050546
X141477Y-050546
X138937Y-050546
X136397Y-050546
X133857Y-050546
X131317Y-050546
X128777Y-050546
X126237Y-050546
X151891Y-050546
X154431Y-050546
X156971Y-050546
X159511Y-050546
X162051Y-050546
X164591Y-050546
X167131Y-050546
X169671Y-050546
X172211Y-050546
X151891Y-000127
X154431Y-000127
X156971Y-000127
X159511Y-000127
X162051Y-000127
X164591Y-000127
X167131Y-000127
X169671Y-000127
X172211Y-000127
X041403Y-049530
X038863Y-049530
X036323Y-049530
X033783Y-049530
X031243Y-049530
X028703Y-049530
X092203Y-001270
X089663Y-001270
X092203Y-044450
X089663Y-044450
X089663Y-024130
X092203Y-024130
X089663Y-026670
X092203Y-026670
X089663Y-029210
X092203Y-029210
X089663Y-031750
X092203Y-031750
X089663Y-034290
X092203Y-034290
X089663Y-036830
X092203Y-036830
X089663Y-039370
X092203Y-039370
X089663Y-041910
X092203Y-041910
X089663Y-003810
X092203Y-003810
X089663Y-006350
X092203Y-006350
X089663Y-008890
X092203Y-008890
X089663Y-011430
X092203Y-011430
X089663Y-013970
X092203Y-013970
X089663Y-016510
X092203Y-016510
X089663Y-019050
X092203Y-019050
X089663Y-021590
X092203Y-021590
X019559Y-001270
X037339Y-001270
X034799Y-001270
X032259Y-001270
X029719Y-001270
X027179Y-001270
X024639Y-001270
X022099Y-001270
X041403Y-001270
X059183Y-001270
X056643Y-001270
X054103Y-001270
X051563Y-001270
X049023Y-001270
X046483Y-001270
X043943Y-001270
X046483Y-049530
X064263Y-049530
X061723Y-049530
X059183Y-049530
X056643Y-049530
X054103Y-049530
X051563Y-049530
X049023Y-049530
X064263Y-001270
X082043Y-001270
X079503Y-001270
X076963Y-001270
X074423Y-001270
X071883Y-001270
X069343Y-001270
X066803Y-001270
X069343Y-049530
X087123Y-049530
X084583Y-049530
X082043Y-049530
X079503Y-049530
X076963Y-049530
X074423Y-049530
X071883Y-049530
X026163Y-049530
X101682Y-067456
X101682Y-064916
X101682Y-062376
X101682Y-059836
X098882Y-066186
X098882Y-061186
X127762Y-058136
X122682Y-058136
X122702Y-069136
X127782Y-069136
M30
