G04 Layer: BottomSolderMaskLayer*
G04 EasyEDA v6.4.17, 2021-03-24T16:23:22--3:00*
G04 5452c1f5e71c41299ba0e0f227da57fd,59636247558045d2802cba280e4ac9d9,10*
G04 Gerber Generator version 0.2*
G04 Scale: 100 percent, Rotated: No, Reflected: No *
G04 Dimensions in millimeters *
G04 leading zeros omitted , absolute positions ,4 integer and 5 decimal *
%FSLAX45Y45*%
%MOMM*%

%ADD27C,2.2032*%
%ADD29C,3.2032*%
%ADD32C,2.6032*%

%LPD*%
D27*
G01*
X2159000Y-1397000D03*
G01*
X2159000Y-1651000D03*
G01*
X2159000Y-1905000D03*
G01*
X2159000Y-2159000D03*
G01*
X2159000Y-2413000D03*
G01*
X2159000Y-2667000D03*
G01*
X2159000Y-2921000D03*
G01*
X2159000Y-3175000D03*
G01*
X2159000Y-3429000D03*
G36*
X2048763Y-3793236D02*
G01*
X2048763Y-3572763D01*
X2269236Y-3572763D01*
X2269236Y-3793236D01*
G37*
G01*
X3200400Y-1397000D03*
G01*
X3200400Y-1651000D03*
G01*
X3200400Y-1905000D03*
G01*
X3200400Y-2159000D03*
G01*
X3200400Y-2413000D03*
G01*
X3200400Y-2667000D03*
G01*
X3200400Y-2921000D03*
G01*
X3200400Y-3175000D03*
G01*
X3200400Y-3429000D03*
G36*
X3090163Y-3793236D02*
G01*
X3090163Y-3572763D01*
X3310636Y-3572763D01*
X3310636Y-3793236D01*
G37*
G01*
X7899400Y-1397000D03*
G01*
X7899400Y-1651000D03*
G01*
X7899400Y-1905000D03*
G01*
X7899400Y-2159000D03*
G01*
X7899400Y-2413000D03*
G01*
X7899400Y-2667000D03*
G01*
X7899400Y-2921000D03*
G01*
X7899400Y-3175000D03*
G01*
X7899400Y-3429000D03*
G36*
X7789163Y-3793236D02*
G01*
X7789163Y-3572763D01*
X8009636Y-3572763D01*
X8009636Y-3793236D01*
G37*
G01*
X2819400Y-1397000D03*
G01*
X2819400Y-1651000D03*
G01*
X2819400Y-1905000D03*
G01*
X2819400Y-2159000D03*
G01*
X2819400Y-2413000D03*
G01*
X2819400Y-2667000D03*
G01*
X2819400Y-2921000D03*
G01*
X2819400Y-3175000D03*
G01*
X2819400Y-3429000D03*
G36*
X2709163Y-3793236D02*
G01*
X2709163Y-3572763D01*
X2929636Y-3572763D01*
X2929636Y-3793236D01*
G37*
G01*
X1752600Y-1397000D03*
G01*
X1752600Y-1651000D03*
G01*
X1752600Y-1905000D03*
G01*
X1752600Y-2159000D03*
G01*
X1752600Y-2413000D03*
G01*
X1752600Y-2667000D03*
G01*
X1752600Y-2921000D03*
G01*
X1752600Y-3175000D03*
G01*
X1752600Y-3429000D03*
G36*
X1642363Y-3793236D02*
G01*
X1642363Y-3572763D01*
X1862836Y-3572763D01*
X1862836Y-3793236D01*
G37*
G36*
X4029963Y-5469636D02*
G01*
X4029963Y-5249163D01*
X4250436Y-5249163D01*
X4250436Y-5469636D01*
G37*
G01*
X3886200Y-5359400D03*
G01*
X3632200Y-5359400D03*
G01*
X3378200Y-5359400D03*
G01*
X2362200Y-5359400D03*
G01*
X2616200Y-5359400D03*
G01*
X2870200Y-5359400D03*
G01*
X3124200Y-5359400D03*
G36*
X6315963Y-5444236D02*
G01*
X6315963Y-5223763D01*
X6536436Y-5223763D01*
X6536436Y-5444236D01*
G37*
G01*
X6172200Y-5334000D03*
G01*
X5918200Y-5334000D03*
G01*
X5664200Y-5334000D03*
G01*
X4648200Y-5334000D03*
G01*
X4902200Y-5334000D03*
G01*
X5156200Y-5334000D03*
G01*
X5410200Y-5334000D03*
G01*
X3733800Y254000D03*
G01*
X3479800Y254000D03*
G01*
X3225800Y254000D03*
G01*
X2971800Y254000D03*
G01*
X2717800Y254000D03*
G01*
X2463800Y254000D03*
G01*
X2209800Y254000D03*
G01*
X1955800Y254000D03*
G01*
X1701800Y254000D03*
G36*
X1337563Y143763D02*
G01*
X1337563Y364236D01*
X1558036Y364236D01*
X1558036Y143763D01*
G37*
G36*
X4029963Y143763D02*
G01*
X4029963Y364236D01*
X4250436Y364236D01*
X4250436Y143763D01*
G37*
G01*
X4394200Y254000D03*
G01*
X4648200Y254000D03*
G01*
X4902200Y254000D03*
G01*
X5918200Y254000D03*
G01*
X5664200Y254000D03*
G01*
X5410200Y254000D03*
G01*
X5156200Y254000D03*
G36*
X6315963Y143763D02*
G01*
X6315963Y364236D01*
X6536436Y364236D01*
X6536436Y143763D01*
G37*
G01*
X6680200Y254000D03*
G01*
X6934200Y254000D03*
G01*
X7188200Y254000D03*
G01*
X8204200Y254000D03*
G01*
X7950200Y254000D03*
G01*
X7696200Y254000D03*
G01*
X7442200Y254000D03*
G01*
X12590195Y1640204D03*
G01*
X12590195Y1386204D03*
G01*
X12590195Y1132204D03*
G01*
X12590195Y878204D03*
G01*
X12870205Y1513204D03*
G01*
X12870205Y1013205D03*
D29*
G01*
X9982200Y708202D03*
G01*
X10490200Y708202D03*
G01*
X10488193Y1808200D03*
G01*
X9980193Y1808200D03*
G01*
X203200Y-2895600D03*
G01*
X203200Y-3403600D03*
D27*
G01*
X4902200Y-2667000D03*
G01*
X5410200Y-2667000D03*
G01*
X4902200Y-2159000D03*
G01*
X5410200Y-2159000D03*
G36*
X4790440Y-3539236D02*
G01*
X4790440Y-3318763D01*
X5013959Y-3318763D01*
X5013959Y-3539236D01*
G37*
G01*
X5156200Y-3429000D03*
G01*
X5410200Y-3429000D03*
G36*
X4791963Y-1456436D02*
G01*
X4791963Y-1235963D01*
X5012436Y-1235963D01*
X5012436Y-1456436D01*
G37*
G01*
X5156200Y-1346200D03*
G01*
X5410200Y-1346200D03*
G36*
X14824963Y-6765036D02*
G01*
X14824963Y-6544563D01*
X15045436Y-6544563D01*
X15045436Y-6765036D01*
G37*
G01*
X15189200Y-6654800D03*
G01*
X15443200Y-6654800D03*
G36*
X16348963Y-6765036D02*
G01*
X16348963Y-6544563D01*
X16569436Y-6544563D01*
X16569436Y-6765036D01*
G37*
G01*
X16713200Y-6654800D03*
G01*
X16967200Y-6654800D03*
G36*
X14824963Y1439163D02*
G01*
X14824963Y1659636D01*
X15045436Y1659636D01*
X15045436Y1439163D01*
G37*
G01*
X15189200Y1549400D03*
G01*
X15443200Y1549400D03*
G36*
X16348963Y1439163D02*
G01*
X16348963Y1659636D01*
X16569436Y1659636D01*
X16569436Y1439163D01*
G37*
G01*
X16713200Y1549400D03*
G01*
X16967200Y1549400D03*
G36*
X581152Y-2209037D02*
G01*
X581152Y-1948687D01*
X841247Y-1948687D01*
X841247Y-2209037D01*
G37*
D32*
G01*
X711200Y-1578813D03*
D27*
G01*
X15443200Y-6045200D03*
G01*
X14935200Y-6045200D03*
G01*
X16967200Y-6096000D03*
G01*
X16459200Y-6096000D03*
G01*
X15443200Y1016000D03*
G01*
X14935200Y1016000D03*
G01*
X16967200Y1016000D03*
G01*
X16459200Y1016000D03*
G01*
X13385800Y-3556000D03*
G01*
X13893800Y-3556000D03*
G01*
X13385800Y-4216400D03*
G01*
X13893800Y-4216400D03*
G01*
X15951200Y-3556000D03*
G01*
X16459200Y-3556000D03*
G01*
X15951200Y-4216400D03*
G01*
X16459200Y-4216400D03*
G01*
X13385800Y-2921000D03*
G01*
X13893800Y-2921000D03*
G01*
X11328400Y-4191000D03*
G01*
X10820400Y-4191000D03*
G01*
X15951200Y-2921000D03*
G01*
X16459200Y-2921000D03*
G36*
X8601963Y-5444236D02*
G01*
X8601963Y-5223763D01*
X8822436Y-5223763D01*
X8822436Y-5444236D01*
G37*
G01*
X8458200Y-5334000D03*
G01*
X8204200Y-5334000D03*
G01*
X7950200Y-5334000D03*
G01*
X6934200Y-5334000D03*
G01*
X7188200Y-5334000D03*
G01*
X7442200Y-5334000D03*
G01*
X7696200Y-5334000D03*
G36*
X12005563Y-122936D02*
G01*
X12005563Y97536D01*
X12226036Y97536D01*
X12226036Y-122936D01*
G37*
G01*
X11861800Y-12725D03*
G01*
X11607800Y-12725D03*
G01*
X11353800Y-12725D03*
G01*
X11099800Y-12725D03*
G01*
X10845800Y-12725D03*
G01*
X10591800Y-12725D03*
G01*
X10337800Y-12725D03*
G01*
X10083800Y-12725D03*
G36*
X12005563Y-5164836D02*
G01*
X12005563Y-4944363D01*
X12226036Y-4944363D01*
X12226036Y-5164836D01*
G37*
G01*
X11861800Y-5054625D03*
G01*
X11607800Y-5054625D03*
G01*
X11353800Y-5054625D03*
G01*
X11099800Y-5054625D03*
G01*
X10845800Y-5054625D03*
G01*
X10591800Y-5054625D03*
G01*
X10337800Y-5054625D03*
G01*
X10083800Y-5054625D03*
G36*
X14545563Y-122936D02*
G01*
X14545563Y97536D01*
X14765781Y97536D01*
X14765781Y-122936D01*
G37*
G01*
X14401698Y-12725D03*
G01*
X14147698Y-12725D03*
G01*
X13893698Y-12725D03*
G01*
X13639698Y-12725D03*
G01*
X13385698Y-12725D03*
G01*
X13131698Y-12725D03*
G01*
X12877698Y-12725D03*
G01*
X12623698Y-12725D03*
G36*
X14545563Y-5164836D02*
G01*
X14545563Y-4944363D01*
X14765781Y-4944363D01*
X14765781Y-5164836D01*
G37*
G01*
X14401698Y-5054625D03*
G01*
X14147698Y-5054625D03*
G01*
X13893698Y-5054625D03*
G01*
X13639698Y-5054625D03*
G01*
X13385698Y-5054625D03*
G01*
X13131698Y-5054625D03*
G01*
X12877698Y-5054625D03*
G01*
X12623698Y-5054625D03*
G36*
X15078963Y-5164836D02*
G01*
X15078963Y-4944363D01*
X15299181Y-4944363D01*
X15299181Y-5164836D01*
G37*
G01*
X15443123Y-5054600D03*
G01*
X15697123Y-5054600D03*
G01*
X15951123Y-5054600D03*
G01*
X16205123Y-5054600D03*
G01*
X16459123Y-5054600D03*
G01*
X16713123Y-5054600D03*
G01*
X16967123Y-5054600D03*
G01*
X17221123Y-5054600D03*
G36*
X15078963Y-122936D02*
G01*
X15078963Y97536D01*
X15299181Y97536D01*
X15299181Y-122936D01*
G37*
G01*
X15443123Y-12700D03*
G01*
X15697123Y-12700D03*
G01*
X15951123Y-12700D03*
G01*
X16205123Y-12700D03*
G01*
X16459123Y-12700D03*
G01*
X16713123Y-12700D03*
G01*
X16967123Y-12700D03*
G01*
X17221123Y-12700D03*
G01*
X4140301Y-4953000D03*
G01*
X3886301Y-4953000D03*
G01*
X3632301Y-4953000D03*
G01*
X3378301Y-4953000D03*
G01*
X3124301Y-4953000D03*
G01*
X2870301Y-4953000D03*
G01*
X9220301Y-127000D03*
G01*
X8966301Y-127000D03*
G01*
X9220301Y-4445000D03*
G01*
X8966301Y-4445000D03*
G36*
X8856218Y-2523236D02*
G01*
X8856218Y-2302763D01*
X9076436Y-2302763D01*
X9076436Y-2523236D01*
G37*
G36*
X9110218Y-2523236D02*
G01*
X9110218Y-2302763D01*
X9330436Y-2302763D01*
X9330436Y-2523236D01*
G37*
G36*
X8856218Y-2777236D02*
G01*
X8856218Y-2556763D01*
X9076436Y-2556763D01*
X9076436Y-2777236D01*
G37*
G36*
X9110218Y-2777236D02*
G01*
X9110218Y-2556763D01*
X9330436Y-2556763D01*
X9330436Y-2777236D01*
G37*
G36*
X8856218Y-3031236D02*
G01*
X8856218Y-2810763D01*
X9076436Y-2810763D01*
X9076436Y-3031236D01*
G37*
G36*
X9110218Y-3031236D02*
G01*
X9110218Y-2810763D01*
X9330436Y-2810763D01*
X9330436Y-3031236D01*
G37*
G36*
X8856218Y-3285236D02*
G01*
X8856218Y-3064763D01*
X9076436Y-3064763D01*
X9076436Y-3285236D01*
G37*
G36*
X9110218Y-3285236D02*
G01*
X9110218Y-3064763D01*
X9330436Y-3064763D01*
X9330436Y-3285236D01*
G37*
G36*
X8856218Y-3539236D02*
G01*
X8856218Y-3318763D01*
X9076436Y-3318763D01*
X9076436Y-3539236D01*
G37*
G36*
X9110218Y-3539236D02*
G01*
X9110218Y-3318763D01*
X9330436Y-3318763D01*
X9330436Y-3539236D01*
G37*
G36*
X8856218Y-3793236D02*
G01*
X8856218Y-3572763D01*
X9076436Y-3572763D01*
X9076436Y-3793236D01*
G37*
G36*
X9110218Y-3793236D02*
G01*
X9110218Y-3572763D01*
X9330436Y-3572763D01*
X9330436Y-3793236D01*
G37*
G36*
X8856218Y-4047236D02*
G01*
X8856218Y-3826763D01*
X9076436Y-3826763D01*
X9076436Y-4047236D01*
G37*
G36*
X9110218Y-4047236D02*
G01*
X9110218Y-3826763D01*
X9330436Y-3826763D01*
X9330436Y-4047236D01*
G37*
G36*
X8856218Y-4301236D02*
G01*
X8856218Y-4080763D01*
X9076436Y-4080763D01*
X9076436Y-4301236D01*
G37*
G36*
X9110218Y-4301236D02*
G01*
X9110218Y-4080763D01*
X9330436Y-4080763D01*
X9330436Y-4301236D01*
G37*
G36*
X8856218Y-491236D02*
G01*
X8856218Y-270763D01*
X9076436Y-270763D01*
X9076436Y-491236D01*
G37*
G36*
X9110218Y-491236D02*
G01*
X9110218Y-270763D01*
X9330436Y-270763D01*
X9330436Y-491236D01*
G37*
G36*
X8856218Y-745236D02*
G01*
X8856218Y-524763D01*
X9076436Y-524763D01*
X9076436Y-745236D01*
G37*
G36*
X9110218Y-745236D02*
G01*
X9110218Y-524763D01*
X9330436Y-524763D01*
X9330436Y-745236D01*
G37*
G36*
X8856218Y-999236D02*
G01*
X8856218Y-778763D01*
X9076436Y-778763D01*
X9076436Y-999236D01*
G37*
G36*
X9110218Y-999236D02*
G01*
X9110218Y-778763D01*
X9330436Y-778763D01*
X9330436Y-999236D01*
G37*
G36*
X8856218Y-1253236D02*
G01*
X8856218Y-1032763D01*
X9076436Y-1032763D01*
X9076436Y-1253236D01*
G37*
G36*
X9110218Y-1253236D02*
G01*
X9110218Y-1032763D01*
X9330436Y-1032763D01*
X9330436Y-1253236D01*
G37*
G36*
X8856218Y-1507236D02*
G01*
X8856218Y-1286763D01*
X9076436Y-1286763D01*
X9076436Y-1507236D01*
G37*
G36*
X9110218Y-1507236D02*
G01*
X9110218Y-1286763D01*
X9330436Y-1286763D01*
X9330436Y-1507236D01*
G37*
G36*
X8856218Y-1761236D02*
G01*
X8856218Y-1540763D01*
X9076436Y-1540763D01*
X9076436Y-1761236D01*
G37*
G36*
X9110218Y-1761236D02*
G01*
X9110218Y-1540763D01*
X9330436Y-1540763D01*
X9330436Y-1761236D01*
G37*
G36*
X8856218Y-2015236D02*
G01*
X8856218Y-1794763D01*
X9076436Y-1794763D01*
X9076436Y-2015236D01*
G37*
G36*
X9110218Y-2015236D02*
G01*
X9110218Y-1794763D01*
X9330436Y-1794763D01*
X9330436Y-2015236D01*
G37*
G36*
X8856218Y-2269236D02*
G01*
X8856218Y-2048763D01*
X9076436Y-2048763D01*
X9076436Y-2269236D01*
G37*
G36*
X9110218Y-2269236D02*
G01*
X9110218Y-2048763D01*
X9330436Y-2048763D01*
X9330436Y-2269236D01*
G37*
G01*
X1955901Y-127000D03*
G01*
X3733901Y-127000D03*
G01*
X3479901Y-127000D03*
G01*
X3225901Y-127000D03*
G01*
X2971901Y-127000D03*
G01*
X2717901Y-127000D03*
G01*
X2463901Y-127000D03*
G01*
X2209901Y-127000D03*
G01*
X4140301Y-127000D03*
G01*
X5918301Y-127000D03*
G01*
X5664301Y-127000D03*
G01*
X5410301Y-127000D03*
G01*
X5156301Y-127000D03*
G01*
X4902301Y-127000D03*
G01*
X4648301Y-127000D03*
G01*
X4394301Y-127000D03*
G01*
X4648301Y-4953000D03*
G01*
X6426301Y-4953000D03*
G01*
X6172301Y-4953000D03*
G01*
X5918301Y-4953000D03*
G01*
X5664301Y-4953000D03*
G01*
X5410301Y-4953000D03*
G01*
X5156301Y-4953000D03*
G01*
X4902301Y-4953000D03*
G01*
X6426301Y-127000D03*
G01*
X8204301Y-127000D03*
G01*
X7950301Y-127000D03*
G01*
X7696301Y-127000D03*
G01*
X7442301Y-127000D03*
G01*
X7188301Y-127000D03*
G01*
X6934301Y-127000D03*
G01*
X6680301Y-127000D03*
G01*
X6934301Y-4953000D03*
G01*
X8712301Y-4953000D03*
G01*
X8458301Y-4953000D03*
G01*
X8204301Y-4953000D03*
G01*
X7950301Y-4953000D03*
G01*
X7696301Y-4953000D03*
G01*
X7442301Y-4953000D03*
G01*
X7188301Y-4953000D03*
G01*
X2616301Y-4953000D03*
G01*
X10168204Y-6745604D03*
G01*
X10168204Y-6491604D03*
G01*
X10168204Y-6237604D03*
G01*
X10168204Y-5983604D03*
G01*
X9888194Y-6618604D03*
G01*
X9888194Y-6118605D03*
D29*
G01*
X12776200Y-5813602D03*
G01*
X12268200Y-5813602D03*
G01*
X12270206Y-6913600D03*
G01*
X12778206Y-6913600D03*
M02*
