G04 Layer: TopSilkLayer*
G04 EasyEDA v6.4.19.5, 2021-04-15T14:22:44--3:00*
G04 56ca0cd20ace464db3ad8dc24ac0750e,59636247558045d2802cba280e4ac9d9,10*
G04 Gerber Generator version 0.2*
G04 Scale: 100 percent, Rotated: No, Reflected: No *
G04 Dimensions in inches *
G04 leading zeros omitted , absolute positions ,3 integer and 6 decimal *
%FSLAX36Y36*%
%MOIN*%

%ADD22C,0.0100*%
%ADD23C,0.0080*%
%ADD24C,0.0080*%
%ADD25C,0.0047*%
%ADD26C,0.0120*%
%ADD27C,0.0060*%

%LPD*%
D23*
X2960699Y-1344800D02*
G01*
X2958599Y-1340700D01*
X2954499Y-1336599D01*
X2950500Y-1334600D01*
X2942299Y-1334600D01*
X2938199Y-1336599D01*
X2934099Y-1340700D01*
X2931999Y-1344800D01*
X2930000Y-1350999D01*
X2930000Y-1361199D01*
X2931999Y-1367300D01*
X2934099Y-1371399D01*
X2938199Y-1375500D01*
X2942299Y-1377500D01*
X2950500Y-1377500D01*
X2954499Y-1375500D01*
X2958599Y-1371399D01*
X2960699Y-1367300D01*
X2960699Y-1361199D01*
X2950500Y-1361199D02*
G01*
X2960699Y-1361199D01*
X2974200Y-1334600D02*
G01*
X2974200Y-1377500D01*
X2974200Y-1334600D02*
G01*
X3002799Y-1377500D01*
X3002799Y-1334600D02*
G01*
X3002799Y-1377500D01*
X3016300Y-1334600D02*
G01*
X3016300Y-1377500D01*
X3016300Y-1334600D02*
G01*
X3030600Y-1334600D01*
X3036800Y-1336599D01*
X3040900Y-1340700D01*
X3042899Y-1344800D01*
X3045000Y-1350999D01*
X3045000Y-1361199D01*
X3042899Y-1367300D01*
X3040900Y-1371399D01*
X3036800Y-1375500D01*
X3030600Y-1377500D01*
X3016300Y-1377500D01*
X1850699Y-1004800D02*
G01*
X1848599Y-1000700D01*
X1844499Y-996599D01*
X1840500Y-994600D01*
X1832299Y-994600D01*
X1828199Y-996599D01*
X1824099Y-1000700D01*
X1821999Y-1004800D01*
X1820000Y-1010999D01*
X1820000Y-1021199D01*
X1821999Y-1027300D01*
X1824099Y-1031399D01*
X1828199Y-1035500D01*
X1832299Y-1037500D01*
X1840500Y-1037500D01*
X1844499Y-1035500D01*
X1848599Y-1031399D01*
X1850699Y-1027300D01*
X1850699Y-1021199D01*
X1840500Y-1021199D02*
G01*
X1850699Y-1021199D01*
X1864200Y-994600D02*
G01*
X1864200Y-1037500D01*
X1864200Y-994600D02*
G01*
X1892799Y-1037500D01*
X1892799Y-994600D02*
G01*
X1892799Y-1037500D01*
X1906300Y-994600D02*
G01*
X1906300Y-1037500D01*
X1906300Y-994600D02*
G01*
X1920600Y-994600D01*
X1926800Y-996599D01*
X1930900Y-1000700D01*
X1932899Y-1004800D01*
X1935000Y-1010999D01*
X1935000Y-1021199D01*
X1932899Y-1027300D01*
X1930900Y-1031399D01*
X1926800Y-1035500D01*
X1920600Y-1037500D01*
X1906300Y-1037500D01*
X1830000Y-694600D02*
G01*
X1830000Y-737500D01*
X1830000Y-694600D02*
G01*
X1844300Y-694600D01*
X1850500Y-696599D01*
X1854499Y-700700D01*
X1856599Y-704800D01*
X1858599Y-710999D01*
X1858599Y-721199D01*
X1856599Y-727300D01*
X1854499Y-731399D01*
X1850500Y-735500D01*
X1844300Y-737500D01*
X1830000Y-737500D01*
X1872100Y-694600D02*
G01*
X1872100Y-737500D01*
X1885600Y-694600D02*
G01*
X1885600Y-737500D01*
X1885600Y-694600D02*
G01*
X1903999Y-694600D01*
X1910200Y-696599D01*
X1912200Y-698699D01*
X1914300Y-702800D01*
X1914300Y-706900D01*
X1912200Y-710999D01*
X1910200Y-713000D01*
X1903999Y-715000D01*
X1885600Y-715000D01*
X1900000Y-715000D02*
G01*
X1914300Y-737500D01*
X1830000Y-1094600D02*
G01*
X1846400Y-1137500D01*
X1862700Y-1094600D02*
G01*
X1846400Y-1137500D01*
X1906899Y-1104800D02*
G01*
X1904899Y-1100700D01*
X1900799Y-1096599D01*
X1896700Y-1094600D01*
X1888500Y-1094600D01*
X1884399Y-1096599D01*
X1880299Y-1100700D01*
X1878299Y-1104800D01*
X1876199Y-1110999D01*
X1876199Y-1121199D01*
X1878299Y-1127300D01*
X1880299Y-1131399D01*
X1884399Y-1135500D01*
X1888500Y-1137500D01*
X1896700Y-1137500D01*
X1900799Y-1135500D01*
X1904899Y-1131399D01*
X1906899Y-1127300D01*
X1951099Y-1104800D02*
G01*
X1948999Y-1100700D01*
X1945000Y-1096599D01*
X1940900Y-1094600D01*
X1932700Y-1094600D01*
X1928599Y-1096599D01*
X1924499Y-1100700D01*
X1922500Y-1104800D01*
X1920399Y-1110999D01*
X1920399Y-1121199D01*
X1922500Y-1127300D01*
X1924499Y-1131399D01*
X1928599Y-1135500D01*
X1932700Y-1137500D01*
X1940900Y-1137500D01*
X1945000Y-1135500D01*
X1948999Y-1131399D01*
X1951099Y-1127300D01*
X1853590Y-895691D02*
G01*
X1849490Y-891590D01*
X1843391Y-889591D01*
X1835191Y-889591D01*
X1829090Y-891590D01*
X1824991Y-895691D01*
X1824991Y-899791D01*
X1826990Y-903890D01*
X1829090Y-905990D01*
X1833190Y-907991D01*
X1845491Y-912091D01*
X1849490Y-914090D01*
X1851590Y-916190D01*
X1853590Y-920291D01*
X1853590Y-926390D01*
X1849490Y-930491D01*
X1843391Y-932491D01*
X1835191Y-932491D01*
X1829090Y-930491D01*
X1824991Y-926390D01*
X1897790Y-899791D02*
G01*
X1895790Y-895691D01*
X1891691Y-891590D01*
X1887591Y-889591D01*
X1879390Y-889591D01*
X1875290Y-891590D01*
X1871190Y-895691D01*
X1869191Y-899791D01*
X1867091Y-905990D01*
X1867091Y-916190D01*
X1869191Y-922291D01*
X1871190Y-926390D01*
X1875290Y-930491D01*
X1879390Y-932491D01*
X1887591Y-932491D01*
X1891691Y-930491D01*
X1895790Y-926390D01*
X1897790Y-922291D01*
X1911291Y-889591D02*
G01*
X1911291Y-932491D01*
X1911291Y-932491D02*
G01*
X1935891Y-932491D01*
X1858599Y-790700D02*
G01*
X1854499Y-786599D01*
X1848400Y-784600D01*
X1840200Y-784600D01*
X1834099Y-786599D01*
X1830000Y-790700D01*
X1830000Y-794800D01*
X1831999Y-798899D01*
X1834099Y-800999D01*
X1838199Y-803000D01*
X1850500Y-807100D01*
X1854499Y-809099D01*
X1856599Y-811199D01*
X1858599Y-815300D01*
X1858599Y-821399D01*
X1854499Y-825500D01*
X1848400Y-827500D01*
X1840200Y-827500D01*
X1834099Y-825500D01*
X1830000Y-821399D01*
X1872100Y-784600D02*
G01*
X1872100Y-827500D01*
X1872100Y-784600D02*
G01*
X1886499Y-784600D01*
X1892600Y-786599D01*
X1896700Y-790700D01*
X1898699Y-794800D01*
X1900799Y-800999D01*
X1900799Y-811199D01*
X1898699Y-817300D01*
X1896700Y-821399D01*
X1892600Y-825500D01*
X1886499Y-827500D01*
X1872100Y-827500D01*
X1930600Y-784600D02*
G01*
X1914300Y-827500D01*
X1930600Y-784600D02*
G01*
X1946999Y-827500D01*
X1920399Y-813200D02*
G01*
X1940900Y-813200D01*
X6505000Y304200D02*
G01*
X6453400Y304200D01*
X6479200Y330000D02*
G01*
X6479200Y278499D01*
X5905000Y304200D02*
G01*
X5853400Y304200D01*
X5879200Y330000D02*
G01*
X5879200Y278499D01*
X5905000Y-2292694D02*
G01*
X5853400Y-2292694D01*
X5879200Y-2266894D02*
G01*
X5879200Y-2318395D01*
X6505000Y-2315799D02*
G01*
X6453400Y-2315799D01*
X6479200Y-2290000D02*
G01*
X6479200Y-2341500D01*
X6505000Y-1558234D02*
G01*
X6453400Y-1558234D01*
X6479200Y-1532433D02*
G01*
X6479200Y-1583933D01*
X6505000Y-1300338D02*
G01*
X6453400Y-1300338D01*
X6479200Y-1274538D02*
G01*
X6479200Y-1326039D01*
X6505000Y-1045075D02*
G01*
X6453400Y-1045075D01*
X6479200Y-1019275D02*
G01*
X6479200Y-1070776D01*
X5495000Y-1045799D02*
G01*
X5443400Y-1045799D01*
X5469200Y-1020000D02*
G01*
X5469200Y-1071500D01*
X5495000Y-1306511D02*
G01*
X5443400Y-1306511D01*
X5469200Y-1280711D02*
G01*
X5469200Y-1332211D01*
X5495000Y-1573843D02*
G01*
X5443400Y-1573843D01*
X5469200Y-1548043D02*
G01*
X5469200Y-1599544D01*
X4285000Y-1555799D02*
G01*
X4233400Y-1555799D01*
X4259200Y-1530000D02*
G01*
X4259200Y-1581500D01*
X2958599Y-1140700D02*
G01*
X2954499Y-1136599D01*
X2948400Y-1134600D01*
X2940200Y-1134600D01*
X2934099Y-1136599D01*
X2930000Y-1140700D01*
X2930000Y-1144800D01*
X2931999Y-1148899D01*
X2934099Y-1150999D01*
X2938199Y-1153000D01*
X2950500Y-1157100D01*
X2954499Y-1159099D01*
X2956599Y-1161199D01*
X2958599Y-1165300D01*
X2958599Y-1171399D01*
X2954499Y-1175500D01*
X2948400Y-1177500D01*
X2940200Y-1177500D01*
X2934099Y-1175500D01*
X2930000Y-1171399D01*
X2972100Y-1134600D02*
G01*
X2972100Y-1177500D01*
X2972100Y-1134600D02*
G01*
X2986499Y-1134600D01*
X2992600Y-1136599D01*
X2996700Y-1140700D01*
X2998699Y-1144800D01*
X3000799Y-1150999D01*
X3000799Y-1161199D01*
X2998699Y-1167300D01*
X2996700Y-1171399D01*
X2992600Y-1175500D01*
X2986499Y-1177500D01*
X2972100Y-1177500D01*
X3030600Y-1134600D02*
G01*
X3014300Y-1177500D01*
X3030600Y-1134600D02*
G01*
X3046999Y-1177500D01*
X3020399Y-1163200D02*
G01*
X3040900Y-1163200D01*
X2958599Y-1240700D02*
G01*
X2954499Y-1236599D01*
X2948400Y-1234600D01*
X2940200Y-1234600D01*
X2934099Y-1236599D01*
X2930000Y-1240700D01*
X2930000Y-1244800D01*
X2931999Y-1248899D01*
X2934099Y-1250999D01*
X2938199Y-1253000D01*
X2950500Y-1257100D01*
X2954499Y-1259099D01*
X2956599Y-1261199D01*
X2958599Y-1265300D01*
X2958599Y-1271399D01*
X2954499Y-1275500D01*
X2948400Y-1277500D01*
X2940200Y-1277500D01*
X2934099Y-1275500D01*
X2930000Y-1271399D01*
X3002799Y-1244800D02*
G01*
X3000799Y-1240700D01*
X2996700Y-1236599D01*
X2992600Y-1234600D01*
X2984399Y-1234600D01*
X2980299Y-1236599D01*
X2976199Y-1240700D01*
X2974200Y-1244800D01*
X2972100Y-1250999D01*
X2972100Y-1261199D01*
X2974200Y-1267300D01*
X2976199Y-1271399D01*
X2980299Y-1275500D01*
X2984399Y-1277500D01*
X2992600Y-1277500D01*
X2996700Y-1275500D01*
X3000799Y-1271399D01*
X3002799Y-1267300D01*
X3016300Y-1234600D02*
G01*
X3016300Y-1277500D01*
X3016300Y-1277500D02*
G01*
X3040900Y-1277500D01*
X2920000Y-1434600D02*
G01*
X2936400Y-1477500D01*
X2952700Y-1434600D02*
G01*
X2936400Y-1477500D01*
X2996899Y-1444800D02*
G01*
X2994899Y-1440700D01*
X2990799Y-1436599D01*
X2986700Y-1434600D01*
X2978500Y-1434600D01*
X2974399Y-1436599D01*
X2970299Y-1440700D01*
X2968299Y-1444800D01*
X2966199Y-1450999D01*
X2966199Y-1461199D01*
X2968299Y-1467300D01*
X2970299Y-1471399D01*
X2974399Y-1475500D01*
X2978500Y-1477500D01*
X2986700Y-1477500D01*
X2990799Y-1475500D01*
X2994899Y-1471399D01*
X2996899Y-1467300D01*
X3041099Y-1444800D02*
G01*
X3038999Y-1440700D01*
X3035000Y-1436599D01*
X3030900Y-1434600D01*
X3022700Y-1434600D01*
X3018599Y-1436599D01*
X3014499Y-1440700D01*
X3012500Y-1444800D01*
X3010399Y-1450999D01*
X3010399Y-1461199D01*
X3012500Y-1467300D01*
X3014499Y-1471399D01*
X3018599Y-1475500D01*
X3022700Y-1477500D01*
X3030900Y-1477500D01*
X3035000Y-1475500D01*
X3038999Y-1471399D01*
X3041099Y-1467300D01*
X70900Y-1913099D02*
G01*
X68200Y-1907600D01*
X62699Y-1902199D01*
X57300Y-1899499D01*
X46399Y-1899499D01*
X40900Y-1902199D01*
X35500Y-1907600D01*
X32699Y-1913099D01*
X30000Y-1921300D01*
X30000Y-1934899D01*
X32699Y-1943099D01*
X35500Y-1948499D01*
X40900Y-1954000D01*
X46399Y-1956700D01*
X57300Y-1956700D01*
X62699Y-1954000D01*
X68200Y-1948499D01*
X70900Y-1943099D01*
X70900Y-1934899D01*
X57300Y-1934899D02*
G01*
X70900Y-1934899D01*
X121599Y-1918499D02*
G01*
X121599Y-1956700D01*
X121599Y-1926700D02*
G01*
X116199Y-1921300D01*
X110700Y-1918499D01*
X102500Y-1918499D01*
X97100Y-1921300D01*
X91599Y-1926700D01*
X88899Y-1934899D01*
X88899Y-1940399D01*
X91599Y-1948499D01*
X97100Y-1954000D01*
X102500Y-1956700D01*
X110700Y-1956700D01*
X116199Y-1954000D01*
X121599Y-1948499D01*
X139600Y-1899499D02*
G01*
X139600Y-1956700D01*
X139600Y-1926700D02*
G01*
X145100Y-1921300D01*
X150500Y-1918499D01*
X158699Y-1918499D01*
X164200Y-1921300D01*
X169600Y-1926700D01*
X172399Y-1934899D01*
X172399Y-1940399D01*
X169600Y-1948499D01*
X164200Y-1954000D01*
X158699Y-1956700D01*
X150500Y-1956700D01*
X145100Y-1954000D01*
X139600Y-1948499D01*
X190399Y-1918499D02*
G01*
X190399Y-1956700D01*
X190399Y-1934899D02*
G01*
X193099Y-1926700D01*
X198499Y-1921300D01*
X204000Y-1918499D01*
X212199Y-1918499D01*
X230199Y-1899499D02*
G01*
X232899Y-1902199D01*
X235599Y-1899499D01*
X232899Y-1896700D01*
X230199Y-1899499D01*
X232899Y-1918499D02*
G01*
X232899Y-1956700D01*
X253600Y-1934899D02*
G01*
X286399Y-1934899D01*
X286399Y-1929499D01*
X283600Y-1924000D01*
X280900Y-1921300D01*
X275500Y-1918499D01*
X267300Y-1918499D01*
X261799Y-1921300D01*
X256399Y-1926700D01*
X253600Y-1934899D01*
X253600Y-1940399D01*
X256399Y-1948499D01*
X261799Y-1954000D01*
X267300Y-1956700D01*
X275500Y-1956700D01*
X280900Y-1954000D01*
X286399Y-1948499D01*
X304400Y-1899499D02*
G01*
X304400Y-1956700D01*
X364400Y-1899499D02*
G01*
X364400Y-1956700D01*
X364400Y-1899499D02*
G01*
X388899Y-1899499D01*
X397100Y-1902199D01*
X399800Y-1904899D01*
X402500Y-1910399D01*
X402500Y-1915799D01*
X399800Y-1921300D01*
X397100Y-1924000D01*
X388899Y-1926700D01*
X364400Y-1926700D02*
G01*
X388899Y-1926700D01*
X397100Y-1929499D01*
X399800Y-1932199D01*
X402500Y-1937600D01*
X402500Y-1945799D01*
X399800Y-1951300D01*
X397100Y-1954000D01*
X388899Y-1956700D01*
X364400Y-1956700D01*
X420500Y-1934899D02*
G01*
X453299Y-1934899D01*
X453299Y-1929499D01*
X450500Y-1924000D01*
X447800Y-1921300D01*
X442399Y-1918499D01*
X434200Y-1918499D01*
X428699Y-1921300D01*
X423299Y-1926700D01*
X420500Y-1934899D01*
X420500Y-1940399D01*
X423299Y-1948499D01*
X428699Y-1954000D01*
X434200Y-1956700D01*
X442399Y-1956700D01*
X447800Y-1954000D01*
X453299Y-1948499D01*
X479499Y-1899499D02*
G01*
X479499Y-1945799D01*
X482199Y-1954000D01*
X487600Y-1956700D01*
X493099Y-1956700D01*
X471300Y-1918499D02*
G01*
X490399Y-1918499D01*
X519299Y-1899499D02*
G01*
X519299Y-1945799D01*
X521999Y-1954000D01*
X527500Y-1956700D01*
X532899Y-1956700D01*
X511100Y-1918499D02*
G01*
X530199Y-1918499D01*
X583600Y-1918499D02*
G01*
X583600Y-1956700D01*
X583600Y-1926700D02*
G01*
X578200Y-1921300D01*
X572699Y-1918499D01*
X564499Y-1918499D01*
X559099Y-1921300D01*
X553600Y-1926700D01*
X550900Y-1934899D01*
X550900Y-1940399D01*
X553600Y-1948499D01*
X559099Y-1954000D01*
X564499Y-1956700D01*
X572699Y-1956700D01*
X578200Y-1954000D01*
X583600Y-1948499D01*
X601599Y-1918499D02*
G01*
X601599Y-1956700D01*
X601599Y-1929499D02*
G01*
X609800Y-1921300D01*
X615300Y-1918499D01*
X623499Y-1918499D01*
X628899Y-1921300D01*
X631599Y-1929499D01*
X631599Y-1956700D01*
X649600Y-1899499D02*
G01*
X652399Y-1902199D01*
X655100Y-1899499D01*
X652399Y-1896700D01*
X649600Y-1899499D01*
X652399Y-1918499D02*
G01*
X652399Y-1956700D01*
X673099Y-1918499D02*
G01*
X673099Y-1956700D01*
X673099Y-1929499D02*
G01*
X681300Y-1921300D01*
X686700Y-1918499D01*
X694899Y-1918499D01*
X700399Y-1921300D01*
X703099Y-1929499D01*
X703099Y-1956700D01*
X46399Y-1989499D02*
G01*
X38200Y-1992199D01*
X32699Y-2000399D01*
X30000Y-2014000D01*
X30000Y-2022199D01*
X32699Y-2035799D01*
X38200Y-2044000D01*
X46399Y-2046700D01*
X51799Y-2046700D01*
X60000Y-2044000D01*
X65500Y-2035799D01*
X68200Y-2022199D01*
X68200Y-2014000D01*
X65500Y-2000399D01*
X60000Y-1992199D01*
X51799Y-1989499D01*
X46399Y-1989499D01*
X113499Y-1989499D02*
G01*
X86199Y-2027600D01*
X127100Y-2027600D01*
X113499Y-1989499D02*
G01*
X113499Y-2046700D01*
X194200Y-1978499D02*
G01*
X145100Y-2065799D01*
X214899Y-2003099D02*
G01*
X214899Y-2000399D01*
X217600Y-1994899D01*
X220399Y-1992199D01*
X225799Y-1989499D01*
X236700Y-1989499D01*
X242199Y-1992199D01*
X244899Y-1994899D01*
X247600Y-2000399D01*
X247600Y-2005799D01*
X244899Y-2011300D01*
X239499Y-2019499D01*
X212199Y-2046700D01*
X250399Y-2046700D01*
X284699Y-1989499D02*
G01*
X276500Y-1992199D01*
X271100Y-2000399D01*
X268400Y-2014000D01*
X268400Y-2022199D01*
X271100Y-2035799D01*
X276500Y-2044000D01*
X284699Y-2046700D01*
X290199Y-2046700D01*
X298400Y-2044000D01*
X303800Y-2035799D01*
X306500Y-2022199D01*
X306500Y-2014000D01*
X303800Y-2000399D01*
X298400Y-1992199D01*
X290199Y-1989499D01*
X284699Y-1989499D01*
X327300Y-2003099D02*
G01*
X327300Y-2000399D01*
X330000Y-1994899D01*
X332699Y-1992199D01*
X338200Y-1989499D01*
X349099Y-1989499D01*
X354499Y-1992199D01*
X357300Y-1994899D01*
X360000Y-2000399D01*
X360000Y-2005799D01*
X357300Y-2011300D01*
X351799Y-2019499D01*
X324499Y-2046700D01*
X362699Y-2046700D01*
X380700Y-2000399D02*
G01*
X386199Y-1997600D01*
X394400Y-1989499D01*
X394400Y-2046700D01*
X40000Y-1809499D02*
G01*
X40000Y-1866700D01*
X40000Y-1866700D02*
G01*
X72699Y-1866700D01*
X112500Y-1809499D02*
G01*
X90700Y-1866700D01*
X112500Y-1809499D02*
G01*
X134400Y-1866700D01*
X98899Y-1847600D02*
G01*
X126199Y-1847600D01*
X152399Y-1809499D02*
G01*
X152399Y-1866700D01*
X152399Y-1809499D02*
G01*
X176900Y-1809499D01*
X185100Y-1812199D01*
X187800Y-1814899D01*
X190500Y-1820399D01*
X190500Y-1828499D01*
X187800Y-1834000D01*
X185100Y-1836700D01*
X176900Y-1839499D01*
X152399Y-1839499D01*
X208499Y-1809499D02*
G01*
X208499Y-1866700D01*
X226500Y-1809499D02*
G01*
X264699Y-1866700D01*
X264699Y-1809499D02*
G01*
X226500Y-1866700D01*
X365599Y-1823099D02*
G01*
X362899Y-1817600D01*
X357500Y-1812199D01*
X351999Y-1809499D01*
X341100Y-1809499D01*
X335599Y-1812199D01*
X330199Y-1817600D01*
X327500Y-1823099D01*
X324699Y-1831300D01*
X324699Y-1844899D01*
X327500Y-1853099D01*
X330199Y-1858499D01*
X335599Y-1864000D01*
X341100Y-1866700D01*
X351999Y-1866700D01*
X357500Y-1864000D01*
X362899Y-1858499D01*
X365599Y-1853099D01*
X383600Y-1828499D02*
G01*
X383600Y-1866700D01*
X383600Y-1844899D02*
G01*
X386399Y-1836700D01*
X391799Y-1831300D01*
X397300Y-1828499D01*
X405500Y-1828499D01*
X456199Y-1828499D02*
G01*
X456199Y-1866700D01*
X456199Y-1836700D02*
G01*
X450700Y-1831300D01*
X445300Y-1828499D01*
X437100Y-1828499D01*
X431599Y-1831300D01*
X426199Y-1836700D01*
X423499Y-1844899D01*
X423499Y-1850399D01*
X426199Y-1858499D01*
X431599Y-1864000D01*
X437100Y-1866700D01*
X445300Y-1866700D01*
X450700Y-1864000D01*
X456199Y-1858499D01*
X474200Y-1828499D02*
G01*
X485100Y-1866700D01*
X495999Y-1828499D02*
G01*
X485100Y-1866700D01*
X495999Y-1828499D02*
G01*
X506900Y-1866700D01*
X517800Y-1828499D02*
G01*
X506900Y-1866700D01*
X535799Y-1809499D02*
G01*
X535799Y-1866700D01*
X553800Y-1844899D02*
G01*
X586500Y-1844899D01*
X586500Y-1839499D01*
X583800Y-1834000D01*
X581100Y-1831300D01*
X575599Y-1828499D01*
X567500Y-1828499D01*
X561999Y-1831300D01*
X556500Y-1836700D01*
X553800Y-1844899D01*
X553800Y-1850399D01*
X556500Y-1858499D01*
X561999Y-1864000D01*
X567500Y-1866700D01*
X575599Y-1866700D01*
X581100Y-1864000D01*
X586500Y-1858499D01*
X604499Y-1828499D02*
G01*
X604499Y-1866700D01*
X604499Y-1844899D02*
G01*
X607300Y-1836700D01*
X612699Y-1831300D01*
X618200Y-1828499D01*
X626399Y-1828499D01*
X686399Y-1828499D02*
G01*
X702699Y-1866700D01*
X719099Y-1828499D02*
G01*
X702699Y-1866700D01*
X737100Y-1820399D02*
G01*
X742500Y-1817600D01*
X750700Y-1809499D01*
X750700Y-1866700D01*
X771499Y-1853099D02*
G01*
X768699Y-1855799D01*
X771499Y-1858499D01*
X774200Y-1855799D01*
X771499Y-1853099D01*
X797600Y-1809499D02*
G01*
X827600Y-1809499D01*
X811300Y-1831300D01*
X819499Y-1831300D01*
X824899Y-1834000D01*
X827600Y-1836700D01*
X830399Y-1844899D01*
X830399Y-1850399D01*
X827600Y-1858499D01*
X822200Y-1864000D01*
X813999Y-1866700D01*
X805799Y-1866700D01*
X797600Y-1864000D01*
X794899Y-1861300D01*
X792200Y-1855799D01*
D27*
X5480000Y-2292800D02*
G01*
X5484099Y-2290700D01*
X5490200Y-2284600D01*
X5490200Y-2327500D01*
X5481999Y555199D02*
G01*
X5481999Y557199D01*
X5484099Y561300D01*
X5486099Y563400D01*
X5490200Y565399D01*
X5498400Y565399D01*
X5502500Y563400D01*
X5504499Y561300D01*
X5506599Y557199D01*
X5506599Y553099D01*
X5504499Y549000D01*
X5500500Y542899D01*
X5480000Y522500D01*
X5508599Y522500D01*
X3584099Y-2284600D02*
G01*
X3606599Y-2284600D01*
X3594300Y-2300999D01*
X3600500Y-2300999D01*
X3604499Y-2303000D01*
X3606599Y-2305000D01*
X3608599Y-2311199D01*
X3608599Y-2315300D01*
X3606599Y-2321399D01*
X3602500Y-2325500D01*
X3596400Y-2327500D01*
X3590200Y-2327500D01*
X3584099Y-2325500D01*
X3581999Y-2323499D01*
X3580000Y-2319400D01*
X3600500Y565399D02*
G01*
X3580000Y536799D01*
X3610699Y536799D01*
X3600500Y565399D02*
G01*
X3600500Y522500D01*
X1520000Y-604600D02*
G01*
X1520000Y-647500D01*
X1520000Y-604600D02*
G01*
X1546599Y-604600D01*
X1520000Y-625000D02*
G01*
X1536400Y-625000D01*
X1520000Y-647500D02*
G01*
X1546599Y-647500D01*
X1560100Y-612800D02*
G01*
X1564200Y-610700D01*
X1570299Y-604600D01*
X1570299Y-647500D01*
X1700000Y-604600D02*
G01*
X1700000Y-647500D01*
X1700000Y-604600D02*
G01*
X1726599Y-604600D01*
X1700000Y-625000D02*
G01*
X1716400Y-625000D01*
X1700000Y-647500D02*
G01*
X1726599Y-647500D01*
X1742100Y-614800D02*
G01*
X1742100Y-612800D01*
X1744200Y-608699D01*
X1746199Y-606599D01*
X1750299Y-604600D01*
X1758500Y-604600D01*
X1762600Y-606599D01*
X1764600Y-608699D01*
X1766700Y-612800D01*
X1766700Y-616900D01*
X1764600Y-620999D01*
X1760500Y-627100D01*
X1740100Y-647500D01*
X1768699Y-647500D01*
X810699Y-444800D02*
G01*
X808599Y-440700D01*
X804499Y-436599D01*
X800500Y-434600D01*
X792299Y-434600D01*
X788199Y-436599D01*
X784099Y-440700D01*
X781999Y-444800D01*
X780000Y-450999D01*
X780000Y-461199D01*
X781999Y-467300D01*
X784099Y-471399D01*
X788199Y-475500D01*
X792299Y-477500D01*
X800500Y-477500D01*
X804499Y-475500D01*
X808599Y-471399D01*
X810699Y-467300D01*
X810699Y-461199D01*
X800500Y-461199D02*
G01*
X810699Y-461199D01*
X824200Y-434600D02*
G01*
X824200Y-477500D01*
X824200Y-434600D02*
G01*
X852799Y-477500D01*
X852799Y-434600D02*
G01*
X852799Y-477500D01*
X866300Y-434600D02*
G01*
X866300Y-477500D01*
X866300Y-434600D02*
G01*
X880600Y-434600D01*
X886800Y-436599D01*
X890900Y-440700D01*
X892899Y-444800D01*
X895000Y-450999D01*
X895000Y-461199D01*
X892899Y-467300D01*
X890900Y-471399D01*
X886800Y-475500D01*
X880600Y-477500D01*
X866300Y-477500D01*
X908500Y-442800D02*
G01*
X912500Y-440700D01*
X918699Y-434600D01*
X918699Y-477500D01*
X1210699Y-444800D02*
G01*
X1208599Y-440700D01*
X1204499Y-436599D01*
X1200500Y-434600D01*
X1192299Y-434600D01*
X1188199Y-436599D01*
X1184099Y-440700D01*
X1181999Y-444800D01*
X1180000Y-450999D01*
X1180000Y-461199D01*
X1181999Y-467300D01*
X1184099Y-471399D01*
X1188199Y-475500D01*
X1192299Y-477500D01*
X1200500Y-477500D01*
X1204499Y-475500D01*
X1208599Y-471399D01*
X1210699Y-467300D01*
X1210699Y-461199D01*
X1200500Y-461199D02*
G01*
X1210699Y-461199D01*
X1224200Y-434600D02*
G01*
X1224200Y-477500D01*
X1224200Y-434600D02*
G01*
X1252799Y-477500D01*
X1252799Y-434600D02*
G01*
X1252799Y-477500D01*
X1266300Y-434600D02*
G01*
X1266300Y-477500D01*
X1266300Y-434600D02*
G01*
X1280600Y-434600D01*
X1286800Y-436599D01*
X1290900Y-440700D01*
X1292899Y-444800D01*
X1295000Y-450999D01*
X1295000Y-461199D01*
X1292899Y-467300D01*
X1290900Y-471399D01*
X1286800Y-475500D01*
X1280600Y-477500D01*
X1266300Y-477500D01*
X1310500Y-444800D02*
G01*
X1310500Y-442800D01*
X1312500Y-438699D01*
X1314600Y-436599D01*
X1318699Y-434600D01*
X1326899Y-434600D01*
X1331000Y-436599D01*
X1333000Y-438699D01*
X1335000Y-442800D01*
X1335000Y-446900D01*
X1333000Y-450999D01*
X1328900Y-457100D01*
X1308500Y-477500D01*
X1337100Y-477500D01*
X3060000Y-424600D02*
G01*
X3060000Y-467500D01*
X3073500Y-424600D02*
G01*
X3073500Y-467500D01*
X3073500Y-424600D02*
G01*
X3089899Y-467500D01*
X3106199Y-424600D02*
G01*
X3089899Y-467500D01*
X3106199Y-424600D02*
G01*
X3106199Y-467500D01*
X3119700Y-424600D02*
G01*
X3119700Y-455300D01*
X3121800Y-461399D01*
X3125900Y-465500D01*
X3131999Y-467500D01*
X3136099Y-467500D01*
X3142200Y-465500D01*
X3146300Y-461399D01*
X3148400Y-455300D01*
X3148400Y-424600D01*
X1058400Y-440700D02*
G01*
X1058400Y-477500D01*
X1040000Y-459099D02*
G01*
X1076800Y-459099D01*
X1114899Y-434600D02*
G01*
X1094399Y-434600D01*
X1092399Y-453000D01*
X1094399Y-450999D01*
X1100500Y-448899D01*
X1106700Y-448899D01*
X1112799Y-450999D01*
X1116899Y-455000D01*
X1118999Y-461199D01*
X1118999Y-465300D01*
X1116899Y-471399D01*
X1112799Y-475500D01*
X1106700Y-477500D01*
X1100500Y-477500D01*
X1094399Y-475500D01*
X1092399Y-473499D01*
X1090299Y-469400D01*
X1132500Y-434600D02*
G01*
X1148800Y-477500D01*
X1165200Y-434600D02*
G01*
X1148800Y-477500D01*
X618400Y-440700D02*
G01*
X618400Y-477500D01*
X600000Y-459099D02*
G01*
X636799Y-459099D01*
X650300Y-442800D02*
G01*
X654400Y-440700D01*
X660500Y-434600D01*
X660500Y-477500D01*
X676100Y-444800D02*
G01*
X676100Y-442800D01*
X678099Y-438699D01*
X680199Y-436599D01*
X684299Y-434600D01*
X692500Y-434600D01*
X696500Y-436599D01*
X698600Y-438699D01*
X700599Y-442800D01*
X700599Y-446900D01*
X698600Y-450999D01*
X694499Y-457100D01*
X674000Y-477500D01*
X702699Y-477500D01*
X716199Y-434600D02*
G01*
X732500Y-477500D01*
X748899Y-434600D02*
G01*
X732500Y-477500D01*
X5170000Y-2784600D02*
G01*
X5170000Y-2815300D01*
X5171999Y-2821399D01*
X5176099Y-2825500D01*
X5182299Y-2827500D01*
X5186400Y-2827500D01*
X5192500Y-2825500D01*
X5196599Y-2821399D01*
X5198599Y-2815300D01*
X5198599Y-2784600D01*
X5214200Y-2794800D02*
G01*
X5214200Y-2792800D01*
X5216199Y-2788699D01*
X5218299Y-2786599D01*
X5222399Y-2784600D01*
X5230500Y-2784600D01*
X5234600Y-2786599D01*
X5236700Y-2788699D01*
X5238699Y-2792800D01*
X5238699Y-2796900D01*
X5236700Y-2800999D01*
X5232600Y-2807100D01*
X5212100Y-2827500D01*
X5240799Y-2827500D01*
D23*
X4889809Y-2646911D02*
G01*
X4889809Y-2590511D01*
X4889809Y-2646911D02*
G01*
X4865709Y-2646911D01*
X4857610Y-2644211D01*
X4854910Y-2641511D01*
X4852309Y-2636210D01*
X4852309Y-2628110D01*
X4854910Y-2622710D01*
X4857610Y-2620111D01*
X4865709Y-2617411D01*
X4889809Y-2617411D01*
X4834510Y-2646911D02*
G01*
X4821109Y-2590511D01*
X4807709Y-2646911D02*
G01*
X4821109Y-2590511D01*
X4807709Y-2646911D02*
G01*
X4794309Y-2590511D01*
X4780810Y-2646911D02*
G01*
X4794309Y-2590511D01*
X4763109Y-2646911D02*
G01*
X4763109Y-2590511D01*
X4763109Y-2646911D02*
G01*
X4741710Y-2590511D01*
X4720209Y-2646911D02*
G01*
X4741710Y-2590511D01*
X4720209Y-2646911D02*
G01*
X4720209Y-2590511D01*
X4849547Y-2405151D02*
G01*
X4852246Y-2410551D01*
X4857646Y-2415850D01*
X4863046Y-2418551D01*
X4873747Y-2418551D01*
X4879147Y-2415850D01*
X4884447Y-2410551D01*
X4887147Y-2405151D01*
X4889847Y-2397051D01*
X4889847Y-2383651D01*
X4887147Y-2375650D01*
X4884447Y-2370250D01*
X4879147Y-2364850D01*
X4873747Y-2362150D01*
X4863046Y-2362150D01*
X4857646Y-2364850D01*
X4852246Y-2370250D01*
X4849547Y-2375650D01*
X4849547Y-2383651D01*
X4863046Y-2383651D02*
G01*
X4849547Y-2383651D01*
X4831846Y-2418551D02*
G01*
X4831846Y-2362150D01*
X4831846Y-2418551D02*
G01*
X4794246Y-2362150D01*
X4794246Y-2418551D02*
G01*
X4794246Y-2362150D01*
X4776547Y-2418551D02*
G01*
X4776547Y-2362150D01*
X4776547Y-2418551D02*
G01*
X4757746Y-2418551D01*
X4749746Y-2415850D01*
X4744346Y-2410551D01*
X4741647Y-2405151D01*
X4738946Y-2397051D01*
X4738946Y-2383651D01*
X4741647Y-2375650D01*
X4744346Y-2370250D01*
X4749746Y-2364850D01*
X4757746Y-2362150D01*
X4776547Y-2362150D01*
X3983148Y-2602066D02*
G01*
X3983146Y-2541966D01*
X3964247Y-2602066D02*
G01*
X3964247Y-2541966D01*
X3964247Y-2602066D02*
G01*
X3924147Y-2541966D01*
X3924147Y-2602066D02*
G01*
X3924147Y-2541966D01*
X3905248Y-2567766D02*
G01*
X3853747Y-2567766D01*
X4181184Y-2600974D02*
G01*
X4181184Y-2544573D01*
X4163483Y-2600974D02*
G01*
X4163483Y-2544573D01*
X4163483Y-2600974D02*
G01*
X4125883Y-2544573D01*
X4125883Y-2600974D02*
G01*
X4125883Y-2544573D01*
X4083984Y-2592874D02*
G01*
X4083984Y-2544573D01*
X4108184Y-2568773D02*
G01*
X4059884Y-2568773D01*
X4179955Y-2468607D02*
G01*
X4179955Y-2412206D01*
X4179955Y-2468607D02*
G01*
X4158455Y-2412206D01*
X4137055Y-2468607D02*
G01*
X4158455Y-2412206D01*
X4137055Y-2468607D02*
G01*
X4137055Y-2412206D01*
X4095155Y-2460506D02*
G01*
X4095155Y-2412206D01*
X4119354Y-2436406D02*
G01*
X4070955Y-2436406D01*
X3984296Y-2467269D02*
G01*
X3984296Y-2410870D01*
X3984296Y-2467269D02*
G01*
X3962797Y-2410870D01*
X3941396Y-2467269D02*
G01*
X3962797Y-2410870D01*
X3941396Y-2467269D02*
G01*
X3941396Y-2410870D01*
X3923596Y-2435070D02*
G01*
X3875297Y-2435070D01*
D27*
X30000Y-1464600D02*
G01*
X30000Y-1507500D01*
X30000Y-1464600D02*
G01*
X48400Y-1464600D01*
X54499Y-1466599D01*
X56599Y-1468699D01*
X58600Y-1472800D01*
X58600Y-1478899D01*
X56599Y-1483000D01*
X54499Y-1485000D01*
X48400Y-1487100D01*
X30000Y-1487100D01*
X84400Y-1464600D02*
G01*
X80300Y-1466599D01*
X76199Y-1470700D01*
X74200Y-1474800D01*
X72100Y-1480999D01*
X72100Y-1491199D01*
X74200Y-1497300D01*
X76199Y-1501399D01*
X80300Y-1505500D01*
X84400Y-1507500D01*
X92600Y-1507500D01*
X96700Y-1505500D01*
X100799Y-1501399D01*
X102800Y-1497300D01*
X104899Y-1491199D01*
X104899Y-1480999D01*
X102800Y-1474800D01*
X100799Y-1470700D01*
X96700Y-1466599D01*
X92600Y-1464600D01*
X84400Y-1464600D01*
X118400Y-1464600D02*
G01*
X128600Y-1507500D01*
X138800Y-1464600D02*
G01*
X128600Y-1507500D01*
X138800Y-1464600D02*
G01*
X149000Y-1507500D01*
X159299Y-1464600D02*
G01*
X149000Y-1507500D01*
X172800Y-1464600D02*
G01*
X172800Y-1507500D01*
X172800Y-1464600D02*
G01*
X199400Y-1464600D01*
X172800Y-1485000D02*
G01*
X189099Y-1485000D01*
X172800Y-1507500D02*
G01*
X199400Y-1507500D01*
X212899Y-1464600D02*
G01*
X212899Y-1507500D01*
X212899Y-1464600D02*
G01*
X231300Y-1464600D01*
X237399Y-1466599D01*
X239499Y-1468699D01*
X241500Y-1472800D01*
X241500Y-1476900D01*
X239499Y-1480999D01*
X237399Y-1483000D01*
X231300Y-1485000D01*
X212899Y-1485000D01*
X227199Y-1485000D02*
G01*
X241500Y-1507500D01*
D23*
X239200Y-1120000D02*
G01*
X239200Y-1171500D01*
X255000Y-1345799D02*
G01*
X203400Y-1345799D01*
X229200Y-1320000D02*
G01*
X229200Y-1371500D01*
D27*
X5768599Y-2610700D02*
G01*
X5764499Y-2606599D01*
X5758400Y-2604600D01*
X5750200Y-2604600D01*
X5744099Y-2606599D01*
X5740000Y-2610700D01*
X5740000Y-2614800D01*
X5741999Y-2618899D01*
X5744099Y-2620999D01*
X5748199Y-2623000D01*
X5760500Y-2627100D01*
X5764499Y-2629099D01*
X5766599Y-2631199D01*
X5768599Y-2635300D01*
X5768599Y-2641399D01*
X5764499Y-2645500D01*
X5758400Y-2647500D01*
X5750200Y-2647500D01*
X5744099Y-2645500D01*
X5740000Y-2641399D01*
X5782100Y-2612800D02*
G01*
X5786199Y-2610700D01*
X5792399Y-2604600D01*
X5792399Y-2647500D01*
X5860000Y-2498200D02*
G01*
X5865500Y-2495500D01*
X5873599Y-2487300D01*
X5873599Y-2544499D01*
X5962700Y-2500900D02*
G01*
X5962700Y-2498200D01*
X5965500Y-2492700D01*
X5968199Y-2490000D01*
X5973599Y-2487300D01*
X5984499Y-2487300D01*
X5990000Y-2490000D01*
X5992700Y-2492700D01*
X5995500Y-2498200D01*
X5995500Y-2503600D01*
X5992700Y-2509099D01*
X5987299Y-2517300D01*
X5960000Y-2544499D01*
X5998199Y-2544499D01*
X6065500Y-2487300D02*
G01*
X6095500Y-2487300D01*
X6079099Y-2509099D01*
X6087299Y-2509099D01*
X6092700Y-2511799D01*
X6095500Y-2514499D01*
X6098199Y-2522700D01*
X6098199Y-2528200D01*
X6095500Y-2536399D01*
X6090000Y-2541799D01*
X6081800Y-2544499D01*
X6073599Y-2544499D01*
X6065500Y-2541799D01*
X6062700Y-2539099D01*
X6060000Y-2533600D01*
X6348599Y-2610700D02*
G01*
X6344499Y-2606599D01*
X6338400Y-2604600D01*
X6330200Y-2604600D01*
X6324099Y-2606599D01*
X6320000Y-2610700D01*
X6320000Y-2614800D01*
X6321999Y-2618899D01*
X6324099Y-2620999D01*
X6328199Y-2623000D01*
X6340500Y-2627100D01*
X6344499Y-2629099D01*
X6346599Y-2631199D01*
X6348599Y-2635300D01*
X6348599Y-2641399D01*
X6344499Y-2645500D01*
X6338400Y-2647500D01*
X6330200Y-2647500D01*
X6324099Y-2645500D01*
X6320000Y-2641399D01*
X6364200Y-2614800D02*
G01*
X6364200Y-2612800D01*
X6366199Y-2608699D01*
X6368299Y-2606599D01*
X6372399Y-2604600D01*
X6380500Y-2604600D01*
X6384600Y-2606599D01*
X6386700Y-2608699D01*
X6388699Y-2612800D01*
X6388699Y-2616900D01*
X6386700Y-2620999D01*
X6382600Y-2627100D01*
X6362100Y-2647500D01*
X6390799Y-2647500D01*
X6460000Y-2498200D02*
G01*
X6465500Y-2495500D01*
X6473599Y-2487300D01*
X6473599Y-2544499D01*
X6562700Y-2500900D02*
G01*
X6562700Y-2498200D01*
X6565500Y-2492700D01*
X6568199Y-2490000D01*
X6573599Y-2487300D01*
X6584499Y-2487300D01*
X6590000Y-2490000D01*
X6592700Y-2492700D01*
X6595500Y-2498200D01*
X6595500Y-2503600D01*
X6592700Y-2509099D01*
X6587299Y-2517300D01*
X6560000Y-2544499D01*
X6598199Y-2544499D01*
X6665500Y-2487300D02*
G01*
X6695500Y-2487300D01*
X6679099Y-2509099D01*
X6687299Y-2509099D01*
X6692700Y-2511799D01*
X6695500Y-2514499D01*
X6698199Y-2522700D01*
X6698199Y-2528200D01*
X6695500Y-2536399D01*
X6690000Y-2541799D01*
X6681800Y-2544499D01*
X6673599Y-2544499D01*
X6665500Y-2541799D01*
X6662700Y-2539099D01*
X6660000Y-2533600D01*
X5758599Y619299D02*
G01*
X5754499Y623400D01*
X5748400Y625399D01*
X5740200Y625399D01*
X5734099Y623400D01*
X5730000Y619299D01*
X5730000Y615199D01*
X5731999Y611100D01*
X5734099Y609000D01*
X5738199Y606999D01*
X5750500Y602899D01*
X5754499Y600900D01*
X5756599Y598800D01*
X5758599Y594699D01*
X5758599Y588600D01*
X5754499Y584499D01*
X5748400Y582500D01*
X5740200Y582500D01*
X5734099Y584499D01*
X5730000Y588600D01*
X5776199Y625399D02*
G01*
X5798699Y625399D01*
X5786499Y609000D01*
X5792600Y609000D01*
X5796700Y606999D01*
X5798699Y605000D01*
X5800799Y598800D01*
X5800799Y594699D01*
X5798699Y588600D01*
X5794600Y584499D01*
X5788500Y582500D01*
X5782399Y582500D01*
X5776199Y584499D01*
X5774200Y586500D01*
X5772100Y590599D01*
X5860000Y731799D02*
G01*
X5865500Y734499D01*
X5873599Y742699D01*
X5873599Y685500D01*
X5962700Y729099D02*
G01*
X5962700Y731799D01*
X5965500Y737300D01*
X5968199Y740000D01*
X5973599Y742699D01*
X5984499Y742699D01*
X5990000Y740000D01*
X5992700Y737300D01*
X5995500Y731799D01*
X5995500Y726399D01*
X5992700Y720900D01*
X5987299Y712699D01*
X5960000Y685500D01*
X5998199Y685500D01*
X6065500Y742699D02*
G01*
X6095500Y742699D01*
X6079099Y720900D01*
X6087299Y720900D01*
X6092700Y718200D01*
X6095500Y715500D01*
X6098199Y707300D01*
X6098199Y701799D01*
X6095500Y693600D01*
X6090000Y688200D01*
X6081800Y685500D01*
X6073599Y685500D01*
X6065500Y688200D01*
X6062700Y690900D01*
X6060000Y696399D01*
X6358599Y609299D02*
G01*
X6354499Y613400D01*
X6348400Y615399D01*
X6340200Y615399D01*
X6334099Y613400D01*
X6330000Y609299D01*
X6330000Y605199D01*
X6331999Y601100D01*
X6334099Y599000D01*
X6338199Y596999D01*
X6350500Y592899D01*
X6354499Y590900D01*
X6356599Y588800D01*
X6358599Y584699D01*
X6358599Y578600D01*
X6354499Y574499D01*
X6348400Y572500D01*
X6340200Y572500D01*
X6334099Y574499D01*
X6330000Y578600D01*
X6392600Y615399D02*
G01*
X6372100Y586799D01*
X6402799Y586799D01*
X6392600Y615399D02*
G01*
X6392600Y572500D01*
X6460000Y731799D02*
G01*
X6465500Y734499D01*
X6473599Y742699D01*
X6473599Y685500D01*
X6562700Y729099D02*
G01*
X6562700Y731799D01*
X6565500Y737300D01*
X6568199Y740000D01*
X6573599Y742699D01*
X6584499Y742699D01*
X6590000Y740000D01*
X6592700Y737300D01*
X6595500Y731799D01*
X6595500Y726399D01*
X6592700Y720900D01*
X6587299Y712699D01*
X6560000Y685500D01*
X6598199Y685500D01*
X6665500Y742699D02*
G01*
X6695500Y742699D01*
X6679099Y720900D01*
X6687299Y720900D01*
X6692700Y718200D01*
X6695500Y715500D01*
X6698199Y707300D01*
X6698199Y701799D01*
X6695500Y693600D01*
X6690000Y688200D01*
X6681800Y685500D01*
X6673599Y685500D01*
X6665500Y688200D01*
X6662700Y690900D01*
X6660000Y696399D01*
X280700Y-394800D02*
G01*
X278600Y-390700D01*
X274499Y-386599D01*
X270500Y-384600D01*
X262300Y-384600D01*
X258200Y-386599D01*
X254099Y-390700D01*
X251999Y-394800D01*
X250000Y-400999D01*
X250000Y-411199D01*
X251999Y-417300D01*
X254099Y-421399D01*
X258200Y-425500D01*
X262300Y-427500D01*
X270500Y-427500D01*
X274499Y-425500D01*
X278600Y-421399D01*
X280700Y-417300D01*
X294200Y-392800D02*
G01*
X298299Y-390700D01*
X304400Y-384600D01*
X304400Y-427500D01*
X5970699Y-2284800D02*
G01*
X5968599Y-2280700D01*
X5964499Y-2276599D01*
X5960500Y-2274600D01*
X5952299Y-2274600D01*
X5948199Y-2276599D01*
X5944099Y-2280700D01*
X5941999Y-2284800D01*
X5940000Y-2290999D01*
X5940000Y-2301199D01*
X5941999Y-2307300D01*
X5944099Y-2311399D01*
X5948199Y-2315500D01*
X5952299Y-2317500D01*
X5960500Y-2317500D01*
X5964499Y-2315500D01*
X5968599Y-2311399D01*
X5970699Y-2307300D01*
X5986199Y-2284800D02*
G01*
X5986199Y-2282800D01*
X5988299Y-2278699D01*
X5990299Y-2276599D01*
X5994399Y-2274600D01*
X6002600Y-2274600D01*
X6006700Y-2276599D01*
X6008699Y-2278699D01*
X6010799Y-2282800D01*
X6010799Y-2286900D01*
X6008699Y-2290999D01*
X6004600Y-2297100D01*
X5984200Y-2317500D01*
X6012799Y-2317500D01*
X6570699Y-2304800D02*
G01*
X6568599Y-2300700D01*
X6564499Y-2296599D01*
X6560500Y-2294600D01*
X6552299Y-2294600D01*
X6548199Y-2296599D01*
X6544099Y-2300700D01*
X6541999Y-2304800D01*
X6540000Y-2310999D01*
X6540000Y-2321199D01*
X6541999Y-2327300D01*
X6544099Y-2331399D01*
X6548199Y-2335500D01*
X6552299Y-2337500D01*
X6560500Y-2337500D01*
X6564499Y-2335500D01*
X6568599Y-2331399D01*
X6570699Y-2327300D01*
X6588299Y-2294600D02*
G01*
X6610799Y-2294600D01*
X6598500Y-2310999D01*
X6604600Y-2310999D01*
X6608699Y-2313000D01*
X6610799Y-2315000D01*
X6612799Y-2321199D01*
X6612799Y-2325300D01*
X6610799Y-2331399D01*
X6606700Y-2335500D01*
X6600500Y-2337500D01*
X6594399Y-2337500D01*
X6588299Y-2335500D01*
X6586199Y-2333499D01*
X6584200Y-2329400D01*
X5970699Y495199D02*
G01*
X5968599Y499299D01*
X5964499Y503400D01*
X5960500Y505399D01*
X5952299Y505399D01*
X5948199Y503400D01*
X5944099Y499299D01*
X5941999Y495199D01*
X5940000Y489000D01*
X5940000Y478800D01*
X5941999Y472699D01*
X5944099Y468600D01*
X5948199Y464499D01*
X5952299Y462500D01*
X5960500Y462500D01*
X5964499Y464499D01*
X5968599Y468600D01*
X5970699Y472699D01*
X6004600Y505399D02*
G01*
X5984200Y476799D01*
X6014899Y476799D01*
X6004600Y505399D02*
G01*
X6004600Y462500D01*
X6570699Y495199D02*
G01*
X6568599Y499299D01*
X6564499Y503400D01*
X6560500Y505399D01*
X6552299Y505399D01*
X6548199Y503400D01*
X6544099Y499299D01*
X6541999Y495199D01*
X6540000Y489000D01*
X6540000Y478800D01*
X6541999Y472699D01*
X6544099Y468600D01*
X6548199Y464499D01*
X6552299Y462500D01*
X6560500Y462500D01*
X6564499Y464499D01*
X6568599Y468600D01*
X6570699Y472699D01*
X6608699Y505399D02*
G01*
X6588299Y505399D01*
X6586199Y486999D01*
X6588299Y489000D01*
X6594399Y491100D01*
X6600500Y491100D01*
X6606700Y489000D01*
X6610799Y485000D01*
X6612799Y478800D01*
X6612799Y474699D01*
X6610799Y468600D01*
X6606700Y464499D01*
X6600500Y462500D01*
X6594399Y462500D01*
X6588299Y464499D01*
X6586199Y466500D01*
X6584200Y470599D01*
X5360699Y-1304800D02*
G01*
X5358599Y-1300700D01*
X5354499Y-1296599D01*
X5350500Y-1294600D01*
X5342299Y-1294600D01*
X5338199Y-1296599D01*
X5334099Y-1300700D01*
X5331999Y-1304800D01*
X5330000Y-1310999D01*
X5330000Y-1321199D01*
X5331999Y-1327300D01*
X5334099Y-1331399D01*
X5338199Y-1335500D01*
X5342299Y-1337500D01*
X5350500Y-1337500D01*
X5354499Y-1335500D01*
X5358599Y-1331399D01*
X5360699Y-1327300D01*
X5398699Y-1300700D02*
G01*
X5396700Y-1296599D01*
X5390500Y-1294600D01*
X5386499Y-1294600D01*
X5380299Y-1296599D01*
X5376199Y-1302800D01*
X5374200Y-1313000D01*
X5374200Y-1323200D01*
X5376199Y-1331399D01*
X5380299Y-1335500D01*
X5386499Y-1337500D01*
X5388500Y-1337500D01*
X5394600Y-1335500D01*
X5398699Y-1331399D01*
X5400799Y-1325300D01*
X5400799Y-1323200D01*
X5398699Y-1317100D01*
X5394600Y-1313000D01*
X5388500Y-1310999D01*
X5386499Y-1310999D01*
X5380299Y-1313000D01*
X5376199Y-1317100D01*
X5374200Y-1323200D01*
X5370699Y-1564800D02*
G01*
X5368599Y-1560700D01*
X5364499Y-1556599D01*
X5360500Y-1554600D01*
X5352299Y-1554600D01*
X5348199Y-1556599D01*
X5344099Y-1560700D01*
X5341999Y-1564800D01*
X5340000Y-1570999D01*
X5340000Y-1581199D01*
X5341999Y-1587300D01*
X5344099Y-1591399D01*
X5348199Y-1595500D01*
X5352299Y-1597500D01*
X5360500Y-1597500D01*
X5364499Y-1595500D01*
X5368599Y-1591399D01*
X5370699Y-1587300D01*
X5412799Y-1554600D02*
G01*
X5392399Y-1597500D01*
X5384200Y-1554600D02*
G01*
X5412799Y-1554600D01*
X6370699Y-1294800D02*
G01*
X6368599Y-1290700D01*
X6364499Y-1286599D01*
X6360500Y-1284600D01*
X6352299Y-1284600D01*
X6348199Y-1286599D01*
X6344099Y-1290700D01*
X6341999Y-1294800D01*
X6340000Y-1300999D01*
X6340000Y-1311199D01*
X6341999Y-1317300D01*
X6344099Y-1321399D01*
X6348199Y-1325500D01*
X6352299Y-1327500D01*
X6360500Y-1327500D01*
X6364499Y-1325500D01*
X6368599Y-1321399D01*
X6370699Y-1317300D01*
X6394399Y-1284600D02*
G01*
X6388299Y-1286599D01*
X6386199Y-1290700D01*
X6386199Y-1294800D01*
X6388299Y-1298899D01*
X6392399Y-1300999D01*
X6400500Y-1303000D01*
X6406700Y-1305000D01*
X6410799Y-1309099D01*
X6412799Y-1313200D01*
X6412799Y-1319400D01*
X6410799Y-1323499D01*
X6408699Y-1325500D01*
X6402600Y-1327500D01*
X6394399Y-1327500D01*
X6388299Y-1325500D01*
X6386199Y-1323499D01*
X6384200Y-1319400D01*
X6384200Y-1313200D01*
X6386199Y-1309099D01*
X6390299Y-1305000D01*
X6396499Y-1303000D01*
X6404600Y-1300999D01*
X6408699Y-1298899D01*
X6410799Y-1294800D01*
X6410799Y-1290700D01*
X6408699Y-1286599D01*
X6402600Y-1284600D01*
X6394399Y-1284600D01*
X6380699Y-1554800D02*
G01*
X6378599Y-1550700D01*
X6374499Y-1546599D01*
X6370500Y-1544600D01*
X6362299Y-1544600D01*
X6358199Y-1546599D01*
X6354099Y-1550700D01*
X6351999Y-1554800D01*
X6350000Y-1560999D01*
X6350000Y-1571199D01*
X6351999Y-1577300D01*
X6354099Y-1581399D01*
X6358199Y-1585500D01*
X6362299Y-1587500D01*
X6370500Y-1587500D01*
X6374499Y-1585500D01*
X6378599Y-1581399D01*
X6380699Y-1577300D01*
X6420799Y-1558899D02*
G01*
X6418699Y-1565000D01*
X6414600Y-1569099D01*
X6408500Y-1571199D01*
X6406499Y-1571199D01*
X6400299Y-1569099D01*
X6396199Y-1565000D01*
X6394200Y-1558899D01*
X6394200Y-1556900D01*
X6396199Y-1550700D01*
X6400299Y-1546599D01*
X6406499Y-1544600D01*
X6408500Y-1544600D01*
X6414600Y-1546599D01*
X6418699Y-1550700D01*
X6420799Y-1558899D01*
X6420799Y-1569099D01*
X6418699Y-1579400D01*
X6414600Y-1585500D01*
X6408500Y-1587500D01*
X6404399Y-1587500D01*
X6398299Y-1585500D01*
X6396199Y-1581399D01*
X5354200Y-1052699D02*
G01*
X5352100Y-1048600D01*
X5348000Y-1044499D01*
X5343999Y-1042500D01*
X5335799Y-1042500D01*
X5331700Y-1044499D01*
X5327600Y-1048600D01*
X5325500Y-1052699D01*
X5323500Y-1058899D01*
X5323500Y-1069099D01*
X5325500Y-1075199D01*
X5327600Y-1079299D01*
X5331700Y-1083400D01*
X5335799Y-1085399D01*
X5343999Y-1085399D01*
X5348000Y-1083400D01*
X5352100Y-1079299D01*
X5354200Y-1075199D01*
X5367700Y-1050700D02*
G01*
X5371800Y-1048600D01*
X5377900Y-1042500D01*
X5377900Y-1085399D01*
X5403699Y-1042500D02*
G01*
X5397500Y-1044499D01*
X5393500Y-1050700D01*
X5391400Y-1060900D01*
X5391400Y-1066999D01*
X5393500Y-1077300D01*
X5397500Y-1083400D01*
X5403699Y-1085399D01*
X5407799Y-1085399D01*
X5413900Y-1083400D01*
X5418000Y-1077300D01*
X5420000Y-1066999D01*
X5420000Y-1060900D01*
X5418000Y-1050700D01*
X5413900Y-1044499D01*
X5407799Y-1042500D01*
X5403699Y-1042500D01*
X4350699Y-1544800D02*
G01*
X4348599Y-1540700D01*
X4344499Y-1536599D01*
X4340500Y-1534600D01*
X4332299Y-1534600D01*
X4328199Y-1536599D01*
X4324099Y-1540700D01*
X4321999Y-1544800D01*
X4320000Y-1550999D01*
X4320000Y-1561199D01*
X4321999Y-1567300D01*
X4324099Y-1571399D01*
X4328199Y-1575500D01*
X4332299Y-1577500D01*
X4340500Y-1577500D01*
X4344499Y-1575500D01*
X4348599Y-1571399D01*
X4350699Y-1567300D01*
X4364200Y-1542800D02*
G01*
X4368299Y-1540700D01*
X4374399Y-1534600D01*
X4374399Y-1577500D01*
X4387900Y-1542800D02*
G01*
X4391999Y-1540700D01*
X4398100Y-1534600D01*
X4398100Y-1577500D01*
X6370699Y-1034800D02*
G01*
X6368599Y-1030700D01*
X6364499Y-1026599D01*
X6360500Y-1024600D01*
X6352299Y-1024600D01*
X6348199Y-1026599D01*
X6344099Y-1030700D01*
X6341999Y-1034800D01*
X6340000Y-1040999D01*
X6340000Y-1051199D01*
X6341999Y-1057300D01*
X6344099Y-1061399D01*
X6348199Y-1065500D01*
X6352299Y-1067500D01*
X6360500Y-1067500D01*
X6364499Y-1065500D01*
X6368599Y-1061399D01*
X6370699Y-1057300D01*
X6384200Y-1032800D02*
G01*
X6388299Y-1030700D01*
X6394399Y-1024600D01*
X6394399Y-1067500D01*
X6410000Y-1034800D02*
G01*
X6410000Y-1032800D01*
X6411999Y-1028699D01*
X6413999Y-1026599D01*
X6418100Y-1024600D01*
X6426300Y-1024600D01*
X6430400Y-1026599D01*
X6432500Y-1028699D01*
X6434499Y-1032800D01*
X6434499Y-1036900D01*
X6432500Y-1040999D01*
X6428400Y-1047100D01*
X6407900Y-1067500D01*
X6436499Y-1067500D01*
X3930034Y115414D02*
G01*
X3930034Y72514D01*
X3930034Y115414D02*
G01*
X3948434Y115414D01*
X3954534Y113414D01*
X3956634Y111314D01*
X3958635Y107215D01*
X3958635Y103114D01*
X3956634Y99014D01*
X3954534Y97015D01*
X3948434Y95014D01*
X3930034Y95014D01*
X3944335Y95014D02*
G01*
X3958635Y72514D01*
X3996734Y115414D02*
G01*
X3976234Y115414D01*
X3974234Y97015D01*
X3976234Y99014D01*
X3982434Y101114D01*
X3988535Y101114D01*
X3994634Y99014D01*
X3998734Y95014D01*
X4000834Y88814D01*
X4000834Y84715D01*
X3998734Y78614D01*
X3994634Y74515D01*
X3988535Y72514D01*
X3982434Y72514D01*
X3976234Y74515D01*
X3974234Y76514D01*
X3972134Y80614D01*
D23*
X4795490Y-1647714D02*
G01*
X4791890Y-1640414D01*
X4784589Y-1633215D01*
X4777389Y-1629515D01*
X4766390Y-1625915D01*
X4748289Y-1625915D01*
X4737389Y-1629515D01*
X4730090Y-1633215D01*
X4722790Y-1640414D01*
X4719189Y-1647714D01*
X4719189Y-1662314D01*
X4722790Y-1669515D01*
X4730090Y-1676815D01*
X4737389Y-1680414D01*
X4748289Y-1684115D01*
X4766390Y-1684115D01*
X4777389Y-1680414D01*
X4784589Y-1676815D01*
X4791890Y-1669515D01*
X4795490Y-1662314D01*
X4795490Y-1647714D01*
X4795490Y-1708114D02*
G01*
X4740990Y-1708114D01*
X4730090Y-1711714D01*
X4722790Y-1719014D01*
X4719189Y-1729915D01*
X4719189Y-1737215D01*
X4722790Y-1748114D01*
X4730090Y-1755414D01*
X4740990Y-1759014D01*
X4795490Y-1759014D01*
X4795490Y-1808415D02*
G01*
X4719189Y-1808415D01*
X4795490Y-1783015D02*
G01*
X4795490Y-1833915D01*
X4784589Y-1890614D02*
G01*
X4719189Y-1890614D01*
X4751890Y-1857914D02*
G01*
X4751890Y-1923415D01*
X4021790Y-1647680D02*
G01*
X4018190Y-1640380D01*
X4010889Y-1633180D01*
X4003590Y-1629479D01*
X3992690Y-1625880D01*
X3974489Y-1625880D01*
X3963590Y-1629479D01*
X3956289Y-1633180D01*
X3949089Y-1640380D01*
X3945389Y-1647680D01*
X3945389Y-1662280D01*
X3949089Y-1669479D01*
X3956289Y-1676779D01*
X3963590Y-1680380D01*
X3974489Y-1684079D01*
X3992690Y-1684079D01*
X4003590Y-1680380D01*
X4010889Y-1676779D01*
X4018190Y-1669479D01*
X4021790Y-1662280D01*
X4021790Y-1647680D01*
X4021790Y-1708080D02*
G01*
X3967290Y-1708080D01*
X3956289Y-1711680D01*
X3949089Y-1718980D01*
X3945389Y-1729879D01*
X3945389Y-1737179D01*
X3949089Y-1748080D01*
X3956289Y-1755380D01*
X3967290Y-1758980D01*
X4021790Y-1758980D01*
X4021790Y-1808380D02*
G01*
X3945389Y-1808380D01*
X4021790Y-1782979D02*
G01*
X4021790Y-1833879D01*
X3978190Y-1857880D02*
G01*
X3978190Y-1923380D01*
X4032619Y-88335D02*
G01*
X3956220Y-88335D01*
X4032619Y-112334D02*
G01*
X3956220Y-112334D01*
X4032619Y-112334D02*
G01*
X3956220Y-163234D01*
X4032619Y-163234D02*
G01*
X3956220Y-163234D01*
X3989020Y-187235D02*
G01*
X3989020Y-252635D01*
X4791319Y-88369D02*
G01*
X4715020Y-88369D01*
X4791319Y-112370D02*
G01*
X4715020Y-112370D01*
X4791319Y-112370D02*
G01*
X4715020Y-163270D01*
X4791319Y-163270D02*
G01*
X4715020Y-163270D01*
X4780420Y-219969D02*
G01*
X4715020Y-219969D01*
X4747719Y-187269D02*
G01*
X4747719Y-252669D01*
D27*
X4940000Y115414D02*
G01*
X4940000Y72514D01*
X4940000Y115414D02*
G01*
X4958400Y115414D01*
X4964499Y113414D01*
X4966599Y111314D01*
X4968599Y107215D01*
X4968599Y103114D01*
X4966599Y99014D01*
X4964499Y97015D01*
X4958400Y95014D01*
X4940000Y95014D01*
X4954300Y95014D02*
G01*
X4968599Y72514D01*
X5006700Y109315D02*
G01*
X5004600Y113414D01*
X4998500Y115414D01*
X4994399Y115414D01*
X4988299Y113414D01*
X4984200Y107215D01*
X4982100Y97015D01*
X4982100Y86815D01*
X4984200Y78614D01*
X4988299Y74515D01*
X4994399Y72514D01*
X4996499Y72514D01*
X5002600Y74515D01*
X5006700Y78614D01*
X5008699Y84715D01*
X5008699Y86815D01*
X5006700Y92914D01*
X5002600Y97015D01*
X4996499Y99014D01*
X4994399Y99014D01*
X4988299Y97015D01*
X4984200Y92914D01*
X4982100Y86815D01*
X5022200Y90914D02*
G01*
X5058999Y90914D01*
X5072500Y107215D02*
G01*
X5076599Y109315D01*
X5082799Y115414D01*
X5082799Y72514D01*
X5133100Y123614D02*
G01*
X5096300Y58114D01*
X5148599Y105214D02*
G01*
X5148599Y107215D01*
X5150699Y111314D01*
X5152700Y113414D01*
X5156800Y115414D01*
X5165000Y115414D01*
X5169099Y113414D01*
X5171099Y111314D01*
X5173199Y107215D01*
X5173199Y103114D01*
X5171099Y99014D01*
X5166999Y92914D01*
X5146599Y72514D01*
X5175200Y72514D01*
D23*
X5795455Y-1647714D02*
G01*
X5791854Y-1640414D01*
X5784555Y-1633215D01*
X5777354Y-1629515D01*
X5766355Y-1625915D01*
X5748254Y-1625915D01*
X5737354Y-1629515D01*
X5730055Y-1633215D01*
X5722754Y-1640414D01*
X5719155Y-1647714D01*
X5719155Y-1662314D01*
X5722754Y-1669515D01*
X5730055Y-1676815D01*
X5737354Y-1680414D01*
X5748254Y-1684115D01*
X5766355Y-1684115D01*
X5777354Y-1680414D01*
X5784555Y-1676815D01*
X5791854Y-1669515D01*
X5795455Y-1662314D01*
X5795455Y-1647714D01*
X5795455Y-1708114D02*
G01*
X5740955Y-1708114D01*
X5730055Y-1711714D01*
X5722754Y-1719014D01*
X5719155Y-1729915D01*
X5719155Y-1737215D01*
X5722754Y-1748114D01*
X5730055Y-1755414D01*
X5740955Y-1759014D01*
X5795455Y-1759014D01*
X5795455Y-1808415D02*
G01*
X5719155Y-1808415D01*
X5795455Y-1783015D02*
G01*
X5795455Y-1833915D01*
X5784555Y-1890614D02*
G01*
X5719155Y-1890614D01*
X5751854Y-1857914D02*
G01*
X5751854Y-1923415D01*
X5021755Y-1647680D02*
G01*
X5018154Y-1640380D01*
X5010855Y-1633180D01*
X5003554Y-1629479D01*
X4992655Y-1625880D01*
X4974454Y-1625880D01*
X4963554Y-1629479D01*
X4956255Y-1633180D01*
X4949054Y-1640380D01*
X4945355Y-1647680D01*
X4945355Y-1662280D01*
X4949054Y-1669479D01*
X4956255Y-1676779D01*
X4963554Y-1680380D01*
X4974454Y-1684079D01*
X4992655Y-1684079D01*
X5003554Y-1680380D01*
X5010855Y-1676779D01*
X5018154Y-1669479D01*
X5021755Y-1662280D01*
X5021755Y-1647680D01*
X5021755Y-1708080D02*
G01*
X4967254Y-1708080D01*
X4956255Y-1711680D01*
X4949054Y-1718980D01*
X4945355Y-1729879D01*
X4945355Y-1737179D01*
X4949054Y-1748080D01*
X4956255Y-1755380D01*
X4967254Y-1758980D01*
X5021755Y-1758980D01*
X5021755Y-1808380D02*
G01*
X4945355Y-1808380D01*
X5021755Y-1782979D02*
G01*
X5021755Y-1833879D01*
X4978154Y-1857880D02*
G01*
X4978154Y-1923380D01*
X5032584Y-88335D02*
G01*
X4956184Y-88335D01*
X5032584Y-112334D02*
G01*
X4956184Y-112334D01*
X5032584Y-112334D02*
G01*
X4956184Y-163234D01*
X5032584Y-163234D02*
G01*
X4956184Y-163234D01*
X4988985Y-187235D02*
G01*
X4988985Y-252635D01*
X5791284Y-88369D02*
G01*
X5714984Y-88369D01*
X5791284Y-112370D02*
G01*
X5714984Y-112370D01*
X5791284Y-112370D02*
G01*
X5714984Y-163270D01*
X5791284Y-163270D02*
G01*
X5714984Y-163270D01*
X5780384Y-219969D02*
G01*
X5714984Y-219969D01*
X5747685Y-187269D02*
G01*
X5747685Y-252669D01*
D27*
X5940034Y115414D02*
G01*
X5940034Y72514D01*
X5940034Y115414D02*
G01*
X5958434Y115414D01*
X5964534Y113414D01*
X5966634Y111314D01*
X5968635Y107215D01*
X5968635Y103114D01*
X5966634Y99014D01*
X5964534Y97015D01*
X5958434Y95014D01*
X5940034Y95014D01*
X5954335Y95014D02*
G01*
X5968635Y72514D01*
X6006734Y109315D02*
G01*
X6004634Y113414D01*
X5998535Y115414D01*
X5994435Y115414D01*
X5988334Y113414D01*
X5984234Y107215D01*
X5982134Y97015D01*
X5982134Y86815D01*
X5984234Y78614D01*
X5988334Y74515D01*
X5994435Y72514D01*
X5996535Y72514D01*
X6002635Y74515D01*
X6006734Y78614D01*
X6008734Y84715D01*
X6008734Y86815D01*
X6006734Y92914D01*
X6002635Y97015D01*
X5996535Y99014D01*
X5994435Y99014D01*
X5988334Y97015D01*
X5984234Y92914D01*
X5982134Y86815D01*
X6022235Y90914D02*
G01*
X6059035Y90914D01*
X6076634Y115414D02*
G01*
X6099134Y115414D01*
X6086935Y99014D01*
X6093035Y99014D01*
X6097134Y97015D01*
X6099134Y95014D01*
X6101234Y88814D01*
X6101234Y84715D01*
X6099134Y78614D01*
X6095034Y74515D01*
X6088935Y72514D01*
X6082834Y72514D01*
X6076634Y74515D01*
X6074634Y76514D01*
X6072534Y80614D01*
X6151535Y123614D02*
G01*
X6114735Y58114D01*
X6185535Y115414D02*
G01*
X6165034Y86815D01*
X6195735Y86815D01*
X6185535Y115414D02*
G01*
X6185535Y72514D01*
D23*
X5944510Y-352285D02*
G01*
X5948109Y-359585D01*
X5955410Y-366784D01*
X5962610Y-370484D01*
X5973609Y-374085D01*
X5991710Y-374085D01*
X6002610Y-370484D01*
X6009910Y-366784D01*
X6017209Y-359585D01*
X6020810Y-352285D01*
X6020810Y-337685D01*
X6017209Y-330484D01*
X6009910Y-323184D01*
X6002610Y-319585D01*
X5991710Y-315884D01*
X5973609Y-315884D01*
X5962610Y-319585D01*
X5955410Y-323184D01*
X5948109Y-330484D01*
X5944510Y-337685D01*
X5944510Y-352285D01*
X5944510Y-291885D02*
G01*
X5999009Y-291885D01*
X6009910Y-288285D01*
X6017209Y-280985D01*
X6020810Y-270084D01*
X6020810Y-262784D01*
X6017209Y-251885D01*
X6009910Y-244585D01*
X5999009Y-240985D01*
X5944510Y-240985D01*
X5944510Y-191585D02*
G01*
X6020810Y-191585D01*
X5944510Y-216984D02*
G01*
X5944510Y-166084D01*
X5955410Y-109385D02*
G01*
X6020810Y-109385D01*
X5988109Y-142085D02*
G01*
X5988109Y-76585D01*
X6718209Y-352319D02*
G01*
X6721809Y-359619D01*
X6729110Y-366819D01*
X6736409Y-370520D01*
X6747309Y-374119D01*
X6765510Y-374119D01*
X6776409Y-370520D01*
X6783710Y-366819D01*
X6790910Y-359619D01*
X6794610Y-352319D01*
X6794610Y-337719D01*
X6790910Y-330520D01*
X6783710Y-323220D01*
X6776409Y-319619D01*
X6765510Y-315920D01*
X6747309Y-315920D01*
X6736409Y-319619D01*
X6729110Y-323220D01*
X6721809Y-330520D01*
X6718209Y-337719D01*
X6718209Y-352319D01*
X6718209Y-291920D02*
G01*
X6772709Y-291920D01*
X6783710Y-288319D01*
X6790910Y-281019D01*
X6794610Y-270120D01*
X6794610Y-262820D01*
X6790910Y-251920D01*
X6783710Y-244619D01*
X6772709Y-241019D01*
X6718209Y-241019D01*
X6718209Y-191619D02*
G01*
X6794610Y-191619D01*
X6718209Y-217020D02*
G01*
X6718209Y-166120D01*
X6761809Y-142119D02*
G01*
X6761809Y-76619D01*
X6707380Y-1911664D02*
G01*
X6783779Y-1911664D01*
X6707380Y-1887665D02*
G01*
X6783779Y-1887665D01*
X6707380Y-1887665D02*
G01*
X6783779Y-1836765D01*
X6707380Y-1836765D02*
G01*
X6783779Y-1836765D01*
X6750980Y-1812764D02*
G01*
X6750980Y-1747364D01*
X5948680Y-1911630D02*
G01*
X6024979Y-1911630D01*
X5948680Y-1887629D02*
G01*
X6024979Y-1887629D01*
X5948680Y-1887629D02*
G01*
X6024979Y-1836729D01*
X5948680Y-1836729D02*
G01*
X6024979Y-1836729D01*
X5959579Y-1780030D02*
G01*
X6024979Y-1780030D01*
X5992280Y-1812730D02*
G01*
X5992280Y-1747330D01*
D27*
X3453100Y42600D02*
G01*
X3435200Y42600D01*
X3433400Y26500D01*
X3435200Y28299D01*
X3440500Y30100D01*
X3445900Y30100D01*
X3451300Y28299D01*
X3454899Y24699D01*
X3456700Y19400D01*
X3456700Y15799D01*
X3454899Y10399D01*
X3451300Y6799D01*
X3445900Y5000D01*
X3440500Y5000D01*
X3435200Y6799D01*
X3433400Y8600D01*
X3431599Y12199D01*
X3468500Y42600D02*
G01*
X3482799Y5000D01*
X3497100Y42600D02*
G01*
X3482799Y5000D01*
X674499Y-138200D02*
G01*
X660000Y-176399D01*
X674499Y-138200D02*
G01*
X689099Y-176399D01*
X665500Y-163600D02*
G01*
X683600Y-163600D01*
X701100Y-138200D02*
G01*
X701100Y-176399D01*
X701100Y-138200D02*
G01*
X717500Y-138200D01*
X722899Y-140000D01*
X724699Y-141799D01*
X726500Y-145500D01*
X726500Y-149099D01*
X724699Y-152699D01*
X722899Y-154499D01*
X717500Y-156399D01*
X701100Y-156399D01*
X713800Y-156399D02*
G01*
X726500Y-176399D01*
X738499Y-138200D02*
G01*
X738499Y-176399D01*
X738499Y-138200D02*
G01*
X762200Y-138200D01*
X738499Y-156399D02*
G01*
X753099Y-156399D01*
X738499Y-176399D02*
G01*
X762200Y-176399D01*
X774200Y-138200D02*
G01*
X774200Y-176399D01*
X774200Y-138200D02*
G01*
X797799Y-138200D01*
X774200Y-156399D02*
G01*
X788699Y-156399D01*
X847299Y-147300D02*
G01*
X845500Y-143600D01*
X841800Y-140000D01*
X838199Y-138200D01*
X830900Y-138200D01*
X827299Y-140000D01*
X823599Y-143600D01*
X821800Y-147300D01*
X820000Y-152699D01*
X820000Y-161799D01*
X821800Y-167300D01*
X823599Y-170900D01*
X827299Y-174499D01*
X830900Y-176399D01*
X838199Y-176399D01*
X841800Y-174499D01*
X845500Y-170900D01*
X847299Y-167300D01*
X847299Y-161799D01*
X838199Y-161799D02*
G01*
X847299Y-161799D01*
X859300Y-138200D02*
G01*
X859300Y-176399D01*
X859300Y-138200D02*
G01*
X884700Y-176399D01*
X884700Y-138200D02*
G01*
X884700Y-176399D01*
X896700Y-138200D02*
G01*
X896700Y-176399D01*
X896700Y-138200D02*
G01*
X909499Y-138200D01*
X914899Y-140000D01*
X918500Y-143600D01*
X920399Y-147300D01*
X922200Y-152699D01*
X922200Y-161799D01*
X920399Y-167300D01*
X918500Y-170900D01*
X914899Y-174499D01*
X909499Y-176399D01*
X896700Y-176399D01*
X1630000Y-1852199D02*
G01*
X1640000Y-1878499D01*
X1650000Y-1852199D02*
G01*
X1640000Y-1878499D01*
X1658299Y-1852199D02*
G01*
X1659600Y-1853400D01*
X1660799Y-1852199D01*
X1659600Y-1850900D01*
X1658299Y-1852199D01*
X1659600Y-1860999D02*
G01*
X1659600Y-1878499D01*
X1669099Y-1860999D02*
G01*
X1669099Y-1878499D01*
X1669099Y-1865999D02*
G01*
X1672799Y-1862199D01*
X1675299Y-1860999D01*
X1679099Y-1860999D01*
X1681599Y-1862199D01*
X1682899Y-1865999D01*
X1682899Y-1878499D01*
X1528800Y-1858499D02*
G01*
X1527500Y-1855900D01*
X1525000Y-1853400D01*
X1522500Y-1852199D01*
X1517500Y-1852199D01*
X1515000Y-1853400D01*
X1512500Y-1855900D01*
X1511300Y-1858499D01*
X1510000Y-1862199D01*
X1510000Y-1868499D01*
X1511300Y-1872199D01*
X1512500Y-1874699D01*
X1515000Y-1877199D01*
X1517500Y-1878499D01*
X1522500Y-1878499D01*
X1525000Y-1877199D01*
X1527500Y-1874699D01*
X1528800Y-1872199D01*
X1528800Y-1868499D01*
X1522500Y-1868499D02*
G01*
X1528800Y-1868499D01*
X1537100Y-1852199D02*
G01*
X1537100Y-1878499D01*
X1537100Y-1852199D02*
G01*
X1554600Y-1878499D01*
X1554600Y-1852199D02*
G01*
X1554600Y-1878499D01*
X1562899Y-1852199D02*
G01*
X1562899Y-1878499D01*
X1562899Y-1852199D02*
G01*
X1571599Y-1852199D01*
X1575399Y-1853400D01*
X1577899Y-1855900D01*
X1579099Y-1858499D01*
X1580399Y-1862199D01*
X1580399Y-1868499D01*
X1579099Y-1872199D01*
X1577899Y-1874699D01*
X1575399Y-1877199D01*
X1571599Y-1878499D01*
X1562899Y-1878499D01*
X1418800Y-1858499D02*
G01*
X1417500Y-1855900D01*
X1415000Y-1853400D01*
X1412500Y-1852199D01*
X1407500Y-1852199D01*
X1405000Y-1853400D01*
X1402500Y-1855900D01*
X1401300Y-1858499D01*
X1400000Y-1862199D01*
X1400000Y-1868499D01*
X1401300Y-1872199D01*
X1402500Y-1874699D01*
X1405000Y-1877199D01*
X1407500Y-1878499D01*
X1412500Y-1878499D01*
X1415000Y-1877199D01*
X1417500Y-1874699D01*
X1418800Y-1872199D01*
X1418800Y-1868499D01*
X1412500Y-1868499D02*
G01*
X1418800Y-1868499D01*
X1427100Y-1852199D02*
G01*
X1427100Y-1878499D01*
X1427100Y-1852199D02*
G01*
X1444600Y-1878499D01*
X1444600Y-1852199D02*
G01*
X1444600Y-1878499D01*
X1452899Y-1852199D02*
G01*
X1452899Y-1878499D01*
X1452899Y-1852199D02*
G01*
X1461599Y-1852199D01*
X1465399Y-1853400D01*
X1467899Y-1855900D01*
X1469099Y-1858499D01*
X1470399Y-1862199D01*
X1470399Y-1868499D01*
X1469099Y-1872199D01*
X1467899Y-1874699D01*
X1465399Y-1877199D01*
X1461599Y-1878499D01*
X1452899Y-1878499D01*
X1335000Y-1852199D02*
G01*
X1322500Y-1852199D01*
X1321300Y-1863499D01*
X1322500Y-1862199D01*
X1326300Y-1860999D01*
X1330000Y-1860999D01*
X1333800Y-1862199D01*
X1336300Y-1864699D01*
X1337500Y-1868499D01*
X1337500Y-1870999D01*
X1336300Y-1874699D01*
X1333800Y-1877199D01*
X1330000Y-1878499D01*
X1326300Y-1878499D01*
X1322500Y-1877199D01*
X1321300Y-1875999D01*
X1320000Y-1873499D01*
X1345799Y-1852199D02*
G01*
X1355799Y-1878499D01*
X1365799Y-1852199D02*
G01*
X1355799Y-1878499D01*
X1202500Y-1852199D02*
G01*
X1216300Y-1852199D01*
X1208800Y-1862199D01*
X1212500Y-1862199D01*
X1215000Y-1863499D01*
X1216300Y-1864699D01*
X1217500Y-1868499D01*
X1217500Y-1870999D01*
X1216300Y-1874699D01*
X1213800Y-1877199D01*
X1210000Y-1878499D01*
X1206300Y-1878499D01*
X1202500Y-1877199D01*
X1201300Y-1875999D01*
X1200000Y-1873499D01*
X1227100Y-1872199D02*
G01*
X1225799Y-1873499D01*
X1227100Y-1874699D01*
X1228299Y-1873499D01*
X1227100Y-1872199D01*
X1239099Y-1852199D02*
G01*
X1252899Y-1852199D01*
X1245299Y-1862199D01*
X1249099Y-1862199D01*
X1251599Y-1863499D01*
X1252899Y-1864699D01*
X1254099Y-1868499D01*
X1254099Y-1870999D01*
X1252899Y-1874699D01*
X1250399Y-1877199D01*
X1246599Y-1878499D01*
X1242799Y-1878499D01*
X1239099Y-1877199D01*
X1237799Y-1875999D01*
X1236599Y-1873499D01*
X1262399Y-1852199D02*
G01*
X1272399Y-1878499D01*
X1282399Y-1852199D02*
G01*
X1272399Y-1878499D01*
X1051599Y-1854299D02*
G01*
X1051599Y-1880599D01*
X1051599Y-1854299D02*
G01*
X1062899Y-1854299D01*
X1066599Y-1855500D01*
X1067899Y-1856799D01*
X1069099Y-1859299D01*
X1069099Y-1861799D01*
X1067899Y-1864299D01*
X1066599Y-1865599D01*
X1062899Y-1866799D01*
X1051599Y-1866799D01*
X1060399Y-1866799D02*
G01*
X1069099Y-1880599D01*
X1077399Y-1854299D02*
G01*
X1077399Y-1880599D01*
X1077399Y-1854299D02*
G01*
X1093699Y-1854299D01*
X1077399Y-1866799D02*
G01*
X1087399Y-1866799D01*
X1077399Y-1880599D02*
G01*
X1093699Y-1880599D01*
X1119499Y-1858000D02*
G01*
X1116999Y-1855500D01*
X1113199Y-1854299D01*
X1108199Y-1854299D01*
X1104499Y-1855500D01*
X1101999Y-1858000D01*
X1101999Y-1860599D01*
X1103199Y-1863099D01*
X1104499Y-1864299D01*
X1106999Y-1865599D01*
X1114499Y-1868099D01*
X1116999Y-1869299D01*
X1118199Y-1870599D01*
X1119499Y-1873099D01*
X1119499Y-1876799D01*
X1116999Y-1879299D01*
X1113199Y-1880599D01*
X1108199Y-1880599D01*
X1104499Y-1879299D01*
X1101999Y-1876799D01*
X1127799Y-1854299D02*
G01*
X1127799Y-1880599D01*
X1127799Y-1854299D02*
G01*
X1143999Y-1854299D01*
X1127799Y-1866799D02*
G01*
X1137799Y-1866799D01*
X1127799Y-1880599D02*
G01*
X1143999Y-1880599D01*
X1161099Y-1854299D02*
G01*
X1161099Y-1880599D01*
X1152299Y-1854299D02*
G01*
X1169899Y-1854299D01*
X3708400Y-1810300D02*
G01*
X3706700Y-1806700D01*
X3703100Y-1803200D01*
X3699499Y-1801399D01*
X3692299Y-1801399D01*
X3688800Y-1803200D01*
X3685200Y-1806700D01*
X3683400Y-1810300D01*
X3681599Y-1815700D01*
X3681599Y-1824600D01*
X3683400Y-1830000D01*
X3685200Y-1833600D01*
X3688800Y-1837199D01*
X3692299Y-1839000D01*
X3699499Y-1839000D01*
X3703100Y-1837199D01*
X3706700Y-1833600D01*
X3708400Y-1830000D01*
X3708400Y-1824600D01*
X3699499Y-1824600D02*
G01*
X3708400Y-1824600D01*
X3720299Y-1801399D02*
G01*
X3720299Y-1839000D01*
X3720299Y-1801399D02*
G01*
X3745299Y-1839000D01*
X3745299Y-1801399D02*
G01*
X3745299Y-1839000D01*
X3757100Y-1801399D02*
G01*
X3757100Y-1839000D01*
X3757100Y-1801399D02*
G01*
X3769600Y-1801399D01*
X3775000Y-1803200D01*
X3778599Y-1806700D01*
X3780399Y-1810300D01*
X3782200Y-1815700D01*
X3782200Y-1824600D01*
X3780399Y-1830000D01*
X3778599Y-1833600D01*
X3775000Y-1837199D01*
X3769600Y-1839000D01*
X3757100Y-1839000D01*
X3178199Y-1520000D02*
G01*
X3216400Y-1520000D01*
X3178199Y-1520000D02*
G01*
X3178199Y-1507300D01*
X3180000Y-1501799D01*
X3183599Y-1498200D01*
X3187299Y-1496399D01*
X3192700Y-1494499D01*
X3201800Y-1494499D01*
X3207299Y-1496399D01*
X3210900Y-1498200D01*
X3214499Y-1501799D01*
X3216400Y-1507300D01*
X3216400Y-1520000D01*
X3178199Y-1482500D02*
G01*
X3216400Y-1482500D01*
X3187299Y-1443299D02*
G01*
X3183599Y-1445100D01*
X3180000Y-1448699D01*
X3178199Y-1452399D01*
X3178199Y-1459600D01*
X3180000Y-1463299D01*
X3183599Y-1466900D01*
X3187299Y-1468699D01*
X3192700Y-1470500D01*
X3201800Y-1470500D01*
X3207299Y-1468699D01*
X3210900Y-1466900D01*
X3214499Y-1463299D01*
X3216400Y-1459600D01*
X3216400Y-1452399D01*
X3214499Y-1448699D01*
X3210900Y-1445100D01*
X3207299Y-1443299D01*
X3201800Y-1443299D01*
X3201800Y-1452399D02*
G01*
X3201800Y-1443299D01*
X3178199Y-1431300D02*
G01*
X3216400Y-1431300D01*
X3178199Y-1406500D02*
G01*
X3216400Y-1406500D01*
X3178199Y-1419299D02*
G01*
X3178199Y-1393800D01*
X3178199Y-1367300D02*
G01*
X3216400Y-1381799D01*
X3178199Y-1367300D02*
G01*
X3216400Y-1352699D01*
X3203599Y-1376399D02*
G01*
X3203599Y-1358200D01*
X3178199Y-1340700D02*
G01*
X3216400Y-1340700D01*
X3216400Y-1340700D02*
G01*
X3216400Y-1318899D01*
X3424499Y-1848200D02*
G01*
X3410000Y-1886399D01*
X3424499Y-1848200D02*
G01*
X3439099Y-1886399D01*
X3415500Y-1873600D02*
G01*
X3433599Y-1873600D01*
X3451099Y-1855500D02*
G01*
X3454700Y-1853600D01*
X3460200Y-1848200D01*
X3460200Y-1886399D01*
X3493999Y-1848200D02*
G01*
X3475799Y-1848200D01*
X3473999Y-1864499D01*
X3475799Y-1862699D01*
X3481300Y-1860900D01*
X3486700Y-1860900D01*
X3492200Y-1862699D01*
X3495799Y-1866399D01*
X3497600Y-1871799D01*
X3497600Y-1875500D01*
X3495799Y-1880900D01*
X3492200Y-1884499D01*
X3486700Y-1886399D01*
X3481300Y-1886399D01*
X3475799Y-1884499D01*
X3473999Y-1882699D01*
X3472200Y-1879099D01*
X3324499Y-1848200D02*
G01*
X3310000Y-1886399D01*
X3324499Y-1848200D02*
G01*
X3339099Y-1886399D01*
X3315500Y-1873600D02*
G01*
X3333599Y-1873600D01*
X3351099Y-1855500D02*
G01*
X3354700Y-1853600D01*
X3360200Y-1848200D01*
X3360200Y-1886399D01*
X3390399Y-1848200D02*
G01*
X3372200Y-1873600D01*
X3399499Y-1873600D01*
X3390399Y-1848200D02*
G01*
X3390399Y-1886399D01*
X3214499Y-1848200D02*
G01*
X3200000Y-1886399D01*
X3214499Y-1848200D02*
G01*
X3229099Y-1886399D01*
X3205500Y-1873600D02*
G01*
X3223599Y-1873600D01*
X3241099Y-1855500D02*
G01*
X3244700Y-1853600D01*
X3250200Y-1848200D01*
X3250200Y-1886399D01*
X3265799Y-1848200D02*
G01*
X3285799Y-1848200D01*
X3274899Y-1862699D01*
X3280399Y-1862699D01*
X3283999Y-1864499D01*
X3285799Y-1866399D01*
X3287600Y-1871799D01*
X3287600Y-1875500D01*
X3285799Y-1880900D01*
X3282200Y-1884499D01*
X3276700Y-1886399D01*
X3271300Y-1886399D01*
X3265799Y-1884499D01*
X3263999Y-1882699D01*
X3262200Y-1879099D01*
X3104499Y-1848200D02*
G01*
X3090000Y-1886399D01*
X3104499Y-1848200D02*
G01*
X3119099Y-1886399D01*
X3095500Y-1873600D02*
G01*
X3113599Y-1873600D01*
X3131099Y-1855500D02*
G01*
X3134700Y-1853600D01*
X3140200Y-1848200D01*
X3140200Y-1886399D01*
X3153999Y-1857300D02*
G01*
X3153999Y-1855500D01*
X3155799Y-1851799D01*
X3157600Y-1850000D01*
X3161300Y-1848200D01*
X3168500Y-1848200D01*
X3172200Y-1850000D01*
X3173999Y-1851799D01*
X3175799Y-1855500D01*
X3175799Y-1859099D01*
X3173999Y-1862699D01*
X3170399Y-1868200D01*
X3152200Y-1886399D01*
X3177600Y-1886399D01*
X3004499Y-1848200D02*
G01*
X2990000Y-1886399D01*
X3004499Y-1848200D02*
G01*
X3019099Y-1886399D01*
X2995500Y-1873600D02*
G01*
X3013599Y-1873600D01*
X3031099Y-1855500D02*
G01*
X3034700Y-1853600D01*
X3040200Y-1848200D01*
X3040200Y-1886399D01*
X3052200Y-1855500D02*
G01*
X3055799Y-1853600D01*
X3061300Y-1848200D01*
X3061300Y-1886399D01*
X2894499Y-1848200D02*
G01*
X2880000Y-1886399D01*
X2894499Y-1848200D02*
G01*
X2909099Y-1886399D01*
X2885500Y-1873600D02*
G01*
X2903599Y-1873600D01*
X2921099Y-1855500D02*
G01*
X2924700Y-1853600D01*
X2930200Y-1848200D01*
X2930200Y-1886399D01*
X2953100Y-1848200D02*
G01*
X2947600Y-1850000D01*
X2943999Y-1855500D01*
X2942200Y-1864499D01*
X2942200Y-1870000D01*
X2943999Y-1879099D01*
X2947600Y-1884499D01*
X2953100Y-1886399D01*
X2956700Y-1886399D01*
X2962200Y-1884499D01*
X2965799Y-1879099D01*
X2967600Y-1870000D01*
X2967600Y-1864499D01*
X2965799Y-1855500D01*
X2962200Y-1850000D01*
X2956700Y-1848200D01*
X2953100Y-1848200D01*
X2794499Y-1848200D02*
G01*
X2780000Y-1886399D01*
X2794499Y-1848200D02*
G01*
X2809099Y-1886399D01*
X2785500Y-1873600D02*
G01*
X2803599Y-1873600D01*
X2844700Y-1860900D02*
G01*
X2842899Y-1866399D01*
X2839300Y-1870000D01*
X2833800Y-1871799D01*
X2831999Y-1871799D01*
X2826499Y-1870000D01*
X2822899Y-1866399D01*
X2821099Y-1860900D01*
X2821099Y-1859099D01*
X2822899Y-1853600D01*
X2826499Y-1850000D01*
X2831999Y-1848200D01*
X2833800Y-1848200D01*
X2839300Y-1850000D01*
X2842899Y-1853600D01*
X2844700Y-1860900D01*
X2844700Y-1870000D01*
X2842899Y-1879099D01*
X2839300Y-1884499D01*
X2833800Y-1886399D01*
X2830200Y-1886399D01*
X2824700Y-1884499D01*
X2822899Y-1880900D01*
X2694499Y-1848200D02*
G01*
X2680000Y-1886399D01*
X2694499Y-1848200D02*
G01*
X2709099Y-1886399D01*
X2685500Y-1873600D02*
G01*
X2703599Y-1873600D01*
X2730200Y-1848200D02*
G01*
X2724700Y-1850000D01*
X2722899Y-1853600D01*
X2722899Y-1857300D01*
X2724700Y-1860900D01*
X2728400Y-1862699D01*
X2735600Y-1864499D01*
X2741099Y-1866399D01*
X2744700Y-1870000D01*
X2746499Y-1873600D01*
X2746499Y-1879099D01*
X2744700Y-1882699D01*
X2742899Y-1884499D01*
X2737500Y-1886399D01*
X2730200Y-1886399D01*
X2724700Y-1884499D01*
X2722899Y-1882699D01*
X2721099Y-1879099D01*
X2721099Y-1873600D01*
X2722899Y-1870000D01*
X2726499Y-1866399D01*
X2731999Y-1864499D01*
X2739300Y-1862699D01*
X2742899Y-1860900D01*
X2744700Y-1857300D01*
X2744700Y-1853600D01*
X2742899Y-1850000D01*
X2737500Y-1848200D01*
X2730200Y-1848200D01*
X2514499Y-1848200D02*
G01*
X2500000Y-1886399D01*
X2514499Y-1848200D02*
G01*
X2529099Y-1886399D01*
X2505500Y-1873600D02*
G01*
X2523599Y-1873600D01*
X2566499Y-1848200D02*
G01*
X2548400Y-1886399D01*
X2541099Y-1848200D02*
G01*
X2566499Y-1848200D01*
X2414560Y-1849600D02*
G01*
X2399960Y-1887800D01*
X2414560Y-1849600D02*
G01*
X2429059Y-1887800D01*
X2405460Y-1875100D02*
G01*
X2423660Y-1875100D01*
X2462860Y-1855100D02*
G01*
X2461059Y-1851500D01*
X2455659Y-1849600D01*
X2451959Y-1849600D01*
X2446559Y-1851500D01*
X2442860Y-1856900D01*
X2441059Y-1865999D01*
X2441059Y-1875100D01*
X2442860Y-1882399D01*
X2446559Y-1885999D01*
X2451959Y-1887800D01*
X2453860Y-1887800D01*
X2459260Y-1885999D01*
X2462860Y-1882399D01*
X2464759Y-1876900D01*
X2464759Y-1875100D01*
X2462860Y-1869600D01*
X2459260Y-1865999D01*
X2453860Y-1864200D01*
X2451959Y-1864200D01*
X2446559Y-1865999D01*
X2442860Y-1869600D01*
X2441059Y-1875100D01*
X2314499Y-1848200D02*
G01*
X2300000Y-1886399D01*
X2314499Y-1848200D02*
G01*
X2329099Y-1886399D01*
X2305500Y-1873600D02*
G01*
X2323599Y-1873600D01*
X2362899Y-1848200D02*
G01*
X2344700Y-1848200D01*
X2342899Y-1864499D01*
X2344700Y-1862699D01*
X2350200Y-1860900D01*
X2355600Y-1860900D01*
X2361099Y-1862699D01*
X2364700Y-1866399D01*
X2366499Y-1871799D01*
X2366499Y-1875500D01*
X2364700Y-1880900D01*
X2361099Y-1884499D01*
X2355600Y-1886399D01*
X2350200Y-1886399D01*
X2344700Y-1884499D01*
X2342899Y-1882699D01*
X2341099Y-1879099D01*
X2214499Y-1848200D02*
G01*
X2200000Y-1886399D01*
X2214499Y-1848200D02*
G01*
X2229099Y-1886399D01*
X2205500Y-1873600D02*
G01*
X2223599Y-1873600D01*
X2259300Y-1848200D02*
G01*
X2241099Y-1873600D01*
X2268400Y-1873600D01*
X2259300Y-1848200D02*
G01*
X2259300Y-1886399D01*
X2114499Y-1848200D02*
G01*
X2100000Y-1886399D01*
X2114499Y-1848200D02*
G01*
X2129099Y-1886399D01*
X2105500Y-1873600D02*
G01*
X2123599Y-1873600D01*
X2144700Y-1848200D02*
G01*
X2164700Y-1848200D01*
X2153800Y-1862699D01*
X2159300Y-1862699D01*
X2162899Y-1864499D01*
X2164700Y-1866399D01*
X2166499Y-1871799D01*
X2166499Y-1875500D01*
X2164700Y-1880900D01*
X2161099Y-1884499D01*
X2155600Y-1886399D01*
X2150200Y-1886399D01*
X2144700Y-1884499D01*
X2142899Y-1882699D01*
X2141099Y-1879099D01*
X2014499Y-1848200D02*
G01*
X2000000Y-1886399D01*
X2014499Y-1848200D02*
G01*
X2029099Y-1886399D01*
X2005500Y-1873600D02*
G01*
X2023599Y-1873600D01*
X2042899Y-1857300D02*
G01*
X2042899Y-1855500D01*
X2044700Y-1851799D01*
X2046499Y-1850000D01*
X2050200Y-1848200D01*
X2057500Y-1848200D01*
X2061099Y-1850000D01*
X2062899Y-1851799D01*
X2064700Y-1855500D01*
X2064700Y-1859099D01*
X2062899Y-1862699D01*
X2059300Y-1868200D01*
X2041099Y-1886399D01*
X2066499Y-1886399D01*
X1914499Y-1848200D02*
G01*
X1900000Y-1886399D01*
X1914499Y-1848200D02*
G01*
X1929099Y-1886399D01*
X1905500Y-1873600D02*
G01*
X1923599Y-1873600D01*
X1941099Y-1855500D02*
G01*
X1944700Y-1853600D01*
X1950200Y-1848200D01*
X1950200Y-1886399D01*
X1804499Y-1848200D02*
G01*
X1790000Y-1886399D01*
X1804499Y-1848200D02*
G01*
X1819099Y-1886399D01*
X1795500Y-1873600D02*
G01*
X1813599Y-1873600D01*
X1841999Y-1848200D02*
G01*
X1836499Y-1850000D01*
X1832899Y-1855500D01*
X1831099Y-1864499D01*
X1831099Y-1870000D01*
X1832899Y-1879099D01*
X1836499Y-1884499D01*
X1841999Y-1886399D01*
X1845600Y-1886399D01*
X1851099Y-1884499D01*
X1854700Y-1879099D01*
X1856499Y-1870000D01*
X1856499Y-1864499D01*
X1854700Y-1855500D01*
X1851099Y-1850000D01*
X1845600Y-1848200D01*
X1841999Y-1848200D01*
X3723400Y-1654299D02*
G01*
X3705200Y-1654299D01*
X3703400Y-1670599D01*
X3705200Y-1668800D01*
X3710699Y-1666999D01*
X3716099Y-1666999D01*
X3721599Y-1668800D01*
X3725200Y-1672500D01*
X3727100Y-1677899D01*
X3727100Y-1681599D01*
X3725200Y-1686999D01*
X3721599Y-1690599D01*
X3716099Y-1692500D01*
X3710699Y-1692500D01*
X3705200Y-1690599D01*
X3703400Y-1688800D01*
X3701599Y-1685199D01*
X3742700Y-1654299D02*
G01*
X3762700Y-1654299D01*
X3751800Y-1668800D01*
X3757200Y-1668800D01*
X3760900Y-1670599D01*
X3762700Y-1672500D01*
X3764499Y-1677899D01*
X3764499Y-1681599D01*
X3762700Y-1686999D01*
X3759099Y-1690599D01*
X3753599Y-1692500D01*
X3748100Y-1692500D01*
X3742700Y-1690599D01*
X3740900Y-1688800D01*
X3739099Y-1685199D01*
X3726800Y-1567199D02*
G01*
X3708599Y-1567199D01*
X3706800Y-1583499D01*
X3708599Y-1581700D01*
X3714099Y-1579899D01*
X3719499Y-1579899D01*
X3725000Y-1581700D01*
X3728599Y-1585399D01*
X3730500Y-1590799D01*
X3730500Y-1594499D01*
X3728599Y-1599899D01*
X3725000Y-1603499D01*
X3719499Y-1605399D01*
X3714099Y-1605399D01*
X3708599Y-1603499D01*
X3706800Y-1601700D01*
X3705000Y-1598099D01*
X3742500Y-1574499D02*
G01*
X3746099Y-1572600D01*
X3751499Y-1567199D01*
X3751499Y-1605399D01*
X3723199Y-1467199D02*
G01*
X3705000Y-1492600D01*
X3732299Y-1492600D01*
X3723199Y-1467199D02*
G01*
X3723199Y-1505399D01*
X3767899Y-1479899D02*
G01*
X3766099Y-1485399D01*
X3762500Y-1489000D01*
X3756999Y-1490799D01*
X3755200Y-1490799D01*
X3749700Y-1489000D01*
X3746099Y-1485399D01*
X3744300Y-1479899D01*
X3744300Y-1478099D01*
X3746099Y-1472600D01*
X3749700Y-1469000D01*
X3755200Y-1467199D01*
X3756999Y-1467199D01*
X3762500Y-1469000D01*
X3766099Y-1472600D01*
X3767899Y-1479899D01*
X3767899Y-1489000D01*
X3766099Y-1498099D01*
X3762500Y-1503499D01*
X3756999Y-1505399D01*
X3753400Y-1505399D01*
X3747899Y-1503499D01*
X3746099Y-1499899D01*
X3723199Y-1367199D02*
G01*
X3705000Y-1392600D01*
X3732299Y-1392600D01*
X3723199Y-1367199D02*
G01*
X3723199Y-1405399D01*
X3769700Y-1367199D02*
G01*
X3751499Y-1405399D01*
X3744300Y-1367199D02*
G01*
X3769700Y-1367199D01*
X3723199Y-1267199D02*
G01*
X3705000Y-1292600D01*
X3732299Y-1292600D01*
X3723199Y-1267199D02*
G01*
X3723199Y-1305399D01*
X3766099Y-1267199D02*
G01*
X3747899Y-1267199D01*
X3746099Y-1283499D01*
X3747899Y-1281700D01*
X3753400Y-1279899D01*
X3758800Y-1279899D01*
X3764300Y-1281700D01*
X3767899Y-1285399D01*
X3769700Y-1290799D01*
X3769700Y-1294499D01*
X3767899Y-1299899D01*
X3764300Y-1303499D01*
X3758800Y-1305399D01*
X3753400Y-1305399D01*
X3747899Y-1303499D01*
X3746099Y-1301700D01*
X3744300Y-1298099D01*
X3723199Y-1167199D02*
G01*
X3705000Y-1192600D01*
X3732299Y-1192600D01*
X3723199Y-1167199D02*
G01*
X3723199Y-1205399D01*
X3747899Y-1167199D02*
G01*
X3767899Y-1167199D01*
X3756999Y-1181700D01*
X3762500Y-1181700D01*
X3766099Y-1183499D01*
X3767899Y-1185399D01*
X3769700Y-1190799D01*
X3769700Y-1194499D01*
X3767899Y-1199899D01*
X3764300Y-1203499D01*
X3758800Y-1205399D01*
X3753400Y-1205399D01*
X3747899Y-1203499D01*
X3746099Y-1201700D01*
X3744300Y-1198099D01*
X3723199Y-1067199D02*
G01*
X3705000Y-1092600D01*
X3732299Y-1092600D01*
X3723199Y-1067199D02*
G01*
X3723199Y-1105399D01*
X3744300Y-1074499D02*
G01*
X3747899Y-1072600D01*
X3753400Y-1067199D01*
X3753400Y-1105399D01*
X3708599Y-967199D02*
G01*
X3728599Y-967199D01*
X3717700Y-981700D01*
X3723199Y-981700D01*
X3726800Y-983499D01*
X3728599Y-985399D01*
X3730500Y-990799D01*
X3730500Y-994499D01*
X3728599Y-999899D01*
X3725000Y-1003499D01*
X3719499Y-1005399D01*
X3714099Y-1005399D01*
X3708599Y-1003499D01*
X3706800Y-1001700D01*
X3705000Y-998099D01*
X3766099Y-979899D02*
G01*
X3764300Y-985399D01*
X3760600Y-989000D01*
X3755200Y-990799D01*
X3753400Y-990799D01*
X3747899Y-989000D01*
X3744300Y-985399D01*
X3742500Y-979899D01*
X3742500Y-978099D01*
X3744300Y-972600D01*
X3747899Y-969000D01*
X3753400Y-967199D01*
X3755200Y-967199D01*
X3760600Y-969000D01*
X3764300Y-972600D01*
X3766099Y-979899D01*
X3766099Y-989000D01*
X3764300Y-998099D01*
X3760600Y-1003499D01*
X3755200Y-1005399D01*
X3751499Y-1005399D01*
X3746099Y-1003499D01*
X3744300Y-999899D01*
X3708599Y-867199D02*
G01*
X3728599Y-867199D01*
X3717700Y-881700D01*
X3723199Y-881700D01*
X3726800Y-883499D01*
X3728599Y-885399D01*
X3730500Y-890799D01*
X3730500Y-894499D01*
X3728599Y-899899D01*
X3725000Y-903499D01*
X3719499Y-905399D01*
X3714099Y-905399D01*
X3708599Y-903499D01*
X3706800Y-901700D01*
X3705000Y-898099D01*
X3767899Y-867199D02*
G01*
X3749700Y-905399D01*
X3742500Y-867199D02*
G01*
X3767899Y-867199D01*
X3708599Y-767199D02*
G01*
X3728599Y-767199D01*
X3717700Y-781700D01*
X3723199Y-781700D01*
X3726800Y-783499D01*
X3728599Y-785399D01*
X3730500Y-790799D01*
X3730500Y-794499D01*
X3728599Y-799899D01*
X3725000Y-803499D01*
X3719499Y-805399D01*
X3714099Y-805399D01*
X3708599Y-803499D01*
X3706800Y-801700D01*
X3705000Y-798099D01*
X3764300Y-767199D02*
G01*
X3746099Y-767199D01*
X3744300Y-783499D01*
X3746099Y-781700D01*
X3751499Y-779899D01*
X3756999Y-779899D01*
X3762500Y-781700D01*
X3766099Y-785399D01*
X3767899Y-790799D01*
X3767899Y-794499D01*
X3766099Y-799899D01*
X3762500Y-803499D01*
X3756999Y-805399D01*
X3751499Y-805399D01*
X3746099Y-803499D01*
X3744300Y-801700D01*
X3742500Y-798099D01*
X3708599Y-667199D02*
G01*
X3728599Y-667199D01*
X3717700Y-681700D01*
X3723199Y-681700D01*
X3726800Y-683499D01*
X3728599Y-685399D01*
X3730500Y-690799D01*
X3730500Y-694499D01*
X3728599Y-699899D01*
X3725000Y-703499D01*
X3719499Y-705399D01*
X3714099Y-705399D01*
X3708599Y-703499D01*
X3706800Y-701700D01*
X3705000Y-698099D01*
X3746099Y-667199D02*
G01*
X3766099Y-667199D01*
X3755200Y-681700D01*
X3760600Y-681700D01*
X3764300Y-683499D01*
X3766099Y-685399D01*
X3767899Y-690799D01*
X3767899Y-694499D01*
X3766099Y-699899D01*
X3762500Y-703499D01*
X3756999Y-705399D01*
X3751499Y-705399D01*
X3746099Y-703499D01*
X3744300Y-701700D01*
X3742500Y-698099D01*
X3708599Y-567199D02*
G01*
X3728599Y-567199D01*
X3717700Y-581700D01*
X3723199Y-581700D01*
X3726800Y-583499D01*
X3728599Y-585399D01*
X3730500Y-590799D01*
X3730500Y-594499D01*
X3728599Y-599899D01*
X3725000Y-603499D01*
X3719499Y-605399D01*
X3714099Y-605399D01*
X3708599Y-603499D01*
X3706800Y-601700D01*
X3705000Y-598099D01*
X3742500Y-574499D02*
G01*
X3746099Y-572600D01*
X3751499Y-567199D01*
X3751499Y-605399D01*
X3384399Y-1655300D02*
G01*
X3366199Y-1655300D01*
X3364399Y-1671599D01*
X3366199Y-1669800D01*
X3371700Y-1668000D01*
X3377100Y-1668000D01*
X3382600Y-1669800D01*
X3386199Y-1673499D01*
X3388100Y-1678899D01*
X3388100Y-1682600D01*
X3386199Y-1688000D01*
X3382600Y-1691599D01*
X3377100Y-1693499D01*
X3371700Y-1693499D01*
X3366199Y-1691599D01*
X3364399Y-1689800D01*
X3362600Y-1686199D01*
X3401899Y-1664400D02*
G01*
X3401899Y-1662600D01*
X3403699Y-1658899D01*
X3405500Y-1657100D01*
X3409099Y-1655300D01*
X3416400Y-1655300D01*
X3420100Y-1657100D01*
X3421899Y-1658899D01*
X3423699Y-1662600D01*
X3423699Y-1666199D01*
X3421899Y-1669800D01*
X3418199Y-1675300D01*
X3400100Y-1693499D01*
X3425500Y-1693499D01*
X3379200Y-1468200D02*
G01*
X3361000Y-1493600D01*
X3388299Y-1493600D01*
X3379200Y-1468200D02*
G01*
X3379200Y-1506399D01*
X3409399Y-1468200D02*
G01*
X3403900Y-1470000D01*
X3402100Y-1473600D01*
X3402100Y-1477300D01*
X3403900Y-1480900D01*
X3407500Y-1482699D01*
X3414799Y-1484499D01*
X3420299Y-1486399D01*
X3423900Y-1490000D01*
X3425699Y-1493600D01*
X3425699Y-1499099D01*
X3423900Y-1502699D01*
X3422100Y-1504499D01*
X3416599Y-1506399D01*
X3409399Y-1506399D01*
X3403900Y-1504499D01*
X3402100Y-1502699D01*
X3400299Y-1499099D01*
X3400299Y-1493600D01*
X3402100Y-1490000D01*
X3405699Y-1486399D01*
X3411199Y-1484499D01*
X3418500Y-1482699D01*
X3422100Y-1480900D01*
X3423900Y-1477300D01*
X3423900Y-1473600D01*
X3422100Y-1470000D01*
X3416599Y-1468200D01*
X3409399Y-1468200D01*
X3382799Y-1568200D02*
G01*
X3364600Y-1568200D01*
X3362799Y-1584499D01*
X3364600Y-1582699D01*
X3370100Y-1580900D01*
X3375500Y-1580900D01*
X3381000Y-1582699D01*
X3384600Y-1586399D01*
X3386499Y-1591799D01*
X3386499Y-1595500D01*
X3384600Y-1600900D01*
X3381000Y-1604499D01*
X3375500Y-1606399D01*
X3370100Y-1606399D01*
X3364600Y-1604499D01*
X3362799Y-1602699D01*
X3361000Y-1599099D01*
X3409399Y-1568200D02*
G01*
X3403900Y-1570000D01*
X3400299Y-1575500D01*
X3398500Y-1584499D01*
X3398500Y-1590000D01*
X3400299Y-1599099D01*
X3403900Y-1604499D01*
X3409399Y-1606399D01*
X3413000Y-1606399D01*
X3418500Y-1604499D01*
X3422100Y-1599099D01*
X3423900Y-1590000D01*
X3423900Y-1584499D01*
X3422100Y-1575500D01*
X3418500Y-1570000D01*
X3413000Y-1568200D01*
X3409399Y-1568200D01*
X3379200Y-1368200D02*
G01*
X3361000Y-1393600D01*
X3388299Y-1393600D01*
X3379200Y-1368200D02*
G01*
X3379200Y-1406399D01*
X3422100Y-1373600D02*
G01*
X3420299Y-1370000D01*
X3414799Y-1368200D01*
X3411199Y-1368200D01*
X3405699Y-1370000D01*
X3402100Y-1375500D01*
X3400299Y-1384499D01*
X3400299Y-1393600D01*
X3402100Y-1400900D01*
X3405699Y-1404499D01*
X3411199Y-1406399D01*
X3413000Y-1406399D01*
X3418500Y-1404499D01*
X3422100Y-1400900D01*
X3423900Y-1395500D01*
X3423900Y-1393600D01*
X3422100Y-1388200D01*
X3418500Y-1384499D01*
X3413000Y-1382699D01*
X3411199Y-1382699D01*
X3405699Y-1384499D01*
X3402100Y-1388200D01*
X3400299Y-1393600D01*
X3379200Y-1268200D02*
G01*
X3361000Y-1293600D01*
X3388299Y-1293600D01*
X3379200Y-1268200D02*
G01*
X3379200Y-1306399D01*
X3418500Y-1268200D02*
G01*
X3400299Y-1293600D01*
X3427500Y-1293600D01*
X3418500Y-1268200D02*
G01*
X3418500Y-1306399D01*
X3379200Y-1168200D02*
G01*
X3361000Y-1193600D01*
X3388299Y-1193600D01*
X3379200Y-1168200D02*
G01*
X3379200Y-1206399D01*
X3402100Y-1177300D02*
G01*
X3402100Y-1175500D01*
X3403900Y-1171799D01*
X3405699Y-1170000D01*
X3409399Y-1168200D01*
X3416599Y-1168200D01*
X3420299Y-1170000D01*
X3422100Y-1171799D01*
X3423900Y-1175500D01*
X3423900Y-1179099D01*
X3422100Y-1182699D01*
X3418500Y-1188200D01*
X3400299Y-1206399D01*
X3425699Y-1206399D01*
X3379200Y-1068200D02*
G01*
X3361000Y-1093600D01*
X3388299Y-1093600D01*
X3379200Y-1068200D02*
G01*
X3379200Y-1106399D01*
X3411199Y-1068200D02*
G01*
X3405699Y-1070000D01*
X3402100Y-1075500D01*
X3400299Y-1084499D01*
X3400299Y-1090000D01*
X3402100Y-1099099D01*
X3405699Y-1104499D01*
X3411199Y-1106399D01*
X3414799Y-1106399D01*
X3420299Y-1104499D01*
X3423900Y-1099099D01*
X3425699Y-1090000D01*
X3425699Y-1084499D01*
X3423900Y-1075500D01*
X3420299Y-1070000D01*
X3414799Y-1068200D01*
X3411199Y-1068200D01*
X3364600Y-968200D02*
G01*
X3384600Y-968200D01*
X3373699Y-982699D01*
X3379200Y-982699D01*
X3382799Y-984499D01*
X3384600Y-986399D01*
X3386499Y-991799D01*
X3386499Y-995500D01*
X3384600Y-1000900D01*
X3381000Y-1004499D01*
X3375500Y-1006399D01*
X3370100Y-1006399D01*
X3364600Y-1004499D01*
X3362799Y-1002699D01*
X3361000Y-999099D01*
X3407500Y-968200D02*
G01*
X3402100Y-970000D01*
X3400299Y-973600D01*
X3400299Y-977300D01*
X3402100Y-980900D01*
X3405699Y-982699D01*
X3413000Y-984499D01*
X3418500Y-986399D01*
X3422100Y-990000D01*
X3423900Y-993600D01*
X3423900Y-999099D01*
X3422100Y-1002699D01*
X3420299Y-1004499D01*
X3414799Y-1006399D01*
X3407500Y-1006399D01*
X3402100Y-1004499D01*
X3400299Y-1002699D01*
X3398500Y-999099D01*
X3398500Y-993600D01*
X3400299Y-990000D01*
X3403900Y-986399D01*
X3409399Y-984499D01*
X3416599Y-982699D01*
X3420299Y-980900D01*
X3422100Y-977300D01*
X3422100Y-973600D01*
X3420299Y-970000D01*
X3414799Y-968200D01*
X3407500Y-968200D01*
X3364600Y-868200D02*
G01*
X3384600Y-868200D01*
X3373699Y-882699D01*
X3379200Y-882699D01*
X3382799Y-884499D01*
X3384600Y-886399D01*
X3386499Y-891799D01*
X3386499Y-895500D01*
X3384600Y-900900D01*
X3381000Y-904499D01*
X3375500Y-906399D01*
X3370100Y-906399D01*
X3364600Y-904499D01*
X3362799Y-902699D01*
X3361000Y-899099D01*
X3420299Y-873600D02*
G01*
X3418500Y-870000D01*
X3413000Y-868200D01*
X3409399Y-868200D01*
X3403900Y-870000D01*
X3400299Y-875500D01*
X3398500Y-884499D01*
X3398500Y-893600D01*
X3400299Y-900900D01*
X3403900Y-904499D01*
X3409399Y-906399D01*
X3411199Y-906399D01*
X3416599Y-904499D01*
X3420299Y-900900D01*
X3422100Y-895500D01*
X3422100Y-893600D01*
X3420299Y-888200D01*
X3416599Y-884499D01*
X3411199Y-882699D01*
X3409399Y-882699D01*
X3403900Y-884499D01*
X3400299Y-888200D01*
X3398500Y-893600D01*
X3364600Y-768200D02*
G01*
X3384600Y-768200D01*
X3373699Y-782699D01*
X3379200Y-782699D01*
X3382799Y-784499D01*
X3384600Y-786399D01*
X3386499Y-791799D01*
X3386499Y-795500D01*
X3384600Y-800900D01*
X3381000Y-804499D01*
X3375500Y-806399D01*
X3370100Y-806399D01*
X3364600Y-804499D01*
X3362799Y-802699D01*
X3361000Y-799099D01*
X3416599Y-768200D02*
G01*
X3398500Y-793600D01*
X3425699Y-793600D01*
X3416599Y-768200D02*
G01*
X3416599Y-806399D01*
X3364600Y-668200D02*
G01*
X3384600Y-668200D01*
X3373699Y-682699D01*
X3379200Y-682699D01*
X3382799Y-684499D01*
X3384600Y-686399D01*
X3386499Y-691799D01*
X3386499Y-695500D01*
X3384600Y-700900D01*
X3381000Y-704499D01*
X3375500Y-706399D01*
X3370100Y-706399D01*
X3364600Y-704499D01*
X3362799Y-702699D01*
X3361000Y-699099D01*
X3400299Y-677300D02*
G01*
X3400299Y-675500D01*
X3402100Y-671799D01*
X3403900Y-670000D01*
X3407500Y-668200D01*
X3414799Y-668200D01*
X3418500Y-670000D01*
X3420299Y-671799D01*
X3422100Y-675500D01*
X3422100Y-679099D01*
X3420299Y-682699D01*
X3416599Y-688200D01*
X3398500Y-706399D01*
X3423900Y-706399D01*
X3364600Y-568200D02*
G01*
X3384600Y-568200D01*
X3373699Y-582699D01*
X3379200Y-582699D01*
X3382799Y-584499D01*
X3384600Y-586399D01*
X3386499Y-591799D01*
X3386499Y-595500D01*
X3384600Y-600900D01*
X3381000Y-604499D01*
X3375500Y-606399D01*
X3370100Y-606399D01*
X3364600Y-604499D01*
X3362799Y-602699D01*
X3361000Y-599099D01*
X3409399Y-568200D02*
G01*
X3403900Y-570000D01*
X3400299Y-575500D01*
X3398500Y-584499D01*
X3398500Y-590000D01*
X3400299Y-599099D01*
X3403900Y-604499D01*
X3409399Y-606399D01*
X3413000Y-606399D01*
X3418500Y-604499D01*
X3422100Y-599099D01*
X3423900Y-590000D01*
X3423900Y-584499D01*
X3422100Y-575500D01*
X3418500Y-570000D01*
X3413000Y-568200D01*
X3409399Y-568200D01*
X3362799Y-477300D02*
G01*
X3362799Y-475500D01*
X3364600Y-471799D01*
X3366499Y-470000D01*
X3370100Y-468200D01*
X3377399Y-468200D01*
X3381000Y-470000D01*
X3382799Y-471799D01*
X3384600Y-475500D01*
X3384600Y-479099D01*
X3382799Y-482699D01*
X3379200Y-488200D01*
X3361000Y-506399D01*
X3386499Y-506399D01*
X3407500Y-468200D02*
G01*
X3402100Y-470000D01*
X3400299Y-473600D01*
X3400299Y-477300D01*
X3402100Y-480900D01*
X3405699Y-482699D01*
X3413000Y-484499D01*
X3418500Y-486399D01*
X3422100Y-490000D01*
X3423900Y-493600D01*
X3423900Y-499099D01*
X3422100Y-502699D01*
X3420299Y-504499D01*
X3414799Y-506399D01*
X3407500Y-506399D01*
X3402100Y-504499D01*
X3400299Y-502699D01*
X3398500Y-499099D01*
X3398500Y-493600D01*
X3400299Y-490000D01*
X3403900Y-486399D01*
X3409399Y-484499D01*
X3416599Y-482699D01*
X3420299Y-480900D01*
X3422100Y-477300D01*
X3422100Y-473600D01*
X3420299Y-470000D01*
X3414799Y-468200D01*
X3407500Y-468200D01*
X3362799Y-377300D02*
G01*
X3362799Y-375500D01*
X3364600Y-371799D01*
X3366499Y-370000D01*
X3370100Y-368200D01*
X3377399Y-368200D01*
X3381000Y-370000D01*
X3382799Y-371799D01*
X3384600Y-375500D01*
X3384600Y-379099D01*
X3382799Y-382699D01*
X3379200Y-388200D01*
X3361000Y-406399D01*
X3386499Y-406399D01*
X3420299Y-373600D02*
G01*
X3418500Y-370000D01*
X3413000Y-368200D01*
X3409399Y-368200D01*
X3403900Y-370000D01*
X3400299Y-375500D01*
X3398500Y-384499D01*
X3398500Y-393600D01*
X3400299Y-400900D01*
X3403900Y-404499D01*
X3409399Y-406399D01*
X3411199Y-406399D01*
X3416599Y-404499D01*
X3420299Y-400900D01*
X3422100Y-395500D01*
X3422100Y-393600D01*
X3420299Y-388200D01*
X3416599Y-384499D01*
X3411199Y-382699D01*
X3409399Y-382699D01*
X3403900Y-384499D01*
X3400299Y-388200D01*
X3398500Y-393600D01*
X3362799Y-277300D02*
G01*
X3362799Y-275500D01*
X3364600Y-271799D01*
X3366499Y-270000D01*
X3370100Y-268200D01*
X3377399Y-268200D01*
X3381000Y-270000D01*
X3382799Y-271799D01*
X3384600Y-275500D01*
X3384600Y-279099D01*
X3382799Y-282699D01*
X3379200Y-288200D01*
X3361000Y-306399D01*
X3386499Y-306399D01*
X3416599Y-268200D02*
G01*
X3398500Y-293600D01*
X3425699Y-293600D01*
X3416599Y-268200D02*
G01*
X3416599Y-306399D01*
X3362799Y-177300D02*
G01*
X3362799Y-175500D01*
X3364600Y-171799D01*
X3366499Y-170000D01*
X3370100Y-168200D01*
X3377399Y-168200D01*
X3381000Y-170000D01*
X3382799Y-171799D01*
X3384600Y-175500D01*
X3384600Y-179099D01*
X3382799Y-182699D01*
X3379200Y-188200D01*
X3361000Y-206399D01*
X3386499Y-206399D01*
X3400299Y-177300D02*
G01*
X3400299Y-175500D01*
X3402100Y-171799D01*
X3403900Y-170000D01*
X3407500Y-168200D01*
X3414799Y-168200D01*
X3418500Y-170000D01*
X3420299Y-171799D01*
X3422100Y-175500D01*
X3422100Y-179099D01*
X3420299Y-182699D01*
X3416599Y-188200D01*
X3398500Y-206399D01*
X3423900Y-206399D01*
X3211800Y-137300D02*
G01*
X3211800Y-135500D01*
X3213599Y-131799D01*
X3215500Y-130000D01*
X3219099Y-128200D01*
X3226400Y-128200D01*
X3230000Y-130000D01*
X3231800Y-131799D01*
X3233599Y-135500D01*
X3233599Y-139099D01*
X3231800Y-142699D01*
X3228199Y-148200D01*
X3210000Y-166399D01*
X3235500Y-166399D01*
X3247500Y-135500D02*
G01*
X3251099Y-133600D01*
X3256499Y-128200D01*
X3256499Y-166399D01*
X3101800Y-137300D02*
G01*
X3101800Y-135500D01*
X3103599Y-131799D01*
X3105500Y-130000D01*
X3109099Y-128200D01*
X3116400Y-128200D01*
X3120000Y-130000D01*
X3121800Y-131799D01*
X3123599Y-135500D01*
X3123599Y-139099D01*
X3121800Y-142699D01*
X3118199Y-148200D01*
X3100000Y-166399D01*
X3125500Y-166399D01*
X3148400Y-128200D02*
G01*
X3142899Y-130000D01*
X3139300Y-135500D01*
X3137500Y-144499D01*
X3137500Y-150000D01*
X3139300Y-159099D01*
X3142899Y-164499D01*
X3148400Y-166399D01*
X3151999Y-166399D01*
X3157500Y-164499D01*
X3161099Y-159099D01*
X3162899Y-150000D01*
X3162899Y-144499D01*
X3161099Y-135500D01*
X3157500Y-130000D01*
X3151999Y-128200D01*
X3148400Y-128200D01*
X3010000Y-135500D02*
G01*
X3013599Y-133600D01*
X3019099Y-128200D01*
X3019099Y-166399D01*
X3054700Y-140900D02*
G01*
X3052899Y-146399D01*
X3049300Y-150000D01*
X3043800Y-151799D01*
X3041999Y-151799D01*
X3036499Y-150000D01*
X3032899Y-146399D01*
X3031099Y-140900D01*
X3031099Y-139099D01*
X3032899Y-133600D01*
X3036499Y-130000D01*
X3041999Y-128200D01*
X3043800Y-128200D01*
X3049300Y-130000D01*
X3052899Y-133600D01*
X3054700Y-140900D01*
X3054700Y-150000D01*
X3052899Y-159099D01*
X3049300Y-164499D01*
X3043800Y-166399D01*
X3040200Y-166399D01*
X3034700Y-164499D01*
X3032899Y-160900D01*
X2910000Y-135500D02*
G01*
X2913599Y-133600D01*
X2919099Y-128200D01*
X2919099Y-166399D01*
X2940200Y-128200D02*
G01*
X2934700Y-130000D01*
X2932899Y-133600D01*
X2932899Y-137300D01*
X2934700Y-140900D01*
X2938400Y-142699D01*
X2945600Y-144499D01*
X2951099Y-146399D01*
X2954700Y-150000D01*
X2956499Y-153600D01*
X2956499Y-159099D01*
X2954700Y-162699D01*
X2952899Y-164499D01*
X2947500Y-166399D01*
X2940200Y-166399D01*
X2934700Y-164499D01*
X2932899Y-162699D01*
X2931099Y-159099D01*
X2931099Y-153600D01*
X2932899Y-150000D01*
X2936499Y-146399D01*
X2941999Y-144499D01*
X2949300Y-142699D01*
X2952899Y-140900D01*
X2954700Y-137300D01*
X2954700Y-133600D01*
X2952899Y-130000D01*
X2947500Y-128200D01*
X2940200Y-128200D01*
X2810000Y-135500D02*
G01*
X2813599Y-133600D01*
X2819099Y-128200D01*
X2819099Y-166399D01*
X2856499Y-128200D02*
G01*
X2838400Y-166399D01*
X2831099Y-128200D02*
G01*
X2856499Y-128200D01*
X2710000Y-135500D02*
G01*
X2713599Y-133600D01*
X2719099Y-128200D01*
X2719099Y-166399D01*
X2752899Y-133600D02*
G01*
X2751099Y-130000D01*
X2745600Y-128200D01*
X2741999Y-128200D01*
X2736499Y-130000D01*
X2732899Y-135500D01*
X2731099Y-144499D01*
X2731099Y-153600D01*
X2732899Y-160900D01*
X2736499Y-164499D01*
X2741999Y-166399D01*
X2743800Y-166399D01*
X2749300Y-164499D01*
X2752899Y-160900D01*
X2754700Y-155500D01*
X2754700Y-153600D01*
X2752899Y-148200D01*
X2749300Y-144499D01*
X2743800Y-142699D01*
X2741999Y-142699D01*
X2736499Y-144499D01*
X2732899Y-148200D01*
X2731099Y-153600D01*
X2610000Y-135500D02*
G01*
X2613599Y-133600D01*
X2619099Y-128200D01*
X2619099Y-166399D01*
X2652899Y-128200D02*
G01*
X2634700Y-128200D01*
X2632899Y-144499D01*
X2634700Y-142699D01*
X2640200Y-140900D01*
X2645600Y-140900D01*
X2651099Y-142699D01*
X2654700Y-146399D01*
X2656499Y-151799D01*
X2656499Y-155500D01*
X2654700Y-160900D01*
X2651099Y-164499D01*
X2645600Y-166399D01*
X2640200Y-166399D01*
X2634700Y-164499D01*
X2632899Y-162699D01*
X2631099Y-159099D01*
X2510000Y-135500D02*
G01*
X2513599Y-133600D01*
X2519099Y-128200D01*
X2519099Y-166399D01*
X2549300Y-128200D02*
G01*
X2531099Y-153600D01*
X2558400Y-153600D01*
X2549300Y-128200D02*
G01*
X2549300Y-166399D01*
X950000Y-145500D02*
G01*
X953599Y-143600D01*
X959099Y-138200D01*
X959099Y-176399D01*
X974700Y-138200D02*
G01*
X994700Y-138200D01*
X983800Y-152699D01*
X989300Y-152699D01*
X992899Y-154499D01*
X994700Y-156399D01*
X996499Y-161799D01*
X996499Y-165500D01*
X994700Y-170900D01*
X991099Y-174499D01*
X985600Y-176399D01*
X980200Y-176399D01*
X974700Y-174499D01*
X972899Y-172699D01*
X971099Y-169099D01*
X1050000Y-145500D02*
G01*
X1053599Y-143600D01*
X1059099Y-138200D01*
X1059099Y-176399D01*
X1072899Y-147300D02*
G01*
X1072899Y-145500D01*
X1074700Y-141799D01*
X1076499Y-140000D01*
X1080200Y-138200D01*
X1087500Y-138200D01*
X1091099Y-140000D01*
X1092899Y-141799D01*
X1094700Y-145500D01*
X1094700Y-149099D01*
X1092899Y-152699D01*
X1089300Y-158200D01*
X1071099Y-176399D01*
X1096499Y-176399D01*
X1160000Y-145500D02*
G01*
X1163599Y-143600D01*
X1169099Y-138200D01*
X1169099Y-176399D01*
X1181099Y-145500D02*
G01*
X1184700Y-143600D01*
X1190200Y-138200D01*
X1190200Y-176399D01*
X1250000Y-145500D02*
G01*
X1253599Y-143600D01*
X1259099Y-138200D01*
X1259099Y-176399D01*
X1281999Y-138200D02*
G01*
X1276499Y-140000D01*
X1272899Y-145500D01*
X1271099Y-154499D01*
X1271099Y-160000D01*
X1272899Y-169099D01*
X1276499Y-174499D01*
X1281999Y-176399D01*
X1285600Y-176399D01*
X1291099Y-174499D01*
X1294700Y-169099D01*
X1296499Y-160000D01*
X1296499Y-154499D01*
X1294700Y-145500D01*
X1291099Y-140000D01*
X1285600Y-138200D01*
X1281999Y-138200D01*
X1383599Y-150900D02*
G01*
X1381800Y-156399D01*
X1378199Y-160000D01*
X1372700Y-161799D01*
X1370900Y-161799D01*
X1365500Y-160000D01*
X1361800Y-156399D01*
X1360000Y-150900D01*
X1360000Y-149099D01*
X1361800Y-143600D01*
X1365500Y-140000D01*
X1370900Y-138200D01*
X1372700Y-138200D01*
X1378199Y-140000D01*
X1381800Y-143600D01*
X1383599Y-150900D01*
X1383599Y-160000D01*
X1381800Y-169099D01*
X1378199Y-174499D01*
X1372700Y-176399D01*
X1369099Y-176399D01*
X1363599Y-174499D01*
X1361800Y-170900D01*
X1469099Y-138200D02*
G01*
X1463599Y-140000D01*
X1461800Y-143600D01*
X1461800Y-147300D01*
X1463599Y-150900D01*
X1467299Y-152699D01*
X1474499Y-154499D01*
X1480000Y-156399D01*
X1483599Y-160000D01*
X1485500Y-163600D01*
X1485500Y-169099D01*
X1483599Y-172699D01*
X1481800Y-174499D01*
X1476400Y-176399D01*
X1469099Y-176399D01*
X1463599Y-174499D01*
X1461800Y-172699D01*
X1460000Y-169099D01*
X1460000Y-163600D01*
X1461800Y-160000D01*
X1465500Y-156399D01*
X1470900Y-154499D01*
X1478199Y-152699D01*
X1481800Y-150900D01*
X1483599Y-147300D01*
X1483599Y-143600D01*
X1481800Y-140000D01*
X1476400Y-138200D01*
X1469099Y-138200D01*
X1645500Y-138200D02*
G01*
X1627299Y-176399D01*
X1620000Y-138200D02*
G01*
X1645500Y-138200D01*
X1741800Y-143600D02*
G01*
X1740000Y-140000D01*
X1734499Y-138200D01*
X1730900Y-138200D01*
X1725500Y-140000D01*
X1721800Y-145500D01*
X1720000Y-154499D01*
X1720000Y-163600D01*
X1721800Y-170900D01*
X1725500Y-174499D01*
X1730900Y-176399D01*
X1732700Y-176399D01*
X1738199Y-174499D01*
X1741800Y-170900D01*
X1743599Y-165500D01*
X1743599Y-163600D01*
X1741800Y-158200D01*
X1738199Y-154499D01*
X1732700Y-152699D01*
X1730900Y-152699D01*
X1725500Y-154499D01*
X1721800Y-158200D01*
X1720000Y-163600D01*
X1841800Y-138200D02*
G01*
X1823599Y-138200D01*
X1821800Y-154499D01*
X1823599Y-152699D01*
X1829099Y-150900D01*
X1834499Y-150900D01*
X1840000Y-152699D01*
X1843599Y-156399D01*
X1845500Y-161799D01*
X1845500Y-165500D01*
X1843599Y-170900D01*
X1840000Y-174499D01*
X1834499Y-176399D01*
X1829099Y-176399D01*
X1823599Y-174499D01*
X1821800Y-172699D01*
X1820000Y-169099D01*
X1938199Y-138200D02*
G01*
X1920000Y-163600D01*
X1947299Y-163600D01*
X1938199Y-138200D02*
G01*
X1938199Y-176399D01*
X2033599Y-138200D02*
G01*
X2053599Y-138200D01*
X2042700Y-152699D01*
X2048199Y-152699D01*
X2051800Y-154499D01*
X2053599Y-156399D01*
X2055500Y-161799D01*
X2055500Y-165500D01*
X2053599Y-170900D01*
X2050000Y-174499D01*
X2044499Y-176399D01*
X2039099Y-176399D01*
X2033599Y-174499D01*
X2031800Y-172699D01*
X2030000Y-169099D01*
X2121800Y-147300D02*
G01*
X2121800Y-145500D01*
X2123599Y-141799D01*
X2125500Y-140000D01*
X2129099Y-138200D01*
X2136400Y-138200D01*
X2140000Y-140000D01*
X2141800Y-141799D01*
X2143599Y-145500D01*
X2143599Y-149099D01*
X2141800Y-152699D01*
X2138199Y-158200D01*
X2120000Y-176399D01*
X2145500Y-176399D01*
X2220000Y-145500D02*
G01*
X2223599Y-143600D01*
X2229099Y-138200D01*
X2229099Y-176399D01*
X2330900Y-138200D02*
G01*
X2325500Y-140000D01*
X2321800Y-145500D01*
X2320000Y-154499D01*
X2320000Y-160000D01*
X2321800Y-169099D01*
X2325500Y-174499D01*
X2330900Y-176399D01*
X2334499Y-176399D01*
X2340000Y-174499D01*
X2343599Y-169099D01*
X2345500Y-160000D01*
X2345500Y-154499D01*
X2343599Y-145500D01*
X2340000Y-140000D01*
X2334499Y-138200D01*
X2330900Y-138200D01*
X935060Y-1942199D02*
G01*
X922460Y-1942199D01*
X921260Y-1953499D01*
X922460Y-1952199D01*
X926260Y-1950999D01*
X930060Y-1950999D01*
X933760Y-1952199D01*
X936260Y-1954699D01*
X937560Y-1958499D01*
X937560Y-1960999D01*
X936260Y-1964699D01*
X933760Y-1967199D01*
X930060Y-1968499D01*
X926260Y-1968499D01*
X922460Y-1967199D01*
X921260Y-1965999D01*
X919960Y-1963499D01*
X945760Y-1942199D02*
G01*
X955860Y-1968499D01*
X965860Y-1942199D02*
G01*
X955860Y-1968499D01*
X4350699Y-1294800D02*
G01*
X4348599Y-1290700D01*
X4344499Y-1286599D01*
X4340500Y-1284600D01*
X4332299Y-1284600D01*
X4328199Y-1286599D01*
X4324099Y-1290700D01*
X4321999Y-1294800D01*
X4320000Y-1300999D01*
X4320000Y-1311199D01*
X4321999Y-1317300D01*
X4324099Y-1321399D01*
X4328199Y-1325500D01*
X4332299Y-1327500D01*
X4340500Y-1327500D01*
X4344499Y-1325500D01*
X4348599Y-1321399D01*
X4350699Y-1317300D01*
X4364200Y-1292800D02*
G01*
X4368299Y-1290700D01*
X4374399Y-1284600D01*
X4374399Y-1327500D01*
X4391999Y-1284600D02*
G01*
X4414499Y-1284600D01*
X4402200Y-1300999D01*
X4408400Y-1300999D01*
X4412500Y-1303000D01*
X4414499Y-1305000D01*
X4416499Y-1311199D01*
X4416499Y-1315300D01*
X4414499Y-1321399D01*
X4410400Y-1325500D01*
X4404300Y-1327500D01*
X4398100Y-1327500D01*
X4391999Y-1325500D01*
X4390000Y-1323499D01*
X4387900Y-1319400D01*
X4350699Y-1044800D02*
G01*
X4348599Y-1040700D01*
X4344499Y-1036599D01*
X4340500Y-1034600D01*
X4332299Y-1034600D01*
X4328199Y-1036599D01*
X4324099Y-1040700D01*
X4321999Y-1044800D01*
X4320000Y-1050999D01*
X4320000Y-1061199D01*
X4321999Y-1067300D01*
X4324099Y-1071399D01*
X4328199Y-1075500D01*
X4332299Y-1077500D01*
X4340500Y-1077500D01*
X4344499Y-1075500D01*
X4348599Y-1071399D01*
X4350699Y-1067300D01*
X4364200Y-1042800D02*
G01*
X4368299Y-1040700D01*
X4374399Y-1034600D01*
X4374399Y-1077500D01*
X4408400Y-1034600D02*
G01*
X4387900Y-1063200D01*
X4418599Y-1063200D01*
X4408400Y-1034600D02*
G01*
X4408400Y-1077500D01*
X5160000Y805399D02*
G01*
X5160000Y774699D01*
X5161999Y768600D01*
X5166099Y764499D01*
X5172299Y762500D01*
X5176400Y762500D01*
X5182500Y764499D01*
X5186599Y768600D01*
X5188599Y774699D01*
X5188599Y805399D01*
X5202100Y797199D02*
G01*
X5206199Y799299D01*
X5212399Y805399D01*
X5212399Y762500D01*
D23*
X4070190Y636911D02*
G01*
X4070190Y580511D01*
X4070190Y636911D02*
G01*
X4094290Y636911D01*
X4102389Y634211D01*
X4105090Y631511D01*
X4107690Y626210D01*
X4107690Y618110D01*
X4105090Y612710D01*
X4102389Y610111D01*
X4094290Y607411D01*
X4070190Y607411D01*
X4125490Y636911D02*
G01*
X4138890Y580511D01*
X4152290Y636911D02*
G01*
X4138890Y580511D01*
X4152290Y636911D02*
G01*
X4165690Y580511D01*
X4179189Y636911D02*
G01*
X4165690Y580511D01*
X4196890Y636911D02*
G01*
X4196890Y580511D01*
X4196890Y636911D02*
G01*
X4218289Y580511D01*
X4239790Y636911D02*
G01*
X4218289Y580511D01*
X4239790Y636911D02*
G01*
X4239790Y580511D01*
X4110452Y395151D02*
G01*
X4107753Y400551D01*
X4102353Y405850D01*
X4096953Y408551D01*
X4086252Y408551D01*
X4080852Y405850D01*
X4075553Y400551D01*
X4072852Y395151D01*
X4070153Y387051D01*
X4070153Y373650D01*
X4072852Y365650D01*
X4075553Y360250D01*
X4080852Y354850D01*
X4086252Y352150D01*
X4096953Y352150D01*
X4102353Y354850D01*
X4107753Y360250D01*
X4110452Y365650D01*
X4110452Y373650D01*
X4096953Y373650D02*
G01*
X4110452Y373650D01*
X4128153Y408551D02*
G01*
X4128153Y352150D01*
X4128153Y408551D02*
G01*
X4165753Y352150D01*
X4165753Y408551D02*
G01*
X4165753Y352150D01*
X4183452Y408551D02*
G01*
X4183452Y352150D01*
X4183452Y408551D02*
G01*
X4202253Y408551D01*
X4210253Y405850D01*
X4215653Y400551D01*
X4218352Y395151D01*
X4221053Y387051D01*
X4221053Y373650D01*
X4218352Y365650D01*
X4215653Y360250D01*
X4210253Y354850D01*
X4202253Y352150D01*
X4183452Y352150D01*
X4976851Y592065D02*
G01*
X4976853Y531966D01*
X4995752Y592065D02*
G01*
X4995752Y531966D01*
X4995752Y592065D02*
G01*
X5035852Y531966D01*
X5035852Y592065D02*
G01*
X5035852Y531966D01*
X5054751Y557766D02*
G01*
X5106252Y557766D01*
X4778815Y590974D02*
G01*
X4778815Y534573D01*
X4796516Y590974D02*
G01*
X4796516Y534573D01*
X4796516Y590974D02*
G01*
X4834116Y534573D01*
X4834116Y590974D02*
G01*
X4834116Y534573D01*
X4876016Y582874D02*
G01*
X4876016Y534573D01*
X4851815Y558773D02*
G01*
X4900115Y558773D01*
X4780045Y458607D02*
G01*
X4780045Y402206D01*
X4780045Y458607D02*
G01*
X4801544Y402206D01*
X4822945Y458607D02*
G01*
X4801544Y402206D01*
X4822945Y458607D02*
G01*
X4822945Y402206D01*
X4864844Y450506D02*
G01*
X4864844Y402206D01*
X4840645Y426406D02*
G01*
X4889044Y426406D01*
X4975703Y457269D02*
G01*
X4975703Y400869D01*
X4975703Y457269D02*
G01*
X4997202Y400869D01*
X5018603Y457269D02*
G01*
X4997202Y400869D01*
X5018603Y457269D02*
G01*
X5018603Y400869D01*
X5036403Y425070D02*
G01*
X5084702Y425070D01*
D22*
X1600000Y-1170000D02*
G01*
X1500000Y-1170000D01*
X1500000Y-670000D01*
X1600000Y-670000D01*
X1600000Y-1170000D01*
X1780000Y-1170000D02*
G01*
X1680000Y-1170000D01*
X1680000Y-670000D01*
X1780000Y-670000D01*
X1780000Y-1170000D01*
X1680000Y-2160000D02*
G01*
X880000Y-2160000D01*
X880000Y-2160000D02*
G01*
X880000Y-2060000D01*
X1680000Y-2160000D02*
G01*
X1680000Y-2060000D01*
X1270000Y-2060000D01*
X880000Y-2060000D01*
X2580000Y-2160000D02*
G01*
X1780000Y-2160000D01*
X1780000Y-2160000D02*
G01*
X1780000Y-2060000D01*
X2580000Y-2160000D02*
G01*
X2580000Y-2060000D01*
X2170000Y-2060000D01*
X1780000Y-2060000D01*
X3300000Y-1720000D02*
G01*
X2500000Y-1720000D01*
X2500000Y-1720000D02*
G01*
X2500000Y-1620000D01*
X3300000Y-1720000D02*
G01*
X3300000Y-1620000D01*
X2890000Y-1620000D01*
X2500000Y-1620000D01*
X2480000Y150000D02*
G01*
X3280000Y150000D01*
X3280000Y150000D02*
G01*
X3280000Y50000D01*
X2480000Y150000D02*
G01*
X2480000Y50000D01*
X2890000Y50000D01*
X3280000Y50000D01*
X1580000Y150000D02*
G01*
X2380000Y150000D01*
X2380000Y150000D02*
G01*
X2380000Y50000D01*
X1580000Y150000D02*
G01*
X1580000Y50000D01*
X1990000Y50000D01*
X2380000Y50000D01*
D23*
X595000Y150000D02*
G01*
X520000Y150000D01*
X520000Y50000D01*
X1520000Y50000D01*
X1520000Y150000D01*
D24*
X1520000Y150000D02*
G01*
X595000Y150000D01*
D23*
X800000Y-1425000D02*
G01*
X800000Y-1500000D01*
X900000Y-1500000D01*
X900000Y-500000D01*
X800000Y-500000D01*
D24*
X800000Y-500000D02*
G01*
X800000Y-1425000D01*
D23*
X1210000Y-1425000D02*
G01*
X1210000Y-1500000D01*
X1310000Y-1500000D01*
X1310000Y-500000D01*
X1210000Y-500000D01*
D24*
X1210000Y-500000D02*
G01*
X1210000Y-1425000D01*
D23*
X3060000Y-1425000D02*
G01*
X3060000Y-1500000D01*
X3160000Y-1500000D01*
X3160000Y-500000D01*
X3060000Y-500000D01*
D24*
X3060000Y-500000D02*
G01*
X3060000Y-1425000D01*
D23*
X1060000Y-1425000D02*
G01*
X1060000Y-1500000D01*
X1160000Y-1500000D01*
X1160000Y-500000D01*
X1060000Y-500000D01*
D24*
X1060000Y-500000D02*
G01*
X1060000Y-1425000D01*
D23*
X640000Y-1425000D02*
G01*
X640000Y-1500000D01*
X740000Y-1500000D01*
X740000Y-500000D01*
X640000Y-500000D01*
D24*
X640000Y-500000D02*
G01*
X640000Y-1425000D01*
D22*
X1500000Y-1720000D02*
G01*
X700000Y-1720000D01*
X700000Y-1720000D02*
G01*
X700000Y-1620000D01*
X1500000Y-1720000D02*
G01*
X1500000Y-1620000D01*
X1090000Y-1620000D01*
X700000Y-1620000D01*
X2390000Y-1720000D02*
G01*
X1590000Y-1720000D01*
X1590000Y-1720000D02*
G01*
X1590000Y-1620000D01*
X2390000Y-1720000D02*
G01*
X2390000Y-1620000D01*
X1980000Y-1620000D01*
X1590000Y-1620000D01*
D23*
X595000Y-200000D02*
G01*
X520000Y-200000D01*
X520000Y-300000D01*
X1520000Y-300000D01*
X1520000Y-200000D01*
D24*
X1520000Y-200000D02*
G01*
X595000Y-200000D01*
D22*
X1580000Y-200000D02*
G01*
X2380000Y-200000D01*
X2380000Y-200000D02*
G01*
X2380000Y-300000D01*
X1580000Y-200000D02*
G01*
X1580000Y-300000D01*
X1990000Y-300000D01*
X2380000Y-300000D01*
X2480000Y-200000D02*
G01*
X3280000Y-200000D01*
X3280000Y-200000D02*
G01*
X3280000Y-300000D01*
X2480000Y-200000D02*
G01*
X2480000Y-300000D01*
X2890000Y-300000D01*
X3280000Y-300000D01*
X3835510Y-2618822D02*
G01*
X4224489Y-2618822D01*
X3833150Y-2818422D02*
G01*
X4226848Y-2818422D01*
X3833150Y-2524333D02*
G01*
X4226848Y-2524333D01*
X3833150Y-2839290D02*
G01*
X4226848Y-2839290D01*
X4226848Y-2524333D02*
G01*
X4226848Y-2839290D01*
X3833150Y-2524333D02*
G01*
X3833150Y-2839290D01*
X4223702Y-2390468D02*
G01*
X3834723Y-2390468D01*
X4226061Y-2190870D02*
G01*
X3832359Y-2190870D01*
X4226061Y-2484958D02*
G01*
X3832359Y-2484958D01*
X4226061Y-2170000D02*
G01*
X3832359Y-2170000D01*
X3832359Y-2484958D02*
G01*
X3832359Y-2170000D01*
X4226061Y-2484958D02*
G01*
X4226061Y-2170000D01*
X5130000Y-2209400D02*
G01*
X5130000Y-2209400D01*
X5130000Y-2209400D01*
X5130000Y-2839299D01*
X3830799Y-2839299D01*
X3830799Y-2170000D01*
X5130000Y-2170000D01*
X5130000Y-2209400D01*
X5007950Y-2721179D02*
G01*
X4907950Y-2721179D01*
X4907950Y-2288110D01*
X5007950Y-2288110D01*
X5007950Y-2721179D01*
X5130000Y-2721179D02*
G01*
X5007160Y-2721179D01*
X5007160Y-2288110D01*
X5130000Y-2288110D01*
X5130000Y-2721179D01*
X5007950Y-2506619D02*
G01*
X4913459Y-2506619D01*
X4913459Y-2502680D01*
X5007950Y-2502680D01*
X5007950Y-2506619D01*
X276849Y-1043150D02*
G01*
X-38110Y-1043150D01*
X276849Y-1436849D02*
G01*
X-38110Y-1436849D01*
X-38110Y-1043150D02*
G01*
X-38110Y-1436849D01*
X276849Y-1043150D02*
G01*
X276849Y-1436849D01*
X-17240Y-1043150D02*
G01*
X-17240Y-1436849D01*
X182359Y-1045509D02*
G01*
X182359Y-1434490D01*
X5820000Y-2683000D02*
G01*
X6140000Y-2683000D01*
X5820000Y-2556999D02*
G01*
X6140000Y-2556999D01*
X5820000Y-2556999D02*
G01*
X5820000Y-2683000D01*
X6140000Y-2556999D02*
G01*
X6140000Y-2683000D01*
X6420000Y-2683000D02*
G01*
X6740000Y-2683000D01*
X6420000Y-2556999D02*
G01*
X6740000Y-2556999D01*
X6420000Y-2556999D02*
G01*
X6420000Y-2683000D01*
X6740000Y-2556999D02*
G01*
X6740000Y-2683000D01*
X5820000Y546999D02*
G01*
X6140000Y546999D01*
X5820000Y673000D02*
G01*
X6140000Y673000D01*
X5820000Y673000D02*
G01*
X5820000Y546999D01*
X6140000Y673000D02*
G01*
X6140000Y546999D01*
X6420000Y546999D02*
G01*
X6740000Y546999D01*
X6420000Y673000D02*
G01*
X6740000Y673000D01*
X6420000Y673000D02*
G01*
X6420000Y546999D01*
X6740000Y673000D02*
G01*
X6740000Y546999D01*
D25*
X22100Y-720025D02*
G01*
X537899Y-720025D01*
X22100Y-718425D02*
G01*
X537899Y-718425D01*
X22100Y-716824D02*
G01*
X537899Y-716824D01*
X22199Y-715324D02*
G01*
X537800Y-715324D01*
X22199Y-713724D02*
G01*
X537800Y-713724D01*
X22199Y-712125D02*
G01*
X537800Y-712125D01*
X22300Y-710524D02*
G01*
X537699Y-710524D01*
X22300Y-709025D02*
G01*
X537699Y-709025D01*
X22399Y-707424D02*
G01*
X537600Y-707424D01*
X22500Y-705824D02*
G01*
X537500Y-705824D01*
X22600Y-704225D02*
G01*
X537399Y-704225D01*
X22699Y-702725D02*
G01*
X537300Y-702725D01*
X22800Y-701125D02*
G01*
X537199Y-701125D01*
X22899Y-699524D02*
G01*
X537100Y-699524D01*
X23000Y-697925D02*
G01*
X536999Y-697925D01*
X23200Y-696424D02*
G01*
X536799Y-696424D01*
X23299Y-694825D02*
G01*
X536700Y-694825D01*
X23499Y-693225D02*
G01*
X536500Y-693225D01*
X23699Y-691624D02*
G01*
X536300Y-691624D01*
X23800Y-690025D02*
G01*
X536199Y-690025D01*
X24000Y-688425D02*
G01*
X535999Y-688425D01*
X24200Y-686925D02*
G01*
X535799Y-686925D01*
X24400Y-685324D02*
G01*
X535599Y-685324D01*
X24600Y-683724D02*
G01*
X535399Y-683724D01*
X24899Y-682125D02*
G01*
X535100Y-682125D01*
X25100Y-680625D02*
G01*
X534899Y-680625D01*
X25399Y-679025D02*
G01*
X534600Y-679025D01*
X25599Y-677424D02*
G01*
X534400Y-677424D01*
X25900Y-675824D02*
G01*
X225700Y-675824D01*
X334299Y-675824D02*
G01*
X534099Y-675824D01*
X26100Y-674324D02*
G01*
X225700Y-674324D01*
X334299Y-674324D02*
G01*
X533899Y-674324D01*
X26500Y-672725D02*
G01*
X225700Y-672725D01*
X334299Y-672725D02*
G01*
X533499Y-672725D01*
X26700Y-671125D02*
G01*
X225700Y-671125D01*
X334299Y-671125D02*
G01*
X533299Y-671125D01*
X26999Y-669524D02*
G01*
X225700Y-669524D01*
X334299Y-669524D02*
G01*
X533000Y-669524D01*
X27399Y-668024D02*
G01*
X225700Y-668024D01*
X334299Y-668024D02*
G01*
X532600Y-668024D01*
X27699Y-666424D02*
G01*
X225700Y-666424D01*
X334299Y-666424D02*
G01*
X532300Y-666424D01*
X28000Y-664825D02*
G01*
X225700Y-664825D01*
X334299Y-664825D02*
G01*
X531999Y-664825D01*
X28400Y-663225D02*
G01*
X225700Y-663225D01*
X334299Y-663225D02*
G01*
X531599Y-663225D01*
X28699Y-661725D02*
G01*
X225700Y-661725D01*
X334299Y-661725D02*
G01*
X531300Y-661725D01*
X29099Y-660124D02*
G01*
X225700Y-660124D01*
X334299Y-660124D02*
G01*
X530900Y-660124D01*
X29499Y-658524D02*
G01*
X225700Y-658524D01*
X334299Y-658524D02*
G01*
X530500Y-658524D01*
X29899Y-656925D02*
G01*
X225700Y-656925D01*
X334299Y-656925D02*
G01*
X530100Y-656925D01*
X30300Y-655425D02*
G01*
X225700Y-655425D01*
X334299Y-655425D02*
G01*
X529699Y-655425D01*
X30700Y-653825D02*
G01*
X225700Y-653825D01*
X334299Y-653825D02*
G01*
X529299Y-653825D01*
X31100Y-652224D02*
G01*
X225700Y-652224D01*
X334299Y-652224D02*
G01*
X528899Y-652224D01*
X31500Y-650625D02*
G01*
X225700Y-650625D01*
X334299Y-650625D02*
G01*
X528499Y-650625D01*
X31999Y-649124D02*
G01*
X225700Y-649124D01*
X334299Y-649124D02*
G01*
X528000Y-649124D01*
X32399Y-647525D02*
G01*
X225700Y-647525D01*
X334299Y-647525D02*
G01*
X527600Y-647525D01*
X32899Y-645925D02*
G01*
X225700Y-645925D01*
X334299Y-645925D02*
G01*
X527100Y-645925D01*
X33299Y-644324D02*
G01*
X225700Y-644324D01*
X334299Y-644324D02*
G01*
X526700Y-644324D01*
X33899Y-642824D02*
G01*
X225700Y-642824D01*
X334299Y-642824D02*
G01*
X526100Y-642824D01*
X34299Y-641224D02*
G01*
X225700Y-641224D01*
X334299Y-641224D02*
G01*
X525700Y-641224D01*
X34800Y-639625D02*
G01*
X225700Y-639625D01*
X334299Y-639625D02*
G01*
X525199Y-639625D01*
X35399Y-638024D02*
G01*
X225700Y-638024D01*
X334299Y-638024D02*
G01*
X524600Y-638024D01*
X35900Y-636525D02*
G01*
X225700Y-636525D01*
X334299Y-636525D02*
G01*
X524099Y-636525D01*
X36500Y-634924D02*
G01*
X225700Y-634924D01*
X334299Y-634924D02*
G01*
X523499Y-634924D01*
X36999Y-633324D02*
G01*
X225700Y-633324D01*
X334299Y-633324D02*
G01*
X523000Y-633324D01*
X37600Y-631725D02*
G01*
X225700Y-631725D01*
X334299Y-631725D02*
G01*
X522399Y-631725D01*
X38099Y-630225D02*
G01*
X225700Y-630225D01*
X334299Y-630225D02*
G01*
X521900Y-630225D01*
X38699Y-628625D02*
G01*
X225700Y-628625D01*
X334299Y-628625D02*
G01*
X521300Y-628625D01*
X39299Y-627024D02*
G01*
X225700Y-627024D01*
X334299Y-627024D02*
G01*
X520700Y-627024D01*
X39899Y-625425D02*
G01*
X225700Y-625425D01*
X334299Y-625425D02*
G01*
X520100Y-625425D01*
X40599Y-623924D02*
G01*
X225700Y-623924D01*
X334299Y-623924D02*
G01*
X519400Y-623924D01*
X41199Y-622325D02*
G01*
X225700Y-622325D01*
X334299Y-622325D02*
G01*
X518800Y-622325D01*
X41799Y-620725D02*
G01*
X225700Y-620725D01*
X334299Y-620725D02*
G01*
X518200Y-620725D01*
X42500Y-619124D02*
G01*
X225700Y-619124D01*
X334299Y-619124D02*
G01*
X517500Y-619124D01*
X43200Y-617624D02*
G01*
X225700Y-617624D01*
X334299Y-617624D02*
G01*
X516900Y-617624D01*
X43800Y-616024D02*
G01*
X225700Y-616024D01*
X334299Y-616024D02*
G01*
X516199Y-616024D01*
X44499Y-614425D02*
G01*
X225700Y-614425D01*
X334299Y-614425D02*
G01*
X515500Y-614425D01*
X45199Y-612824D02*
G01*
X225700Y-612824D01*
X334299Y-612824D02*
G01*
X514800Y-612824D01*
X45900Y-611325D02*
G01*
X225700Y-611325D01*
X334299Y-611325D02*
G01*
X514099Y-611325D01*
X46700Y-609724D02*
G01*
X225700Y-609724D01*
X334299Y-609724D02*
G01*
X513299Y-609724D01*
X47399Y-608125D02*
G01*
X225700Y-608125D01*
X334299Y-608125D02*
G01*
X512600Y-608125D01*
X48200Y-606525D02*
G01*
X225700Y-606525D01*
X334299Y-606525D02*
G01*
X511799Y-606525D01*
X49000Y-605025D02*
G01*
X225700Y-605025D01*
X334299Y-605025D02*
G01*
X510999Y-605025D01*
X49800Y-603425D02*
G01*
X225700Y-603425D01*
X334299Y-603425D02*
G01*
X510199Y-603425D01*
X50599Y-601824D02*
G01*
X225700Y-601824D01*
X334299Y-601824D02*
G01*
X509400Y-601824D01*
X51399Y-600324D02*
G01*
X225700Y-600324D01*
X334299Y-600324D02*
G01*
X508600Y-600324D01*
X52199Y-598724D02*
G01*
X225700Y-598724D01*
X334299Y-598724D02*
G01*
X507800Y-598724D01*
X53000Y-597125D02*
G01*
X225700Y-597125D01*
X334299Y-597125D02*
G01*
X506999Y-597125D01*
X53899Y-595524D02*
G01*
X225700Y-595524D01*
X334299Y-595524D02*
G01*
X506100Y-595524D01*
X54800Y-594025D02*
G01*
X225700Y-594025D01*
X334299Y-594025D02*
G01*
X505199Y-594025D01*
X55599Y-592424D02*
G01*
X225700Y-592424D01*
X334299Y-592424D02*
G01*
X504400Y-592424D01*
X56500Y-590824D02*
G01*
X225700Y-590824D01*
X334299Y-590824D02*
G01*
X503499Y-590824D01*
X57399Y-589225D02*
G01*
X225700Y-589225D01*
X334299Y-589225D02*
G01*
X502600Y-589225D01*
X58299Y-587725D02*
G01*
X225700Y-587725D01*
X334299Y-587725D02*
G01*
X501700Y-587725D01*
X59299Y-586125D02*
G01*
X225700Y-586125D01*
X334299Y-586125D02*
G01*
X500700Y-586125D01*
X60300Y-584524D02*
G01*
X225700Y-584524D01*
X334299Y-584524D02*
G01*
X499699Y-584524D01*
X61199Y-582925D02*
G01*
X225700Y-582925D01*
X334299Y-582925D02*
G01*
X498800Y-582925D01*
X62199Y-581424D02*
G01*
X225700Y-581424D01*
X334299Y-581424D02*
G01*
X497800Y-581424D01*
X63200Y-579825D02*
G01*
X225700Y-579825D01*
X334299Y-579825D02*
G01*
X496799Y-579825D01*
X64299Y-578225D02*
G01*
X225700Y-578225D01*
X334299Y-578225D02*
G01*
X495700Y-578225D01*
X65300Y-576624D02*
G01*
X225700Y-576624D01*
X334299Y-576624D02*
G01*
X494699Y-576624D01*
X66300Y-575124D02*
G01*
X225700Y-575124D01*
X334299Y-575124D02*
G01*
X493699Y-575124D01*
X67399Y-573524D02*
G01*
X225700Y-573524D01*
X334299Y-573524D02*
G01*
X492600Y-573524D01*
X68499Y-571925D02*
G01*
X225700Y-571925D01*
X334299Y-571925D02*
G01*
X491500Y-571925D01*
X69600Y-570324D02*
G01*
X225700Y-570324D01*
X334299Y-570324D02*
G01*
X490399Y-570324D01*
X70700Y-568825D02*
G01*
X225700Y-568825D01*
X334299Y-568825D02*
G01*
X489299Y-568825D01*
X71900Y-567224D02*
G01*
X488099Y-567224D01*
X73000Y-565625D02*
G01*
X486999Y-565625D01*
X74200Y-564025D02*
G01*
X485799Y-564025D01*
X75399Y-562525D02*
G01*
X484600Y-562525D01*
X76599Y-560925D02*
G01*
X483400Y-560925D01*
X77800Y-559324D02*
G01*
X482199Y-559324D01*
X79099Y-557725D02*
G01*
X480900Y-557725D01*
X80300Y-556224D02*
G01*
X479699Y-556224D01*
X81599Y-554625D02*
G01*
X478400Y-554625D01*
X83000Y-553024D02*
G01*
X476999Y-553024D01*
X84299Y-551424D02*
G01*
X475700Y-551424D01*
X85599Y-549924D02*
G01*
X474400Y-549924D01*
X86999Y-548324D02*
G01*
X473000Y-548324D01*
X88400Y-546725D02*
G01*
X471599Y-546725D01*
X89800Y-545124D02*
G01*
X470199Y-545124D01*
X91300Y-543625D02*
G01*
X468699Y-543625D01*
X92800Y-542024D02*
G01*
X467199Y-542024D01*
X94299Y-540425D02*
G01*
X465700Y-540425D01*
X95799Y-538825D02*
G01*
X464200Y-538825D01*
X97300Y-537325D02*
G01*
X462699Y-537325D01*
X98899Y-535725D02*
G01*
X461100Y-535725D01*
X100500Y-534124D02*
G01*
X459499Y-534124D01*
X102100Y-532525D02*
G01*
X457899Y-532525D01*
X103800Y-531024D02*
G01*
X456199Y-531024D01*
X105500Y-529425D02*
G01*
X454499Y-529425D01*
X107199Y-527824D02*
G01*
X452800Y-527824D01*
X108899Y-526224D02*
G01*
X451100Y-526224D01*
X110700Y-524724D02*
G01*
X449299Y-524724D01*
X112600Y-523125D02*
G01*
X447399Y-523125D01*
X114400Y-521525D02*
G01*
X445599Y-521525D01*
X116300Y-519924D02*
G01*
X443699Y-519924D01*
X118200Y-518425D02*
G01*
X441799Y-518425D01*
X120199Y-516824D02*
G01*
X439800Y-516824D01*
X122199Y-515225D02*
G01*
X437800Y-515225D01*
X124200Y-513625D02*
G01*
X435799Y-513625D01*
X126300Y-512125D02*
G01*
X433699Y-512125D01*
X128400Y-510524D02*
G01*
X431599Y-510524D01*
X130599Y-508924D02*
G01*
X429400Y-508924D01*
X132800Y-507325D02*
G01*
X427199Y-507325D01*
X135100Y-505824D02*
G01*
X424899Y-505824D01*
X137399Y-504225D02*
G01*
X422600Y-504225D01*
X139800Y-502624D02*
G01*
X420199Y-502624D01*
X142300Y-501024D02*
G01*
X417699Y-501024D01*
X144800Y-499524D02*
G01*
X415199Y-499524D01*
X147399Y-497925D02*
G01*
X412600Y-497925D01*
X150000Y-496325D02*
G01*
X410000Y-496325D01*
X152699Y-494724D02*
G01*
X407300Y-494724D01*
X155500Y-493225D02*
G01*
X404499Y-493225D01*
X158400Y-491624D02*
G01*
X401599Y-491624D01*
X161300Y-490025D02*
G01*
X398699Y-490025D01*
X164400Y-488425D02*
G01*
X395599Y-488425D01*
X167600Y-486925D02*
G01*
X392399Y-486925D01*
X170900Y-485324D02*
G01*
X389099Y-485324D01*
X174299Y-483724D02*
G01*
X385700Y-483724D01*
X177800Y-482125D02*
G01*
X382199Y-482125D01*
X181500Y-480625D02*
G01*
X378499Y-480625D01*
X185300Y-479025D02*
G01*
X374699Y-479025D01*
X189400Y-477424D02*
G01*
X370599Y-477424D01*
X193600Y-475824D02*
G01*
X366399Y-475824D01*
X198099Y-474324D02*
G01*
X361900Y-474324D01*
X202899Y-472725D02*
G01*
X357100Y-472725D01*
X208000Y-471125D02*
G01*
X351999Y-471125D01*
X213600Y-469524D02*
G01*
X346399Y-469524D01*
X219699Y-468024D02*
G01*
X340300Y-468024D01*
X226500Y-466424D02*
G01*
X333499Y-466424D01*
X234299Y-464825D02*
G01*
X325700Y-464825D01*
X243899Y-463225D02*
G01*
X316100Y-463225D01*
X256799Y-461725D02*
G01*
X303200Y-461725D01*
X280000Y-944425D02*
G01*
X280000Y-873524D01*
X244600Y-909025D02*
G01*
X315399Y-909025D01*
D22*
X6105000Y-2405000D02*
G01*
X6105000Y-2425000D01*
X5855000Y-2425000D01*
X5855000Y-2405000D01*
X5855000Y-2350000D02*
G01*
X5855000Y-2335000D01*
X6105000Y-2335000D01*
X6105000Y-2350000D01*
X6705000Y-2425000D02*
G01*
X6705000Y-2445000D01*
X6455000Y-2445000D01*
X6455000Y-2425000D01*
X6455000Y-2370000D02*
G01*
X6455000Y-2355000D01*
X6705000Y-2355000D01*
X6705000Y-2370000D01*
X6105000Y375000D02*
G01*
X6105000Y355000D01*
X5855000Y355000D01*
X5855000Y375000D01*
X5855000Y430000D02*
G01*
X5855000Y445000D01*
X6105000Y445000D01*
X6105000Y430000D01*
X6705000Y375000D02*
G01*
X6705000Y355000D01*
X6455000Y355000D01*
X6455000Y375000D01*
X6455000Y430000D02*
G01*
X6455000Y445000D01*
X6705000Y445000D01*
X6705000Y430000D01*
X5245000Y-1375000D02*
G01*
X5245000Y-1355000D01*
X5495000Y-1355000D01*
X5495000Y-1375000D01*
X5495000Y-1430000D02*
G01*
X5495000Y-1445000D01*
X5245000Y-1445000D01*
X5245000Y-1430000D01*
X5245000Y-1635000D02*
G01*
X5245000Y-1615000D01*
X5495000Y-1615000D01*
X5495000Y-1635000D01*
X5495000Y-1690000D02*
G01*
X5495000Y-1705000D01*
X5245000Y-1705000D01*
X5245000Y-1690000D01*
X6255000Y-1375000D02*
G01*
X6255000Y-1355000D01*
X6505000Y-1355000D01*
X6505000Y-1375000D01*
X6505000Y-1430000D02*
G01*
X6505000Y-1445000D01*
X6255000Y-1445000D01*
X6255000Y-1430000D01*
X6255000Y-1635000D02*
G01*
X6255000Y-1615000D01*
X6505000Y-1615000D01*
X6505000Y-1635000D01*
X6505000Y-1690000D02*
G01*
X6505000Y-1705000D01*
X6255000Y-1705000D01*
X6255000Y-1690000D01*
X5245000Y-1125000D02*
G01*
X5245000Y-1105000D01*
X5495000Y-1105000D01*
X5495000Y-1125000D01*
X5495000Y-1180000D02*
G01*
X5495000Y-1195000D01*
X5245000Y-1195000D01*
X5245000Y-1180000D01*
X4485000Y-1675000D02*
G01*
X4485000Y-1695000D01*
X4235000Y-1695000D01*
X4235000Y-1675000D01*
X4235000Y-1620000D02*
G01*
X4235000Y-1605000D01*
X4485000Y-1605000D01*
X4485000Y-1620000D01*
X6255000Y-1125000D02*
G01*
X6255000Y-1105000D01*
X6505000Y-1105000D01*
X6505000Y-1125000D01*
X6505000Y-1180000D02*
G01*
X6505000Y-1195000D01*
X6255000Y-1195000D01*
X6255000Y-1180000D01*
X3480000Y-2150000D02*
G01*
X2680000Y-2150000D01*
X2680000Y-2150000D02*
G01*
X2680000Y-2050000D01*
X3480000Y-2150000D02*
G01*
X3480000Y-2050000D01*
X3070000Y-2050000D01*
X2680000Y-2050000D01*
D23*
X4745000Y-2040001D02*
G01*
X4820000Y-2040001D01*
X4820000Y-1945001D01*
X3920000Y-1945001D01*
X3920000Y-2040001D01*
D24*
X3920000Y-2040001D02*
G01*
X4745000Y-2040001D01*
X3920000Y-55001D02*
G01*
X4745000Y-55001D01*
D23*
X4745000Y-55001D02*
G01*
X4820000Y-55001D01*
X4820000Y44998D01*
X3920000Y44998D01*
X3920000Y-55001D01*
D22*
X4819844Y44994D02*
G01*
X4819844Y-2041615D01*
X3919994Y-2041615D01*
X3919994Y44994D01*
X4819844Y44994D01*
D23*
X5744965Y-2040001D02*
G01*
X5819965Y-2040001D01*
X5819965Y-1945001D01*
X4919965Y-1945001D01*
X4919965Y-2040001D01*
D24*
X4919965Y-2040001D02*
G01*
X5744965Y-2040001D01*
X4919965Y-55001D02*
G01*
X5744965Y-55001D01*
D23*
X5744965Y-55001D02*
G01*
X5819965Y-55001D01*
X5819965Y44998D01*
X4919965Y44998D01*
X4919965Y-55001D01*
D22*
X5819809Y44994D02*
G01*
X5819809Y-2041615D01*
X4919960Y-2041615D01*
X4919960Y44994D01*
X5819809Y44994D01*
D23*
X5995000Y40001D02*
G01*
X5920000Y40001D01*
X5920000Y-54998D01*
X6820000Y-54998D01*
X6820000Y40001D01*
D24*
X6820000Y40001D02*
G01*
X5995000Y40001D01*
X6820000Y-1944998D02*
G01*
X5995000Y-1944998D01*
D23*
X5995000Y-1944998D02*
G01*
X5920000Y-1944998D01*
X5920000Y-2044998D01*
X6820000Y-2044998D01*
X6820000Y-1944998D01*
D22*
X5920155Y-2044994D02*
G01*
X5920155Y41615D01*
X6820005Y41615D01*
X6820005Y-2044994D01*
X5920155Y-2044994D01*
X980000Y-1935000D02*
G01*
X980000Y-1985000D01*
X1005000Y-2010000D02*
G01*
X980000Y-1985000D01*
X1005000Y-1910000D02*
G01*
X980000Y-1935000D01*
X1055000Y-1910000D02*
G01*
X1080000Y-1935000D01*
X1055000Y-1910000D02*
G01*
X1005000Y-1910000D01*
X1055000Y-2010000D02*
G01*
X1005000Y-2010000D01*
X1155000Y-2010000D02*
G01*
X1105000Y-2010000D01*
X1055000Y-2010000D02*
G01*
X1080000Y-1985000D01*
X1105000Y-1910000D02*
G01*
X1155000Y-1910000D01*
X1180000Y-1935000D02*
G01*
X1205000Y-1910000D01*
X1155000Y-1910000D02*
G01*
X1180000Y-1935000D01*
D26*
X3226000Y-503000D02*
G01*
X3330000Y-400000D01*
X3330000Y-400000D02*
G01*
X3330000Y-121999D01*
D22*
X1680000Y-1935000D02*
G01*
X1680000Y-1985000D01*
X1080000Y-1985000D02*
G01*
X1105000Y-2010000D01*
X1105000Y-1910000D02*
G01*
X1080000Y-1935000D01*
X1205000Y-2010000D02*
G01*
X1180000Y-1985000D01*
X1255000Y-2010000D02*
G01*
X1205000Y-2010000D01*
X1280000Y-1985000D02*
G01*
X1255000Y-2010000D01*
X1255000Y-1910000D02*
G01*
X1280000Y-1935000D01*
X1205000Y-1910000D02*
G01*
X1255000Y-1910000D01*
X1180000Y-1985000D02*
G01*
X1155000Y-2010000D01*
X1455000Y-2010000D02*
G01*
X1405000Y-2010000D01*
X1380000Y-1985000D02*
G01*
X1405000Y-2010000D01*
X1405000Y-1910000D02*
G01*
X1380000Y-1935000D01*
X1305000Y-2010000D02*
G01*
X1280000Y-1985000D01*
X1355000Y-2010000D02*
G01*
X1305000Y-2010000D01*
X1380000Y-1985000D02*
G01*
X1355000Y-2010000D01*
X1355000Y-1910000D02*
G01*
X1380000Y-1935000D01*
X1305000Y-1910000D02*
G01*
X1355000Y-1910000D01*
X1280000Y-1935000D02*
G01*
X1305000Y-1910000D01*
X1505000Y-2010000D02*
G01*
X1480000Y-1985000D01*
X1555000Y-2010000D02*
G01*
X1505000Y-2010000D01*
X1580000Y-1985000D02*
G01*
X1555000Y-2010000D01*
X1555000Y-1910000D02*
G01*
X1580000Y-1935000D01*
X1505000Y-1910000D02*
G01*
X1555000Y-1910000D01*
X1480000Y-1935000D02*
G01*
X1505000Y-1910000D01*
X1480000Y-1985000D02*
G01*
X1455000Y-2010000D01*
X1455000Y-1910000D02*
G01*
X1480000Y-1935000D01*
X1405000Y-1910000D02*
G01*
X1455000Y-1910000D01*
X1605000Y-2010000D02*
G01*
X1580000Y-1985000D01*
X1655000Y-2010000D02*
G01*
X1605000Y-2010000D01*
X1680000Y-1985000D02*
G01*
X1655000Y-2010000D01*
X1655000Y-1910000D02*
G01*
X1680000Y-1935000D01*
X1605000Y-1910000D02*
G01*
X1655000Y-1910000D01*
X1580000Y-1935000D02*
G01*
X1605000Y-1910000D01*
X2325000Y-260000D02*
G01*
X2305000Y-240000D01*
X2345000Y-240000D02*
G01*
X2325000Y-260000D01*
X2325000Y-210000D02*
G01*
X2325000Y-260000D01*
X2225000Y-210000D02*
G01*
X2245000Y-230000D01*
X2205000Y-230000D02*
G01*
X2225000Y-210000D01*
X2225000Y-260000D02*
G01*
X2225000Y-210000D01*
D26*
X3292002Y-1711001D02*
G01*
X3798999Y-1711001D01*
X3225000Y-1643998D02*
G01*
X3292002Y-1711001D01*
X3630000Y-1841999D02*
G01*
X3630000Y-1811999D01*
X3530000Y-1841999D02*
G01*
X3630000Y-1841999D01*
X3530000Y-1813000D02*
G01*
X3530000Y-1841999D01*
X3630000Y18000D02*
G01*
X3630000Y-8000D01*
X3530000Y18000D02*
G01*
X3630000Y18000D01*
X3530000Y-6999D02*
G01*
X3530000Y18000D01*
X3226000Y-503000D02*
G01*
X3226000Y-1610000D01*
D22*
X3655000Y-110000D02*
G01*
X3505000Y-110000D01*
X3505000Y-10000D02*
G01*
X3655000Y-10000D01*
X3680000Y-35000D02*
G01*
X3680000Y-85000D01*
X3480000Y-85000D02*
G01*
X3505000Y-110000D01*
X3505000Y-10000D02*
G01*
X3480000Y-35000D01*
X3480000Y-35000D02*
G01*
X3480000Y-85000D01*
X3680000Y-85000D02*
G01*
X3655000Y-110000D01*
X3655000Y-10000D02*
G01*
X3680000Y-35000D01*
X3655000Y-1810000D02*
G01*
X3505000Y-1810000D01*
X3505000Y-1710000D02*
G01*
X3655000Y-1710000D01*
X3680000Y-1735000D02*
G01*
X3680000Y-1785000D01*
X3480000Y-1785000D02*
G01*
X3505000Y-1810000D01*
X3505000Y-1710000D02*
G01*
X3480000Y-1735000D01*
X3480000Y-1735000D02*
G01*
X3480000Y-1785000D01*
X3680000Y-1785000D02*
G01*
X3655000Y-1810000D01*
X3655000Y-1710000D02*
G01*
X3680000Y-1735000D01*
X3680000Y-1685000D02*
G01*
X3680000Y-1635000D01*
X3680000Y-1585000D02*
G01*
X3680000Y-1535000D01*
X3680000Y-1485000D02*
G01*
X3680000Y-1435000D01*
X3680000Y-1385000D02*
G01*
X3680000Y-1335000D01*
X3680000Y-1285000D02*
G01*
X3680000Y-1235000D01*
X3680000Y-1185000D02*
G01*
X3680000Y-1135000D01*
X3680000Y-1085000D02*
G01*
X3680000Y-1035000D01*
X3680000Y-985000D02*
G01*
X3680000Y-935000D01*
X3505000Y-910000D02*
G01*
X3655000Y-910000D01*
X3505000Y-1010000D02*
G01*
X3655000Y-1010000D01*
X3505000Y-1110000D02*
G01*
X3655000Y-1110000D01*
X3505000Y-1210000D02*
G01*
X3655000Y-1210000D01*
X3505000Y-1310000D02*
G01*
X3655000Y-1310000D01*
X3505000Y-1410000D02*
G01*
X3655000Y-1410000D01*
X3505000Y-1510000D02*
G01*
X3655000Y-1510000D01*
X3505000Y-1610000D02*
G01*
X3655000Y-1610000D01*
X3655000Y-1110000D02*
G01*
X3680000Y-1085000D01*
X3655000Y-1010000D02*
G01*
X3680000Y-1035000D01*
X3655000Y-1010000D02*
G01*
X3680000Y-985000D01*
X3655000Y-910000D02*
G01*
X3680000Y-935000D01*
X3480000Y-935000D02*
G01*
X3505000Y-910000D01*
X3480000Y-985000D02*
G01*
X3480000Y-935000D01*
X3505000Y-1010000D02*
G01*
X3480000Y-985000D01*
X3480000Y-1035000D02*
G01*
X3505000Y-1010000D01*
X3480000Y-1085000D02*
G01*
X3480000Y-1035000D01*
X3505000Y-1110000D02*
G01*
X3480000Y-1085000D01*
X3480000Y-1135000D02*
G01*
X3505000Y-1110000D01*
X3480000Y-1185000D02*
G01*
X3480000Y-1135000D01*
X3505000Y-1210000D02*
G01*
X3480000Y-1185000D01*
X3480000Y-1235000D02*
G01*
X3505000Y-1210000D01*
X3480000Y-1285000D02*
G01*
X3480000Y-1235000D01*
X3505000Y-1310000D02*
G01*
X3480000Y-1285000D01*
X3480000Y-1335000D02*
G01*
X3505000Y-1310000D01*
X3480000Y-1385000D02*
G01*
X3480000Y-1335000D01*
X3505000Y-1410000D02*
G01*
X3480000Y-1385000D01*
X3480000Y-1435000D02*
G01*
X3505000Y-1410000D01*
X3480000Y-1485000D02*
G01*
X3480000Y-1435000D01*
X3505000Y-1510000D02*
G01*
X3480000Y-1485000D01*
X3480000Y-1535000D02*
G01*
X3505000Y-1510000D01*
X3480000Y-1585000D02*
G01*
X3480000Y-1535000D01*
X3505000Y-1610000D02*
G01*
X3480000Y-1585000D01*
X3480000Y-1635000D02*
G01*
X3505000Y-1610000D01*
X3480000Y-1685000D02*
G01*
X3480000Y-1635000D01*
X3505000Y-1710000D02*
G01*
X3480000Y-1685000D01*
X3680000Y-1135000D02*
G01*
X3655000Y-1110000D01*
X3655000Y-1210000D02*
G01*
X3680000Y-1185000D01*
X3680000Y-1235000D02*
G01*
X3655000Y-1210000D01*
X3655000Y-1310000D02*
G01*
X3680000Y-1285000D01*
X3680000Y-1335000D02*
G01*
X3655000Y-1310000D01*
X3655000Y-1410000D02*
G01*
X3680000Y-1385000D01*
X3680000Y-1435000D02*
G01*
X3655000Y-1410000D01*
X3655000Y-1510000D02*
G01*
X3680000Y-1485000D01*
X3680000Y-1535000D02*
G01*
X3655000Y-1510000D01*
X3655000Y-1610000D02*
G01*
X3680000Y-1585000D01*
X3680000Y-1635000D02*
G01*
X3655000Y-1610000D01*
X3655000Y-1710000D02*
G01*
X3680000Y-1685000D01*
X3680000Y-885000D02*
G01*
X3680000Y-835000D01*
X3680000Y-785000D02*
G01*
X3680000Y-735000D01*
X3680000Y-685000D02*
G01*
X3680000Y-635000D01*
X3680000Y-585000D02*
G01*
X3680000Y-535000D01*
X3680000Y-485000D02*
G01*
X3680000Y-435000D01*
X3680000Y-385000D02*
G01*
X3680000Y-335000D01*
X3680000Y-285000D02*
G01*
X3680000Y-235000D01*
X3680000Y-185000D02*
G01*
X3680000Y-135000D01*
X3505000Y-210000D02*
G01*
X3655000Y-210000D01*
X3505000Y-310000D02*
G01*
X3655000Y-310000D01*
X3505000Y-410000D02*
G01*
X3655000Y-410000D01*
X3505000Y-510000D02*
G01*
X3655000Y-510000D01*
X3505000Y-610000D02*
G01*
X3655000Y-610000D01*
X3505000Y-710000D02*
G01*
X3655000Y-710000D01*
X3505000Y-810000D02*
G01*
X3655000Y-810000D01*
X3655000Y-310000D02*
G01*
X3680000Y-285000D01*
X3655000Y-210000D02*
G01*
X3680000Y-235000D01*
X3655000Y-210000D02*
G01*
X3680000Y-185000D01*
X3655000Y-110000D02*
G01*
X3680000Y-135000D01*
X3480000Y-135000D02*
G01*
X3505000Y-110000D01*
X3480000Y-185000D02*
G01*
X3480000Y-135000D01*
X3505000Y-210000D02*
G01*
X3480000Y-185000D01*
X3480000Y-235000D02*
G01*
X3505000Y-210000D01*
X3480000Y-285000D02*
G01*
X3480000Y-235000D01*
X3505000Y-310000D02*
G01*
X3480000Y-285000D01*
X3480000Y-335000D02*
G01*
X3505000Y-310000D01*
X3480000Y-385000D02*
G01*
X3480000Y-335000D01*
X3505000Y-410000D02*
G01*
X3480000Y-385000D01*
X3480000Y-435000D02*
G01*
X3505000Y-410000D01*
X3480000Y-485000D02*
G01*
X3480000Y-435000D01*
X3505000Y-510000D02*
G01*
X3480000Y-485000D01*
X3480000Y-535000D02*
G01*
X3505000Y-510000D01*
X3480000Y-585000D02*
G01*
X3480000Y-535000D01*
X3505000Y-610000D02*
G01*
X3480000Y-585000D01*
X3480000Y-635000D02*
G01*
X3505000Y-610000D01*
X3480000Y-685000D02*
G01*
X3480000Y-635000D01*
X3505000Y-710000D02*
G01*
X3480000Y-685000D01*
X3480000Y-735000D02*
G01*
X3505000Y-710000D01*
X3480000Y-785000D02*
G01*
X3480000Y-735000D01*
X3505000Y-810000D02*
G01*
X3480000Y-785000D01*
X3480000Y-835000D02*
G01*
X3505000Y-810000D01*
X3480000Y-885000D02*
G01*
X3480000Y-835000D01*
X3505000Y-910000D02*
G01*
X3480000Y-885000D01*
X3680000Y-335000D02*
G01*
X3655000Y-310000D01*
X3655000Y-410000D02*
G01*
X3680000Y-385000D01*
X3680000Y-435000D02*
G01*
X3655000Y-410000D01*
X3655000Y-510000D02*
G01*
X3680000Y-485000D01*
X3680000Y-535000D02*
G01*
X3655000Y-510000D01*
X3655000Y-610000D02*
G01*
X3680000Y-585000D01*
X3680000Y-635000D02*
G01*
X3655000Y-610000D01*
X3655000Y-710000D02*
G01*
X3680000Y-685000D01*
X3680000Y-735000D02*
G01*
X3655000Y-710000D01*
X3655000Y-810000D02*
G01*
X3680000Y-785000D01*
X3680000Y-835000D02*
G01*
X3655000Y-810000D01*
X3655000Y-910000D02*
G01*
X3680000Y-885000D01*
X1495000Y-110000D02*
G01*
X1445000Y-110000D01*
X1420000Y-85000D02*
G01*
X1445000Y-110000D01*
X1445000Y-10000D02*
G01*
X1420000Y-35000D01*
X1520000Y-85000D02*
G01*
X1495000Y-110000D01*
X1520000Y-35000D02*
G01*
X1520000Y-85000D01*
X1495000Y-10000D02*
G01*
X1520000Y-35000D01*
X1445000Y-10000D02*
G01*
X1495000Y-10000D01*
X795000Y-110000D02*
G01*
X745000Y-110000D01*
X720000Y-85000D02*
G01*
X745000Y-110000D01*
X745000Y-10000D02*
G01*
X720000Y-35000D01*
X720000Y-35000D02*
G01*
X720000Y-85000D01*
X845000Y-110000D02*
G01*
X820000Y-85000D01*
X895000Y-110000D02*
G01*
X845000Y-110000D01*
X920000Y-85000D02*
G01*
X895000Y-110000D01*
X895000Y-10000D02*
G01*
X920000Y-35000D01*
X845000Y-10000D02*
G01*
X895000Y-10000D01*
X820000Y-35000D02*
G01*
X845000Y-10000D01*
X820000Y-85000D02*
G01*
X795000Y-110000D01*
X795000Y-10000D02*
G01*
X820000Y-35000D01*
X745000Y-10000D02*
G01*
X795000Y-10000D01*
X1095000Y-110000D02*
G01*
X1045000Y-110000D01*
X1020000Y-85000D02*
G01*
X1045000Y-110000D01*
X1045000Y-10000D02*
G01*
X1020000Y-35000D01*
X945000Y-110000D02*
G01*
X920000Y-85000D01*
X995000Y-110000D02*
G01*
X945000Y-110000D01*
X1020000Y-85000D02*
G01*
X995000Y-110000D01*
X995000Y-10000D02*
G01*
X1020000Y-35000D01*
X945000Y-10000D02*
G01*
X995000Y-10000D01*
X920000Y-35000D02*
G01*
X945000Y-10000D01*
X1145000Y-110000D02*
G01*
X1120000Y-85000D01*
X1195000Y-110000D02*
G01*
X1145000Y-110000D01*
X1220000Y-85000D02*
G01*
X1195000Y-110000D01*
X1195000Y-10000D02*
G01*
X1220000Y-35000D01*
X1145000Y-10000D02*
G01*
X1195000Y-10000D01*
X1120000Y-35000D02*
G01*
X1145000Y-10000D01*
X1120000Y-85000D02*
G01*
X1095000Y-110000D01*
X1095000Y-10000D02*
G01*
X1120000Y-35000D01*
X1045000Y-10000D02*
G01*
X1095000Y-10000D01*
X1395000Y-110000D02*
G01*
X1345000Y-110000D01*
X1320000Y-85000D02*
G01*
X1345000Y-110000D01*
X1345000Y-10000D02*
G01*
X1320000Y-35000D01*
X1245000Y-110000D02*
G01*
X1220000Y-85000D01*
X1295000Y-110000D02*
G01*
X1245000Y-110000D01*
X1320000Y-85000D02*
G01*
X1295000Y-110000D01*
X1295000Y-10000D02*
G01*
X1320000Y-35000D01*
X1245000Y-10000D02*
G01*
X1295000Y-10000D01*
X1220000Y-35000D02*
G01*
X1245000Y-10000D01*
X1420000Y-85000D02*
G01*
X1395000Y-110000D01*
X1395000Y-10000D02*
G01*
X1420000Y-35000D01*
X1345000Y-10000D02*
G01*
X1395000Y-10000D01*
X2355000Y-110000D02*
G01*
X2305000Y-110000D01*
X2280000Y-85000D02*
G01*
X2305000Y-110000D01*
X2305000Y-10000D02*
G01*
X2280000Y-35000D01*
X2380000Y-85000D02*
G01*
X2355000Y-110000D01*
X2380000Y-35000D02*
G01*
X2380000Y-85000D01*
X2355000Y-10000D02*
G01*
X2380000Y-35000D01*
X2305000Y-10000D02*
G01*
X2355000Y-10000D01*
X1655000Y-110000D02*
G01*
X1605000Y-110000D01*
X1580000Y-85000D02*
G01*
X1605000Y-110000D01*
X1605000Y-10000D02*
G01*
X1580000Y-35000D01*
X1580000Y-35000D02*
G01*
X1580000Y-85000D01*
X1705000Y-110000D02*
G01*
X1680000Y-85000D01*
X1755000Y-110000D02*
G01*
X1705000Y-110000D01*
X1780000Y-85000D02*
G01*
X1755000Y-110000D01*
X1755000Y-10000D02*
G01*
X1780000Y-35000D01*
X1705000Y-10000D02*
G01*
X1755000Y-10000D01*
X1680000Y-35000D02*
G01*
X1705000Y-10000D01*
X1680000Y-85000D02*
G01*
X1655000Y-110000D01*
X1655000Y-10000D02*
G01*
X1680000Y-35000D01*
X1605000Y-10000D02*
G01*
X1655000Y-10000D01*
X1955000Y-110000D02*
G01*
X1905000Y-110000D01*
X1880000Y-85000D02*
G01*
X1905000Y-110000D01*
X1905000Y-10000D02*
G01*
X1880000Y-35000D01*
X1805000Y-110000D02*
G01*
X1780000Y-85000D01*
X1855000Y-110000D02*
G01*
X1805000Y-110000D01*
X1880000Y-85000D02*
G01*
X1855000Y-110000D01*
X1855000Y-10000D02*
G01*
X1880000Y-35000D01*
X1805000Y-10000D02*
G01*
X1855000Y-10000D01*
X1780000Y-35000D02*
G01*
X1805000Y-10000D01*
X2005000Y-110000D02*
G01*
X1980000Y-85000D01*
X2055000Y-110000D02*
G01*
X2005000Y-110000D01*
X2080000Y-85000D02*
G01*
X2055000Y-110000D01*
X2055000Y-10000D02*
G01*
X2080000Y-35000D01*
X2005000Y-10000D02*
G01*
X2055000Y-10000D01*
X1980000Y-35000D02*
G01*
X2005000Y-10000D01*
X1980000Y-85000D02*
G01*
X1955000Y-110000D01*
X1955000Y-10000D02*
G01*
X1980000Y-35000D01*
X1905000Y-10000D02*
G01*
X1955000Y-10000D01*
X2255000Y-110000D02*
G01*
X2205000Y-110000D01*
X2180000Y-85000D02*
G01*
X2205000Y-110000D01*
X2205000Y-10000D02*
G01*
X2180000Y-35000D01*
X2105000Y-110000D02*
G01*
X2080000Y-85000D01*
X2155000Y-110000D02*
G01*
X2105000Y-110000D01*
X2180000Y-85000D02*
G01*
X2155000Y-110000D01*
X2155000Y-10000D02*
G01*
X2180000Y-35000D01*
X2105000Y-10000D02*
G01*
X2155000Y-10000D01*
X2080000Y-35000D02*
G01*
X2105000Y-10000D01*
X2280000Y-85000D02*
G01*
X2255000Y-110000D01*
X2255000Y-10000D02*
G01*
X2280000Y-35000D01*
X2205000Y-10000D02*
G01*
X2255000Y-10000D01*
X2555000Y-2010000D02*
G01*
X2505000Y-2010000D01*
X2480000Y-1985000D02*
G01*
X2505000Y-2010000D01*
X2505000Y-1910000D02*
G01*
X2480000Y-1935000D01*
X2580000Y-1985000D02*
G01*
X2555000Y-2010000D01*
X2580000Y-1935000D02*
G01*
X2580000Y-1985000D01*
X2555000Y-1910000D02*
G01*
X2580000Y-1935000D01*
X2505000Y-1910000D02*
G01*
X2555000Y-1910000D01*
X1855000Y-2010000D02*
G01*
X1805000Y-2010000D01*
X1780000Y-1985000D02*
G01*
X1805000Y-2010000D01*
X1805000Y-1910000D02*
G01*
X1780000Y-1935000D01*
X1780000Y-1935000D02*
G01*
X1780000Y-1985000D01*
X1905000Y-2010000D02*
G01*
X1880000Y-1985000D01*
X1955000Y-2010000D02*
G01*
X1905000Y-2010000D01*
X1980000Y-1985000D02*
G01*
X1955000Y-2010000D01*
X1955000Y-1910000D02*
G01*
X1980000Y-1935000D01*
X1905000Y-1910000D02*
G01*
X1955000Y-1910000D01*
X1880000Y-1935000D02*
G01*
X1905000Y-1910000D01*
X1880000Y-1985000D02*
G01*
X1855000Y-2010000D01*
X1855000Y-1910000D02*
G01*
X1880000Y-1935000D01*
X1805000Y-1910000D02*
G01*
X1855000Y-1910000D01*
X2155000Y-2010000D02*
G01*
X2105000Y-2010000D01*
X2080000Y-1985000D02*
G01*
X2105000Y-2010000D01*
X2105000Y-1910000D02*
G01*
X2080000Y-1935000D01*
X2005000Y-2010000D02*
G01*
X1980000Y-1985000D01*
X2055000Y-2010000D02*
G01*
X2005000Y-2010000D01*
X2080000Y-1985000D02*
G01*
X2055000Y-2010000D01*
X2055000Y-1910000D02*
G01*
X2080000Y-1935000D01*
X2005000Y-1910000D02*
G01*
X2055000Y-1910000D01*
X1980000Y-1935000D02*
G01*
X2005000Y-1910000D01*
X2205000Y-2010000D02*
G01*
X2180000Y-1985000D01*
X2255000Y-2010000D02*
G01*
X2205000Y-2010000D01*
X2280000Y-1985000D02*
G01*
X2255000Y-2010000D01*
X2255000Y-1910000D02*
G01*
X2280000Y-1935000D01*
X2205000Y-1910000D02*
G01*
X2255000Y-1910000D01*
X2180000Y-1935000D02*
G01*
X2205000Y-1910000D01*
X2180000Y-1985000D02*
G01*
X2155000Y-2010000D01*
X2155000Y-1910000D02*
G01*
X2180000Y-1935000D01*
X2105000Y-1910000D02*
G01*
X2155000Y-1910000D01*
X2455000Y-2010000D02*
G01*
X2405000Y-2010000D01*
X2380000Y-1985000D02*
G01*
X2405000Y-2010000D01*
X2405000Y-1910000D02*
G01*
X2380000Y-1935000D01*
X2305000Y-2010000D02*
G01*
X2280000Y-1985000D01*
X2355000Y-2010000D02*
G01*
X2305000Y-2010000D01*
X2380000Y-1985000D02*
G01*
X2355000Y-2010000D01*
X2355000Y-1910000D02*
G01*
X2380000Y-1935000D01*
X2305000Y-1910000D02*
G01*
X2355000Y-1910000D01*
X2280000Y-1935000D02*
G01*
X2305000Y-1910000D01*
X2480000Y-1985000D02*
G01*
X2455000Y-2010000D01*
X2455000Y-1910000D02*
G01*
X2480000Y-1935000D01*
X2405000Y-1910000D02*
G01*
X2455000Y-1910000D01*
X3255000Y-110000D02*
G01*
X3205000Y-110000D01*
X3180000Y-85000D02*
G01*
X3205000Y-110000D01*
X3205000Y-10000D02*
G01*
X3180000Y-35000D01*
X3280000Y-85000D02*
G01*
X3255000Y-110000D01*
X3280000Y-35000D02*
G01*
X3280000Y-85000D01*
X3255000Y-10000D02*
G01*
X3280000Y-35000D01*
X3205000Y-10000D02*
G01*
X3255000Y-10000D01*
X2555000Y-110000D02*
G01*
X2505000Y-110000D01*
X2480000Y-85000D02*
G01*
X2505000Y-110000D01*
X2505000Y-10000D02*
G01*
X2480000Y-35000D01*
X2480000Y-35000D02*
G01*
X2480000Y-85000D01*
X2605000Y-110000D02*
G01*
X2580000Y-85000D01*
X2655000Y-110000D02*
G01*
X2605000Y-110000D01*
X2680000Y-85000D02*
G01*
X2655000Y-110000D01*
X2655000Y-10000D02*
G01*
X2680000Y-35000D01*
X2605000Y-10000D02*
G01*
X2655000Y-10000D01*
X2580000Y-35000D02*
G01*
X2605000Y-10000D01*
X2580000Y-85000D02*
G01*
X2555000Y-110000D01*
X2555000Y-10000D02*
G01*
X2580000Y-35000D01*
X2505000Y-10000D02*
G01*
X2555000Y-10000D01*
X2855000Y-110000D02*
G01*
X2805000Y-110000D01*
X2780000Y-85000D02*
G01*
X2805000Y-110000D01*
X2805000Y-10000D02*
G01*
X2780000Y-35000D01*
X2705000Y-110000D02*
G01*
X2680000Y-85000D01*
X2755000Y-110000D02*
G01*
X2705000Y-110000D01*
X2780000Y-85000D02*
G01*
X2755000Y-110000D01*
X2755000Y-10000D02*
G01*
X2780000Y-35000D01*
X2705000Y-10000D02*
G01*
X2755000Y-10000D01*
X2680000Y-35000D02*
G01*
X2705000Y-10000D01*
X2905000Y-110000D02*
G01*
X2880000Y-85000D01*
X2955000Y-110000D02*
G01*
X2905000Y-110000D01*
X2980000Y-85000D02*
G01*
X2955000Y-110000D01*
X2955000Y-10000D02*
G01*
X2980000Y-35000D01*
X2905000Y-10000D02*
G01*
X2955000Y-10000D01*
X2880000Y-35000D02*
G01*
X2905000Y-10000D01*
X2880000Y-85000D02*
G01*
X2855000Y-110000D01*
X2855000Y-10000D02*
G01*
X2880000Y-35000D01*
X2805000Y-10000D02*
G01*
X2855000Y-10000D01*
X3155000Y-110000D02*
G01*
X3105000Y-110000D01*
X3080000Y-85000D02*
G01*
X3105000Y-110000D01*
X3105000Y-10000D02*
G01*
X3080000Y-35000D01*
X3005000Y-110000D02*
G01*
X2980000Y-85000D01*
X3055000Y-110000D02*
G01*
X3005000Y-110000D01*
X3080000Y-85000D02*
G01*
X3055000Y-110000D01*
X3055000Y-10000D02*
G01*
X3080000Y-35000D01*
X3005000Y-10000D02*
G01*
X3055000Y-10000D01*
X2980000Y-35000D02*
G01*
X3005000Y-10000D01*
X3180000Y-85000D02*
G01*
X3155000Y-110000D01*
X3155000Y-10000D02*
G01*
X3180000Y-35000D01*
X3105000Y-10000D02*
G01*
X3155000Y-10000D01*
X3455000Y-2010000D02*
G01*
X3405000Y-2010000D01*
X3380000Y-1985000D02*
G01*
X3405000Y-2010000D01*
X3405000Y-1910000D02*
G01*
X3380000Y-1935000D01*
X3480000Y-1985000D02*
G01*
X3455000Y-2010000D01*
X3480000Y-1935000D02*
G01*
X3480000Y-1985000D01*
X3455000Y-1910000D02*
G01*
X3480000Y-1935000D01*
X3405000Y-1910000D02*
G01*
X3455000Y-1910000D01*
X2755000Y-2010000D02*
G01*
X2705000Y-2010000D01*
X2680000Y-1985000D02*
G01*
X2705000Y-2010000D01*
X2705000Y-1910000D02*
G01*
X2680000Y-1935000D01*
X2680000Y-1935000D02*
G01*
X2680000Y-1985000D01*
X2805000Y-2010000D02*
G01*
X2780000Y-1985000D01*
X2855000Y-2010000D02*
G01*
X2805000Y-2010000D01*
X2880000Y-1985000D02*
G01*
X2855000Y-2010000D01*
X2855000Y-1910000D02*
G01*
X2880000Y-1935000D01*
X2805000Y-1910000D02*
G01*
X2855000Y-1910000D01*
X2780000Y-1935000D02*
G01*
X2805000Y-1910000D01*
X2780000Y-1985000D02*
G01*
X2755000Y-2010000D01*
X2755000Y-1910000D02*
G01*
X2780000Y-1935000D01*
X2705000Y-1910000D02*
G01*
X2755000Y-1910000D01*
X3055000Y-2010000D02*
G01*
X3005000Y-2010000D01*
X2980000Y-1985000D02*
G01*
X3005000Y-2010000D01*
X3005000Y-1910000D02*
G01*
X2980000Y-1935000D01*
X2905000Y-2010000D02*
G01*
X2880000Y-1985000D01*
X2955000Y-2010000D02*
G01*
X2905000Y-2010000D01*
X2980000Y-1985000D02*
G01*
X2955000Y-2010000D01*
X2955000Y-1910000D02*
G01*
X2980000Y-1935000D01*
X2905000Y-1910000D02*
G01*
X2955000Y-1910000D01*
X2880000Y-1935000D02*
G01*
X2905000Y-1910000D01*
X3105000Y-2010000D02*
G01*
X3080000Y-1985000D01*
X3155000Y-2010000D02*
G01*
X3105000Y-2010000D01*
X3180000Y-1985000D02*
G01*
X3155000Y-2010000D01*
X3155000Y-1910000D02*
G01*
X3180000Y-1935000D01*
X3105000Y-1910000D02*
G01*
X3155000Y-1910000D01*
X3080000Y-1935000D02*
G01*
X3105000Y-1910000D01*
X3080000Y-1985000D02*
G01*
X3055000Y-2010000D01*
X3055000Y-1910000D02*
G01*
X3080000Y-1935000D01*
X3005000Y-1910000D02*
G01*
X3055000Y-1910000D01*
X3355000Y-2010000D02*
G01*
X3305000Y-2010000D01*
X3280000Y-1985000D02*
G01*
X3305000Y-2010000D01*
X3305000Y-1910000D02*
G01*
X3280000Y-1935000D01*
X3205000Y-2010000D02*
G01*
X3180000Y-1985000D01*
X3255000Y-2010000D02*
G01*
X3205000Y-2010000D01*
X3280000Y-1985000D02*
G01*
X3255000Y-2010000D01*
X3255000Y-1910000D02*
G01*
X3280000Y-1935000D01*
X3205000Y-1910000D02*
G01*
X3255000Y-1910000D01*
X3180000Y-1935000D02*
G01*
X3205000Y-1910000D01*
X3380000Y-1985000D02*
G01*
X3355000Y-2010000D01*
X3355000Y-1910000D02*
G01*
X3380000Y-1935000D01*
X3305000Y-1910000D02*
G01*
X3355000Y-1910000D01*
X4485000Y-1425000D02*
G01*
X4485000Y-1445000D01*
X4235000Y-1445000D01*
X4235000Y-1425000D01*
X4235000Y-1370000D02*
G01*
X4235000Y-1355000D01*
X4485000Y-1355000D01*
X4485000Y-1370000D01*
X4485000Y-1175000D02*
G01*
X4485000Y-1195000D01*
X4235000Y-1195000D01*
X4235000Y-1175000D01*
X4235000Y-1120000D02*
G01*
X4235000Y-1105000D01*
X4485000Y-1105000D01*
X4485000Y-1120000D01*
X5124489Y608822D02*
G01*
X4735510Y608822D01*
X5126849Y808422D02*
G01*
X4733152Y808422D01*
X5126849Y514333D02*
G01*
X4733152Y514333D01*
X5126849Y829290D02*
G01*
X4733152Y829290D01*
X4733152Y514333D02*
G01*
X4733152Y829290D01*
X5126849Y514333D02*
G01*
X5126849Y829290D01*
X4736297Y380468D02*
G01*
X5125276Y380468D01*
X4733939Y180869D02*
G01*
X5127640Y180869D01*
X4733939Y474958D02*
G01*
X5127640Y474958D01*
X4733939Y160000D02*
G01*
X5127640Y160000D01*
X5127640Y474958D02*
G01*
X5127640Y160000D01*
X4733939Y474958D02*
G01*
X4733939Y160000D01*
X3830000Y199400D02*
G01*
X3830000Y199400D01*
X3830000Y199400D01*
X3830000Y829299D01*
X5129200Y829299D01*
X5129200Y160000D01*
X3830000Y160000D01*
X3830000Y199400D01*
X3952049Y711179D02*
G01*
X4052049Y711179D01*
X4052049Y278110D01*
X3952049Y278110D01*
X3952049Y711179D01*
X3830000Y711179D02*
G01*
X3952839Y711179D01*
X3952839Y278110D01*
X3830000Y278110D01*
X3830000Y711179D01*
X3952049Y496619D02*
G01*
X4046540Y496619D01*
X4046540Y492680D01*
X3952049Y492680D01*
X3952049Y496619D01*
D25*
G75*
G01*
X280000Y-460552D02*
G03*
X280634Y-460552I317J-259448D01*
D22*
G75*
G01
X4008700Y-2721180D02*
G03X4008700Y-2721180I-78700J0D01*
G75*
G01
X4208700Y-2721180D02*
G03X4208700Y-2721180I-78700J0D01*
G75*
G01
X4207910Y-2288110D02*
G03X4207910Y-2288110I-78700J0D01*
G75*
G01
X4007910Y-2288110D02*
G03X4007910Y-2288110I-78700J0D01*
G75*
G01
X158700Y-1140000D02*
G03X158700Y-1140000I-78700J0D01*
G75*
G01
X158700Y-1340000D02*
G03X158700Y-1340000I-78700J0D01*
G75*
G01
X5108700Y711180D02*
G03X5108700Y711180I-78700J0D01*
G75*
G01
X4908700Y711180D02*
G03X4908700Y711180I-78700J0D01*
G75*
G01
X4909490Y278110D02*
G03X4909490Y278110I-78700J0D01*
G75*
G01
X5109490Y278110D02*
G03X5109490Y278110I-78700J0D01*
M02*
