M48
INCH,LZ
;FILE_FORMAT=2:4
;TYPE=PLATED
;Layer: Drill PTH
;EasyEDA v6.4.19.5, 2021-04-15T14:22:44--3:00
;56ca0cd20ace464db3ad8dc24ac0750e,59636247558045d2802cba280e4ac9d9,10
;Gerber Generator version 0.2
;Holesize 1 = 0.0390 inch
T01C0.0390
;Holesize 2 = 0.0400 inch
T02C0.0400
;Holesize 3 = 0.1260 inch
T03C0.1260
%
G05
G90
T01
X027800Y-007500
X032300Y-009400
X033200Y-010852
X034200Y-012352
X006700Y-000500
X005700Y-000500
X063249Y-021800
X058500Y-021800
X060664Y002364
X058800Y002400
X047000Y-023100
X037800Y002200
X015500Y-011200
X015500Y-010200
X015500Y-009200
X015500Y-008200
X015500Y-007200
X017300Y-011200
X017300Y-010200
X017300Y-009200
X017300Y-008200
X017300Y-007200
X016300Y-021100
X015300Y-021100
X014300Y-021100
X013300Y-021100
X009300Y-021100
X010300Y-021100
X011300Y-021100
X012300Y-021100
X025300Y-021100
X024300Y-021100
X023300Y-021100
X022300Y-021100
X018300Y-021100
X019300Y-021100
X020300Y-021100
X021300Y-021100
X032500Y-016700
X031500Y-016700
X030500Y-016700
X029500Y-016700
X025500Y-016700
X026500Y-016700
X027500Y-016700
X028500Y-016700
X025300Y001000
X026300Y001000
X027300Y001000
X028300Y001000
X032300Y001000
X031300Y001000
X030300Y001000
X029300Y001000
X016300Y001000
X017300Y001000
X018300Y001000
X019300Y001000
X023300Y001000
X022300Y001000
X021300Y001000
X020300Y001000
X014700Y001000
X013700Y001000
X012700Y001000
X011700Y001000
X010700Y001000
X009700Y001000
X008700Y001000
X007700Y001000
X006700Y001000
X005700Y001000
X008500Y-005500
X008500Y-006500
X008500Y-007500
X008500Y-008500
X008500Y-009500
X008500Y-010500
X008500Y-011500
X008500Y-012500
X008500Y-013500
X008500Y-014500
X012600Y-005500
X012600Y-006500
X012600Y-007500
X012600Y-008500
X012600Y-009500
X012600Y-010500
X012600Y-011500
X012600Y-012500
X012600Y-013500
X012600Y-014500
X031100Y-005500
X031100Y-006500
X031100Y-007500
X031100Y-008500
X031100Y-009500
X031100Y-010500
X031100Y-011500
X031100Y-012500
X031100Y-013500
X031100Y-014500
X011100Y-005500
X011100Y-006500
X011100Y-007500
X011100Y-008500
X011100Y-009500
X011100Y-010500
X011100Y-011500
X011100Y-012500
X011100Y-013500
X011100Y-014500
X006900Y-005500
X006900Y-006500
X006900Y-007500
X006900Y-008500
X006900Y-009500
X006900Y-010500
X006900Y-011500
X006900Y-012500
X006900Y-013500
X006900Y-014500
X014500Y-016700
X013500Y-016700
X012500Y-016700
X011500Y-016700
X007500Y-016700
X008500Y-016700
X009500Y-016700
X010500Y-016700
X023400Y-016700
X022400Y-016700
X021400Y-016700
X020400Y-016700
X016400Y-016700
X017400Y-016700
X018400Y-016700
X019400Y-016700
X014700Y-002500
X013700Y-002500
X012700Y-002500
X011700Y-002500
X010700Y-002500
X009700Y-002500
X008700Y-002500
X007700Y-002500
X006700Y-002500
X005700Y-002500
X016300Y-002500
X017300Y-002500
X018300Y-002500
X019300Y-002500
X023300Y-002500
X022300Y-002500
X021300Y-002500
X020300Y-002500
X025300Y-002500
X026300Y-002500
X027300Y-002500
X028300Y-002500
X032300Y-002500
X031300Y-002500
X030300Y-002500
X029300Y-002500
X049568Y-023543
X049568Y-024543
X049568Y-025543
X049568Y-026543
X050670Y-024043
X050670Y-026011
X039300Y-027212
X041300Y-027212
X041292Y-022881
X039292Y-022881
X000800Y-011400
X000800Y-013400
X058800Y-026200
X059800Y-026200
X060800Y-026200
X064800Y-026200
X065800Y-026200
X066800Y-026200
X058800Y006100
X059800Y006100
X060800Y006100
X064800Y006100
X065800Y006100
X066800Y006100
X002800Y-008184
X002800Y-006215
X060800Y-023800
X058800Y-023800
X066800Y-024000
X064800Y-024000
X060800Y004000
X058800Y004000
X066800Y004000
X064800Y004000
X052700Y-014000
X054700Y-014000
X052700Y-016600
X054700Y-016600
X062800Y-014000
X064800Y-014000
X062800Y-016600
X064800Y-016600
X052700Y-011500
X054700Y-011500
X044600Y-016500
X042600Y-016500
X062800Y-011500
X064800Y-011500
X034300Y-021000
X033300Y-021000
X032300Y-021000
X031300Y-021000
X027300Y-021000
X028300Y-021000
X029300Y-021000
X030300Y-021000
X047700Y-000050
X046700Y-000050
X045700Y-000050
X044700Y-000050
X043700Y-000050
X042700Y-000050
X041700Y-000050
X040700Y-000050
X039700Y-000050
X047700Y-019900
X046700Y-019900
X045700Y-019900
X044700Y-019900
X043700Y-019900
X042700Y-019900
X041700Y-019900
X040700Y-019900
X039700Y-019900
X057700Y-000050
X056700Y-000050
X055700Y-000050
X054700Y-000050
X053700Y-000050
X052700Y-000050
X051700Y-000050
X050700Y-000050
X049700Y-000050
X057700Y-019900
X056700Y-019900
X055700Y-019900
X054700Y-019900
X053700Y-019900
X052700Y-019900
X051700Y-019900
X050700Y-019900
X049700Y-019900
X059700Y-019950
X060700Y-019950
X061700Y-019950
X062700Y-019950
X063700Y-019950
X064700Y-019950
X065700Y-019950
X066700Y-019950
X067700Y-019950
X059700Y-000100
X060700Y-000100
X061700Y-000100
X062700Y-000100
X063700Y-000100
X064700Y-000100
X065700Y-000100
X066700Y-000100
X067700Y-000100
X016300Y-019600
X015300Y-019600
X014300Y-019600
X013300Y-019600
X012300Y-019600
X011300Y-019600
X036300Y-000600
X035300Y-000600
X036300Y-017600
X035300Y-017600
X035300Y-009600
X036300Y-009600
X035300Y-010600
X036300Y-010600
X035300Y-011600
X036300Y-011600
X035300Y-012600
X036300Y-012600
X035300Y-013600
X036300Y-013600
X035300Y-014600
X036300Y-014600
X035300Y-015600
X036300Y-015600
X035300Y-016600
X036300Y-016600
X035300Y-001600
X036300Y-001600
X035300Y-002600
X036300Y-002600
X035300Y-003600
X036300Y-003600
X035300Y-004600
X036300Y-004600
X035300Y-005600
X036300Y-005600
X035300Y-006600
X036300Y-006600
X035300Y-007600
X036300Y-007600
X035300Y-008600
X036300Y-008600
X007700Y-000600
X014700Y-000600
X013700Y-000600
X012700Y-000600
X011700Y-000600
X010700Y-000600
X009700Y-000600
X008700Y-000600
X016300Y-000600
X023300Y-000600
X022300Y-000600
X021300Y-000600
X020300Y-000600
X019300Y-000600
X018300Y-000600
X017300Y-000600
X018300Y-019600
X025300Y-019600
X024300Y-019600
X023300Y-019600
X022300Y-019600
X021300Y-019600
X020300Y-019600
X019300Y-019600
X025300Y-000600
X032300Y-000600
X031300Y-000600
X030300Y-000600
X029300Y-000600
X028300Y-000600
X027300Y-000600
X026300Y-000600
X027300Y-019600
X034300Y-019600
X033300Y-019600
X032300Y-019600
X031300Y-019600
X030300Y-019600
X029300Y-019600
X028300Y-019600
X010300Y-019600
X044600Y-014000
X042600Y-014000
X044600Y-011500
X042600Y-011500
X040032Y003443
X040032Y004443
X040032Y005443
X040032Y006443
X038930Y003943
X038930Y005911
X050300Y007112
X048300Y007112
X048308Y002781
X050308Y002781
T02
X019100Y-014400
T03
X054799Y-024300G85X054801Y-024300
X054799Y004200G85X054801Y004200
X035799Y-024300G85X035801Y-024300
X035799Y004200G85X035801Y004200
M30
