M48
METRIC,LZ,000.000
;FILE_FORMAT=3:3
;TYPE=PLATED
;Layer: Drill PTH
;EasyEDA v6.4.19.5, 2021-05-28T08:08:18--3:00
;c9b473d587b343d0a851897dfaf33f8f,59636247558045d2802cba280e4ac9d9,10
;Gerber Generator version 0.2
;Holesize 1 = 0.800 mm
T01C0.800
;Holesize 2 = 3.200 mm
T02C3.200
%
G05
G90
T01
X054501Y044872
X054501Y042332
X054501Y039792
X054501Y037252
X054501Y034712
X054501Y032172
X054501Y017539
X054501Y014999
X048500Y046040
X048500Y043500
X048499Y013460
X048499Y018540
X048540Y031326G85X048500Y031326
X048540Y039581G85X048500Y039581
X048500Y028750
X048500Y021130
X048500Y010540
X048500Y008000
X048500Y005460
X023450Y032750
X023450Y027550
X036900Y032060
X036900Y029460
X023450Y030150
X036900Y034660
X036900Y026860
X000380Y047780
X000380Y045240
X000380Y042700
X000380Y040160
X000380Y037620
X000380Y035080
X000380Y032540
X000380Y030000
X000380Y027460
X000380Y024920
X000380Y022380
X000380Y019840
X000380Y017300
X000380Y014760
X000380Y012220
X015620Y047780
X015620Y045240
X015620Y042700
X015620Y040160
X015620Y037620
X015620Y035080
X015620Y032540
X015620Y030000
X015620Y027460
X015620Y024920
X015620Y022380
X015620Y019840
X015620Y017300
X015620Y014760
X015620Y012220
T02
X005000Y055000G85X005000Y055000
X055000Y055000G85X055000Y055000
X005000Y005000G85X005000Y005000
X055000Y005000G85X055000Y005000
M30
