G04 Layer: TopLayer*
G04 EasyEDA v6.4.19.5, 2021-05-28T08:08:18--3:00*
G04 c9b473d587b343d0a851897dfaf33f8f,59636247558045d2802cba280e4ac9d9,10*
G04 Gerber Generator version 0.2*
G04 Scale: 100 percent, Rotated: No, Reflected: No *
G04 Dimensions in millimeters *
G04 leading zeros omitted , absolute positions ,4 integer and 5 decimal *
%FSLAX45Y45*%
%MOMM*%

%ADD11C,1.2700*%
%ADD12C,0.7620*%
%ADD13C,1.0160*%
%ADD14R,2.0000X2.0000*%
%ADD15C,2.0000*%
%ADD16C,4.5000*%
%ADD17R,1.8000X1.8000*%
%ADD18C,1.8000*%

%LPD*%
G36*
X298043Y25654D02*
G01*
X267970Y26720D01*
X238302Y29667D01*
X208940Y34493D01*
X179882Y41097D01*
X151333Y49530D01*
X123342Y59791D01*
X96062Y71729D01*
X69596Y85394D01*
X43992Y100634D01*
X19456Y117500D01*
X-4013Y135890D01*
X-26263Y155702D01*
X-47244Y176834D01*
X-66852Y199288D01*
X-84988Y222910D01*
X-101600Y247599D01*
X-116687Y273304D01*
X-130098Y299923D01*
X-141782Y327304D01*
X-151739Y355346D01*
X-159969Y383997D01*
X-166319Y413105D01*
X-170840Y442569D01*
X-173532Y472236D01*
X-174345Y501446D01*
X-174345Y5501995D01*
X-173228Y5532170D01*
X-170281Y5561736D01*
X-165506Y5591048D01*
X-158902Y5620004D01*
X-150469Y5648502D01*
X-140309Y5676442D01*
X-128371Y5703671D01*
X-114808Y5730087D01*
X-99568Y5755589D01*
X-82804Y5780125D01*
X-64516Y5803544D01*
X-44805Y5825744D01*
X-23723Y5846673D01*
X-1371Y5866282D01*
X22148Y5884418D01*
X46786Y5901080D01*
X72390Y5916117D01*
X98856Y5929579D01*
X126187Y5941314D01*
X154127Y5951321D01*
X182676Y5959602D01*
X211683Y5966053D01*
X241046Y5970625D01*
X270611Y5973419D01*
X300532Y5974334D01*
X5701080Y5974334D01*
X5731662Y5973267D01*
X5761228Y5970371D01*
X5790590Y5965596D01*
X5819597Y5958992D01*
X5848096Y5950610D01*
X5876036Y5940450D01*
X5903315Y5928563D01*
X5929731Y5914948D01*
X5955284Y5899759D01*
X5979820Y5882995D01*
X6003290Y5864707D01*
X6025540Y5844997D01*
X6046520Y5823915D01*
X6066129Y5801563D01*
X6084316Y5778042D01*
X6100978Y5753404D01*
X6116066Y5727750D01*
X6129528Y5701284D01*
X6141262Y5673953D01*
X6151321Y5645962D01*
X6159550Y5617413D01*
X6166002Y5588355D01*
X6170625Y5558993D01*
X6173419Y5529376D01*
X6174333Y5499455D01*
X6174282Y509778D01*
X6173927Y479094D01*
X6171641Y449224D01*
X6167475Y419506D01*
X6161481Y390144D01*
X6153607Y361238D01*
X6143955Y332892D01*
X6132525Y305206D01*
X6119368Y278282D01*
X6104534Y252221D01*
X6088075Y227177D01*
X6070041Y203200D01*
X6050584Y180441D01*
X6029706Y158953D01*
X6007506Y138785D01*
X5984087Y120091D01*
X5959551Y102920D01*
X5933948Y87325D01*
X5907430Y73406D01*
X5880049Y61163D01*
X5852007Y50647D01*
X5823305Y41960D01*
X5794146Y35052D01*
X5764631Y30073D01*
X5734812Y26924D01*
X5704738Y25654D01*
G37*

%LPC*%
G36*
X4600549Y374345D02*
G01*
X5199430Y374345D01*
X5205679Y375056D01*
X5211114Y376936D01*
X5215940Y379984D01*
X5220004Y384048D01*
X5223052Y388874D01*
X5224932Y394309D01*
X5225643Y400558D01*
X5225643Y764184D01*
X5226405Y768096D01*
X5228640Y771347D01*
X5231942Y773582D01*
X5235803Y774344D01*
X5799429Y774344D01*
X5805678Y775055D01*
X5811113Y776935D01*
X5815939Y779983D01*
X5820003Y784047D01*
X5823051Y788873D01*
X5824931Y794308D01*
X5825642Y800557D01*
X5825642Y2499410D01*
X5824931Y2505710D01*
X5823051Y2511094D01*
X5820003Y2515971D01*
X5815939Y2519984D01*
X5811113Y2523032D01*
X5805678Y2524963D01*
X5799429Y2525674D01*
X4600549Y2525674D01*
X4594301Y2524963D01*
X4588916Y2523032D01*
X4584039Y2519984D01*
X4579975Y2515971D01*
X4576927Y2511094D01*
X4575048Y2505710D01*
X4574336Y2499410D01*
X4574336Y1500581D01*
X4575048Y1494282D01*
X4576927Y1488897D01*
X4579975Y1484020D01*
X4584039Y1480007D01*
X4588916Y1476959D01*
X4594301Y1475028D01*
X4600549Y1474368D01*
X5014163Y1474368D01*
X5018074Y1473555D01*
X5021376Y1471371D01*
X5023561Y1468069D01*
X5024323Y1464208D01*
X5024323Y1235811D01*
X5023561Y1231950D01*
X5021376Y1228648D01*
X5018074Y1226413D01*
X5014163Y1225651D01*
X4600549Y1225651D01*
X4594301Y1224940D01*
X4588916Y1223060D01*
X4584039Y1220012D01*
X4579975Y1215948D01*
X4576927Y1211122D01*
X4575048Y1205687D01*
X4574336Y1199438D01*
X4574336Y1149350D01*
X4573574Y1145438D01*
X4571390Y1142187D01*
X4568088Y1139952D01*
X4564176Y1139190D01*
X3900119Y1139190D01*
X3893565Y1138936D01*
X3887215Y1138275D01*
X3880967Y1137158D01*
X3874820Y1135583D01*
X3868775Y1133551D01*
X3862882Y1131112D01*
X3857193Y1128268D01*
X3851706Y1125016D01*
X3846474Y1121410D01*
X3841546Y1117396D01*
X3836771Y1112926D01*
X3515969Y792175D01*
X3512667Y789940D01*
X3508756Y789178D01*
X1341120Y789178D01*
X1337208Y789940D01*
X1333906Y792175D01*
X1215085Y910996D01*
X1212850Y914298D01*
X1212088Y918210D01*
X1212088Y3631692D01*
X1212850Y3635603D01*
X1215085Y3638905D01*
X1491081Y3914901D01*
X1493875Y3916883D01*
X1497177Y3917848D01*
X1500581Y3917645D01*
X1503730Y3916324D01*
X1506270Y3914648D01*
X1519428Y3908501D01*
X1533245Y3903979D01*
X1547520Y3901287D01*
X1561998Y3900373D01*
X1576476Y3901287D01*
X1590751Y3903979D01*
X1604568Y3908501D01*
X1617726Y3914648D01*
X1629968Y3922471D01*
X1632457Y3924503D01*
X1635506Y3926230D01*
X1638909Y3926840D01*
X1892807Y3926840D01*
X1896719Y3926078D01*
X1900021Y3923842D01*
X2257247Y3566617D01*
X2259482Y3563264D01*
X2260193Y3559301D01*
X2257907Y3410661D01*
X2257094Y3406851D01*
X2254910Y3403600D01*
X2251608Y3401415D01*
X2247747Y3400653D01*
X2245563Y3400653D01*
X2239314Y3399942D01*
X2233879Y3398062D01*
X2229053Y3395014D01*
X2224989Y3390950D01*
X2221941Y3386124D01*
X2220061Y3380689D01*
X2219350Y3374440D01*
X2219350Y3175558D01*
X2220061Y3169310D01*
X2221941Y3163925D01*
X2224989Y3159048D01*
X2229053Y3154984D01*
X2233879Y3151936D01*
X2239314Y3150057D01*
X2245563Y3149346D01*
X2290622Y3149346D01*
X2294483Y3148584D01*
X2297734Y3146450D01*
X2299970Y3143199D01*
X2300782Y3139389D01*
X2300071Y3135528D01*
X2297988Y3132175D01*
X2294788Y3129940D01*
X2286609Y3126232D01*
X2273655Y3118408D01*
X2261666Y3109061D01*
X2250948Y3098342D01*
X2241600Y3086354D01*
X2233777Y3073400D01*
X2227529Y3059582D01*
X2223008Y3045053D01*
X2220264Y3030169D01*
X2219350Y3015030D01*
X2220264Y2999841D01*
X2223008Y2984957D01*
X2227529Y2970479D01*
X2233777Y2956610D01*
X2241600Y2943656D01*
X2250948Y2931718D01*
X2261666Y2920949D01*
X2273655Y2911602D01*
X2286609Y2903778D01*
X2300427Y2897530D01*
X2314956Y2893009D01*
X2329840Y2890266D01*
X2344978Y2889351D01*
X2360168Y2890266D01*
X2375052Y2893009D01*
X2389530Y2897530D01*
X2403398Y2903778D01*
X2416352Y2911602D01*
X2428290Y2920949D01*
X2439060Y2931718D01*
X2448407Y2943656D01*
X2456230Y2956610D01*
X2462479Y2970479D01*
X2467000Y2984957D01*
X2469743Y2999841D01*
X2470658Y3015030D01*
X2469743Y3030169D01*
X2467000Y3045053D01*
X2462479Y3059582D01*
X2456230Y3073400D01*
X2448407Y3086354D01*
X2439060Y3098342D01*
X2428290Y3109061D01*
X2416352Y3118408D01*
X2403398Y3126232D01*
X2395220Y3129940D01*
X2392019Y3132175D01*
X2389936Y3135528D01*
X2389225Y3139389D01*
X2390038Y3143199D01*
X2392273Y3146450D01*
X2395524Y3148584D01*
X2399385Y3149346D01*
X2444445Y3149346D01*
X2450693Y3150057D01*
X2456078Y3151936D01*
X2460955Y3154984D01*
X2465019Y3159048D01*
X2468067Y3163925D01*
X2469946Y3169259D01*
X2470708Y3176778D01*
X2471775Y3180384D01*
X2474010Y3183280D01*
X2477160Y3185261D01*
X2480818Y3185922D01*
X2824784Y3185922D01*
X2831338Y3186176D01*
X2837688Y3186836D01*
X2843936Y3187954D01*
X2850083Y3189528D01*
X2856128Y3191560D01*
X2862021Y3193999D01*
X2867710Y3196844D01*
X2873197Y3200095D01*
X2878429Y3203702D01*
X2883357Y3207715D01*
X2888132Y3212185D01*
X4183786Y4507788D01*
X4187088Y4510024D01*
X4191000Y4510786D01*
X4714544Y4510786D01*
X4718202Y4510125D01*
X4721352Y4508195D01*
X4723587Y4505299D01*
X4724654Y4501743D01*
X4725060Y4498289D01*
X4726940Y4492904D01*
X4729988Y4488027D01*
X4734052Y4484014D01*
X4738878Y4480966D01*
X4744313Y4479036D01*
X4750562Y4478324D01*
X4949444Y4478324D01*
X4955692Y4479036D01*
X4961128Y4480966D01*
X4965954Y4484014D01*
X4970018Y4488027D01*
X4973066Y4492904D01*
X4974945Y4498289D01*
X4975352Y4501845D01*
X4976418Y4505350D01*
X4978654Y4508246D01*
X4981803Y4510176D01*
X4985461Y4510836D01*
X5108854Y4510836D01*
X5112766Y4510074D01*
X5116017Y4507890D01*
X5199532Y4424375D01*
X5204307Y4419955D01*
X5209286Y4415942D01*
X5214518Y4412335D01*
X5220004Y4409084D01*
X5225643Y4406239D01*
X5231536Y4403801D01*
X5237581Y4401769D01*
X5243779Y4400194D01*
X5250027Y4399076D01*
X5256326Y4398365D01*
X5262880Y4398162D01*
X5314289Y4398162D01*
X5317896Y4397451D01*
X5321096Y4395520D01*
X5323332Y4392574D01*
X5324348Y4389018D01*
X5325160Y4381449D01*
X5327040Y4376064D01*
X5330088Y4371238D01*
X5334101Y4367174D01*
X5338978Y4364126D01*
X5344363Y4362246D01*
X5350662Y4361535D01*
X5383530Y4361535D01*
X5387797Y4360570D01*
X5391251Y4357928D01*
X5393334Y4354068D01*
X5393588Y4349750D01*
X5391962Y4345686D01*
X5388813Y4342688D01*
X5378704Y4336592D01*
X5366766Y4327194D01*
X5356047Y4316476D01*
X5346700Y4304538D01*
X5338826Y4291584D01*
X5332628Y4277715D01*
X5328107Y4263237D01*
X5325364Y4248302D01*
X5324449Y4233164D01*
X5325364Y4218025D01*
X5328107Y4203090D01*
X5332628Y4188612D01*
X5338826Y4174794D01*
X5346700Y4161790D01*
X5356047Y4149851D01*
X5366766Y4139133D01*
X5378704Y4129786D01*
X5391708Y4121912D01*
X5406085Y4115409D01*
X5409234Y4113174D01*
X5411368Y4109974D01*
X5412079Y4106164D01*
X5411317Y4102354D01*
X5409234Y4099102D01*
X5406085Y4096918D01*
X5391708Y4090415D01*
X5378704Y4082592D01*
X5366766Y4073194D01*
X5356047Y4062476D01*
X5353812Y4059631D01*
X5351576Y4057548D01*
X5348833Y4056227D01*
X5345836Y4055770D01*
X4934153Y4055770D01*
X4930800Y4056329D01*
X4927854Y4057904D01*
X4923332Y4061460D01*
X4910378Y4069334D01*
X4896510Y4075531D01*
X4882032Y4080052D01*
X4867097Y4082796D01*
X4851958Y4083710D01*
X4836820Y4082796D01*
X4821885Y4080052D01*
X4807407Y4075531D01*
X4793589Y4069334D01*
X4780584Y4061460D01*
X4768646Y4052112D01*
X4757928Y4041394D01*
X4748580Y4029456D01*
X4740706Y4016451D01*
X4734509Y4002633D01*
X4729988Y3988155D01*
X4727244Y3973220D01*
X4726330Y3958082D01*
X4727244Y3942943D01*
X4729988Y3928008D01*
X4734509Y3913530D01*
X4740706Y3899712D01*
X4748580Y3886708D01*
X4757928Y3874770D01*
X4768646Y3864051D01*
X4780584Y3854653D01*
X4793589Y3846829D01*
X4807407Y3840581D01*
X4821885Y3836111D01*
X4836820Y3833368D01*
X4851958Y3832453D01*
X4867097Y3833368D01*
X4882032Y3836111D01*
X4896510Y3840581D01*
X4910378Y3846829D01*
X4923332Y3854653D01*
X4935270Y3864051D01*
X4945989Y3874770D01*
X4955387Y3886708D01*
X4962144Y3897934D01*
X4964430Y3900576D01*
X4967427Y3902252D01*
X4970881Y3902862D01*
X5345633Y3902862D01*
X5348630Y3902405D01*
X5351373Y3901033D01*
X5353608Y3898950D01*
X5356047Y3895851D01*
X5366766Y3885133D01*
X5378704Y3875786D01*
X5391708Y3867912D01*
X5406085Y3861409D01*
X5409234Y3859174D01*
X5411368Y3855974D01*
X5412079Y3852164D01*
X5411317Y3848354D01*
X5409234Y3845102D01*
X5406085Y3842918D01*
X5391708Y3836415D01*
X5378704Y3828592D01*
X5366766Y3819194D01*
X5356047Y3808476D01*
X5346700Y3796537D01*
X5338826Y3783584D01*
X5332628Y3769766D01*
X5330393Y3766565D01*
X5327142Y3764483D01*
X5323332Y3763772D01*
X4800295Y3763772D01*
X4789728Y3762908D01*
X4781600Y3761028D01*
X4779518Y3760368D01*
X4771796Y3757168D01*
X4762804Y3751783D01*
X4754676Y3744874D01*
X4282541Y3272739D01*
X4279239Y3270503D01*
X4275378Y3269742D01*
X3803751Y3269742D01*
X3800348Y3270351D01*
X3797300Y3272028D01*
X3795064Y3274669D01*
X3793388Y3277362D01*
X3784041Y3289300D01*
X3773322Y3300069D01*
X3761384Y3309416D01*
X3748379Y3317240D01*
X3734562Y3323488D01*
X3720084Y3328009D01*
X3705148Y3330752D01*
X3690010Y3331667D01*
X3674872Y3330752D01*
X3659936Y3328009D01*
X3645458Y3323488D01*
X3631590Y3317240D01*
X3618636Y3309416D01*
X3606698Y3300069D01*
X3595979Y3289300D01*
X3586581Y3277362D01*
X3584956Y3274669D01*
X3582670Y3272028D01*
X3579672Y3270351D01*
X3576269Y3269742D01*
X3456228Y3269742D01*
X3447796Y3269234D01*
X3437534Y3266998D01*
X3435400Y3266338D01*
X3425748Y3262172D01*
X3418687Y3257753D01*
X3410610Y3250844D01*
X2776677Y2616657D01*
X2773375Y2614422D01*
X2769463Y2613660D01*
X2295804Y2613660D01*
X2292045Y2614371D01*
X2288794Y2616454D01*
X2016861Y2876194D01*
X2014524Y2879547D01*
X2013712Y2883509D01*
X2013712Y3049727D01*
X2013204Y3058109D01*
X2011019Y3068421D01*
X2007158Y3078226D01*
X2006142Y3080207D01*
X2001723Y3087268D01*
X1994814Y3095345D01*
X1791309Y3298850D01*
X1783232Y3305759D01*
X1776171Y3310178D01*
X1774189Y3311194D01*
X1764385Y3315055D01*
X1754073Y3317240D01*
X1745691Y3317748D01*
X1663496Y3317748D01*
X1660347Y3318256D01*
X1657553Y3319678D01*
X1655267Y3321913D01*
X1651101Y3327704D01*
X1641144Y3338271D01*
X1629968Y3347567D01*
X1617726Y3355340D01*
X1604568Y3361537D01*
X1590751Y3366008D01*
X1576476Y3368700D01*
X1561998Y3369614D01*
X1547520Y3368700D01*
X1533245Y3366008D01*
X1519428Y3361537D01*
X1506270Y3355340D01*
X1494028Y3347567D01*
X1482852Y3338271D01*
X1472895Y3327704D01*
X1464360Y3315970D01*
X1457350Y3303219D01*
X1452016Y3289706D01*
X1448409Y3275685D01*
X1446580Y3261258D01*
X1446580Y3246729D01*
X1448409Y3232353D01*
X1452016Y3218281D01*
X1457350Y3204768D01*
X1464360Y3192018D01*
X1472895Y3180283D01*
X1482852Y3169716D01*
X1494028Y3160471D01*
X1506270Y3152648D01*
X1519428Y3146501D01*
X1533245Y3141980D01*
X1547520Y3139287D01*
X1561998Y3138373D01*
X1576476Y3139287D01*
X1590751Y3141980D01*
X1604568Y3146501D01*
X1617726Y3152648D01*
X1629968Y3160471D01*
X1641144Y3169716D01*
X1651101Y3180283D01*
X1655267Y3186074D01*
X1657553Y3188309D01*
X1660347Y3189732D01*
X1663496Y3190240D01*
X1715363Y3190240D01*
X1719275Y3189478D01*
X1722577Y3187242D01*
X1883206Y3026613D01*
X1885442Y3023311D01*
X1886204Y3019399D01*
X1886204Y2852267D01*
X1886915Y2842615D01*
X1889302Y2832354D01*
X1893366Y2822600D01*
X1898954Y2813710D01*
X1906219Y2805531D01*
X2221992Y2503982D01*
X2227122Y2499563D01*
X2230272Y2497226D01*
X2235911Y2493822D01*
X2239416Y2492044D01*
X2245563Y2489606D01*
X2249322Y2488438D01*
X2255774Y2487015D01*
X2259685Y2486507D01*
X2266442Y2486152D01*
X2799791Y2486152D01*
X2808224Y2486660D01*
X2818485Y2488895D01*
X2820619Y2489555D01*
X2830271Y2493721D01*
X2837332Y2498140D01*
X2845409Y2505049D01*
X3479342Y3139236D01*
X3482644Y3141472D01*
X3486556Y3142234D01*
X3576269Y3142234D01*
X3579672Y3141624D01*
X3582720Y3139948D01*
X3584956Y3137306D01*
X3586581Y3134614D01*
X3595979Y3122676D01*
X3606698Y3111957D01*
X3618636Y3102610D01*
X3631590Y3094786D01*
X3645458Y3088538D01*
X3654551Y3085693D01*
X3658260Y3083610D01*
X3660800Y3080156D01*
X3661664Y3075990D01*
X3660800Y3071825D01*
X3658260Y3068421D01*
X3654551Y3066288D01*
X3645458Y3063443D01*
X3631590Y3057245D01*
X3618636Y3049371D01*
X3606698Y3040024D01*
X3595979Y3029305D01*
X3586784Y3017621D01*
X3584549Y3015488D01*
X3581806Y3014167D01*
X3578809Y3013710D01*
X3550208Y3013710D01*
X3541826Y3013202D01*
X3531514Y3011017D01*
X3521710Y3007156D01*
X3519728Y3006140D01*
X3512667Y3001721D01*
X3504590Y2994812D01*
X2926537Y2416759D01*
X2923235Y2414524D01*
X2919323Y2413762D01*
X2230526Y2413762D01*
X2226614Y2414524D01*
X2223312Y2416759D01*
X1866849Y2773476D01*
X1864614Y2776778D01*
X1863852Y2780639D01*
X1863852Y2899613D01*
X1863343Y2907995D01*
X1861159Y2918307D01*
X1857298Y2928112D01*
X1856282Y2930093D01*
X1851863Y2937154D01*
X1844954Y2945231D01*
X1745335Y3044850D01*
X1737258Y3051759D01*
X1730197Y3056178D01*
X1728216Y3057194D01*
X1718411Y3061055D01*
X1708099Y3063240D01*
X1699717Y3063748D01*
X1663496Y3063748D01*
X1660347Y3064256D01*
X1657553Y3065678D01*
X1655267Y3067913D01*
X1651101Y3073704D01*
X1641144Y3084271D01*
X1629968Y3093567D01*
X1617726Y3101340D01*
X1604568Y3107537D01*
X1590751Y3112008D01*
X1576476Y3114700D01*
X1561998Y3115614D01*
X1547520Y3114700D01*
X1533245Y3112008D01*
X1519428Y3107537D01*
X1506270Y3101340D01*
X1494028Y3093567D01*
X1482852Y3084271D01*
X1472895Y3073704D01*
X1464360Y3061970D01*
X1457350Y3049219D01*
X1452016Y3035706D01*
X1448409Y3021685D01*
X1446580Y3007258D01*
X1446580Y2992729D01*
X1448409Y2978353D01*
X1452016Y2964281D01*
X1457350Y2950768D01*
X1464360Y2938018D01*
X1472895Y2926283D01*
X1482852Y2915716D01*
X1494028Y2906471D01*
X1506270Y2898648D01*
X1519428Y2892501D01*
X1533245Y2887980D01*
X1547520Y2885287D01*
X1561998Y2884373D01*
X1576476Y2885287D01*
X1590751Y2887980D01*
X1604568Y2892501D01*
X1617726Y2898648D01*
X1629968Y2906471D01*
X1641144Y2915716D01*
X1651101Y2926283D01*
X1655267Y2932074D01*
X1657553Y2934309D01*
X1660347Y2935732D01*
X1663496Y2936240D01*
X1669389Y2936240D01*
X1673301Y2935478D01*
X1676603Y2933242D01*
X1733346Y2876499D01*
X1735582Y2873197D01*
X1736343Y2869285D01*
X1736343Y2750362D01*
X1736852Y2741980D01*
X1739036Y2731668D01*
X1742897Y2721914D01*
X1743913Y2719882D01*
X1749653Y2711043D01*
X1755241Y2704744D01*
X2154580Y2305151D01*
X2162657Y2298242D01*
X2169718Y2293823D01*
X2179370Y2289657D01*
X2181504Y2288997D01*
X2191766Y2286762D01*
X2200198Y2286254D01*
X2949651Y2286254D01*
X2958033Y2286762D01*
X2968345Y2288946D01*
X2978150Y2292807D01*
X2980131Y2293823D01*
X2987192Y2298242D01*
X2995269Y2305151D01*
X3569208Y2879090D01*
X3572205Y2881172D01*
X3575761Y2882036D01*
X3579418Y2881579D01*
X3582670Y2879902D01*
X3585057Y2877159D01*
X3586581Y2874619D01*
X3595979Y2862681D01*
X3606698Y2851962D01*
X3618636Y2842615D01*
X3631590Y2834741D01*
X3645458Y2828544D01*
X3654501Y2825699D01*
X3658209Y2823616D01*
X3660749Y2820162D01*
X3661664Y2815996D01*
X3660749Y2811830D01*
X3658209Y2808376D01*
X3654501Y2806293D01*
X3645458Y2803499D01*
X3631590Y2797251D01*
X3618636Y2789428D01*
X3606698Y2780030D01*
X3595979Y2769311D01*
X3586581Y2757373D01*
X3578758Y2744419D01*
X3572510Y2730550D01*
X3567988Y2716072D01*
X3565296Y2701137D01*
X3564382Y2685999D01*
X3565296Y2670860D01*
X3567988Y2655925D01*
X3572510Y2641447D01*
X3578758Y2627630D01*
X3586581Y2614625D01*
X3595979Y2602687D01*
X3606698Y2591968D01*
X3618636Y2582621D01*
X3631590Y2574747D01*
X3645458Y2568549D01*
X3659936Y2564028D01*
X3674872Y2561285D01*
X3690010Y2560370D01*
X3705148Y2561285D01*
X3720084Y2564028D01*
X3734562Y2568549D01*
X3748379Y2574747D01*
X3761384Y2582621D01*
X3773322Y2591968D01*
X3784041Y2602687D01*
X3793388Y2614625D01*
X3801262Y2627630D01*
X3807460Y2641447D01*
X3811981Y2655925D01*
X3814724Y2670860D01*
X3815638Y2685999D01*
X3814724Y2701137D01*
X3811981Y2716072D01*
X3807460Y2730550D01*
X3801262Y2744419D01*
X3793388Y2757373D01*
X3784041Y2769311D01*
X3773322Y2780030D01*
X3761384Y2789428D01*
X3748379Y2797251D01*
X3734562Y2803499D01*
X3725468Y2806293D01*
X3721760Y2808376D01*
X3719271Y2811830D01*
X3718356Y2815996D01*
X3719271Y2820162D01*
X3721760Y2823616D01*
X3725468Y2825699D01*
X3734562Y2828544D01*
X3748379Y2834741D01*
X3761384Y2842615D01*
X3773322Y2851962D01*
X3784041Y2862681D01*
X3793388Y2874619D01*
X3795014Y2877312D01*
X3797300Y2879902D01*
X3800297Y2881630D01*
X3803700Y2882188D01*
X4345635Y2882188D01*
X4356252Y2883052D01*
X4364380Y2884932D01*
X4366463Y2885592D01*
X4374134Y2888792D01*
X4376115Y2889808D01*
X4383176Y2894228D01*
X4384954Y2895549D01*
X4391253Y2901086D01*
X4873447Y3383279D01*
X4876749Y3385464D01*
X4880610Y3386226D01*
X5353456Y3386226D01*
X5357317Y3385464D01*
X5360619Y3383279D01*
X5366766Y3377133D01*
X5378704Y3367786D01*
X5391708Y3359912D01*
X5405526Y3353714D01*
X5420004Y3349193D01*
X5434939Y3346450D01*
X5450078Y3345535D01*
X5465216Y3346450D01*
X5480151Y3349193D01*
X5494629Y3353714D01*
X5508447Y3359912D01*
X5521452Y3367786D01*
X5533390Y3377133D01*
X5544108Y3387851D01*
X5553456Y3399790D01*
X5561330Y3412794D01*
X5567527Y3426612D01*
X5572048Y3441090D01*
X5574792Y3456025D01*
X5575706Y3471164D01*
X5574792Y3486302D01*
X5572048Y3501237D01*
X5567527Y3515715D01*
X5561330Y3529584D01*
X5553456Y3542537D01*
X5544108Y3554476D01*
X5533390Y3565194D01*
X5521452Y3574592D01*
X5508447Y3582415D01*
X5494070Y3588918D01*
X5490921Y3591153D01*
X5488787Y3594404D01*
X5488076Y3598214D01*
X5488838Y3601974D01*
X5490921Y3605225D01*
X5494070Y3607460D01*
X5508447Y3613912D01*
X5521452Y3621786D01*
X5533390Y3631133D01*
X5544108Y3641851D01*
X5553456Y3653790D01*
X5561330Y3666794D01*
X5567527Y3680612D01*
X5572048Y3695090D01*
X5574792Y3710025D01*
X5575706Y3725164D01*
X5574792Y3740302D01*
X5572048Y3755237D01*
X5567527Y3769715D01*
X5561330Y3783584D01*
X5553456Y3796537D01*
X5544108Y3808476D01*
X5533390Y3819194D01*
X5521452Y3828592D01*
X5508447Y3836415D01*
X5494070Y3842918D01*
X5490921Y3845153D01*
X5488787Y3848404D01*
X5488076Y3852214D01*
X5488838Y3855974D01*
X5490921Y3859225D01*
X5494070Y3861460D01*
X5508447Y3867912D01*
X5521452Y3875786D01*
X5533390Y3885133D01*
X5544108Y3895851D01*
X5553456Y3907790D01*
X5561330Y3920794D01*
X5563717Y3925315D01*
X5568391Y3929075D01*
X5574588Y3934510D01*
X5794908Y4154576D01*
X5800496Y4160926D01*
X5806236Y4169714D01*
X5810402Y4179417D01*
X5811062Y4181449D01*
X5813298Y4191762D01*
X5813806Y4200194D01*
X5813806Y4799787D01*
X5813298Y4808220D01*
X5811062Y4818532D01*
X5810402Y4820564D01*
X5806236Y4830267D01*
X5800496Y4839055D01*
X5794857Y4845456D01*
X5645200Y4994859D01*
X5638952Y5000396D01*
X5637123Y5001768D01*
X5630113Y5006136D01*
X5628081Y5007152D01*
X5620461Y5010302D01*
X5618276Y5011013D01*
X5607964Y5013198D01*
X5599633Y5013706D01*
X1450390Y5013706D01*
X1442008Y5013198D01*
X1431747Y5011013D01*
X1429562Y5010302D01*
X1421942Y5007152D01*
X1419910Y5006136D01*
X1411071Y5000396D01*
X1404823Y4994859D01*
X1155039Y4745329D01*
X1149451Y4738979D01*
X1143711Y4730191D01*
X1139545Y4720488D01*
X1138885Y4718456D01*
X1136650Y4708144D01*
X1136142Y4699711D01*
X1136142Y4080662D01*
X1135380Y4076750D01*
X1133144Y4073448D01*
X888441Y3828745D01*
X885139Y3826510D01*
X881227Y3825748D01*
X139496Y3825748D01*
X136347Y3826256D01*
X133553Y3827678D01*
X131267Y3829913D01*
X127101Y3835704D01*
X117144Y3846271D01*
X105968Y3855567D01*
X93726Y3863340D01*
X80568Y3869537D01*
X66751Y3874008D01*
X52476Y3876700D01*
X37998Y3877614D01*
X23520Y3876700D01*
X9245Y3874008D01*
X-4572Y3869537D01*
X-17729Y3863340D01*
X-29971Y3855567D01*
X-41148Y3846271D01*
X-51104Y3835704D01*
X-59639Y3823970D01*
X-66649Y3811219D01*
X-71983Y3797706D01*
X-75590Y3783685D01*
X-77419Y3769258D01*
X-77419Y3754729D01*
X-75590Y3740353D01*
X-71983Y3726281D01*
X-66649Y3712768D01*
X-59639Y3700018D01*
X-51104Y3688283D01*
X-41148Y3677716D01*
X-29971Y3668471D01*
X-17729Y3660648D01*
X-4572Y3654501D01*
X9245Y3649979D01*
X23520Y3647287D01*
X37998Y3646373D01*
X52476Y3647287D01*
X66751Y3649979D01*
X80568Y3654501D01*
X93726Y3660648D01*
X105968Y3668471D01*
X117144Y3677716D01*
X127101Y3688283D01*
X131267Y3694074D01*
X133553Y3696309D01*
X136347Y3697732D01*
X139496Y3698240D01*
X911555Y3698240D01*
X919937Y3698748D01*
X930249Y3700932D01*
X940053Y3704793D01*
X942035Y3705809D01*
X949096Y3710228D01*
X957173Y3717137D01*
X1244752Y4004716D01*
X1251661Y4012793D01*
X1256080Y4019854D01*
X1257096Y4021836D01*
X1260957Y4031640D01*
X1263142Y4041952D01*
X1263650Y4050334D01*
X1263650Y4669383D01*
X1264412Y4673244D01*
X1266647Y4676546D01*
X1473504Y4883200D01*
X1476806Y4885436D01*
X1480667Y4886198D01*
X1483512Y4886198D01*
X1487576Y4885385D01*
X1490929Y4882997D01*
X1493062Y4879492D01*
X1493672Y4875377D01*
X1492554Y4871415D01*
X1490014Y4868214D01*
X1482852Y4862271D01*
X1472895Y4851704D01*
X1464360Y4839970D01*
X1457350Y4827219D01*
X1452016Y4813706D01*
X1448409Y4799685D01*
X1446580Y4785258D01*
X1446580Y4770729D01*
X1448409Y4756353D01*
X1452016Y4742281D01*
X1457350Y4728768D01*
X1464360Y4716018D01*
X1472895Y4704283D01*
X1482852Y4693716D01*
X1494028Y4684471D01*
X1506270Y4676648D01*
X1519428Y4670501D01*
X1533245Y4665980D01*
X1547520Y4663287D01*
X1561998Y4662373D01*
X1576476Y4663287D01*
X1590751Y4665980D01*
X1604568Y4670501D01*
X1617726Y4676648D01*
X1629968Y4684471D01*
X1641144Y4693716D01*
X1651101Y4704283D01*
X1659636Y4716018D01*
X1666646Y4728768D01*
X1671980Y4742281D01*
X1675587Y4756353D01*
X1677416Y4770729D01*
X1677416Y4785258D01*
X1675587Y4799685D01*
X1671980Y4813706D01*
X1666646Y4827219D01*
X1659636Y4839970D01*
X1651101Y4851704D01*
X1641144Y4862271D01*
X1633982Y4868214D01*
X1631442Y4871415D01*
X1630324Y4875377D01*
X1630933Y4879492D01*
X1633067Y4882997D01*
X1636471Y4885385D01*
X1640484Y4886198D01*
X5569356Y4886198D01*
X5573268Y4885436D01*
X5576519Y4883251D01*
X5683300Y4776622D01*
X5685536Y4773320D01*
X5686298Y4769459D01*
X5686298Y4230522D01*
X5685536Y4226661D01*
X5683300Y4223359D01*
X5539536Y4079748D01*
X5536539Y4077665D01*
X5532983Y4076801D01*
X5529326Y4077208D01*
X5526125Y4078935D01*
X5521452Y4082592D01*
X5508447Y4090415D01*
X5494070Y4096918D01*
X5490921Y4099153D01*
X5488787Y4102404D01*
X5488076Y4106214D01*
X5488838Y4109974D01*
X5490921Y4113225D01*
X5494070Y4115460D01*
X5508447Y4121912D01*
X5521452Y4129786D01*
X5533390Y4139133D01*
X5544108Y4149851D01*
X5553456Y4161790D01*
X5561330Y4174794D01*
X5567527Y4188612D01*
X5572048Y4203090D01*
X5574792Y4218025D01*
X5575706Y4233164D01*
X5574792Y4248302D01*
X5572048Y4263237D01*
X5567527Y4277715D01*
X5561330Y4291584D01*
X5553456Y4304538D01*
X5544108Y4316476D01*
X5533390Y4327194D01*
X5521452Y4336592D01*
X5511342Y4342688D01*
X5508193Y4345686D01*
X5506567Y4349750D01*
X5506821Y4354068D01*
X5508904Y4357928D01*
X5512358Y4360570D01*
X5516626Y4361535D01*
X5549493Y4361535D01*
X5555792Y4362246D01*
X5561177Y4364126D01*
X5566054Y4367174D01*
X5570067Y4371238D01*
X5573115Y4376064D01*
X5575046Y4381500D01*
X5575757Y4387748D01*
X5575757Y4586630D01*
X5575046Y4592878D01*
X5573115Y4598263D01*
X5570067Y4603140D01*
X5566054Y4607204D01*
X5561177Y4610252D01*
X5555792Y4612132D01*
X5549493Y4612843D01*
X5350662Y4612843D01*
X5344363Y4612132D01*
X5338978Y4610252D01*
X5334101Y4607204D01*
X5330088Y4603140D01*
X5327040Y4598263D01*
X5325160Y4592929D01*
X5324348Y4585563D01*
X5323332Y4582007D01*
X5321046Y4579061D01*
X5317896Y4577130D01*
X5314289Y4576470D01*
X5303824Y4576470D01*
X5299964Y4577232D01*
X5296662Y4579416D01*
X5213146Y4662932D01*
X5208371Y4667402D01*
X5203393Y4671364D01*
X5198160Y4675022D01*
X5192725Y4678273D01*
X5187035Y4681118D01*
X5181142Y4683556D01*
X5175097Y4685538D01*
X5168950Y4687112D01*
X5162651Y4688230D01*
X5156352Y4688941D01*
X5149799Y4689144D01*
X4985816Y4689144D01*
X4981905Y4689906D01*
X4978654Y4692142D01*
X4976418Y4695444D01*
X4975656Y4699304D01*
X4975656Y4703419D01*
X4974945Y4709718D01*
X4973066Y4715103D01*
X4970018Y4719980D01*
X4965954Y4723993D01*
X4961128Y4727041D01*
X4955692Y4728972D01*
X4949444Y4729632D01*
X4750562Y4729632D01*
X4744313Y4728972D01*
X4738878Y4727041D01*
X4734052Y4723993D01*
X4729988Y4719980D01*
X4726940Y4715103D01*
X4725060Y4709718D01*
X4724349Y4703419D01*
X4724349Y4699254D01*
X4723587Y4695342D01*
X4721352Y4692091D01*
X4718050Y4689856D01*
X4714189Y4689094D01*
X4150055Y4689094D01*
X4143501Y4688840D01*
X4137151Y4688179D01*
X4130903Y4687062D01*
X4124756Y4685487D01*
X4118711Y4683455D01*
X4112818Y4681016D01*
X4107129Y4678172D01*
X4101642Y4674920D01*
X4096410Y4671314D01*
X4091482Y4667300D01*
X4086707Y4662830D01*
X2791053Y3367227D01*
X2787751Y3364992D01*
X2783840Y3364229D01*
X2480818Y3364229D01*
X2477160Y3364890D01*
X2474010Y3366820D01*
X2471775Y3369767D01*
X2470708Y3373323D01*
X2469946Y3380740D01*
X2468067Y3386124D01*
X2465019Y3390950D01*
X2460955Y3395014D01*
X2456078Y3398062D01*
X2450693Y3399942D01*
X2445258Y3400551D01*
X2441702Y3401669D01*
X2438806Y3403955D01*
X2436876Y3407156D01*
X2436266Y3410813D01*
X2439162Y3598367D01*
X2438908Y3606393D01*
X2438450Y3611168D01*
X2437079Y3618992D01*
X2435961Y3623665D01*
X2433523Y3631184D01*
X2431694Y3635654D01*
X2428189Y3642715D01*
X2425801Y3646932D01*
X2421331Y3653434D01*
X2418334Y3657193D01*
X2412898Y3663137D01*
X1997100Y4078884D01*
X1992325Y4083354D01*
X1987397Y4087368D01*
X1982165Y4090974D01*
X1976678Y4094226D01*
X1970989Y4097070D01*
X1965096Y4099509D01*
X1959051Y4101541D01*
X1952904Y4103115D01*
X1946656Y4104233D01*
X1940306Y4104894D01*
X1933752Y4105148D01*
X1638960Y4105148D01*
X1635506Y4105757D01*
X1632457Y4107484D01*
X1629968Y4109567D01*
X1617726Y4117340D01*
X1604568Y4123537D01*
X1590751Y4128008D01*
X1576476Y4130700D01*
X1561998Y4131614D01*
X1547520Y4130700D01*
X1533245Y4128008D01*
X1519428Y4123537D01*
X1506270Y4117340D01*
X1494028Y4109567D01*
X1491538Y4107484D01*
X1488490Y4105757D01*
X1485036Y4105148D01*
X1466291Y4105148D01*
X1459738Y4104894D01*
X1453388Y4104233D01*
X1447139Y4103115D01*
X1440992Y4101541D01*
X1434947Y4099509D01*
X1429054Y4097070D01*
X1423365Y4094226D01*
X1417878Y4090974D01*
X1412646Y4087368D01*
X1407718Y4083354D01*
X1402943Y4078884D01*
X1060043Y3735984D01*
X1055573Y3731209D01*
X1051560Y3726281D01*
X1047953Y3721049D01*
X1044702Y3715562D01*
X1041857Y3709873D01*
X1039418Y3703980D01*
X1037386Y3697935D01*
X1035812Y3691788D01*
X1034694Y3685540D01*
X1034034Y3679190D01*
X1033780Y3672636D01*
X1033780Y877265D01*
X1034034Y870712D01*
X1034694Y864362D01*
X1035812Y858113D01*
X1037386Y851966D01*
X1039418Y845921D01*
X1041857Y840028D01*
X1044702Y834339D01*
X1047953Y828852D01*
X1051560Y823620D01*
X1055573Y818692D01*
X1060043Y813917D01*
X1236827Y637133D01*
X1241602Y632663D01*
X1246530Y628650D01*
X1251762Y625043D01*
X1257249Y621792D01*
X1262938Y618947D01*
X1268831Y616508D01*
X1274876Y614476D01*
X1281023Y612902D01*
X1287272Y611784D01*
X1293622Y611124D01*
X1300175Y610870D01*
X3549700Y610870D01*
X3556254Y611124D01*
X3562604Y611784D01*
X3568852Y612902D01*
X3574999Y614476D01*
X3581044Y616508D01*
X3586937Y618947D01*
X3592626Y621792D01*
X3598113Y625043D01*
X3603345Y628650D01*
X3608273Y632663D01*
X3613048Y637133D01*
X3933850Y957884D01*
X3937152Y960119D01*
X3941064Y960882D01*
X4564176Y960882D01*
X4568088Y960119D01*
X4571390Y957884D01*
X4573574Y954633D01*
X4574336Y950721D01*
X4574336Y873912D01*
X4573574Y870051D01*
X4571390Y866749D01*
X4568088Y864514D01*
X4564176Y863752D01*
X4000347Y863752D01*
X3991914Y863244D01*
X3989730Y862939D01*
X3981602Y861060D01*
X3971848Y857199D01*
X3969867Y856183D01*
X3962806Y851763D01*
X3961028Y850442D01*
X3954729Y844854D01*
X3626662Y516839D01*
X3623360Y514604D01*
X3619500Y513842D01*
X1188872Y513842D01*
X1184960Y514604D01*
X1181658Y516839D01*
X766775Y931722D01*
X764540Y935024D01*
X763778Y938936D01*
X763778Y2549601D01*
X763270Y2558034D01*
X761085Y2568295D01*
X757224Y2578100D01*
X756208Y2580081D01*
X751789Y2587142D01*
X750468Y2588920D01*
X744880Y2595219D01*
X295249Y3044850D01*
X288950Y3050438D01*
X287172Y3051759D01*
X280111Y3056178D01*
X278130Y3057194D01*
X268325Y3061055D01*
X258064Y3063240D01*
X249631Y3063748D01*
X139496Y3063748D01*
X136347Y3064256D01*
X133553Y3065678D01*
X131267Y3067913D01*
X127101Y3073704D01*
X117144Y3084271D01*
X105968Y3093567D01*
X93726Y3101340D01*
X80568Y3107537D01*
X66751Y3112008D01*
X52476Y3114700D01*
X37998Y3115614D01*
X23520Y3114700D01*
X9245Y3112008D01*
X-4572Y3107537D01*
X-17729Y3101340D01*
X-29971Y3093567D01*
X-41148Y3084271D01*
X-51104Y3073704D01*
X-59639Y3061970D01*
X-66649Y3049219D01*
X-71983Y3035706D01*
X-75590Y3021685D01*
X-77419Y3007258D01*
X-77419Y2992729D01*
X-75590Y2978353D01*
X-71983Y2964281D01*
X-66649Y2950768D01*
X-59639Y2938018D01*
X-51104Y2926283D01*
X-41148Y2915716D01*
X-29971Y2906471D01*
X-17729Y2898648D01*
X-4572Y2892501D01*
X9245Y2887980D01*
X23520Y2885287D01*
X37998Y2884373D01*
X52476Y2885287D01*
X66751Y2887980D01*
X80568Y2892501D01*
X93726Y2898648D01*
X105968Y2906471D01*
X117144Y2915716D01*
X127101Y2926283D01*
X131267Y2932074D01*
X133553Y2934309D01*
X136347Y2935732D01*
X139496Y2936240D01*
X219354Y2936240D01*
X223215Y2935478D01*
X226517Y2933242D01*
X633272Y2526487D01*
X635508Y2523185D01*
X636270Y2519324D01*
X636270Y887425D01*
X636524Y881989D01*
X637133Y876757D01*
X638251Y871575D01*
X639724Y866546D01*
X641654Y861618D01*
X643940Y856894D01*
X646684Y852373D01*
X649732Y848055D01*
X653135Y844042D01*
X656844Y840333D01*
X660857Y836930D01*
X665175Y833882D01*
X669696Y831189D01*
X674420Y828852D01*
X679348Y826922D01*
X684225Y825500D01*
X691438Y824179D01*
X694334Y823163D01*
X696823Y821385D01*
X1112926Y405231D01*
X1119276Y399643D01*
X1121054Y398322D01*
X1128064Y393954D01*
X1130046Y392938D01*
X1137767Y389737D01*
X1139850Y389077D01*
X1147978Y387197D01*
X1158544Y386334D01*
X3649776Y386334D01*
X3660394Y387197D01*
X3668522Y389077D01*
X3670604Y389737D01*
X3678275Y392938D01*
X3680256Y393954D01*
X3687318Y398322D01*
X3689096Y399643D01*
X3695395Y405231D01*
X4023461Y733298D01*
X4026763Y735482D01*
X4030624Y736244D01*
X4564176Y736244D01*
X4568088Y735482D01*
X4571390Y733298D01*
X4573574Y729996D01*
X4574336Y726084D01*
X4574336Y400558D01*
X4575048Y394309D01*
X4576927Y388874D01*
X4579975Y384048D01*
X4584039Y379984D01*
X4588916Y376936D01*
X4594301Y375056D01*
G37*
G36*
X1561998Y1106373D02*
G01*
X1576476Y1107287D01*
X1590751Y1109980D01*
X1604568Y1114501D01*
X1617726Y1120648D01*
X1629968Y1128471D01*
X1641144Y1137716D01*
X1651101Y1148283D01*
X1659636Y1160018D01*
X1666646Y1172768D01*
X1671980Y1186281D01*
X1675587Y1200353D01*
X1677416Y1214729D01*
X1677416Y1229258D01*
X1675587Y1243685D01*
X1671980Y1257706D01*
X1666646Y1271219D01*
X1659636Y1283970D01*
X1651101Y1295704D01*
X1641144Y1306271D01*
X1629968Y1315567D01*
X1617726Y1323340D01*
X1604568Y1329537D01*
X1590751Y1334008D01*
X1576476Y1336700D01*
X1561998Y1337614D01*
X1547520Y1336700D01*
X1533245Y1334008D01*
X1519428Y1329537D01*
X1506270Y1323340D01*
X1494028Y1315567D01*
X1482852Y1306271D01*
X1472895Y1295704D01*
X1464360Y1283970D01*
X1457350Y1271219D01*
X1452016Y1257706D01*
X1448409Y1243685D01*
X1446580Y1229258D01*
X1446580Y1214729D01*
X1448409Y1200353D01*
X1452016Y1186281D01*
X1457350Y1172768D01*
X1464360Y1160018D01*
X1472895Y1148283D01*
X1482852Y1137716D01*
X1494028Y1128471D01*
X1506270Y1120648D01*
X1519428Y1114501D01*
X1533245Y1109980D01*
X1547520Y1107287D01*
G37*
G36*
X37998Y1106373D02*
G01*
X52476Y1107287D01*
X66751Y1109980D01*
X80568Y1114501D01*
X93726Y1120648D01*
X105968Y1128471D01*
X117144Y1137716D01*
X127101Y1148283D01*
X135636Y1160018D01*
X142646Y1172768D01*
X147980Y1186281D01*
X151587Y1200353D01*
X153416Y1214729D01*
X153416Y1229258D01*
X151587Y1243685D01*
X147980Y1257706D01*
X142646Y1271219D01*
X135636Y1283970D01*
X127101Y1295704D01*
X117144Y1306271D01*
X105968Y1315567D01*
X93726Y1323340D01*
X80568Y1329537D01*
X66751Y1334008D01*
X52476Y1336700D01*
X37998Y1337614D01*
X23520Y1336700D01*
X9245Y1334008D01*
X-4572Y1329537D01*
X-17729Y1323340D01*
X-29971Y1315567D01*
X-41148Y1306271D01*
X-51104Y1295704D01*
X-59639Y1283970D01*
X-66649Y1271219D01*
X-71983Y1257706D01*
X-75590Y1243685D01*
X-77419Y1229258D01*
X-77419Y1214729D01*
X-75590Y1200353D01*
X-71983Y1186281D01*
X-66649Y1172768D01*
X-59639Y1160018D01*
X-51104Y1148283D01*
X-41148Y1137716D01*
X-29971Y1128471D01*
X-17729Y1120648D01*
X-4572Y1114501D01*
X9245Y1109980D01*
X23520Y1107287D01*
G37*
G36*
X1561998Y1360373D02*
G01*
X1576476Y1361287D01*
X1590751Y1363980D01*
X1604568Y1368501D01*
X1617726Y1374648D01*
X1629968Y1382471D01*
X1641144Y1391716D01*
X1651101Y1402283D01*
X1659636Y1414018D01*
X1666646Y1426768D01*
X1671980Y1440281D01*
X1675587Y1454353D01*
X1677416Y1468729D01*
X1677416Y1483258D01*
X1675587Y1497685D01*
X1671980Y1511706D01*
X1666646Y1525219D01*
X1659636Y1537970D01*
X1651101Y1549704D01*
X1641144Y1560271D01*
X1629968Y1569567D01*
X1617726Y1577340D01*
X1604568Y1583537D01*
X1590751Y1588008D01*
X1576476Y1590700D01*
X1561998Y1591614D01*
X1547520Y1590700D01*
X1533245Y1588008D01*
X1519428Y1583537D01*
X1506270Y1577340D01*
X1494028Y1569567D01*
X1482852Y1560271D01*
X1472895Y1549704D01*
X1464360Y1537970D01*
X1457350Y1525219D01*
X1452016Y1511706D01*
X1448409Y1497685D01*
X1446580Y1483258D01*
X1446580Y1468729D01*
X1448409Y1454353D01*
X1452016Y1440281D01*
X1457350Y1426768D01*
X1464360Y1414018D01*
X1472895Y1402283D01*
X1482852Y1391716D01*
X1494028Y1382471D01*
X1506270Y1374648D01*
X1519428Y1368501D01*
X1533245Y1363980D01*
X1547520Y1361287D01*
G37*
G36*
X37998Y1360373D02*
G01*
X52476Y1361287D01*
X66751Y1363980D01*
X80568Y1368501D01*
X93726Y1374648D01*
X105968Y1382471D01*
X117144Y1391716D01*
X127101Y1402283D01*
X135636Y1414018D01*
X142646Y1426768D01*
X147980Y1440281D01*
X151587Y1454353D01*
X153416Y1468729D01*
X153416Y1483258D01*
X151587Y1497685D01*
X147980Y1511706D01*
X142646Y1525219D01*
X135636Y1537970D01*
X127101Y1549704D01*
X117144Y1560271D01*
X105968Y1569567D01*
X93726Y1577340D01*
X80568Y1583537D01*
X66751Y1588008D01*
X52476Y1590700D01*
X37998Y1591614D01*
X23520Y1590700D01*
X9245Y1588008D01*
X-4572Y1583537D01*
X-17729Y1577340D01*
X-29971Y1569567D01*
X-41148Y1560271D01*
X-51104Y1549704D01*
X-59639Y1537970D01*
X-66649Y1525219D01*
X-71983Y1511706D01*
X-75590Y1497685D01*
X-77419Y1483258D01*
X-77419Y1468729D01*
X-75590Y1454353D01*
X-71983Y1440281D01*
X-66649Y1426768D01*
X-59639Y1414018D01*
X-51104Y1402283D01*
X-41148Y1391716D01*
X-29971Y1382471D01*
X-17729Y1374648D01*
X-4572Y1368501D01*
X9245Y1363980D01*
X23520Y1361287D01*
G37*
G36*
X1561998Y1614373D02*
G01*
X1576476Y1615287D01*
X1590751Y1617980D01*
X1604568Y1622501D01*
X1617726Y1628648D01*
X1629968Y1636471D01*
X1641144Y1645716D01*
X1651101Y1656283D01*
X1659636Y1668018D01*
X1666646Y1680768D01*
X1671980Y1694281D01*
X1675587Y1708353D01*
X1677416Y1722729D01*
X1677416Y1737258D01*
X1675587Y1751685D01*
X1671980Y1765706D01*
X1666646Y1779219D01*
X1659636Y1791970D01*
X1651101Y1803704D01*
X1641144Y1814271D01*
X1629968Y1823567D01*
X1617726Y1831339D01*
X1604568Y1837537D01*
X1590751Y1842007D01*
X1576476Y1844700D01*
X1561998Y1845614D01*
X1547520Y1844700D01*
X1533245Y1842007D01*
X1519428Y1837537D01*
X1506270Y1831339D01*
X1494028Y1823567D01*
X1482852Y1814271D01*
X1472895Y1803704D01*
X1464360Y1791970D01*
X1457350Y1779219D01*
X1452016Y1765706D01*
X1448409Y1751685D01*
X1446580Y1737258D01*
X1446580Y1722729D01*
X1448409Y1708353D01*
X1452016Y1694281D01*
X1457350Y1680768D01*
X1464360Y1668018D01*
X1472895Y1656283D01*
X1482852Y1645716D01*
X1494028Y1636471D01*
X1506270Y1628648D01*
X1519428Y1622501D01*
X1533245Y1617980D01*
X1547520Y1615287D01*
G37*
G36*
X37998Y1614373D02*
G01*
X52476Y1615287D01*
X66751Y1617980D01*
X80568Y1622501D01*
X93726Y1628648D01*
X105968Y1636471D01*
X117144Y1645716D01*
X127101Y1656283D01*
X135636Y1668018D01*
X142646Y1680768D01*
X147980Y1694281D01*
X151587Y1708353D01*
X153416Y1722729D01*
X153416Y1737258D01*
X151587Y1751685D01*
X147980Y1765706D01*
X142646Y1779219D01*
X135636Y1791970D01*
X127101Y1803704D01*
X117144Y1814271D01*
X105968Y1823567D01*
X93726Y1831339D01*
X80568Y1837537D01*
X66751Y1842007D01*
X52476Y1844700D01*
X37998Y1845614D01*
X23520Y1844700D01*
X9245Y1842007D01*
X-4572Y1837537D01*
X-17729Y1831339D01*
X-29971Y1823567D01*
X-41148Y1814271D01*
X-51104Y1803704D01*
X-59639Y1791970D01*
X-66649Y1779219D01*
X-71983Y1765706D01*
X-75590Y1751685D01*
X-77419Y1737258D01*
X-77419Y1722729D01*
X-75590Y1708353D01*
X-71983Y1694281D01*
X-66649Y1680768D01*
X-59639Y1668018D01*
X-51104Y1656283D01*
X-41148Y1645716D01*
X-29971Y1636471D01*
X-17729Y1628648D01*
X-4572Y1622501D01*
X9245Y1617980D01*
X23520Y1615287D01*
G37*
G36*
X1561998Y1868373D02*
G01*
X1576476Y1869287D01*
X1590751Y1871980D01*
X1604568Y1876501D01*
X1617726Y1882648D01*
X1629968Y1890471D01*
X1641144Y1899716D01*
X1651101Y1910283D01*
X1659636Y1922018D01*
X1666646Y1934768D01*
X1671980Y1948281D01*
X1675587Y1962353D01*
X1677416Y1976729D01*
X1677416Y1991258D01*
X1675587Y2005685D01*
X1671980Y2019706D01*
X1666646Y2033219D01*
X1659636Y2045970D01*
X1651101Y2057704D01*
X1641144Y2068271D01*
X1629968Y2077567D01*
X1617726Y2085339D01*
X1604568Y2091537D01*
X1590751Y2096007D01*
X1576476Y2098700D01*
X1561998Y2099614D01*
X1547520Y2098700D01*
X1533245Y2096007D01*
X1519428Y2091537D01*
X1506270Y2085339D01*
X1494028Y2077567D01*
X1482852Y2068271D01*
X1472895Y2057704D01*
X1464360Y2045970D01*
X1457350Y2033219D01*
X1452016Y2019706D01*
X1448409Y2005685D01*
X1446580Y1991258D01*
X1446580Y1976729D01*
X1448409Y1962353D01*
X1452016Y1948281D01*
X1457350Y1934768D01*
X1464360Y1922018D01*
X1472895Y1910283D01*
X1482852Y1899716D01*
X1494028Y1890471D01*
X1506270Y1882648D01*
X1519428Y1876501D01*
X1533245Y1871980D01*
X1547520Y1869287D01*
G37*
G36*
X37998Y1868373D02*
G01*
X52476Y1869287D01*
X66751Y1871980D01*
X80568Y1876501D01*
X93726Y1882648D01*
X105968Y1890471D01*
X117144Y1899716D01*
X127101Y1910283D01*
X135636Y1922018D01*
X142646Y1934768D01*
X147980Y1948281D01*
X151587Y1962353D01*
X153416Y1976729D01*
X153416Y1991258D01*
X151587Y2005685D01*
X147980Y2019706D01*
X142646Y2033219D01*
X135636Y2045970D01*
X127101Y2057704D01*
X117144Y2068271D01*
X105968Y2077567D01*
X93726Y2085339D01*
X80568Y2091537D01*
X66751Y2096007D01*
X52476Y2098700D01*
X37998Y2099614D01*
X23520Y2098700D01*
X9245Y2096007D01*
X-4572Y2091537D01*
X-17729Y2085339D01*
X-29971Y2077567D01*
X-41148Y2068271D01*
X-51104Y2057704D01*
X-59639Y2045970D01*
X-66649Y2033219D01*
X-71983Y2019706D01*
X-75590Y2005685D01*
X-77419Y1991258D01*
X-77419Y1976729D01*
X-75590Y1962353D01*
X-71983Y1948281D01*
X-66649Y1934768D01*
X-59639Y1922018D01*
X-51104Y1910283D01*
X-41148Y1899716D01*
X-29971Y1890471D01*
X-17729Y1882648D01*
X-4572Y1876501D01*
X9245Y1871980D01*
X23520Y1869287D01*
G37*
G36*
X1561998Y2122373D02*
G01*
X1576476Y2123287D01*
X1590751Y2125980D01*
X1604568Y2130501D01*
X1617726Y2136648D01*
X1629968Y2144471D01*
X1641144Y2153716D01*
X1651101Y2164283D01*
X1659636Y2176018D01*
X1666646Y2188768D01*
X1671980Y2202281D01*
X1675587Y2216353D01*
X1677416Y2230729D01*
X1677416Y2245258D01*
X1675587Y2259685D01*
X1671980Y2273706D01*
X1666646Y2287219D01*
X1659636Y2299970D01*
X1651101Y2311704D01*
X1641144Y2322271D01*
X1629968Y2331567D01*
X1617726Y2339340D01*
X1604568Y2345537D01*
X1590751Y2350008D01*
X1576476Y2352700D01*
X1561998Y2353614D01*
X1547520Y2352700D01*
X1533245Y2350008D01*
X1519428Y2345537D01*
X1506270Y2339340D01*
X1494028Y2331567D01*
X1482852Y2322271D01*
X1472895Y2311704D01*
X1464360Y2299970D01*
X1457350Y2287219D01*
X1452016Y2273706D01*
X1448409Y2259685D01*
X1446580Y2245258D01*
X1446580Y2230729D01*
X1448409Y2216353D01*
X1452016Y2202281D01*
X1457350Y2188768D01*
X1464360Y2176018D01*
X1472895Y2164283D01*
X1482852Y2153716D01*
X1494028Y2144471D01*
X1506270Y2136648D01*
X1519428Y2130501D01*
X1533245Y2125980D01*
X1547520Y2123287D01*
G37*
G36*
X37998Y2122373D02*
G01*
X52476Y2123287D01*
X66751Y2125980D01*
X80568Y2130501D01*
X93726Y2136648D01*
X105968Y2144471D01*
X117144Y2153716D01*
X127101Y2164283D01*
X135636Y2176018D01*
X142646Y2188768D01*
X147980Y2202281D01*
X151587Y2216353D01*
X153416Y2230729D01*
X153416Y2245258D01*
X151587Y2259685D01*
X147980Y2273706D01*
X142646Y2287219D01*
X135636Y2299970D01*
X127101Y2311704D01*
X117144Y2322271D01*
X105968Y2331567D01*
X93726Y2339340D01*
X80568Y2345537D01*
X66751Y2350008D01*
X52476Y2352700D01*
X37998Y2353614D01*
X23520Y2352700D01*
X9245Y2350008D01*
X-4572Y2345537D01*
X-17729Y2339340D01*
X-29971Y2331567D01*
X-41148Y2322271D01*
X-51104Y2311704D01*
X-59639Y2299970D01*
X-66649Y2287219D01*
X-71983Y2273706D01*
X-75590Y2259685D01*
X-77419Y2245258D01*
X-77419Y2230729D01*
X-75590Y2216353D01*
X-71983Y2202281D01*
X-66649Y2188768D01*
X-59639Y2176018D01*
X-51104Y2164283D01*
X-41148Y2153716D01*
X-29971Y2144471D01*
X-17729Y2136648D01*
X-4572Y2130501D01*
X9245Y2125980D01*
X23520Y2123287D01*
G37*
G36*
X1561998Y2376373D02*
G01*
X1576476Y2377287D01*
X1590751Y2379980D01*
X1604568Y2384501D01*
X1617726Y2390648D01*
X1629968Y2398471D01*
X1641144Y2407716D01*
X1651101Y2418283D01*
X1659636Y2430018D01*
X1666646Y2442768D01*
X1671980Y2456281D01*
X1675587Y2470353D01*
X1677416Y2484729D01*
X1677416Y2499258D01*
X1675587Y2513685D01*
X1671980Y2527706D01*
X1666646Y2541219D01*
X1659636Y2553970D01*
X1651101Y2565704D01*
X1641144Y2576271D01*
X1629968Y2585567D01*
X1617726Y2593340D01*
X1604568Y2599537D01*
X1590751Y2604008D01*
X1576476Y2606700D01*
X1561998Y2607614D01*
X1547520Y2606700D01*
X1533245Y2604008D01*
X1519428Y2599537D01*
X1506270Y2593340D01*
X1494028Y2585567D01*
X1482852Y2576271D01*
X1472895Y2565704D01*
X1464360Y2553970D01*
X1457350Y2541219D01*
X1452016Y2527706D01*
X1448409Y2513685D01*
X1446580Y2499258D01*
X1446580Y2484729D01*
X1448409Y2470353D01*
X1452016Y2456281D01*
X1457350Y2442768D01*
X1464360Y2430018D01*
X1472895Y2418283D01*
X1482852Y2407716D01*
X1494028Y2398471D01*
X1506270Y2390648D01*
X1519428Y2384501D01*
X1533245Y2379980D01*
X1547520Y2377287D01*
G37*
G36*
X37998Y2376373D02*
G01*
X52476Y2377287D01*
X66751Y2379980D01*
X80568Y2384501D01*
X93726Y2390648D01*
X105968Y2398471D01*
X117144Y2407716D01*
X127101Y2418283D01*
X135636Y2430018D01*
X142646Y2442768D01*
X147980Y2456281D01*
X151587Y2470353D01*
X153416Y2484729D01*
X153416Y2499258D01*
X151587Y2513685D01*
X147980Y2527706D01*
X142646Y2541219D01*
X135636Y2553970D01*
X127101Y2565704D01*
X117144Y2576271D01*
X105968Y2585567D01*
X93726Y2593340D01*
X80568Y2599537D01*
X66751Y2604008D01*
X52476Y2606700D01*
X37998Y2607614D01*
X23520Y2606700D01*
X9245Y2604008D01*
X-4572Y2599537D01*
X-17729Y2593340D01*
X-29971Y2585567D01*
X-41148Y2576271D01*
X-51104Y2565704D01*
X-59639Y2553970D01*
X-66649Y2541219D01*
X-71983Y2527706D01*
X-75590Y2513685D01*
X-77419Y2499258D01*
X-77419Y2484729D01*
X-75590Y2470353D01*
X-71983Y2456281D01*
X-66649Y2442768D01*
X-59639Y2430018D01*
X-51104Y2418283D01*
X-41148Y2407716D01*
X-29971Y2398471D01*
X-17729Y2390648D01*
X-4572Y2384501D01*
X9245Y2379980D01*
X23520Y2377287D01*
G37*
G36*
X1561998Y2630373D02*
G01*
X1576476Y2631287D01*
X1590751Y2633980D01*
X1604568Y2638501D01*
X1617726Y2644648D01*
X1629968Y2652471D01*
X1641144Y2661716D01*
X1651101Y2672283D01*
X1659636Y2684018D01*
X1666646Y2696768D01*
X1671980Y2710281D01*
X1675587Y2724353D01*
X1677416Y2738729D01*
X1677416Y2753258D01*
X1675587Y2767685D01*
X1671980Y2781706D01*
X1666646Y2795219D01*
X1659636Y2807970D01*
X1651101Y2819704D01*
X1641144Y2830271D01*
X1629968Y2839567D01*
X1617726Y2847340D01*
X1604568Y2853537D01*
X1590751Y2858008D01*
X1576476Y2860700D01*
X1561998Y2861614D01*
X1547520Y2860700D01*
X1533245Y2858008D01*
X1519428Y2853537D01*
X1506270Y2847340D01*
X1494028Y2839567D01*
X1482852Y2830271D01*
X1472895Y2819704D01*
X1464360Y2807970D01*
X1457350Y2795219D01*
X1452016Y2781706D01*
X1448409Y2767685D01*
X1446580Y2753258D01*
X1446580Y2738729D01*
X1448409Y2724353D01*
X1452016Y2710281D01*
X1457350Y2696768D01*
X1464360Y2684018D01*
X1472895Y2672283D01*
X1482852Y2661716D01*
X1494028Y2652471D01*
X1506270Y2644648D01*
X1519428Y2638501D01*
X1533245Y2633980D01*
X1547520Y2631287D01*
G37*
G36*
X37998Y2630373D02*
G01*
X52476Y2631287D01*
X66751Y2633980D01*
X80568Y2638501D01*
X93726Y2644648D01*
X105968Y2652471D01*
X117144Y2661716D01*
X127101Y2672283D01*
X135636Y2684018D01*
X142646Y2696768D01*
X147980Y2710281D01*
X151587Y2724353D01*
X153416Y2738729D01*
X153416Y2753258D01*
X151587Y2767685D01*
X147980Y2781706D01*
X142646Y2795219D01*
X135636Y2807970D01*
X127101Y2819704D01*
X117144Y2830271D01*
X105968Y2839567D01*
X93726Y2847340D01*
X80568Y2853537D01*
X66751Y2858008D01*
X52476Y2860700D01*
X37998Y2861614D01*
X23520Y2860700D01*
X9245Y2858008D01*
X-4572Y2853537D01*
X-17729Y2847340D01*
X-29971Y2839567D01*
X-41148Y2830271D01*
X-51104Y2819704D01*
X-59639Y2807970D01*
X-66649Y2795219D01*
X-71983Y2781706D01*
X-75590Y2767685D01*
X-77419Y2753258D01*
X-77419Y2738729D01*
X-75590Y2724353D01*
X-71983Y2710281D01*
X-66649Y2696768D01*
X-59639Y2684018D01*
X-51104Y2672283D01*
X-41148Y2661716D01*
X-29971Y2652471D01*
X-17729Y2644648D01*
X-4572Y2638501D01*
X9245Y2633980D01*
X23520Y2631287D01*
G37*
G36*
X37998Y3138373D02*
G01*
X52476Y3139287D01*
X66751Y3141980D01*
X80568Y3146501D01*
X93726Y3152648D01*
X105968Y3160471D01*
X117144Y3169716D01*
X127101Y3180283D01*
X135636Y3192018D01*
X142646Y3204768D01*
X147980Y3218281D01*
X151587Y3232353D01*
X153416Y3246729D01*
X153416Y3261258D01*
X151587Y3275685D01*
X147980Y3289706D01*
X142646Y3303219D01*
X135636Y3315970D01*
X127101Y3327704D01*
X117144Y3338271D01*
X105968Y3347567D01*
X93726Y3355340D01*
X80568Y3361537D01*
X66751Y3366008D01*
X52476Y3368700D01*
X37998Y3369614D01*
X23520Y3368700D01*
X9245Y3366008D01*
X-4572Y3361537D01*
X-17729Y3355340D01*
X-29971Y3347567D01*
X-41148Y3338271D01*
X-51104Y3327704D01*
X-59639Y3315970D01*
X-66649Y3303219D01*
X-71983Y3289706D01*
X-75590Y3275685D01*
X-77419Y3261258D01*
X-77419Y3246729D01*
X-75590Y3232353D01*
X-71983Y3218281D01*
X-66649Y3204768D01*
X-59639Y3192018D01*
X-51104Y3180283D01*
X-41148Y3169716D01*
X-29971Y3160471D01*
X-17729Y3152648D01*
X-4572Y3146501D01*
X9245Y3141980D01*
X23520Y3139287D01*
G37*
G36*
X1561998Y3392373D02*
G01*
X1576476Y3393287D01*
X1590751Y3395979D01*
X1604568Y3400501D01*
X1617726Y3406648D01*
X1629968Y3414471D01*
X1641144Y3423716D01*
X1651101Y3434283D01*
X1659636Y3446018D01*
X1666646Y3458768D01*
X1671980Y3472281D01*
X1675587Y3486353D01*
X1677416Y3500729D01*
X1677416Y3515258D01*
X1675587Y3529685D01*
X1671980Y3543706D01*
X1666646Y3557219D01*
X1659636Y3569970D01*
X1651101Y3581704D01*
X1641144Y3592271D01*
X1629968Y3601567D01*
X1617726Y3609340D01*
X1604568Y3615537D01*
X1590751Y3620008D01*
X1576476Y3622700D01*
X1561998Y3623614D01*
X1547520Y3622700D01*
X1533245Y3620008D01*
X1519428Y3615537D01*
X1506270Y3609340D01*
X1494028Y3601567D01*
X1482852Y3592271D01*
X1472895Y3581704D01*
X1464360Y3569970D01*
X1457350Y3557219D01*
X1452016Y3543706D01*
X1448409Y3529685D01*
X1446580Y3515258D01*
X1446580Y3500729D01*
X1448409Y3486353D01*
X1452016Y3472281D01*
X1457350Y3458768D01*
X1464360Y3446018D01*
X1472895Y3434283D01*
X1482852Y3423716D01*
X1494028Y3414471D01*
X1506270Y3406648D01*
X1519428Y3400501D01*
X1533245Y3395979D01*
X1547520Y3393287D01*
G37*
G36*
X37998Y3392373D02*
G01*
X52476Y3393287D01*
X66751Y3395979D01*
X80568Y3400501D01*
X93726Y3406648D01*
X105968Y3414471D01*
X117144Y3423716D01*
X127101Y3434283D01*
X135636Y3446018D01*
X142646Y3458768D01*
X147980Y3472281D01*
X151587Y3486353D01*
X153416Y3500729D01*
X153416Y3515258D01*
X151587Y3529685D01*
X147980Y3543706D01*
X142646Y3557219D01*
X135636Y3569970D01*
X127101Y3581704D01*
X117144Y3592271D01*
X105968Y3601567D01*
X93726Y3609340D01*
X80568Y3615537D01*
X66751Y3620008D01*
X52476Y3622700D01*
X37998Y3623614D01*
X23520Y3622700D01*
X9245Y3620008D01*
X-4572Y3615537D01*
X-17729Y3609340D01*
X-29971Y3601567D01*
X-41148Y3592271D01*
X-51104Y3581704D01*
X-59639Y3569970D01*
X-66649Y3557219D01*
X-71983Y3543706D01*
X-75590Y3529685D01*
X-77419Y3515258D01*
X-77419Y3500729D01*
X-75590Y3486353D01*
X-71983Y3472281D01*
X-66649Y3458768D01*
X-59639Y3446018D01*
X-51104Y3434283D01*
X-41148Y3423716D01*
X-29971Y3414471D01*
X-17729Y3406648D01*
X-4572Y3400501D01*
X9245Y3395979D01*
X23520Y3393287D01*
G37*
G36*
X1561998Y3646373D02*
G01*
X1576476Y3647287D01*
X1590751Y3649979D01*
X1604568Y3654501D01*
X1617726Y3660648D01*
X1629968Y3668471D01*
X1641144Y3677716D01*
X1651101Y3688283D01*
X1659636Y3700018D01*
X1666646Y3712768D01*
X1671980Y3726281D01*
X1675587Y3740353D01*
X1677416Y3754729D01*
X1677416Y3769258D01*
X1675587Y3783685D01*
X1671980Y3797706D01*
X1666646Y3811219D01*
X1659636Y3823970D01*
X1651101Y3835704D01*
X1641144Y3846271D01*
X1629968Y3855567D01*
X1617726Y3863340D01*
X1604568Y3869537D01*
X1590751Y3874008D01*
X1576476Y3876700D01*
X1561998Y3877614D01*
X1547520Y3876700D01*
X1533245Y3874008D01*
X1519428Y3869537D01*
X1506270Y3863340D01*
X1494028Y3855567D01*
X1482852Y3846271D01*
X1472895Y3835704D01*
X1464360Y3823970D01*
X1457350Y3811219D01*
X1452016Y3797706D01*
X1448409Y3783685D01*
X1446580Y3769258D01*
X1446580Y3754729D01*
X1448409Y3740353D01*
X1452016Y3726281D01*
X1457350Y3712768D01*
X1464360Y3700018D01*
X1472895Y3688283D01*
X1482852Y3677716D01*
X1494028Y3668471D01*
X1506270Y3660648D01*
X1519428Y3654501D01*
X1533245Y3649979D01*
X1547520Y3647287D01*
G37*
G36*
X37998Y3900373D02*
G01*
X52476Y3901287D01*
X66751Y3903979D01*
X80568Y3908501D01*
X93726Y3914648D01*
X105968Y3922471D01*
X117144Y3931716D01*
X127101Y3942283D01*
X135636Y3954018D01*
X142646Y3966768D01*
X147980Y3980281D01*
X151587Y3994353D01*
X153416Y4008729D01*
X153416Y4023258D01*
X151587Y4037685D01*
X147980Y4051706D01*
X142646Y4065219D01*
X135636Y4077970D01*
X127101Y4089704D01*
X117144Y4100271D01*
X105968Y4109567D01*
X93726Y4117340D01*
X80568Y4123537D01*
X66751Y4128008D01*
X52476Y4130700D01*
X37998Y4131614D01*
X23520Y4130700D01*
X9245Y4128008D01*
X-4572Y4123537D01*
X-17729Y4117340D01*
X-29971Y4109567D01*
X-41148Y4100271D01*
X-51104Y4089704D01*
X-59639Y4077970D01*
X-66649Y4065219D01*
X-71983Y4051706D01*
X-75590Y4037685D01*
X-77419Y4023258D01*
X-77419Y4008729D01*
X-75590Y3994353D01*
X-71983Y3980281D01*
X-66649Y3966768D01*
X-59639Y3954018D01*
X-51104Y3942283D01*
X-41148Y3931716D01*
X-29971Y3922471D01*
X-17729Y3914648D01*
X-4572Y3908501D01*
X9245Y3903979D01*
X23520Y3901287D01*
G37*
G36*
X1561998Y4154373D02*
G01*
X1576476Y4155287D01*
X1590751Y4157979D01*
X1604568Y4162501D01*
X1617726Y4168648D01*
X1629968Y4176471D01*
X1641144Y4185716D01*
X1651101Y4196283D01*
X1659636Y4208018D01*
X1666646Y4220768D01*
X1671980Y4234281D01*
X1675587Y4248353D01*
X1677416Y4262729D01*
X1677416Y4277258D01*
X1675587Y4291685D01*
X1671980Y4305706D01*
X1666646Y4319219D01*
X1659636Y4331970D01*
X1651101Y4343704D01*
X1641144Y4354271D01*
X1629968Y4363567D01*
X1617726Y4371340D01*
X1604568Y4377537D01*
X1590751Y4382008D01*
X1576476Y4384700D01*
X1561998Y4385614D01*
X1547520Y4384700D01*
X1533245Y4382008D01*
X1519428Y4377537D01*
X1506270Y4371340D01*
X1494028Y4363567D01*
X1482852Y4354271D01*
X1472895Y4343704D01*
X1464360Y4331970D01*
X1457350Y4319219D01*
X1452016Y4305706D01*
X1448409Y4291685D01*
X1446580Y4277258D01*
X1446580Y4262729D01*
X1448409Y4248353D01*
X1452016Y4234281D01*
X1457350Y4220768D01*
X1464360Y4208018D01*
X1472895Y4196283D01*
X1482852Y4185716D01*
X1494028Y4176471D01*
X1506270Y4168648D01*
X1519428Y4162501D01*
X1533245Y4157979D01*
X1547520Y4155287D01*
G37*
G36*
X37998Y4154373D02*
G01*
X52476Y4155287D01*
X66751Y4157979D01*
X80568Y4162501D01*
X93726Y4168648D01*
X105968Y4176471D01*
X117144Y4185716D01*
X127101Y4196283D01*
X135636Y4208018D01*
X142646Y4220768D01*
X147980Y4234281D01*
X151587Y4248353D01*
X153416Y4262729D01*
X153416Y4277258D01*
X151587Y4291685D01*
X147980Y4305706D01*
X142646Y4319219D01*
X135636Y4331970D01*
X127101Y4343704D01*
X117144Y4354271D01*
X105968Y4363567D01*
X93726Y4371340D01*
X80568Y4377537D01*
X66751Y4382008D01*
X52476Y4384700D01*
X37998Y4385614D01*
X23520Y4384700D01*
X9245Y4382008D01*
X-4572Y4377537D01*
X-17729Y4371340D01*
X-29971Y4363567D01*
X-41148Y4354271D01*
X-51104Y4343704D01*
X-59639Y4331970D01*
X-66649Y4319219D01*
X-71983Y4305706D01*
X-75590Y4291685D01*
X-77419Y4277258D01*
X-77419Y4262729D01*
X-75590Y4248353D01*
X-71983Y4234281D01*
X-66649Y4220768D01*
X-59639Y4208018D01*
X-51104Y4196283D01*
X-41148Y4185716D01*
X-29971Y4176471D01*
X-17729Y4168648D01*
X-4572Y4162501D01*
X9245Y4157979D01*
X23520Y4155287D01*
G37*
G36*
X37998Y4408373D02*
G01*
X52476Y4409287D01*
X66751Y4411980D01*
X80568Y4416501D01*
X93726Y4422648D01*
X105968Y4430471D01*
X117144Y4439716D01*
X127101Y4450283D01*
X135636Y4462018D01*
X142646Y4474768D01*
X147980Y4488281D01*
X151587Y4502353D01*
X153416Y4516729D01*
X153416Y4531258D01*
X151587Y4545685D01*
X147980Y4559706D01*
X142646Y4573219D01*
X135636Y4585970D01*
X127101Y4597704D01*
X117144Y4608271D01*
X105968Y4617567D01*
X93726Y4625340D01*
X80568Y4631537D01*
X66751Y4636008D01*
X52476Y4638700D01*
X37998Y4639614D01*
X23520Y4638700D01*
X9245Y4636008D01*
X-4572Y4631537D01*
X-17729Y4625340D01*
X-29971Y4617567D01*
X-41148Y4608271D01*
X-51104Y4597704D01*
X-59639Y4585970D01*
X-66649Y4573219D01*
X-71983Y4559706D01*
X-75590Y4545685D01*
X-77419Y4531258D01*
X-77419Y4516729D01*
X-75590Y4502353D01*
X-71983Y4488281D01*
X-66649Y4474768D01*
X-59639Y4462018D01*
X-51104Y4450283D01*
X-41148Y4439716D01*
X-29971Y4430471D01*
X-17729Y4422648D01*
X-4572Y4416501D01*
X9245Y4411980D01*
X23520Y4409287D01*
G37*
G36*
X-51409Y4662322D02*
G01*
X127406Y4662322D01*
X133705Y4663033D01*
X139090Y4664964D01*
X143967Y4668012D01*
X148031Y4672025D01*
X151079Y4676902D01*
X152958Y4682286D01*
X153670Y4688586D01*
X153670Y4867452D01*
X152958Y4873701D01*
X151079Y4879086D01*
X148031Y4883962D01*
X143967Y4888026D01*
X139090Y4891074D01*
X133705Y4892954D01*
X127406Y4893665D01*
X-51409Y4893665D01*
X-57708Y4892954D01*
X-63093Y4891074D01*
X-67970Y4888026D01*
X-71983Y4883962D01*
X-75031Y4879086D01*
X-76962Y4873701D01*
X-77673Y4867452D01*
X-77673Y4688586D01*
X-76962Y4682286D01*
X-75031Y4676902D01*
X-71983Y4672025D01*
X-67970Y4668012D01*
X-63093Y4664964D01*
X-57708Y4663033D01*
G37*

%LPD*%
G36*
X4610150Y399999D02*
G01*
X4606290Y400761D01*
X4602988Y402996D01*
X4600752Y406298D01*
X4599990Y410159D01*
X4599990Y726084D01*
X4600752Y729996D01*
X4602988Y733298D01*
X4606290Y735482D01*
X4610150Y736244D01*
X4736287Y736244D01*
X4739690Y735685D01*
X4742688Y733958D01*
X4744974Y731367D01*
X4746599Y728624D01*
X4755946Y716686D01*
X4766665Y705967D01*
X4778654Y696620D01*
X4791608Y688746D01*
X4805426Y682548D01*
X4819954Y678027D01*
X4834839Y675284D01*
X4849977Y674370D01*
X4865166Y675284D01*
X4880051Y678027D01*
X4894529Y682548D01*
X4908397Y688746D01*
X4921351Y696620D01*
X4933289Y705967D01*
X4944059Y716686D01*
X4953406Y728624D01*
X4961229Y741629D01*
X4967478Y755446D01*
X4971999Y769924D01*
X4974742Y784860D01*
X4975656Y799998D01*
X4974742Y815136D01*
X4971999Y830071D01*
X4967478Y844550D01*
X4961229Y858367D01*
X4953406Y871372D01*
X4944059Y883310D01*
X4933289Y894029D01*
X4921351Y903376D01*
X4911293Y909472D01*
X4908143Y912520D01*
X4906518Y916533D01*
X4906772Y920902D01*
X4908804Y924763D01*
X4912258Y927404D01*
X4916525Y928369D01*
X4949444Y928369D01*
X4955692Y929030D01*
X4961128Y930960D01*
X4965954Y934008D01*
X4970018Y938021D01*
X4973066Y942898D01*
X4974945Y948283D01*
X4975656Y954582D01*
X4975656Y1153414D01*
X4974945Y1159713D01*
X4973066Y1165098D01*
X4970018Y1169974D01*
X4965954Y1173988D01*
X4961128Y1177036D01*
X4955692Y1178966D01*
X4949444Y1179677D01*
X4750562Y1179677D01*
X4744313Y1178966D01*
X4738878Y1177036D01*
X4734052Y1173988D01*
X4729988Y1169974D01*
X4726940Y1165098D01*
X4725060Y1159713D01*
X4724349Y1153414D01*
X4724349Y1149350D01*
X4723587Y1145438D01*
X4721352Y1142187D01*
X4718050Y1139952D01*
X4714189Y1139190D01*
X4610150Y1139190D01*
X4606290Y1139952D01*
X4602988Y1142187D01*
X4600752Y1145438D01*
X4599990Y1149350D01*
X4599990Y1189837D01*
X4600752Y1193749D01*
X4602988Y1197000D01*
X4606290Y1199235D01*
X4610150Y1199997D01*
X5049012Y1199997D01*
X5049977Y1201013D01*
X5049977Y1499006D01*
X5049012Y1500022D01*
X4610150Y1500022D01*
X4606290Y1500784D01*
X4602988Y1502968D01*
X4600752Y1506270D01*
X4599990Y1510182D01*
X4599990Y2489860D01*
X4600752Y2493721D01*
X4602988Y2497023D01*
X4606290Y2499207D01*
X4610150Y2500020D01*
X5376062Y2500020D01*
X5379974Y2499207D01*
X5383276Y2497023D01*
X5385460Y2493721D01*
X5386222Y2489860D01*
X5386222Y1867560D01*
X5385663Y1864156D01*
X5383936Y1861159D01*
X5381345Y1858873D01*
X5378704Y1857298D01*
X5366766Y1847900D01*
X5356047Y1837182D01*
X5346700Y1825243D01*
X5338826Y1812289D01*
X5332628Y1798421D01*
X5328107Y1783943D01*
X5325364Y1769008D01*
X5324449Y1753870D01*
X5325364Y1738731D01*
X5328107Y1723796D01*
X5332628Y1709318D01*
X5338826Y1695500D01*
X5346700Y1682496D01*
X5356047Y1670557D01*
X5366766Y1659839D01*
X5378704Y1650492D01*
X5391708Y1642618D01*
X5405526Y1636420D01*
X5420004Y1631899D01*
X5434939Y1629156D01*
X5450078Y1628241D01*
X5465216Y1629156D01*
X5480151Y1631899D01*
X5494629Y1636420D01*
X5508447Y1642618D01*
X5521452Y1650492D01*
X5533390Y1659839D01*
X5544108Y1670557D01*
X5553456Y1682496D01*
X5561330Y1695500D01*
X5567527Y1709318D01*
X5572048Y1723796D01*
X5574792Y1738731D01*
X5575706Y1753870D01*
X5574792Y1769008D01*
X5572048Y1783943D01*
X5567527Y1798421D01*
X5561330Y1812289D01*
X5553456Y1825243D01*
X5544108Y1837182D01*
X5533390Y1847900D01*
X5521452Y1857298D01*
X5518658Y1858975D01*
X5516067Y1861210D01*
X5514340Y1864258D01*
X5513730Y1867662D01*
X5513730Y2489860D01*
X5514543Y2493721D01*
X5516727Y2497023D01*
X5520029Y2499207D01*
X5523890Y2500020D01*
X5789828Y2500020D01*
X5793740Y2499207D01*
X5797042Y2497023D01*
X5799226Y2493721D01*
X5799988Y2489860D01*
X5799988Y810158D01*
X5799226Y806297D01*
X5797042Y802995D01*
X5793740Y800760D01*
X5789828Y799998D01*
X5201005Y799998D01*
X5199989Y798982D01*
X5199989Y410159D01*
X5199227Y406247D01*
X5197043Y402996D01*
X5193741Y400761D01*
X5189829Y399999D01*
G37*

%LPD*%
D11*
X1562100Y4015994D02*
G01*
X1466087Y4015994D01*
X1122934Y3672839D01*
X1122934Y877062D01*
X1299971Y700023D01*
X3549904Y700023D01*
X3899915Y1050036D01*
X4849875Y1050036D01*
X4849875Y1054100D01*
D12*
X1562100Y3253994D02*
G01*
X1745995Y3253994D01*
X1949958Y3050031D01*
X1949958Y2851912D01*
X2266188Y2549905D01*
X2800095Y2549905D01*
X3455924Y3205987D01*
X3690111Y3205987D01*
X1562100Y2999994D02*
G01*
X1700021Y2999994D01*
X1800097Y2899918D01*
X1800097Y2750057D01*
X2199893Y2350007D01*
X2949956Y2350007D01*
X3549904Y2949955D01*
X3686047Y2949955D01*
X3690111Y2945892D01*
X3690010Y2945968D02*
G01*
X4345967Y2945968D01*
X4850000Y3450000D01*
X5428914Y3450000D01*
X5450077Y3471163D01*
X3690010Y3205987D02*
G01*
X4305988Y3205987D01*
X4800000Y3700000D01*
X5424914Y3700000D01*
X5450077Y3725163D01*
D11*
X2344927Y3275076D02*
G01*
X2824988Y3275076D01*
X4149852Y4599939D01*
X4849875Y4599939D01*
X2345004Y3275025D02*
G01*
X2350008Y3599942D01*
X1933956Y4015994D01*
X1562100Y4015994D01*
D12*
X38100Y3761994D02*
G01*
X911860Y3761994D01*
X1199895Y4050029D01*
X1199895Y4700015D01*
X1450086Y4949952D01*
X5599938Y4949952D01*
X5750052Y4800092D01*
X5750052Y4199889D01*
X5529325Y3979418D01*
X5450077Y3979418D01*
D11*
X4849997Y4599998D02*
G01*
X5149987Y4600006D01*
X5262699Y4487306D01*
X5449999Y4487306D01*
D12*
X37998Y2999994D02*
G01*
X249946Y2999994D01*
X700026Y2549916D01*
X700026Y887232D01*
X721103Y887232D01*
X1158242Y450100D01*
X3650109Y450100D01*
X4000017Y800006D01*
X4849997Y800006D01*
X5449999Y1754009D02*
G01*
X5449999Y2800009D01*
X5117442Y3132566D01*
X4851981Y3132566D01*
D13*
X4851981Y3958066D02*
G01*
X4873216Y3979306D01*
X5449999Y3979306D01*
D14*
G01*
X5450077Y4487163D03*
D15*
G01*
X5450077Y4233163D03*
G01*
X5450077Y3979163D03*
G01*
X5450077Y3725163D03*
G01*
X5450077Y3471163D03*
G01*
X5450077Y3217163D03*
G01*
X5450077Y1753870D03*
D14*
G01*
X5450077Y1499895D03*
G36*
X4750000Y4704001D02*
G01*
X4950000Y4704001D01*
X4950000Y4504001D01*
X4750000Y4504001D01*
G37*
D15*
G01*
X4850002Y4350004D03*
G01*
X4849875Y1345945D03*
G01*
X4849875Y1853945D03*
G01*
X4851984Y3132581D03*
G01*
X4851984Y3958081D03*
G01*
X4850002Y2875000D03*
G01*
X4850002Y2113000D03*
D16*
G01*
X499998Y5499988D03*
G01*
X5499988Y5499988D03*
G01*
X499998Y499998D03*
G01*
X5499988Y499998D03*
D14*
G01*
X4850002Y1053998D03*
D15*
G01*
X4850002Y799998D03*
G01*
X4850002Y545998D03*
G36*
X2244994Y3375019D02*
G01*
X2444993Y3375019D01*
X2444993Y3175020D01*
X2244994Y3175020D01*
G37*
G01*
X2345004Y2754985D03*
G01*
X3690010Y3205987D03*
G01*
X3690010Y2945968D03*
G01*
X2345004Y3014979D03*
G36*
X3590000Y3566002D02*
G01*
X3790000Y3566002D01*
X3790000Y3366002D01*
X3590000Y3366002D01*
G37*
G01*
X3690010Y2685973D03*
D17*
G01*
X38000Y4777999D03*
D18*
G01*
X38000Y4523999D03*
G01*
X38000Y4269999D03*
G01*
X38000Y4015999D03*
G01*
X38000Y3761999D03*
G01*
X38000Y3507999D03*
G01*
X38000Y3253999D03*
G01*
X38000Y2999999D03*
G01*
X38000Y2745999D03*
G01*
X38000Y2491999D03*
G01*
X38000Y2237999D03*
G01*
X38000Y1983999D03*
G01*
X38000Y1729999D03*
G01*
X38000Y1475999D03*
G01*
X38000Y1221999D03*
G01*
X1562000Y4777999D03*
G01*
X1562000Y4523999D03*
G01*
X1562000Y4269999D03*
G01*
X1562000Y4015999D03*
G01*
X1562000Y3761999D03*
G01*
X1562000Y3507999D03*
G01*
X1562000Y3253999D03*
G01*
X1562000Y2999999D03*
G01*
X1562000Y2745999D03*
G01*
X1562000Y2491999D03*
G01*
X1562000Y2237999D03*
G01*
X1562000Y1983999D03*
G01*
X1562000Y1729999D03*
G01*
X1562000Y1475999D03*
G01*
X1562000Y1221999D03*
M02*
